<svg id="Layer_1" data-name="Layer 1" xmlns="http://www.w3.org/2000/svg" xmlns:xlink="http://www.w3.org/1999/xlink" width="12.15" height="69.37" viewBox="0 0 12.15 69.37"><defs><style>.cls-1{stroke-miterlimit:10;stroke-width:0.38px;fill:url(#linear-gradient);stroke:url(#linear-gradient-2);}</style><linearGradient id="linear-gradient" x1="-997.74" y1="613.07" x2="-997.74" y2="544.07" gradientTransform="translate(1003.34 -543.88)" gradientUnits="userSpaceOnUse"><stop offset="0.02" stop-color="#666"/><stop offset="0.06" stop-color="#8c8c8c"/><stop offset="0.11" stop-color="#abaaab"/><stop offset="0.15" stop-color="#bebdbe"/><stop offset="0.18" stop-color="#c5c4c5"/><stop offset="0.29" stop-color="#979696"/><stop offset="0.33" stop-color="#919090"/><stop offset="0.5" stop-color="#f2f2f2"/><stop offset="0.78" stop-color="#c9c8c8"/><stop offset="1" stop-color="#4d4d4d"/></linearGradient><linearGradient id="linear-gradient-2" x1="5.6" y1="69.37" x2="5.6" gradientUnits="userSpaceOnUse"><stop offset="0" stop-color="#a6a5a5"/><stop offset="0.11" stop-color="#d2d1d2"/><stop offset="0.18" stop-color="#c5c4c5"/><stop offset="0.29" stop-color="#979696"/><stop offset="0.33" stop-color="#919090"/><stop offset="0.78" stop-color="#c9c8c8"/><stop offset="0.85" stop-color="#fff"/><stop offset="1" stop-color="#797979"/></linearGradient></defs><title>AdditionalOptics_CouplingLens copy</title><path class="cls-1" d="M3.52.19H11v69H3.52S-4,34.69,3.52.19Z"/><path d="M9.62,58.12a2.24,2.24,0,0,1-.27,1.1,2,2,0,0,1-.82.8,2.57,2.57,0,0,1-1.33.31A2.76,2.76,0,0,1,5.86,60,2.1,2.1,0,0,1,5,59.2a2.2,2.2,0,0,1-.3-1.11,1.68,1.68,0,0,1,.19-.82,2,2,0,0,1,.43-.61l.68.57a1.89,1.89,0,0,0-.27.38,1,1,0,0,0-.11.46,1,1,0,0,0,.41.82,1.68,1.68,0,0,0,1.12.34,1.88,1.88,0,0,0,1.14-.31,1.09,1.09,0,0,0,.27-1.36,1.53,1.53,0,0,0-.31-.4l.67-.57A1.94,1.94,0,0,1,9.62,58.12Z"/><path d="M9.62,54.21A2,2,0,0,1,9,55.77a2.61,2.61,0,0,1-1.82.59,2.51,2.51,0,0,1-1.8-.59,2,2,0,0,1-.64-1.56,2,2,0,0,1,.64-1.55,2.54,2.54,0,0,1,1.8-.6,2.61,2.61,0,0,1,1.82.6A2,2,0,0,1,9.62,54.21Zm-.92,0a.89.89,0,0,0-.42-.77,2,2,0,0,0-1.13-.28A1.9,1.9,0,0,0,6,53.44a.9.9,0,0,0-.41.77A.89.89,0,0,0,6,55a1.9,1.9,0,0,0,1.11.29A2,2,0,0,0,8.28,55,.88.88,0,0,0,8.7,54.21Z"/><path d="M9.62,49.3a1.79,1.79,0,0,1-.54,1.41,2.58,2.58,0,0,1-1.74.49H4.8V50.12H7.45a1.64,1.64,0,0,0,1-.21.7.7,0,0,0,.28-.61.73.73,0,0,0-.28-.62,1.62,1.62,0,0,0-1-.22H4.8v-1H7.34a2.58,2.58,0,0,1,1.74.48A1.76,1.76,0,0,1,9.62,49.3Z"/><path d="M9.54,46.33H4.8V44.71a2.55,2.55,0,0,1,.33-1.33,1.28,1.28,0,0,1,1.19-.56,1.4,1.4,0,0,1,1.23.56,2.26,2.26,0,0,1,.38,1.3v.59H9.54ZM7.08,45.27v-.53c0-.58-.25-.87-.76-.87a.59.59,0,0,0-.52.23,1.26,1.26,0,0,0-.15.67v.5Z"/><path d="M9.54,42H4.8V40.94H8.64V39.06h.9Z"/><path d="M9.54,38.24H4.8V37.17H9.54Z"/><path d="M9.54,36.05H4.8V35l2.35-1.23,1-.47v0l-.84.08a6.93,6.93,0,0,1-.89.05H4.8v-1H9.54v1.09L7.17,34.67l-1,.46v0L7,35.08c.3,0,.59,0,.87,0H9.54Z"/><path d="M9.62,29.12A2.36,2.36,0,0,1,9,30.77a2.35,2.35,0,0,1-1.81.67,2.66,2.66,0,0,1-1.34-.31A2.08,2.08,0,0,1,5,30.29a2.31,2.31,0,0,1-.3-1.16,1.87,1.87,0,0,1,.19-.88,2.44,2.44,0,0,1,.43-.61L6,28.2a2.09,2.09,0,0,0-.27.39,1.07,1.07,0,0,0-.11.51A1.16,1.16,0,0,0,6,30a1.69,1.69,0,0,0,1.12.35A1.71,1.71,0,0,0,8.3,30a1.2,1.2,0,0,0,.4-1,.84.84,0,0,0-.14-.51H7.74v.78H6.87V27.56H9.05a2.12,2.12,0,0,1,.41.66A2.36,2.36,0,0,1,9.62,29.12Z"/><path d="M9.54,25.13H4.8V24.06H8.64V22.18h.9Z"/><path d="M9.54,21.36H4.8v-3h.9v1.89h1V18.68h.9v1.61H8.64v-2h.9Z"/><path d="M9.54,17.38H4.8v-1.1l2.35-1.23,1-.47v0l-.84.08a6.93,6.93,0,0,1-.89,0H4.8v-1H9.54v1.09L7.17,16l-1,.46v0L7,16.41c.3,0,.59-.05.87-.05H9.54Z"/><path d="M9.62,11.1a2.55,2.55,0,0,1-.17.93,2.57,2.57,0,0,1-.51.82l-.73-.61a2.36,2.36,0,0,0,.35-.57,1.5,1.5,0,0,0,.14-.6c0-.44-.15-.66-.46-.66a.35.35,0,0,0-.33.18,4.11,4.11,0,0,0-.23.5l-.27.62a1.8,1.8,0,0,1-.46.66,1.2,1.2,0,0,1-.83.29,1.27,1.27,0,0,1-1-.47A1.79,1.79,0,0,1,4.71,11a2.17,2.17,0,0,1,.16-.82,2,2,0,0,1,.47-.71L6,10a2.27,2.27,0,0,0-.28.46,1.46,1.46,0,0,0-.1.52.74.74,0,0,0,.12.44.37.37,0,0,0,.64-.05c.07-.14.15-.31.23-.51l.25-.61a1.74,1.74,0,0,1,.48-.68,1.21,1.21,0,0,1,.81-.26,1.36,1.36,0,0,1,1,.47A1.82,1.82,0,0,1,9.62,11.1Z"/></svg>