<svg xmlns="http://www.w3.org/2000/svg" xmlns:xlink="http://www.w3.org/1999/xlink" width="46.5" height="80.99" viewBox="0 0 46.5 80.99"><defs><style>.cls-1{isolation:isolate;}.cls-2{fill:url(#linear-gradient);}.cls-3{mix-blend-mode:soft-light;fill:url(#linear-gradient-2);}.cls-4{fill:url(#linear-gradient-3);}.cls-5{fill:url(#linear-gradient-4);}</style><linearGradient id="linear-gradient" x1="43.99" y1="30.35" x2="0.39" y2="30.35" gradientUnits="userSpaceOnUse"><stop offset="0.02" stop-color="#666"/><stop offset="0.02" stop-color="#646464"/><stop offset="0.2" stop-color="#393939"/><stop offset="0.36" stop-color="#1a1a1a"/><stop offset="0.5" stop-color="#070707"/><stop offset="0.59"/><stop offset="1" stop-color="#4d4d4d"/></linearGradient><linearGradient id="linear-gradient-2" x1="12.14" y1="51.21" x2="36.67" y2="8.73" gradientUnits="userSpaceOnUse"><stop offset="0" stop-color="#ccc"/><stop offset="0.32" stop-color="#e6e6e6"/><stop offset="1" stop-color="#fff"/></linearGradient><linearGradient id="linear-gradient-3" x1="42.81" y1="42.52" x2="0.79" y2="18.26" xlink:href="#linear-gradient"/><linearGradient id="linear-gradient-4" x1="46.5" y1="30.35" x2="2.91" y2="30.35" xlink:href="#linear-gradient"/></defs><title>AdditionalOptics_AdditionalLens_1</title><g class="cls-1"><g id="Layer_1" data-name="Layer 1"><path d="M6.14,69.32l-.23-1H4.59l-.24,1H3.07l1.44-4.73H6l1.44,4.73ZM4.89,67l-.08.33h.87L5.6,67l-.17-.74c-.06-.27-.12-.52-.18-.76h0c-.05.24-.11.5-.16.76S5,66.8,4.89,67Z"/><path d="M7.91,69.32V64.59h1.4a2.66,2.66,0,0,1,1.75.55,2.17,2.17,0,0,1,.68,1.79,2.24,2.24,0,0,1-.67,1.82,2.49,2.49,0,0,1-1.69.57Zm1.25-1h.08A1.38,1.38,0,0,0,10.1,68a1.37,1.37,0,0,0,.36-1.11,1.27,1.27,0,0,0-.36-1.08,1.44,1.44,0,0,0-.86-.26H9.16Z"/><path d="M12.58,69.32V64.59H14a2.68,2.68,0,0,1,1.75.55,2.16,2.16,0,0,1,.67,1.79,2.27,2.27,0,0,1-.66,1.82,2.51,2.51,0,0,1-1.69.57Zm1.25-1h.07a1.41,1.41,0,0,0,.87-.27,1.37,1.37,0,0,0,.35-1.11c0-.55-.11-.91-.35-1.08a1.47,1.47,0,0,0-.87-.26h-.07Z"/><path d="M17.25,69.32V64.59H18.5v4.73Z"/><path d="M20.44,69.32V65.64H19.19v-1h3.75v1H21.69v3.68Z"/><path d="M23.64,69.32V64.59h1.25v4.73Z"/><path d="M27.93,69.4a2.1,2.1,0,0,1-1.59-.65,2.59,2.59,0,0,1-.6-1.82,2.5,2.5,0,0,1,.6-1.79,2.3,2.3,0,0,1,3.18,0,2.5,2.5,0,0,1,.61,1.79,2.6,2.6,0,0,1-.61,1.82A2.09,2.09,0,0,1,27.93,69.4Zm0-1.07A.78.78,0,0,0,28.6,68a1.87,1.87,0,0,0,.25-1,1.74,1.74,0,0,0-.25-1,.8.8,0,0,0-1.34,0,1.74,1.74,0,0,0-.25,1,1.87,1.87,0,0,0,.25,1A.78.78,0,0,0,27.93,68.33Z"/><path d="M31,69.32V64.59h1.28l1,2.11.46,1.06h0c0-.25-.06-.54-.1-.87a7.75,7.75,0,0,1-.06-.93V64.59h1.2v4.73H33.53L32.48,67.2l-.45-1h0c0,.27.06.56.1.88a7.47,7.47,0,0,1,.06.92v1.37Z"/><path d="M38.32,69.32l-.23-1H36.77l-.23,1H35.26l1.44-4.73h1.51l1.44,4.73ZM37.07,67l-.08.33h.88L37.79,67c-.06-.22-.12-.47-.18-.74s-.11-.52-.17-.76h0c0,.24-.1.5-.16.76S37.13,66.8,37.07,67Z"/><path d="M40.1,69.32V64.59h1.25v3.68h1.79v1Z"/><path d="M15.37,78V73.31h1.25V77h1.79V78Z"/><path d="M19.22,78V73.31h3.06v1H20.47v.74H22v1.05H20.47V77h1.88V78Z"/><path d="M23.26,78V73.31h1.28l1.05,2.11L26,76.48h0c0-.25-.06-.54-.1-.87a7.75,7.75,0,0,1-.06-.93V73.31H27.1V78H25.82l-1-2.12-.45-1h0c0,.27.06.57.1.88a7.47,7.47,0,0,1,.06.92V78Z"/><path d="M29.65,78.12a2.8,2.8,0,0,1-.93-.16,2.42,2.42,0,0,1-.86-.51l.71-.86a1.92,1.92,0,0,0,.55.33,1.3,1.3,0,0,0,.56.13c.35,0,.53-.11.53-.34a.26.26,0,0,0-.17-.25l-.47-.2L29,76a1.7,1.7,0,0,1-.66-.48,1.24,1.24,0,0,1-.29-.84,1.33,1.33,0,0,1,.5-1,1.84,1.84,0,0,1,1.26-.43,2.47,2.47,0,0,1,.83.15,2.19,2.19,0,0,1,.74.48l-.62.78a2.4,2.4,0,0,0-.47-.25,1.21,1.21,0,0,0-.48-.09c-.33,0-.49.11-.49.32a.28.28,0,0,0,.19.26l.5.21.58.23a1.6,1.6,0,0,1,.68.49,1.25,1.25,0,0,1,.24.8A1.43,1.43,0,0,1,31,77.67,1.91,1.91,0,0,1,29.65,78.12Z"/><path class="cls-2" d="M21.93,0C9.89.15.25,13.86.39,30.62s10,30.23,22.06,30.08S44.13,46.84,44,30.08,34-.15,21.93,0Zm.29,56.2c-10.07.13-18.33-11.52-18.45-26s7.93-26.35,18-26.47,18.33,11.52,18.45,26S32.28,56.08,22.22,56.2Z"/><ellipse class="cls-3" cx="24.4" cy="29.97" rx="18.38" ry="26.25"/><path class="cls-4" d="M21.53,0C9.5.19-.14,13.89,0,30.66S10,60.89,22.06,60.74a15.73,15.73,0,0,0,2.75-.28c10.72-2,18.92-14.88,18.78-30.34C43.45,13.36,33.57-.11,21.53,0Zm3.2,56.18c-10.06.12-18.32-11.53-18.44-26s7.93-26.35,18-26.48,18.32,11.53,18.45,26S34.8,56.09,24.73,56.22Z"/><path class="cls-5" d="M24.44,0C12.4.15,2.76,13.86,2.91,30.62S12.93,60.85,25,60.7,46.64,46.84,46.5,30.08,36.48-.15,24.44,0Zm.29,56.2c-10.06.13-18.32-11.52-18.45-26s7.93-26.35,18-26.47,18.32,11.52,18.45,26S34.79,56.08,24.73,56.2Z"/></g></g></svg>