<svg xmlns="http://www.w3.org/2000/svg" xmlns:xlink="http://www.w3.org/1999/xlink" width="46.5" height="81.99" viewBox="0 0 46.5 81.99"><defs><style>.cls-1{isolation:isolate;}.cls-2{opacity:0.65;}.cls-3{opacity:0.61;fill:url(#linear-gradient);}.cls-4{opacity:0.51;fill:url(#linear-gradient-2);}.cls-5{fill:url(#linear-gradient-3);}.cls-6,.cls-9{mix-blend-mode:soft-light;}.cls-6{fill:url(#linear-gradient-4);}.cls-7{fill:url(#linear-gradient-5);}.cls-8{fill:url(#linear-gradient-6);}.cls-9{fill:url(#linear-gradient-7);}</style><linearGradient id="linear-gradient" x1="40.38" y1="38.73" x2="3.11" y2="17.21" gradientUnits="userSpaceOnUse"><stop offset="0.02" stop-color="#666"/><stop offset="0.02" stop-color="#6e6e6e"/><stop offset="0.05" stop-color="#999899"/><stop offset="0.07" stop-color="#b8b7b8"/><stop offset="0.09" stop-color="#cbcacb"/><stop offset="0.11" stop-color="#d2d1d2"/><stop offset="0.18" stop-color="#c5c4c5"/><stop offset="0.29" stop-color="#979696"/><stop offset="0.33" stop-color="#919090"/><stop offset="0.5" stop-color="#f2f2f2"/><stop offset="0.78" stop-color="#c9c8c8"/><stop offset="0.85" stop-color="#fff"/><stop offset="1" stop-color="#4d4d4d"/></linearGradient><linearGradient id="linear-gradient-2" x1="24.37" y1="54.22" x2="24.37" y2="1.72" gradientUnits="userSpaceOnUse"><stop offset="0.02" stop-color="#666"/><stop offset="0.02" stop-color="#6e6e6e"/><stop offset="0.05" stop-color="#999899"/><stop offset="0.07" stop-color="#b8b7b8"/><stop offset="0.09" stop-color="#cbcacb"/><stop offset="0.11" stop-color="#d2d1d2"/><stop offset="0.18" stop-color="#c5c4c5"/><stop offset="0.29" stop-color="#979696"/><stop offset="0.36" stop-color="#919090"/><stop offset="0.59" stop-color="#c9c8c8"/><stop offset="0.85" stop-color="#f2f2f2"/><stop offset="1" stop-color="#4d4d4d"/></linearGradient><linearGradient id="linear-gradient-3" x1="43.99" y1="30.35" x2="0.39" y2="30.35" gradientUnits="userSpaceOnUse"><stop offset="0.02" stop-color="#666"/><stop offset="0.02" stop-color="#646464"/><stop offset="0.2" stop-color="#393939"/><stop offset="0.36" stop-color="#1a1a1a"/><stop offset="0.5" stop-color="#070707"/><stop offset="0.59"/><stop offset="1" stop-color="#4d4d4d"/></linearGradient><linearGradient id="linear-gradient-4" x1="11.57" y1="51.29" x2="36.19" y2="8.65" gradientUnits="userSpaceOnUse"><stop offset="0" stop-color="#921d00"/><stop offset="0.32" stop-color="#d42300"/><stop offset="1" stop-color="#ff949d"/></linearGradient><linearGradient id="linear-gradient-5" x1="42.81" y1="42.52" x2="0.79" y2="18.26" xlink:href="#linear-gradient-3"/><linearGradient id="linear-gradient-6" x1="46.5" y1="30.35" x2="2.91" y2="30.35" xlink:href="#linear-gradient-3"/><linearGradient id="linear-gradient-7" x1="40.44" y1="14.18" x2="8.87" y2="45.76" gradientUnits="userSpaceOnUse"><stop offset="0" stop-color="#921d00"/><stop offset="0.32" stop-color="#d42300"/><stop offset="1" stop-color="#ffa49d"/></linearGradient></defs><title>AdditionalOptics_AdditionalDichroic copy</title><g class="cls-1"><g id="Layer_1" data-name="Layer 1"><g class="cls-2"><ellipse class="cls-3" cx="21.75" cy="27.97" rx="19.69" ry="26.25"/><ellipse class="cls-4" cx="24.37" cy="27.97" rx="19.69" ry="26.25"/></g><path class="cls-5" d="M21.93,0C9.89.15.25,13.86.39,30.62s10,30.23,22.06,30.08S44.13,46.84,44,30.08,34-.15,21.93,0Zm.29,56.2c-10.07.13-18.33-11.52-18.45-26s7.93-26.35,18-26.47,18.33,11.52,18.45,26S32.28,56.08,22.22,56.2Z"/><ellipse class="cls-6" cx="23.88" cy="29.97" rx="18.85" ry="26.25"/><path class="cls-7" d="M21.53,0C9.5.19-.14,13.89,0,30.66S10,60.89,22.06,60.74a15.73,15.73,0,0,0,2.75-.28c10.72-2,18.92-14.88,18.78-30.34C43.45,13.36,33.57-.11,21.53,0Zm3.2,56.18c-10.06.12-18.32-11.53-18.44-26s7.93-26.35,18-26.48,18.32,11.53,18.45,26S34.8,56.09,24.73,56.22Z"/><path class="cls-8" d="M24.44,0C12.4.15,2.76,13.86,2.91,30.62S12.93,60.85,25,60.7,46.64,46.84,46.5,30.08,36.48-.15,24.44,0Zm.29,56.2c-10.06.13-18.32-11.52-18.45-26s7.93-26.35,18-26.47,18.32,11.52,18.45,26S34.79,56.08,24.73,56.2Z"/><path class="cls-9" d="M42.73,30.72c-.25,11.72-7.49,25.13-17.59,25.5C14.63,56.6,6.28,42.68,6.28,30S14.63,3.36,25.14,3.72,43,18.38,42.73,30.72Z"/><path d="M5.41,70.32l-.23-1H3.86l-.23,1H2.35l1.44-4.73H5.3l1.44,4.73ZM4.16,68l-.08.33H5L4.88,68c-.06-.22-.12-.47-.18-.74s-.11-.52-.17-.76h0c0,.24-.1.5-.16.76S4.22,67.8,4.16,68Z"/><path d="M7.19,70.32V65.59H8.58a2.66,2.66,0,0,1,1.75.55A2.14,2.14,0,0,1,11,67.93a2.27,2.27,0,0,1-.66,1.82,2.52,2.52,0,0,1-1.69.57Zm1.25-1h.07A1.41,1.41,0,0,0,9.38,69a1.4,1.4,0,0,0,.35-1.11,1.3,1.3,0,0,0-.35-1.08,1.47,1.47,0,0,0-.87-.26H8.44Z"/><path d="M11.85,70.32V65.59h1.4a2.66,2.66,0,0,1,1.75.55,2.17,2.17,0,0,1,.68,1.79A2.24,2.24,0,0,1,15,69.75a2.49,2.49,0,0,1-1.69.57Zm1.25-1h.08A1.38,1.38,0,0,0,14,69a1.37,1.37,0,0,0,.36-1.11A1.27,1.27,0,0,0,14,66.85a1.44,1.44,0,0,0-.86-.26H13.1Z"/><path d="M16.52,70.32V65.59h1.25v4.73Z"/><path d="M19.72,70.32V66.64H18.47v-1h3.75v1H21v3.68Z"/><path d="M22.92,70.32V65.59h1.25v4.73Z"/><path d="M27.2,70.4a2.07,2.07,0,0,1-1.58-.65A2.55,2.55,0,0,1,25,67.93a2.46,2.46,0,0,1,.61-1.79,2.28,2.28,0,0,1,3.17,0,2.46,2.46,0,0,1,.61,1.79,2.55,2.55,0,0,1-.61,1.82A2.07,2.07,0,0,1,27.2,70.4Zm0-1.07a.76.76,0,0,0,.67-.38,1.79,1.79,0,0,0,.25-1,1.67,1.67,0,0,0-.25-1,.79.79,0,0,0-1.33,0,1.67,1.67,0,0,0-.25,1,1.79,1.79,0,0,0,.25,1A.75.75,0,0,0,27.2,69.33Z"/><path d="M30.24,70.32V65.59h1.28l1.05,2.11L33,68.76h0c0-.25-.07-.54-.1-.87a7.75,7.75,0,0,1-.06-.93V65.59h1.19v4.73H32.8l-1-2.12-.45-1h0c0,.27.07.56.11.88a7.39,7.39,0,0,1,.05.92v1.37Z"/><path d="M37.6,70.32l-.24-1H36l-.23,1H34.53L36,65.59h1.51l1.44,4.73ZM36.35,68l-.08.33h.87L37.06,68c-.06-.22-.12-.47-.17-.74s-.12-.52-.18-.76h0c0,.24-.1.5-.16.76S36.41,67.8,36.35,68Z"/><path d="M39.37,70.32V65.59h1.25v3.68h1.79v1Z"/><path d="M6.91,79V74.31h1.4a2.68,2.68,0,0,1,1.75.55,2.16,2.16,0,0,1,.67,1.79,2.27,2.27,0,0,1-.66,1.82A2.51,2.51,0,0,1,8.38,79Zm1.25-1h.07a1.41,1.41,0,0,0,.87-.27,1.35,1.35,0,0,0,.36-1.11,1.27,1.27,0,0,0-.36-1.08,1.46,1.46,0,0,0-.87-.25H8.16Z"/><path d="M11.58,79V74.31h1.25V79Z"/><path d="M15.92,79.12a2.45,2.45,0,0,1-1.11-.26,2.08,2.08,0,0,1-.83-.81,2.58,2.58,0,0,1-.31-1.34A2.7,2.7,0,0,1,14,75.36a2.21,2.21,0,0,1,.85-.84A2.17,2.17,0,0,1,16,74.23a2,2,0,0,1,.85.18,2.52,2.52,0,0,1,.62.44l-.65.8a2,2,0,0,0-.36-.25.88.88,0,0,0-.43-.1.92.92,0,0,0-.72.36,1.51,1.51,0,0,0-.31,1,1.59,1.59,0,0,0,.28,1,.89.89,0,0,0,.74.36,1,1,0,0,0,.49-.12,2.16,2.16,0,0,0,.37-.29l.65.79A2,2,0,0,1,15.92,79.12Z"/><path d="M18.13,79V74.31h1.25v1.76h1.41V74.31H22V79H20.79V77.16H19.38V79Z"/><path d="M24.34,79H23.09V74.31h1.79a3.14,3.14,0,0,1,.94.14,1.45,1.45,0,0,1,.69.47,1.48,1.48,0,0,1,.26.92,1.54,1.54,0,0,1-.21.84,1.5,1.5,0,0,1-.56.53L27,79h-1.4l-.81-1.59h-.48Zm0-2.58h.45c.5,0,.76-.2.76-.62a.46.46,0,0,0-.2-.42,1,1,0,0,0-.56-.12h-.45Z"/><path d="M29.66,79.12a2.07,2.07,0,0,1-1.59-.65,2.59,2.59,0,0,1-.6-1.82,2.5,2.5,0,0,1,.6-1.79,2.32,2.32,0,0,1,3.18,0,2.5,2.5,0,0,1,.61,1.79,2.6,2.6,0,0,1-.61,1.82A2.07,2.07,0,0,1,29.66,79.12Zm0-1.07a.78.78,0,0,0,.67-.38,1.87,1.87,0,0,0,.25-1,1.74,1.74,0,0,0-.25-1,.8.8,0,0,0-1.34,0,1.74,1.74,0,0,0-.25,1,1.87,1.87,0,0,0,.25,1A.78.78,0,0,0,29.66,78.05Z"/><path d="M32.7,79V74.31H34V79Z"/><path d="M37,79.12a2.45,2.45,0,0,1-1.11-.26,2.08,2.08,0,0,1-.83-.81,3,3,0,0,1,0-2.69,2.21,2.21,0,0,1,.85-.84,2.17,2.17,0,0,1,1.11-.29,2,2,0,0,1,.85.18,2.52,2.52,0,0,1,.62.44l-.65.8a2,2,0,0,0-.36-.25.88.88,0,0,0-.43-.1.92.92,0,0,0-.72.36,1.51,1.51,0,0,0-.31,1,1.59,1.59,0,0,0,.28,1,.89.89,0,0,0,.74.36,1,1,0,0,0,.49-.12,2.16,2.16,0,0,0,.37-.29l.65.79A2,2,0,0,1,37,79.12Z"/></g></g></svg>