<svg xmlns="http://www.w3.org/2000/svg" xmlns:xlink="http://www.w3.org/1999/xlink" viewBox="0 0 33.26 60.78"><defs><style>.cls-1{isolation:isolate;}.cls-2{fill:#8e8e8e;}.cls-3{opacity:0.65;}.cls-4{opacity:0.61;fill:url(#linear-gradient);}.cls-5{opacity:0.51;fill:url(#linear-gradient-2);}.cls-6{fill:url(#linear-gradient-3);}.cls-10,.cls-7{mix-blend-mode:multiply;}.cls-7{fill:url(#linear-gradient-4);}.cls-8{fill:url(#linear-gradient-5);}.cls-9{fill:url(#linear-gradient-6);}.cls-10{opacity:0.42;fill:url(#linear-gradient-7);}</style><linearGradient id="linear-gradient" x1="26.23" y1="26.28" x2="5.81" y2="14.49" gradientUnits="userSpaceOnUse"><stop offset="0.02" stop-color="#666"/><stop offset="0.02" stop-color="#6e6e6e"/><stop offset="0.05" stop-color="#999899"/><stop offset="0.07" stop-color="#b8b7b8"/><stop offset="0.09" stop-color="#cbcacb"/><stop offset="0.11" stop-color="#d2d1d2"/><stop offset="0.18" stop-color="#c5c4c5"/><stop offset="0.29" stop-color="#979696"/><stop offset="0.33" stop-color="#919090"/><stop offset="0.5" stop-color="#f2f2f2"/><stop offset="0.78" stop-color="#c9c8c8"/><stop offset="0.85" stop-color="#fff"/><stop offset="1" stop-color="#4d4d4d"/></linearGradient><linearGradient id="linear-gradient-2" x1="17.09" y1="39.4" x2="17.09" y2="1.36" gradientUnits="userSpaceOnUse"><stop offset="0.02" stop-color="#666"/><stop offset="0.02" stop-color="#6e6e6e"/><stop offset="0.05" stop-color="#999899"/><stop offset="0.07" stop-color="#b8b7b8"/><stop offset="0.09" stop-color="#cbcacb"/><stop offset="0.11" stop-color="#d2d1d2"/><stop offset="0.18" stop-color="#c5c4c5"/><stop offset="0.29" stop-color="#979696"/><stop offset="0.36" stop-color="#919090"/><stop offset="0.59" stop-color="#c9c8c8"/><stop offset="0.85" stop-color="#f2f2f2"/><stop offset="1" stop-color="#4d4d4d"/></linearGradient><linearGradient id="linear-gradient-3" x1="25.1" y1="22.11" x2="7.29" y2="22.11" gradientUnits="userSpaceOnUse"><stop offset="0.02" stop-color="#666"/><stop offset="0.02" stop-color="#646464"/><stop offset="0.2" stop-color="#393939"/><stop offset="0.36" stop-color="#1a1a1a"/><stop offset="0.5" stop-color="#070707"/><stop offset="0.59"/><stop offset="1" stop-color="#4d4d4d"/></linearGradient><linearGradient id="linear-gradient-4" x1="8.43" y1="36.48" x2="25.35" y2="7.18" gradientUnits="userSpaceOnUse"><stop offset="0" stop-color="#4d4d4d"/><stop offset="0.85" stop-color="#999"/></linearGradient><linearGradient id="linear-gradient-5" x1="27.69" y1="28.86" x2="4.39" y2="15.41" xlink:href="#linear-gradient-3"/><linearGradient id="linear-gradient-6" x1="26.13" y1="22.11" x2="8.32" y2="22.11" xlink:href="#linear-gradient-3"/><linearGradient id="linear-gradient-7" x1="27.38" y1="31.99" x2="7.07" y2="11.68" gradientUnits="userSpaceOnUse"><stop offset="0" stop-color="#999"/><stop offset="0.85" stop-color="#4d4d4d"/></linearGradient></defs><g class="cls-1"><g id="Layer_1" data-name="Layer 1"><path class="cls-2" d="M4.43,52.4V48.5H5.85a2.47,2.47,0,0,1,.79.12,1.19,1.19,0,0,1,.58.4,1.23,1.23,0,0,1,.22.78,1.26,1.26,0,0,1-.22.78,1.34,1.34,0,0,1-.58.44,1.9,1.9,0,0,1-.76.14H5.46V52.4Zm1-2h.37c.4,0,.6-.19.6-.55a.43.43,0,0,0-.16-.38.85.85,0,0,0-.46-.1H5.46Z"/><path class="cls-2" d="M9.72,52.47a1.7,1.7,0,0,1-1.31-.54,2.09,2.09,0,0,1-.5-1.5A2,2,0,0,1,8.41,49a1.72,1.72,0,0,1,1.31-.52A1.73,1.73,0,0,1,11,49a2.07,2.07,0,0,1,.5,1.48,2.14,2.14,0,0,1-.5,1.5A1.71,1.71,0,0,1,9.72,52.47Zm0-.89a.63.63,0,0,0,.55-.31,1.49,1.49,0,0,0,.2-.84,1.4,1.4,0,0,0-.2-.82.63.63,0,0,0-.55-.29.62.62,0,0,0-.55.29,1.4,1.4,0,0,0-.21.82,1.49,1.49,0,0,0,.21.84A.62.62,0,0,0,9.72,51.58Z"/><path class="cls-2" d="M12.23,52.4V48.5h1v3h1.47v.86Z"/><path class="cls-2" d="M17.39,52.4l-.2-.83H16.1l-.19.83H14.85L16,48.5h1.25l1.19,3.9Zm-1-1.9-.06.27H17l-.07-.27c-.05-.18-.09-.38-.14-.6s-.1-.44-.15-.63h0c0,.2-.08.41-.13.63S16.4,50.32,16.35,50.5Z"/><path class="cls-2" d="M19.88,52.4h-1V48.5h1.48a2.7,2.7,0,0,1,.77.11,1.17,1.17,0,0,1,.57.39,1.23,1.23,0,0,1,.22.76,1.28,1.28,0,0,1-.18.7,1.32,1.32,0,0,1-.45.43l.84,1.51H21l-.67-1.31h-.4Zm0-2.12h.37c.42,0,.63-.18.63-.52a.37.37,0,0,0-.16-.35,1,1,0,0,0-.47-.09h-.37Z"/><path class="cls-2" d="M22.63,52.4V48.5h1v3.9Z"/><path class="cls-2" d="M24.29,52.4v-.62l1.59-2.42H24.44V48.5h2.71v.62l-1.59,2.42h1.61v.86Z"/><path class="cls-2" d="M28.31,52.47a.59.59,0,0,1-.44-.18.63.63,0,0,1-.16-.44.64.64,0,0,1,.16-.45.58.58,0,0,1,.44-.17.56.56,0,0,1,.43.17.64.64,0,0,1,.17.45.64.64,0,0,1-.17.44A.57.57,0,0,1,28.31,52.47Z"/><path class="cls-2" d="M8.84,58.47a1.73,1.73,0,0,1-1.32-.54,2.14,2.14,0,0,1-.5-1.5A2.07,2.07,0,0,1,7.52,55a1.76,1.76,0,0,1,1.32-.52,1.73,1.73,0,0,1,1.31.52,2.07,2.07,0,0,1,.5,1.48,2.14,2.14,0,0,1-.5,1.5A1.71,1.71,0,0,1,8.84,58.47Zm0-.89a.63.63,0,0,0,.55-.31,1.58,1.58,0,0,0,.2-.84,1.48,1.48,0,0,0-.2-.82.68.68,0,0,0-1.11,0,1.48,1.48,0,0,0-.2.82,1.58,1.58,0,0,0,.2.84A.63.63,0,0,0,8.84,57.58Z"/><path class="cls-2" d="M11.34,58.4V54.5h1.43a2.47,2.47,0,0,1,.79.12,1.19,1.19,0,0,1,.58.4,1.29,1.29,0,0,1,.22.78,1.21,1.21,0,0,1-.8,1.22,1.94,1.94,0,0,1-.76.14h-.42V58.4Zm1-2h.37c.4,0,.6-.19.6-.55a.45.45,0,0,0-.16-.38.89.89,0,0,0-.47-.1h-.34Z"/><path class="cls-2" d="M15.68,58.4v-3h-1V54.5h3.1v.86h-1v3Z"/><path class="cls-2" d="M18.32,58.4V54.5h1v3.9Z"/><path class="cls-2" d="M21.9,58.47a1.92,1.92,0,0,1-.92-.22,1.72,1.72,0,0,1-.68-.66A2.22,2.22,0,0,1,20,56.48a2.12,2.12,0,0,1,.27-1.11,1.81,1.81,0,0,1,.7-.7,1.83,1.83,0,0,1,.92-.24,1.58,1.58,0,0,1,.69.15,2.37,2.37,0,0,1,.52.36l-.54.66a1.74,1.74,0,0,0-.3-.2.67.67,0,0,0-.35-.08.77.77,0,0,0-.6.3,1.22,1.22,0,0,0-.25.82,1.39,1.39,0,0,0,.23.85.72.72,0,0,0,.61.29.74.74,0,0,0,.4-.1,1.47,1.47,0,0,0,.31-.23l.54.65A1.63,1.63,0,0,1,21.9,58.47Z"/><path class="cls-2" d="M24.78,58.47a2.17,2.17,0,0,1-.77-.14,1.93,1.93,0,0,1-.7-.42l.58-.7a2.07,2.07,0,0,0,.45.27,1.21,1.21,0,0,0,.47.1c.29,0,.44-.09.44-.27a.24.24,0,0,0-.14-.21l-.39-.17-.48-.2a1.48,1.48,0,0,1-.56-.4,1,1,0,0,1-.23-.69,1.09,1.09,0,0,1,.41-.85,1.51,1.51,0,0,1,1-.36,1.82,1.82,0,0,1,.68.13,1.63,1.63,0,0,1,.62.39l-.52.65a2.08,2.08,0,0,0-.38-.21,1,1,0,0,0-.4-.07c-.27,0-.41.08-.41.26a.24.24,0,0,0,.16.21l.42.18.47.19a1.22,1.22,0,0,1,.57.4,1.07,1.07,0,0,1,.2.67,1.18,1.18,0,0,1-.4.86A1.53,1.53,0,0,1,24.78,58.47Z"/><g class="cls-3"><ellipse class="cls-4" cx="16.02" cy="20.38" rx="8.04" ry="19.02"/><ellipse class="cls-5" cx="17.09" cy="20.38" rx="8.04" ry="19.02"/></g><path class="cls-6" d="M16.09.12c-4.92.11-8.86,10-8.8,22.18s4.1,21.9,9,21.8,8.86-10,8.8-22.19S21,0,16.09.12Zm.12,40.72C12.1,40.93,8.72,32.49,8.67,22S11.91,2.89,16,2.8s7.49,8.35,7.54,18.86S20.32,40.75,16.21,40.84Z"/><ellipse class="cls-7" cx="16.89" cy="21.83" rx="7.7" ry="19.02"/><path class="cls-8" d="M15.93.14c-4.92.11-8.86,10-8.8,22.19s4.09,21.9,9,21.79a3.67,3.67,0,0,0,1.13-.19c4.38-1.47,7.73-10.79,7.67-22C24.88,9.79,20.85,0,15.93.14Zm1.31,40.71C13.12,40.94,9.75,32.5,9.7,22S12.94,2.9,17.05,2.81s7.49,8.36,7.54,18.86S21.35,40.76,17.24,40.85Z"/><path class="cls-9" d="M17.12.12c-4.92.11-8.86,10-8.8,22.18s4.09,21.9,9,21.8,8.86-10,8.8-22.19S22,0,17.12.12Zm.11,40.72C13.12,40.93,9.75,32.49,9.7,22S12.94,2.89,17.05,2.8s7.49,8.35,7.54,18.86S21.35,40.75,17.23,40.84Z"/><path class="cls-10" d="M24.59,22.38c-.1,8.49-3.06,18.21-7.19,18.47-4.29.28-7.7-9.81-7.7-19s3.41-19.28,7.7-19S24.7,13.43,24.59,22.38Z"/></g></g></svg>