<svg id="Layer_1" data-name="Layer 1" xmlns="http://www.w3.org/2000/svg" xmlns:xlink="http://www.w3.org/1999/xlink" width="142.39" height="105" viewBox="0 0 142.39 105"><defs><style>.cls-1,.cls-2,.cls-7,.cls-8{stroke-linejoin:round;}.cls-1,.cls-2,.cls-7,.cls-8,.cls-9{stroke-width:0.38px;}.cls-1{fill:url(#linear-gradient);stroke:url(#linear-gradient-2);}.cls-2{fill:url(#linear-gradient-3);stroke:url(#linear-gradient-4);}.cls-3{fill:url(#linear-gradient-5);}.cls-4{fill:url(#linear-gradient-6);}.cls-5{fill:url(#linear-gradient-7);}.cls-6{fill:url(#linear-gradient-8);}.cls-7{fill:url(#linear-gradient-9);stroke:url(#linear-gradient-10);}.cls-8{fill:url(#linear-gradient-11);stroke:url(#linear-gradient-12);}.cls-10,.cls-9{fill:#fff;}.cls-9{stroke-miterlimit:10;stroke:url(#linear-gradient-13);}</style><linearGradient id="linear-gradient" x1="0.19" y1="54.49" x2="46.39" y2="54.49" gradientUnits="userSpaceOnUse"><stop offset="0" stop-color="#1a1a1a"/><stop offset="0.22" stop-color="#333"/><stop offset="0.6" stop-color="#4d4d4d"/><stop offset="0.85" stop-color="#333"/><stop offset="0.91" stop-color="#2c2c2c"/><stop offset="1" stop-color="#1a1a1a"/></linearGradient><linearGradient id="linear-gradient-2" y1="54.49" x2="46.57" y2="54.49" gradientUnits="userSpaceOnUse"><stop offset="0" stop-color="#1a1a1a"/><stop offset="0.09" stop-color="#2c2c2c"/><stop offset="0.15" stop-color="#333"/><stop offset="0.4" stop-color="#4d4d4d"/><stop offset="0.78" stop-color="#333"/><stop offset="1" stop-color="#1a1a1a"/></linearGradient><linearGradient id="linear-gradient-3" x1="143.18" y1="54.49" x2="153.02" y2="54.49" gradientTransform="matrix(0, 1, 1, 0, -5.53, -93.61)" xlink:href="#linear-gradient-2"/><linearGradient id="linear-gradient-4" x1="142.99" y1="54.49" x2="153.21" y2="54.49" gradientTransform="matrix(0, 1, 1, 0, -5.53, -93.61)" xlink:href="#linear-gradient-2"/><linearGradient id="linear-gradient-5" x1="54.68" y1="52.5" x2="144.9" y2="52.5" gradientTransform="matrix(1, 0, 0, -1, -2.52, 105)" gradientUnits="userSpaceOnUse"><stop offset="0" stop-color="#4d4d4d"/><stop offset="0.54" stop-color="#222"/><stop offset="0.65" stop-color="#2c2c2c"/><stop offset="0.78" stop-color="#333"/><stop offset="0.93" stop-color="#454545"/><stop offset="1" stop-color="#1a1a1a"/></linearGradient><linearGradient id="linear-gradient-6" x1="99.42" y1="100.5" x2="99.42" y2="4.5" gradientTransform="matrix(1, 0, 0, -1, -1.77, 105)" gradientUnits="userSpaceOnUse"><stop offset="0.06" stop-color="#1a1a1a"/><stop offset="0.29" stop-color="#353535"/><stop offset="0.51" stop-color="#4d4d4d"/><stop offset="0.87" stop-color="#1a1a1a"/></linearGradient><linearGradient id="linear-gradient-7" x1="140.73" y1="88.05" x2="69.69" y2="17.02" gradientTransform="matrix(1, 0, 0, -1, -9.26, 105.07)" gradientUnits="userSpaceOnUse"><stop offset="0" stop-color="#393939"/><stop offset="0.47" stop-color="#181818"/><stop offset="0.87"/></linearGradient><linearGradient id="linear-gradient-8" x1="73.13" y1="52.72" x2="138.14" y2="52.72" gradientTransform="matrix(1, 0, 0, -1, -14.21, 105.43)" gradientUnits="userSpaceOnUse"><stop offset="0" stop-color="#4d4d4d"/><stop offset="0.07" stop-color="#4b4b4b"/><stop offset="0.87" stop-color="#333"/></linearGradient><linearGradient id="linear-gradient-9" x1="192.97" y1="28.22" x2="196.88" y2="28.22" gradientTransform="matrix(0, 1, 1, 0, -26.08, -166.71)" xlink:href="#linear-gradient-2"/><linearGradient id="linear-gradient-10" x1="192.78" y1="28.22" x2="197.07" y2="28.22" gradientTransform="matrix(0, 1, 1, 0, -26.08, -166.71)" xlink:href="#linear-gradient-2"/><linearGradient id="linear-gradient-11" x1="-390.91" y1="3953.19" x2="-387" y2="3953.19" gradientTransform="matrix(0, 1, 1, 0, -3951.04, 469.67)" xlink:href="#linear-gradient-2"/><linearGradient id="linear-gradient-12" x1="-391.1" y1="3953.19" x2="-386.81" y2="3953.19" gradientTransform="matrix(0, 1, 1, 0, -3951.04, 469.67)" xlink:href="#linear-gradient-2"/><linearGradient id="linear-gradient-13" x1="25.37" y1="90.19" x2="25.37" y2="20.81" gradientUnits="userSpaceOnUse"><stop offset="0" stop-color="#a6a5a5"/><stop offset="0.11" stop-color="#d2d1d2"/><stop offset="0.18" stop-color="#c5c4c5"/><stop offset="0.29" stop-color="#979696"/><stop offset="0.33" stop-color="#919090"/><stop offset="0.78" stop-color="#c9c8c8"/><stop offset="0.85" stop-color="#fff"/><stop offset="1" stop-color="#797979"/></linearGradient></defs><title>AdditionalOptics_LightSourceBoxSmall copy</title><path class="cls-1" d="M4.1,16.39V16a1.6,1.6,0,0,0-1.6-1.6H1.78A1.6,1.6,0,0,0,.19,16V41.94h1.2v2.35H4.88V46.8h4v15h-4v2.5H1.39v2.35H.19V93a1.6,1.6,0,0,0,1.59,1.6H2.5A1.6,1.6,0,0,0,4.1,93v-.36L46.39,93V16.5Z"/><rect class="cls-2" x="5" y="49.57" width="87.93" height="9.84" rx="1.94" transform="translate(103.45 5.53) rotate(90)"/><rect class="cls-3" x="52.16" width="90.22" height="105" rx="6" transform="translate(194.55 105) rotate(-180)"/><rect class="cls-4" x="57.41" y="4.5" width="80.48" height="96" rx="3.65" transform="translate(195.3 105) rotate(-180)"/><path class="cls-5" d="M65.92,14.43h63a0,0,0,0,1,0,0v76.2a0,0,0,0,1,0,0h-63a7,7,0,0,1-7-7V21.43a7,7,0,0,1,7-7Z" transform="translate(187.81 105.07) rotate(-180)"/><path class="cls-6" d="M65.92,18h58a0,0,0,0,1,0,0V87.38a0,0,0,0,1,0,0h-58a7,7,0,0,1-7-7V25a7,7,0,0,1,7-7Z" transform="translate(182.86 105.43) rotate(-180)"/><path class="cls-7" d="M-10.64,26.26H15.92a0,0,0,0,1,0,0v3.91a0,0,0,0,1,0,0H-10.64a1,1,0,0,1-1-1V27.26A1,1,0,0,1-10.64,26.26Z" transform="translate(30.36 26.08) rotate(90)"/><path class="cls-8" d="M-10.64,78.76H15.92a0,0,0,0,1,0,0v3.91a0,0,0,0,1,0,0H-10.64a1,1,0,0,1-1-1V79.76a1,1,0,0,1,1-1Z" transform="translate(-78.58 82.86) rotate(-90)"/><path class="cls-9" d="M23.35,21h7.29V90H23.35S16.05,55.5,23.35,21Z"/><path class="cls-10" d="M70.75,13.34V8.46H72v3.8h1.85v1.08Z"/><path class="cls-10" d="M74.73,13.34V8.46H76v4.88Z"/><path class="cls-10" d="M79.35,13.43a2.66,2.66,0,0,1-1.24-.28,2,2,0,0,1-.89-.83,2.64,2.64,0,0,1-.33-1.38,2.63,2.63,0,0,1,.34-1.39,2.32,2.32,0,0,1,.88-.88,2.49,2.49,0,0,1,1.21-.3,2.06,2.06,0,0,1,.93.2,2.39,2.39,0,0,1,.66.45l-.68.82a2,2,0,0,0-.38-.26,1.15,1.15,0,0,0-.49-.1,1,1,0,0,0-.82.38,1.5,1.5,0,0,0-.33,1A1.58,1.58,0,0,0,78.52,12a1.18,1.18,0,0,0,1,.37.69.69,0,0,0,.38-.09v-.68h-.72V10.5H81v2.33a2,2,0,0,1-.7.42A2.47,2.47,0,0,1,79.35,13.43Z"/><path class="cls-10" d="M81.94,13.34V8.46h1.29v1.82h1.46V8.46H86v4.88H84.69V11.4H83.23v1.94Z"/><path class="cls-10" d="M88,13.34V9.54H86.7V8.46h3.87V9.54H89.28v3.8Z"/><path class="cls-10" d="M94.33,13.43a3,3,0,0,1-1-.17,2.56,2.56,0,0,1-.88-.53l.73-.88a2.46,2.46,0,0,0,.56.34,1.46,1.46,0,0,0,.58.13c.37,0,.56-.12.56-.35a.26.26,0,0,0-.18-.25l-.48-.22-.61-.25a1.78,1.78,0,0,1-.69-.5,1.28,1.28,0,0,1-.29-.86,1.37,1.37,0,0,1,.51-1.07,1.89,1.89,0,0,1,1.3-.45,2.34,2.34,0,0,1,.85.17A2,2,0,0,1,96.1,9l-.64.81A2.38,2.38,0,0,0,95,9.57a1.35,1.35,0,0,0-.5-.09q-.51,0-.51.33a.29.29,0,0,0,.2.27c.13.06.3.14.52.22l.59.23A1.59,1.59,0,0,1,96,11a1.34,1.34,0,0,1,.25.83,1.48,1.48,0,0,1-.5,1.09A2,2,0,0,1,94.33,13.43Z"/><path class="cls-10" d="M99.07,13.43a2.15,2.15,0,0,1-1.64-.68,2.67,2.67,0,0,1-.62-1.87A2.58,2.58,0,0,1,97.43,9a2.37,2.37,0,0,1,3.28,0,2.54,2.54,0,0,1,.63,1.85,2.63,2.63,0,0,1-.63,1.87A2.13,2.13,0,0,1,99.07,13.43Zm0-1.11a.79.79,0,0,0,.69-.39,1.9,1.9,0,0,0,.26-1,1.8,1.8,0,0,0-.26-1,.83.83,0,0,0-1.38,0,1.8,1.8,0,0,0-.25,1,1.9,1.9,0,0,0,.25,1A.79.79,0,0,0,99.07,12.32Z"/><path class="cls-10" d="M104.2,13.43a1.87,1.87,0,0,1-1.52-.6,2.88,2.88,0,0,1-.5-1.85V8.46h1.29v2.67a1.84,1.84,0,0,0,.17.92.63.63,0,0,0,.56.27.64.64,0,0,0,.57-.27,1.72,1.72,0,0,0,.18-.92V8.46h1.25V11a2.94,2.94,0,0,1-.49,1.85A1.83,1.83,0,0,1,104.2,13.43Z"/><path class="cls-10" d="M108.54,13.34h-1.29V8.46h1.84a3,3,0,0,1,1,.15,1.41,1.41,0,0,1,.71.48A1.49,1.49,0,0,1,111,10a1.56,1.56,0,0,1-.22.87,1.48,1.48,0,0,1-.57.54l1.06,1.89h-1.44L109,11.7h-.49Zm0-2.66H109c.52,0,.78-.21.78-.64a.46.46,0,0,0-.2-.44,1.12,1.12,0,0,0-.58-.12h-.46Z"/><path class="cls-10" d="M114.09,13.43a2.36,2.36,0,0,1-1.15-.28,2.08,2.08,0,0,1-.86-.83,2.74,2.74,0,0,1-.32-1.38,2.63,2.63,0,0,1,.34-1.39,2.29,2.29,0,0,1,2-1.18,1.92,1.92,0,0,1,.87.2,2.43,2.43,0,0,1,.64.45l-.67.82a2.78,2.78,0,0,0-.37-.26,1.05,1.05,0,0,0-.44-.1,1,1,0,0,0-.75.38,1.55,1.55,0,0,0-.32,1,1.69,1.69,0,0,0,.29,1.06.91.91,0,0,0,.76.37,1,1,0,0,0,.51-.13,1.59,1.59,0,0,0,.38-.29l.67.81A2,2,0,0,1,114.09,13.43Z"/><path class="cls-10" d="M116.37,13.34V8.46h3.15V9.54h-1.86v.77h1.59v1.08h-1.59v.87h1.93v1.08Z"/><path class="cls-10" d="M122,13.34V8.46h1.75a3.22,3.22,0,0,1,1.31.25,1,1,0,0,1,.54,1,1.35,1.35,0,0,1-.17.63.91.91,0,0,1-.45.42v0a1.28,1.28,0,0,1,.59.38,1.09,1.09,0,0,1,.25.76A1.19,1.19,0,0,1,125.3,13a2.57,2.57,0,0,1-1.36.35Zm1.29-3h.43c.41,0,.62-.17.62-.5s-.21-.42-.62-.42h-.43Zm0,2h.52q.75,0,.75-.54c0-.33-.25-.5-.75-.5h-.52Z"/><path class="cls-10" d="M128.68,13.43a2.15,2.15,0,0,1-1.64-.68,2.67,2.67,0,0,1-.62-1.87A2.58,2.58,0,0,1,127,9a2.37,2.37,0,0,1,3.28,0,2.54,2.54,0,0,1,.63,1.85,2.63,2.63,0,0,1-.63,1.87A2.13,2.13,0,0,1,128.68,13.43Zm0-1.11a.79.79,0,0,0,.69-.39,1.9,1.9,0,0,0,.26-1,1.8,1.8,0,0,0-.26-1,.83.83,0,0,0-1.38,0,1.8,1.8,0,0,0-.25,1,1.9,1.9,0,0,0,.25,1A.79.79,0,0,0,128.68,12.32Z"/><path class="cls-10" d="M131.13,13.34l1.32-2.51L131.2,8.46h1.44l.33.8.16.37.19.44h0c.05-.16.1-.31.15-.44s.1-.26.15-.37l.28-.8h1.38l-1.24,2.43,1.32,2.45H134l-.39-.87-.18-.39-.17-.42h0q-.08.23-.15.42c-.06.13-.11.26-.16.39l-.36.87Z"/><path class="cls-10" d="M81.59,47.09v-5h1.19a2.38,2.38,0,0,1,1.3.3,1.16,1.16,0,0,1,.47,1.05,1.28,1.28,0,0,1-.46,1.06,2.07,2.07,0,0,1-1.28.35h-1v2.19Zm.24-2.4h.89a2,2,0,0,0,1.18-.28,1,1,0,0,0,.39-.92,1,1,0,0,0-.4-.9,2.35,2.35,0,0,0-1.2-.24h-.86Z"/><path class="cls-10" d="M86,47.18q-.36,0-.36-.48v-5h.22v5.07c0,.15.05.23.15.23l.14,0,0,.2-.09,0Z"/><path class="cls-10" d="M88.12,47.18a1.2,1.2,0,0,1-.73-.23.85.85,0,0,1-.31-.74,1,1,0,0,1,.57-.91,5,5,0,0,1,1.79-.45,2.76,2.76,0,0,0-.06-.57.91.91,0,0,0-.26-.47.81.81,0,0,0-.57-.19,1.55,1.55,0,0,0-.69.15,2.4,2.4,0,0,0-.48.29l-.12-.18a3.11,3.11,0,0,1,.52-.29,1.7,1.7,0,0,1,.79-.18.91.91,0,0,1,.86.41,1.9,1.9,0,0,1,.23.94v2.33h-.19l0-.48h0a4.28,4.28,0,0,1-.61.4A1.53,1.53,0,0,1,88.12,47.18Zm0-.21a1.35,1.35,0,0,0,.64-.16,3.67,3.67,0,0,0,.67-.46v-1.3a4.6,4.6,0,0,0-1.65.41.84.84,0,0,0-.47.74.7.7,0,0,0,.24.6A1,1,0,0,0,88.13,47Z"/><path class="cls-10" d="M92.28,47.18a1.48,1.48,0,0,1-1.14-.5,1.93,1.93,0,0,1-.46-1.38,1.91,1.91,0,0,1,.48-1.39,1.53,1.53,0,0,1,1.12-.5,1.22,1.22,0,0,1,.63.15,2,2,0,0,1,.42.3l-.14.17a2.27,2.27,0,0,0-.4-.29,1,1,0,0,0-.51-.12,1.21,1.21,0,0,0-1,.47,1.8,1.8,0,0,0-.4,1.21,1.86,1.86,0,0,0,.37,1.21,1.23,1.23,0,0,0,1,.46,1.18,1.18,0,0,0,.56-.13,1.8,1.8,0,0,0,.45-.31l.14.17a2.12,2.12,0,0,1-.52.34A1.39,1.39,0,0,1,92.28,47.18Z"/><path class="cls-10" d="M95.54,47.18a1.55,1.55,0,0,1-1.15-.5,1.9,1.9,0,0,1-.48-1.38,1.93,1.93,0,0,1,.47-1.38,1.42,1.42,0,0,1,1.07-.51,1.24,1.24,0,0,1,1,.43,1.8,1.8,0,0,1,.37,1.22v.12a.49.49,0,0,1,0,.12H94.15a1.84,1.84,0,0,0,.38,1.2,1.26,1.26,0,0,0,1,.47,1.53,1.53,0,0,0,.54-.09,2,2,0,0,0,.45-.24l.1.19c-.13.08-.29.16-.45.24A1.75,1.75,0,0,1,95.54,47.18Zm-1.39-2.09h2.43a1.7,1.7,0,0,0-.31-1.1,1,1,0,0,0-.82-.37,1.17,1.17,0,0,0-.86.39A1.67,1.67,0,0,0,94.15,45.09Z"/><path class="cls-10" d="M69.34,56.09v-5h.24v4.74H71.9v.21Z"/><path class="cls-10" d="M72.88,51.59a.24.24,0,0,1-.18-.07.26.26,0,0,1-.08-.19.22.22,0,0,1,.08-.18.27.27,0,0,1,.36,0,.21.21,0,0,1,.07.18.25.25,0,0,1-.07.19A.24.24,0,0,1,72.88,51.59Zm-.12,4.5V52.5H73v3.59Z"/><path class="cls-10" d="M75.58,57.84a1.88,1.88,0,0,1-1.08-.27.86.86,0,0,1-.39-.73.83.83,0,0,1,.14-.47,1.45,1.45,0,0,1,.4-.42v0a.6.6,0,0,1-.23-.22.65.65,0,0,1-.09-.35.64.64,0,0,1,.14-.41,1.46,1.46,0,0,1,.25-.25v0a1.68,1.68,0,0,1-.31-.4,1.25,1.25,0,0,1-.14-.59,1.22,1.22,0,0,1,.36-.9,1.17,1.17,0,0,1,.87-.36,1.12,1.12,0,0,1,.27,0l.2.06h1.2v.21H76.3a1.25,1.25,0,0,1,.43,1,1.24,1.24,0,0,1-.36.91,1.2,1.2,0,0,1-1.48.2,1.26,1.26,0,0,0-.22.24.47.47,0,0,0-.1.32.52.52,0,0,0,.14.35.82.82,0,0,0,.57.14h.79c.77,0,1.16.27,1.16.81a1.08,1.08,0,0,1-.45.83A1.81,1.81,0,0,1,75.58,57.84Zm0-.21a1.59,1.59,0,0,0,1-.3.89.89,0,0,0,.38-.67c0-.39-.29-.59-.87-.59h-1L74.86,56a1.23,1.23,0,0,0-.39.4.83.83,0,0,0-.12.41.68.68,0,0,0,.32.59A1.58,1.58,0,0,0,75.59,57.63Zm-.09-2.89a1,1,0,0,0,.69-.3,1.14,1.14,0,0,0,0-1.53,1,1,0,0,0-1.4,0,1.14,1.14,0,0,0,0,1.53A1,1,0,0,0,75.5,54.74Z"/><path class="cls-10" d="M78.25,53.34v2.75H78V50.67h.23v2.42a3.6,3.6,0,0,1,.58-.49,1.31,1.31,0,0,1,.68-.19c.72,0,1.08.46,1.08,1.37v2.31h-.23V53.81a1.6,1.6,0,0,0-.2-.89.76.76,0,0,0-.67-.3,1.15,1.15,0,0,0-.62.18A3.49,3.49,0,0,0,78.25,53.34Z"/><path class="cls-10" d="M82.85,56.18a.73.73,0,0,1-.67-.29,1.49,1.49,0,0,1-.17-.75V52.71h-.57v-.18l.57,0,0-1h.19v1H83.3v.21H82.23v2.46a1.2,1.2,0,0,0,.13.57.53.53,0,0,0,.51.23.7.7,0,0,0,.23,0l.23-.08.08.19a2,2,0,0,1-.32.1A.85.85,0,0,1,82.85,56.18Z"/><path class="cls-10" d="M87,56.18A2.06,2.06,0,0,1,86,56a2.3,2.3,0,0,1-.69-.54l.17-.17a2,2,0,0,0,.65.51A1.9,1.9,0,0,0,87,56a1.46,1.46,0,0,0,1-.29,1,1,0,0,0,.36-.77.88.88,0,0,0-.27-.71,2.73,2.73,0,0,0-.65-.39l-.77-.34a4,4,0,0,1-.44-.24,1.28,1.28,0,0,1-.39-.38.93.93,0,0,1-.17-.6,1,1,0,0,1,.4-.85,1.51,1.51,0,0,1,1-.33,1.67,1.67,0,0,1,.79.18,1.87,1.87,0,0,1,.56.4l-.16.17a1.39,1.39,0,0,0-.51-.38,1.51,1.51,0,0,0-.68-.15,1.3,1.3,0,0,0-.84.26.86.86,0,0,0-.32.69.76.76,0,0,0,.3.67,3.91,3.91,0,0,0,.57.33l.76.35a3.08,3.08,0,0,1,.74.46,1,1,0,0,1,.31.84,1.2,1.2,0,0,1-.42.94A1.63,1.63,0,0,1,87,56.18Z"/><path class="cls-10" d="M90.85,56.18a1.48,1.48,0,0,1-1.12-.5,2.28,2.28,0,0,1,0-2.77,1.49,1.49,0,0,1,2.23,0,2.24,2.24,0,0,1,0,2.77A1.48,1.48,0,0,1,90.85,56.18Zm0-.21a1.23,1.23,0,0,0,1-.46,1.81,1.81,0,0,0,.38-1.21,1.85,1.85,0,0,0-.38-1.21,1.22,1.22,0,0,0-1.92,0,1.86,1.86,0,0,0-.4,1.21,1.82,1.82,0,0,0,.4,1.21A1.23,1.23,0,0,0,90.85,56Z"/><path class="cls-10" d="M94.58,56.18c-.72,0-1.08-.46-1.08-1.37V52.5h.23v2.28a1.58,1.58,0,0,0,.2.9.76.76,0,0,0,.67.29,1,1,0,0,0,.61-.19,3,3,0,0,0,.62-.59V52.5h.22v3.59h-.19l0-.62h0a2.91,2.91,0,0,1-.56.51A1.2,1.2,0,0,1,94.58,56.18Z"/><path class="cls-10" d="M97.49,56.09V52.5h.2l0,.68h0a2,2,0,0,1,.43-.55.92.92,0,0,1,.59-.22.82.82,0,0,1,.35.08L99,52.7a.85.85,0,0,0-.31-.06.83.83,0,0,0-.52.22,1.75,1.75,0,0,0-.48.74v2.49Z"/><path class="cls-10" d="M101,56.18a1.51,1.51,0,0,1-1.15-.5,2,2,0,0,1-.45-1.38,2,2,0,0,1,.47-1.39,1.53,1.53,0,0,1,1.13-.5,1.16,1.16,0,0,1,.62.15,2,2,0,0,1,.43.3l-.15.17a2,2,0,0,0-.4-.29,1,1,0,0,0-.5-.12,1.25,1.25,0,0,0-1,.47,2.07,2.07,0,0,0,0,2.42,1.23,1.23,0,0,0,1,.46,1.21,1.21,0,0,0,.56-.13,1.74,1.74,0,0,0,.44-.31l.14.17a2.27,2.27,0,0,1-.51.34A1.46,1.46,0,0,1,101,56.18Z"/><path class="cls-10" d="M104.26,56.18a1.57,1.57,0,0,1-1.16-.5,1.9,1.9,0,0,1-.48-1.38,2,2,0,0,1,.47-1.38,1.45,1.45,0,0,1,1.08-.51,1.25,1.25,0,0,1,1,.43,1.85,1.85,0,0,1,.37,1.22v.12a.5.5,0,0,1,0,.12h-2.64a1.89,1.89,0,0,0,.38,1.2,1.28,1.28,0,0,0,1,.47,1.53,1.53,0,0,0,.54-.09,1.61,1.61,0,0,0,.45-.24l.11.19-.46.24A1.69,1.69,0,0,1,104.26,56.18Zm-1.4-2.09h2.43A1.64,1.64,0,0,0,105,53a1,1,0,0,0-.81-.37,1.2,1.2,0,0,0-.87.39A1.72,1.72,0,0,0,102.86,54.09Z"/><path class="cls-10" d="M107.94,56.09v-.21h1.15V51.74h-.86v-.17a3.19,3.19,0,0,0,.51-.12,2.72,2.72,0,0,0,.38-.16h.19v4.59h1.07v.21Z"/><path class="cls-10" d="M83.39,65.09v-5h.24v2.2H86.4v-2.2h.25v5H86.4V62.55H83.63v2.54Z"/><path class="cls-10" d="M89.44,65.18a1.55,1.55,0,0,1-1.16-.5,1.9,1.9,0,0,1-.48-1.38,2,2,0,0,1,.47-1.38,1.44,1.44,0,0,1,1.08-.51,1.25,1.25,0,0,1,1,.43,1.85,1.85,0,0,1,.36,1.22v.12a.49.49,0,0,1,0,.12H88a1.89,1.89,0,0,0,.38,1.2,1.28,1.28,0,0,0,1,.47,1.53,1.53,0,0,0,.54-.09,1.61,1.61,0,0,0,.45-.24l.11.19-.46.24A1.73,1.73,0,0,1,89.44,65.18ZM88,63.09h2.43a1.64,1.64,0,0,0-.31-1.1,1,1,0,0,0-.81-.37,1.2,1.2,0,0,0-.87.39A1.72,1.72,0,0,0,88,63.09Z"/><path class="cls-10" d="M91.7,65.09V61.5h.2l0,.68h0a2,2,0,0,1,.43-.55.92.92,0,0,1,.59-.22.82.82,0,0,1,.35.08l-.07.21a.85.85,0,0,0-.31-.06.83.83,0,0,0-.52.22,1.75,1.75,0,0,0-.48.74v2.49Z"/><path class="cls-10" d="M95.24,65.18a1.57,1.57,0,0,1-1.16-.5,2.26,2.26,0,0,1,0-2.76,1.42,1.42,0,0,1,1.07-.51,1.24,1.24,0,0,1,1,.43,1.8,1.8,0,0,1,.37,1.22v.12a.5.5,0,0,1,0,.12H93.84a1.84,1.84,0,0,0,.39,1.2,1.24,1.24,0,0,0,1,.47,1.59,1.59,0,0,0,.55-.09,1.7,1.7,0,0,0,.44-.24l.11.19-.45.24A1.75,1.75,0,0,1,95.24,65.18Zm-1.4-2.09h2.44A1.7,1.7,0,0,0,96,62a1,1,0,0,0-.82-.37,1.17,1.17,0,0,0-.86.39A1.68,1.68,0,0,0,93.84,63.09Z"/></svg>