<svg xmlns="http://www.w3.org/2000/svg" xmlns:xlink="http://www.w3.org/1999/xlink" width="46.5" height="74.22" viewBox="0 0 46.5 74.22"><defs><style>.cls-1{isolation:isolate;}.cls-2{mix-blend-mode:soft-light;fill:url(#linear-gradient);}.cls-3{mix-blend-mode:multiply;fill:url(#linear-gradient-2);}.cls-4{fill:url(#linear-gradient-3);}.cls-5{fill:url(#linear-gradient-4);}.cls-6{fill:url(#linear-gradient-5);}</style><linearGradient id="linear-gradient" x1="10.08" y1="52.58" x2="36.04" y2="7.62" gradientUnits="userSpaceOnUse"><stop offset="0" stop-color="#999"/><stop offset="0.32" stop-color="#999"/><stop offset="0.52" stop-color="#9c9c9c"/><stop offset="0.65" stop-color="#a4a4a4"/><stop offset="0.77" stop-color="#b3b3b3"/><stop offset="0.87" stop-color="#c8c8c8"/><stop offset="0.96" stop-color="#e3e3e3"/><stop offset="1" stop-color="#f2f2f2"/></linearGradient><linearGradient id="linear-gradient-2" x1="39.66" y1="13.66" x2="6.77" y2="46.55" gradientUnits="userSpaceOnUse"><stop offset="0" stop-color="#999"/><stop offset="0.85" stop-color="#999"/></linearGradient><linearGradient id="linear-gradient-3" x1="43.99" y1="30.35" x2="0.39" y2="30.35" gradientUnits="userSpaceOnUse"><stop offset="0.02" stop-color="#666"/><stop offset="0.02" stop-color="#646464"/><stop offset="0.2" stop-color="#393939"/><stop offset="0.36" stop-color="#1a1a1a"/><stop offset="0.5" stop-color="#070707"/><stop offset="0.59"/><stop offset="1" stop-color="#4d4d4d"/></linearGradient><linearGradient id="linear-gradient-4" x1="42.81" y1="42.52" x2="0.79" y2="18.26" xlink:href="#linear-gradient-3"/><linearGradient id="linear-gradient-5" x1="46.5" y1="30.35" x2="2.91" y2="30.35" xlink:href="#linear-gradient-3"/></defs><title>AdditionalOptics_PolarizationOptics copy</title><g class="cls-1"><g id="Layer_1" data-name="Layer 1"><path d="M5.32,69.32V64.59H7.05a2.91,2.91,0,0,1,1,.15,1.4,1.4,0,0,1,.7.48,1.48,1.48,0,0,1,.27.94,1.57,1.57,0,0,1-.27,1,1.49,1.49,0,0,1-.7.53,2.32,2.32,0,0,1-.92.18H6.57v1.5Zm1.25-2.49H7c.48,0,.73-.22.73-.67a.51.51,0,0,0-.2-.45A1,1,0,0,0,7,65.58H6.57Z"/><path d="M11.73,69.4a2.1,2.1,0,0,1-1.59-.65,2.6,2.6,0,0,1-.61-1.82,2.5,2.5,0,0,1,.61-1.79,2.09,2.09,0,0,1,1.59-.64,2.09,2.09,0,0,1,1.59.64,2.5,2.5,0,0,1,.6,1.79,2.59,2.59,0,0,1-.6,1.82A2.1,2.1,0,0,1,11.73,69.4Zm0-1.07A.78.78,0,0,0,12.4,68a1.87,1.87,0,0,0,.25-1,1.74,1.74,0,0,0-.25-1,.8.8,0,0,0-1.34,0,1.74,1.74,0,0,0-.25,1,1.87,1.87,0,0,0,.25,1A.78.78,0,0,0,11.73,68.33Z"/><path d="M14.77,69.32V64.59H16v3.68h1.79v1Z"/><path d="M21,69.32l-.23-1H19.46l-.23,1H18l1.44-4.73H20.9l1.44,4.73ZM19.77,67l-.08.33h.87L20.48,67c-.06-.22-.12-.47-.17-.74s-.12-.52-.18-.76h0c-.05.24-.1.5-.16.76S19.83,66.8,19.77,67Z"/><path d="M24,69.32H22.79V64.59h1.79a3.14,3.14,0,0,1,.94.14,1.45,1.45,0,0,1,.69.47,1.48,1.48,0,0,1,.26.92,1.54,1.54,0,0,1-.21.84,1.52,1.52,0,0,1-.55.52l1,1.84H25.34l-.82-1.59H24Zm0-2.58h.45c.51,0,.76-.21.76-.62a.45.45,0,0,0-.19-.42,1.1,1.1,0,0,0-.57-.12H24Z"/><path d="M27.37,69.32V64.59h1.25v4.73Z"/><path d="M29.38,69.32v-.76l1.93-2.92H29.57v-1h3.28v.76l-1.93,2.92h1.95v1Z"/><path d="M33.61,69.32V64.59h3v1h-1.8v.74H36.4v1.05H34.86v.84h1.87v1Z"/><path d="M38.9,69.32H37.65V64.59h1.79a3.07,3.07,0,0,1,.93.14,1.36,1.36,0,0,1,.69.47,1.42,1.42,0,0,1,.27.92,1.54,1.54,0,0,1-.22.84,1.45,1.45,0,0,1-.55.52l1,1.84h-1.4l-.81-1.59H38.9Zm0-2.58h.45c.5,0,.75-.21.75-.62a.43.43,0,0,0-.19-.42,1.08,1.08,0,0,0-.56-.12H38.9Z"/><ellipse class="cls-2" cx="23.06" cy="30.1" rx="22.5" ry="27"/><path class="cls-3" d="M42.55,30.88c-.26,12.05-8,25.84-18.82,26.22-11.24.39-20.17-13.93-20.17-27s8.93-27.37,20.17-27S42.83,18.18,42.55,30.88Z"/><path class="cls-4" d="M21.93,0C9.89.15.25,13.86.39,30.62s10,30.23,22.06,30.08S44.13,46.84,44,30.08,34-.15,21.93,0Zm.29,56.2c-10.07.13-18.33-11.52-18.45-26s7.93-26.35,18-26.47,18.33,11.52,18.45,26S32.28,56.08,22.22,56.2Z"/><path class="cls-5" d="M21.53,0C9.5.19-.14,13.89,0,30.66S10,60.89,22.06,60.74a15.73,15.73,0,0,0,2.75-.28c10.72-2,18.92-14.88,18.78-30.34C43.45,13.36,33.57-.11,21.53,0Zm3.2,56.18c-10.06.12-18.32-11.53-18.44-26s7.93-26.35,18-26.48,18.32,11.53,18.45,26S34.8,56.09,24.73,56.22Z"/><path class="cls-6" d="M24.44,0C12.4.15,2.76,13.86,2.91,30.62S12.93,60.85,25,60.7,46.64,46.84,46.5,30.08,36.48-.15,24.44,0Zm.29,56.2c-10.06.13-18.32-11.52-18.45-26s7.93-26.35,18-26.47,18.32,11.52,18.45,26S34.79,56.08,24.73,56.2Z"/></g></g></svg>