<svg xmlns="http://www.w3.org/2000/svg" xmlns:xlink="http://www.w3.org/1999/xlink" viewBox="0 0 77.21 55.66"><defs><style>.cls-1{isolation:isolate;}.cls-2{mix-blend-mode:lighten;}.cls-3,.cls-4,.cls-5,.cls-6{stroke:#ccc;stroke-linejoin:round;stroke-width:0.38px;}.cls-3{fill:url(#linear-gradient);}.cls-4{fill:url(#linear-gradient-2);}.cls-5{fill:url(#linear-gradient-3);}.cls-6{fill:url(#linear-gradient-4);}</style><linearGradient id="linear-gradient" x1="36.2" y1="57.88" x2="12.16" y2="33.84" gradientUnits="userSpaceOnUse"><stop offset="0.03" stop-color="#b3b3b3"/><stop offset="0.29" stop-color="#ccc"/><stop offset="0.55" stop-color="#dfdfdf"/><stop offset="0.73" stop-color="#e6e6e6"/><stop offset="1" stop-color="#fff"/></linearGradient><linearGradient id="linear-gradient-2" x1="65.05" y1="57.88" x2="41.01" y2="33.84" xlink:href="#linear-gradient"/><linearGradient id="linear-gradient-3" x1="35.53" y1="39.18" x2="17.57" y2="21.22" xlink:href="#linear-gradient"/><linearGradient id="linear-gradient-4" x1="71.66" y1="51.27" x2="29.59" y2="9.2" xlink:href="#linear-gradient"/></defs><g class="cls-1"><g id="Layer_1" data-name="Layer 1"><g class="cls-2"><polyline class="cls-3" points="38.6 36.24 38.6 55.48 0.14 45.86"/><polyline class="cls-4" points="77.07 45.86 38.6 55.48 38.6 36.24"/><polyline class="cls-5" points="0.14 45.86 38.6 0.19 38.6 36.11"/><polyline class="cls-6" points="38.6 36.24 38.6 0.19 77.07 45.86"/></g><path d="M50.23,51.05l-1.18-4.57,1.67-.43a3,3,0,0,1,1-.1,1.4,1.4,0,0,1,.8.3,1.44,1.44,0,0,1,.49.84,1.55,1.55,0,0,1,0,1,1.52,1.52,0,0,1-.54.69,2.3,2.3,0,0,1-.85.4l-.5.13.38,1.45Zm.59-2.72.43-.11c.47-.12.65-.4.54-.83a.52.52,0,0,0-.3-.39,1.06,1.06,0,0,0-.58,0l-.41.1Z"/><path d="M55.72,49.64,54.51,50l-1.18-4.58,1.73-.44a2.82,2.82,0,0,1,.94-.1,1.45,1.45,0,0,1,.79.28,1.5,1.5,0,0,1,.48.82,1.61,1.61,0,0,1,0,.87,1.57,1.57,0,0,1-.41.65L58.32,49,57,49.31,55.79,48l-.47.12Zm-.65-2.49.44-.12c.49-.12.68-.39.58-.79a.44.44,0,0,0-.3-.36,1.14,1.14,0,0,0-.57,0l-.44.11Z"/><path d="M58.94,48.81l-1.18-4.58L59,43.92l1.18,4.58Z"/><path d="M62.64,47.94a3,3,0,0,1-1,.08,2.67,2.67,0,0,1-.95-.28l.47-1a2.15,2.15,0,0,0,.61.18,1.4,1.4,0,0,0,.58,0c.34-.09.49-.25.43-.46a.25.25,0,0,0-.23-.2l-.5-.09-.63-.09a1.6,1.6,0,0,1-.77-.3,1.19,1.19,0,0,1-.48-.73,1.33,1.33,0,0,1,.22-1.13,1.86,1.86,0,0,1,1.11-.74,2.61,2.61,0,0,1,.84,0,2,2,0,0,1,.84.28l-.41.91a2.13,2.13,0,0,0-.51-.13,1.18,1.18,0,0,0-.49,0c-.32.08-.45.22-.4.43a.27.27,0,0,0,.25.2,4.45,4.45,0,0,0,.55.08l.61.08a1.56,1.56,0,0,1,.78.3,1.31,1.31,0,0,1,.44.72,1.39,1.39,0,0,1-.21,1.14A1.83,1.83,0,0,1,62.64,47.94Z"/><path d="M65.13,47.21,64,42.64l1.3-.34L66.42,44a3.13,3.13,0,0,1,.22.36c.08.13.15.26.23.38h0c0-.14,0-.29,0-.44s0-.29,0-.42l.18-2,1.29-.33,1.18,4.57-1.1.29L68.14,45a5.47,5.47,0,0,1-.16-.84c0-.32-.08-.6-.11-.84h0l-.1,1.2-.17,1.65-.65.17L66,45l-.65-1h0l.31.78a7.64,7.64,0,0,1,.27.81l.35,1.35Z"/></g></g></svg>