<svg xmlns="http://www.w3.org/2000/svg" xmlns:xlink="http://www.w3.org/1999/xlink" width="46.5" height="80.99" viewBox="0 0 46.5 80.99"><defs><style>.cls-1{isolation:isolate;}.cls-2{opacity:0.61;fill:url(#linear-gradient);}.cls-3{opacity:0.51;fill:url(#linear-gradient-2);}.cls-4{fill:url(#linear-gradient-3);}.cls-5,.cls-8{mix-blend-mode:soft-light;}.cls-5{fill:url(#linear-gradient-4);}.cls-6{fill:url(#linear-gradient-5);}.cls-7{fill:url(#linear-gradient-6);}.cls-8{fill:url(#linear-gradient-7);}</style><linearGradient id="linear-gradient" x1="40.38" y1="40.73" x2="3.11" y2="19.21" gradientUnits="userSpaceOnUse"><stop offset="0.02" stop-color="#666"/><stop offset="0.02" stop-color="#6e6e6e"/><stop offset="0.05" stop-color="#999899"/><stop offset="0.07" stop-color="#b8b7b8"/><stop offset="0.09" stop-color="#cbcacb"/><stop offset="0.11" stop-color="#d2d1d2"/><stop offset="0.18" stop-color="#c5c4c5"/><stop offset="0.29" stop-color="#979696"/><stop offset="0.33" stop-color="#919090"/><stop offset="0.5" stop-color="#f2f2f2"/><stop offset="0.78" stop-color="#c9c8c8"/><stop offset="0.85" stop-color="#fff"/><stop offset="1" stop-color="#4d4d4d"/></linearGradient><linearGradient id="linear-gradient-2" x1="24.37" y1="56.22" x2="24.37" y2="3.72" gradientUnits="userSpaceOnUse"><stop offset="0.02" stop-color="#666"/><stop offset="0.02" stop-color="#6e6e6e"/><stop offset="0.05" stop-color="#999899"/><stop offset="0.07" stop-color="#b8b7b8"/><stop offset="0.09" stop-color="#cbcacb"/><stop offset="0.11" stop-color="#d2d1d2"/><stop offset="0.18" stop-color="#c5c4c5"/><stop offset="0.29" stop-color="#979696"/><stop offset="0.36" stop-color="#919090"/><stop offset="0.59" stop-color="#c9c8c8"/><stop offset="0.85" stop-color="#f2f2f2"/><stop offset="1" stop-color="#4d4d4d"/></linearGradient><linearGradient id="linear-gradient-3" x1="43.99" y1="30.35" x2="0.39" y2="30.35" gradientUnits="userSpaceOnUse"><stop offset="0.02" stop-color="#666"/><stop offset="0.02" stop-color="#646464"/><stop offset="0.2" stop-color="#393939"/><stop offset="0.36" stop-color="#1a1a1a"/><stop offset="0.5" stop-color="#070707"/><stop offset="0.59"/><stop offset="1" stop-color="#4d4d4d"/></linearGradient><linearGradient id="linear-gradient-4" x1="11.57" y1="51.29" x2="36.19" y2="8.65" gradientUnits="userSpaceOnUse"><stop offset="0" stop-color="#ffcb15"/><stop offset="0.32" stop-color="#feff55"/><stop offset="1" stop-color="#efffb0"/></linearGradient><linearGradient id="linear-gradient-5" x1="42.81" y1="42.52" x2="0.79" y2="18.26" xlink:href="#linear-gradient-3"/><linearGradient id="linear-gradient-6" x1="46.5" y1="30.35" x2="2.91" y2="30.35" xlink:href="#linear-gradient-3"/><linearGradient id="linear-gradient-7" x1="40.44" y1="14.18" x2="8.87" y2="45.76" gradientUnits="userSpaceOnUse"><stop offset="0" stop-color="#feff55"/><stop offset="1" stop-color="#efffb0"/></linearGradient></defs><title>AdditionalOptics_AdditionalFilter</title><g class="cls-1"><g id="Layer_1" data-name="Layer 1"><path d="M6.14,69.32l-.23-1H4.59l-.24,1H3.07l1.44-4.73H6l1.44,4.73ZM4.89,67l-.08.33h.87L5.6,67l-.17-.74c-.06-.27-.12-.52-.18-.76h0c-.05.24-.11.5-.16.76S5,66.8,4.89,67Z"/><path d="M7.91,69.32V64.59h1.4a2.66,2.66,0,0,1,1.75.55,2.17,2.17,0,0,1,.68,1.79,2.24,2.24,0,0,1-.67,1.82,2.49,2.49,0,0,1-1.69.57Zm1.25-1h.08A1.38,1.38,0,0,0,10.1,68a1.37,1.37,0,0,0,.36-1.11,1.27,1.27,0,0,0-.36-1.08,1.44,1.44,0,0,0-.86-.26H9.16Z"/><path d="M12.58,69.32V64.59H14a2.68,2.68,0,0,1,1.75.55,2.16,2.16,0,0,1,.67,1.79,2.27,2.27,0,0,1-.66,1.82,2.51,2.51,0,0,1-1.69.57Zm1.25-1h.07a1.41,1.41,0,0,0,.87-.27,1.37,1.37,0,0,0,.35-1.11c0-.55-.11-.91-.35-1.08a1.47,1.47,0,0,0-.87-.26h-.07Z"/><path d="M17.25,69.32V64.59H18.5v4.73Z"/><path d="M20.44,69.32V65.64H19.19v-1h3.75v1H21.69v3.68Z"/><path d="M23.64,69.32V64.59h1.25v4.73Z"/><path d="M27.93,69.4a2.1,2.1,0,0,1-1.59-.65,2.59,2.59,0,0,1-.6-1.82,2.5,2.5,0,0,1,.6-1.79,2.3,2.3,0,0,1,3.18,0,2.5,2.5,0,0,1,.61,1.79,2.6,2.6,0,0,1-.61,1.82A2.09,2.09,0,0,1,27.93,69.4Zm0-1.07A.77.77,0,0,0,28.6,68a1.87,1.87,0,0,0,.25-1,1.74,1.74,0,0,0-.25-1,.77.77,0,0,0-.67-.36.78.78,0,0,0-.67.36,1.75,1.75,0,0,0-.24,1,1.88,1.88,0,0,0,.24,1A.78.78,0,0,0,27.93,68.33Z"/><path d="M31,69.32V64.59h1.28l1,2.11.46,1.06h0c0-.25-.06-.54-.1-.87a7.75,7.75,0,0,1-.06-.93V64.59h1.2v4.73H33.53L32.48,67.2l-.45-1h0c0,.27.06.56.1.88a7.47,7.47,0,0,1,.06.92v1.37Z"/><path d="M38.32,69.32l-.23-1H36.77l-.23,1H35.26l1.44-4.73h1.51l1.44,4.73ZM37.07,67l-.08.33h.88L37.79,67c-.06-.22-.12-.47-.18-.74s-.11-.52-.17-.76h0c0,.24-.1.5-.16.76S37.13,66.8,37.07,67Z"/><path d="M40.1,69.32V64.59h1.25v3.68h1.79v1Z"/><path d="M12.86,78V73.31H16v1H14.11v.9h1.58v1H14.11V78Z"/><path d="M16.76,78V73.31H18V78Z"/><path d="M19.06,78V73.31h1.25V77H22.1V78Z"/><path d="M22.94,78V74.36H21.69v-1h3.75v1H24.19V78Z"/><path d="M26.14,78V73.31h3.05v1h-1.8v.74h1.54v1.05H27.39V77h1.87V78Z"/><path d="M31.43,78H30.18V73.31H32a3.07,3.07,0,0,1,.93.14,1.36,1.36,0,0,1,.69.47,1.42,1.42,0,0,1,.26.92,1.54,1.54,0,0,1-.21.84,1.47,1.47,0,0,1-.55.53l1,1.83h-1.4l-.81-1.59h-.48Zm0-2.58h.45c.5,0,.75-.2.75-.62a.45.45,0,0,0-.19-.42,1.08,1.08,0,0,0-.56-.12h-.45Z"/><ellipse class="cls-2" cx="21.75" cy="29.97" rx="19.69" ry="26.25"/><ellipse class="cls-3" cx="24.37" cy="29.97" rx="19.69" ry="26.25"/><path class="cls-4" d="M21.93,0C9.89.15.25,13.86.39,30.62s10,30.23,22.06,30.08S44.13,46.84,44,30.08,34-.15,21.93,0Zm.29,56.2c-10.07.13-18.33-11.52-18.45-26s7.93-26.35,18-26.47,18.33,11.52,18.45,26S32.28,56.08,22.22,56.2Z"/><ellipse class="cls-5" cx="23.88" cy="29.97" rx="18.85" ry="26.25"/><path class="cls-6" d="M21.53,0C9.5.19-.14,13.89,0,30.66S10,60.89,22.06,60.74a15.73,15.73,0,0,0,2.75-.28c10.72-2,18.92-14.88,18.78-30.34C43.45,13.36,33.57-.11,21.53,0Zm3.2,56.18c-10.06.12-18.32-11.53-18.44-26s7.93-26.35,18-26.48,18.32,11.53,18.45,26S34.8,56.09,24.73,56.22Z"/><path class="cls-7" d="M24.44,0C12.4.15,2.76,13.86,2.91,30.62S12.93,60.85,25,60.7,46.64,46.84,46.5,30.08,36.48-.15,24.44,0Zm.29,56.2c-10.06.13-18.32-11.52-18.45-26s7.93-26.35,18-26.47,18.32,11.52,18.45,26S34.79,56.08,24.73,56.2Z"/><path class="cls-8" d="M42.73,30.72c-.25,11.72-7.49,25.13-17.59,25.5C14.63,56.6,6.28,42.68,6.28,30S14.63,3.36,25.14,3.72,43,18.38,42.73,30.72Z"/></g></g></svg>