<svg id="Layer_1" data-name="Layer 1" xmlns="http://www.w3.org/2000/svg" xmlns:xlink="http://www.w3.org/1999/xlink" width="11.76" height="64.88" viewBox="0 0 11.76 64.88"><defs><style>.cls-1{stroke-miterlimit:10;stroke-width:0.38px;fill:url(#linear-gradient);stroke:url(#linear-gradient-2);}</style><linearGradient id="linear-gradient" x1="-1423.32" y1="-1350.84" x2="-1423.32" y2="-1415.34" gradientTransform="translate(1428.75 1415.53)" gradientUnits="userSpaceOnUse"><stop offset="0.02" stop-color="#666"/><stop offset="0.06" stop-color="#8c8c8c"/><stop offset="0.11" stop-color="#abaaab"/><stop offset="0.15" stop-color="#bebdbe"/><stop offset="0.18" stop-color="#c5c4c5"/><stop offset="0.29" stop-color="#979696"/><stop offset="0.33" stop-color="#919090"/><stop offset="0.5" stop-color="#f2f2f2"/><stop offset="0.78" stop-color="#c9c8c8"/><stop offset="1" stop-color="#4d4d4d"/></linearGradient><linearGradient id="linear-gradient-2" x1="-425.41" y1="-1926.97" x2="-414.53" y2="-1926.97" gradientTransform="translate(425.41 1959.41)" gradientUnits="userSpaceOnUse"><stop offset="0" stop-color="#a6a5a5"/><stop offset="0.11" stop-color="#d2d1d2"/><stop offset="0.18" stop-color="#c5c4c5"/><stop offset="0.29" stop-color="#979696"/><stop offset="0.33" stop-color="#919090"/><stop offset="0.78" stop-color="#c9c8c8"/><stop offset="0.85" stop-color="#fff"/><stop offset="1" stop-color="#797979"/></linearGradient></defs><title>AdditionalOptics_RelayLens copy</title><path class="cls-1" d="M3.42.19h7.27v64.5H3.42S-3.85,32.44,3.42.19Z"/><path d="M9.22,49.85v1.07H4.61V49.21a2.62,2.62,0,0,1,.31-1.29,1.2,1.2,0,0,1,1.13-.53,1.43,1.43,0,0,1,.83.23,1.57,1.57,0,0,1,.5.61l1.84-1.07v1.2l-1.66.91v.58Zm-2.49,0V49.3c0-.57-.23-.86-.68-.86a.51.51,0,0,0-.48.22,1.25,1.25,0,0,0-.13.64v.55Z"/><path d="M9.22,46.47H4.61v-3h.88v1.9h.93V43.79h.86V45.4H8.34v-2h.88Z"/><path d="M9.22,42.48H4.61V41.42H8.34V39.54h.88Z"/><path d="M9.22,36.25l-1.09.29V38l1.09.29v1.09L4.61,37.88V36.6l4.61-1.48Zm-2.33,1.4.42.12v-1l-.42.11-.74.19-.75.19v0l.76.18C6.41,37.52,6.66,37.58,6.89,37.65Z"/><path d="M9.22,33.92H7.58l-3,1.43V34.2l1.06-.42.51-.2.51-.19v0c-.18-.06-.35-.13-.51-.2L5.67,33l-1.06-.42V31.42l3,1.43H9.22Z"/><path d="M9.22,29.46H4.61V28.39H8.34V26.52h.88Z"/><path d="M9.22,25.7H4.61v-3h.88v1.9h.93V23h.86v1.62H8.34v-2h.88Z"/><path d="M9.22,21.71H4.61V20.62L6.9,19.38l1-.47v0c-.25,0-.52,0-.82.08s-.59.05-.86.05H4.61V18H9.22v1.1l-2.3,1.23-1,.47v0l.82-.09a8.19,8.19,0,0,1,.85,0H9.22Z"/><path d="M9.3,15.43a2.55,2.55,0,0,1-.17.93,2.4,2.4,0,0,1-.49.83l-.71-.62A2.26,2.26,0,0,0,8.27,16a1.54,1.54,0,0,0,.14-.61q0-.66-.45-.66a.34.34,0,0,0-.32.19,5.12,5.12,0,0,0-.23.5L7.16,16a1.85,1.85,0,0,1-.45.66,1.13,1.13,0,0,1-.81.3,1.21,1.21,0,0,1-1-.48,1.78,1.78,0,0,1-.4-1.21,2.32,2.32,0,0,1,.15-.81,2.16,2.16,0,0,1,.46-.72l.65.55a2.2,2.2,0,0,0-.27.46,1.46,1.46,0,0,0-.09.52.74.74,0,0,0,.11.44.33.33,0,0,0,.3.16.35.35,0,0,0,.32-.2,5.58,5.58,0,0,0,.23-.52l.24-.61a1.78,1.78,0,0,1,.46-.68,1.17,1.17,0,0,1,.79-.25,1.32,1.32,0,0,1,1,.46A1.94,1.94,0,0,1,9.3,15.43Z"/></svg>