<svg xmlns="http://www.w3.org/2000/svg" xmlns:xlink="http://www.w3.org/1999/xlink" width="99.29" height="71.53" viewBox="0 0 99.29 71.53"><defs><style>.cls-1{isolation:isolate;}.cls-2{mix-blend-mode:lighten;}.cls-3,.cls-4,.cls-5,.cls-6{stroke:#ccc;stroke-linejoin:round;stroke-width:0.38px;}.cls-3{fill:url(#linear-gradient);}.cls-4{fill:url(#linear-gradient-2);}.cls-5{fill:url(#linear-gradient-3);}.cls-6{fill:url(#linear-gradient-4);}</style><linearGradient id="linear-gradient" x1="46.55" y1="74.44" x2="15.61" y2="43.5" gradientUnits="userSpaceOnUse"><stop offset="0.03" stop-color="#b3b3b3"/><stop offset="0.29" stop-color="#ccc"/><stop offset="0.55" stop-color="#dfdfdf"/><stop offset="0.73" stop-color="#e6e6e6"/><stop offset="1" stop-color="#fff"/></linearGradient><linearGradient id="linear-gradient-2" x1="83.67" y1="74.44" x2="52.74" y2="43.5" xlink:href="#linear-gradient"/><linearGradient id="linear-gradient-3" x1="45.69" y1="50.38" x2="22.57" y2="27.26" xlink:href="#linear-gradient"/><linearGradient id="linear-gradient-4" x1="92.18" y1="65.93" x2="38.04" y2="11.79" xlink:href="#linear-gradient"/></defs><title>AdditionalOptics_Prism copy</title><g class="cls-1"><g id="Layer_1" data-name="Layer 1"><g class="cls-2"><polyline class="cls-3" points="49.64 46.59 49.64 71.34 0.14 58.97"/><polyline class="cls-4" points="99.14 58.97 49.64 71.34 49.64 46.59"/><polyline class="cls-5" points="0.14 58.97 49.64 0.19 49.64 46.42"/><polyline class="cls-6" points="49.64 46.59 49.64 0.19 99.14 58.97"/></g><path d="M62.76,67.37,61.58,62.8l1.68-.44a3.15,3.15,0,0,1,.95-.09,1.5,1.5,0,0,1,.81.29,1.56,1.56,0,0,1,.49.85,1.45,1.45,0,0,1-.57,1.67,2.3,2.3,0,0,1-.85.4l-.49.13L64,67.06Zm.59-2.72.44-.11c.47-.12.65-.4.53-.83a.49.49,0,0,0-.3-.39,1,1,0,0,0-.57,0l-.41.1Z"/><path d="M68.25,66,67,66.27l-1.18-4.58,1.73-.44a2.85,2.85,0,0,1,.94-.1,1.35,1.35,0,0,1,.79.28,1.41,1.41,0,0,1,.48.82,1.52,1.52,0,0,1,0,.87,1.62,1.62,0,0,1-.4.65l1.44,1.51-1.35.35L68.32,64.3l-.46.12Zm-.64-2.5.44-.11c.48-.12.67-.39.57-.79a.45.45,0,0,0-.29-.36,1.07,1.07,0,0,0-.58,0l-.43.11Z"/><path d="M71.47,65.12l-1.18-4.57,1.22-.31,1.17,4.57Z"/><path d="M75.17,64.26a2.65,2.65,0,0,1-.94.07,2.48,2.48,0,0,1-1-.28l.47-1a2.21,2.21,0,0,0,.62.18,1.35,1.35,0,0,0,.57,0c.35-.09.49-.24.44-.45a.27.27,0,0,0-.23-.2l-.51-.09L74,62.38a1.64,1.64,0,0,1-.77-.3,1.27,1.27,0,0,1-.48-.74A1.31,1.31,0,0,1,73,60.22a1.88,1.88,0,0,1,1.12-.74,2.57,2.57,0,0,1,.84,0,2.18,2.18,0,0,1,.84.27l-.41.92a2.39,2.39,0,0,0-.51-.13,1.37,1.37,0,0,0-.49,0c-.32.09-.46.23-.4.44a.3.3,0,0,0,.24.2l.55.08.61.08a1.51,1.51,0,0,1,.79.3,1.3,1.3,0,0,1,.43.72,1.43,1.43,0,0,1-.2,1.14A1.92,1.92,0,0,1,75.17,64.26Z"/><path d="M77.67,63.53,76.49,59l1.29-.33L79,60.31l.22.37.22.38h0c0-.14,0-.29,0-.44s0-.29,0-.43l.18-2,1.3-.33,1.18,4.57-1.1.29-.35-1.36c-.06-.23-.11-.51-.16-.83s-.08-.6-.11-.84h0l-.1,1.19L80.1,62.5l-.64.17-1-1.37-.64-1h0c.08.22.19.48.31.78a8.21,8.21,0,0,1,.26.81l.35,1.35Z"/></g></g></svg>