<svg id="Layer_1" data-name="Layer 1" xmlns="http://www.w3.org/2000/svg" xmlns:xlink="http://www.w3.org/1999/xlink" width="518.89" height="105" viewBox="0 0 518.89 105"><defs><style>.cls-1,.cls-2,.cls-3,.cls-4{stroke-linejoin:round;}.cls-1,.cls-19,.cls-2,.cls-20,.cls-3,.cls-4{stroke-width:0.38px;}.cls-1{fill:url(#linear-gradient);stroke:url(#linear-gradient-2);}.cls-2{fill:url(#linear-gradient-3);stroke:url(#linear-gradient-4);}.cls-3{fill:url(#linear-gradient-5);stroke:url(#linear-gradient-6);}.cls-4{fill:url(#linear-gradient-7);stroke:url(#linear-gradient-8);}.cls-5{fill:url(#linear-gradient-9);}.cls-6{fill:url(#linear-gradient-10);}.cls-7{fill:url(#linear-gradient-11);}.cls-8{fill:url(#linear-gradient-12);}.cls-9{fill:url(#linear-gradient-13);}.cls-10{fill:url(#linear-gradient-14);}.cls-11{fill:url(#linear-gradient-15);}.cls-12{fill:url(#linear-gradient-16);}.cls-13{fill:url(#linear-gradient-17);}.cls-14{fill:url(#linear-gradient-18);}.cls-15{fill:url(#linear-gradient-19);}.cls-16{fill:url(#linear-gradient-20);}.cls-17{fill:url(#linear-gradient-21);}.cls-18{fill:url(#linear-gradient-22);}.cls-19{fill:none;stroke:#ccc;stroke-linecap:round;}.cls-19,.cls-20{stroke-miterlimit:10;}.cls-20,.cls-21{fill:#fff;}.cls-20{stroke:url(#linear-gradient-23);}</style><linearGradient id="linear-gradient" x1="0.19" y1="54.12" x2="46.39" y2="54.12" gradientUnits="userSpaceOnUse"><stop offset="0" stop-color="#1a1a1a"/><stop offset="0.22" stop-color="#333"/><stop offset="0.6" stop-color="#4d4d4d"/><stop offset="0.85" stop-color="#333"/><stop offset="0.91" stop-color="#2c2c2c"/><stop offset="1" stop-color="#1a1a1a"/></linearGradient><linearGradient id="linear-gradient-2" y1="54.12" x2="46.57" y2="54.12" gradientUnits="userSpaceOnUse"><stop offset="0" stop-color="#1a1a1a"/><stop offset="0.09" stop-color="#2c2c2c"/><stop offset="0.15" stop-color="#333"/><stop offset="0.4" stop-color="#4d4d4d"/><stop offset="0.78" stop-color="#333"/><stop offset="1" stop-color="#1a1a1a"/></linearGradient><linearGradient id="linear-gradient-3" x1="1290.74" y1="27.85" x2="1294.65" y2="27.85" gradientTransform="matrix(0, 1, 1, 0, -25.71, -1264.85)" xlink:href="#linear-gradient-2"/><linearGradient id="linear-gradient-4" x1="1290.56" y1="27.85" x2="1294.84" y2="27.85" gradientTransform="matrix(0, 1, 1, 0, -25.71, -1264.85)" xlink:href="#linear-gradient-2"/><linearGradient id="linear-gradient-5" x1="-390.91" y1="3953.55" x2="-387" y2="3953.55" gradientTransform="matrix(0, 1, 1, 0, -3951.41, 469.3)" xlink:href="#linear-gradient-2"/><linearGradient id="linear-gradient-6" x1="-391.1" y1="3953.55" x2="-386.81" y2="3953.55" gradientTransform="matrix(0, 1, 1, 0, -3951.41, 469.3)" xlink:href="#linear-gradient-2"/><linearGradient id="linear-gradient-7" x1="1242.04" y1="54.49" x2="1251.88" y2="54.49" gradientTransform="matrix(0, 1, 1, 0, -6.61, -1192.47)" xlink:href="#linear-gradient-2"/><linearGradient id="linear-gradient-8" x1="1241.85" y1="54.49" x2="1252.07" y2="54.49" gradientTransform="matrix(0, 1, 1, 0, -6.61, -1192.47)" xlink:href="#linear-gradient-2"/><linearGradient id="linear-gradient-9" x1="775.95" y1="52.5" x2="1243.76" y2="52.5" gradientTransform="matrix(1, 0, 0, -1, -724.88, 105)" gradientUnits="userSpaceOnUse"><stop offset="0" stop-color="#4d4d4d"/><stop offset="0.54" stop-color="#222"/><stop offset="0.65" stop-color="#2c2c2c"/><stop offset="0.78" stop-color="#333"/><stop offset="0.93" stop-color="#454545"/><stop offset="1" stop-color="#1a1a1a"/></linearGradient><linearGradient id="linear-gradient-10" x1="1009.95" y1="100.5" x2="1009.95" y2="4.5" gradientTransform="matrix(1, 0, 0, -1, -725.07, 105)" gradientUnits="userSpaceOnUse"><stop offset="0.06" stop-color="#1a1a1a"/><stop offset="0.29" stop-color="#353535"/><stop offset="0.51" stop-color="#4d4d4d"/><stop offset="0.87" stop-color="#1a1a1a"/></linearGradient><linearGradient id="linear-gradient-11" x1="1241.09" y1="88.14" x2="1170.06" y2="17.11" gradientTransform="matrix(1, 0, 0, -1, -1112.21, 105.25)" gradientUnits="userSpaceOnUse"><stop offset="0" stop-color="#393939"/><stop offset="0.47" stop-color="#181818"/><stop offset="0.87"/></linearGradient><linearGradient id="linear-gradient-12" x1="1173.49" y1="52.62" x2="1238.51" y2="52.62" gradientTransform="matrix(1, 0, 0, -1, -1117.16, 105.25)" gradientUnits="userSpaceOnUse"><stop offset="0" stop-color="#4d4d4d"/><stop offset="0.07" stop-color="#4b4b4b"/><stop offset="0.87" stop-color="#333"/></linearGradient><linearGradient id="linear-gradient-13" x1="1164.59" y1="88.14" x2="1093.56" y2="17.11" gradientTransform="matrix(1, 0, 0, -1, -959.21, 105.25)" xlink:href="#linear-gradient-11"/><linearGradient id="linear-gradient-14" x1="1096.99" y1="52.62" x2="1162.01" y2="52.62" gradientTransform="matrix(1, 0, 0, -1, -964.16, 105.25)" xlink:href="#linear-gradient-12"/><linearGradient id="linear-gradient-15" x1="1088.09" y1="88.14" x2="1017.06" y2="17.11" gradientTransform="matrix(1, 0, 0, -1, -806.21, 105.25)" xlink:href="#linear-gradient-11"/><linearGradient id="linear-gradient-16" x1="1020.49" y1="52.62" x2="1085.51" y2="52.62" gradientTransform="matrix(1, 0, 0, -1, -811.16, 105.25)" xlink:href="#linear-gradient-12"/><linearGradient id="linear-gradient-17" x1="1011.59" y1="88.14" x2="940.56" y2="17.11" gradientTransform="matrix(1, 0, 0, -1, -653.21, 105.25)" xlink:href="#linear-gradient-11"/><linearGradient id="linear-gradient-18" x1="943.99" y1="52.62" x2="1009.01" y2="52.62" gradientTransform="matrix(1, 0, 0, -1, -658.16, 105.25)" xlink:href="#linear-gradient-12"/><linearGradient id="linear-gradient-19" x1="935.09" y1="88.14" x2="864.06" y2="17.11" gradientTransform="matrix(1, 0, 0, -1, -500.21, 105.25)" xlink:href="#linear-gradient-11"/><linearGradient id="linear-gradient-20" x1="867.49" y1="52.62" x2="932.51" y2="52.62" gradientTransform="matrix(1, 0, 0, -1, -505.16, 105.25)" xlink:href="#linear-gradient-12"/><linearGradient id="linear-gradient-21" x1="858.59" y1="88.14" x2="787.56" y2="17.11" gradientTransform="matrix(1, 0, 0, -1, -347.21, 105.25)" xlink:href="#linear-gradient-11"/><linearGradient id="linear-gradient-22" x1="790.99" y1="52.62" x2="856.01" y2="52.62" gradientTransform="matrix(1, 0, 0, -1, -352.16, 105.25)" xlink:href="#linear-gradient-12"/><linearGradient id="linear-gradient-23" x1="25.37" y1="88.32" x2="25.37" y2="18.94" gradientUnits="userSpaceOnUse"><stop offset="0" stop-color="#a6a5a5"/><stop offset="0.11" stop-color="#d2d1d2"/><stop offset="0.18" stop-color="#c5c4c5"/><stop offset="0.29" stop-color="#979696"/><stop offset="0.33" stop-color="#919090"/><stop offset="0.78" stop-color="#c9c8c8"/><stop offset="0.85" stop-color="#fff"/><stop offset="1" stop-color="#797979"/></linearGradient></defs><title>AdditionalOptics_LightSourceBoxLarge copy</title><path class="cls-1" d="M4.1,16v-.36a1.6,1.6,0,0,0-1.6-1.59H1.78A1.59,1.59,0,0,0,.19,15.66V41.58h1.2v2.35H4.88v2.5h4v15h-4V64H1.39V66.3H.19V92.59a1.59,1.59,0,0,0,1.59,1.59H2.5a1.6,1.6,0,0,0,1.6-1.59v-.36l42.29.4V16.13Z"/><path class="cls-2" d="M-10.64,25.9H15.92a0,0,0,0,1,0,0V29.8a0,0,0,0,1,0,0H-10.64a1,1,0,0,1-1-1V26.9a1,1,0,0,1,1-1Z" transform="translate(29.99 25.71) rotate(90)"/><path class="cls-3" d="M-10.64,78.4H15.92a0,0,0,0,1,0,0V82.3a0,0,0,0,1,0,0H-10.64a1,1,0,0,1-1-1V79.4A1,1,0,0,1-10.64,78.4Z" transform="translate(-78.21 82.49) rotate(-90)"/><rect class="cls-4" x="3.91" y="49.57" width="87.93" height="9.84" rx="1.94" transform="translate(102.36 6.61) rotate(90)"/><rect class="cls-5" x="51.07" width="467.81" height="105" rx="6" transform="translate(569.96 105) rotate(-180)"/><rect class="cls-6" x="55.39" y="4.5" width="459" height="96" rx="3.65" transform="translate(569.77 105) rotate(-180)"/><path class="cls-7" d="M63.33,14.52h63a0,0,0,0,1,0,0v76.2a0,0,0,0,1,0,0h-63a7,7,0,0,1-7-7V21.52a7,7,0,0,1,7-7Z" transform="translate(182.63 105.25) rotate(-180)"/><path class="cls-8" d="M63.33,18h58a0,0,0,0,1,0,0V87.29a0,0,0,0,1,0,0h-58a7,7,0,0,1-7-7V25a7,7,0,0,1,7-7Z" transform="translate(177.68 105.25) rotate(-180)"/><path class="cls-9" d="M139.83,14.52h63a0,0,0,0,1,0,0v76.2a0,0,0,0,1,0,0h-63a7,7,0,0,1-7-7V21.52a7,7,0,0,1,7-7Z" transform="translate(335.63 105.25) rotate(-180)"/><path class="cls-10" d="M139.83,18h58a0,0,0,0,1,0,0V87.29a0,0,0,0,1,0,0h-58a7,7,0,0,1-7-7V25a7,7,0,0,1,7-7Z" transform="translate(330.68 105.25) rotate(-180)"/><path class="cls-11" d="M216.33,14.52h63a0,0,0,0,1,0,0v76.2a0,0,0,0,1,0,0h-63a7,7,0,0,1-7-7V21.52a7,7,0,0,1,7-7Z" transform="translate(488.63 105.25) rotate(-180)"/><path class="cls-12" d="M216.33,18h58a0,0,0,0,1,0,0V87.29a0,0,0,0,1,0,0h-58a7,7,0,0,1-7-7V25A7,7,0,0,1,216.33,18Z" transform="translate(483.68 105.25) rotate(-180)"/><path class="cls-13" d="M292.83,14.52h63a0,0,0,0,1,0,0v76.2a0,0,0,0,1,0,0h-63a7,7,0,0,1-7-7V21.52a7,7,0,0,1,7-7Z" transform="translate(641.63 105.25) rotate(-180)"/><path class="cls-14" d="M292.83,18h58a0,0,0,0,1,0,0V87.29a0,0,0,0,1,0,0h-58a7,7,0,0,1-7-7V25a7,7,0,0,1,7-7Z" transform="translate(636.68 105.25) rotate(-180)"/><path class="cls-15" d="M369.33,14.52h63a0,0,0,0,1,0,0v76.2a0,0,0,0,1,0,0h-63a7,7,0,0,1-7-7V21.52A7,7,0,0,1,369.33,14.52Z" transform="translate(794.63 105.25) rotate(-180)"/><path class="cls-16" d="M369.33,18h58a0,0,0,0,1,0,0V87.29a0,0,0,0,1,0,0h-58a7,7,0,0,1-7-7V25a7,7,0,0,1,7-7Z" transform="translate(789.68 105.25) rotate(-180)"/><path class="cls-17" d="M445.83,14.52h63a0,0,0,0,1,0,0v76.2a0,0,0,0,1,0,0h-63a7,7,0,0,1-7-7V21.52a7,7,0,0,1,7-7Z" transform="translate(947.63 105.25) rotate(-180)"/><path class="cls-18" d="M445.83,18h58a0,0,0,0,1,0,0V87.29a0,0,0,0,1,0,0h-58a7,7,0,0,1-7-7V25a7,7,0,0,1,7-7Z" transform="translate(942.68 105.25) rotate(-180)"/><line class="cls-19" x1="67.39" y1="86.63" x2="67.37" y2="86.66"/><path class="cls-20" d="M23.35,19.13h7.29v69H23.35S16.05,53.63,23.35,19.13Z"/><path class="cls-21" d="M439.75,13V8.1H441v3.79h1.85V13Z"/><path class="cls-21" d="M443.73,13V8.1H445V13Z"/><path class="cls-21" d="M448.35,13.06a2.66,2.66,0,0,1-1.24-.28,2.07,2.07,0,0,1-.89-.82,2.67,2.67,0,0,1-.33-1.39,2.65,2.65,0,0,1,.34-1.39,2.3,2.3,0,0,1,.88-.87,2.49,2.49,0,0,1,1.21-.3,2.13,2.13,0,0,1,.94.19,2.49,2.49,0,0,1,.65.45l-.68.83a1.6,1.6,0,0,0-.38-.26,1,1,0,0,0-.49-.1,1,1,0,0,0-.82.37,1.53,1.53,0,0,0-.33,1,1.55,1.55,0,0,0,.31,1.05,1.18,1.18,0,0,0,1,.37.69.69,0,0,0,.38-.09v-.67h-.72v-1H450v2.32a2,2,0,0,1-.7.43A2.67,2.67,0,0,1,448.35,13.06Z"/><path class="cls-21" d="M450.94,13V8.1h1.29V9.91h1.46V8.1H455V13h-1.29V11h-1.46V13Z"/><path class="cls-21" d="M457,13V9.18H455.7V8.1h3.87V9.18h-1.29V13Z"/><path class="cls-21" d="M463.33,13.06a3,3,0,0,1-1-.17,2.56,2.56,0,0,1-.88-.53l.73-.88a2.33,2.33,0,0,0,.57.34,1.38,1.38,0,0,0,.57.13c.37,0,.56-.11.56-.34a.28.28,0,0,0-.18-.26l-.48-.22-.61-.25a1.85,1.85,0,0,1-.69-.5,1.28,1.28,0,0,1-.29-.86,1.39,1.39,0,0,1,.51-1.07,1.93,1.93,0,0,1,1.3-.44,2.33,2.33,0,0,1,.85.16,2.15,2.15,0,0,1,.77.49l-.64.81a2.3,2.3,0,0,0-.48-.26,1.35,1.35,0,0,0-.5-.09q-.51,0-.51.33a.29.29,0,0,0,.2.26,4.06,4.06,0,0,0,.52.22l.6.24a1.54,1.54,0,0,1,.7.5,1.28,1.28,0,0,1,.25.83,1.48,1.48,0,0,1-.5,1.09A2,2,0,0,1,463.33,13.06Z"/><path class="cls-21" d="M468.07,13.06a2.14,2.14,0,0,1-1.64-.67,2.7,2.7,0,0,1-.62-1.88,2.58,2.58,0,0,1,.62-1.85,2.39,2.39,0,0,1,3.28,0,2.54,2.54,0,0,1,.63,1.85,2.65,2.65,0,0,1-.63,1.88A2.13,2.13,0,0,1,468.07,13.06Zm0-1.11a.79.79,0,0,0,.69-.39,1.9,1.9,0,0,0,.26-1.05,1.8,1.8,0,0,0-.26-1,.84.84,0,0,0-1.38,0,1.8,1.8,0,0,0-.25,1,1.9,1.9,0,0,0,.25,1.05A.79.79,0,0,0,468.07,12Z"/><path class="cls-21" d="M473.2,13.06a1.87,1.87,0,0,1-1.52-.6,2.85,2.85,0,0,1-.5-1.84V8.1h1.29v2.67a1.87,1.87,0,0,0,.17.92.65.65,0,0,0,.56.26.65.65,0,0,0,.57-.26,1.74,1.74,0,0,0,.18-.92V8.1h1.25v2.52a2.85,2.85,0,0,1-.49,1.84A1.83,1.83,0,0,1,473.2,13.06Z"/><path class="cls-21" d="M477.54,13h-1.29V8.1h1.84a3,3,0,0,1,1,.14,1.48,1.48,0,0,1,.71.48,1.51,1.51,0,0,1,.27.95,1.56,1.56,0,0,1-.22.87,1.53,1.53,0,0,1-.56.54L480.31,13h-1.44L478,11.34h-.49Zm0-2.65H478c.52,0,.78-.22.78-.65a.44.44,0,0,0-.2-.43,1.12,1.12,0,0,0-.58-.12h-.46Z"/><path class="cls-21" d="M483.09,13.06a2.36,2.36,0,0,1-1.15-.28,2,2,0,0,1-.85-.82,2.67,2.67,0,0,1-.33-1.39,2.65,2.65,0,0,1,.34-1.39,2.27,2.27,0,0,1,.87-.87,2.3,2.3,0,0,1,1.15-.3,1.92,1.92,0,0,1,.87.19,2.43,2.43,0,0,1,.64.45l-.67.83a2.09,2.09,0,0,0-.37-.26.92.92,0,0,0-.44-.1,1,1,0,0,0-.75.37,1.58,1.58,0,0,0-.32,1,1.66,1.66,0,0,0,.29,1.05.91.91,0,0,0,.76.37,1,1,0,0,0,.51-.13,1.59,1.59,0,0,0,.38-.29l.67.81A2,2,0,0,1,483.09,13.06Z"/><path class="cls-21" d="M485.37,13V8.1h3.15V9.18h-1.86v.76h1.59V11h-1.59v.87h1.93V13Z"/><path class="cls-21" d="M491,13V8.1h1.75a3.23,3.23,0,0,1,1.31.24,1,1,0,0,1,.54,1,1.35,1.35,0,0,1-.17.63.83.83,0,0,1-.45.42v0a1.28,1.28,0,0,1,.59.38,1.09,1.09,0,0,1,.25.76,1.21,1.21,0,0,1-.56,1.1,2.57,2.57,0,0,1-1.36.34Zm1.29-3h.43c.41,0,.62-.16.62-.49s-.21-.42-.62-.42h-.43Zm0,2h.52q.75,0,.75-.54c0-.33-.25-.49-.75-.49h-.52Z"/><path class="cls-21" d="M497.68,13.06a2.14,2.14,0,0,1-1.64-.67,2.7,2.7,0,0,1-.62-1.88A2.58,2.58,0,0,1,496,8.66a2.39,2.39,0,0,1,3.28,0,2.54,2.54,0,0,1,.63,1.85,2.65,2.65,0,0,1-.63,1.88A2.13,2.13,0,0,1,497.68,13.06Zm0-1.11a.79.79,0,0,0,.69-.39,1.9,1.9,0,0,0,.26-1.05,1.8,1.8,0,0,0-.26-1,.84.84,0,0,0-1.38,0,1.8,1.8,0,0,0-.25,1,1.9,1.9,0,0,0,.25,1.05A.79.79,0,0,0,497.68,12Z"/><path class="cls-21" d="M500.13,13l1.32-2.5L500.2,8.1h1.44l.33.79c0,.11.11.23.16.37l.19.44h0c0-.16.1-.31.15-.44s.1-.26.15-.37l.28-.79h1.38l-1.24,2.43L504.39,13H503l-.39-.87c-.06-.13-.12-.26-.17-.39l-.18-.42h0l-.15.42c-.06.13-.11.26-.16.39l-.36.87Z"/><path class="cls-21" d="M80.09,47.32v-5h1.19a2.29,2.29,0,0,1,1.3.31,1.15,1.15,0,0,1,.47,1,1.28,1.28,0,0,1-.46,1.06,2.07,2.07,0,0,1-1.28.35h-1v2.19Zm.24-2.4h.89a2,2,0,0,0,1.18-.28,1,1,0,0,0,.39-.92,1,1,0,0,0-.4-.89,2.24,2.24,0,0,0-1.2-.25h-.86Z"/><path class="cls-21" d="M84.49,47.41q-.36,0-.36-.48v-5h.22V47c0,.15.05.22.15.22h.14l0,.19-.09,0Z"/><path class="cls-21" d="M86.62,47.41a1.14,1.14,0,0,1-.73-.23.85.85,0,0,1-.31-.74,1,1,0,0,1,.57-.91,5.31,5.31,0,0,1,1.79-.44,2.78,2.78,0,0,0-.06-.58,1,1,0,0,0-.26-.47.81.81,0,0,0-.57-.18,1.55,1.55,0,0,0-.69.15,2.44,2.44,0,0,0-.48.28l-.12-.18a3.11,3.11,0,0,1,.52-.29,1.7,1.7,0,0,1,.79-.17.91.91,0,0,1,.86.4,1.94,1.94,0,0,1,.23,1v2.32H88l0-.48h0a4.28,4.28,0,0,1-.61.4A1.53,1.53,0,0,1,86.62,47.41Zm0-.21a1.35,1.35,0,0,0,.64-.16,3.56,3.56,0,0,0,.67-.45V45.28a4.6,4.6,0,0,0-1.65.41.86.86,0,0,0-.47.75.68.68,0,0,0,.24.59A1,1,0,0,0,86.63,47.2Z"/><path class="cls-21" d="M90.79,47.41a1.49,1.49,0,0,1-1.15-.49,2.29,2.29,0,0,1,0-2.78,1.52,1.52,0,0,1,1.13-.49,1.19,1.19,0,0,1,.62.14,2.37,2.37,0,0,1,.43.31l-.15.16a2.21,2.21,0,0,0-.4-.28,1,1,0,0,0-.5-.12,1.2,1.2,0,0,0-1,.47,1.77,1.77,0,0,0-.4,1.21,1.85,1.85,0,0,0,.38,1.2,1.2,1.2,0,0,0,1,.46,1.14,1.14,0,0,0,.55-.13,1.77,1.77,0,0,0,.45-.3l.14.16a2,2,0,0,1-.51.34A1.33,1.33,0,0,1,90.79,47.41Z"/><path class="cls-21" d="M94,47.41a1.51,1.51,0,0,1-1.15-.5,1.89,1.89,0,0,1-.48-1.37,1.94,1.94,0,0,1,.47-1.39,1.44,1.44,0,0,1,1.07-.5,1.23,1.23,0,0,1,1,.42,1.83,1.83,0,0,1,.37,1.23v.11a.62.62,0,0,1,0,.13H92.65A1.81,1.81,0,0,0,93,46.73a1.26,1.26,0,0,0,1,.47,1.53,1.53,0,0,0,.54-.09,2,2,0,0,0,.45-.24l.1.2c-.13.08-.29.15-.45.23A1.75,1.75,0,0,1,94,47.41Zm-1.39-2.08h2.43a1.71,1.71,0,0,0-.31-1.11,1,1,0,0,0-.82-.36,1.17,1.17,0,0,0-.86.39A1.67,1.67,0,0,0,92.65,45.33Z"/><path class="cls-21" d="M67.84,56.32v-5h.24v4.74H70.4v.21Z"/><path class="cls-21" d="M71.38,51.82a.24.24,0,0,1-.18-.07.25.25,0,0,1-.08-.18.26.26,0,0,1,.44-.19.24.24,0,0,1,.07.19.24.24,0,0,1-.25.25Zm-.12,4.5V52.74h.22v3.58Z"/><path class="cls-21" d="M74.08,58.08A1.87,1.87,0,0,1,73,57.8a.86.86,0,0,1-.39-.73.92.92,0,0,1,.14-.47,1.42,1.42,0,0,1,.4-.41v0a.69.69,0,0,1-.23-.22.68.68,0,0,1-.09-.35.64.64,0,0,1,.14-.42,1.35,1.35,0,0,1,.25-.24v0a1.75,1.75,0,0,1-.31-.41A1.29,1.29,0,0,1,73.13,53a1.19,1.19,0,0,1,.87-.36,1.12,1.12,0,0,1,.27,0l.2.06h1.2V53H74.8a1.09,1.09,0,0,1,.31.41,1.23,1.23,0,0,1,.12.55,1.25,1.25,0,0,1-.35.9,1.16,1.16,0,0,1-.88.37,1.11,1.11,0,0,1-.61-.16,1.2,1.2,0,0,0-.22.23.47.47,0,0,0-.1.32.5.5,0,0,0,.14.35.81.81,0,0,0,.57.15h.79c.77,0,1.16.27,1.16.81a1.06,1.06,0,0,1-.45.82A1.82,1.82,0,0,1,74.08,58.08Zm0-.21a1.59,1.59,0,0,0,1-.31.89.89,0,0,0,.38-.67c0-.39-.29-.58-.87-.58h-.83l-.16,0-.27,0a1.2,1.2,0,0,0-.39.39.84.84,0,0,0-.12.42.66.66,0,0,0,.32.58A1.58,1.58,0,0,0,74.09,57.87ZM74,55a1,1,0,0,0,.69-.29,1.15,1.15,0,0,0,0-1.54,1,1,0,0,0-1.4,0,1.15,1.15,0,0,0,0,1.54A1,1,0,0,0,74,55Z"/><path class="cls-21" d="M76.75,53.58v2.74h-.23V50.91h.23v2.41a3.66,3.66,0,0,1,.59-.48,1.17,1.17,0,0,1,.67-.19c.72,0,1.08.45,1.08,1.36v2.31h-.23V54a1.6,1.6,0,0,0-.2-.89.75.75,0,0,0-.67-.29,1.15,1.15,0,0,0-.62.18A3.49,3.49,0,0,0,76.75,53.58Z"/><path class="cls-21" d="M81.35,56.41a.72.72,0,0,1-.67-.28,1.49,1.49,0,0,1-.17-.75V53h-.57v-.18l.57,0,0-1.05h.2v1.05H81.8V53H80.74v2.46a1.2,1.2,0,0,0,.12.57c.08.15.25.22.51.22a.7.7,0,0,0,.23,0l.23-.08.08.2a1.92,1.92,0,0,1-.32.09A.85.85,0,0,1,81.35,56.41Z"/><path class="cls-21" d="M85.49,56.41a2.06,2.06,0,0,1-1-.21,2.3,2.3,0,0,1-.69-.54L84,55.5a2,2,0,0,0,.65.5,1.91,1.91,0,0,0,.83.19,1.41,1.41,0,0,0,1-.3,1,1,0,0,0,.36-.77.85.85,0,0,0-.27-.71,2.71,2.71,0,0,0-.65-.38l-.76-.35a4.83,4.83,0,0,1-.45-.23,1.56,1.56,0,0,1-.39-.38,1,1,0,0,1-.17-.6,1.06,1.06,0,0,1,.4-.86,1.51,1.51,0,0,1,1-.33,1.67,1.67,0,0,1,.79.18,1.89,1.89,0,0,1,.56.41l-.15.16a1.52,1.52,0,0,0-.52-.38,1.51,1.51,0,0,0-.68-.14,1.24,1.24,0,0,0-.84.26.84.84,0,0,0-.32.68.78.78,0,0,0,.3.68,4.52,4.52,0,0,0,.57.33l.77.34a3.61,3.61,0,0,1,.73.46,1.09,1.09,0,0,1,.32.85,1.21,1.21,0,0,1-.43.93A1.61,1.61,0,0,1,85.49,56.41Z"/><path class="cls-21" d="M89.35,56.41a1.49,1.49,0,0,1-1.12-.49,1.9,1.9,0,0,1-.47-1.38,1.93,1.93,0,0,1,.47-1.4,1.49,1.49,0,0,1,1.12-.49,1.47,1.47,0,0,1,1.11.49,1.93,1.93,0,0,1,.48,1.4,1.9,1.9,0,0,1-.48,1.38A1.47,1.47,0,0,1,89.35,56.41Zm0-.21a1.2,1.2,0,0,0,1-.46,2.06,2.06,0,0,0,0-2.41,1.22,1.22,0,0,0-1.92,0,2.06,2.06,0,0,0,0,2.41A1.2,1.2,0,0,0,89.35,56.2Z"/><path class="cls-21" d="M93.08,56.41c-.72,0-1.08-.45-1.08-1.36V52.74h.23V55a1.54,1.54,0,0,0,.2.89.76.76,0,0,0,.67.29,1,1,0,0,0,.61-.19,3,3,0,0,0,.62-.59V52.74h.22v3.58h-.19l0-.61h0a2.91,2.91,0,0,1-.56.51A1.19,1.19,0,0,1,93.08,56.41Z"/><path class="cls-21" d="M96,56.32V52.74h.2l0,.67h0a2,2,0,0,1,.44-.55.88.88,0,0,1,.58-.21.78.78,0,0,1,.35.07l-.06.21a.91.91,0,0,0-.32-.06.83.83,0,0,0-.52.22,1.75,1.75,0,0,0-.48.74v2.49Z"/><path class="cls-21" d="M99.5,56.41a1.51,1.51,0,0,1-1.15-.49,2,2,0,0,1-.45-1.38,1.93,1.93,0,0,1,.48-1.4,1.5,1.5,0,0,1,1.12-.49,1.16,1.16,0,0,1,.62.14,2.07,2.07,0,0,1,.43.31l-.15.16A1.91,1.91,0,0,0,100,53a1,1,0,0,0-.5-.12,1.21,1.21,0,0,0-1,.47,1.81,1.81,0,0,0-.39,1.21,1.85,1.85,0,0,0,.37,1.2,1.2,1.2,0,0,0,1,.46,1.18,1.18,0,0,0,.56-.13,1.77,1.77,0,0,0,.45-.3l.13.16a2,2,0,0,1-.51.34A1.33,1.33,0,0,1,99.5,56.41Z"/><path class="cls-21" d="M102.76,56.41a1.53,1.53,0,0,1-1.16-.5,1.89,1.89,0,0,1-.48-1.37,2,2,0,0,1,.47-1.39,1.48,1.48,0,0,1,1.08-.5,1.24,1.24,0,0,1,1,.42A1.88,1.88,0,0,1,104,54.3v.11a.69.69,0,0,1,0,.13h-2.64a1.86,1.86,0,0,0,.38,1.19,1.28,1.28,0,0,0,1,.47,1.53,1.53,0,0,0,.54-.09,1.61,1.61,0,0,0,.45-.24l.11.2-.46.23A1.69,1.69,0,0,1,102.76,56.41Zm-1.4-2.08h2.43a1.65,1.65,0,0,0-.31-1.11,1,1,0,0,0-.81-.36,1.2,1.2,0,0,0-.87.39A1.72,1.72,0,0,0,101.36,54.33Z"/><path class="cls-21" d="M106.45,56.32v-.21h1.14V52h-.86v-.16a3.19,3.19,0,0,0,.51-.12,2.27,2.27,0,0,0,.38-.17h.19v4.59h1.07v.21Z"/><path class="cls-21" d="M81.89,65.32V60.37h.24v2.21h2.78V60.37h.24v4.95h-.24V62.79H82.13v2.53Z"/><path class="cls-21" d="M87.94,65.41a1.53,1.53,0,0,1-1.16-.5,1.89,1.89,0,0,1-.48-1.37,2,2,0,0,1,.47-1.39,1.48,1.48,0,0,1,1.08-.5,1.24,1.24,0,0,1,1,.42,1.88,1.88,0,0,1,.37,1.23v.11a.69.69,0,0,1,0,.13H86.54a1.86,1.86,0,0,0,.38,1.19,1.28,1.28,0,0,0,1,.47,1.53,1.53,0,0,0,.54-.09,1.61,1.61,0,0,0,.45-.24l.11.2c-.14.08-.29.15-.46.23A1.69,1.69,0,0,1,87.94,65.41Zm-1.4-2.08H89a1.65,1.65,0,0,0-.31-1.11,1,1,0,0,0-.81-.36,1.2,1.2,0,0,0-.87.39A1.72,1.72,0,0,0,86.54,63.33Z"/><path class="cls-21" d="M90.2,65.32V61.74h.2l0,.67h0a2,2,0,0,1,.44-.55.88.88,0,0,1,.58-.21.78.78,0,0,1,.35.07l-.06.21a.91.91,0,0,0-.32-.06.83.83,0,0,0-.52.22,1.75,1.75,0,0,0-.48.74v2.49Z"/><path class="cls-21" d="M93.74,65.41a1.51,1.51,0,0,1-1.15-.5,1.89,1.89,0,0,1-.48-1.37,1.94,1.94,0,0,1,.47-1.39,1.44,1.44,0,0,1,1.07-.5,1.23,1.23,0,0,1,1,.42A1.83,1.83,0,0,1,95,63.3v.11a.62.62,0,0,1,0,.13H92.34a1.81,1.81,0,0,0,.39,1.19,1.26,1.26,0,0,0,1,.47,1.53,1.53,0,0,0,.54-.09,2,2,0,0,0,.45-.24l.1.2c-.13.08-.29.15-.45.23A1.75,1.75,0,0,1,93.74,65.41Zm-1.4-2.08h2.44a1.71,1.71,0,0,0-.31-1.11,1,1,0,0,0-.82-.36,1.17,1.17,0,0,0-.86.39A1.73,1.73,0,0,0,92.34,63.33Z"/><path class="cls-21" d="M156.59,47.62V42.67h1.19a2.29,2.29,0,0,1,1.3.31,1.15,1.15,0,0,1,.47,1,1.28,1.28,0,0,1-.46,1.06,2.07,2.07,0,0,1-1.28.35h-1v2.19Zm.24-2.4h.89a2,2,0,0,0,1.18-.28,1,1,0,0,0,.39-.92,1,1,0,0,0-.4-.89,2.24,2.24,0,0,0-1.2-.25h-.86Z"/><path class="cls-21" d="M161,47.71q-.36,0-.36-.48v-5h.22v5.07c0,.15.05.22.15.22h.14l0,.19-.09,0Z"/><path class="cls-21" d="M163.12,47.71a1.14,1.14,0,0,1-.73-.23.85.85,0,0,1-.31-.74,1,1,0,0,1,.57-.91,5.31,5.31,0,0,1,1.79-.44,2.78,2.78,0,0,0-.06-.58,1,1,0,0,0-.26-.47.81.81,0,0,0-.57-.18,1.55,1.55,0,0,0-.69.15,2.44,2.44,0,0,0-.48.28l-.12-.18a3.11,3.11,0,0,1,.52-.29,1.7,1.7,0,0,1,.79-.17.91.91,0,0,1,.86.4,1.94,1.94,0,0,1,.23.95v2.32h-.19l0-.48h0a4.28,4.28,0,0,1-.61.4A1.53,1.53,0,0,1,163.12,47.71Zm0-.21a1.35,1.35,0,0,0,.64-.16,3.56,3.56,0,0,0,.67-.45V45.58a4.6,4.6,0,0,0-1.65.41.86.86,0,0,0-.47.75.68.68,0,0,0,.24.59A1,1,0,0,0,163.13,47.5Z"/><path class="cls-21" d="M167.29,47.71a1.49,1.49,0,0,1-1.15-.49,2.29,2.29,0,0,1,0-2.78,1.52,1.52,0,0,1,1.13-.49,1.19,1.19,0,0,1,.62.14,2.37,2.37,0,0,1,.43.31l-.15.16a2.21,2.21,0,0,0-.4-.28,1,1,0,0,0-.5-.12,1.2,1.2,0,0,0-1,.47,1.77,1.77,0,0,0-.4,1.21,1.85,1.85,0,0,0,.38,1.2,1.2,1.2,0,0,0,1,.46,1.14,1.14,0,0,0,.55-.13,1.77,1.77,0,0,0,.45-.3l.14.16a2,2,0,0,1-.51.34A1.33,1.33,0,0,1,167.29,47.71Z"/><path class="cls-21" d="M170.54,47.71a1.51,1.51,0,0,1-1.15-.5,1.89,1.89,0,0,1-.48-1.37,1.94,1.94,0,0,1,.47-1.39,1.44,1.44,0,0,1,1.07-.5,1.23,1.23,0,0,1,1,.42,1.83,1.83,0,0,1,.37,1.23v.11a.62.62,0,0,1,0,.13h-2.64a1.81,1.81,0,0,0,.38,1.19,1.26,1.26,0,0,0,1,.47,1.53,1.53,0,0,0,.54-.09,2,2,0,0,0,.45-.24l.1.2c-.13.08-.29.15-.45.23A1.75,1.75,0,0,1,170.54,47.71Zm-1.39-2.08h2.43a1.71,1.71,0,0,0-.31-1.11,1,1,0,0,0-.82-.36,1.17,1.17,0,0,0-.86.39A1.67,1.67,0,0,0,169.15,45.63Z"/><path class="cls-21" d="M144.34,56.62V51.67h.24v4.74h2.32v.21Z"/><path class="cls-21" d="M147.88,52.12a.24.24,0,0,1-.18-.07.25.25,0,0,1-.08-.18.26.26,0,0,1,.44-.19.24.24,0,0,1,.07.19.24.24,0,0,1-.25.25Zm-.12,4.5V53H148v3.58Z"/><path class="cls-21" d="M150.58,58.38a1.87,1.87,0,0,1-1.08-.28.86.86,0,0,1-.39-.73.92.92,0,0,1,.14-.47,1.42,1.42,0,0,1,.4-.41v0a.69.69,0,0,1-.23-.22.68.68,0,0,1-.09-.35.64.64,0,0,1,.14-.42,1.35,1.35,0,0,1,.25-.24v0a1.75,1.75,0,0,1-.31-.41,1.29,1.29,0,0,1,.22-1.48,1.19,1.19,0,0,1,.87-.36,1.12,1.12,0,0,1,.27,0l.2.06h1.2v.21h-.87a1.09,1.09,0,0,1,.31.41,1.23,1.23,0,0,1,.12.55,1.25,1.25,0,0,1-.35.9,1.16,1.16,0,0,1-.88.37,1.11,1.11,0,0,1-.61-.16,1.2,1.2,0,0,0-.22.23.47.47,0,0,0-.1.32.5.5,0,0,0,.14.35.81.81,0,0,0,.57.15h.79c.77,0,1.16.27,1.16.81a1.06,1.06,0,0,1-.45.82A1.82,1.82,0,0,1,150.58,58.38Zm0-.21a1.59,1.59,0,0,0,1-.31.89.89,0,0,0,.38-.67c0-.39-.29-.58-.87-.58h-.83l-.16,0-.27,0a1.2,1.2,0,0,0-.39.39.84.84,0,0,0-.12.42.66.66,0,0,0,.32.58A1.58,1.58,0,0,0,150.59,58.17Zm-.09-2.9a1,1,0,0,0,.69-.29,1.15,1.15,0,0,0,0-1.54,1,1,0,0,0-1.4,0,1.15,1.15,0,0,0,0,1.54A1,1,0,0,0,150.5,55.27Z"/><path class="cls-21" d="M153.25,53.88v2.74H153V51.21h.23v2.41a3.66,3.66,0,0,1,.59-.48,1.17,1.17,0,0,1,.67-.19c.72,0,1.08.45,1.08,1.36v2.31h-.23V54.34a1.6,1.6,0,0,0-.2-.89.75.75,0,0,0-.67-.29,1.15,1.15,0,0,0-.62.18A3.49,3.49,0,0,0,153.25,53.88Z"/><path class="cls-21" d="M157.85,56.71a.72.72,0,0,1-.67-.28,1.49,1.49,0,0,1-.17-.75V53.25h-.57v-.18l.57,0,0-1h.2v1h1.06v.21h-1.06v2.46a1.2,1.2,0,0,0,.12.57c.08.15.25.22.51.22a.7.7,0,0,0,.23,0l.23-.08.08.2a1.92,1.92,0,0,1-.32.09A.85.85,0,0,1,157.85,56.71Z"/><path class="cls-21" d="M162,56.71a2.06,2.06,0,0,1-1-.21,2.3,2.3,0,0,1-.69-.54l.17-.16a2,2,0,0,0,.65.5,1.91,1.91,0,0,0,.83.19,1.41,1.41,0,0,0,.95-.3,1,1,0,0,0,.36-.77.85.85,0,0,0-.27-.71,2.71,2.71,0,0,0-.65-.38l-.76-.35a4.83,4.83,0,0,1-.45-.23,1.56,1.56,0,0,1-.39-.38,1,1,0,0,1-.17-.6,1.06,1.06,0,0,1,.4-.86,1.51,1.51,0,0,1,1-.33,1.67,1.67,0,0,1,.79.18,1.89,1.89,0,0,1,.56.41l-.15.16a1.52,1.52,0,0,0-.52-.38,1.51,1.51,0,0,0-.68-.14,1.24,1.24,0,0,0-.84.26.84.84,0,0,0-.32.68.78.78,0,0,0,.3.68,4.52,4.52,0,0,0,.57.33l.77.34a3.61,3.61,0,0,1,.73.46,1.09,1.09,0,0,1,.32.85,1.21,1.21,0,0,1-.43.93A1.61,1.61,0,0,1,162,56.71Z"/><path class="cls-21" d="M165.85,56.71a1.49,1.49,0,0,1-1.12-.49,1.9,1.9,0,0,1-.47-1.38,1.93,1.93,0,0,1,.47-1.4,1.49,1.49,0,0,1,1.12-.49,1.47,1.47,0,0,1,1.11.49,1.93,1.93,0,0,1,.48,1.4,1.9,1.9,0,0,1-.48,1.38A1.47,1.47,0,0,1,165.85,56.71Zm0-.21a1.2,1.2,0,0,0,1-.46,2.06,2.06,0,0,0,0-2.41,1.22,1.22,0,0,0-1.92,0,2.06,2.06,0,0,0,0,2.41A1.2,1.2,0,0,0,165.85,56.5Z"/><path class="cls-21" d="M169.58,56.71c-.72,0-1.08-.45-1.08-1.36V53h.23v2.28a1.54,1.54,0,0,0,.2.89.76.76,0,0,0,.67.29,1,1,0,0,0,.61-.19,3,3,0,0,0,.62-.59V53h.22v3.58h-.19l0-.61h0a2.91,2.91,0,0,1-.56.51A1.19,1.19,0,0,1,169.58,56.71Z"/><path class="cls-21" d="M172.49,56.62V53h.2l0,.67h0a2,2,0,0,1,.44-.55.88.88,0,0,1,.58-.21.78.78,0,0,1,.35.07l-.06.21a.91.91,0,0,0-.32-.06.83.83,0,0,0-.52.22,1.75,1.75,0,0,0-.48.74v2.49Z"/><path class="cls-21" d="M176,56.71a1.51,1.51,0,0,1-1.15-.49,2,2,0,0,1-.45-1.38,1.93,1.93,0,0,1,.48-1.4A1.5,1.5,0,0,1,176,53a1.16,1.16,0,0,1,.62.14,2.07,2.07,0,0,1,.43.31l-.15.16a1.91,1.91,0,0,0-.4-.28,1,1,0,0,0-.5-.12,1.21,1.21,0,0,0-1,.47,1.81,1.81,0,0,0-.39,1.21A1.85,1.85,0,0,0,175,56a1.2,1.2,0,0,0,1,.46,1.18,1.18,0,0,0,.56-.13,1.77,1.77,0,0,0,.45-.3l.13.16a2,2,0,0,1-.51.34A1.33,1.33,0,0,1,176,56.71Z"/><path class="cls-21" d="M179.26,56.71a1.53,1.53,0,0,1-1.16-.5,1.89,1.89,0,0,1-.48-1.37,2,2,0,0,1,.47-1.39,1.48,1.48,0,0,1,1.08-.5,1.24,1.24,0,0,1,1,.42,1.88,1.88,0,0,1,.37,1.23v.11a.69.69,0,0,1,0,.13h-2.64a1.86,1.86,0,0,0,.38,1.19,1.28,1.28,0,0,0,1,.47,1.53,1.53,0,0,0,.54-.09,1.61,1.61,0,0,0,.45-.24l.11.2-.46.23A1.69,1.69,0,0,1,179.26,56.71Zm-1.4-2.08h2.43a1.65,1.65,0,0,0-.31-1.11,1,1,0,0,0-.81-.36,1.2,1.2,0,0,0-.87.39A1.72,1.72,0,0,0,177.86,54.63Z"/><path class="cls-21" d="M182.62,56.62v-.15a23.93,23.93,0,0,0,1.8-2,2.36,2.36,0,0,0,.6-1.41,1.2,1.2,0,0,0-.27-.79,1,1,0,0,0-.83-.32,1.18,1.18,0,0,0-.63.18,1.93,1.93,0,0,0-.52.47l-.17-.15a2.74,2.74,0,0,1,.58-.5,1.38,1.38,0,0,1,.76-.21,1.28,1.28,0,0,1,1,.36,1.33,1.33,0,0,1,.35,1,2.47,2.47,0,0,1-.62,1.51c-.42.51-1,1.14-1.68,1.88l.41,0h2.13v.21Z"/><path class="cls-21" d="M158.39,65.62v-5h.24v2.21h2.78V60.67h.24v5h-.24V63.09h-2.78v2.53Z"/><path class="cls-21" d="M164.44,65.71a1.53,1.53,0,0,1-1.16-.5,1.89,1.89,0,0,1-.48-1.37,2,2,0,0,1,.47-1.39,1.48,1.48,0,0,1,1.08-.5,1.24,1.24,0,0,1,1,.42,1.88,1.88,0,0,1,.37,1.23v.11a.69.69,0,0,1,0,.13H163a1.86,1.86,0,0,0,.38,1.19,1.28,1.28,0,0,0,1,.47,1.53,1.53,0,0,0,.54-.09,1.61,1.61,0,0,0,.45-.24l.11.2-.46.23A1.69,1.69,0,0,1,164.44,65.71ZM163,63.63h2.43a1.65,1.65,0,0,0-.31-1.11,1,1,0,0,0-.81-.36,1.2,1.2,0,0,0-.87.39A1.72,1.72,0,0,0,163,63.63Z"/><path class="cls-21" d="M166.7,65.62V62h.2l0,.67h0a2,2,0,0,1,.44-.55A.88.88,0,0,1,168,62a.78.78,0,0,1,.35.07l-.06.21a.91.91,0,0,0-.32-.06.83.83,0,0,0-.52.22,1.75,1.75,0,0,0-.48.74v2.49Z"/><path class="cls-21" d="M170.24,65.71a1.51,1.51,0,0,1-1.15-.5,1.89,1.89,0,0,1-.48-1.37,1.94,1.94,0,0,1,.47-1.39,1.44,1.44,0,0,1,1.07-.5,1.23,1.23,0,0,1,1,.42,1.83,1.83,0,0,1,.37,1.23v.11a.62.62,0,0,1,0,.13h-2.65a1.81,1.81,0,0,0,.39,1.19,1.26,1.26,0,0,0,1,.47,1.53,1.53,0,0,0,.54-.09,2,2,0,0,0,.45-.24l.1.2c-.13.08-.29.15-.45.23A1.75,1.75,0,0,1,170.24,65.71Zm-1.4-2.08h2.44a1.71,1.71,0,0,0-.31-1.11,1,1,0,0,0-.82-.36,1.17,1.17,0,0,0-.86.39A1.73,1.73,0,0,0,168.84,63.63Z"/><path class="cls-21" d="M234.59,47.92V43h1.19a2.38,2.38,0,0,1,1.3.3,1.18,1.18,0,0,1,.47,1,1.28,1.28,0,0,1-.46,1.06,2.07,2.07,0,0,1-1.28.35h-1v2.19Zm.24-2.4h.89a2,2,0,0,0,1.18-.28,1,1,0,0,0,.39-.92,1,1,0,0,0-.4-.89,2.24,2.24,0,0,0-1.2-.25h-.86Z"/><path class="cls-21" d="M239,48q-.36,0-.36-.48v-5h.22v5.07c0,.15.05.22.15.22h.14l0,.19-.09,0Z"/><path class="cls-21" d="M241.12,48a1.14,1.14,0,0,1-.73-.23.85.85,0,0,1-.31-.74,1,1,0,0,1,.57-.91,5.31,5.31,0,0,1,1.79-.44,2.78,2.78,0,0,0-.06-.58,1,1,0,0,0-.26-.47.81.81,0,0,0-.57-.18,1.55,1.55,0,0,0-.69.15,2.44,2.44,0,0,0-.48.28l-.12-.18a3.11,3.11,0,0,1,.52-.29,1.7,1.7,0,0,1,.79-.17.91.91,0,0,1,.86.4,1.94,1.94,0,0,1,.23,1v2.32h-.19l0-.48h0a4.28,4.28,0,0,1-.61.4A1.53,1.53,0,0,1,241.12,48Zm0-.21a1.35,1.35,0,0,0,.64-.16,3.56,3.56,0,0,0,.67-.45V45.88a4.6,4.6,0,0,0-1.65.41.86.86,0,0,0-.47.75.68.68,0,0,0,.24.59A1,1,0,0,0,241.13,47.8Z"/><path class="cls-21" d="M245.29,48a1.49,1.49,0,0,1-1.15-.49,2.29,2.29,0,0,1,0-2.78,1.52,1.52,0,0,1,1.13-.49,1.19,1.19,0,0,1,.62.14,2.37,2.37,0,0,1,.43.31l-.15.16a2.21,2.21,0,0,0-.4-.28,1,1,0,0,0-.5-.12,1.2,1.2,0,0,0-1,.47,1.77,1.77,0,0,0-.4,1.21,1.85,1.85,0,0,0,.38,1.2,1.2,1.2,0,0,0,1,.46,1.14,1.14,0,0,0,.55-.13,1.77,1.77,0,0,0,.45-.3l.14.16a2,2,0,0,1-.51.34A1.33,1.33,0,0,1,245.29,48Z"/><path class="cls-21" d="M248.54,48a1.51,1.51,0,0,1-1.15-.5,1.89,1.89,0,0,1-.48-1.37,1.94,1.94,0,0,1,.47-1.39,1.44,1.44,0,0,1,1.07-.5,1.23,1.23,0,0,1,1,.42,1.83,1.83,0,0,1,.37,1.23V46a.62.62,0,0,1,0,.13h-2.64a1.81,1.81,0,0,0,.38,1.19,1.26,1.26,0,0,0,1,.47,1.53,1.53,0,0,0,.54-.09,2,2,0,0,0,.45-.24l.1.2c-.13.08-.29.15-.45.23A1.75,1.75,0,0,1,248.54,48Zm-1.39-2.08h2.43a1.71,1.71,0,0,0-.31-1.11,1,1,0,0,0-.82-.36,1.17,1.17,0,0,0-.86.39A1.67,1.67,0,0,0,247.15,45.93Z"/><path class="cls-21" d="M222.34,56.92V52h.24v4.74h2.32v.21Z"/><path class="cls-21" d="M225.88,52.42a.24.24,0,0,1-.18-.07.25.25,0,0,1-.08-.18.26.26,0,0,1,.44-.19.24.24,0,0,1,.07.19.24.24,0,0,1-.25.25Zm-.12,4.5V53.34H226v3.58Z"/><path class="cls-21" d="M228.58,58.68a1.87,1.87,0,0,1-1.08-.28.86.86,0,0,1-.39-.73.92.92,0,0,1,.14-.47,1.42,1.42,0,0,1,.4-.41v0a.69.69,0,0,1-.23-.22.68.68,0,0,1-.09-.35.64.64,0,0,1,.14-.42,1.35,1.35,0,0,1,.25-.24v0a1.75,1.75,0,0,1-.31-.41,1.29,1.29,0,0,1,.22-1.48,1.19,1.19,0,0,1,.87-.36,1.12,1.12,0,0,1,.27,0l.2.06h1.2v.21h-.87a1.09,1.09,0,0,1,.31.41,1.23,1.23,0,0,1,.12.55,1.25,1.25,0,0,1-.35.9,1.16,1.16,0,0,1-.88.37,1.11,1.11,0,0,1-.61-.16,1.2,1.2,0,0,0-.22.23.47.47,0,0,0-.1.32.5.5,0,0,0,.14.35.81.81,0,0,0,.57.15h.79c.77,0,1.16.27,1.16.81a1.06,1.06,0,0,1-.45.82A1.82,1.82,0,0,1,228.58,58.68Zm0-.21a1.59,1.59,0,0,0,1-.31.89.89,0,0,0,.38-.67c0-.39-.29-.58-.87-.58h-.83l-.16,0-.27,0a1.2,1.2,0,0,0-.39.39.84.84,0,0,0-.12.42.66.66,0,0,0,.32.58A1.58,1.58,0,0,0,228.59,58.47Zm-.09-2.9a1,1,0,0,0,.69-.3,1,1,0,0,0,.3-.76,1,1,0,0,0-.29-.77,1,1,0,0,0-1.4,0,1,1,0,0,0-.29.77,1,1,0,0,0,.3.76A1,1,0,0,0,228.5,55.57Z"/><path class="cls-21" d="M231.25,54.18v2.74H231V51.51h.23v2.41a3.19,3.19,0,0,1,.59-.48,1.17,1.17,0,0,1,.67-.19c.72,0,1.08.45,1.08,1.36v2.31h-.23V54.64a1.6,1.6,0,0,0-.2-.89.75.75,0,0,0-.67-.29,1.15,1.15,0,0,0-.62.18A3.49,3.49,0,0,0,231.25,54.18Z"/><path class="cls-21" d="M235.85,57a.72.72,0,0,1-.67-.28A1.49,1.49,0,0,1,235,56V53.55h-.57v-.18l.57,0,0-1.05h.2v1.05h1.06v.21h-1.06V56a1.2,1.2,0,0,0,.12.57c.08.15.25.22.51.22a.7.7,0,0,0,.23,0l.23-.08.08.2a1.92,1.92,0,0,1-.32.09A.85.85,0,0,1,235.85,57Z"/><path class="cls-21" d="M240,57a2.06,2.06,0,0,1-1-.21,2.3,2.3,0,0,1-.69-.54l.17-.16a2,2,0,0,0,.65.5,1.91,1.91,0,0,0,.83.19,1.41,1.41,0,0,0,.95-.3,1,1,0,0,0,.36-.77A.85.85,0,0,0,241,55a2.71,2.71,0,0,0-.65-.38l-.76-.35a3.35,3.35,0,0,1-.45-.24,1.37,1.37,0,0,1-.39-.37,1,1,0,0,1-.17-.6,1.06,1.06,0,0,1,.4-.86,1.51,1.51,0,0,1,1-.33,1.67,1.67,0,0,1,.79.18,1.89,1.89,0,0,1,.56.41l-.15.16a1.52,1.52,0,0,0-.52-.38,1.51,1.51,0,0,0-.68-.14,1.24,1.24,0,0,0-.84.26.84.84,0,0,0-.32.68.78.78,0,0,0,.3.68,4.52,4.52,0,0,0,.57.33l.77.34a3.61,3.61,0,0,1,.73.46,1.09,1.09,0,0,1,.32.85,1.21,1.21,0,0,1-.43.93A1.61,1.61,0,0,1,240,57Z"/><path class="cls-21" d="M243.85,57a1.49,1.49,0,0,1-1.12-.49,1.9,1.9,0,0,1-.47-1.38,1.93,1.93,0,0,1,.47-1.4,1.49,1.49,0,0,1,1.12-.49,1.47,1.47,0,0,1,1.11.49,1.93,1.93,0,0,1,.48,1.4,1.9,1.9,0,0,1-.48,1.38A1.47,1.47,0,0,1,243.85,57Zm0-.21a1.2,1.2,0,0,0,1-.46,2.06,2.06,0,0,0,0-2.41,1.22,1.22,0,0,0-1.92,0,2.06,2.06,0,0,0,0,2.41A1.2,1.2,0,0,0,243.85,56.8Z"/><path class="cls-21" d="M247.58,57c-.72,0-1.08-.45-1.08-1.36V53.34h.23v2.28a1.54,1.54,0,0,0,.2.89.76.76,0,0,0,.67.29,1,1,0,0,0,.61-.19,3,3,0,0,0,.62-.59V53.34h.22v3.58h-.19l0-.61h0a2.91,2.91,0,0,1-.56.51A1.19,1.19,0,0,1,247.58,57Z"/><path class="cls-21" d="M250.49,56.92V53.34h.2l0,.67h0a2,2,0,0,1,.44-.55.88.88,0,0,1,.58-.21.78.78,0,0,1,.35.07l-.06.21a.91.91,0,0,0-.32-.06.83.83,0,0,0-.52.22,1.75,1.75,0,0,0-.48.74v2.49Z"/><path class="cls-21" d="M254,57a1.51,1.51,0,0,1-1.15-.49,2,2,0,0,1-.45-1.38,1.93,1.93,0,0,1,.48-1.4,1.5,1.5,0,0,1,1.12-.49,1.16,1.16,0,0,1,.62.14,2.07,2.07,0,0,1,.43.31l-.15.16a1.91,1.91,0,0,0-.4-.28,1,1,0,0,0-.5-.12,1.21,1.21,0,0,0-1,.47,1.81,1.81,0,0,0-.39,1.21,1.85,1.85,0,0,0,.37,1.2,1.2,1.2,0,0,0,1,.46,1.18,1.18,0,0,0,.56-.13,1.77,1.77,0,0,0,.45-.3l.13.16a2,2,0,0,1-.51.34A1.33,1.33,0,0,1,254,57Z"/><path class="cls-21" d="M257.26,57a1.53,1.53,0,0,1-1.16-.5,1.89,1.89,0,0,1-.48-1.37,2,2,0,0,1,.47-1.39,1.48,1.48,0,0,1,1.08-.5,1.24,1.24,0,0,1,1,.42,1.88,1.88,0,0,1,.37,1.23V55a.69.69,0,0,1,0,.13h-2.64a1.86,1.86,0,0,0,.38,1.19,1.28,1.28,0,0,0,1,.47,1.53,1.53,0,0,0,.54-.09,1.61,1.61,0,0,0,.45-.24l.11.2c-.14.08-.29.15-.46.23A1.69,1.69,0,0,1,257.26,57Zm-1.4-2.08h2.43a1.65,1.65,0,0,0-.31-1.11,1,1,0,0,0-.81-.36,1.2,1.2,0,0,0-.87.39A1.72,1.72,0,0,0,255.86,54.93Z"/><path class="cls-21" d="M262,57a1.73,1.73,0,0,1-.93-.22,2.7,2.7,0,0,1-.57-.45l.15-.17a2.28,2.28,0,0,0,.52.44,1.63,1.63,0,0,0,.84.19,1.16,1.16,0,0,0,.84-.31,1.13,1.13,0,0,0-.07-1.66,2.17,2.17,0,0,0-1.32-.32v-.23a1.78,1.78,0,0,0,1.2-.32,1,1,0,0,0,.34-.77.88.88,0,0,0-.28-.69,1,1,0,0,0-.74-.26,1.28,1.28,0,0,0-.63.16,1.69,1.69,0,0,0-.49.38l-.15-.16a2.79,2.79,0,0,1,.54-.42A1.54,1.54,0,0,1,262,52a1.35,1.35,0,0,1,.89.3,1,1,0,0,1,.37.84A1.12,1.12,0,0,1,263,54a1.53,1.53,0,0,1-.66.42v0a1.5,1.5,0,0,1,.78.42,1.14,1.14,0,0,1,.33.84,1.25,1.25,0,0,1-.41,1A1.43,1.43,0,0,1,262,57Z"/><path class="cls-21" d="M236.39,65.92V61h.24v2.21h2.78V61h.24v5h-.24V63.39h-2.78v2.53Z"/><path class="cls-21" d="M242.44,66a1.53,1.53,0,0,1-1.16-.5,1.89,1.89,0,0,1-.48-1.37,2,2,0,0,1,.47-1.39,1.48,1.48,0,0,1,1.08-.5,1.24,1.24,0,0,1,1,.42,1.88,1.88,0,0,1,.37,1.23V64a.69.69,0,0,1,0,.13H241a1.86,1.86,0,0,0,.38,1.19,1.28,1.28,0,0,0,1,.47,1.53,1.53,0,0,0,.54-.09,1.61,1.61,0,0,0,.45-.24l.11.2-.46.23A1.69,1.69,0,0,1,242.44,66ZM241,63.93h2.43a1.65,1.65,0,0,0-.31-1.11,1,1,0,0,0-.81-.36,1.2,1.2,0,0,0-.87.39A1.72,1.72,0,0,0,241,63.93Z"/><path class="cls-21" d="M244.7,65.92V62.34h.2l0,.67h0a2,2,0,0,1,.44-.55.88.88,0,0,1,.58-.21.78.78,0,0,1,.35.07l-.06.21a.91.91,0,0,0-.32-.06.83.83,0,0,0-.52.22,1.75,1.75,0,0,0-.48.74v2.49Z"/><path class="cls-21" d="M248.24,66a1.51,1.51,0,0,1-1.15-.5,1.89,1.89,0,0,1-.48-1.37,1.94,1.94,0,0,1,.47-1.39,1.44,1.44,0,0,1,1.07-.5,1.23,1.23,0,0,1,1,.42,1.83,1.83,0,0,1,.37,1.23V64a.62.62,0,0,1,0,.13h-2.65a1.81,1.81,0,0,0,.39,1.19,1.26,1.26,0,0,0,1,.47,1.53,1.53,0,0,0,.54-.09,2,2,0,0,0,.45-.24l.1.2c-.13.08-.29.15-.45.23A1.75,1.75,0,0,1,248.24,66Zm-1.4-2.08h2.44a1.71,1.71,0,0,0-.31-1.11,1,1,0,0,0-.82-.36,1.17,1.17,0,0,0-.86.39A1.73,1.73,0,0,0,246.84,63.93Z"/><path class="cls-21" d="M312.59,48.22V43.27h1.19a2.29,2.29,0,0,1,1.3.31,1.15,1.15,0,0,1,.47,1,1.28,1.28,0,0,1-.46,1.06,2.07,2.07,0,0,1-1.28.35h-1v2.19Zm.24-2.4h.89a2,2,0,0,0,1.18-.28,1,1,0,0,0,.39-.92,1,1,0,0,0-.4-.89,2.24,2.24,0,0,0-1.2-.25h-.86Z"/><path class="cls-21" d="M317,48.31q-.36,0-.36-.48v-5h.22v5.07c0,.15,0,.22.15.22h.14l0,.19-.09,0Z"/><path class="cls-21" d="M319.12,48.31a1.14,1.14,0,0,1-.73-.23.85.85,0,0,1-.31-.74,1,1,0,0,1,.57-.91,5.31,5.31,0,0,1,1.79-.44,2.78,2.78,0,0,0-.06-.58,1,1,0,0,0-.26-.47.81.81,0,0,0-.57-.18,1.55,1.55,0,0,0-.69.15,2.44,2.44,0,0,0-.48.28l-.12-.18a3.11,3.11,0,0,1,.52-.29,1.7,1.7,0,0,1,.79-.17.91.91,0,0,1,.86.4,1.94,1.94,0,0,1,.23.95v2.32h-.19l0-.48h0a4.28,4.28,0,0,1-.61.4A1.53,1.53,0,0,1,319.12,48.31Zm0-.21a1.35,1.35,0,0,0,.64-.16,3.56,3.56,0,0,0,.67-.45V46.18a4.6,4.6,0,0,0-1.65.41.86.86,0,0,0-.47.75.68.68,0,0,0,.24.59A1,1,0,0,0,319.13,48.1Z"/><path class="cls-21" d="M323.29,48.31a1.49,1.49,0,0,1-1.15-.49,2.29,2.29,0,0,1,0-2.78,1.52,1.52,0,0,1,1.13-.49,1.19,1.19,0,0,1,.62.14,2.37,2.37,0,0,1,.43.31l-.15.16a2.21,2.21,0,0,0-.4-.28,1,1,0,0,0-.5-.12,1.2,1.2,0,0,0-1,.47,1.77,1.77,0,0,0-.4,1.21,1.85,1.85,0,0,0,.38,1.2,1.2,1.2,0,0,0,1,.46,1.14,1.14,0,0,0,.55-.13,1.77,1.77,0,0,0,.45-.3l.14.16a2,2,0,0,1-.51.34A1.33,1.33,0,0,1,323.29,48.31Z"/><path class="cls-21" d="M326.54,48.31a1.51,1.51,0,0,1-1.15-.5,1.89,1.89,0,0,1-.48-1.37,1.94,1.94,0,0,1,.47-1.39,1.44,1.44,0,0,1,1.07-.5,1.23,1.23,0,0,1,1,.42,1.83,1.83,0,0,1,.37,1.23v.11a.62.62,0,0,1,0,.13h-2.64a1.81,1.81,0,0,0,.38,1.19,1.26,1.26,0,0,0,1,.47,1.53,1.53,0,0,0,.54-.09,2,2,0,0,0,.45-.24l.1.2c-.13.08-.29.15-.45.23A1.75,1.75,0,0,1,326.54,48.31Zm-1.39-2.08h2.43a1.71,1.71,0,0,0-.31-1.11,1,1,0,0,0-.82-.36,1.17,1.17,0,0,0-.86.39A1.67,1.67,0,0,0,325.15,46.23Z"/><path class="cls-21" d="M300.34,57.22V52.27h.24V57h2.32v.21Z"/><path class="cls-21" d="M303.88,52.72a.24.24,0,0,1-.18-.07.25.25,0,0,1-.08-.18.26.26,0,0,1,.44-.19.24.24,0,0,1,.07.19.24.24,0,0,1-.25.25Zm-.12,4.5V53.64H304v3.58Z"/><path class="cls-21" d="M306.58,59a1.87,1.87,0,0,1-1.08-.28.86.86,0,0,1-.39-.73.92.92,0,0,1,.14-.47,1.42,1.42,0,0,1,.4-.41v0a.69.69,0,0,1-.23-.22.68.68,0,0,1-.09-.35.64.64,0,0,1,.14-.42,1.35,1.35,0,0,1,.25-.24v0a1.75,1.75,0,0,1-.31-.41,1.29,1.29,0,0,1,.22-1.48,1.19,1.19,0,0,1,.87-.36,1.12,1.12,0,0,1,.27,0l.2.06h1.2v.21h-.87a1.09,1.09,0,0,1,.31.41,1.23,1.23,0,0,1,.12.55,1.25,1.25,0,0,1-.35.9,1.16,1.16,0,0,1-.88.37,1.11,1.11,0,0,1-.61-.16,1.2,1.2,0,0,0-.22.23.47.47,0,0,0-.1.32.5.5,0,0,0,.14.35.81.81,0,0,0,.57.15h.79c.77,0,1.16.27,1.16.81a1.06,1.06,0,0,1-.45.82A1.82,1.82,0,0,1,306.58,59Zm0-.21a1.59,1.59,0,0,0,1-.31.89.89,0,0,0,.38-.67c0-.39-.29-.58-.87-.58h-.83l-.16,0-.27,0a1.2,1.2,0,0,0-.39.39.84.84,0,0,0-.12.42.66.66,0,0,0,.32.58A1.58,1.58,0,0,0,306.59,58.77Zm-.09-2.9a1,1,0,0,0,.69-.29,1.15,1.15,0,0,0,0-1.54,1,1,0,0,0-1.4,0,1.15,1.15,0,0,0,0,1.54A1,1,0,0,0,306.5,55.87Z"/><path class="cls-21" d="M309.25,54.48v2.74H309V51.81h.23v2.41a3.66,3.66,0,0,1,.59-.48,1.17,1.17,0,0,1,.67-.19c.72,0,1.08.45,1.08,1.36v2.31h-.23V54.94a1.6,1.6,0,0,0-.2-.89.75.75,0,0,0-.67-.29,1.15,1.15,0,0,0-.62.18A3.49,3.49,0,0,0,309.25,54.48Z"/><path class="cls-21" d="M313.85,57.31a.72.72,0,0,1-.67-.28,1.49,1.49,0,0,1-.17-.75V53.85h-.57v-.18l.57,0,0-1h.2v1h1.06v.21h-1.06v2.46a1.2,1.2,0,0,0,.12.57c.08.15.25.22.51.22a.7.7,0,0,0,.23,0l.23-.08.08.2a1.92,1.92,0,0,1-.32.09A.85.85,0,0,1,313.85,57.31Z"/><path class="cls-21" d="M318,57.31a2.06,2.06,0,0,1-1-.21,2.3,2.3,0,0,1-.69-.54l.17-.16a2,2,0,0,0,.65.5,1.91,1.91,0,0,0,.83.19,1.41,1.41,0,0,0,.95-.3,1,1,0,0,0,.36-.77.85.85,0,0,0-.27-.71,2.71,2.71,0,0,0-.65-.38l-.76-.35a4.83,4.83,0,0,1-.45-.23,1.56,1.56,0,0,1-.39-.38,1,1,0,0,1-.17-.6,1.06,1.06,0,0,1,.4-.86,1.51,1.51,0,0,1,1-.33,1.67,1.67,0,0,1,.79.18,1.89,1.89,0,0,1,.56.41l-.15.16a1.52,1.52,0,0,0-.52-.38,1.51,1.51,0,0,0-.68-.14,1.24,1.24,0,0,0-.84.26.84.84,0,0,0-.32.68.78.78,0,0,0,.3.68,4.52,4.52,0,0,0,.57.33l.77.34a3.61,3.61,0,0,1,.73.46,1.09,1.09,0,0,1,.32.85,1.21,1.21,0,0,1-.43.93A1.61,1.61,0,0,1,318,57.31Z"/><path class="cls-21" d="M321.85,57.31a1.49,1.49,0,0,1-1.12-.49,1.9,1.9,0,0,1-.47-1.38,1.93,1.93,0,0,1,.47-1.4,1.49,1.49,0,0,1,1.12-.49A1.47,1.47,0,0,1,323,54a1.93,1.93,0,0,1,.48,1.4,1.9,1.9,0,0,1-.48,1.38A1.47,1.47,0,0,1,321.85,57.31Zm0-.21a1.2,1.2,0,0,0,1-.46,2.06,2.06,0,0,0,0-2.41,1.22,1.22,0,0,0-1.92,0,2.06,2.06,0,0,0,0,2.41A1.2,1.2,0,0,0,321.85,57.1Z"/><path class="cls-21" d="M325.58,57.31c-.72,0-1.08-.45-1.08-1.36V53.64h.23v2.28a1.54,1.54,0,0,0,.2.89.76.76,0,0,0,.67.29,1,1,0,0,0,.61-.19,3,3,0,0,0,.62-.59V53.64h.22v3.58h-.19l0-.61h0a2.91,2.91,0,0,1-.56.51A1.19,1.19,0,0,1,325.58,57.31Z"/><path class="cls-21" d="M328.49,57.22V53.64h.2l0,.67h0a2,2,0,0,1,.44-.55.88.88,0,0,1,.58-.21.78.78,0,0,1,.35.07l-.06.21a.91.91,0,0,0-.32-.06.83.83,0,0,0-.52.22,1.75,1.75,0,0,0-.48.74v2.49Z"/><path class="cls-21" d="M332,57.31a1.51,1.51,0,0,1-1.15-.49,2,2,0,0,1-.45-1.38,1.93,1.93,0,0,1,.48-1.4,1.5,1.5,0,0,1,1.12-.49,1.16,1.16,0,0,1,.62.14,2.07,2.07,0,0,1,.43.31l-.15.16a1.91,1.91,0,0,0-.4-.28,1,1,0,0,0-.5-.12,1.21,1.21,0,0,0-1,.47,1.81,1.81,0,0,0-.39,1.21,1.85,1.85,0,0,0,.37,1.2,1.2,1.2,0,0,0,1,.46,1.18,1.18,0,0,0,.56-.13,1.77,1.77,0,0,0,.45-.3l.13.16a2,2,0,0,1-.51.34A1.33,1.33,0,0,1,332,57.31Z"/><path class="cls-21" d="M335.26,57.31a1.53,1.53,0,0,1-1.16-.5,1.89,1.89,0,0,1-.48-1.37,2,2,0,0,1,.47-1.39,1.48,1.48,0,0,1,1.08-.5,1.24,1.24,0,0,1,1,.42,1.88,1.88,0,0,1,.37,1.23v.11a.69.69,0,0,1,0,.13h-2.64a1.86,1.86,0,0,0,.38,1.19,1.28,1.28,0,0,0,1,.47,1.53,1.53,0,0,0,.54-.09,1.61,1.61,0,0,0,.45-.24l.11.2-.46.23A1.69,1.69,0,0,1,335.26,57.31Zm-1.4-2.08h2.43a1.65,1.65,0,0,0-.31-1.11,1,1,0,0,0-.81-.36,1.2,1.2,0,0,0-.87.39A1.72,1.72,0,0,0,333.86,55.23Z"/><path class="cls-21" d="M341.6,55.75h-.73v1.47h-.23V55.75h-2.22v-.12l2.3-3.21h.15v3.12h.73Zm-2.86-.21h1.9V53.65c0-.1,0-.24,0-.4a3.84,3.84,0,0,1,0-.39h0a2.75,2.75,0,0,1-.19.28l-.2.29Z"/><path class="cls-21" d="M314.39,66.22V61.27h.24v2.21h2.78V61.27h.24v4.95h-.24V63.69h-2.78v2.53Z"/><path class="cls-21" d="M320.44,66.31a1.53,1.53,0,0,1-1.16-.5,1.89,1.89,0,0,1-.48-1.37,2,2,0,0,1,.47-1.39,1.48,1.48,0,0,1,1.08-.5,1.24,1.24,0,0,1,1,.42,1.88,1.88,0,0,1,.37,1.23v.11a.69.69,0,0,1,0,.13H319a1.86,1.86,0,0,0,.38,1.19,1.28,1.28,0,0,0,1,.47A1.53,1.53,0,0,0,321,66a1.61,1.61,0,0,0,.45-.24l.11.2c-.14.08-.29.15-.46.23A1.69,1.69,0,0,1,320.44,66.31ZM319,64.23h2.43a1.65,1.65,0,0,0-.31-1.11,1,1,0,0,0-.81-.36,1.2,1.2,0,0,0-.87.39A1.72,1.72,0,0,0,319,64.23Z"/><path class="cls-21" d="M322.7,66.22V62.64h.2l0,.67h0a2,2,0,0,1,.44-.55.88.88,0,0,1,.58-.21.78.78,0,0,1,.35.07l-.06.21a.91.91,0,0,0-.32-.06.83.83,0,0,0-.52.22,1.75,1.75,0,0,0-.48.74v2.49Z"/><path class="cls-21" d="M326.24,66.31a1.51,1.51,0,0,1-1.15-.5,1.89,1.89,0,0,1-.48-1.37,1.94,1.94,0,0,1,.47-1.39,1.44,1.44,0,0,1,1.07-.5,1.23,1.23,0,0,1,1,.42,1.83,1.83,0,0,1,.37,1.23v.11a.62.62,0,0,1,0,.13h-2.65a1.81,1.81,0,0,0,.39,1.19,1.26,1.26,0,0,0,1,.47,1.53,1.53,0,0,0,.54-.09,2,2,0,0,0,.45-.24l.1.2c-.13.08-.29.15-.45.23A1.75,1.75,0,0,1,326.24,66.31Zm-1.4-2.08h2.44a1.71,1.71,0,0,0-.31-1.11,1,1,0,0,0-.82-.36,1.17,1.17,0,0,0-.86.39A1.73,1.73,0,0,0,324.84,64.23Z"/><path class="cls-21" d="M389.09,47v-5h1.19a2.38,2.38,0,0,1,1.3.3,1.18,1.18,0,0,1,.47,1.05,1.28,1.28,0,0,1-.46,1.06,2.07,2.07,0,0,1-1.28.35h-1V47Zm.24-2.4h.89a2,2,0,0,0,1.18-.28,1,1,0,0,0,.39-.92,1,1,0,0,0-.4-.89,2.24,2.24,0,0,0-1.2-.25h-.86Z"/><path class="cls-21" d="M393.49,47.11q-.36,0-.36-.48v-5h.22v5.07c0,.15,0,.22.15.22h.14l0,.19-.09,0Z"/><path class="cls-21" d="M395.62,47.11a1.14,1.14,0,0,1-.73-.23.85.85,0,0,1-.31-.74,1,1,0,0,1,.57-.91,5.31,5.31,0,0,1,1.79-.44,2.78,2.78,0,0,0-.06-.58,1,1,0,0,0-.26-.47.81.81,0,0,0-.57-.18,1.55,1.55,0,0,0-.69.15,2.44,2.44,0,0,0-.48.28l-.12-.18a3.11,3.11,0,0,1,.52-.29,1.7,1.7,0,0,1,.79-.17.91.91,0,0,1,.86.4,1.94,1.94,0,0,1,.23,1V47H397l0-.48h0a4.28,4.28,0,0,1-.61.4A1.53,1.53,0,0,1,395.62,47.11Zm0-.21a1.35,1.35,0,0,0,.64-.16,3.56,3.56,0,0,0,.67-.45V45a4.6,4.6,0,0,0-1.65.41.86.86,0,0,0-.47.75.68.68,0,0,0,.24.59A1,1,0,0,0,395.63,46.9Z"/><path class="cls-21" d="M399.79,47.11a1.49,1.49,0,0,1-1.15-.49,2.29,2.29,0,0,1,0-2.78,1.52,1.52,0,0,1,1.13-.49,1.19,1.19,0,0,1,.62.14,2.37,2.37,0,0,1,.43.31l-.15.16a2.21,2.21,0,0,0-.4-.28,1,1,0,0,0-.5-.12,1.2,1.2,0,0,0-1,.47,1.77,1.77,0,0,0-.4,1.21,1.85,1.85,0,0,0,.38,1.2,1.2,1.2,0,0,0,1,.46,1.14,1.14,0,0,0,.55-.13,1.77,1.77,0,0,0,.45-.3l.14.16a2,2,0,0,1-.51.34A1.33,1.33,0,0,1,399.79,47.11Z"/><path class="cls-21" d="M403,47.11a1.51,1.51,0,0,1-1.15-.5,1.89,1.89,0,0,1-.48-1.37,1.94,1.94,0,0,1,.47-1.39,1.44,1.44,0,0,1,1.07-.5,1.23,1.23,0,0,1,1,.42A1.83,1.83,0,0,1,404.3,45v.11a.62.62,0,0,1,0,.13h-2.64a1.81,1.81,0,0,0,.38,1.19,1.26,1.26,0,0,0,1,.47,1.53,1.53,0,0,0,.54-.09,2,2,0,0,0,.45-.24l.1.2c-.13.08-.29.15-.45.23A1.75,1.75,0,0,1,403,47.11ZM401.65,45h2.43a1.71,1.71,0,0,0-.31-1.11,1,1,0,0,0-.82-.36,1.17,1.17,0,0,0-.86.39A1.67,1.67,0,0,0,401.65,45Z"/><path class="cls-21" d="M376.84,56v-5h.24v4.74h2.32V56Z"/><path class="cls-21" d="M380.38,51.52a.24.24,0,0,1-.18-.07.25.25,0,0,1-.08-.18.26.26,0,0,1,.44-.19.24.24,0,0,1,.07.19.24.24,0,0,1-.25.25Zm-.12,4.5V52.44h.22V56Z"/><path class="cls-21" d="M383.08,57.78A1.87,1.87,0,0,1,382,57.5a.86.86,0,0,1-.39-.73.92.92,0,0,1,.14-.47,1.42,1.42,0,0,1,.4-.41v0a.69.69,0,0,1-.23-.22.68.68,0,0,1-.09-.35.64.64,0,0,1,.14-.42,1.35,1.35,0,0,1,.25-.24v0a1.75,1.75,0,0,1-.31-.41,1.29,1.29,0,0,1,.22-1.48,1.19,1.19,0,0,1,.87-.36,1.12,1.12,0,0,1,.27,0l.2.06h1.2v.21h-.87a1.09,1.09,0,0,1,.31.41,1.23,1.23,0,0,1,.12.55,1.25,1.25,0,0,1-.35.9,1.16,1.16,0,0,1-.88.37,1.11,1.11,0,0,1-.61-.16,1.2,1.2,0,0,0-.22.23.47.47,0,0,0-.1.32.5.5,0,0,0,.14.35.81.81,0,0,0,.57.15h.79c.77,0,1.16.27,1.16.81a1.06,1.06,0,0,1-.45.82A1.82,1.82,0,0,1,383.08,57.78Zm0-.21a1.59,1.59,0,0,0,1-.31.89.89,0,0,0,.38-.67c0-.39-.29-.58-.87-.58h-.83l-.16,0-.27,0a1.2,1.2,0,0,0-.39.39.84.84,0,0,0-.12.42.66.66,0,0,0,.32.58A1.58,1.58,0,0,0,383.09,57.57Zm-.09-2.9a1,1,0,0,0,.69-.3,1,1,0,0,0,.3-.76,1,1,0,0,0-.29-.77,1,1,0,0,0-1.4,0,1,1,0,0,0-.29.77,1,1,0,0,0,.3.76A1,1,0,0,0,383,54.67Z"/><path class="cls-21" d="M385.75,53.28V56h-.23V50.61h.23V53a3.66,3.66,0,0,1,.59-.48,1.17,1.17,0,0,1,.67-.19c.72,0,1.08.45,1.08,1.36V56h-.23V53.74a1.6,1.6,0,0,0-.2-.89.75.75,0,0,0-.67-.29,1.15,1.15,0,0,0-.62.18A3.49,3.49,0,0,0,385.75,53.28Z"/><path class="cls-21" d="M390.35,56.11a.72.72,0,0,1-.67-.28,1.49,1.49,0,0,1-.17-.75V52.65h-.57v-.18l.57,0,0-1h.2v1h1.06v.21h-1.06v2.46a1.2,1.2,0,0,0,.12.57c.08.15.25.22.51.22a.7.7,0,0,0,.23,0l.23-.08.08.2a1.92,1.92,0,0,1-.32.09A.85.85,0,0,1,390.35,56.11Z"/><path class="cls-21" d="M394.49,56.11a2.06,2.06,0,0,1-1-.21,2.3,2.3,0,0,1-.69-.54l.17-.16a2,2,0,0,0,.65.5,1.91,1.91,0,0,0,.83.19,1.41,1.41,0,0,0,.95-.3,1,1,0,0,0,.36-.77.85.85,0,0,0-.27-.71,2.71,2.71,0,0,0-.65-.38l-.76-.35a3.35,3.35,0,0,1-.45-.24,1.37,1.37,0,0,1-.39-.37,1,1,0,0,1-.17-.6,1.06,1.06,0,0,1,.4-.86,1.51,1.51,0,0,1,1-.33,1.67,1.67,0,0,1,.79.18,1.89,1.89,0,0,1,.56.41l-.15.16a1.52,1.52,0,0,0-.52-.38,1.51,1.51,0,0,0-.68-.14,1.24,1.24,0,0,0-.84.26.84.84,0,0,0-.32.68.78.78,0,0,0,.3.68,4.52,4.52,0,0,0,.57.33l.77.34a3.61,3.61,0,0,1,.73.46,1.09,1.09,0,0,1,.32.85,1.21,1.21,0,0,1-.43.93A1.61,1.61,0,0,1,394.49,56.11Z"/><path class="cls-21" d="M398.35,56.11a1.49,1.49,0,0,1-1.12-.49,1.9,1.9,0,0,1-.47-1.38,1.93,1.93,0,0,1,.47-1.4,1.49,1.49,0,0,1,1.12-.49,1.47,1.47,0,0,1,1.11.49,1.93,1.93,0,0,1,.48,1.4,1.9,1.9,0,0,1-.48,1.38A1.47,1.47,0,0,1,398.35,56.11Zm0-.21a1.2,1.2,0,0,0,1-.46,2.06,2.06,0,0,0,0-2.41,1.22,1.22,0,0,0-1.92,0,2.06,2.06,0,0,0,0,2.41A1.2,1.2,0,0,0,398.35,55.9Z"/><path class="cls-21" d="M402.08,56.11c-.72,0-1.08-.45-1.08-1.36V52.44h.23v2.28a1.54,1.54,0,0,0,.2.89.76.76,0,0,0,.67.29,1,1,0,0,0,.61-.19,3,3,0,0,0,.62-.59V52.44h.22V56h-.19l0-.61h0a2.91,2.91,0,0,1-.56.51A1.19,1.19,0,0,1,402.08,56.11Z"/><path class="cls-21" d="M405,56V52.44h.2l0,.67h0a2,2,0,0,1,.44-.55.88.88,0,0,1,.58-.21.78.78,0,0,1,.35.07l-.06.21a.91.91,0,0,0-.32-.06.83.83,0,0,0-.52.22,1.75,1.75,0,0,0-.48.74V56Z"/><path class="cls-21" d="M408.5,56.11a1.51,1.51,0,0,1-1.15-.49,2,2,0,0,1-.45-1.38,1.93,1.93,0,0,1,.48-1.4,1.5,1.5,0,0,1,1.12-.49,1.16,1.16,0,0,1,.62.14,2.07,2.07,0,0,1,.43.31l-.15.16a1.91,1.91,0,0,0-.4-.28,1,1,0,0,0-.5-.12,1.21,1.21,0,0,0-1,.47,1.81,1.81,0,0,0-.39,1.21,1.85,1.85,0,0,0,.37,1.2,1.2,1.2,0,0,0,1,.46,1.18,1.18,0,0,0,.56-.13,1.77,1.77,0,0,0,.45-.3l.13.16a2,2,0,0,1-.51.34A1.33,1.33,0,0,1,408.5,56.11Z"/><path class="cls-21" d="M411.76,56.11a1.53,1.53,0,0,1-1.16-.5,1.89,1.89,0,0,1-.48-1.37,2,2,0,0,1,.47-1.39,1.48,1.48,0,0,1,1.08-.5,1.24,1.24,0,0,1,1,.42A1.88,1.88,0,0,1,413,54v.11a.69.69,0,0,1,0,.13h-2.64a1.86,1.86,0,0,0,.38,1.19,1.28,1.28,0,0,0,1,.47,1.53,1.53,0,0,0,.54-.09,1.61,1.61,0,0,0,.45-.24l.11.2c-.14.08-.29.15-.46.23A1.69,1.69,0,0,1,411.76,56.11ZM410.36,54h2.43a1.65,1.65,0,0,0-.31-1.11,1,1,0,0,0-.81-.36,1.2,1.2,0,0,0-.87.39A1.72,1.72,0,0,0,410.36,54Z"/><path class="cls-21" d="M416.48,56.11a1.73,1.73,0,0,1-.91-.21,3,3,0,0,1-.57-.43l.15-.17a2.19,2.19,0,0,0,.52.41,1.52,1.52,0,0,0,.83.19,1.16,1.16,0,0,0,.87-.38,1.52,1.52,0,0,0,0-1.94,1.21,1.21,0,0,0-.9-.35,1.22,1.22,0,0,0-.49.09,2.25,2.25,0,0,0-.42.24l-.2-.12.18-2.22h2.15v.21h-1.94l-.16,1.85a2.14,2.14,0,0,1,.4-.2,1.51,1.51,0,0,1,.5-.07,1.56,1.56,0,0,1,1,.36,1.45,1.45,0,0,1,.42,1.15,1.51,1.51,0,0,1-.47,1.18A1.53,1.53,0,0,1,416.48,56.11Z"/><path class="cls-21" d="M390.89,65V60.07h.24v2.21h2.78V60.07h.24V65h-.24V62.49h-2.78V65Z"/><path class="cls-21" d="M396.94,65.11a1.53,1.53,0,0,1-1.16-.5,1.89,1.89,0,0,1-.48-1.37,2,2,0,0,1,.47-1.39,1.48,1.48,0,0,1,1.08-.5,1.24,1.24,0,0,1,1,.42A1.88,1.88,0,0,1,398.2,63v.11a.69.69,0,0,1,0,.13h-2.64a1.86,1.86,0,0,0,.38,1.19,1.28,1.28,0,0,0,1,.47,1.53,1.53,0,0,0,.54-.09,1.61,1.61,0,0,0,.45-.24l.11.2c-.14.08-.29.15-.46.23A1.69,1.69,0,0,1,396.94,65.11ZM395.54,63H398a1.65,1.65,0,0,0-.31-1.11,1,1,0,0,0-.81-.36A1.2,1.2,0,0,0,396,62,1.72,1.72,0,0,0,395.54,63Z"/><path class="cls-21" d="M399.2,65V61.44h.2l0,.67h0a2,2,0,0,1,.44-.55.88.88,0,0,1,.58-.21.78.78,0,0,1,.35.07l-.06.21a.91.91,0,0,0-.32-.06.83.83,0,0,0-.52.22,1.75,1.75,0,0,0-.48.74V65Z"/><path class="cls-21" d="M402.74,65.11a1.51,1.51,0,0,1-1.15-.5,1.89,1.89,0,0,1-.48-1.37,1.94,1.94,0,0,1,.47-1.39,1.44,1.44,0,0,1,1.07-.5,1.23,1.23,0,0,1,1,.42A1.83,1.83,0,0,1,404,63v.11a.62.62,0,0,1,0,.13h-2.65a1.81,1.81,0,0,0,.39,1.19,1.26,1.26,0,0,0,1,.47,1.53,1.53,0,0,0,.54-.09,2,2,0,0,0,.45-.24l.1.2c-.13.08-.29.15-.45.23A1.75,1.75,0,0,1,402.74,65.11ZM401.34,63h2.44a1.71,1.71,0,0,0-.31-1.11,1,1,0,0,0-.82-.36,1.17,1.17,0,0,0-.86.39A1.73,1.73,0,0,0,401.34,63Z"/><path class="cls-21" d="M464.09,46.72V41.77h1.19a2.29,2.29,0,0,1,1.3.31,1.15,1.15,0,0,1,.47,1,1.28,1.28,0,0,1-.46,1.06,2.07,2.07,0,0,1-1.28.35h-1v2.19Zm.24-2.4h.89A2,2,0,0,0,466.4,44a1,1,0,0,0,.39-.92,1,1,0,0,0-.4-.89,2.24,2.24,0,0,0-1.2-.25h-.86Z"/><path class="cls-21" d="M468.49,46.81q-.36,0-.36-.48v-5h.22v5.07c0,.15,0,.22.15.22h.14l0,.19-.09,0Z"/><path class="cls-21" d="M470.62,46.81a1.14,1.14,0,0,1-.73-.23.85.85,0,0,1-.31-.74,1,1,0,0,1,.57-.91,5.31,5.31,0,0,1,1.79-.44,2.78,2.78,0,0,0-.06-.58,1,1,0,0,0-.26-.47.81.81,0,0,0-.57-.18,1.55,1.55,0,0,0-.69.15,2.44,2.44,0,0,0-.48.28l-.12-.18a3.11,3.11,0,0,1,.52-.29,1.7,1.7,0,0,1,.79-.17.91.91,0,0,1,.86.4,1.94,1.94,0,0,1,.23.95v2.32H472l0-.48h0a4.28,4.28,0,0,1-.61.4A1.53,1.53,0,0,1,470.62,46.81Zm0-.21a1.35,1.35,0,0,0,.64-.16,3.56,3.56,0,0,0,.67-.45V44.68a4.6,4.6,0,0,0-1.65.41.86.86,0,0,0-.47.75.68.68,0,0,0,.24.59A1,1,0,0,0,470.63,46.6Z"/><path class="cls-21" d="M474.79,46.81a1.49,1.49,0,0,1-1.15-.49,2.29,2.29,0,0,1,0-2.78,1.52,1.52,0,0,1,1.13-.49,1.19,1.19,0,0,1,.62.14,2.37,2.37,0,0,1,.43.31l-.15.16a2.21,2.21,0,0,0-.4-.28,1,1,0,0,0-.5-.12,1.2,1.2,0,0,0-1,.47,1.77,1.77,0,0,0-.4,1.21,1.85,1.85,0,0,0,.38,1.2,1.2,1.2,0,0,0,1,.46,1.14,1.14,0,0,0,.55-.13,1.77,1.77,0,0,0,.45-.3l.14.16a2,2,0,0,1-.51.34A1.33,1.33,0,0,1,474.79,46.81Z"/><path class="cls-21" d="M478,46.81a1.51,1.51,0,0,1-1.15-.5,1.89,1.89,0,0,1-.48-1.37,1.94,1.94,0,0,1,.47-1.39,1.44,1.44,0,0,1,1.07-.5,1.23,1.23,0,0,1,1,.42,1.83,1.83,0,0,1,.37,1.23v.11a.62.62,0,0,1,0,.13h-2.64a1.81,1.81,0,0,0,.38,1.19,1.26,1.26,0,0,0,1,.47,1.53,1.53,0,0,0,.54-.09,2,2,0,0,0,.45-.24l.1.2c-.13.08-.29.15-.45.23A1.75,1.75,0,0,1,478,46.81Zm-1.39-2.08h2.43a1.71,1.71,0,0,0-.31-1.11,1,1,0,0,0-.82-.36,1.17,1.17,0,0,0-.86.39A1.67,1.67,0,0,0,476.65,44.73Z"/><path class="cls-21" d="M451.84,55.72V50.77h.24v4.74h2.32v.21Z"/><path class="cls-21" d="M455.38,51.22a.24.24,0,0,1-.18-.07.25.25,0,0,1-.08-.18.26.26,0,0,1,.44-.19.24.24,0,0,1,.07.19.24.24,0,0,1-.25.25Zm-.12,4.5V52.14h.22v3.58Z"/><path class="cls-21" d="M458.08,57.48A1.87,1.87,0,0,1,457,57.2a.86.86,0,0,1-.39-.73.92.92,0,0,1,.14-.47,1.42,1.42,0,0,1,.4-.41v0a.69.69,0,0,1-.23-.22.68.68,0,0,1-.09-.35.64.64,0,0,1,.14-.42,1.35,1.35,0,0,1,.25-.24v0a1.75,1.75,0,0,1-.31-.41,1.29,1.29,0,0,1,.22-1.48,1.19,1.19,0,0,1,.87-.36,1.12,1.12,0,0,1,.27,0l.2.06h1.2v.21h-.87a1.09,1.09,0,0,1,.31.41,1.23,1.23,0,0,1,.12.55,1.25,1.25,0,0,1-.35.9,1.16,1.16,0,0,1-.88.37,1.11,1.11,0,0,1-.61-.16,1.2,1.2,0,0,0-.22.23.47.47,0,0,0-.1.32.5.5,0,0,0,.14.35.81.81,0,0,0,.57.15h.79c.77,0,1.16.27,1.16.81a1.06,1.06,0,0,1-.45.82A1.82,1.82,0,0,1,458.08,57.48Zm0-.21a1.59,1.59,0,0,0,1-.31.89.89,0,0,0,.38-.67c0-.39-.29-.58-.87-.58h-.83l-.16,0-.27,0A1.2,1.2,0,0,0,457,56a.84.84,0,0,0-.12.42.66.66,0,0,0,.32.58A1.58,1.58,0,0,0,458.09,57.27Zm-.09-2.9a1,1,0,0,0,.69-.29,1.15,1.15,0,0,0,0-1.54,1,1,0,0,0-1.4,0,1.15,1.15,0,0,0,0,1.54A1,1,0,0,0,458,54.37Z"/><path class="cls-21" d="M460.75,53v2.74h-.23V50.31h.23v2.41a3.66,3.66,0,0,1,.59-.48,1.17,1.17,0,0,1,.67-.19c.72,0,1.08.45,1.08,1.36v2.31h-.23V53.44a1.6,1.6,0,0,0-.2-.89.75.75,0,0,0-.67-.29,1.15,1.15,0,0,0-.62.18A3.49,3.49,0,0,0,460.75,53Z"/><path class="cls-21" d="M465.35,55.81a.72.72,0,0,1-.67-.28,1.49,1.49,0,0,1-.17-.75V52.35h-.57v-.18l.57,0,0-1h.2v1h1.06v.21h-1.06v2.46a1.2,1.2,0,0,0,.12.57c.08.15.25.22.51.22a.7.7,0,0,0,.23,0l.23-.08.08.2a1.92,1.92,0,0,1-.32.09A.85.85,0,0,1,465.35,55.81Z"/><path class="cls-21" d="M469.49,55.81a2.06,2.06,0,0,1-1-.21,2.3,2.3,0,0,1-.69-.54l.17-.16a2,2,0,0,0,.65.5,1.91,1.91,0,0,0,.83.19,1.41,1.41,0,0,0,.95-.3,1,1,0,0,0,.36-.77.85.85,0,0,0-.27-.71,2.71,2.71,0,0,0-.65-.38l-.76-.35a4.83,4.83,0,0,1-.45-.23,1.56,1.56,0,0,1-.39-.38,1,1,0,0,1-.17-.6,1.06,1.06,0,0,1,.4-.86,1.51,1.51,0,0,1,1-.33,1.67,1.67,0,0,1,.79.18,1.89,1.89,0,0,1,.56.41l-.15.16a1.52,1.52,0,0,0-.52-.38,1.51,1.51,0,0,0-.68-.14,1.24,1.24,0,0,0-.84.26.84.84,0,0,0-.32.68.78.78,0,0,0,.3.68,4.52,4.52,0,0,0,.57.33l.77.34a3.61,3.61,0,0,1,.73.46,1.09,1.09,0,0,1,.32.85,1.21,1.21,0,0,1-.43.93A1.61,1.61,0,0,1,469.49,55.81Z"/><path class="cls-21" d="M473.35,55.81a1.49,1.49,0,0,1-1.12-.49,1.9,1.9,0,0,1-.47-1.38,1.93,1.93,0,0,1,.47-1.4,1.49,1.49,0,0,1,1.12-.49,1.47,1.47,0,0,1,1.11.49,1.93,1.93,0,0,1,.48,1.4,1.9,1.9,0,0,1-.48,1.38A1.47,1.47,0,0,1,473.35,55.81Zm0-.21a1.2,1.2,0,0,0,1-.46,2.06,2.06,0,0,0,0-2.41,1.22,1.22,0,0,0-1.92,0,2.06,2.06,0,0,0,0,2.41A1.2,1.2,0,0,0,473.35,55.6Z"/><path class="cls-21" d="M477.08,55.81c-.72,0-1.08-.45-1.08-1.36V52.14h.23v2.28a1.54,1.54,0,0,0,.2.89.76.76,0,0,0,.67.29,1,1,0,0,0,.61-.19,3,3,0,0,0,.62-.59V52.14h.22v3.58h-.19l0-.61h0a2.91,2.91,0,0,1-.56.51A1.19,1.19,0,0,1,477.08,55.81Z"/><path class="cls-21" d="M480,55.72V52.14h.2l0,.67h0a2,2,0,0,1,.44-.55.88.88,0,0,1,.58-.21.78.78,0,0,1,.35.07l-.06.21a.91.91,0,0,0-.32-.06.83.83,0,0,0-.52.22,1.75,1.75,0,0,0-.48.74v2.49Z"/><path class="cls-21" d="M483.5,55.81a1.51,1.51,0,0,1-1.15-.49,2,2,0,0,1-.45-1.38,1.93,1.93,0,0,1,.48-1.4,1.5,1.5,0,0,1,1.12-.49,1.16,1.16,0,0,1,.62.14,2.07,2.07,0,0,1,.43.31l-.15.16a1.91,1.91,0,0,0-.4-.28,1,1,0,0,0-.5-.12,1.21,1.21,0,0,0-1,.47,1.81,1.81,0,0,0-.39,1.21,1.85,1.85,0,0,0,.37,1.2,1.2,1.2,0,0,0,1,.46,1.18,1.18,0,0,0,.56-.13,1.77,1.77,0,0,0,.45-.3l.13.16a2,2,0,0,1-.51.34A1.33,1.33,0,0,1,483.5,55.81Z"/><path class="cls-21" d="M486.76,55.81a1.53,1.53,0,0,1-1.16-.5,1.89,1.89,0,0,1-.48-1.37,2,2,0,0,1,.47-1.39,1.48,1.48,0,0,1,1.08-.5,1.24,1.24,0,0,1,1,.42A1.88,1.88,0,0,1,488,53.7v.11a.69.69,0,0,1,0,.13h-2.64a1.86,1.86,0,0,0,.38,1.19,1.28,1.28,0,0,0,1,.47,1.53,1.53,0,0,0,.54-.09,1.61,1.61,0,0,0,.45-.24l.11.2-.46.23A1.69,1.69,0,0,1,486.76,55.81Zm-1.4-2.08h2.43a1.65,1.65,0,0,0-.31-1.11,1,1,0,0,0-.81-.36,1.2,1.2,0,0,0-.87.39A1.72,1.72,0,0,0,485.36,53.73Z"/><path class="cls-21" d="M493,54.33a1.48,1.48,0,0,1-.38,1.06,1.16,1.16,0,0,1-.89.42,1.31,1.31,0,0,1-1.13-.59,2.93,2.93,0,0,1-.4-1.66,4.37,4.37,0,0,1,.24-1.61,1.79,1.79,0,0,1,.64-.86,1.58,1.58,0,0,1,.86-.26,1,1,0,0,1,.54.13,1.46,1.46,0,0,1,.42.32l-.15.17a1,1,0,0,0-.83-.41,1.32,1.32,0,0,0-1,.55,3.13,3.13,0,0,0-.44,1.93A2.19,2.19,0,0,1,491,53a1.38,1.38,0,0,1,1.65.19A1.62,1.62,0,0,1,493,54.33Zm-1.26,1.27a.9.9,0,0,0,.73-.37,1.45,1.45,0,0,0,.29-.9,1.55,1.55,0,0,0-.25-.91.94.94,0,0,0-.84-.37,1.21,1.21,0,0,0-.59.18,2.12,2.12,0,0,0-.64.58,2.72,2.72,0,0,0,.35,1.29A1.06,1.06,0,0,0,491.75,55.6Z"/><path class="cls-21" d="M465.89,64.72V59.77h.24V62h2.78V59.77h.24v4.95h-.24V62.19h-2.78v2.53Z"/><path class="cls-21" d="M471.94,64.81a1.53,1.53,0,0,1-1.16-.5,1.89,1.89,0,0,1-.48-1.37,2,2,0,0,1,.47-1.39,1.48,1.48,0,0,1,1.08-.5,1.24,1.24,0,0,1,1,.42,1.88,1.88,0,0,1,.37,1.23v.11a.69.69,0,0,1,0,.13h-2.64a1.86,1.86,0,0,0,.38,1.19,1.28,1.28,0,0,0,1,.47,1.53,1.53,0,0,0,.54-.09,1.61,1.61,0,0,0,.45-.24l.11.2c-.14.08-.29.15-.46.23A1.69,1.69,0,0,1,471.94,64.81Zm-1.4-2.08H473a1.65,1.65,0,0,0-.31-1.11,1,1,0,0,0-.81-.36,1.2,1.2,0,0,0-.87.39A1.72,1.72,0,0,0,470.54,62.73Z"/><path class="cls-21" d="M474.2,64.72V61.14h.2l0,.67h0a2,2,0,0,1,.44-.55.88.88,0,0,1,.58-.21.78.78,0,0,1,.35.07l-.06.21a.91.91,0,0,0-.32-.06.83.83,0,0,0-.52.22,1.75,1.75,0,0,0-.48.74v2.49Z"/><path class="cls-21" d="M477.74,64.81a1.51,1.51,0,0,1-1.15-.5,1.89,1.89,0,0,1-.48-1.37,1.94,1.94,0,0,1,.47-1.39,1.44,1.44,0,0,1,1.07-.5,1.23,1.23,0,0,1,1,.42A1.83,1.83,0,0,1,479,62.7v.11a.62.62,0,0,1,0,.13h-2.65a1.81,1.81,0,0,0,.39,1.19,1.26,1.26,0,0,0,1,.47,1.53,1.53,0,0,0,.54-.09,2,2,0,0,0,.45-.24l.1.2c-.13.08-.29.15-.45.23A1.75,1.75,0,0,1,477.74,64.81Zm-1.4-2.08h2.44a1.71,1.71,0,0,0-.31-1.11,1,1,0,0,0-.82-.36,1.17,1.17,0,0,0-.86.39A1.73,1.73,0,0,0,476.34,62.73Z"/></svg>