<svg xmlns="http://www.w3.org/2000/svg" xmlns:xlink="http://www.w3.org/1999/xlink" width="46.5" height="81.99" viewBox="0 0 46.5 81.99"><defs><style>.cls-1{isolation:isolate;}.cls-2{opacity:0.64;}.cls-3{opacity:0.61;fill:url(#linear-gradient);}.cls-4{opacity:0.51;fill:url(#linear-gradient-2);}.cls-5{fill:url(#linear-gradient-3);}.cls-6,.cls-9{mix-blend-mode:soft-light;}.cls-6{fill:url(#linear-gradient-4);}.cls-7{fill:url(#linear-gradient-5);}.cls-8{fill:url(#linear-gradient-6);}.cls-9{fill:url(#linear-gradient-7);}</style><linearGradient id="linear-gradient" x1="38.88" y1="40.23" x2="1.61" y2="18.71" gradientUnits="userSpaceOnUse"><stop offset="0.02" stop-color="#666"/><stop offset="0.02" stop-color="#6e6e6e"/><stop offset="0.05" stop-color="#999899"/><stop offset="0.07" stop-color="#b8b7b8"/><stop offset="0.09" stop-color="#cbcacb"/><stop offset="0.11" stop-color="#d2d1d2"/><stop offset="0.18" stop-color="#c5c4c5"/><stop offset="0.29" stop-color="#979696"/><stop offset="0.33" stop-color="#919090"/><stop offset="0.5" stop-color="#f2f2f2"/><stop offset="0.78" stop-color="#c9c8c8"/><stop offset="0.85" stop-color="#fff"/><stop offset="1" stop-color="#4d4d4d"/></linearGradient><linearGradient id="linear-gradient-2" x1="22.87" y1="55.72" x2="22.87" y2="3.22" gradientUnits="userSpaceOnUse"><stop offset="0.02" stop-color="#666"/><stop offset="0.02" stop-color="#6e6e6e"/><stop offset="0.05" stop-color="#999899"/><stop offset="0.07" stop-color="#b8b7b8"/><stop offset="0.09" stop-color="#cbcacb"/><stop offset="0.11" stop-color="#d2d1d2"/><stop offset="0.18" stop-color="#c5c4c5"/><stop offset="0.29" stop-color="#979696"/><stop offset="0.36" stop-color="#919090"/><stop offset="0.59" stop-color="#c9c8c8"/><stop offset="0.85" stop-color="#f2f2f2"/><stop offset="1" stop-color="#4d4d4d"/></linearGradient><linearGradient id="linear-gradient-3" x1="43.99" y1="30.35" x2="0.39" y2="30.35" gradientUnits="userSpaceOnUse"><stop offset="0.02" stop-color="#666"/><stop offset="0.02" stop-color="#646464"/><stop offset="0.2" stop-color="#393939"/><stop offset="0.36" stop-color="#1a1a1a"/><stop offset="0.5" stop-color="#070707"/><stop offset="0.59"/><stop offset="1" stop-color="#4d4d4d"/></linearGradient><linearGradient id="linear-gradient-4" x1="11.57" y1="51.29" x2="36.19" y2="8.65" gradientUnits="userSpaceOnUse"><stop offset="0" stop-color="#006837"/><stop offset="0.32" stop-color="#39b54a"/><stop offset="1" stop-color="#caffaa"/></linearGradient><linearGradient id="linear-gradient-5" x1="42.81" y1="42.52" x2="0.79" y2="18.26" xlink:href="#linear-gradient-3"/><linearGradient id="linear-gradient-6" x1="46.5" y1="30.35" x2="2.91" y2="30.35" xlink:href="#linear-gradient-3"/><linearGradient id="linear-gradient-7" x1="40.44" y1="14.18" x2="8.87" y2="45.76" xlink:href="#linear-gradient-4"/></defs><title>AdditionalExcitationFilter copy</title><g class="cls-1"><g id="Layer_1" data-name="Layer 1"><g class="cls-2"><ellipse class="cls-3" cx="20.25" cy="29.47" rx="19.69" ry="26.25"/><ellipse class="cls-4" cx="22.87" cy="29.47" rx="19.69" ry="26.25"/></g><path class="cls-5" d="M21.93,0C9.89.15.25,13.86.39,30.62s10,30.23,22.06,30.08S44.13,46.84,44,30.08,34-.15,21.93,0Zm.29,56.2c-10.07.13-18.33-11.52-18.45-26s7.93-26.35,18-26.47,18.33,11.52,18.45,26S32.28,56.08,22.22,56.2Z"/><ellipse class="cls-6" cx="23.88" cy="29.97" rx="18.85" ry="26.25"/><path class="cls-7" d="M21.53,0C9.5.19-.14,13.89,0,30.66S10,60.89,22.06,60.74a15.73,15.73,0,0,0,2.75-.28c10.72-2,18.92-14.88,18.78-30.34C43.45,13.36,33.57-.11,21.53,0Zm3.2,56.18c-10.06.12-18.32-11.53-18.44-26s7.93-26.35,18-26.48,18.32,11.53,18.45,26S34.8,56.09,24.73,56.22Z"/><path class="cls-8" d="M24.44,0C12.4.15,2.76,13.86,2.91,30.62S12.93,60.85,25,60.7,46.64,46.84,46.5,30.08,36.48-.15,24.44,0Zm.29,56.2c-10.06.13-18.32-11.52-18.45-26s7.93-26.35,18-26.47,18.32,11.52,18.45,26S34.79,56.08,24.73,56.2Z"/><path class="cls-9" d="M42.73,30.72c-.25,11.72-7.49,25.13-17.59,25.5C14.63,56.6,6.28,42.68,6.28,30S14.63,3.36,25.14,3.72,43,18.38,42.73,30.72Z"/><path d="M6.19,70.32l-.24-1H4.63l-.23,1H3.12l1.44-4.73H6.07l1.44,4.73ZM4.94,68l-.08.33h.87L5.65,68c-.06-.22-.12-.47-.18-.74s-.11-.52-.17-.76h0c0,.24-.1.5-.16.76Z"/><path d="M8,70.32V65.59H9.35a2.69,2.69,0,0,1,1.76.55,2.16,2.16,0,0,1,.67,1.79,2.27,2.27,0,0,1-.66,1.82,2.52,2.52,0,0,1-1.69.57Zm1.25-1h.07a1.41,1.41,0,0,0,.87-.27,1.4,1.4,0,0,0,.35-1.11,1.3,1.3,0,0,0-.35-1.08,1.47,1.47,0,0,0-.87-.26H9.21Z"/><path d="M12.63,70.32V65.59H14a2.66,2.66,0,0,1,1.75.55,2.17,2.17,0,0,1,.68,1.79,2.24,2.24,0,0,1-.67,1.82,2.49,2.49,0,0,1-1.69.57Zm1.25-1H14a1.36,1.36,0,0,0,.86-.27,1.37,1.37,0,0,0,.36-1.11,1.27,1.27,0,0,0-.36-1.08,1.42,1.42,0,0,0-.86-.26h-.07Z"/><path d="M17.29,70.32V65.59h1.25v4.73Z"/><path d="M20.49,70.32V66.64H19.24v-1H23v1H21.74v3.68Z"/><path d="M23.69,70.32V65.59h1.25v4.73Z"/><path d="M28,70.4a2.07,2.07,0,0,1-1.59-.65,2.55,2.55,0,0,1-.61-1.82,2.46,2.46,0,0,1,.61-1.79,2.28,2.28,0,0,1,3.17,0,2.46,2.46,0,0,1,.61,1.79,2.55,2.55,0,0,1-.61,1.82A2.07,2.07,0,0,1,28,70.4Zm0-1.07a.75.75,0,0,0,.66-.38,1.79,1.79,0,0,0,.25-1,1.67,1.67,0,0,0-.25-1,.79.79,0,0,0-1.33,0,1.67,1.67,0,0,0-.25,1,1.79,1.79,0,0,0,.25,1A.76.76,0,0,0,28,69.33Z"/><path d="M31,70.32V65.59h1.28l1.05,2.11.45,1.06h0c0-.25-.06-.54-.1-.87a7.75,7.75,0,0,1-.06-.93V65.59h1.19v4.73H33.57l-1-2.12-.46-1h0c0,.27.06.56.1.88a7.47,7.47,0,0,1,.06.92v1.37Z"/><path d="M38.37,70.32l-.23-1H36.81l-.23,1H35.3l1.44-4.73h1.51l1.44,4.73ZM37.12,68l-.08.33h.87L37.83,68c-.06-.22-.12-.47-.17-.74s-.12-.52-.18-.76h0c-.05.24-.1.5-.16.76S37.18,67.8,37.12,68Z"/><path d="M40.14,70.32V65.59h1.25v3.68h1.79v1Z"/><path d="M6.93,79V74.31H10v1H8.18v.74H9.73v1.05H8.18V78h1.88V79Z"/><path d="M10.52,79l1.28-2.43-1.2-2.3H12l.32.77.16.36c0,.13.11.27.18.43h0a2.41,2.41,0,0,1,.15-.43c.05-.13.09-.25.14-.36l.27-.77h1.34l-1.21,2.36L14.65,79H13.26l-.38-.85c-.06-.12-.11-.25-.17-.37l-.17-.41h0c0,.14-.1.28-.16.41l-.15.37-.35.85Z"/><path d="M14.75,77.63v-.88h1.84v.88Z"/><path d="M17.43,79V74.31h3.08v1H18.68v.9h1.57v1H18.68V79Z"/><path d="M21.33,79V74.31h1.25V79Z"/><path d="M23.62,79V74.31h1.25V78h1.79V79Z"/><path d="M27.5,79V75.36H26.25v-1H30v1H28.75V79Z"/><path d="M30.7,79V74.31h3.05v1H32v.74h1.54v1.05H32V78h1.88V79Z"/><path d="M36,79H34.74V74.31h1.79a3.14,3.14,0,0,1,.94.14,1.45,1.45,0,0,1,.69.47,1.48,1.48,0,0,1,.26.92,1.48,1.48,0,0,1-.76,1.37l1,1.83H37.29l-.82-1.59H36Zm0-2.58h.45c.51,0,.76-.2.76-.62a.47.47,0,0,0-.19-.42,1.1,1.1,0,0,0-.57-.12H36Z"/></g></g></svg>