<svg id="Layer_1" data-name="Layer 1" xmlns="http://www.w3.org/2000/svg" xmlns:xlink="http://www.w3.org/1999/xlink" viewBox="0 0 33.26 60.8"><defs><style>.cls-1{fill:#8e8e8e;}.cls-2,.cls-9{opacity:0.65;}.cls-3{opacity:0.61;fill:url(#linear-gradient);}.cls-4{opacity:0.51;fill:url(#linear-gradient-2);}.cls-5{fill:url(#linear-gradient-3);}.cls-6,.cls-8{stroke-miterlimit:10;stroke-width:0.38px;}.cls-6{opacity:0.43;fill:url(#linear-gradient-4);stroke:url(#linear-gradient-5);}.cls-7{fill:url(#linear-gradient-6);}.cls-10,.cls-8{opacity:0.42;}.cls-8{fill:url(#linear-gradient-7);stroke:url(#linear-gradient-8);}.cls-9{fill:url(#linear-gradient-9);}.cls-10{fill:url(#linear-gradient-10);}.cls-11{fill:url(#linear-gradient-11);}</style><linearGradient id="linear-gradient" x1="26.23" y1="26.16" x2="5.81" y2="14.37" gradientUnits="userSpaceOnUse"><stop offset="0.02" stop-color="#666"/><stop offset="0.02" stop-color="#6e6e6e"/><stop offset="0.05" stop-color="#999899"/><stop offset="0.07" stop-color="#b8b7b8"/><stop offset="0.09" stop-color="#cbcacb"/><stop offset="0.11" stop-color="#d2d1d2"/><stop offset="0.18" stop-color="#c5c4c5"/><stop offset="0.29" stop-color="#979696"/><stop offset="0.33" stop-color="#919090"/><stop offset="0.5" stop-color="#f2f2f2"/><stop offset="0.78" stop-color="#c9c8c8"/><stop offset="0.85" stop-color="#fff"/><stop offset="1" stop-color="#4d4d4d"/></linearGradient><linearGradient id="linear-gradient-2" x1="17.09" y1="39.28" x2="17.09" y2="1.25" gradientUnits="userSpaceOnUse"><stop offset="0.02" stop-color="#666"/><stop offset="0.02" stop-color="#6e6e6e"/><stop offset="0.05" stop-color="#999899"/><stop offset="0.07" stop-color="#b8b7b8"/><stop offset="0.09" stop-color="#cbcacb"/><stop offset="0.11" stop-color="#d2d1d2"/><stop offset="0.18" stop-color="#c5c4c5"/><stop offset="0.29" stop-color="#979696"/><stop offset="0.36" stop-color="#919090"/><stop offset="0.59" stop-color="#c9c8c8"/><stop offset="0.85" stop-color="#f2f2f2"/><stop offset="1" stop-color="#4d4d4d"/></linearGradient><linearGradient id="linear-gradient-3" x1="25.1" y1="21.99" x2="7.29" y2="21.99" gradientUnits="userSpaceOnUse"><stop offset="0.02" stop-color="#666"/><stop offset="0.02" stop-color="#646464"/><stop offset="0.2" stop-color="#393939"/><stop offset="0.36" stop-color="#1a1a1a"/><stop offset="0.5" stop-color="#070707"/><stop offset="0.59"/><stop offset="1" stop-color="#4d4d4d"/></linearGradient><linearGradient id="linear-gradient-4" x1="8.43" y1="36.37" x2="25.35" y2="7.06" gradientUnits="userSpaceOnUse"><stop offset="0.02" stop-color="#666"/><stop offset="0.06" stop-color="#8c8c8c"/><stop offset="0.11" stop-color="#abaaab"/><stop offset="0.15" stop-color="#bebdbe"/><stop offset="0.18" stop-color="#c5c4c5"/><stop offset="0.5" stop-color="#f2f2f2"/><stop offset="0.78" stop-color="#c9c8c8"/><stop offset="1" stop-color="#4d4d4d"/></linearGradient><linearGradient id="linear-gradient-5" x1="9" y1="21.71" x2="24.78" y2="21.71" gradientUnits="userSpaceOnUse"><stop offset="0" stop-color="#a6a5a5"/><stop offset="0.11" stop-color="#d2d1d2"/><stop offset="0.18" stop-color="#c5c4c5"/><stop offset="0.29" stop-color="#979696"/><stop offset="0.33" stop-color="#919090"/><stop offset="0.78" stop-color="#c9c8c8"/><stop offset="0.85" stop-color="#fff"/><stop offset="1" stop-color="#797979"/></linearGradient><linearGradient id="linear-gradient-6" x1="27.69" y1="28.74" x2="4.39" y2="15.29" xlink:href="#linear-gradient-3"/><linearGradient id="linear-gradient-7" x1="27.38" y1="31.87" x2="7.07" y2="11.56" gradientUnits="userSpaceOnUse"><stop offset="0" stop-color="#4d4d4d"/><stop offset="0.22" stop-color="#c9c8c8"/><stop offset="0.5" stop-color="#f2f2f2"/><stop offset="0.67" stop-color="#919090"/><stop offset="0.71" stop-color="#979696"/><stop offset="0.82" stop-color="#c5c4c5"/><stop offset="0.85" stop-color="#bebdbe"/><stop offset="0.89" stop-color="#abaaab"/><stop offset="0.94" stop-color="#8c8c8c"/><stop offset="0.98" stop-color="#666"/></linearGradient><linearGradient id="linear-gradient-8" x1="9.51" y1="21.71" x2="24.78" y2="21.71" xlink:href="#linear-gradient-5"/><linearGradient id="linear-gradient-9" x1="16.27" y1="13.25" x2="10.5" y2="7.48" gradientUnits="userSpaceOnUse"><stop offset="0" stop-color="#1a1a1a"/><stop offset="0.98" stop-color="#1a1a1a"/></linearGradient><linearGradient id="linear-gradient-10" x1="19.27" y1="20.56" x2="13.46" y2="14.74" gradientUnits="userSpaceOnUse"><stop offset="0" stop-color="#4d4d4d"/><stop offset="0.67" stop-color="#919090"/><stop offset="0.98" stop-color="#666"/></linearGradient><linearGradient id="linear-gradient-11" x1="26.13" y1="21.99" x2="8.32" y2="21.99" xlink:href="#linear-gradient-3"/></defs><path class="cls-1" d="M3,52.5V48.6h1v1.45H5.22V48.6h1v3.9h-1V51H4.06V52.5Z"/><path class="cls-1" d="M8.76,52.57A1.71,1.71,0,0,1,7.45,52a2.14,2.14,0,0,1-.5-1.5,2.07,2.07,0,0,1,.5-1.48,1.73,1.73,0,0,1,1.31-.52,1.72,1.72,0,0,1,1.31.52,2,2,0,0,1,.51,1.48,2.1,2.1,0,0,1-.51,1.5A1.7,1.7,0,0,1,8.76,52.57Zm0-.88a.64.64,0,0,0,.56-.32,1.53,1.53,0,0,0,.2-.84,1.48,1.48,0,0,0-.2-.82.68.68,0,0,0-1.11,0,1.48,1.48,0,0,0-.2.82,1.53,1.53,0,0,0,.2.84A.64.64,0,0,0,8.76,51.69Z"/><path class="cls-1" d="M11.27,52.5V48.6h2.55v.87H12.3v.74h1.3v.86H12.3V52.5Z"/><path class="cls-1" d="M14.49,52.5V48.6H17v.87H15.52v.74h1.3v.86h-1.3V52.5Z"/><path class="cls-1" d="M17.7,52.5V48.6h1.11l.59,1.6c0,.11.07.22.1.34s.06.23.1.34h0c0-.11.07-.23.11-.34a3.37,3.37,0,0,1,.1-.34l.56-1.6H21.5v3.9h-.94V51.35a6.55,6.55,0,0,1,.05-.7c0-.26.06-.5.08-.69h0l-.33.93-.48,1.29h-.55l-.48-1.29L18.52,50h0c0,.19.05.43.08.69a6.55,6.55,0,0,1,.05.7V52.5Z"/><path class="cls-1" d="M24.4,52.5l-.19-.83H23.12l-.2.83H21.87l1.19-3.9H24.3l1.19,3.9Zm-1-1.89-.07.27H24L24,50.61c-.05-.19-.1-.39-.15-.61s-.09-.43-.14-.63h0c0,.2-.08.41-.13.63S23.42,50.42,23.37,50.61Z"/><path class="cls-1" d="M25.86,52.5V48.6h1.06l.86,1.74.38.88h0c0-.21-.05-.45-.08-.72a5.23,5.23,0,0,1-.05-.77V48.6h1v3.9H28l-.87-1.74-.37-.87h0c0,.22.05.46.08.73a6.59,6.59,0,0,1,.05.75V52.5Z"/><path class="cls-1" d="M8.81,58.5V54.6h1.42a2.47,2.47,0,0,1,.79.12,1.26,1.26,0,0,1,.58.4,1.23,1.23,0,0,1,.22.78,1.21,1.21,0,0,1-.8,1.22,1.91,1.91,0,0,1-.76.15H9.84V58.5Zm1-2h.37c.4,0,.6-.18.6-.55a.4.4,0,0,0-.16-.37.77.77,0,0,0-.46-.11H9.84Z"/><path class="cls-1" d="M12.45,58.5V54.6h1v3H15v.86Z"/><path class="cls-1" d="M17.61,58.5l-.19-.83H16.33l-.19.83H15.08l1.19-3.9h1.25l1.19,3.9Zm-1-1.89-.06.27h.72l-.07-.27c-.05-.19-.1-.39-.14-.61s-.1-.43-.15-.63h0c0,.2-.09.41-.13.63S16.63,56.42,16.58,56.61Z"/><path class="cls-1" d="M19.34,58.5v-3h-1V54.6h3.1v.87h-1v3Z"/><path class="cls-1" d="M22,58.5V54.6H24.5v.87H23v.61h1.28v.86H23v.7h1.55v.86Z"/><g class="cls-2"><ellipse class="cls-3" cx="16.02" cy="20.27" rx="8.04" ry="19.02"/><ellipse class="cls-4" cx="17.09" cy="20.27" rx="8.04" ry="19.02"/></g><path class="cls-5" d="M16.09,0c-4.92.11-8.86,10-8.8,22.19s4.1,21.9,9,21.79,8.86-10,8.8-22.18S21-.11,16.09,0Zm.12,40.72c-4.11.09-7.49-8.35-7.54-18.85S11.91,2.78,16,2.69,23.51,11,23.56,21.54,20.32,40.63,16.21,40.72Z"/><ellipse class="cls-6" cx="16.89" cy="21.71" rx="7.7" ry="19.02"/><path class="cls-7" d="M15.93,0c-4.92.1-8.86,10-8.8,22.18s4.09,21.9,9,21.8a4,4,0,0,0,1.13-.2c4.38-1.46,7.73-10.78,7.67-22C24.88,9.68,20.85-.08,15.93,0Zm1.31,40.7c-4.12.09-7.49-8.35-7.54-18.85S12.94,2.79,17.05,2.7s7.49,8.35,7.54,18.85S21.35,40.64,17.24,40.73Z"/><path class="cls-8" d="M24.59,22.26c-.1,8.49-3.06,18.21-7.19,18.47-4.29.28-7.7-9.81-7.7-19s3.41-19.28,7.7-19S24.7,13.32,24.59,22.26Z"/><path class="cls-9" d="M22.34,7.19c-1.31-2.86-3-4.78-5-4.89-4.32-.25-7.81,8.5-8.26,17.15Z"/><path class="cls-10" d="M22.6,6.58,9.13,19.06c0,.4,0,.79,0,1.18a37.89,37.89,0,0,0,1,8.43L24.81,15A33.14,33.14,0,0,0,22.6,6.58Z"/><path class="cls-11" d="M17.12,0C12.2.11,8.26,10,8.32,22.19s4.09,21.9,9,21.79,8.86-10,8.8-22.18S22-.11,17.12,0Zm.11,40.72c-4.11.09-7.48-8.35-7.53-18.85S12.94,2.78,17.05,2.69,24.54,11,24.59,21.54,21.35,40.63,17.23,40.72Z"/></svg>