<svg id="Layer_1" data-name="Layer 1" xmlns="http://www.w3.org/2000/svg" xmlns:xlink="http://www.w3.org/1999/xlink" viewBox="0 0 33.26 60.8"><defs><style>.cls-1{fill:#8e8e8e;}.cls-2{fill:url(#linear-gradient);}.cls-3{fill:url(#linear-gradient-2);}.cls-4{fill:url(#linear-gradient-3);}.cls-5{fill:url(#linear-gradient-4);}</style><linearGradient id="linear-gradient" x1="25.1" y1="22.16" x2="7.29" y2="22.16" gradientUnits="userSpaceOnUse"><stop offset="0.02" stop-color="#666"/><stop offset="0.02" stop-color="#646464"/><stop offset="0.2" stop-color="#393939"/><stop offset="0.36" stop-color="#1a1a1a"/><stop offset="0.5" stop-color="#070707"/><stop offset="0.59"/><stop offset="1" stop-color="#4d4d4d"/></linearGradient><linearGradient id="linear-gradient-2" x1="27.69" y1="28.91" x2="4.39" y2="15.46" xlink:href="#linear-gradient"/><linearGradient id="linear-gradient-3" x1="26.13" y1="22.16" x2="8.32" y2="22.16" xlink:href="#linear-gradient"/><linearGradient id="linear-gradient-4" x1="6.71" y1="15.78" x2="27.22" y2="27.62" gradientUnits="userSpaceOnUse"><stop offset="0" stop-color="#2c2c2c"/><stop offset="0.18" stop-color="#1a1a1a"/><stop offset="0.42" stop-color="#070707"/><stop offset="0.59"/><stop offset="1" stop-color="#4d4d4d"/></linearGradient></defs><path class="cls-1" d="M1.22,52.74v-3.9H2.37a2.21,2.21,0,0,1,1.44.45,1.77,1.77,0,0,1,.56,1.48,1.85,1.85,0,0,1-.55,1.5,2.07,2.07,0,0,1-1.39.47Zm1-.83h.06A1.12,1.12,0,0,0,3,51.68a1.09,1.09,0,0,0,.3-.91c0-.46-.1-.75-.3-.89a1.17,1.17,0,0,0-.71-.21H2.25Z"/><path class="cls-1" d="M7.05,52.74l-.19-.83H5.76l-.19.83H4.52l1.18-3.9H7l1.19,3.9Zm-1-1.9L6,51.11h.72l-.07-.27-.14-.61c0-.22-.1-.43-.14-.62h0c0,.2-.08.41-.13.63Z"/><path class="cls-1" d="M9.54,52.74h-1v-3.9H10a2.65,2.65,0,0,1,.77.11,1.17,1.17,0,0,1,.57.39,1.15,1.15,0,0,1,.22.76,1.22,1.22,0,0,1-.18.69,1.19,1.19,0,0,1-.45.44l.84,1.51H10.61l-.67-1.31h-.4Zm0-2.13h.38c.41,0,.62-.17.62-.51a.36.36,0,0,0-.16-.35.92.92,0,0,0-.46-.1H9.54Z"/><path class="cls-1" d="M12.29,52.74v-3.9h1v1.45h0l1-1.45h1.13L14.3,50.42l1.39,2.32H14.56l-.86-1.5-.38.53v1Z"/><path class="cls-1" d="M17.26,52.74v-3.9H19.8v.86H18.29v.75h1.3v.86h-1.3v1.43Z"/><path class="cls-1" d="M20.48,52.74v-3.9h1v3.9Z"/><path class="cls-1" d="M22.37,52.74v-3.9h2.52v.86H23.4v.61h1.28v.87H23.4v.69H25v.87Z"/><path class="cls-1" d="M25.71,52.74v-3.9h1v3h1.48v.87Z"/><path class="cls-1" d="M28.89,52.74v-3.9H30a2.26,2.26,0,0,1,1.45.45A1.79,1.79,0,0,1,32,50.77a1.85,1.85,0,0,1-.55,1.5,2.07,2.07,0,0,1-1.39.47Zm1-.83H30a1.12,1.12,0,0,0,.71-.23,1.09,1.09,0,0,0,.3-.91c0-.46-.1-.75-.3-.89a1.17,1.17,0,0,0-.71-.21h-.06Z"/><path class="cls-1" d="M11.08,58.81a2.42,2.42,0,0,1-.77-.14,2.05,2.05,0,0,1-.71-.42l.59-.71a1.78,1.78,0,0,0,.45.28,1.2,1.2,0,0,0,.46.1q.45,0,.45-.27a.22.22,0,0,0-.14-.21L11,57.27l-.49-.21a1.39,1.39,0,0,1-.55-.39A1,1,0,0,1,9.75,56a1.09,1.09,0,0,1,.41-.86,1.51,1.51,0,0,1,1-.35,2.08,2.08,0,0,1,.68.12,1.79,1.79,0,0,1,.62.4l-.52.65a1.32,1.32,0,0,0-.38-.21,1.06,1.06,0,0,0-.4-.08c-.27,0-.41.09-.41.27a.23.23,0,0,0,.16.21l.42.18.47.18a1.29,1.29,0,0,1,.57.41,1.05,1.05,0,0,1,.19.66,1.17,1.17,0,0,1-.39.87A1.59,1.59,0,0,1,11.08,58.81Z"/><path class="cls-1" d="M13.85,58.74v-3h-1v-.86h3.1v.86h-1v3Z"/><path class="cls-1" d="M18,58.81a1.73,1.73,0,0,1-1.32-.54,2.14,2.14,0,0,1-.5-1.5,2.07,2.07,0,0,1,.5-1.48A1.76,1.76,0,0,1,18,54.77a1.73,1.73,0,0,1,1.31.52,2.07,2.07,0,0,1,.5,1.48,2.14,2.14,0,0,1-.5,1.5A1.71,1.71,0,0,1,18,58.81Zm0-.89a.63.63,0,0,0,.55-.31,1.58,1.58,0,0,0,.2-.84,1.46,1.46,0,0,0-.2-.82.66.66,0,0,0-1.11,0,1.46,1.46,0,0,0-.2.82,1.58,1.58,0,0,0,.2.84A.63.63,0,0,0,18,57.92Z"/><path class="cls-1" d="M20.46,58.74v-3.9h1.43a2.47,2.47,0,0,1,.79.12,1.19,1.19,0,0,1,.58.4,1.28,1.28,0,0,1,.22.77,1.33,1.33,0,0,1-.22.78,1.36,1.36,0,0,1-.58.45,2.14,2.14,0,0,1-.76.14H21.5v1.24Zm1-2.05h.37c.4,0,.6-.19.6-.56a.43.43,0,0,0-.16-.37.88.88,0,0,0-.47-.11H21.5Z"/><path class="cls-2" d="M16.09.17c-4.92.11-8.86,10-8.8,22.19s4.1,21.9,9,21.79,8.86-10,8.8-22.18S21,.07,16.09.17Zm.12,40.72C12.1,41,8.72,32.54,8.67,22S11.91,3,16,2.86s7.49,8.35,7.54,18.85S20.32,40.8,16.21,40.89Z"/><path class="cls-3" d="M15.93.2c-4.92.11-8.86,10-8.8,22.18s4.09,21.91,9,21.8a4,4,0,0,0,1.13-.2C21.65,42.52,25,33.2,24.94,22,24.88,9.85,20.85.09,15.93.2Zm1.31,40.7C13.12,41,9.75,32.55,9.7,22.05S12.94,3,17.05,2.87s7.49,8.35,7.54,18.85S21.35,40.81,17.24,40.9Z"/><path class="cls-4" d="M17.12.17c-4.92.11-8.86,10-8.8,22.19s4.09,21.9,9,21.79,8.86-10,8.8-22.18S22,.07,17.12.17Zm.11,40.72C13.12,41,9.75,32.54,9.7,22S12.94,3,17.05,2.86s7.49,8.35,7.54,18.85S21.35,40.8,17.23,40.89Z"/><path class="cls-5" d="M17,2.2c-4.28,0-7.75,8.73-7.75,19.5S12.68,41.2,17,41.2s7.75-8.73,7.75-19.5S21.24,2.2,17,2.2ZM23.61,22a45.08,45.08,0,0,1-.69,8l-.72-.64a40.88,40.88,0,0,0,.67-7.56c0-8.55-2.34-15.58-5.35-16.47V3.83C20.93,4.66,23.61,12.46,23.61,22ZM16.41,3.82V5.27c-3.1.66-5.54,7.79-5.54,16.51a42.38,42.38,0,0,0,.64,7.42l-.63.56A44.74,44.74,0,0,1,10.23,22C10.23,12.38,13,4.53,16.41,3.82Zm.51,36.38c-2.5,0-4.67-3.73-5.82-9.25l.65-.58c1.05,4.79,2.95,8,5.12,8s4-3.14,5.09-7.85l.7.61.05,0C21.55,36.53,19.39,40.2,16.92,40.2Z"/></svg>