<svg id="Layer_1" data-name="Layer 1" xmlns="http://www.w3.org/2000/svg" xmlns:xlink="http://www.w3.org/1999/xlink" viewBox="0 0 33.26 60.73"><defs><style>.cls-1{fill:url(#linear-gradient);}.cls-2{fill:url(#linear-gradient-2);}.cls-3{fill:url(#linear-gradient-3);}.cls-4{fill:url(#linear-gradient-4);}.cls-5{fill:url(#linear-gradient-5);}.cls-6{fill:#fff;}</style><linearGradient id="linear-gradient" x1="25.1" y1="21.99" x2="7.29" y2="21.99" gradientUnits="userSpaceOnUse"><stop offset="0.02" stop-color="#666"/><stop offset="0.02" stop-color="#646464"/><stop offset="0.2" stop-color="#393939"/><stop offset="0.36" stop-color="#1a1a1a"/><stop offset="0.5" stop-color="#070707"/><stop offset="0.59"/><stop offset="1" stop-color="#4d4d4d"/></linearGradient><linearGradient id="linear-gradient-2" x1="27.69" y1="28.74" x2="4.39" y2="15.29" xlink:href="#linear-gradient"/><linearGradient id="linear-gradient-3" x1="6.7" y1="15.89" x2="26.87" y2="27.54" gradientUnits="userSpaceOnUse"><stop offset="0.02" stop-color="#666"/><stop offset="0.59" stop-color="#545454"/><stop offset="1" stop-color="#4d4d4d"/></linearGradient><linearGradient id="linear-gradient-4" x1="26.13" y1="21.99" x2="8.32" y2="21.99" xlink:href="#linear-gradient"/><linearGradient id="linear-gradient-5" x1="8.58" y1="36.7" x2="25.5" y2="7.4" gradientUnits="userSpaceOnUse"><stop offset="0" stop-color="#2c2c2c"/><stop offset="0.18" stop-color="#1a1a1a"/><stop offset="0.42" stop-color="#070707"/><stop offset="0.59"/><stop offset="1" stop-color="#4d4d4d"/></linearGradient></defs><path class="cls-1" d="M16.09,0c-4.92.11-8.86,10-8.8,22.19s4.1,21.9,9,21.79,8.86-10,8.8-22.18S21-.11,16.09,0Zm.12,40.72c-4.11.09-7.49-8.35-7.54-18.85S11.91,2.78,16,2.69,23.51,11,23.56,21.54,20.32,40.63,16.21,40.72Z"/><path class="cls-2" d="M15.93,0c-4.92.1-8.86,10-8.8,22.18s4.09,21.9,9,21.8a4,4,0,0,0,1.13-.2c4.38-1.46,7.73-10.78,7.67-22C24.88,9.68,20.85-.08,15.93,0Zm1.31,40.7c-4.12.09-7.49-8.35-7.54-18.85S12.94,2.79,17.05,2.7s7.49,8.35,7.54,18.85S21.35,40.64,17.24,40.73Z"/><path class="cls-3" d="M16.79,2.7C12.5,2.7,9,11.21,9,21.71s3.48,19,7.77,19,7.76-8.51,7.76-19S21.08,2.7,16.79,2.7Zm4.7,20a25.49,25.49,0,0,1-.6,5.62l-1.28-1.27a16.77,16.77,0,0,0,.56-4.42c0-3.47-.92-6.41-2.2-7.44V11.55C20,12.84,21.49,17.34,21.49,22.7ZM16,11.36v3.83c-1.28,1-2.2,4-2.2,7.44a16.77,16.77,0,0,0,.56,4.42L12.75,28.6a25.2,25.2,0,0,1-.67-5.9C12.08,17,13.75,12.32,16,11.36Zm.83,22.87c-1.32,0-2.51-1.33-3.36-3.47l1.7-1.69c.52.89,1.15,1.41,1.83,1.41s1.32-.52,1.83-1.41l1.45,1.44C19.38,32.79,18.16,34.23,16.79,34.23Z"/><path class="cls-4" d="M17.12,0C12.2.11,8.26,10,8.32,22.19s4.09,21.9,9,21.79,8.86-10,8.8-22.18S22-.11,17.12,0Zm.11,40.72c-4.11.09-7.48-8.35-7.53-18.85S12.94,2.78,17.05,2.69,24.54,11,24.59,21.54,21.35,40.63,17.23,40.72Z"/><path class="cls-5" d="M17,3c-4.24,0-7.68,8.51-7.68,19s3.44,19,7.68,19,7.69-8.51,7.69-19S21.29,3,17,3ZM12.39,23c0-5.67,1.65-10.38,3.83-11.34v1.65c-1.51,1.07-2.64,5-2.64,9.71A25.31,25.31,0,0,0,14,28l-1,1A25.37,25.37,0,0,1,12.39,23ZM17,34.56c-1.3,0-2.48-1.33-3.32-3.47l.9-.9C15.25,32,16.1,33.05,17,33.05s1.88-1.21,2.51-3.12l.91.91C19.61,33.12,18.4,34.56,17,34.56Zm3.07-6.9a26.12,26.12,0,0,0,.4-4.61c0-4.34-1-8-2.29-9.4V11.88c2,1.29,3.48,5.79,3.48,11.15a26.13,26.13,0,0,1-.59,5.62Z"/><path d="M8,52.67v-4.1H9.51a2.71,2.71,0,0,1,.82.12A1.23,1.23,0,0,1,11.19,50a1.39,1.39,0,0,1-.24.84,1.43,1.43,0,0,1-.62.48,2.15,2.15,0,0,1-.8.15H9.21v1.24Zm1.5-2.26c.35,0,.5-.14.5-.45a.34.34,0,0,0-.11-.29.76.76,0,0,0-.41-.09H9.21v.83Z"/><path class="cls-6" d="M9.51,48.67a2.45,2.45,0,0,1,.78.12,1.15,1.15,0,0,1,.58.4,1.2,1.2,0,0,1,.22.77,1.26,1.26,0,0,1-.22.78,1.33,1.33,0,0,1-.57.45,2.19,2.19,0,0,1-.77.14H9.11v1.24h-1v-3.9H9.51m-.4,1.84h.37c.4,0,.6-.18.6-.55a.41.41,0,0,0-.16-.37.84.84,0,0,0-.46-.11H9.11v1m.4-2H7.88v4.3H9.31V51.53h.22a2.13,2.13,0,0,0,.84-.16,1.41,1.41,0,0,0,.66-.51,1.43,1.43,0,0,0,.26-.9,1.48,1.48,0,0,0-.26-.9,1.4,1.4,0,0,0-.67-.46,2.61,2.61,0,0,0-.85-.13Zm-.2,1.21h.15a.62.62,0,0,1,.35.08s.07,0,.07.2-.06.35-.4.35H9.31v-.63Z"/><polygon points="13.82 52.66 13.82 51.12 12.86 51.12 12.86 52.66 11.63 52.66 11.63 48.56 12.86 48.56 12.86 50.02 13.82 50.02 13.82 48.56 15.05 48.56 15.05 52.66 13.82 52.66"/><path class="cls-6" d="M15,48.67v3.9h-1V51H12.76v1.55h-1v-3.9h1v1.45h1.16V48.67h1m.2-.2H13.72v1.45H13V48.47H11.53v4.3H13V51.22h.76v1.55h1.44v-4.3Z"/><path d="M17.78,52.67l-.19-.83h-.94l-.19.83H15.19l1.25-4.1h1.4l1.25,4.1Zm-.43-1.83,0-.15c-.05-.18-.1-.39-.15-.61a2,2,0,0,0-.05-.24c0,.08,0,.16-.05.24-.05.23-.1.43-.15.61l0,.15Z"/><path class="cls-6" d="M17.76,48.67,19,52.57H17.86l-.19-.83H16.58l-.2.83h-1l1.19-3.9h1.24m-1,2.27h.72l-.06-.27c-.05-.18-.1-.39-.15-.61s-.09-.43-.14-.63h0c0,.2-.08.41-.13.63s-.09.43-.14.61l-.07.27m1.15-2.47H16.37l-.05.14-1.18,3.9-.08.26h1.48l0-.16.15-.67h.78l.15.67,0,.16h1.52l-.08-.26L18,48.61l0-.14ZM17,50.74v0c0-.13.07-.27.1-.41,0,.14.07.28.1.41v0Z"/><path d="M20.56,52.74a2.31,2.31,0,0,1-.8-.15,1.92,1.92,0,0,1-.74-.44l-.08-.06.72-.86.07.06a1.59,1.59,0,0,0,.43.26,1,1,0,0,0,.42.1c.35,0,.35-.13.35-.18s0-.08-.09-.11a2.93,2.93,0,0,0-.38-.17L20,51a1.49,1.49,0,0,1-.58-.42,1.07,1.07,0,0,1-.26-.75,1.22,1.22,0,0,1,.44-.94,1.64,1.64,0,0,1,1.11-.38,2.09,2.09,0,0,1,.72.14,1.93,1.93,0,0,1,.65.41l.06.07-.63.79-.08,0a1.3,1.3,0,0,0-.36-.2.86.86,0,0,0-.36-.07c-.31,0-.31.12-.31.17s0,.08.1.12l.41.17.48.19a1.37,1.37,0,0,1,.6.43,1.15,1.15,0,0,1,.22.73,1.28,1.28,0,0,1-.42.94A1.69,1.69,0,0,1,20.56,52.74Z"/><path class="cls-6" d="M20.68,48.59a2.1,2.1,0,0,1,.68.13,1.79,1.79,0,0,1,.62.4l-.52.64a2.08,2.08,0,0,0-.38-.21,1.29,1.29,0,0,0-.4-.07c-.27,0-.41.09-.41.27a.23.23,0,0,0,.16.21l.42.18.47.18a1.43,1.43,0,0,1,.57.4,1.11,1.11,0,0,1,.19.67,1.17,1.17,0,0,1-.39.87,1.59,1.59,0,0,1-1.13.38,2.42,2.42,0,0,1-.77-.14,2.05,2.05,0,0,1-.71-.42l.59-.71a2.07,2.07,0,0,0,.45.27,1.18,1.18,0,0,0,.46.11c.3,0,.45-.09.45-.28a.21.21,0,0,0-.14-.2l-.39-.17L20,50.89a1.39,1.39,0,0,1-.55-.39,1,1,0,0,1-.23-.69,1.08,1.08,0,0,1,.41-.86,1.51,1.51,0,0,1,1-.36m0-.2a1.75,1.75,0,0,0-1.18.41,1.31,1.31,0,0,0-.47,1,1.22,1.22,0,0,0,.28.82,1.74,1.74,0,0,0,.63.45l.48.2.38.17c0,.09-.13.1-.22.1a1,1,0,0,1-.38-.09,1.47,1.47,0,0,1-.4-.24l-.16-.13-.12.15-.59.71-.12.15.14.13a2.37,2.37,0,0,0,.78.46,2.47,2.47,0,0,0,.83.15,1.78,1.78,0,0,0,1.27-.44,1.37,1.37,0,0,0,.45-1A1.26,1.26,0,0,0,22,50.6a1.38,1.38,0,0,0-.65-.46L20.92,50l-.41-.17,0,0c0-.06.11-.07.21-.07a.79.79,0,0,1,.32.06,1.74,1.74,0,0,1,.35.19l.15.1.12-.14.51-.65.11-.14L22.11,49a1.79,1.79,0,0,0-.68-.43,2,2,0,0,0-.75-.15Z"/><polygon points="22.61 52.66 22.61 48.56 25.33 48.56 25.33 49.63 23.84 49.63 23.84 50.04 25.11 50.04 25.11 51.1 23.84 51.1 23.84 51.6 25.39 51.6 25.39 52.66 22.61 52.66"/><path class="cls-6" d="M25.23,48.67v.86H23.74v.61H25V51H23.74v.69h1.55v.87H22.71v-3.9h2.52m.2-.2H22.51v4.3h3V51.5H23.94v-.29h1.27V49.94H23.94v-.21h1.49V48.47Z"/><path d="M12.31,58.67l-.67-1.31H11.4v1.31H10.17v-4.1h1.58a2.92,2.92,0,0,1,.8.11,1.37,1.37,0,0,1,.62.42,1.3,1.3,0,0,1,.23.83,1.4,1.4,0,0,1-.18.74,1.49,1.49,0,0,1-.41.42l.88,1.58Zm-.64-2.33c.47,0,.53-.22.53-.41a.3.3,0,0,0-.11-.27.89.89,0,0,0-.42-.08H11.4v.76Z"/><path class="cls-6" d="M11.75,54.67a2.43,2.43,0,0,1,.77.11,1.11,1.11,0,0,1,.57.39,1.21,1.21,0,0,1,.22.76,1.22,1.22,0,0,1-.18.69,1.16,1.16,0,0,1-.45.43l.84,1.52H12.37l-.67-1.31h-.4v1.31h-1v-3.9h1.48m-.45,1.77h.37q.63,0,.63-.51a.38.38,0,0,0-.16-.35.86.86,0,0,0-.47-.1H11.3v1m.45-2H10.07v4.3H11.5V57.46h.08l.61,1.2.06.11h1.61l-.16-.3-.76-1.35a1.67,1.67,0,0,0,.36-.39,1.47,1.47,0,0,0,.21-.8,1.27,1.27,0,0,0-.93-1.34,2.78,2.78,0,0,0-.83-.12Zm-.25,1.21h.17a.69.69,0,0,1,.36.07s.07,0,.07.18,0,.31-.43.31H11.5v-.56Z"/><rect x="13.95" y="54.57" width="1.23" height="4.1"/><path class="cls-6" d="M15.08,54.67v3.9h-1v-3.9h1m.2-.2H13.85v4.3h1.43v-4.3Z"/><path d="M18,58.67l-.89-1.81L17,56.54s0,.09,0,.13a6.93,6.93,0,0,1,.05.77v1.23H15.85v-4.1h1.21L18,56.36l.14.32v-.11a7.11,7.11,0,0,1,0-.78V54.57h1.18v4.1Z"/><path class="cls-6" d="M19.11,54.67v3.9H18.06l-.87-1.75L16.82,56h0c0,.22.05.47.08.73a6.91,6.91,0,0,1,.05.76v1.13h-1v-3.9H17l.86,1.74.38.87h0c0-.21-.05-.45-.08-.72a7.09,7.09,0,0,1-.05-.77V54.67h1m.2-.2H17.93v1.32c0,.1,0,.21,0,.31l-.76-1.52-.05-.11H15.74v4.3h1.39V57.44c0-.11,0-.21,0-.32l.76,1.53.05.12h1.38v-4.3Z"/><path d="M21.78,58.74a2.24,2.24,0,0,1-1-.24,1.74,1.74,0,0,1-.75-.7,2.13,2.13,0,0,1-.28-1.15A2.35,2.35,0,0,1,20,55.48a1.88,1.88,0,0,1,.75-.73,2.08,2.08,0,0,1,1-.26,1.81,1.81,0,0,1,.8.17,2.06,2.06,0,0,1,.55.38l.06.06-.66.81-.08-.06a1.22,1.22,0,0,0-.28-.2.73.73,0,0,0-.35-.07.75.75,0,0,0-.59.27,1.15,1.15,0,0,0-.23.76,1.19,1.19,0,0,0,.22.78.88.88,0,0,0,.7.26.43.43,0,0,0,.24-.06l0-.35h-.58v-1H23.2v2a1.48,1.48,0,0,1-.62.43A2.15,2.15,0,0,1,21.78,58.74Z"/><path class="cls-6" d="M21.75,54.59a1.73,1.73,0,0,1,.75.16,1.76,1.76,0,0,1,.53.36l-.54.66a2.11,2.11,0,0,0-.31-.21.87.87,0,0,0-.39-.08.85.85,0,0,0-.66.3,1.2,1.2,0,0,0-.26.83,1.32,1.32,0,0,0,.24.85,1,1,0,0,0,.78.29.56.56,0,0,0,.3-.07v-.54h-.58V56.3H23.1v1.86a1.85,1.85,0,0,1-.56.34,2.1,2.1,0,0,1-.76.14,2.33,2.33,0,0,1-1-.22,1.76,1.76,0,0,1-.71-.67,2.16,2.16,0,0,1-.26-1.1,2.19,2.19,0,0,1,.27-1.12,1.91,1.91,0,0,1,.71-.7,2,2,0,0,1,1-.24m0-.2a2.17,2.17,0,0,0-1.06.27,2,2,0,0,0-.78.77,2.35,2.35,0,0,0-.3,1.22,2.41,2.41,0,0,0,.29,1.21,1.88,1.88,0,0,0,.8.73,2.26,2.26,0,0,0,1.08.25,2.32,2.32,0,0,0,.84-.16,2,2,0,0,0,.62-.38l.06-.06V56.1H21.41v1.24H22v.2h-.1a.75.75,0,0,1-.62-.22,1.07,1.07,0,0,1-.2-.72,1,1,0,0,1,.21-.7.71.71,0,0,1,.81-.17,1.51,1.51,0,0,1,.26.18l.16.14.13-.16.54-.66.12-.14L23.17,55a2.29,2.29,0,0,0-.58-.4,1.86,1.86,0,0,0-.84-.18Z"/></svg>