<svg id="Layer_1" data-name="Layer 1" xmlns="http://www.w3.org/2000/svg" xmlns:xlink="http://www.w3.org/1999/xlink" viewBox="0 0 33.26 60.8"><defs><style>.cls-1{fill:#fff;}.cls-2,.cls-9{opacity:0.65;}.cls-3{opacity:0.61;fill:url(#linear-gradient);}.cls-4{opacity:0.51;fill:url(#linear-gradient-2);}.cls-5{fill:url(#linear-gradient-3);}.cls-6,.cls-8{stroke-miterlimit:10;stroke-width:0.38px;}.cls-6{opacity:0.43;fill:url(#linear-gradient-4);stroke:url(#linear-gradient-5);}.cls-7{fill:url(#linear-gradient-6);}.cls-10,.cls-8{opacity:0.42;}.cls-8{fill:url(#linear-gradient-7);stroke:url(#linear-gradient-8);}.cls-9{fill:url(#linear-gradient-9);}.cls-10{fill:url(#linear-gradient-10);}.cls-11{fill:url(#linear-gradient-11);}</style><linearGradient id="linear-gradient" x1="26.23" y1="26.16" x2="5.81" y2="14.37" gradientUnits="userSpaceOnUse"><stop offset="0.02" stop-color="#666"/><stop offset="0.02" stop-color="#6e6e6e"/><stop offset="0.05" stop-color="#999899"/><stop offset="0.07" stop-color="#b8b7b8"/><stop offset="0.09" stop-color="#cbcacb"/><stop offset="0.11" stop-color="#d2d1d2"/><stop offset="0.18" stop-color="#c5c4c5"/><stop offset="0.29" stop-color="#979696"/><stop offset="0.33" stop-color="#919090"/><stop offset="0.5" stop-color="#f2f2f2"/><stop offset="0.78" stop-color="#c9c8c8"/><stop offset="0.85" stop-color="#fff"/><stop offset="1" stop-color="#4d4d4d"/></linearGradient><linearGradient id="linear-gradient-2" x1="17.09" y1="39.28" x2="17.09" y2="1.25" gradientUnits="userSpaceOnUse"><stop offset="0.02" stop-color="#666"/><stop offset="0.02" stop-color="#6e6e6e"/><stop offset="0.05" stop-color="#999899"/><stop offset="0.07" stop-color="#b8b7b8"/><stop offset="0.09" stop-color="#cbcacb"/><stop offset="0.11" stop-color="#d2d1d2"/><stop offset="0.18" stop-color="#c5c4c5"/><stop offset="0.29" stop-color="#979696"/><stop offset="0.36" stop-color="#919090"/><stop offset="0.59" stop-color="#c9c8c8"/><stop offset="0.85" stop-color="#f2f2f2"/><stop offset="1" stop-color="#4d4d4d"/></linearGradient><linearGradient id="linear-gradient-3" x1="25.1" y1="21.99" x2="7.29" y2="21.99" gradientUnits="userSpaceOnUse"><stop offset="0.02" stop-color="#666"/><stop offset="0.02" stop-color="#646464"/><stop offset="0.2" stop-color="#393939"/><stop offset="0.36" stop-color="#1a1a1a"/><stop offset="0.5" stop-color="#070707"/><stop offset="0.59"/><stop offset="1" stop-color="#4d4d4d"/></linearGradient><linearGradient id="linear-gradient-4" x1="8.43" y1="36.37" x2="25.35" y2="7.06" gradientUnits="userSpaceOnUse"><stop offset="0.02" stop-color="#666"/><stop offset="0.06" stop-color="#8c8c8c"/><stop offset="0.11" stop-color="#abaaab"/><stop offset="0.15" stop-color="#bebdbe"/><stop offset="0.18" stop-color="#c5c4c5"/><stop offset="0.5" stop-color="#f2f2f2"/><stop offset="0.78" stop-color="#c9c8c8"/><stop offset="1" stop-color="#4d4d4d"/></linearGradient><linearGradient id="linear-gradient-5" x1="9" y1="21.71" x2="24.78" y2="21.71" gradientUnits="userSpaceOnUse"><stop offset="0" stop-color="#a6a5a5"/><stop offset="0.11" stop-color="#d2d1d2"/><stop offset="0.18" stop-color="#c5c4c5"/><stop offset="0.29" stop-color="#979696"/><stop offset="0.33" stop-color="#919090"/><stop offset="0.78" stop-color="#c9c8c8"/><stop offset="0.85" stop-color="#fff"/><stop offset="1" stop-color="#797979"/></linearGradient><linearGradient id="linear-gradient-6" x1="27.69" y1="28.74" x2="4.39" y2="15.29" xlink:href="#linear-gradient-3"/><linearGradient id="linear-gradient-7" x1="27.38" y1="31.87" x2="7.07" y2="11.56" gradientUnits="userSpaceOnUse"><stop offset="0" stop-color="#4d4d4d"/><stop offset="0.22" stop-color="#c9c8c8"/><stop offset="0.5" stop-color="#f2f2f2"/><stop offset="0.67" stop-color="#919090"/><stop offset="0.71" stop-color="#979696"/><stop offset="0.82" stop-color="#c5c4c5"/><stop offset="0.85" stop-color="#bebdbe"/><stop offset="0.89" stop-color="#abaaab"/><stop offset="0.94" stop-color="#8c8c8c"/><stop offset="0.98" stop-color="#666"/></linearGradient><linearGradient id="linear-gradient-8" x1="9.51" y1="21.71" x2="24.78" y2="21.71" xlink:href="#linear-gradient-5"/><linearGradient id="linear-gradient-9" x1="16.27" y1="13.25" x2="10.5" y2="7.48" gradientUnits="userSpaceOnUse"><stop offset="0" stop-color="#1a1a1a"/><stop offset="0.98" stop-color="#1a1a1a"/></linearGradient><linearGradient id="linear-gradient-10" x1="19.27" y1="20.56" x2="13.46" y2="14.74" gradientUnits="userSpaceOnUse"><stop offset="0" stop-color="#4d4d4d"/><stop offset="0.67" stop-color="#919090"/><stop offset="0.98" stop-color="#666"/></linearGradient><linearGradient id="linear-gradient-11" x1="26.13" y1="21.99" x2="8.32" y2="21.99" xlink:href="#linear-gradient-3"/></defs><polygon points="5.12 52.6 5.12 51.05 4.16 51.05 4.16 52.6 2.93 52.6 2.93 48.5 4.16 48.5 4.16 49.95 5.12 49.95 5.12 48.5 6.36 48.5 6.36 52.6 5.12 52.6"/><path class="cls-1" d="M6.26,48.6v3.9h-1V51H4.06V52.5H3V48.6h1v1.45H5.22V48.6h1m.2-.2H5v1.45H4.26V48.4H2.83v4.3H4.26V51.15H5V52.7H6.46V48.4Z"/><path d="M8.76,52.67a1.8,1.8,0,0,1-1.38-.57,2.23,2.23,0,0,1-.53-1.57A2.17,2.17,0,0,1,7.38,49a1.86,1.86,0,0,1,1.38-.55,1.88,1.88,0,0,1,1.39.55,2.17,2.17,0,0,1,.52,1.55,2.22,2.22,0,0,1-.52,1.57A1.81,1.81,0,0,1,8.76,52.67Zm0-3.15a.54.54,0,0,0-.47.25,1.36,1.36,0,0,0-.18.76,1.38,1.38,0,0,0,.19.79.54.54,0,0,0,.93,0,1.4,1.4,0,0,0,.19-.79,1.3,1.3,0,0,0-.19-.76A.53.53,0,0,0,8.76,49.52Z"/><path class="cls-1" d="M8.76,48.53a1.72,1.72,0,0,1,1.31.52,2,2,0,0,1,.51,1.48,2.1,2.1,0,0,1-.51,1.5,1.7,1.7,0,0,1-1.31.54A1.71,1.71,0,0,1,7.45,52a2.14,2.14,0,0,1-.5-1.5,2.07,2.07,0,0,1,.5-1.48,1.73,1.73,0,0,1,1.31-.52m0,3.16a.64.64,0,0,0,.56-.32,1.53,1.53,0,0,0,.2-.84,1.48,1.48,0,0,0-.2-.82.68.68,0,0,0-1.11,0,1.48,1.48,0,0,0-.2.82,1.53,1.53,0,0,0,.2.84.64.64,0,0,0,.55.32m0-3.36a2,2,0,0,0-1.45.58,2.26,2.26,0,0,0-.56,1.62,2.33,2.33,0,0,0,.56,1.64,1.89,1.89,0,0,0,1.45.6,1.9,1.9,0,0,0,1.46-.6,2.33,2.33,0,0,0,.56-1.64,2.26,2.26,0,0,0-.56-1.62,2,2,0,0,0-1.46-.58Zm0,3.16a.43.43,0,0,1-.38-.22,1.4,1.4,0,0,1-.17-.74,1.15,1.15,0,0,1,.17-.7.41.41,0,0,1,.38-.21.43.43,0,0,1,.39.21,1.25,1.25,0,0,1,.17.7,1.42,1.42,0,0,1-.17.74.44.44,0,0,1-.39.22Z"/><polygon points="11.17 52.6 11.17 48.5 13.91 48.5 13.91 49.57 12.4 49.57 12.4 50.11 13.7 50.11 13.7 51.17 12.4 51.17 12.4 52.6 11.17 52.6"/><path class="cls-1" d="M13.82,48.6v.87H12.3v.74h1.3v.86H12.3V52.5h-1V48.6h2.55m.2-.2H11.07v4.3H12.5V51.27h1.3V50H12.5v-.34H14V48.4Z"/><polygon points="14.39 52.6 14.39 48.5 17.13 48.5 17.13 49.57 15.62 49.57 15.62 50.11 16.91 50.11 16.91 51.17 15.62 51.17 15.62 52.6 14.39 52.6"/><path class="cls-1" d="M17,48.6v.87H15.52v.74h1.3v.86h-1.3V52.5h-1V48.6H17m.2-.2H14.29v4.3h1.43V51.27H17V50h-1.3v-.34h1.51V48.4Z"/><path d="M20.46,52.6V51.35a5.06,5.06,0,0,1,0-.63l-.06.21-.51,1.35h-.69l-.5-1.35,0-.12q0,.3,0,.54V52.6H17.6V48.5h1.28l.61,1.66c0,.12.07.23.1.35l0,.07,0-.07c0-.12.07-.23.1-.34l.59-1.67h1.27v4.1Z"/><path class="cls-1" d="M21.5,48.6v3.9h-.94V51.35a6.55,6.55,0,0,1,.05-.7c0-.26.06-.5.08-.69h0l-.33.93-.48,1.29h-.55l-.48-1.29L18.52,50h0c0,.19.05.43.08.69a6.55,6.55,0,0,1,.05.7V52.5H17.7V48.6h1.11l.59,1.6c0,.11.07.22.1.34s.06.23.1.34h0c0-.11.07-.23.11-.34a3.37,3.37,0,0,1,.1-.34l.56-1.6H21.5m.2-.2H20.25l-.05.14-.56,1.59,0,.08,0-.08L19,48.53,19,48.4H17.5v4.3h1.33V51.46l.29.79.05.13H20l.05-.13.31-.83V52.7H21.7V48.4Z"/><path d="M24.32,52.6l-.19-.83H23.2l-.2.83H21.73L23,48.5h1.4l1.25,4.1Zm-.43-1.82,0-.15c-.05-.18-.1-.39-.15-.61a2,2,0,0,0-.05-.24l-.05.24c-.05.22-.1.43-.15.61l0,.15Z"/><path class="cls-1" d="M24.3,48.6l1.19,3.9H24.4l-.19-.83H23.12l-.2.83H21.87l1.19-3.9H24.3m-1,2.28H24L24,50.61c-.05-.19-.1-.39-.15-.61s-.09-.43-.14-.63h0c0,.2-.08.41-.13.63s-.09.42-.14.61l-.07.27m1.15-2.48H22.91l-.05.14-1.18,3.9-.08.26h1.48l0-.15.16-.68h.77l.15.68,0,.15h1.52l-.08-.26-1.18-3.9-.05-.14Zm-.89,2.28v0a3.89,3.89,0,0,0,.1-.4c0,.14.07.28.1.41v0Z"/><path d="M27.91,52.6,27,50.8l-.14-.32s0,.08,0,.13a6.76,6.76,0,0,1,.05.76V52.6H25.76V48.5H27l.89,1.8.14.32v-.11a5.45,5.45,0,0,1-.05-.78V48.5h1.18v4.1Z"/><path class="cls-1" d="M29,48.6v3.9H28l-.87-1.74-.37-.87h0c0,.22.05.46.08.73a6.59,6.59,0,0,1,.05.75V52.5h-1V48.6h1.06l.86,1.74.38.88h0c0-.21-.05-.45-.08-.72a5.23,5.23,0,0,1-.05-.77V48.6h1m.2-.2H27.85v1.33c0,.1,0,.2,0,.31l-.76-1.53L27,48.4H25.66v4.3h1.39V51.37c0-.1,0-.2,0-.31l.76,1.53.05.11h1.38V48.4Z"/><path d="M8.71,58.6V54.5h1.52a2.39,2.39,0,0,1,.82.13,1.28,1.28,0,0,1,.63.43,1.35,1.35,0,0,1,.24.84,1.39,1.39,0,0,1-.24.84,1.49,1.49,0,0,1-.62.48,2.15,2.15,0,0,1-.8.15H9.94V58.6Zm1.5-2.25c.35,0,.5-.14.5-.45a.32.32,0,0,0-.12-.29.74.74,0,0,0-.4-.09H9.94v.83Z"/><path class="cls-1" d="M10.23,54.6a2.47,2.47,0,0,1,.79.12,1.26,1.26,0,0,1,.58.4,1.23,1.23,0,0,1,.22.78,1.21,1.21,0,0,1-.8,1.22,1.91,1.91,0,0,1-.76.15H9.84V58.5h-1V54.6h1.42m-.39,1.85h.37c.4,0,.6-.18.6-.55a.4.4,0,0,0-.16-.37.77.77,0,0,0-.46-.11H9.84v1m.39-2.05H8.61v4.3H10V57.47h.22a2.37,2.37,0,0,0,.84-.16,1.59,1.59,0,0,0,.66-.51,1.52,1.52,0,0,0,.26-.9,1.46,1.46,0,0,0-.26-.9,1.44,1.44,0,0,0-.68-.47,2.86,2.86,0,0,0-.85-.13ZM10,55.62h.15a.68.68,0,0,1,.35.07s.07.05.07.21-.07.35-.4.35H10v-.63Z"/><polygon points="12.35 58.6 12.35 54.5 13.59 54.5 13.59 57.54 15.06 57.54 15.06 58.6 12.35 58.6"/><path class="cls-1" d="M13.49,54.6v3H15v.86H12.45V54.6h1m.2-.2H12.25v4.3h2.91V57.44H13.69v-3Z"/><path d="M17.53,58.6l-.19-.83h-.93l-.19.83H15l1.25-4.1h1.39l1.25,4.1Zm-.42-1.82,0-.15L16.93,56l-.06-.24-.05.24c0,.22-.09.43-.14.61l0,.15Z"/><path class="cls-1" d="M17.52,54.6l1.19,3.9h-1.1l-.19-.83H16.33l-.19.83H15.08l1.19-3.9h1.25m-1,2.28h.72l-.07-.27c-.05-.19-.1-.39-.14-.61s-.1-.43-.15-.63h0c0,.2-.09.41-.13.63s-.1.42-.15.61l-.06.27m1.15-2.48H16.12l0,.14-1.19,3.9-.08.26H16.3l0-.15.16-.68h.77l.16.68,0,.15H19l-.08-.26-1.19-3.9,0-.14Zm-.9,2.28v0c0-.12.06-.26.1-.4,0,.14.06.28.1.41v0Z"/><polygon points="19.24 58.6 19.24 55.57 18.21 55.57 18.21 54.5 21.5 54.5 21.5 55.57 20.47 55.57 20.47 58.6 19.24 58.6"/><path class="cls-1" d="M21.41,54.6v.87h-1v3h-1v-3h-1V54.6h3.1m.2-.2h-3.5v1.27h1v3h1.43v-3h1V54.4Z"/><polygon points="21.88 58.6 21.88 54.5 24.6 54.5 24.6 55.57 23.11 55.57 23.11 55.98 24.39 55.98 24.39 57.04 23.11 57.04 23.11 57.54 24.66 57.54 24.66 58.6 21.88 58.6"/><path class="cls-1" d="M24.5,54.6v.87H23v.61h1.28v.86H23v.7h1.55v.86H22V54.6H24.5m.2-.2H21.78v4.3h3V57.44H23.21v-.3h1.28V55.88H23.21v-.21H24.7V54.4Z"/><g class="cls-2"><ellipse class="cls-3" cx="16.02" cy="20.27" rx="8.04" ry="19.02"/><ellipse class="cls-4" cx="17.09" cy="20.27" rx="8.04" ry="19.02"/></g><path class="cls-5" d="M16.09,0c-4.92.11-8.86,10-8.8,22.19s4.1,21.9,9,21.79,8.86-10,8.8-22.18S21-.11,16.09,0Zm.12,40.72c-4.11.09-7.49-8.35-7.54-18.85S11.91,2.78,16,2.69,23.51,11,23.56,21.54,20.32,40.63,16.21,40.72Z"/><ellipse class="cls-6" cx="16.89" cy="21.71" rx="7.7" ry="19.02"/><path class="cls-7" d="M15.93,0c-4.92.1-8.86,10-8.8,22.18s4.09,21.9,9,21.8a4,4,0,0,0,1.13-.2c4.38-1.46,7.73-10.78,7.67-22C24.88,9.68,20.85-.08,15.93,0Zm1.31,40.7c-4.12.09-7.49-8.35-7.54-18.85S12.94,2.79,17.05,2.7s7.49,8.35,7.54,18.85S21.35,40.64,17.24,40.73Z"/><path class="cls-8" d="M24.59,22.26c-.1,8.49-3.06,18.21-7.19,18.47-4.29.28-7.7-9.81-7.7-19s3.41-19.28,7.7-19S24.7,13.32,24.59,22.26Z"/><path class="cls-9" d="M22.34,7.19c-1.31-2.86-3-4.78-5-4.89-4.32-.25-7.81,8.5-8.26,17.15Z"/><path class="cls-10" d="M22.6,6.58,9.13,19.06c0,.4,0,.79,0,1.18a37.89,37.89,0,0,0,1,8.43L24.81,15A33.14,33.14,0,0,0,22.6,6.58Z"/><path class="cls-11" d="M17.12,0C12.2.11,8.26,10,8.32,22.19s4.09,21.9,9,21.79,8.86-10,8.8-22.18S22-.11,17.12,0Zm.11,40.72c-4.11.09-7.48-8.35-7.53-18.85S12.94,2.78,17.05,2.69,24.54,11,24.59,21.54,21.35,40.63,17.23,40.72Z"/></svg>