<svg xmlns="http://www.w3.org/2000/svg" xmlns:xlink="http://www.w3.org/1999/xlink" viewBox="0 0 33.26 60.77"><defs><style>.cls-1{isolation:isolate;}.cls-2{opacity:0.65;}.cls-3{opacity:0.61;fill:url(#linear-gradient);}.cls-4{opacity:0.51;fill:url(#linear-gradient-2);}.cls-5{fill:url(#linear-gradient-3);}.cls-6,.cls-9{mix-blend-mode:multiply;}.cls-6{fill:url(#linear-gradient-4);}.cls-7{fill:url(#linear-gradient-5);}.cls-8{fill:url(#linear-gradient-6);}.cls-9{fill:url(#linear-gradient-7);}.cls-10{fill:url(#linear-gradient-8);}.cls-11{fill:url(#linear-gradient-9);}.cls-12{fill:url(#linear-gradient-10);}.cls-13{fill:#8e8e8e;}</style><linearGradient id="linear-gradient" x1="26.68" y1="27.72" x2="5.35" y2="15.4" gradientUnits="userSpaceOnUse"><stop offset="0.02" stop-color="#666"/><stop offset="0.02" stop-color="#6e6e6e"/><stop offset="0.05" stop-color="#999899"/><stop offset="0.07" stop-color="#b8b7b8"/><stop offset="0.09" stop-color="#cbcacb"/><stop offset="0.11" stop-color="#d2d1d2"/><stop offset="0.18" stop-color="#c5c4c5"/><stop offset="0.29" stop-color="#979696"/><stop offset="0.33" stop-color="#919090"/><stop offset="0.5" stop-color="#f2f2f2"/><stop offset="0.78" stop-color="#c9c8c8"/><stop offset="0.85" stop-color="#fff"/><stop offset="1" stop-color="#4d4d4d"/></linearGradient><linearGradient id="linear-gradient-2" x1="17.09" y1="41.87" x2="17.09" y2="1.25" gradientUnits="userSpaceOnUse"><stop offset="0.02" stop-color="#666"/><stop offset="0.02" stop-color="#6e6e6e"/><stop offset="0.05" stop-color="#999899"/><stop offset="0.07" stop-color="#b8b7b8"/><stop offset="0.09" stop-color="#cbcacb"/><stop offset="0.11" stop-color="#d2d1d2"/><stop offset="0.18" stop-color="#c5c4c5"/><stop offset="0.29" stop-color="#979696"/><stop offset="0.36" stop-color="#919090"/><stop offset="0.59" stop-color="#c9c8c8"/><stop offset="0.85" stop-color="#f2f2f2"/><stop offset="1" stop-color="#4d4d4d"/></linearGradient><linearGradient id="linear-gradient-3" x1="25.1" y1="21.99" x2="7.29" y2="21.99" gradientUnits="userSpaceOnUse"><stop offset="0.02" stop-color="#666"/><stop offset="0.02" stop-color="#646464"/><stop offset="0.2" stop-color="#393939"/><stop offset="0.36" stop-color="#1a1a1a"/><stop offset="0.5" stop-color="#070707"/><stop offset="0.59"/><stop offset="1" stop-color="#4d4d4d"/></linearGradient><linearGradient id="linear-gradient-4" x1="8.43" y1="36.37" x2="25.35" y2="7.06" gradientUnits="userSpaceOnUse"><stop offset="0" stop-color="#999"/><stop offset="0.85" stop-color="#999"/></linearGradient><linearGradient id="linear-gradient-5" x1="27.69" y1="28.74" x2="4.39" y2="15.29" xlink:href="#linear-gradient-3"/><linearGradient id="linear-gradient-6" x1="26.13" y1="21.99" x2="8.32" y2="21.99" xlink:href="#linear-gradient-3"/><linearGradient id="linear-gradient-7" x1="27.12" y1="11.56" x2="6.8" y2="31.87" xlink:href="#linear-gradient-4"/><linearGradient id="linear-gradient-8" x1="19.79" y1="21.71" x2="13.08" y2="21.71" xlink:href="#linear-gradient-3"/><linearGradient id="linear-gradient-9" x1="20.18" y1="21.71" x2="13.46" y2="21.71" gradientUnits="userSpaceOnUse"><stop offset="0"/><stop offset="1" stop-color="#292929"/></linearGradient><linearGradient id="linear-gradient-10" x1="30.38" y1="27.73" x2="15.41" y2="12.76" gradientUnits="userSpaceOnUse"><stop offset="0" stop-color="#b9b9b9"/><stop offset="0.29" stop-color="#c5c5c5"/><stop offset="0.59" stop-color="#ccc"/><stop offset="1" stop-color="#9f9f9f"/></linearGradient></defs><g class="cls-1"><g id="Layer_1" data-name="Layer 1"><g class="cls-2"><ellipse class="cls-3" cx="16.02" cy="21.56" rx="8.04" ry="20.31"/><ellipse class="cls-4" cx="17.09" cy="21.56" rx="8.04" ry="20.31"/></g><path class="cls-5" d="M16.09,0c-4.92.11-8.86,10-8.8,22.19s4.1,21.9,9,21.79,8.86-10,8.8-22.18S21-.11,16.09,0Zm.12,40.72c-4.11.09-7.49-8.35-7.54-18.85S11.91,2.78,16,2.69,23.51,11,23.56,21.54,20.32,40.63,16.21,40.72Z"/><ellipse class="cls-6" cx="16.89" cy="21.71" rx="7.7" ry="19.02"/><path class="cls-7" d="M15.93,0c-4.92.1-8.86,10-8.8,22.18s4.09,21.9,9,21.8a4,4,0,0,0,1.13-.2c4.38-1.46,7.73-10.78,7.67-22C24.88,9.68,20.85-.08,15.93,0Zm1.31,40.7c-4.12.09-7.49-8.35-7.54-18.85S12.94,2.79,17.05,2.7s7.49,8.35,7.54,18.85S21.35,40.64,17.24,40.73Z"/><path class="cls-8" d="M17.12,0C12.2.11,8.26,10,8.32,22.19s4.09,21.9,9,21.79,8.86-10,8.8-22.18S22-.11,17.12,0Zm.11,40.72c-4.11.09-7.48-8.35-7.53-18.85S12.94,2.78,17.05,2.69,24.54,11,24.59,21.54,21.35,40.63,17.23,40.72Z"/><path class="cls-9" d="M24.33,22.26c-.1,8.49-3.06,18.21-7.19,18.47-4.29.28-7.7-9.81-7.7-19s3.41-19.28,7.7-19S24.44,13.32,24.33,22.26Z"/><path class="cls-10" d="M16.4,13.77c-1.86,0-3.34,3.63-3.32,8s1.54,7.9,3.4,7.87,3.34-3.63,3.31-8S18.25,13.74,16.4,13.77Zm0,14.71c-1.55,0-2.82-3-2.84-6.81s1.22-6.89,2.77-6.93,2.82,3,2.84,6.81S18,28.45,16.44,28.48Z"/><path class="cls-11" d="M16.78,13.77c-1.85,0-3.34,3.63-3.32,8s1.55,7.9,3.4,7.87,3.34-3.63,3.32-8S18.64,13.74,16.78,13.77Zm0,14.71c-1.55,0-2.83-3-2.85-6.81s1.23-6.89,2.78-6.93,2.82,3,2.84,6.81S18.38,28.45,16.83,28.48Z"/><path class="cls-12" d="M24.45,33.66a48.27,48.27,0,0,0,1.4-12.09A42.85,42.85,0,0,0,23.25,6.3l-1.75.38a28.76,28.76,0,0,1,2.32,8.17,45.37,45.37,0,0,1,.48,6.46,39.33,39.33,0,0,1-1.86,12.78Z"/><path class="cls-13" d="M9.19,52.57,8,48.67h1.1l.4,1.7c.06.21.11.41.15.62s.09.41.14.62h0c.05-.21.1-.42.14-.62s.09-.41.14-.62l.4-1.7H11.6l-1.16,3.9Z"/><path class="cls-13" d="M13.89,52.57l-.2-.83H12.6l-.19.83H11.36l1.18-3.9h1.25L15,52.57Zm-1-1.9-.07.27h.72l-.07-.27-.14-.61-.15-.63h0c0,.2-.08.41-.13.63Z"/><path class="cls-13" d="M16.38,52.57h-1v-3.9h1.48a2.39,2.39,0,0,1,.77.11,1.11,1.11,0,0,1,.57.39,1.15,1.15,0,0,1,.22.76,1.22,1.22,0,0,1-.18.69,1.16,1.16,0,0,1-.45.43l.84,1.52H17.45l-.67-1.31h-.4Zm0-2.13h.37q.63,0,.63-.51a.36.36,0,0,0-.16-.35.86.86,0,0,0-.47-.1h-.37Z"/><path class="cls-13" d="M19.13,52.57v-3.9h2.52v.86H20.16v.61h1.28V51H20.16v.69h1.55v.87Z"/><path class="cls-13" d="M22.47,52.57v-3.9h1v3H25v.87Z"/><path class="cls-13" d="M11.33,58.57h-1v-3.9h1.48a2.43,2.43,0,0,1,.77.11,1.15,1.15,0,0,1,.57.39,1.21,1.21,0,0,1,.21.76,1.22,1.22,0,0,1-.17.69,1.19,1.19,0,0,1-.46.43l.85,1.52H12.4l-.67-1.31h-.4Zm0-2.13h.37q.63,0,.63-.51a.38.38,0,0,0-.16-.35.86.86,0,0,0-.47-.1h-.37Z"/><path class="cls-13" d="M14.08,58.57v-3.9h1v3.9Z"/><path class="cls-13" d="M16,58.57v-3.9H17l.86,1.74.38.87h0c0-.21-.05-.45-.08-.72a5.23,5.23,0,0,1-.05-.77V54.67h1v3.9H18.09l-.87-1.75L16.85,56h0c0,.22.05.47.08.73a6.91,6.91,0,0,1,.05.76v1.13Z"/><path class="cls-13" d="M21.81,58.64a2.33,2.33,0,0,1-1-.22,1.76,1.76,0,0,1-.71-.67,2.16,2.16,0,0,1-.26-1.1,2.19,2.19,0,0,1,.27-1.12,1.91,1.91,0,0,1,.71-.7,2,2,0,0,1,1-.24,1.73,1.73,0,0,1,.75.16,1.9,1.9,0,0,1,.53.36l-.54.66a2.11,2.11,0,0,0-.31-.21.87.87,0,0,0-.39-.08.84.84,0,0,0-.66.3,1.2,1.2,0,0,0-.26.83,1.32,1.32,0,0,0,.24.85,1,1,0,0,0,.77.29.51.51,0,0,0,.3-.07v-.54h-.57V56.3h1.49v1.86a1.85,1.85,0,0,1-.56.34A2.1,2.1,0,0,1,21.81,58.64Z"/></g></g></svg>