<svg id="Layer_1" data-name="Layer 1" xmlns="http://www.w3.org/2000/svg" xmlns:xlink="http://www.w3.org/1999/xlink" viewBox="0 0 33.26 60.8"><defs><style>.cls-1{fill:#fff;}.cls-2{fill:url(#linear-gradient);}.cls-3{fill:url(#linear-gradient-2);}.cls-4{fill:url(#linear-gradient-3);}.cls-5{fill:url(#linear-gradient-4);}</style><linearGradient id="linear-gradient" x1="25.1" y1="21.99" x2="7.29" y2="21.99" gradientUnits="userSpaceOnUse"><stop offset="0.02" stop-color="#666"/><stop offset="0.02" stop-color="#646464"/><stop offset="0.2" stop-color="#393939"/><stop offset="0.36" stop-color="#1a1a1a"/><stop offset="0.5" stop-color="#070707"/><stop offset="0.59"/><stop offset="1" stop-color="#4d4d4d"/></linearGradient><linearGradient id="linear-gradient-2" x1="27.69" y1="28.74" x2="4.39" y2="15.29" xlink:href="#linear-gradient"/><linearGradient id="linear-gradient-3" x1="26.13" y1="21.99" x2="8.32" y2="21.99" xlink:href="#linear-gradient"/><linearGradient id="linear-gradient-4" x1="6.71" y1="15.61" x2="27.22" y2="27.45" gradientUnits="userSpaceOnUse"><stop offset="0" stop-color="#2c2c2c"/><stop offset="0.18" stop-color="#1a1a1a"/><stop offset="0.42" stop-color="#070707"/><stop offset="0.59"/><stop offset="1" stop-color="#4d4d4d"/></linearGradient></defs><path d="M1.2,52.67v-4.1H2.45A2.31,2.31,0,0,1,4,49a1.88,1.88,0,0,1,.6,1.56A2,2,0,0,1,4,52.17a2.16,2.16,0,0,1-1.46.5Zm1.23-1a1,1,0,0,0,.61-.2,1,1,0,0,0,.26-.83c0-.42-.08-.7-.25-.82a1.14,1.14,0,0,0-.62-.19Z"/><path class="cls-1" d="M2.45,48.67a2.24,2.24,0,0,1,1.45.45,1.8,1.8,0,0,1,.56,1.48,1.88,1.88,0,0,1-.55,1.5,2.1,2.1,0,0,1-1.4.47H1.3v-3.9H2.45m-.12,3.07h.06a1.17,1.17,0,0,0,.72-.23,1.14,1.14,0,0,0,.29-.91,1.08,1.08,0,0,0-.29-.9,1.22,1.22,0,0,0-.72-.21H2.33v2.25m.12-3.27H1.1v4.3H2.51A2.3,2.3,0,0,0,4,52.25a2.07,2.07,0,0,0,.62-1.65A2,2,0,0,0,4,49a2.4,2.4,0,0,0-1.57-.49Zm.08,3.06V49.7a.88.88,0,0,1,.46.17c.14.09.21.35.21.73s-.07.64-.22.75a.83.83,0,0,1-.45.18Z"/><path d="M7.05,52.67l-.19-.83H5.93l-.19.83H4.47l1.24-4.1h1.4l1.25,4.1Zm-.42-1.83,0-.15c0-.18-.1-.39-.14-.61l-.06-.24a2,2,0,0,1,0,.24c0,.23-.1.43-.14.61l0,.15Z"/><path class="cls-1" d="M7,48.67l1.18,3.9H7.13l-.19-.83H5.85l-.19.83H4.6l1.19-3.9H7M6,50.94h.72l-.06-.27c-.05-.18-.1-.39-.15-.61s-.09-.43-.14-.63h0c0,.2-.09.41-.14.63s-.09.43-.14.61L6,50.94m1.15-2.47H5.64l0,.14-1.19,3.9-.08.26H5.81l0-.16L6,51.94h.77l.16.67,0,.16H8.49l-.07-.26-1.19-3.9-.05-.14Zm-.89,2.27v0c0-.13.07-.27.1-.41,0,.14.07.28.1.41v0Z"/><path d="M10.63,52.67,10,51.36H9.73v1.31H8.5v-4.1h1.57a3,3,0,0,1,.81.11,1.34,1.34,0,0,1,.61.42,1.55,1.55,0,0,1,0,1.57,1.34,1.34,0,0,1-.4.42L12,52.67ZM10,50.34c.46,0,.52-.22.52-.41s-.08-.25-.11-.27a.87.87,0,0,0-.41-.08H9.73v.76Z"/><path class="cls-1" d="M10.07,48.67a2.45,2.45,0,0,1,.78.11,1.08,1.08,0,0,1,.78,1.15,1.31,1.31,0,0,1-.17.69,1.19,1.19,0,0,1-.46.43l.85,1.52H10.7L10,51.26H9.63v1.31h-1v-3.9h1.47m-.44,1.77H10c.42,0,.62-.17.62-.51a.36.36,0,0,0-.16-.35.83.83,0,0,0-.46-.1H9.63v1m.44-2H8.4v4.3H9.83V51.46H9.9l.62,1.2.05.11h1.62l-.17-.3-.75-1.35a1.67,1.67,0,0,0,.36-.39,1.56,1.56,0,0,0,.2-.8,1.43,1.43,0,0,0-.26-.89,1.35,1.35,0,0,0-.66-.45,2.84,2.84,0,0,0-.84-.12Zm-.24,1.21H10a.69.69,0,0,1,.36.07s.06,0,.06.18,0,.31-.42.31H9.83v-.56Z"/><polygon points="14.59 52.66 13.77 51.25 13.49 51.65 13.51 52.66 12.28 52.66 12.28 48.56 13.51 48.56 13.51 49.87 14.33 48.61 15.54 48.56 15.74 48.56 14.5 50.26 15.95 52.66 14.59 52.66"/><path class="cls-1" d="M15.54,48.67l-1.16,1.58,1.39,2.32H14.64l-.86-1.5-.37.52v1h-1v-3.9h1v1.45h0l1-1.45h1.12m.4-.2H14.31l-.06.08-.64,1v-1H12.18v4.3h1.43V51.66l.15-.22.71,1.23.06.1h1.6l-.19-.31-1.32-2.2,1.08-1.48.24-.31Z"/><polygon points="17.24 52.66 17.24 48.56 19.99 48.56 19.99 49.63 18.48 49.63 18.48 50.17 19.77 50.17 19.77 51.24 18.48 51.24 18.48 52.66 17.24 52.66"/><path class="cls-1" d="M19.89,48.67v.86H18.38v.74h1.29v.87H18.38v1.43h-1v-3.9h2.55m.2-.2H17.14v4.3h1.44V51.34h1.29V50.07H18.58v-.34h1.51V48.47Z"/><rect x="20.46" y="48.57" width="1.23" height="4.1"/><path class="cls-1" d="M21.59,48.67v3.9h-1v-3.9h1m.2-.2H20.36v4.3h1.43v-4.3Z"/><polygon points="22.36 52.66 22.36 48.56 25.07 48.56 25.07 49.63 23.59 49.63 23.59 50.04 24.86 50.04 24.86 51.1 23.59 51.1 23.59 51.6 25.14 51.6 25.14 52.66 22.36 52.66"/><path class="cls-1" d="M25,48.67v.86H23.49v.61h1.27V51H23.49v.69H25v.87H22.45v-3.9H25m.2-.2H22.25v4.3h3V51.5H23.69v-.29H25V49.94H23.69v-.21h1.49V48.47Z"/><polygon points="25.69 52.66 25.69 48.56 26.92 48.56 26.92 51.6 28.4 51.6 28.4 52.66 25.69 52.66"/><path class="cls-1" d="M26.82,48.67v3H28.3v.87H25.79v-3.9h1m.2-.2H25.59v4.3H28.5V51.5H27v-3Z"/><path d="M28.87,52.67v-4.1h1.25a2.29,2.29,0,0,1,1.51.47,1.88,1.88,0,0,1,.6,1.56,2,2,0,0,1-.59,1.57,2.16,2.16,0,0,1-1.46.5Zm1.23-1a1,1,0,0,0,.62-.2A1,1,0,0,0,31,50.6c0-.42-.08-.7-.25-.82a1.14,1.14,0,0,0-.62-.19Z"/><path class="cls-1" d="M30.12,48.67a2.24,2.24,0,0,1,1.45.45,1.8,1.8,0,0,1,.56,1.48,1.88,1.88,0,0,1-.55,1.5,2.1,2.1,0,0,1-1.4.47H29v-3.9h1.15M30,51.74h.06a1.17,1.17,0,0,0,.72-.23,1.14,1.14,0,0,0,.29-.91,1.08,1.08,0,0,0-.29-.9,1.22,1.22,0,0,0-.72-.21H30v2.25m.12-3.27H28.77v4.3h1.41a2.3,2.3,0,0,0,1.53-.52,2.07,2.07,0,0,0,.62-1.65A2,2,0,0,0,31.69,49a2.4,2.4,0,0,0-1.57-.49Zm.08,3.06V49.7a.88.88,0,0,1,.46.17c.14.09.21.35.21.73s-.07.64-.22.75a.83.83,0,0,1-.45.18Z"/><path d="M11.16,58.74a2.39,2.39,0,0,1-.8-.15,2.08,2.08,0,0,1-.74-.44l-.07-.06.71-.86.08.06a1.45,1.45,0,0,0,.43.26,1,1,0,0,0,.42.1c.34,0,.34-.13.34-.18a.11.11,0,0,0-.08-.11,3.72,3.72,0,0,0-.38-.17L10.58,57a1.53,1.53,0,0,1-.59-.42,1.12,1.12,0,0,1-.26-.75,1.22,1.22,0,0,1,.44-.94,1.66,1.66,0,0,1,1.11-.38,2,2,0,0,1,.72.14,1.93,1.93,0,0,1,.65.41l.06.07-.63.79-.07,0a1.66,1.66,0,0,0-.36-.2.9.9,0,0,0-.37-.07c-.3,0-.3.12-.3.17s0,.08.09.12l.42.17.47.19a1.4,1.4,0,0,1,.61.43,1.22,1.22,0,0,1,.22.73,1.29,1.29,0,0,1-.43.94A1.66,1.66,0,0,1,11.16,58.74Z"/><path class="cls-1" d="M11.28,54.59a2,2,0,0,1,.68.13,1.7,1.7,0,0,1,.62.4l-.52.64a2.08,2.08,0,0,0-.38-.21,1.24,1.24,0,0,0-.4-.07c-.27,0-.4.09-.4.27A.23.23,0,0,0,11,56l.42.18.48.18a1.32,1.32,0,0,1,.56.4,1.11,1.11,0,0,1,.2.67,1.15,1.15,0,0,1-.4.87,1.57,1.57,0,0,1-1.13.38,2.36,2.36,0,0,1-.76-.14,2,2,0,0,1-.71-.42l.59-.71a1.68,1.68,0,0,0,.45.27,1.14,1.14,0,0,0,.46.11c.29,0,.44-.09.44-.28a.21.21,0,0,0-.14-.2,2.6,2.6,0,0,0-.39-.17l-.48-.21a1.32,1.32,0,0,1-.55-.39,1,1,0,0,1-.24-.69,1.11,1.11,0,0,1,.41-.86,1.51,1.51,0,0,1,1-.36m0-.2a1.72,1.72,0,0,0-1.17.41,1.29,1.29,0,0,0-.48,1,1.23,1.23,0,0,0,.29.82,1.63,1.63,0,0,0,.62.45l.49.2.37.17c0,.09-.12.1-.21.1a1,1,0,0,1-.39-.09,1.63,1.63,0,0,1-.4-.24l-.15-.13-.13.15L9.53,58l-.12.15.14.13a2.37,2.37,0,0,0,.78.46,2.47,2.47,0,0,0,.83.15,1.77,1.77,0,0,0,1.27-.44,1.38,1.38,0,0,0,.46-1,1.26,1.26,0,0,0-.24-.79,1.38,1.38,0,0,0-.65-.46L11.52,56l-.4-.17,0,0c0-.06.11-.07.2-.07a.88.88,0,0,1,.33.06,1.68,1.68,0,0,1,.34.19l.15.1.12-.14.52-.65.11-.14L12.72,55a1.91,1.91,0,0,0-.69-.43,2,2,0,0,0-.75-.15Z"/><polygon points="13.84 58.66 13.84 55.63 12.8 55.63 12.8 54.56 16.1 54.56 16.1 55.63 15.07 55.63 15.07 58.66 13.84 58.66"/><path class="cls-1" d="M16,54.67v.86H15v3h-1v-3h-1v-.86H16m.2-.2H12.7v1.26h1v3h1.43v-3h1V54.47Z"/><path d="M18,58.74a1.82,1.82,0,0,1-1.38-.57,2.2,2.2,0,0,1-.53-1.57,2.14,2.14,0,0,1,.53-1.55,2,2,0,0,1,2.76,0A2.14,2.14,0,0,1,20,56.6a2.24,2.24,0,0,1-.53,1.57A1.82,1.82,0,0,1,18,58.74Zm0-3.16a.54.54,0,0,0-.47.25,1.39,1.39,0,0,0-.19.77,1.45,1.45,0,0,0,.19.78.54.54,0,0,0,.94,0,1.45,1.45,0,0,0,.19-.78,1.39,1.39,0,0,0-.19-.77A.54.54,0,0,0,18,55.58Z"/><path class="cls-1" d="M18,54.59a1.72,1.72,0,0,1,1.31.53,2.05,2.05,0,0,1,.5,1.48,2.14,2.14,0,0,1-.5,1.5,1.86,1.86,0,0,1-2.62,0,2.09,2.09,0,0,1-.5-1.5,2,2,0,0,1,.5-1.48A1.72,1.72,0,0,1,18,54.59m0,3.16a.62.62,0,0,0,.55-.31,1.49,1.49,0,0,0,.21-.84,1.38,1.38,0,0,0-.21-.82.65.65,0,0,0-1.1,0,1.38,1.38,0,0,0-.21.82,1.49,1.49,0,0,0,.21.84.62.62,0,0,0,.55.31m0-3.36a2,2,0,0,0-1.46.59A2.24,2.24,0,0,0,16,56.6a2.28,2.28,0,0,0,.55,1.63,2.05,2.05,0,0,0,2.92,0,2.33,2.33,0,0,0,.55-1.63A2.24,2.24,0,0,0,19.49,55,1.92,1.92,0,0,0,18,54.39Zm0,3.16a.42.42,0,0,1-.38-.22,1.29,1.29,0,0,1-.18-.73,1.26,1.26,0,0,1,.17-.71.47.47,0,0,1,.78,0,1.26,1.26,0,0,1,.17.71,1.29,1.29,0,0,1-.18.73.42.42,0,0,1-.38.22Z"/><path d="M20.45,58.67v-4.1H22a2.64,2.64,0,0,1,.81.12A1.22,1.22,0,0,1,23.66,56a1.39,1.39,0,0,1-.24.84,1.43,1.43,0,0,1-.62.48,2.15,2.15,0,0,1-.8.15h-.32v1.24ZM22,56.41c.35,0,.5-.14.5-.45a.32.32,0,0,0-.12-.29.72.72,0,0,0-.4-.09h-.25v.83Z"/><path class="cls-1" d="M22,54.67a2.45,2.45,0,0,1,.78.12,1.15,1.15,0,0,1,.58.4,1.2,1.2,0,0,1,.22.77,1.26,1.26,0,0,1-.22.78,1.33,1.33,0,0,1-.57.45,2.19,2.19,0,0,1-.77.14h-.42v1.24h-1v-3.9H22m-.4,1.84H22c.4,0,.6-.18.6-.55a.41.41,0,0,0-.16-.37.84.84,0,0,0-.46-.11h-.35v1m.4-2H20.35v4.3h1.43V57.53H22a2.13,2.13,0,0,0,.84-.16,1.46,1.46,0,0,0,.66-.51,1.5,1.5,0,0,0,.26-.9,1.48,1.48,0,0,0-.26-.9,1.44,1.44,0,0,0-.67-.46,2.61,2.61,0,0,0-.85-.13Zm-.2,1.21h.15a.65.65,0,0,1,.35.08s.07,0,.07.2-.07.35-.4.35h-.17v-.63Z"/><path class="cls-2" d="M16.09,0c-4.92.11-8.86,10-8.8,22.19s4.1,21.9,9,21.79,8.86-10,8.8-22.18S21-.11,16.09,0Zm.12,40.72c-4.11.09-7.49-8.35-7.54-18.85S11.91,2.78,16,2.69,23.51,11,23.56,21.54,20.32,40.63,16.21,40.72Z"/><path class="cls-3" d="M15.93,0c-4.92.1-8.86,10-8.8,22.18s4.09,21.9,9,21.8a4,4,0,0,0,1.13-.2c4.38-1.46,7.73-10.78,7.67-22C24.88,9.68,20.85-.08,15.93,0Zm1.31,40.7c-4.12.09-7.49-8.35-7.54-18.85S12.94,2.79,17.05,2.7s7.49,8.35,7.54,18.85S21.35,40.64,17.24,40.73Z"/><path class="cls-4" d="M17.12,0C12.2.11,8.26,10,8.32,22.19s4.09,21.9,9,21.79,8.86-10,8.8-22.18S22-.11,17.12,0Zm.11,40.72c-4.11.09-7.48-8.35-7.53-18.85S12.94,2.78,17.05,2.69,24.54,11,24.59,21.54,21.35,40.63,17.23,40.72Z"/><path class="cls-5" d="M17,2c-4.28,0-7.75,8.73-7.75,19.5S12.68,41,17,41s7.75-8.73,7.75-19.5S21.24,2,17,2ZM23.61,21.8a44.91,44.91,0,0,1-.69,8l-.72-.63a41,41,0,0,0,.67-7.56c0-8.55-2.34-15.58-5.35-16.47V3.66C20.93,4.49,23.61,12.29,23.61,21.8ZM16.41,3.65V5.1c-3.1.65-5.54,7.79-5.54,16.51A42.38,42.38,0,0,0,11.51,29l-.63.56a44.86,44.86,0,0,1-.65-7.79C10.23,12.21,13,4.36,16.41,3.65ZM16.92,40c-2.5,0-4.67-3.73-5.82-9.26l.65-.57c1.05,4.78,2.95,8,5.12,8S20.9,35,22,30.34l.7.61.05,0C21.55,36.36,19.39,40,16.92,40Z"/></svg>