<svg id="Layer_1" data-name="Layer 1" xmlns="http://www.w3.org/2000/svg" xmlns:xlink="http://www.w3.org/1999/xlink" viewBox="0 0 33.26 60.73"><defs><style>.cls-1{fill:url(#linear-gradient);}.cls-2{fill:url(#linear-gradient-2);}.cls-3{fill:url(#linear-gradient-3);}.cls-4{fill:url(#linear-gradient-4);}.cls-5{fill:url(#linear-gradient-5);}.cls-6{fill:#8e8e8e;}.cls-7{fill:#fff;}</style><linearGradient id="linear-gradient" x1="25.1" y1="21.99" x2="7.29" y2="21.99" gradientUnits="userSpaceOnUse"><stop offset="0.02" stop-color="#666"/><stop offset="0.02" stop-color="#646464"/><stop offset="0.2" stop-color="#393939"/><stop offset="0.36" stop-color="#1a1a1a"/><stop offset="0.5" stop-color="#070707"/><stop offset="0.59"/><stop offset="1" stop-color="#4d4d4d"/></linearGradient><linearGradient id="linear-gradient-2" x1="27.69" y1="28.74" x2="4.39" y2="15.29" xlink:href="#linear-gradient"/><linearGradient id="linear-gradient-3" x1="6.7" y1="15.89" x2="26.87" y2="27.54" gradientUnits="userSpaceOnUse"><stop offset="0.02" stop-color="#666"/><stop offset="0.59" stop-color="#545454"/><stop offset="1" stop-color="#4d4d4d"/></linearGradient><linearGradient id="linear-gradient-4" x1="26.13" y1="21.99" x2="8.32" y2="21.99" xlink:href="#linear-gradient"/><linearGradient id="linear-gradient-5" x1="8.58" y1="36.7" x2="25.5" y2="7.4" gradientUnits="userSpaceOnUse"><stop offset="0" stop-color="#2c2c2c"/><stop offset="0.18" stop-color="#1a1a1a"/><stop offset="0.42" stop-color="#070707"/><stop offset="0.59"/><stop offset="1" stop-color="#4d4d4d"/></linearGradient></defs><path class="cls-1" d="M16.09,0c-4.92.11-8.86,10-8.8,22.19s4.1,21.9,9,21.79,8.86-10,8.8-22.18S21-.11,16.09,0Zm.12,40.72c-4.11.09-7.49-8.35-7.54-18.85S11.91,2.78,16,2.69,23.51,11,23.56,21.54,20.32,40.63,16.21,40.72Z"/><path class="cls-2" d="M15.93,0c-4.92.1-8.86,10-8.8,22.18s4.09,21.9,9,21.8a4,4,0,0,0,1.13-.2c4.38-1.46,7.73-10.78,7.67-22C24.88,9.68,20.85-.08,15.93,0Zm1.31,40.7c-4.12.09-7.49-8.35-7.54-18.85S12.94,2.79,17.05,2.7s7.49,8.35,7.54,18.85S21.35,40.64,17.24,40.73Z"/><path class="cls-3" d="M16.79,2.7C12.5,2.7,9,11.21,9,21.71s3.48,19,7.77,19,7.76-8.51,7.76-19S21.08,2.7,16.79,2.7Zm4.7,20a25.49,25.49,0,0,1-.6,5.62l-1.28-1.27a16.77,16.77,0,0,0,.56-4.42c0-3.47-.92-6.41-2.2-7.44V11.55C20,12.84,21.49,17.34,21.49,22.7ZM16,11.36v3.83c-1.28,1-2.2,4-2.2,7.44a16.77,16.77,0,0,0,.56,4.42L12.75,28.6a25.2,25.2,0,0,1-.67-5.9C12.08,17,13.75,12.32,16,11.36Zm.83,22.87c-1.32,0-2.51-1.33-3.36-3.47l1.7-1.69c.52.89,1.15,1.41,1.83,1.41s1.32-.52,1.83-1.41l1.45,1.44C19.38,32.79,18.16,34.23,16.79,34.23Z"/><path class="cls-4" d="M17.12,0C12.2.11,8.26,10,8.32,22.19s4.09,21.9,9,21.79,8.86-10,8.8-22.18S22-.11,17.12,0Zm.11,40.72c-4.11.09-7.48-8.35-7.53-18.85S12.94,2.78,17.05,2.69,24.54,11,24.59,21.54,21.35,40.63,17.23,40.72Z"/><path class="cls-5" d="M17,3c-4.24,0-7.68,8.51-7.68,19s3.44,19,7.68,19,7.69-8.51,7.69-19S21.29,3,17,3ZM12.39,23c0-5.67,1.65-10.38,3.83-11.34v1.65c-1.51,1.07-2.64,5-2.64,9.71A25.31,25.31,0,0,0,14,28l-1,1A25.37,25.37,0,0,1,12.39,23ZM17,34.56c-1.3,0-2.48-1.33-3.32-3.47l.9-.9C15.25,32,16.1,33.05,17,33.05s1.88-1.21,2.51-3.12l.91.91C19.61,33.12,18.4,34.56,17,34.56Zm3.07-6.9a26.12,26.12,0,0,0,.4-4.61c0-4.34-1-8-2.29-9.4V11.88c2,1.29,3.48,5.79,3.48,11.15a26.13,26.13,0,0,1-.59,5.62Z"/><path class="cls-6" d="M8.08,52.57v-3.9H9.51a2.45,2.45,0,0,1,.78.12,1.15,1.15,0,0,1,.58.4,1.2,1.2,0,0,1,.22.77,1.26,1.26,0,0,1-.22.78,1.33,1.33,0,0,1-.57.45,2.19,2.19,0,0,1-.77.14H9.11v1.24Zm1-2.06h.37c.4,0,.6-.18.6-.55a.41.41,0,0,0-.16-.37.84.84,0,0,0-.46-.11H9.11Z"/><path class="cls-6" d="M11.73,52.57v-3.9h1v1.45h1.16V48.67h1v3.9h-1V51H12.76v1.55Z"/><path class="cls-6" d="M17.86,52.57l-.19-.83H16.58l-.2.83h-1l1.19-3.9h1.24L19,52.57Zm-1-1.9-.07.27h.72l-.06-.27c-.05-.18-.1-.39-.15-.61s-.09-.43-.14-.63h0c0,.2-.08.41-.13.63S16.88,50.49,16.83,50.67Z"/><path class="cls-6" d="M20.56,52.64a2.42,2.42,0,0,1-.77-.14,2.05,2.05,0,0,1-.71-.42l.59-.71a2.07,2.07,0,0,0,.45.27,1.18,1.18,0,0,0,.46.11c.3,0,.45-.09.45-.28a.21.21,0,0,0-.14-.2l-.39-.17L20,50.89a1.39,1.39,0,0,1-.55-.39,1,1,0,0,1-.23-.69,1.08,1.08,0,0,1,.41-.86,1.51,1.51,0,0,1,1-.36,2.1,2.1,0,0,1,.68.13,1.79,1.79,0,0,1,.62.4l-.52.64a2.08,2.08,0,0,0-.38-.21,1.29,1.29,0,0,0-.4-.07c-.27,0-.41.09-.41.27a.23.23,0,0,0,.16.21l.42.18.47.18a1.43,1.43,0,0,1,.57.4,1.11,1.11,0,0,1,.19.67,1.17,1.17,0,0,1-.39.87A1.59,1.59,0,0,1,20.56,52.64Z"/><path class="cls-6" d="M22.71,52.57v-3.9h2.52v.86H23.74v.61H25V51H23.74v.69h1.55v.87Z"/><path class="cls-6" d="M11.3,58.57h-1v-3.9h1.48a2.43,2.43,0,0,1,.77.11,1.11,1.11,0,0,1,.57.39,1.21,1.21,0,0,1,.22.76,1.22,1.22,0,0,1-.18.69,1.16,1.16,0,0,1-.45.43l.84,1.52H12.37l-.67-1.31h-.4Zm0-2.13h.37q.63,0,.63-.51a.38.38,0,0,0-.16-.35.86.86,0,0,0-.47-.1H11.3Z"/><path class="cls-6" d="M14.05,58.57v-3.9h1v3.9Z"/><path class="cls-6" d="M15.94,58.57v-3.9H17l.86,1.74.38.87h0c0-.21-.05-.45-.08-.72a7.09,7.09,0,0,1-.05-.77V54.67h1v3.9H18.06l-.87-1.75L16.82,56h0c0,.22.05.47.08.73a6.91,6.91,0,0,1,.05.76v1.13Z"/><path class="cls-6" d="M21.78,58.64a2.33,2.33,0,0,1-1-.22,1.76,1.76,0,0,1-.71-.67,2.16,2.16,0,0,1-.26-1.1,2.19,2.19,0,0,1,.27-1.12,1.91,1.91,0,0,1,.71-.7,2,2,0,0,1,1-.24,1.73,1.73,0,0,1,.75.16,1.76,1.76,0,0,1,.53.36l-.54.66a2.11,2.11,0,0,0-.31-.21.87.87,0,0,0-.39-.08.85.85,0,0,0-.66.3,1.2,1.2,0,0,0-.26.83,1.32,1.32,0,0,0,.24.85,1,1,0,0,0,.78.29.56.56,0,0,0,.3-.07v-.54h-.58V56.3H23.1v1.86a1.85,1.85,0,0,1-.56.34A2.1,2.1,0,0,1,21.78,58.64Z"/><path class="cls-7" d="M32.54.81V60H.6V.81H32.54m.75-.75H-.15V60.7H33.29V.06Z"/></svg>