<svg id="Layer_1" data-name="Layer 1" xmlns="http://www.w3.org/2000/svg" xmlns:xlink="http://www.w3.org/1999/xlink" viewBox="0 0 33.26 60.78"><defs><style>.cls-1{opacity:0.65;}.cls-2{opacity:0.51;fill:url(#linear-gradient);}.cls-3{fill:url(#linear-gradient-2);}.cls-4{fill:url(#linear-gradient-3);}.cls-5{fill:url(#linear-gradient-4);}.cls-6{fill:url(#linear-gradient-5);}.cls-7{fill:url(#linear-gradient-6);}.cls-8{fill:url(#linear-gradient-7);}.cls-9{fill:url(#linear-gradient-8);}.cls-10{fill:url(#linear-gradient-9);}.cls-11{fill:url(#linear-gradient-10);}.cls-12{fill:url(#linear-gradient-11);}.cls-13{fill:url(#linear-gradient-12);}.cls-14{fill:url(#linear-gradient-13);}.cls-15{fill:url(#linear-gradient-14);}.cls-16{fill:url(#linear-gradient-15);}.cls-17{fill:#fff;}</style><linearGradient id="linear-gradient" x1="15.06" y1="27.62" x2="15.06" y2="15.61" gradientUnits="userSpaceOnUse"><stop offset="0.02" stop-color="#666"/><stop offset="0.02" stop-color="#6e6e6e"/><stop offset="0.05" stop-color="#999899"/><stop offset="0.07" stop-color="#b8b7b8"/><stop offset="0.09" stop-color="#cbcacb"/><stop offset="0.11" stop-color="#d2d1d2"/><stop offset="0.18" stop-color="#c5c4c5"/><stop offset="0.29" stop-color="#979696"/><stop offset="0.36" stop-color="#919090"/><stop offset="0.59" stop-color="#c9c8c8"/><stop offset="0.85" stop-color="#f2f2f2"/><stop offset="1" stop-color="#4d4d4d"/></linearGradient><linearGradient id="linear-gradient-2" x1="18.81" y1="27.72" x2="18.81" y2="15.46" gradientUnits="userSpaceOnUse"><stop offset="0.59"/><stop offset="1" stop-color="#4d4d4d"/></linearGradient><linearGradient id="linear-gradient-3" x1="24.96" y1="22.11" x2="8.96" y2="22.11" xlink:href="#linear-gradient-2"/><linearGradient id="linear-gradient-4" x1="27.41" y1="28.75" x2="4.49" y2="15.52" xlink:href="#linear-gradient-2"/><linearGradient id="linear-gradient-5" x1="9.35" y1="36.32" x2="26.13" y2="7.24" gradientUnits="userSpaceOnUse"><stop offset="0" stop-color="#2e2e2e"/><stop offset="0.59"/><stop offset="1" stop-color="#353535"/></linearGradient><linearGradient id="linear-gradient-6" x1="25.88" y1="22.11" x2="9.89" y2="22.11" gradientUnits="userSpaceOnUse"><stop offset="0.02" stop-color="#666"/><stop offset="0.02" stop-color="#646464"/><stop offset="0.2" stop-color="#393939"/><stop offset="0.36" stop-color="#1a1a1a"/><stop offset="0.5" stop-color="#070707"/><stop offset="0.59"/><stop offset="1" stop-color="#4d4d4d"/></linearGradient><linearGradient id="linear-gradient-7" x1="17.35" y1="4.99" x2="17.93" y2="3.98" gradientUnits="userSpaceOnUse"><stop offset="0.02" stop-color="#666"/><stop offset="0.23" stop-color="#4d4d4d"/><stop offset="0.44" stop-color="#3a3a3a"/><stop offset="0.59" stop-color="#333"/><stop offset="1" stop-color="#4d4d4d"/></linearGradient><linearGradient id="linear-gradient-8" x1="17.35" y1="7.24" x2="17.93" y2="6.23" xlink:href="#linear-gradient-7"/><linearGradient id="linear-gradient-9" x1="17.35" y1="9.64" x2="17.93" y2="8.63" xlink:href="#linear-gradient-7"/><linearGradient id="linear-gradient-10" x1="935.31" y1="644.13" x2="935.94" y2="643.05" gradientTransform="translate(1143.84 -144.09) rotate(136.5)" xlink:href="#linear-gradient-7"/><linearGradient id="linear-gradient-11" x1="934.74" y1="645.81" x2="935.36" y2="644.73" gradientTransform="translate(1143.8 -144.07) rotate(136.5)" xlink:href="#linear-gradient-7"/><linearGradient id="linear-gradient-12" x1="934.12" y1="647.6" x2="934.75" y2="646.51" gradientTransform="translate(1143.76 -144.05) rotate(136.5)" xlink:href="#linear-gradient-7"/><linearGradient id="linear-gradient-13" x1="103.35" y1="479.44" x2="103.7" y2="478.83" gradientTransform="translate(433.22 283.81) rotate(133.5)" xlink:href="#linear-gradient-7"/><linearGradient id="linear-gradient-14" x1="103.93" y1="481.12" x2="104.28" y2="480.51" gradientTransform="translate(434.06 286.13) rotate(133.5)" xlink:href="#linear-gradient-7"/><linearGradient id="linear-gradient-15" x1="104.54" y1="482.91" x2="104.89" y2="482.3" gradientTransform="translate(434.94 288.62) rotate(133.5)" xlink:href="#linear-gradient-7"/></defs><g class="cls-1"><path class="cls-2" d="M14.38,21.62c0-3,.95-5.46,2.2-5.92a1.17,1.17,0,0,0-.42-.09c-1.45,0-2.63,2.69-2.63,6s1.18,6,2.63,6a1.16,1.16,0,0,0,.42-.08C15.33,27.07,14.38,24.6,14.38,21.62Z"/><path class="cls-3" d="M18,15.46a5.64,5.64,0,0,0-1.25.17l-.21.07c1.26.46,2.21,2.93,2.21,5.92s-.95,5.45-2.21,5.92a2.33,2.33,0,0,0,1.16.17c1.93-.27,3.22-3.48,3.29-6C21.14,18.1,18.77,15.46,18,15.46Z"/></g><path class="cls-4" d="M16.86.12C12.45.23,8.91,10.16,9,22.3s3.68,21.91,8.1,21.8,8-10,7.9-22.19S21.28,0,16.86.12ZM17,40.84c-3.61.46-6.73-9.63-6.77-18.86s3-19.47,6.6-19.18c3.46.29,6,10,6.09,18.28C23,29.84,20.54,40.38,17,40.84Z"/><path class="cls-5" d="M15.85.14c-4.68.11-8.42,10-8.37,22.19s3.9,21.9,8.57,21.79a3.31,3.31,0,0,0,1.07-.19c4.16-1.47,7.35-10.79,7.3-22C24.36,9.79,20.52,0,15.85.14Zm1.24,40.71C13.18,40.94,10,32.5,9.92,22S13,2.9,16.91,2.81,24,11.17,24.08,21.67,21,40.76,17.09,40.85Z"/><path class="cls-6" d="M17.91,2.78c-3.94-.27-7.07,9.8-7.07,19s3.13,19.28,7.07,19c3.79-.26,6.5-10,6.6-18.46C24.61,13.39,21.83,3,17.91,2.78Zm-.23,24.78c-1.44,0-2.61-2.68-2.61-6s1.17-6,2.61-6,2.6,2.68,2.6,6S19.11,27.56,17.68,27.56Z"/><path class="cls-7" d="M17.79.12c-4.42.11-8,10-7.9,22.18S13.56,44.2,18,44.1s8-10,7.9-22.19S22.2,0,17.79.12Zm.1,40.72c-3.69.09-6.72-8.35-6.77-18.86S14,2.89,17.73,2.8s6.72,8.35,6.77,18.86S21.59,40.75,17.89,40.84Z"/><ellipse class="cls-8" cx="17.64" cy="4.48" rx="0.31" ry="0.65"/><ellipse class="cls-9" cx="17.64" cy="6.73" rx="0.31" ry="0.65"/><ellipse class="cls-10" cx="17.64" cy="9.14" rx="0.31" ry="0.65"/><ellipse class="cls-11" cx="22.14" cy="33.04" rx="0.31" ry="0.64" transform="translate(-0.86 0.59) rotate(-1.5)"/><ellipse class="cls-12" cx="21.36" cy="31.45" rx="0.31" ry="0.64" transform="translate(-0.82 0.57) rotate(-1.5)"/><ellipse class="cls-13" cx="20.53" cy="29.75" rx="0.31" ry="0.64" transform="translate(-0.77 0.55) rotate(-1.5)"/><ellipse class="cls-14" cx="14.39" cy="29.11" rx="0.64" ry="0.31" transform="translate(-15.09 42.73) rotate(-88.5)"/><ellipse class="cls-15" cx="13.61" cy="30.7" rx="0.64" ry="0.31" transform="translate(-17.44 43.5) rotate(-88.5)"/><ellipse class="cls-16" cx="12.78" cy="32.4" rx="0.64" ry="0.31" transform="translate(-19.94 44.33) rotate(-88.5)"/><path d="M5.65,52.57a2.64,2.64,0,0,1-.8-.14A2.42,2.42,0,0,1,4.11,52L4,51.92l.71-.85.08.06a1.7,1.7,0,0,0,.43.26,1.14,1.14,0,0,0,.42.09c.34,0,.34-.12.34-.17a.13.13,0,0,0-.08-.12L5.56,51l-.49-.2a1.6,1.6,0,0,1-.59-.42,1.15,1.15,0,0,1-.26-.76,1.19,1.19,0,0,1,.45-.93,1.62,1.62,0,0,1,1.1-.38,2,2,0,0,1,.72.13,1.82,1.82,0,0,1,.65.42l.07.06-.64.79-.07,0a2.23,2.23,0,0,0-.36-.2,1.1,1.1,0,0,0-.37-.06c-.3,0-.3.11-.3.16s0,.08.1.12l.41.18.47.18a1.42,1.42,0,0,1,.61.44,1.12,1.12,0,0,1,.22.72,1.26,1.26,0,0,1-.43,1A1.66,1.66,0,0,1,5.65,52.57Z"/><path class="cls-17" d="M5.77,48.43a1.87,1.87,0,0,1,.69.13,1.59,1.59,0,0,1,.61.39l-.52.65a1.8,1.8,0,0,0-.38-.21,1,1,0,0,0-.4-.07c-.27,0-.4.08-.4.26a.23.23,0,0,0,.15.21l.42.18.48.19a1.25,1.25,0,0,1,.56.4,1.06,1.06,0,0,1,.2.66,1.15,1.15,0,0,1-.4.87,1.53,1.53,0,0,1-1.13.38,2.12,2.12,0,0,1-.76-.14,2,2,0,0,1-.71-.42l.59-.7a1.68,1.68,0,0,0,.45.27,1.13,1.13,0,0,0,.46.1c.29,0,.44-.09.44-.27A.22.22,0,0,0,6,51.1l-.38-.17-.49-.2a1.45,1.45,0,0,1-.55-.4,1,1,0,0,1-.24-.69,1.09,1.09,0,0,1,.41-.85,1.51,1.51,0,0,1,1-.36m0-.2a1.72,1.72,0,0,0-1.17.41,1.27,1.27,0,0,0-.48,1,1.19,1.19,0,0,0,.29.82,1.44,1.44,0,0,0,.62.45l.49.2.37.17c0,.09-.12.1-.21.1a1.08,1.08,0,0,1-.38-.08,1.87,1.87,0,0,1-.41-.25l-.15-.12-.13.15L4,51.79l-.13.14.14.13a2.21,2.21,0,0,0,.78.46,2.52,2.52,0,0,0,.83.15,1.76,1.76,0,0,0,1.27-.43,1.39,1.39,0,0,0,.46-1,1.23,1.23,0,0,0-.24-.78A1.46,1.46,0,0,0,6.49,50L6,49.78a3.69,3.69,0,0,1-.41-.17s0,0,0,0,.11-.06.2-.06a1.14,1.14,0,0,1,.33,0,2.37,2.37,0,0,1,.34.19l.15.11.12-.15.52-.64.11-.15-.13-.12a2,2,0,0,0-.68-.44,2.27,2.27,0,0,0-.76-.14Z"/><polygon points="9.9 52.5 9.9 50.95 8.93 50.95 8.93 52.5 7.7 52.5 7.7 48.4 8.93 48.4 8.93 49.85 9.9 49.85 9.9 48.4 11.13 48.4 11.13 52.5 9.9 52.5"/><path class="cls-17" d="M11,48.5v3.9H10V50.85H8.83V52.4h-1V48.5h1V50H10V48.5h1m.2-.2H9.8v1.45H9V48.3H7.6v4.3H9V51.05H9.8V52.6h1.43V48.3Z"/><path d="M13.49,52.57a1.59,1.59,0,0,1-1.29-.51,2.34,2.34,0,0,1-.43-1.54V48.4H13v2.24a1.27,1.27,0,0,0,.13.68.39.39,0,0,0,.36.16.4.4,0,0,0,.37-.17,1.21,1.21,0,0,0,.13-.67V48.4h1.2v2.12a2.4,2.4,0,0,1-.42,1.54A1.55,1.55,0,0,1,13.49,52.57Z"/><path class="cls-17" d="M15.09,48.5v2A2.31,2.31,0,0,1,14.7,52a1.48,1.48,0,0,1-1.21.48A1.51,1.51,0,0,1,12.27,52a2.24,2.24,0,0,1-.4-1.47v-2h1v2.14a1.44,1.44,0,0,0,.14.73.52.52,0,0,0,.45.21.51.51,0,0,0,.45-.21,1.33,1.33,0,0,0,.15-.73V48.5h1m.2-.2h-1.4v2.34a1.16,1.16,0,0,1-.11.62.33.33,0,0,1-.29.12.31.31,0,0,1-.28-.12,1.16,1.16,0,0,1-.11-.62V48.3H11.67v2.22a2.42,2.42,0,0,0,.45,1.6,1.69,1.69,0,0,0,1.37.55,1.65,1.65,0,0,0,1.36-.55,2.52,2.52,0,0,0,.44-1.6V48.3Z"/><polygon points="16.57 52.5 16.57 49.47 15.54 49.47 15.54 48.4 18.83 48.4 18.83 49.47 17.8 49.47 17.8 52.5 16.57 52.5"/><path class="cls-17" d="M18.73,48.5v.86h-1v3h-1v-3h-1V48.5h3.09m.2-.2H15.44v1.26h1v3H17.9v-3h1V48.3Z"/><polygon points="19.95 52.5 19.95 49.47 18.92 49.47 18.92 48.4 22.22 48.4 22.22 49.47 21.19 49.47 21.19 52.5 19.95 52.5"/><path class="cls-17" d="M22.12,48.5v.86h-1v3h-1v-3H19V48.5h3.1m.2-.2h-3.5v1.26h1v3h1.44v-3h1V48.3Z"/><polygon points="22.59 52.5 22.59 48.4 25.31 48.4 25.31 49.47 23.82 49.47 23.82 49.88 25.1 49.88 25.1 50.94 23.82 50.94 23.82 51.44 25.37 51.44 25.37 52.5 22.59 52.5"/><path class="cls-17" d="M25.21,48.5v.86H23.73V50H25v.86H23.73v.7h1.54v.86H22.69V48.5h2.52m.2-.2H22.49v4.3h3V51.34H23.93V51H25.2V49.78H23.93v-.22h1.48V48.3Z"/><path d="M28.07,52.5l-.67-1.31h-.24V52.5H25.93V48.4h1.58a2.53,2.53,0,0,1,.8.12,1.23,1.23,0,0,1,.62.42,1.27,1.27,0,0,1,.24.82,1.44,1.44,0,0,1-.19.75,1.34,1.34,0,0,1-.41.41l.88,1.58Zm-.64-2.32c.47,0,.53-.23.53-.42s-.09-.25-.11-.26a.78.78,0,0,0-.42-.08h-.27v.76Z"/><path class="cls-17" d="M27.51,48.5a2.7,2.7,0,0,1,.77.11,1.17,1.17,0,0,1,.57.39,1.23,1.23,0,0,1,.22.76,1.28,1.28,0,0,1-.18.7,1.32,1.32,0,0,1-.45.43l.84,1.51H28.13l-.67-1.31h-.4V52.4H26V48.5h1.48m-.45,1.78h.37c.42,0,.63-.18.63-.52a.37.37,0,0,0-.16-.35,1,1,0,0,0-.47-.09h-.37v1m.45-2H25.83v4.3h1.43V51.29h.08l.61,1.2.06.11h1.61l-.16-.3L28.7,51a1.35,1.35,0,0,0,.36-.39,1.42,1.42,0,0,0,.21-.8,1.38,1.38,0,0,0-.26-.88,1.4,1.4,0,0,0-.67-.46,2.73,2.73,0,0,0-.83-.12Zm-.25,1.22h.17a.73.73,0,0,1,.36.06s.07,0,.07.18,0,.32-.43.32h-.17v-.56Z"/></svg>