<svg id="Layer_1" data-name="Layer 1" xmlns="http://www.w3.org/2000/svg" xmlns:xlink="http://www.w3.org/1999/xlink" viewBox="0 0 33.26 60.8"><defs><style>.cls-1{fill:url(#linear-gradient);}.cls-2{fill:url(#linear-gradient-2);}.cls-3{fill:url(#linear-gradient-3);}.cls-4{fill:url(#linear-gradient-4);}</style><linearGradient id="linear-gradient" x1="25.1" y1="21.99" x2="7.29" y2="21.99" gradientUnits="userSpaceOnUse"><stop offset="0.02" stop-color="#666"/><stop offset="0.02" stop-color="#646464"/><stop offset="0.2" stop-color="#393939"/><stop offset="0.36" stop-color="#1a1a1a"/><stop offset="0.5" stop-color="#070707"/><stop offset="0.59"/><stop offset="1" stop-color="#4d4d4d"/></linearGradient><linearGradient id="linear-gradient-2" x1="27.69" y1="28.74" x2="4.39" y2="15.29" xlink:href="#linear-gradient"/><linearGradient id="linear-gradient-3" x1="26.13" y1="21.99" x2="8.32" y2="21.99" xlink:href="#linear-gradient"/><linearGradient id="linear-gradient-4" x1="6.71" y1="15.61" x2="27.22" y2="27.45" gradientUnits="userSpaceOnUse"><stop offset="0" stop-color="#2c2c2c"/><stop offset="0.18" stop-color="#1a1a1a"/><stop offset="0.42" stop-color="#070707"/><stop offset="0.59"/><stop offset="1" stop-color="#4d4d4d"/></linearGradient></defs><path d="M1.3,52.57v-3.9H2.45a2.24,2.24,0,0,1,1.45.45,1.8,1.8,0,0,1,.56,1.48,1.88,1.88,0,0,1-.55,1.5,2.1,2.1,0,0,1-1.4.47Zm1-.83h.06a1.17,1.17,0,0,0,.72-.23,1.14,1.14,0,0,0,.29-.91,1.08,1.08,0,0,0-.29-.9,1.22,1.22,0,0,0-.72-.21H2.33Z"/><path d="M7.13,52.57l-.19-.83H5.85l-.19.83H4.6l1.19-3.9H7l1.18,3.9Zm-1-1.9L6,50.94h.72l-.06-.27c-.05-.18-.1-.39-.15-.61s-.09-.43-.14-.63h0c0,.2-.09.41-.14.63S6.15,50.49,6.1,50.67Z"/><path d="M9.63,52.57h-1v-3.9h1.47a2.45,2.45,0,0,1,.78.11,1.08,1.08,0,0,1,.78,1.15,1.31,1.31,0,0,1-.17.69,1.19,1.19,0,0,1-.46.43l.85,1.52H10.7L10,51.26H9.63Zm0-2.13H10c.42,0,.62-.17.62-.51a.36.36,0,0,0-.16-.35.83.83,0,0,0-.46-.1H9.63Z"/><path d="M12.38,52.57v-3.9h1v1.45h0l1-1.45h1.12l-1.16,1.58,1.39,2.32H14.64l-.86-1.5-.37.52v1Z"/><path d="M17.34,52.57v-3.9h2.55v.86H18.38v.74h1.29v.87H18.38v1.43Z"/><path d="M20.56,52.57v-3.9h1v3.9Z"/><path d="M22.45,52.57v-3.9H25v.86H23.49v.61h1.27V51H23.49v.69H25v.87Z"/><path d="M25.79,52.57v-3.9h1v3H28.3v.87Z"/><path d="M29,52.57v-3.9h1.15a2.24,2.24,0,0,1,1.45.45,1.8,1.8,0,0,1,.56,1.48,1.88,1.88,0,0,1-.55,1.5,2.1,2.1,0,0,1-1.4.47Zm1-.83h.06a1.17,1.17,0,0,0,.72-.23,1.14,1.14,0,0,0,.29-.91,1.08,1.08,0,0,0-.29-.9,1.22,1.22,0,0,0-.72-.21H30Z"/><path d="M11.16,58.64a2.36,2.36,0,0,1-.76-.14,2,2,0,0,1-.71-.42l.59-.71a1.68,1.68,0,0,0,.45.27,1.14,1.14,0,0,0,.46.11c.29,0,.44-.09.44-.28a.21.21,0,0,0-.14-.2,2.6,2.6,0,0,0-.39-.17l-.48-.21a1.32,1.32,0,0,1-.55-.39,1,1,0,0,1-.24-.69,1.11,1.11,0,0,1,.41-.86,1.51,1.51,0,0,1,1-.36,2,2,0,0,1,.68.13,1.7,1.7,0,0,1,.62.4l-.52.64a2.08,2.08,0,0,0-.38-.21,1.24,1.24,0,0,0-.4-.07c-.27,0-.4.09-.4.27A.23.23,0,0,0,11,56l.42.18.48.18a1.32,1.32,0,0,1,.56.4,1.11,1.11,0,0,1,.2.67,1.15,1.15,0,0,1-.4.87A1.57,1.57,0,0,1,11.16,58.64Z"/><path d="M13.94,58.57v-3h-1v-.86H16v.86H15v3Z"/><path d="M18,58.64a1.7,1.7,0,0,1-1.31-.54,2.09,2.09,0,0,1-.5-1.5,2,2,0,0,1,.5-1.48,1.88,1.88,0,0,1,2.62,0,2.05,2.05,0,0,1,.5,1.48,2.14,2.14,0,0,1-.5,1.5A1.7,1.7,0,0,1,18,58.64Zm0-.89a.62.62,0,0,0,.55-.31,1.49,1.49,0,0,0,.21-.84,1.38,1.38,0,0,0-.21-.82.65.65,0,0,0-1.1,0,1.38,1.38,0,0,0-.21.82,1.49,1.49,0,0,0,.21.84A.62.62,0,0,0,18,57.75Z"/><path d="M20.55,58.57v-3.9H22a2.45,2.45,0,0,1,.78.12,1.15,1.15,0,0,1,.58.4,1.2,1.2,0,0,1,.22.77,1.26,1.26,0,0,1-.22.78,1.33,1.33,0,0,1-.57.45,2.19,2.19,0,0,1-.77.14h-.42v1.24Zm1-2.06H22c.4,0,.6-.18.6-.55a.41.41,0,0,0-.16-.37.84.84,0,0,0-.46-.11h-.35Z"/><path class="cls-1" d="M16.09,0c-4.92.11-8.86,10-8.8,22.19s4.1,21.9,9,21.79,8.86-10,8.8-22.18S21-.11,16.09,0Zm.12,40.72c-4.11.09-7.49-8.35-7.54-18.85S11.91,2.78,16,2.69,23.51,11,23.56,21.54,20.32,40.63,16.21,40.72Z"/><path class="cls-2" d="M15.93,0c-4.92.1-8.86,10-8.8,22.18s4.09,21.9,9,21.8a4,4,0,0,0,1.13-.2c4.38-1.46,7.73-10.78,7.67-22C24.88,9.68,20.85-.08,15.93,0Zm1.31,40.7c-4.12.09-7.49-8.35-7.54-18.85S12.94,2.79,17.05,2.7s7.49,8.35,7.54,18.85S21.35,40.64,17.24,40.73Z"/><path class="cls-3" d="M17.12,0C12.2.11,8.26,10,8.32,22.19s4.09,21.9,9,21.79,8.86-10,8.8-22.18S22-.11,17.12,0Zm.11,40.72c-4.11.09-7.48-8.35-7.53-18.85S12.94,2.78,17.05,2.69,24.54,11,24.59,21.54,21.35,40.63,17.23,40.72Z"/><path class="cls-4" d="M17,2c-4.28,0-7.75,8.73-7.75,19.5S12.68,41,17,41s7.75-8.73,7.75-19.5S21.24,2,17,2ZM23.61,21.8a44.91,44.91,0,0,1-.69,8l-.72-.63a41,41,0,0,0,.67-7.56c0-8.55-2.34-15.58-5.35-16.47V3.66C20.93,4.49,23.61,12.29,23.61,21.8ZM16.41,3.65V5.1c-3.1.65-5.54,7.79-5.54,16.51A42.38,42.38,0,0,0,11.51,29l-.63.56a44.86,44.86,0,0,1-.65-7.79C10.23,12.21,13,4.36,16.41,3.65ZM16.92,40c-2.5,0-4.67-3.73-5.82-9.26l.65-.57c1.05,4.78,2.95,8,5.12,8S20.9,35,22,30.34l.7.61.05,0C21.55,36.36,19.39,40,16.92,40Z"/></svg>