<svg xmlns="http://www.w3.org/2000/svg" xmlns:xlink="http://www.w3.org/1999/xlink" viewBox="0 0 33.26 60.77"><defs><style>.cls-1{isolation:isolate;}.cls-2{opacity:0.65;}.cls-3{opacity:0.61;fill:url(#linear-gradient);}.cls-4{opacity:0.51;fill:url(#linear-gradient-2);}.cls-5{fill:url(#linear-gradient-3);}.cls-6,.cls-9{mix-blend-mode:multiply;}.cls-6{fill:url(#linear-gradient-4);}.cls-7{fill:url(#linear-gradient-5);}.cls-8{fill:url(#linear-gradient-6);}.cls-9{fill:url(#linear-gradient-7);}.cls-10{fill:url(#linear-gradient-8);}.cls-11{fill:url(#linear-gradient-9);}.cls-12{fill:url(#linear-gradient-10);}.cls-13{fill:#fff;}</style><linearGradient id="linear-gradient" x1="26.68" y1="27.72" x2="5.35" y2="15.4" gradientUnits="userSpaceOnUse"><stop offset="0.02" stop-color="#666"/><stop offset="0.02" stop-color="#6e6e6e"/><stop offset="0.05" stop-color="#999899"/><stop offset="0.07" stop-color="#b8b7b8"/><stop offset="0.09" stop-color="#cbcacb"/><stop offset="0.11" stop-color="#d2d1d2"/><stop offset="0.18" stop-color="#c5c4c5"/><stop offset="0.29" stop-color="#979696"/><stop offset="0.33" stop-color="#919090"/><stop offset="0.5" stop-color="#f2f2f2"/><stop offset="0.78" stop-color="#c9c8c8"/><stop offset="0.85" stop-color="#fff"/><stop offset="1" stop-color="#4d4d4d"/></linearGradient><linearGradient id="linear-gradient-2" x1="17.09" y1="41.87" x2="17.09" y2="1.25" gradientUnits="userSpaceOnUse"><stop offset="0.02" stop-color="#666"/><stop offset="0.02" stop-color="#6e6e6e"/><stop offset="0.05" stop-color="#999899"/><stop offset="0.07" stop-color="#b8b7b8"/><stop offset="0.09" stop-color="#cbcacb"/><stop offset="0.11" stop-color="#d2d1d2"/><stop offset="0.18" stop-color="#c5c4c5"/><stop offset="0.29" stop-color="#979696"/><stop offset="0.36" stop-color="#919090"/><stop offset="0.59" stop-color="#c9c8c8"/><stop offset="0.85" stop-color="#f2f2f2"/><stop offset="1" stop-color="#4d4d4d"/></linearGradient><linearGradient id="linear-gradient-3" x1="25.1" y1="21.99" x2="7.29" y2="21.99" gradientUnits="userSpaceOnUse"><stop offset="0.02" stop-color="#666"/><stop offset="0.02" stop-color="#646464"/><stop offset="0.2" stop-color="#393939"/><stop offset="0.36" stop-color="#1a1a1a"/><stop offset="0.5" stop-color="#070707"/><stop offset="0.59"/><stop offset="1" stop-color="#4d4d4d"/></linearGradient><linearGradient id="linear-gradient-4" x1="8.43" y1="36.37" x2="25.35" y2="7.06" gradientUnits="userSpaceOnUse"><stop offset="0" stop-color="#999"/><stop offset="0.85" stop-color="#999"/></linearGradient><linearGradient id="linear-gradient-5" x1="27.69" y1="28.74" x2="4.39" y2="15.29" xlink:href="#linear-gradient-3"/><linearGradient id="linear-gradient-6" x1="26.13" y1="21.99" x2="8.32" y2="21.99" xlink:href="#linear-gradient-3"/><linearGradient id="linear-gradient-7" x1="27.12" y1="11.56" x2="6.8" y2="31.87" xlink:href="#linear-gradient-4"/><linearGradient id="linear-gradient-8" x1="19.79" y1="21.71" x2="13.08" y2="21.71" xlink:href="#linear-gradient-3"/><linearGradient id="linear-gradient-9" x1="20.18" y1="21.71" x2="13.46" y2="21.71" gradientUnits="userSpaceOnUse"><stop offset="0"/><stop offset="1" stop-color="#292929"/></linearGradient><linearGradient id="linear-gradient-10" x1="30.38" y1="27.73" x2="15.41" y2="12.76" gradientUnits="userSpaceOnUse"><stop offset="0" stop-color="#b9b9b9"/><stop offset="0.29" stop-color="#c5c5c5"/><stop offset="0.59" stop-color="#ccc"/><stop offset="1" stop-color="#9f9f9f"/></linearGradient></defs><g class="cls-1"><g id="Layer_1" data-name="Layer 1"><g class="cls-2"><ellipse class="cls-3" cx="16.02" cy="21.56" rx="8.04" ry="20.31"/><ellipse class="cls-4" cx="17.09" cy="21.56" rx="8.04" ry="20.31"/></g><path class="cls-5" d="M16.09,0c-4.92.11-8.86,10-8.8,22.19s4.1,21.9,9,21.79,8.86-10,8.8-22.18S21-.11,16.09,0Zm.12,40.72c-4.11.09-7.49-8.35-7.54-18.85S11.91,2.78,16,2.69,23.51,11,23.56,21.54,20.32,40.63,16.21,40.72Z"/><ellipse class="cls-6" cx="16.89" cy="21.71" rx="7.7" ry="19.02"/><path class="cls-7" d="M15.93,0c-4.92.1-8.86,10-8.8,22.18s4.09,21.9,9,21.8a4,4,0,0,0,1.13-.2c4.38-1.46,7.73-10.78,7.67-22C24.88,9.68,20.85-.08,15.93,0Zm1.31,40.7c-4.12.09-7.49-8.35-7.54-18.85S12.94,2.79,17.05,2.7s7.49,8.35,7.54,18.85S21.35,40.64,17.24,40.73Z"/><path class="cls-8" d="M17.12,0C12.2.11,8.26,10,8.32,22.19s4.09,21.9,9,21.79,8.86-10,8.8-22.18S22-.11,17.12,0Zm.11,40.72c-4.11.09-7.48-8.35-7.53-18.85S12.94,2.78,17.05,2.69,24.54,11,24.59,21.54,21.35,40.63,17.23,40.72Z"/><path class="cls-9" d="M24.33,22.26c-.1,8.49-3.06,18.21-7.19,18.47-4.29.28-7.7-9.81-7.7-19s3.41-19.28,7.7-19S24.44,13.32,24.33,22.26Z"/><path class="cls-10" d="M16.4,13.77c-1.86,0-3.34,3.63-3.32,8s1.54,7.9,3.4,7.87,3.34-3.63,3.31-8S18.25,13.74,16.4,13.77Zm0,14.71c-1.55,0-2.82-3-2.84-6.81s1.22-6.89,2.77-6.93,2.82,3,2.84,6.81S18,28.45,16.44,28.48Z"/><path class="cls-11" d="M16.78,13.77c-1.85,0-3.34,3.63-3.32,8s1.55,7.9,3.4,7.87,3.34-3.63,3.32-8S18.64,13.74,16.78,13.77Zm0,14.71c-1.55,0-2.83-3-2.85-6.81s1.23-6.89,2.78-6.93,2.82,3,2.84,6.81S18.38,28.45,16.83,28.48Z"/><path class="cls-12" d="M24.45,33.66a48.27,48.27,0,0,0,1.4-12.09A42.85,42.85,0,0,0,23.25,6.3l-1.75.38a28.76,28.76,0,0,1,2.32,8.17,45.37,45.37,0,0,1,.48,6.46,39.33,39.33,0,0,1-1.86,12.78Z"/><path d="M9.12,52.67l-1.21-4.1h1.3l.43,1.78a6.21,6.21,0,0,1,.14.62l.06.27A1.31,1.31,0,0,0,9.9,51c0-.21.09-.42.15-.62l.41-1.78h1.27l-1.21,4.1Z"/><path class="cls-13" d="M11.6,48.67l-1.16,3.9H9.19L8,48.67h1.1l.4,1.7c.06.21.11.41.15.62s.09.41.14.62h0c.05-.21.1-.42.14-.62s.09-.41.14-.62l.4-1.7H11.6m.26-.2H10.38l0,.15L10,50.32c0,.15-.07.3-.1.44,0-.14-.07-.29-.11-.44l-.41-1.7,0-.15H7.78l.07.25L9,52.62l.05.15h1.54l0-.15,1.16-3.9.07-.25Z"/><path d="M13.81,52.67l-.19-.83h-.94l-.19.83H11.22l1.25-4.1h1.39l1.25,4.1Zm-.43-1.83,0-.15c0-.18-.1-.39-.15-.61s0-.16,0-.24a2,2,0,0,0-.05.24c0,.23-.1.43-.15.61l0,.15Z"/><path class="cls-13" d="M13.79,48.67,15,52.57H13.89l-.2-.83H12.6l-.19.83H11.36l1.18-3.9h1.25m-1,2.27h.72l-.07-.27-.14-.61-.15-.63h0c0,.2-.08.41-.13.63l-.14.61-.07.27m1.15-2.47H12.39l0,.14-1.19,3.9-.07.26h1.48l0-.16.15-.67h.78l.15.67,0,.16h1.52l-.08-.26L14,48.61l0-.14ZM13,50.74v0c0-.13.07-.27.1-.41,0,.14.07.28.1.41v0Z"/><path d="M17.39,52.67l-.67-1.31h-.24v1.31H15.25v-4.1h1.58a2.86,2.86,0,0,1,.8.11,1.37,1.37,0,0,1,.62.42,1.3,1.3,0,0,1,.24.83,1.4,1.4,0,0,1-.19.74,1.49,1.49,0,0,1-.41.42l.88,1.58Zm-.64-2.33c.47,0,.53-.22.53-.41a.3.3,0,0,0-.11-.27.89.89,0,0,0-.42-.08h-.27v.76Z"/><path class="cls-13" d="M16.83,48.67a2.39,2.39,0,0,1,.77.11,1.11,1.11,0,0,1,.57.39,1.15,1.15,0,0,1,.22.76,1.22,1.22,0,0,1-.18.69,1.16,1.16,0,0,1-.45.43l.84,1.52H17.45l-.67-1.31h-.4v1.31h-1v-3.9h1.48m-.45,1.77h.37q.63,0,.63-.51a.36.36,0,0,0-.16-.35.86.86,0,0,0-.47-.1h-.37v1m.45-2H15.15v4.3h1.43V51.46h.08l.61,1.2.06.11h1.61l-.16-.3L18,51.12a1.67,1.67,0,0,0,.36-.39,1.47,1.47,0,0,0,.21-.8,1.43,1.43,0,0,0-.26-.89,1.38,1.38,0,0,0-.67-.45,2.73,2.73,0,0,0-.83-.12Zm-.25,1.21h.17a.74.74,0,0,1,.37.07s.06,0,.06.18,0,.31-.43.31h-.17v-.56Z"/><polygon points="19.03 52.66 19.03 48.56 21.75 48.56 21.75 49.63 20.26 49.63 20.26 50.04 21.54 50.04 21.54 51.1 20.26 51.1 20.26 51.6 21.81 51.6 21.81 52.66 19.03 52.66"/><path class="cls-13" d="M21.65,48.67v.86H20.16v.61h1.28V51H20.16v.69h1.55v.87H19.13v-3.9h2.52m.2-.2H18.93v4.3h3V51.5H20.36v-.29h1.28V49.94H20.36v-.21h1.49V48.47Z"/><polygon points="22.37 52.66 22.37 48.56 23.6 48.56 23.6 51.6 25.07 51.6 25.07 52.66 22.37 52.66"/><path class="cls-13" d="M23.5,48.67v3H25v.87H22.47v-3.9h1m.2-.2H22.27v4.3h2.91V51.5H23.7v-3Z"/><path d="M12.34,58.67l-.67-1.31h-.24v1.31H10.2v-4.1h1.58a3,3,0,0,1,.8.11,1.43,1.43,0,0,1,.62.42,1.3,1.3,0,0,1,.23.83,1.4,1.4,0,0,1-.18.74,1.49,1.49,0,0,1-.41.42l.88,1.58Zm-.64-2.33c.47,0,.53-.22.53-.41a.3.3,0,0,0-.11-.27.89.89,0,0,0-.42-.08h-.27v.76Z"/><path class="cls-13" d="M11.78,54.67a2.43,2.43,0,0,1,.77.11,1.15,1.15,0,0,1,.57.39,1.21,1.21,0,0,1,.21.76,1.22,1.22,0,0,1-.17.69,1.19,1.19,0,0,1-.46.43l.85,1.52H12.4l-.67-1.31h-.4v1.31h-1v-3.9h1.48m-.45,1.77h.37q.63,0,.63-.51a.38.38,0,0,0-.16-.35.86.86,0,0,0-.47-.1h-.37v1m.45-2H10.1v4.3h1.43V57.46h.08l.61,1.2.06.11h1.61l-.16-.3L13,57.12a1.67,1.67,0,0,0,.36-.39,1.46,1.46,0,0,0,.2-.8,1.25,1.25,0,0,0-.92-1.34,2.78,2.78,0,0,0-.83-.12Zm-.25,1.21h.17a.69.69,0,0,1,.36.07s.07,0,.07.18,0,.31-.43.31h-.17v-.56Z"/><rect x="13.98" y="54.57" width="1.23" height="4.1"/><path class="cls-13" d="M15.11,54.67v3.9h-1v-3.9h1m.2-.2H13.88v4.3h1.43v-4.3Z"/><path d="M18,58.67l-.89-1.81L17,56.54s0,.09,0,.13a6.93,6.93,0,0,1,0,.77v1.23H15.87v-4.1h1.22L18,56.36l.14.32v-.11a5.27,5.27,0,0,1-.05-.78V54.57h1.18v4.1Z"/><path class="cls-13" d="M19.14,54.67v3.9H18.09l-.87-1.75L16.85,56h0c0,.22.05.47.08.73a6.91,6.91,0,0,1,.05.76v1.13H16v-3.9H17l.86,1.74.38.87h0c0-.21-.05-.45-.08-.72a5.23,5.23,0,0,1-.05-.77V54.67h1m.2-.2H18v1.32c0,.1,0,.21,0,.31l-.76-1.52-.06-.11H15.77v4.3h1.39V57.44c0-.11,0-.21,0-.32l.76,1.53.05.12h1.38v-4.3Z"/><path d="M21.81,58.74a2.24,2.24,0,0,1-1-.24,1.74,1.74,0,0,1-.75-.7,2.13,2.13,0,0,1-.28-1.15A2.25,2.25,0,0,1,20,55.48a1.88,1.88,0,0,1,.75-.73,2.08,2.08,0,0,1,1-.26,1.85,1.85,0,0,1,.8.17,2.06,2.06,0,0,1,.55.38l.06.06-.66.81-.08-.06a1.22,1.22,0,0,0-.28-.2.73.73,0,0,0-.35-.07.75.75,0,0,0-.59.27,1.15,1.15,0,0,0-.24.76,1.19,1.19,0,0,0,.23.78.88.88,0,0,0,.69.26.44.44,0,0,0,.25-.06l0-.35h-.58v-1h1.69v2a1.48,1.48,0,0,1-.62.43A2.15,2.15,0,0,1,21.81,58.74Z"/><path class="cls-13" d="M21.78,54.59a1.73,1.73,0,0,1,.75.16,1.9,1.9,0,0,1,.53.36l-.54.66a2.11,2.11,0,0,0-.31-.21.87.87,0,0,0-.39-.08.84.84,0,0,0-.66.3,1.2,1.2,0,0,0-.26.83,1.32,1.32,0,0,0,.24.85,1,1,0,0,0,.77.29.51.51,0,0,0,.3-.07v-.54h-.57V56.3h1.49v1.86a1.85,1.85,0,0,1-.56.34,2.1,2.1,0,0,1-.76.14,2.33,2.33,0,0,1-1-.22,1.76,1.76,0,0,1-.71-.67,2.16,2.16,0,0,1-.26-1.1,2.19,2.19,0,0,1,.27-1.12,1.91,1.91,0,0,1,.71-.7,2,2,0,0,1,1-.24m0-.2a2.17,2.17,0,0,0-1.06.27,2,2,0,0,0-.78.77,2.35,2.35,0,0,0-.3,1.22,2.41,2.41,0,0,0,.29,1.21,1.88,1.88,0,0,0,.8.73,2.26,2.26,0,0,0,1.08.25,2.32,2.32,0,0,0,.84-.16,2,2,0,0,0,.62-.38l.06-.06V56.1H21.44v1.24H22v.2h-.1a.75.75,0,0,1-.61-.22,1.07,1.07,0,0,1-.2-.72,1,1,0,0,1,.21-.7.71.71,0,0,1,.81-.17,1.51,1.51,0,0,1,.26.18l.16.14.13-.16.54-.66.12-.14L23.2,55a2.29,2.29,0,0,0-.58-.4,1.86,1.86,0,0,0-.84-.18Z"/></g></g></svg>