<svg id="Layer_1" data-name="Layer 1" xmlns="http://www.w3.org/2000/svg" xmlns:xlink="http://www.w3.org/1999/xlink" viewBox="0 0 33.26 60.8"><defs><style>.cls-1{fill:url(#linear-gradient);}.cls-2{fill:url(#linear-gradient-2);}.cls-3{fill:url(#linear-gradient-3);}.cls-4{fill:url(#linear-gradient-4);}.cls-5{fill:url(#linear-gradient-5);}.cls-6{fill:url(#linear-gradient-6);}.cls-7{fill:url(#linear-gradient-7);}.cls-8{fill:url(#linear-gradient-8);}.cls-9{fill:url(#linear-gradient-9);}.cls-10{fill:#8e8e8e;}</style><linearGradient id="linear-gradient" x1="20" y1="17.14" x2="12.83" y2="4.71" gradientUnits="userSpaceOnUse"><stop offset="0" stop-color="#6c6c6c"/><stop offset="0.13" stop-color="#535353"/><stop offset="0.39" stop-color="#262626"/><stop offset="0.58" stop-color="#0a0a0a"/><stop offset="0.7"/></linearGradient><linearGradient id="linear-gradient-2" x1="20.6" y1="22.44" x2="10.79" y2="5.44" gradientUnits="userSpaceOnUse"><stop offset="0" stop-color="#6c6c6c"/><stop offset="0.12" stop-color="#616161"/><stop offset="0.32" stop-color="#454545"/><stop offset="0.59" stop-color="#161616"/><stop offset="0.7"/></linearGradient><linearGradient id="linear-gradient-3" x1="22.51" y1="37.53" x2="12.57" y2="20.32" gradientUnits="userSpaceOnUse"><stop offset="0" stop-color="#6c6c6c"/><stop offset="0.14" stop-color="#484848"/><stop offset="0.29" stop-color="#292929"/><stop offset="0.44" stop-color="#121212"/><stop offset="0.58" stop-color="#050505"/><stop offset="0.7"/></linearGradient><linearGradient id="linear-gradient-4" x1="26.83" y1="28.73" x2="17.52" y2="12.6" gradientUnits="userSpaceOnUse"><stop offset="0.3"/><stop offset="0.54" stop-color="#020202"/><stop offset="0.66" stop-color="#0a0a0a"/><stop offset="0.76" stop-color="#171717"/><stop offset="0.84" stop-color="#2b2b2b"/><stop offset="0.91" stop-color="#434343"/><stop offset="0.98" stop-color="#616161"/><stop offset="1" stop-color="#6c6c6c"/></linearGradient><linearGradient id="linear-gradient-5" x1="15.66" y1="30.15" x2="6.55" y2="14.37" gradientUnits="userSpaceOnUse"><stop offset="0" stop-color="#6c6c6c"/><stop offset="0.08" stop-color="#484848"/><stop offset="0.18" stop-color="#292929"/><stop offset="0.27" stop-color="#121212"/><stop offset="0.35" stop-color="#050505"/><stop offset="0.42"/></linearGradient><linearGradient id="linear-gradient-6" x1="21.25" y1="35.68" x2="13.33" y2="27.77" gradientUnits="userSpaceOnUse"><stop offset="0" stop-color="#6c6c6c"/><stop offset="0.24" stop-color="#424242"/><stop offset="0.55" stop-color="#131313"/><stop offset="0.7"/></linearGradient><linearGradient id="linear-gradient-7" x1="25.1" y1="21.8" x2="7.29" y2="21.8" gradientUnits="userSpaceOnUse"><stop offset="0.02" stop-color="#666"/><stop offset="0.02" stop-color="#646464"/><stop offset="0.2" stop-color="#393939"/><stop offset="0.36" stop-color="#1a1a1a"/><stop offset="0.5" stop-color="#070707"/><stop offset="0.59"/><stop offset="1" stop-color="#4d4d4d"/></linearGradient><linearGradient id="linear-gradient-8" x1="27.62" y1="28.51" x2="4.45" y2="15.14" xlink:href="#linear-gradient-7"/><linearGradient id="linear-gradient-9" x1="26.13" y1="21.8" x2="8.32" y2="21.8" xlink:href="#linear-gradient-7"/></defs><path class="cls-1" d="M14.7,11.44a50.87,50.87,0,0,0-.08,8.81,27.1,27.1,0,0,1,1.21-4.07v-.12h0a10,10,0,0,1,2.94-4.37,2.91,2.91,0,0,1,3.9.2c-1.21-5.6-3.45-9.38-6-9.41A33.61,33.61,0,0,0,14.7,11.44Z"/><path class="cls-2" d="M15.27,25.52a41.37,41.37,0,0,1-.69-4.87l0-.06a.43.43,0,0,0,0-.11,51.15,51.15,0,0,1,.08-9.09,34.18,34.18,0,0,1,1.95-8.91c-2.53.07-4.74,3.79-5.94,9.31C11.19,18.26,13,23.47,15.27,25.52Z"/><path class="cls-3" d="M18,17.19a42.93,42.93,0,0,1,.69,4.87l0,.05,0,.11a50.22,50.22,0,0,1-.07,9.09,33.5,33.5,0,0,1-2.05,9.16h.1c2.53,0,4.75-3.65,6-9.12C22.14,24.69,20.34,19.28,18,17.19Z"/><path class="cls-4" d="M18.83,11.87A9.72,9.72,0,0,0,16,16.07a3.25,3.25,0,0,1,1.89.82l.05-.07a.5.5,0,0,0,0,.12c2.39,2,4.22,7.46,4.76,14.18a46.3,46.3,0,0,0,1-9.64,45.94,45.94,0,0,0-.91-9.34A2.9,2.9,0,0,0,18.83,11.87Z"/><path class="cls-5" d="M14.43,30.83a9.74,9.74,0,0,0,2.85-4.2,3.26,3.26,0,0,1-1.9-.81l0,.06s0-.08,0-.12c-2.34-2-4.15-7.22-4.73-13.73a47,47,0,0,0-.92,9.45,47,47,0,0,0,.85,9.11A2.89,2.89,0,0,0,14.43,30.83Z"/><path class="cls-6" d="M18.55,31.26a49.78,49.78,0,0,0,.09-8.8,27.46,27.46,0,0,1-1.21,4.07v.11h-.05A9.92,9.92,0,0,1,14.45,31a3.1,3.1,0,0,1-1.83.65,3.23,3.23,0,0,1-2-.84c1.18,5.61,3.37,9.44,5.9,9.63A33,33,0,0,0,18.55,31.26Z"/><path class="cls-7" d="M16.09,0c-4.92.11-8.86,10-8.8,22s4.1,21.71,9,21.6,8.86-10,8.8-22S21-.11,16.09,0Zm.12,40.36c-4.11.09-7.49-8.28-7.54-18.69S11.91,2.75,16,2.66s7.49,8.28,7.54,18.69S20.32,40.27,16.21,40.36Z"/><path class="cls-8" d="M15.93,0C11,.13,7.07,10,7.13,22s4.09,21.7,9,21.6a4,4,0,0,0,1.13-.2C21.65,42,25,32.73,24.94,21.63,24.88,9.59,20.85-.08,15.93,0Zm1.31,40.34c-4.12.09-7.49-8.27-7.54-18.69s3.24-18.92,7.35-19S24.54,11,24.59,21.36,21.35,40.28,17.24,40.37Z"/><path class="cls-9" d="M17.12,0C12.2.11,8.26,10,8.32,22s4.09,21.71,9,21.6,8.86-10,8.8-22S22-.11,17.12,0Zm.11,40.36c-4.11.09-7.48-8.28-7.53-18.69s3.24-18.92,7.35-19,7.49,8.28,7.54,18.69S21.35,40.27,17.23,40.36Z"/><path class="cls-10" d="M11.58,52.57v-3.9h1v3.9Z"/><path class="cls-10" d="M14.51,52.57h-1v-3.9H15a2.39,2.39,0,0,1,.77.11,1.11,1.11,0,0,1,.57.39,1.21,1.21,0,0,1,.22.76,1.22,1.22,0,0,1-.18.69,1.16,1.16,0,0,1-.45.43l.84,1.52H15.58l-.67-1.31h-.4Zm0-2.13h.37q.63,0,.63-.51a.36.36,0,0,0-.16-.35.86.86,0,0,0-.47-.1h-.37Z"/><path class="cls-10" d="M17.26,52.57v-3.9h1v3.9Z"/><path class="cls-10" d="M20.39,52.64a2.42,2.42,0,0,1-.77-.14,1.93,1.93,0,0,1-.7-.42l.58-.71a2.07,2.07,0,0,0,.45.27,1.23,1.23,0,0,0,.47.11c.29,0,.44-.09.44-.28a.21.21,0,0,0-.14-.2,3.17,3.17,0,0,0-.39-.17l-.48-.21a1.36,1.36,0,0,1-.56-.39,1,1,0,0,1-.23-.69,1.11,1.11,0,0,1,.41-.86,1.51,1.51,0,0,1,1-.36,2,2,0,0,1,.68.13,1.79,1.79,0,0,1,.62.4l-.52.64a2.08,2.08,0,0,0-.38-.21,1.24,1.24,0,0,0-.4-.07c-.27,0-.41.09-.41.27a.24.24,0,0,0,.16.21l.42.18.47.18a1.3,1.3,0,0,1,.57.4,1.11,1.11,0,0,1,.2.67,1.18,1.18,0,0,1-.4.87A1.57,1.57,0,0,1,20.39,52.64Z"/><path class="cls-10" d="M.72,58.57v-3.9H1.87a2.26,2.26,0,0,1,1.45.45,1.79,1.79,0,0,1,.55,1.48,1.88,1.88,0,0,1-.54,1.5,2.11,2.11,0,0,1-1.4.47Zm1-.83h.06a1.12,1.12,0,0,0,.71-.23,1.1,1.1,0,0,0,.3-.91,1.05,1.05,0,0,0-.3-.9,1.17,1.17,0,0,0-.71-.21H1.75Z"/><path class="cls-10" d="M4.57,58.57v-3.9h1v3.9Z"/><path class="cls-10" d="M8.5,58.57l-.19-.83H7.22L7,58.57H6l1.19-3.9H8.41l1.19,3.9Zm-1-1.9-.06.27h.72l-.07-.27c-.05-.18-.1-.39-.14-.61l-.15-.63h0c0,.2-.09.41-.13.63S7.52,56.49,7.47,56.67Z"/><path class="cls-10" d="M10,58.57v-3.9H11.4a2.45,2.45,0,0,1,.78.12,1.15,1.15,0,0,1,.58.4A1.2,1.2,0,0,1,13,56a1.26,1.26,0,0,1-.22.78,1.33,1.33,0,0,1-.57.45,2.19,2.19,0,0,1-.77.14H11v1.24Zm1-2.06h.37c.4,0,.6-.18.6-.55a.41.41,0,0,0-.16-.37.84.84,0,0,0-.46-.11H11Z"/><path class="cls-10" d="M13.62,58.57v-3.9h1v1.45h1.16V54.67h1v3.9h-1V57H14.65v1.55Z"/><path class="cls-10" d="M18.74,58.57h-1v-3.9h1.47a2.45,2.45,0,0,1,.78.11,1.08,1.08,0,0,1,.78,1.15,1.22,1.22,0,0,1-.17.69,1.19,1.19,0,0,1-.46.43L21,58.57H19.81l-.67-1.31h-.4Zm0-2.13h.37q.63,0,.63-.51a.38.38,0,0,0-.16-.35.86.86,0,0,0-.47-.1h-.37Z"/><path class="cls-10" d="M23.47,58.57l-.19-.83H22.19l-.2.83h-1l1.18-3.9h1.25l1.19,3.9Zm-1-1.9-.07.27h.72L23,56.67c-.05-.18-.1-.39-.15-.61s-.09-.43-.14-.63h0c0,.2-.08.41-.13.63S22.49,56.49,22.44,56.67Z"/><path class="cls-10" d="M26.67,58.64a2.32,2.32,0,0,1-1-.22,1.64,1.64,0,0,1-.71-.67,2.06,2.06,0,0,1-.27-1.1A2.19,2.19,0,0,1,25,55.53a1.86,1.86,0,0,1,.72-.7,2,2,0,0,1,1-.24,1.73,1.73,0,0,1,.75.16,1.84,1.84,0,0,1,.52.36l-.54.66a2.73,2.73,0,0,0-.3-.21,1,1,0,0,0-.4-.08.85.85,0,0,0-.66.3,1.25,1.25,0,0,0-.26.83,1.27,1.27,0,0,0,.25.85,1,1,0,0,0,.77.29.51.51,0,0,0,.3-.07v-.54H26.5V56.3H28v1.86a1.79,1.79,0,0,1-.55.34A2.15,2.15,0,0,1,26.67,58.64Z"/><path class="cls-10" d="M28.75,58.57v-3.9h1.1l.59,1.59a3.37,3.37,0,0,1,.1.34c0,.12.07.23.1.35h0c0-.12.07-.23.1-.35s.07-.23.1-.34l.57-1.59h1.1v3.9H31.6V57.41a6.55,6.55,0,0,1,0-.7q0-.39.09-.69h0l-.32.94-.48,1.29h-.55L29.88,57,29.56,56h0c0,.2.05.43.08.69a4.68,4.68,0,0,1,.05.7v1.16Z"/></svg>