<?xml version="1.0" encoding="utf-8"?>
<!-- Generator: Adobe Illustrator 25.2.3, SVG Export Plug-In . SVG Version: 6.00 Build 0)  -->
<svg version="1.1" id="Layer_1" xmlns="http://www.w3.org/2000/svg" xmlns:xlink="http://www.w3.org/1999/xlink" x="0px" y="0px"
	 viewBox="0 0 512 512" style="enable-background:new 0 0 512 512;" xml:space="preserve">
<style type="text/css">
	.st0{fill:#808080;}
</style>
<path class="st0" d="M502.6,70.6L441.4,9.4c-6-6-14.1-9.4-22.6-9.4H255.1c-35.4,0-64,28.7-64,64l0,256c0.9,35.4,29.6,64,64.9,64h192
	c35.2,0,64-28.8,64-64V93.2C512,84.8,508.6,76.6,502.6,70.6z M464,320c0,8.8-7.2,16-16,16H255.1c-8.8,0-16-7.2-16-16V64.1
	c0-8.8,7.2-16,16-16h128L384,96c0,17.7,14.3,32,32,32h47.1v192H464z M272,448c0,8.8-7.2,16-16,16H63.1c-8.8,0-16-7.2-16-16L48,192.1
	c0-8.8,7.2-16,16-16h96V128H64c-35.3,0-64,28.6-64,64l0,256c0,35.3,28.7,64,64,64h192c35.2,0,64-28.8,64-64v-32h-47.1L272,448z"/>
</svg>
