<svg xmlns="http://www.w3.org/2000/svg" xmlns:xlink="http://www.w3.org/1999/xlink" width="185.16" height="94.96" viewBox="0 0 185.16 94.96"><defs><style>.cls-1{isolation:isolate;}.cls-2,.cls-3,.cls-4,.cls-5{stroke-linejoin:round;stroke-width:0.38px;}.cls-2{fill:url(#linear-gradient);stroke:url(#linear-gradient-2);}.cls-3{fill:url(#linear-gradient-3);stroke:url(#linear-gradient-4);}.cls-4{fill:url(#linear-gradient-5);stroke:url(#linear-gradient-6);}.cls-5{fill:url(#linear-gradient-7);stroke:url(#linear-gradient-8);}.cls-6{fill:url(#linear-gradient-9);}.cls-7{fill:url(#linear-gradient-10);}.cls-8{fill:url(#linear-gradient-11);}.cls-9{fill:url(#linear-gradient-12);}.cls-10{fill:url(#linear-gradient-13);}.cls-11{fill:url(#linear-gradient-14);}.cls-12{fill:url(#linear-gradient-15);}.cls-13{fill:url(#linear-gradient-16);}.cls-14{fill:url(#linear-gradient-17);}.cls-15{fill:url(#linear-gradient-18);}.cls-16{fill:url(#linear-gradient-19);}.cls-17{fill:url(#linear-gradient-20);}.cls-18{fill:url(#linear-gradient-21);}.cls-19{fill:url(#linear-gradient-22);}.cls-20{fill:url(#linear-gradient-23);}.cls-21{fill:url(#linear-gradient-24);}.cls-22{fill:url(#linear-gradient-25);}.cls-23{opacity:0.23;mix-blend-mode:difference;fill:url(#linear-gradient-26);}.cls-24{fill:url(#linear-gradient-27);}.cls-25,.cls-45{opacity:0.85;mix-blend-mode:multiply;}.cls-25{fill:url(#linear-gradient-28);}.cls-26{fill:url(#linear-gradient-29);}.cls-27{fill:url(#linear-gradient-30);}.cls-28{fill:url(#linear-gradient-31);}.cls-29{fill:url(#radial-gradient);}.cls-30{fill:url(#linear-gradient-32);}.cls-31{fill:url(#radial-gradient-2);}.cls-32{fill:url(#radial-gradient-3);}.cls-33{fill:url(#radial-gradient-4);}.cls-34{fill:url(#linear-gradient-33);}.cls-35{fill:url(#radial-gradient-5);}.cls-36{fill:url(#radial-gradient-6);}.cls-37,.cls-38{mix-blend-mode:darken;}.cls-37{fill:url(#radial-gradient-7);}.cls-38{fill:url(#radial-gradient-8);}.cls-39{fill:url(#linear-gradient-34);}.cls-40{fill:url(#linear-gradient-35);}.cls-41{fill:url(#linear-gradient-36);}.cls-42,.cls-43,.cls-44{opacity:0.4;mix-blend-mode:soft-light;}.cls-42{fill:url(#linear-gradient-37);}.cls-43{fill:url(#linear-gradient-38);}.cls-44{fill:url(#linear-gradient-39);}.cls-45{fill:url(#linear-gradient-40);}.cls-46{fill:#fff;}</style><linearGradient id="linear-gradient" x1="-184.57" y1="47.59" x2="-178.7" y2="47.59" gradientTransform="matrix(0, 1, 1, 0, -11.08, 229.23)" gradientUnits="userSpaceOnUse"><stop offset="0" stop-color="#1a1a1a"/><stop offset="0.09" stop-color="#2c2c2c"/><stop offset="0.15" stop-color="#333"/><stop offset="0.4" stop-color="#4d4d4d"/><stop offset="0.78" stop-color="#333"/><stop offset="1" stop-color="#1a1a1a"/></linearGradient><linearGradient id="linear-gradient-2" x1="-184.75" y1="47.59" x2="-178.52" y2="47.59" xlink:href="#linear-gradient"/><linearGradient id="linear-gradient-3" x1="-178.31" y1="47.17" x2="-154.02" y2="47.17" gradientTransform="matrix(0, 1, 1, 0, -26.12, 213.33)" xlink:href="#linear-gradient"/><linearGradient id="linear-gradient-4" x1="-178.5" y1="47.17" x2="-153.83" y2="47.17" gradientTransform="matrix(0, 1, 1, 0, -26.12, 213.33)" xlink:href="#linear-gradient"/><linearGradient id="linear-gradient-5" x1="-154.02" y1="46.94" x2="-145.31" y2="46.94" gradientTransform="matrix(0, 1, 1, 0, -42.4, 196.61)" xlink:href="#linear-gradient"/><linearGradient id="linear-gradient-6" x1="-154.21" y1="46.94" x2="-145.13" y2="46.94" gradientTransform="matrix(0, 1, 1, 0, -42.4, 196.61)" xlink:href="#linear-gradient"/><linearGradient id="linear-gradient-7" x1="-178.7" y1="47.59" x2="-175.97" y2="47.59" gradientTransform="matrix(0, 1, 1, 0, -15.38, 224.93)" xlink:href="#linear-gradient"/><linearGradient id="linear-gradient-8" x1="-178.89" y1="47.59" x2="-175.78" y2="47.59" gradientTransform="matrix(0, 1, 1, 0, -15.38, 224.93)" xlink:href="#linear-gradient"/><linearGradient id="linear-gradient-9" x1="-175.31" y1="17.88" x2="-154.31" y2="17.88" gradientTransform="matrix(1, 0, 0, -1, 184.5, 35.75)" gradientUnits="userSpaceOnUse"><stop offset="0" stop-color="#4d4d4d"/><stop offset="0.06" stop-color="#9e9e9e"/><stop offset="0.32" stop-color="#222"/><stop offset="0.35" stop-color="#232323"/><stop offset="0.78" stop-color="#333"/><stop offset="0.9" stop-color="#454545"/><stop offset="0.96" stop-color="#ccc"/><stop offset="0.96" stop-color="#b6b6b6"/><stop offset="0.97" stop-color="#7f7f7f"/><stop offset="0.98" stop-color="#535353"/><stop offset="0.99" stop-color="#343434"/><stop offset="1" stop-color="#212121"/><stop offset="1" stop-color="#1a1a1a"/></linearGradient><linearGradient id="linear-gradient-10" x1="-175.31" y1="13.38" x2="-154.31" y2="13.38" gradientTransform="matrix(1, 0, 0, -1, 184.5, 26.75)" xlink:href="#linear-gradient-9"/><linearGradient id="linear-gradient-11" x1="-175.31" y1="26.88" x2="-154.31" y2="26.88" gradientTransform="matrix(1, 0, 0, -1, 184.5, 53.75)" xlink:href="#linear-gradient-9"/><linearGradient id="linear-gradient-12" x1="-175.31" y1="22.38" x2="-154.31" y2="22.38" gradientTransform="matrix(1, 0, 0, -1, 184.5, 44.75)" xlink:href="#linear-gradient-9"/><linearGradient id="linear-gradient-13" x1="-175.31" y1="35.88" x2="-154.31" y2="35.88" gradientTransform="matrix(1, 0, 0, -1, 184.5, 71.75)" xlink:href="#linear-gradient-9"/><linearGradient id="linear-gradient-14" x1="-175.31" y1="31.38" x2="-154.31" y2="31.38" gradientTransform="matrix(1, 0, 0, -1, 184.5, 62.75)" xlink:href="#linear-gradient-9"/><linearGradient id="linear-gradient-15" x1="-175.31" y1="44.88" x2="-154.31" y2="44.88" gradientTransform="matrix(1, 0, 0, -1, 184.5, 89.75)" xlink:href="#linear-gradient-9"/><linearGradient id="linear-gradient-16" x1="-175.31" y1="40.38" x2="-154.31" y2="40.38" gradientTransform="matrix(1, 0, 0, -1, 184.5, 80.75)" xlink:href="#linear-gradient-9"/><linearGradient id="linear-gradient-17" x1="-175.31" y1="53.88" x2="-154.31" y2="53.88" gradientTransform="matrix(1, 0, 0, -1, 184.5, 107.75)" xlink:href="#linear-gradient-9"/><linearGradient id="linear-gradient-18" x1="-175.31" y1="49.38" x2="-154.31" y2="49.38" gradientTransform="matrix(1, 0, 0, -1, 184.5, 98.75)" xlink:href="#linear-gradient-9"/><linearGradient id="linear-gradient-19" x1="-175.31" y1="62.88" x2="-154.31" y2="62.88" gradientTransform="matrix(1, 0, 0, -1, 184.5, 125.75)" xlink:href="#linear-gradient-9"/><linearGradient id="linear-gradient-20" x1="-175.31" y1="58.38" x2="-154.31" y2="58.38" gradientTransform="matrix(1, 0, 0, -1, 184.5, 116.75)" xlink:href="#linear-gradient-9"/><linearGradient id="linear-gradient-21" x1="-175.31" y1="71.88" x2="-154.31" y2="71.88" gradientTransform="matrix(1, 0, 0, -1, 184.5, 143.75)" xlink:href="#linear-gradient-9"/><linearGradient id="linear-gradient-22" x1="-175.31" y1="67.38" x2="-154.31" y2="67.38" gradientTransform="matrix(1, 0, 0, -1, 184.5, 134.75)" xlink:href="#linear-gradient-9"/><linearGradient id="linear-gradient-23" x1="-175.31" y1="80.88" x2="-154.31" y2="80.88" gradientTransform="matrix(1, 0, 0, -1, 184.5, 161.75)" xlink:href="#linear-gradient-9"/><linearGradient id="linear-gradient-24" x1="-175.31" y1="76.38" x2="-154.31" y2="76.38" gradientTransform="matrix(1, 0, 0, -1, 184.5, 152.75)" xlink:href="#linear-gradient-9"/><linearGradient id="linear-gradient-25" x1="-329.83" y1="47.59" x2="-184.36" y2="47.59" gradientTransform="matrix(1, 0, 0, -1, 369.06, 95.18)" gradientUnits="userSpaceOnUse"><stop offset="0" stop-color="#4d4d4d"/><stop offset="0.54" stop-color="#222"/><stop offset="0.65" stop-color="#2c2c2c"/><stop offset="0.78" stop-color="#333"/><stop offset="0.93" stop-color="#454545"/><stop offset="1" stop-color="#1a1a1a"/></linearGradient><linearGradient id="linear-gradient-26" x1="-257.54" y1="94.96" x2="-257.54" gradientTransform="matrix(1, 0, 0, -1, 369.95, 94.96)" gradientUnits="userSpaceOnUse"><stop offset="0" stop-color="#39b54a"/><stop offset="0.15" stop-color="#8cc63f"/><stop offset="0.3" stop-color="#85c540"/><stop offset="0.55" stop-color="#39b54a"/><stop offset="0.93" stop-color="#009245"/><stop offset="1" stop-color="#006837"/></linearGradient><linearGradient id="linear-gradient-27" x1="-256.58" y1="91.84" x2="-256.58" y2="3.34" gradientTransform="matrix(1, 0, 0, -1, 368.04, 95.18)" gradientUnits="userSpaceOnUse"><stop offset="0.06" stop-color="#1a1a1a"/><stop offset="0.29" stop-color="#353535"/><stop offset="0.51" stop-color="#4d4d4d"/><stop offset="0.87" stop-color="#1a1a1a"/></linearGradient><linearGradient id="linear-gradient-28" x1="-201.39" y1="98.31" x2="-304.67" y2="-4.98" gradientTransform="matrix(1, 0, 0, -1, 365.04, 93.33)" xlink:href="#linear-gradient-26"/><linearGradient id="linear-gradient-29" x1="-317.81" y1="21.18" x2="-187.85" y2="21.18" gradientTransform="matrix(1, 0, 0, -1, 360.54, 42.35)" gradientUnits="userSpaceOnUse"><stop offset="0" stop-color="#393939"/><stop offset="0.47" stop-color="#181818"/><stop offset="0.87"/></linearGradient><linearGradient id="linear-gradient-30" x1="-317.81" y1="46.68" x2="-187.85" y2="46.68" gradientTransform="matrix(1, 0, 0, -1, 360.54, 93.35)" xlink:href="#linear-gradient-29"/><linearGradient id="linear-gradient-31" x1="-317.81" y1="72.18" x2="-187.85" y2="72.18" gradientTransform="matrix(1, 0, 0, -1, 360.54, 144.35)" xlink:href="#linear-gradient-29"/><radialGradient id="radial-gradient" cx="-200.26" cy="72.13" r="10.32" gradientTransform="matrix(-1, 0, 0, 1, -145.13, 0)" gradientUnits="userSpaceOnUse"><stop offset="0" stop-color="#1a1a1a"/><stop offset="0.09" stop-color="#2c2c2c"/><stop offset="0.15" stop-color="#333"/><stop offset="0.78" stop-color="#333"/><stop offset="1" stop-color="#1a1a1a"/></radialGradient><linearGradient id="linear-gradient-32" x1="-208" y1="72.13" x2="-192.52" y2="72.13" gradientTransform="matrix(-1, 0, 0, 1, -145.13, 0)" gradientUnits="userSpaceOnUse"><stop offset="0.14" stop-color="#b3b3b3"/><stop offset="0.38" stop-color="#999"/><stop offset="0.62" stop-color="#7e7e7e"/><stop offset="0.87" stop-color="#666"/></linearGradient><radialGradient id="radial-gradient-2" cx="-200.26" cy="72.13" r="6.36" gradientTransform="matrix(-1, 0, 0, 1, -145.13, 0)" gradientUnits="userSpaceOnUse"><stop offset="0" stop-color="#1a1a1a"/><stop offset="0.38" stop-color="#2c2c2c"/><stop offset="0.65" stop-color="#333"/><stop offset="0.78" stop-color="#333"/><stop offset="1" stop-color="#1a1a1a"/></radialGradient><radialGradient id="radial-gradient-3" cx="-200.26" cy="72.13" r="6.56" xlink:href="#radial-gradient-2"/><radialGradient id="radial-gradient-4" cx="-222.76" cy="72.13" r="10.32" xlink:href="#radial-gradient"/><linearGradient id="linear-gradient-33" x1="-230.5" y1="72.13" x2="-215.02" y2="72.13" xlink:href="#linear-gradient-32"/><radialGradient id="radial-gradient-5" cx="-222.76" cy="72.13" r="6.36" xlink:href="#radial-gradient-2"/><radialGradient id="radial-gradient-6" cx="-222.76" cy="72.13" r="6.56" xlink:href="#radial-gradient-2"/><radialGradient id="radial-gradient-7" cx="-200.26" cy="72.13" r="10.32" gradientTransform="matrix(-1, 0, 0, 1, -145.13, 0)" gradientUnits="userSpaceOnUse"><stop offset="0" stop-color="#39b54a"/><stop offset="0.06" stop-color="#1aa247"/><stop offset="0.11" stop-color="#079646"/><stop offset="0.15" stop-color="#009245"/><stop offset="0.78" stop-color="#22b573"/><stop offset="1" stop-color="#006837"/></radialGradient><radialGradient id="radial-gradient-8" cx="-222.76" cy="72.13" r="10.32" xlink:href="#radial-gradient-7"/><linearGradient id="linear-gradient-34" x1="-317.36" y1="20.39" x2="-187.83" y2="20.39" gradientTransform="matrix(1, 0, 0, -1, 360.06, 40.78)" xlink:href="#linear-gradient-25"/><linearGradient id="linear-gradient-35" x1="-317.36" y1="45.89" x2="-187.83" y2="45.89" gradientTransform="matrix(1, 0, 0, -1, 360.06, 91.78)" xlink:href="#linear-gradient-25"/><linearGradient id="linear-gradient-36" x1="-317.36" y1="71.39" x2="-232.79" y2="71.39" gradientTransform="matrix(1, 0, 0, -1, 405.02, 142.78)" xlink:href="#linear-gradient-25"/><linearGradient id="linear-gradient-37" x1="-271.23" y1="-13.26" x2="-230.93" y2="56.55" gradientTransform="matrix(1, 0, 0, -1, 360.54, 42.35)" xlink:href="#linear-gradient-26"/><linearGradient id="linear-gradient-38" x1="-271.23" y1="12.24" x2="-230.93" y2="82.05" gradientTransform="matrix(1, 0, 0, -1, 360.54, 93.35)" xlink:href="#linear-gradient-26"/><linearGradient id="linear-gradient-39" x1="-271.23" y1="37.74" x2="-230.93" y2="107.55" gradientTransform="matrix(1, 0, 0, -1, 360.54, 144.35)" xlink:href="#linear-gradient-26"/><linearGradient id="linear-gradient-40" x1="-164.54" y1="82.96" x2="-164.54" y2="10.96" gradientTransform="matrix(1, 0, 0, -1, 183.95, 93.92)" xlink:href="#linear-gradient-26"/></defs><title>Detector_GenericDetector copy</title><g class="cls-1"><g id="Layer_1" data-name="Layer 1"><rect class="cls-2" x="-7.25" y="44.66" width="87.52" height="5.86" rx="1.04" transform="translate(84.1 11.08) rotate(90)"/><rect class="cls-3" x="-15.12" y="35.02" width="72.33" height="24.29" transform="translate(68.21 26.12) rotate(90)"/><rect class="cls-4" x="-33.35" y="42.59" width="75.78" height="8.71" rx="1.38" transform="translate(51.48 42.4) rotate(90)"/><rect class="cls-5" x="-5.33" y="46.22" width="75.09" height="2.74" rx="0.62" transform="translate(79.8 15.38) rotate(90)"/><rect class="cls-6" x="9.19" y="16.93" width="21" height="1.9" transform="translate(39.38 35.75) rotate(-180)"/><rect class="cls-7" x="9.19" y="12.43" width="21" height="1.9" transform="translate(39.38 26.75) rotate(-180)"/><rect class="cls-8" x="9.19" y="25.93" width="21" height="1.9" transform="translate(39.38 53.75) rotate(-180)"/><rect class="cls-9" x="9.19" y="21.43" width="21" height="1.9" transform="translate(39.38 44.75) rotate(-180)"/><rect class="cls-10" x="9.19" y="34.93" width="21" height="1.9" transform="translate(39.38 71.75) rotate(-180)"/><rect class="cls-11" x="9.19" y="30.43" width="21" height="1.9" transform="translate(39.38 62.75) rotate(-180)"/><rect class="cls-12" x="9.19" y="43.93" width="21" height="1.9" transform="translate(39.38 89.75) rotate(-180)"/><rect class="cls-13" x="9.19" y="39.43" width="21" height="1.9" transform="translate(39.38 80.75) rotate(-180)"/><rect class="cls-14" x="9.19" y="52.93" width="21" height="1.9" transform="translate(39.38 107.75) rotate(-180)"/><rect class="cls-15" x="9.19" y="48.43" width="21" height="1.9" transform="translate(39.38 98.75) rotate(-180)"/><rect class="cls-16" x="9.19" y="61.93" width="21" height="1.9" transform="translate(39.38 125.75) rotate(-180)"/><rect class="cls-17" x="9.19" y="57.43" width="21" height="1.9" transform="translate(39.38 116.75) rotate(-180)"/><rect class="cls-18" x="9.19" y="70.93" width="21" height="1.9" transform="translate(39.38 143.75) rotate(-180)"/><rect class="cls-19" x="9.19" y="66.43" width="21" height="1.9" transform="translate(39.38 134.75) rotate(-180)"/><rect class="cls-20" x="9.19" y="79.93" width="21" height="1.9" transform="translate(39.38 161.75) rotate(-180)"/><rect class="cls-21" x="9.19" y="75.43" width="21" height="1.9" transform="translate(39.38 152.75) rotate(-180)"/><rect class="cls-22" x="39.23" y="0.34" width="145.48" height="94.5" rx="2.9" transform="translate(223.94 95.18) rotate(-180)"/><rect class="cls-23" x="39.66" width="145.5" height="94.96" rx="2.9" transform="translate(224.82 94.96) rotate(180)"/><rect class="cls-24" x="42.72" y="3.34" width="137.46" height="88.5" rx="3.65" transform="translate(222.91 95.18) rotate(-180)"/><path class="cls-25" d="M49.72,8.56H177.19a0,0,0,0,1,0,0v76.2a0,0,0,0,1,0,0H49.72a7,7,0,0,1-7-7V15.56a7,7,0,0,1,7-7Z" transform="translate(219.91 93.33) rotate(-180)"/><path class="cls-26" d="M49.72,10.68h123a0,0,0,0,1,0,0v21a0,0,0,0,1,0,0h-123a7,7,0,0,1-7-7v-7a7,7,0,0,1,7-7Z" transform="translate(215.41 42.35) rotate(180)"/><path class="cls-27" d="M49.72,36.18h123a0,0,0,0,1,0,0v21a0,0,0,0,1,0,0h-123a7,7,0,0,1-7-7v-7a7,7,0,0,1,7-7Z" transform="translate(215.41 93.35) rotate(180)"/><path class="cls-28" d="M49.72,61.68h123a0,0,0,0,1,0,0v21a0,0,0,0,1,0,0h-123a7,7,0,0,1-7-7v-7A7,7,0,0,1,49.72,61.68Z" transform="translate(215.41 144.35) rotate(180)"/><circle class="cls-29" cx="55.14" cy="72.13" r="10.32"/><circle class="cls-30" cx="55.14" cy="72.13" r="7.74"/><circle class="cls-31" cx="55.14" cy="72.13" r="6.36"/><path class="cls-32" d="M48.58,72.13a6.56,6.56,0,1,1,6.56,6.56A6.56,6.56,0,0,1,48.58,72.13Zm.4,0A6.16,6.16,0,1,0,55.14,66,6.16,6.16,0,0,0,49,72.13Z"/><circle class="cls-33" cx="77.64" cy="72.13" r="10.32"/><circle class="cls-34" cx="77.64" cy="72.13" r="7.74"/><circle class="cls-35" cx="77.64" cy="72.13" r="6.36"/><path class="cls-36" d="M71.08,72.13a6.56,6.56,0,1,1,6.56,6.56A6.56,6.56,0,0,1,71.08,72.13Zm.4,0A6.16,6.16,0,1,0,77.64,66,6.16,6.16,0,0,0,71.48,72.13Z"/><circle class="cls-37" cx="55.14" cy="72.13" r="10.32"/><circle class="cls-38" cx="77.64" cy="72.13" r="10.32"/><rect class="cls-39" x="42.7" y="19.44" width="129.54" height="1.9" transform="translate(214.94 40.78) rotate(-180)"/><rect class="cls-40" x="42.7" y="44.94" width="129.54" height="1.9" transform="translate(214.94 91.78) rotate(-180)"/><rect class="cls-41" x="87.66" y="70.44" width="84.58" height="1.9" transform="translate(259.9 142.78) rotate(-180)"/><path class="cls-42" d="M49.72,10.68h123a0,0,0,0,1,0,0v21a0,0,0,0,1,0,0h-123a7,7,0,0,1-7-7v-7a7,7,0,0,1,7-7Z" transform="translate(215.41 42.35) rotate(180)"/><path class="cls-43" d="M49.72,36.18h123a0,0,0,0,1,0,0v21a0,0,0,0,1,0,0h-123a7,7,0,0,1-7-7v-7a7,7,0,0,1,7-7Z" transform="translate(215.41 93.35) rotate(180)"/><path class="cls-44" d="M49.72,61.68h123a0,0,0,0,1,0,0v21a0,0,0,0,1,0,0h-123a7,7,0,0,1-7-7v-7A7,7,0,0,1,49.72,61.68Z" transform="translate(215.41 144.35) rotate(180)"/><rect class="cls-45" x="8.16" y="10.96" width="22.5" height="72" transform="translate(38.82 93.92) rotate(-180)"/><path class="cls-46" d="M130.3,55.48a3.6,3.6,0,0,1-1.62-.36A2.72,2.72,0,0,1,127.53,54a3.37,3.37,0,0,1-.43-1.79,3.52,3.52,0,0,1,.44-1.81,2.93,2.93,0,0,1,1.15-1.14,3.23,3.23,0,0,1,1.57-.39,2.89,2.89,0,0,1,1.22.25,3.45,3.45,0,0,1,.85.59l-.88,1.07a2.28,2.28,0,0,0-.5-.33,1.33,1.33,0,0,0-.63-.14,1.41,1.41,0,0,0-1.08.49,2,2,0,0,0-.43,1.35,2.06,2.06,0,0,0,.41,1.37,1.55,1.55,0,0,0,1.25.48.87.87,0,0,0,.49-.12v-.87H130V51.68h2.42v3a2.6,2.6,0,0,1-.9.55A3.15,3.15,0,0,1,130.3,55.48Z"/><path class="cls-46" d="M133.67,55.37V49h4.1v1.4h-2.42v1h2.06v1.4h-2.06V54h2.51v1.41Z"/><path class="cls-46" d="M139.09,55.37V49h1.72l1.4,2.83.61,1.42h0c0-.34-.09-.73-.14-1.17a11.19,11.19,0,0,1-.08-1.25V49h1.6v6.34h-1.72l-1.4-2.84-.6-1.42h0c0,.37.08.76.13,1.19a10.71,10.71,0,0,1,.08,1.23v1.84Z"/><path class="cls-46" d="M145.64,55.37V49h4.1v1.4h-2.42v1h2.07v1.4h-2.07V54h2.52v1.41Z"/><path class="cls-46" d="M152.74,55.37h-1.68V49h2.4a4.17,4.17,0,0,1,1.26.18,2,2,0,0,1,.93.63,2,2,0,0,1,.35,1.24,2.08,2.08,0,0,1-.29,1.13,1.92,1.92,0,0,1-.74.7l1.38,2.46h-1.87l-1.1-2.13h-.64Zm0-3.46h.61c.67,0,1-.28,1-.83a.61.61,0,0,0-.26-.57,1.49,1.49,0,0,0-.75-.16h-.61Z"/><path class="cls-46" d="M157.21,55.37V49h1.67v6.34Z"/><path class="cls-46" d="M163,55.48a3.19,3.19,0,0,1-1.5-.36A2.74,2.74,0,0,1,160.43,54a3.46,3.46,0,0,1-.42-1.79,3.52,3.52,0,0,1,.44-1.81,3,3,0,0,1,2.63-1.53,2.64,2.64,0,0,1,1.13.25,3.39,3.39,0,0,1,.84.59l-.88,1.07a2.75,2.75,0,0,0-.48-.33,1.2,1.2,0,0,0-.57-.14,1.25,1.25,0,0,0-1,.49,2,2,0,0,0-.42,1.35,2.17,2.17,0,0,0,.38,1.37,1.19,1.19,0,0,0,1,.48,1.29,1.29,0,0,0,.65-.17,1.94,1.94,0,0,0,.5-.38l.87,1.06A2.6,2.6,0,0,1,163,55.48Z"/><path class="cls-46" d="M119.69,70.34V64h1.87a3.66,3.66,0,0,1,2.35.73,2.94,2.94,0,0,1,.91,2.41,3,3,0,0,1-.9,2.44,3.34,3.34,0,0,1-2.26.76ZM121.37,69h.09a1.52,1.52,0,0,0,1.64-1.85,1.71,1.71,0,0,0-.48-1.45,1.92,1.92,0,0,0-1.16-.34h-.09Z"/><path class="cls-46" d="M126,70.34V64H130v1.41h-2.42v1h2.07v1.4h-2.07v1.14h2.52v1.4Z"/><path class="cls-46" d="M132.58,70.34V65.41H130.9V64h5v1.41h-1.68v4.93Z"/><path class="cls-46" d="M136.87,70.34V64H141v1.41h-2.42v1h2.07v1.4h-2.07v1.14h2.52v1.4Z"/><path class="cls-46" d="M145,70.46a3.19,3.19,0,0,1-1.5-.36,2.72,2.72,0,0,1-1.1-1.08,4,4,0,0,1,0-3.61,3,3,0,0,1,1.13-1.14,3.13,3.13,0,0,1,1.5-.39,2.5,2.5,0,0,1,1.13.26,3.19,3.19,0,0,1,.84.58l-.88,1.08a2.83,2.83,0,0,0-.48-.34,1.2,1.2,0,0,0-.57-.13,1.22,1.22,0,0,0-1,.49,2,2,0,0,0-.42,1.34,2.2,2.2,0,0,0,.38,1.38,1.21,1.21,0,0,0,1,.47,1.28,1.28,0,0,0,.65-.16,2.19,2.19,0,0,0,.5-.38l.87,1A2.61,2.61,0,0,1,145,70.46Z"/><path class="cls-46" d="M149.11,70.34V65.41h-1.67V64h5v1.41h-1.68v4.93Z"/><path class="cls-46" d="M155.78,70.46a2.81,2.81,0,0,1-2.13-.88,3.47,3.47,0,0,1-.81-2.44,3.36,3.36,0,0,1,.81-2.41,2.86,2.86,0,0,1,2.13-.85,2.83,2.83,0,0,1,2.13.85,3.32,3.32,0,0,1,.82,2.41,3.43,3.43,0,0,1-.82,2.44A2.78,2.78,0,0,1,155.78,70.46Zm0-1.45a1,1,0,0,0,.9-.5,2.5,2.5,0,0,0,.33-1.37,2.29,2.29,0,0,0-.33-1.33,1.07,1.07,0,0,0-1.79,0,2.22,2.22,0,0,0-.34,1.33,2.42,2.42,0,0,0,.34,1.37A1,1,0,0,0,155.78,69Z"/><path class="cls-46" d="M161.54,70.34h-1.68V64h2.4a3.86,3.86,0,0,1,1.25.19,1.81,1.81,0,0,1,.93.63,1.94,1.94,0,0,1,.35,1.23,1.94,1.94,0,0,1-1,1.83l1.37,2.46h-1.87l-1.09-2.13h-.64Zm0-3.45h.6c.68,0,1-.28,1-.84a.62.62,0,0,0-.25-.57,1.57,1.57,0,0,0-.76-.15h-.6Z"/></g></g></svg>