<svg id="Layer_1" data-name="Layer 1" xmlns="http://www.w3.org/2000/svg" xmlns:xlink="http://www.w3.org/1999/xlink" width="123" height="122.08" viewBox="0 0 123 122.08"><defs><style>.cls-1,.cls-14,.cls-2,.cls-3,.cls-8,.cls-9{stroke-linejoin:round;stroke-width:0.38px;}.cls-1{fill:url(#linear-gradient);stroke:url(#linear-gradient-2);}.cls-2{fill:url(#linear-gradient-3);stroke:url(#linear-gradient-4);}.cls-3{fill:url(#linear-gradient-5);stroke:url(#linear-gradient-6);}.cls-4{fill:url(#linear-gradient-7);}.cls-5{fill:url(#linear-gradient-8);}.cls-6{fill:url(#linear-gradient-9);}.cls-7{fill:url(#linear-gradient-10);}.cls-8{fill:url(#linear-gradient-11);stroke:url(#linear-gradient-12);}.cls-9{fill:url(#linear-gradient-13);stroke:url(#linear-gradient-14);}.cls-10{fill:url(#radial-gradient);}.cls-11{fill:url(#radial-gradient-2);}.cls-12{fill:url(#radial-gradient-3);}.cls-13{fill:url(#radial-gradient-4);}.cls-14{fill:url(#linear-gradient-15);stroke:url(#linear-gradient-16);}.cls-15{fill:url(#linear-gradient-17);}.cls-16{fill:url(#linear-gradient-18);}.cls-17{fill:url(#linear-gradient-19);}.cls-18{fill:url(#linear-gradient-20);}.cls-19{fill:url(#linear-gradient-21);}.cls-20{fill:url(#radial-gradient-5);}.cls-21{fill:url(#linear-gradient-22);}.cls-22{fill:url(#radial-gradient-6);}.cls-23{fill:url(#linear-gradient-23);}.cls-24{fill:url(#radial-gradient-7);}.cls-25{fill:url(#radial-gradient-8);}.cls-26{fill:url(#radial-gradient-9);}.cls-27{fill:url(#radial-gradient-10);}.cls-28{fill:#fff;}</style><linearGradient id="linear-gradient" x1="-2603.55" y1="60.27" x2="-2598.98" y2="60.27" gradientTransform="matrix(0, 1, 1, 0, -22.54, 2661.54)" gradientUnits="userSpaceOnUse"><stop offset="0" stop-color="#1a1a1a"/><stop offset="0.09" stop-color="#2c2c2c"/><stop offset="0.15" stop-color="#333"/><stop offset="0.4" stop-color="#4d4d4d"/><stop offset="0.78" stop-color="#333"/><stop offset="1" stop-color="#1a1a1a"/></linearGradient><linearGradient id="linear-gradient-2" x1="-2603.74" y1="60.27" x2="-2598.79" y2="60.27" xlink:href="#linear-gradient"/><linearGradient id="linear-gradient-3" x1="-2598.98" y1="60.27" x2="-2596.84" y2="60.27" gradientTransform="matrix(0, 1, 1, 0, -25.89, 2658.18)" xlink:href="#linear-gradient"/><linearGradient id="linear-gradient-4" x1="-2599.16" y1="60.27" x2="-2596.65" y2="60.27" gradientTransform="matrix(0, 1, 1, 0, -25.89, 2658.18)" xlink:href="#linear-gradient"/><linearGradient id="linear-gradient-5" x1="-2596.84" y1="60.27" x2="-2593.79" y2="60.27" gradientTransform="matrix(0, 1, 1, 0, -28.49, 2655.59)" xlink:href="#linear-gradient"/><linearGradient id="linear-gradient-6" x1="-2597.03" y1="60.27" x2="-2593.6" y2="60.27" gradientTransform="matrix(0, 1, 1, 0, -28.49, 2655.59)" xlink:href="#linear-gradient"/><linearGradient id="linear-gradient-7" x1="-2679.9" y1="117.5" x2="-2606.52" y2="117.5" gradientTransform="matrix(-1, 0, 0, 1, -2563.53, 0)" gradientUnits="userSpaceOnUse"><stop offset="0" stop-color="#1a1a1a"/><stop offset="0.15" stop-color="#4d4d4d"/><stop offset="0.58" stop-color="#1a1a1a"/><stop offset="0.78" stop-color="#333"/><stop offset="0.94" stop-color="#4d4d4d"/></linearGradient><linearGradient id="linear-gradient-8" x1="-2683.24" y1="59.51" x2="-2603.18" y2="59.51" gradientTransform="matrix(1, 0, 0, -1, 2722.89, 119.02)" gradientUnits="userSpaceOnUse"><stop offset="0" stop-color="#4d4d4d"/><stop offset="0.54" stop-color="#222"/><stop offset="0.65" stop-color="#2c2c2c"/><stop offset="0.78" stop-color="#333"/><stop offset="0.93" stop-color="#454545"/><stop offset="1" stop-color="#1a1a1a"/></linearGradient><linearGradient id="linear-gradient-9" x1="-2678.85" y1="2.29" x2="-2607.57" y2="2.29" gradientTransform="matrix(1, 0, 0, -1, 2722.89, 4.58)" xlink:href="#linear-gradient-8"/><linearGradient id="linear-gradient-10" x1="-2686.53" y1="9.16" x2="-2599.89" y2="9.16" gradientTransform="matrix(1, 0, 0, -1, 2722.89, 18.31)" xlink:href="#linear-gradient"/><linearGradient id="linear-gradient-11" x1="-2593.79" y1="60.27" x2="-2578.53" y2="60.27" gradientTransform="matrix(0, 1, 1, 0, -37.64, 2646.43)" xlink:href="#linear-gradient"/><linearGradient id="linear-gradient-12" x1="-2593.98" y1="60.27" x2="-2578.34" y2="60.27" gradientTransform="matrix(0, 1, 1, 0, -37.64, 2646.43)" xlink:href="#linear-gradient"/><linearGradient id="linear-gradient-13" x1="-2578.53" y1="60.27" x2="-2575.48" y2="60.27" gradientTransform="matrix(0, 1, 1, 0, -46.8, 2637.28)" xlink:href="#linear-gradient"/><linearGradient id="linear-gradient-14" x1="-2578.72" y1="60.27" x2="-2575.29" y2="60.27" gradientTransform="matrix(0, 1, 1, 0, -46.8, 2637.28)" xlink:href="#linear-gradient"/><radialGradient id="radial-gradient" cx="-2585.82" cy="88.78" r="5.77" gradientTransform="matrix(-1, 0, 0, 1, -2563.53, 0)" gradientUnits="userSpaceOnUse"><stop offset="0.14" stop-color="#b3b3b3"/><stop offset="0.38" stop-color="#999"/><stop offset="0.69" stop-color="#7e7e7e"/><stop offset="1" stop-color="#666"/></radialGradient><radialGradient id="radial-gradient-2" cx="-2585.82" cy="88.78" r="4.33" gradientTransform="matrix(-1, 0, 0, 1, -2563.53, 0)" gradientUnits="userSpaceOnUse"><stop offset="0.13" stop-color="#999"/><stop offset="0.38" stop-color="#7e7e7e"/><stop offset="0.63" stop-color="#666"/><stop offset="0.7" stop-color="#7a7a7a"/><stop offset="0.82" stop-color="#999"/><stop offset="0.92" stop-color="#acacac"/><stop offset="0.99" stop-color="#b3b3b3"/></radialGradient><radialGradient id="radial-gradient-3" cx="-2585.82" cy="88.78" r="3.56" gradientTransform="matrix(-1, 0, 0, 1, -2563.53, 0)" gradientUnits="userSpaceOnUse"><stop offset="0.14" stop-color="#b3b3b3"/><stop offset="0.38" stop-color="#999"/><stop offset="0.62" stop-color="#7e7e7e"/><stop offset="0.87" stop-color="#666"/></radialGradient><radialGradient id="radial-gradient-4" cx="-2585.82" cy="88.78" r="3.67" xlink:href="#radial-gradient-3"/><linearGradient id="linear-gradient-15" x1="-2575.48" y1="57.06" x2="-2564.7" y2="57.06" gradientTransform="matrix(-1, 0, 0, 1, -2563.53, 0)" xlink:href="#linear-gradient"/><linearGradient id="linear-gradient-16" x1="-2575.66" y1="57.06" x2="-2564.51" y2="57.06" gradientTransform="matrix(-1, 0, 0, 1, -2563.53, 0)" xlink:href="#linear-gradient"/><linearGradient id="linear-gradient-17" x1="-2686.53" y1="109.61" x2="-2599.89" y2="109.61" gradientTransform="matrix(1, 0, 0, -1, 2722.89, 219.23)" xlink:href="#linear-gradient"/><linearGradient id="linear-gradient-18" x1="-2643.98" y1="100.39" x2="-2643.98" y2="17.99" gradientTransform="matrix(1, 0, 0, -1, 2724.43, 118.39)" gradientUnits="userSpaceOnUse"><stop offset="0.06" stop-color="#1a1a1a"/><stop offset="0.29" stop-color="#353535"/><stop offset="0.51" stop-color="#4d4d4d"/><stop offset="0.87" stop-color="#1a1a1a"/></linearGradient><linearGradient id="linear-gradient-19" x1="-2618.41" y1="58.11" x2="-2661.65" y2="14.87" gradientTransform="matrix(1, 0, 0, -1, 2718.29, 72.99)" gradientUnits="userSpaceOnUse"><stop offset="0" stop-color="#393939"/><stop offset="0.47" stop-color="#181818"/><stop offset="0.87"/></linearGradient><linearGradient id="linear-gradient-20" x1="-2618.41" y1="79.11" x2="-2661.65" y2="35.87" gradientTransform="matrix(1, 0, 0, -1, 2718.29, 114.99)" xlink:href="#linear-gradient-19"/><linearGradient id="linear-gradient-21" x1="-2618.41" y1="100.11" x2="-2661.65" y2="56.87" gradientTransform="matrix(1, 0, 0, -1, 2718.29, 156.99)" xlink:href="#linear-gradient-19"/><radialGradient id="radial-gradient-5" cx="-2672.04" cy="68.17" r="8.06" gradientTransform="matrix(-1, 0, 0, 1, -2563.53, 0)" gradientUnits="userSpaceOnUse"><stop offset="0" stop-color="#1a1a1a"/><stop offset="0.09" stop-color="#2c2c2c"/><stop offset="0.15" stop-color="#333"/><stop offset="0.78" stop-color="#333"/><stop offset="1" stop-color="#1a1a1a"/></radialGradient><linearGradient id="linear-gradient-22" x1="-2678.08" y1="68.17" x2="-2666" y2="68.17" gradientTransform="matrix(-1, 0, 0, 1, -2563.53, 0)" xlink:href="#radial-gradient-3"/><radialGradient id="radial-gradient-6" cx="-2672.04" cy="88.01" r="8.06" xlink:href="#radial-gradient-5"/><linearGradient id="linear-gradient-23" x1="-2678.08" y1="88.01" x2="-2666" y2="88.01" gradientTransform="matrix(-1, 0, 0, 1, -2563.53, 0)" xlink:href="#radial-gradient-3"/><radialGradient id="radial-gradient-7" cx="-2672.04" cy="68.17" r="4.97" gradientTransform="matrix(-1, 0, 0, 1, -2563.53, 0)" gradientUnits="userSpaceOnUse"><stop offset="0" stop-color="#1a1a1a"/><stop offset="0.38" stop-color="#2c2c2c"/><stop offset="0.65" stop-color="#333"/><stop offset="0.78" stop-color="#333"/><stop offset="1" stop-color="#1a1a1a"/></radialGradient><radialGradient id="radial-gradient-8" cx="-2672.04" cy="68.17" r="5.12" xlink:href="#radial-gradient-7"/><radialGradient id="radial-gradient-9" cx="-2672.04" cy="88.01" r="4.97" xlink:href="#radial-gradient-7"/><radialGradient id="radial-gradient-10" cx="-2672.04" cy="88.01" r="5.12" xlink:href="#radial-gradient-7"/></defs><title>Detector_Camera_IntensifiedCCD copy</title><rect class="cls-1" x="-2.28" y="57.99" width="80.04" height="4.58" transform="translate(98.01 22.54) rotate(90)"/><rect class="cls-2" x="0.05" y="59.21" width="68.67" height="2.14" transform="translate(94.66 25.89) rotate(90)"/><rect class="cls-3" x="0.5" y="58.75" width="62.56" height="3.05" transform="translate(92.06 28.49) rotate(90)"/><polygon class="cls-4" points="116.38 112.92 42.99 112.92 47.07 122.08 112.3 122.08 116.38 112.92"/><rect class="cls-5" x="39.65" y="10.68" width="80.06" height="97.66" transform="translate(159.36 119.02) rotate(-180)"/><rect class="cls-6" x="44.04" width="71.28" height="4.58" transform="translate(159.36 4.58) rotate(-180)"/><rect class="cls-7" x="36.36" y="3.05" width="86.64" height="12.21" rx="2.47" transform="translate(159.36 18.31) rotate(-180)"/><rect class="cls-8" x="-7.12" y="52.65" width="59.51" height="15.26" transform="translate(82.91 37.64) rotate(90)"/><rect class="cls-9" x="-17.81" y="58.75" width="62.56" height="3.05" transform="translate(73.75 46.8) rotate(90)"/><circle class="cls-10" cx="22.3" cy="88.78" r="5.77"/><circle class="cls-11" cx="22.3" cy="88.78" r="4.33"/><circle class="cls-12" cx="22.3" cy="88.78" r="3.56"/><path class="cls-13" d="M18.63,88.78a3.67,3.67,0,1,1,3.67,3.66A3.67,3.67,0,0,1,18.63,88.78Zm.22,0a3.45,3.45,0,1,0,3.45-3.45A3.45,3.45,0,0,0,18.85,88.78Z"/><path class="cls-14" d="M12,26.77,1.17,22.57q0,34.5.1,69H12S11.68,26.77,12,26.77Z"/><rect class="cls-15" x="36.36" y="103.51" width="86.64" height="12.21" rx="2.47" transform="translate(159.36 219.23) rotate(-180)"/><rect class="cls-16" x="43.76" y="17.99" width="73.39" height="82.4" rx="3.65" transform="translate(160.91 118.39) rotate(-180)"/><path class="cls-17" d="M46.76,26H111a0,0,0,0,1,0,0V47a0,0,0,0,1,0,0H46.76a3,3,0,0,1-3-3V29A3,3,0,0,1,46.76,26Z" transform="translate(154.76 72.99) rotate(180)"/><path class="cls-18" d="M46.76,47H111a0,0,0,0,1,0,0V68a0,0,0,0,1,0,0H46.76a3,3,0,0,1-3-3V50A3,3,0,0,1,46.76,47Z" transform="translate(154.76 114.99) rotate(-180)"/><path class="cls-19" d="M46.76,68H111a0,0,0,0,1,0,0V89a0,0,0,0,1,0,0H46.76a3,3,0,0,1-3-3V71A3,3,0,0,1,46.76,68Z" transform="translate(154.76 156.99) rotate(-180)"/><circle class="cls-20" cx="108.51" cy="68.17" r="8.06"/><circle class="cls-21" cx="108.51" cy="68.17" r="6.04"/><circle class="cls-22" cx="108.51" cy="88.01" r="8.06"/><circle class="cls-23" cx="108.51" cy="88.01" r="6.04"/><circle class="cls-24" cx="108.51" cy="68.17" r="4.97"/><path class="cls-25" d="M103.39,68.17a5.12,5.12,0,1,1,5.12,5.13A5.13,5.13,0,0,1,103.39,68.17Zm.31,0a4.81,4.81,0,1,0,4.81-4.81A4.82,4.82,0,0,0,103.7,68.17Z"/><circle class="cls-26" cx="108.51" cy="88.01" r="4.97"/><path class="cls-27" d="M103.39,88a5.12,5.12,0,1,1,5.12,5.12A5.13,5.13,0,0,1,103.39,88Zm.31,0a4.81,4.81,0,1,0,4.81-4.81A4.82,4.82,0,0,0,103.7,88Z"/><path class="cls-28" d="M39.34,112.76v-4.64h1.23v4.64Z"/><path class="cls-28" d="M41.59,112.76v-4.64h1.26l1,2.07.44,1h0c0-.25-.06-.53-.1-.85a7.49,7.49,0,0,1-.05-.92v-1.34h1.16v4.64H44.1l-1-2.08-.44-1h0c0,.27.07.56.1.87a7,7,0,0,1,.06.9v1.34Z"/><path class="cls-28" d="M47.26,112.76v-3.61H46v-1h3.68v1H48.49v3.61Z"/><path class="cls-28" d="M50.4,112.76v-4.64h3v1H51.63v.73h1.51v1H51.63v.83h1.84v1Z"/><path class="cls-28" d="M54.36,112.76v-4.64h1.26l1,2.07.45,1h0c0-.25-.07-.53-.11-.85s0-.63,0-.92v-1.34h1.17v4.64H56.87l-1-2.08-.45-1h0c0,.27.06.56.1.87s.05.61.05.9v1.34Z"/><path class="cls-28" d="M60.62,112.84a2.73,2.73,0,0,1-.91-.16,2.47,2.47,0,0,1-.84-.5l.7-.84a2.2,2.2,0,0,0,.53.32,1.33,1.33,0,0,0,.55.13c.35,0,.53-.11.53-.33a.28.28,0,0,0-.17-.25l-.46-.2-.58-.24a1.67,1.67,0,0,1-.65-.47,1.2,1.2,0,0,1-.28-.82,1.32,1.32,0,0,1,.48-1,1.84,1.84,0,0,1,1.24-.42,2.32,2.32,0,0,1,.81.15,2,2,0,0,1,.73.47l-.61.77a2.6,2.6,0,0,0-.45-.25,1.28,1.28,0,0,0-.48-.09c-.32,0-.48.11-.48.32a.27.27,0,0,0,.18.25l.5.21.57.22a1.55,1.55,0,0,1,.67.48,1.3,1.3,0,0,1,.23.79,1.4,1.4,0,0,1-.47,1A1.86,1.86,0,0,1,60.62,112.84Z"/><path class="cls-28" d="M63.17,112.76v-4.64H64.4v4.64Z"/><path class="cls-28" d="M65.42,112.76v-4.64h3v1h-1.8V110h1.54v1H66.65v1.7Z"/><path class="cls-28" d="M69.24,112.76v-4.64h1.23v4.64Z"/><path class="cls-28" d="M71.5,112.76v-4.64h3v1H72.72v.73h1.51v1H72.72v.83h1.84v1Z"/><path class="cls-28" d="M75.46,112.76v-4.64h1.37a2.66,2.66,0,0,1,1.72.54,2.14,2.14,0,0,1,.66,1.76,2.23,2.23,0,0,1-.65,1.78,2.49,2.49,0,0,1-1.66.56Zm1.23-1h.07a1.32,1.32,0,0,0,.84-.27,1.29,1.29,0,0,0,.35-1.08c0-.54-.11-.9-.35-1.06a1.37,1.37,0,0,0-.84-.25h-.07Z"/><path class="cls-28" d="M83.47,112.84a2.37,2.37,0,0,1-1.09-.26,2,2,0,0,1-.81-.79,2.52,2.52,0,0,1-.31-1.31,2.64,2.64,0,0,1,.32-1.33,2.25,2.25,0,0,1,.82-.83,2.22,2.22,0,0,1,1.1-.28,1.9,1.9,0,0,1,.83.18,2.64,2.64,0,0,1,.61.43l-.64.79a1.67,1.67,0,0,0-.36-.25.92.92,0,0,0-.41-.1.9.9,0,0,0-.71.36,1.49,1.49,0,0,0-.3,1,1.62,1.62,0,0,0,.27,1,.87.87,0,0,0,.72.35,1,1,0,0,0,.48-.12,1.72,1.72,0,0,0,.36-.28l.65.77A1.93,1.93,0,0,1,83.47,112.84Z"/><path class="cls-28" d="M87.36,112.84a2.37,2.37,0,0,1-1.09-.26,2,2,0,0,1-.81-.79,2.62,2.62,0,0,1-.31-1.31,2.64,2.64,0,0,1,.32-1.33A2.18,2.18,0,0,1,87.39,108a1.9,1.9,0,0,1,.83.18,2.64,2.64,0,0,1,.61.43l-.64.79a1.9,1.9,0,0,0-.35-.25.93.93,0,0,0-.42-.1.9.9,0,0,0-.71.36,1.49,1.49,0,0,0-.3,1,1.62,1.62,0,0,0,.27,1,.89.89,0,0,0,.72.35,1,1,0,0,0,.49-.12,1.72,1.72,0,0,0,.36-.28l.64.77A1.93,1.93,0,0,1,87.36,112.84Z"/><path class="cls-28" d="M89.53,112.76v-4.64H90.9a2.66,2.66,0,0,1,1.72.54,2.14,2.14,0,0,1,.66,1.76,2.23,2.23,0,0,1-.65,1.78,2.49,2.49,0,0,1-1.66.56Zm1.23-1h.07a1.32,1.32,0,0,0,.84-.27,1.29,1.29,0,0,0,.35-1.08c0-.54-.11-.9-.35-1.06a1.37,1.37,0,0,0-.84-.25h-.07Z"/><path class="cls-28" d="M97.54,112.84a2.37,2.37,0,0,1-1.09-.26,2,2,0,0,1-.81-.79,2.52,2.52,0,0,1-.31-1.31,2.64,2.64,0,0,1,.32-1.33,2.25,2.25,0,0,1,.82-.83,2.22,2.22,0,0,1,1.1-.28,1.83,1.83,0,0,1,.82.18,2.51,2.51,0,0,1,.62.43l-.64.79a1.67,1.67,0,0,0-.36-.25.92.92,0,0,0-.41-.1.9.9,0,0,0-.71.36,1.49,1.49,0,0,0-.3,1,1.62,1.62,0,0,0,.27,1,.87.87,0,0,0,.72.35,1,1,0,0,0,.48-.12,1.72,1.72,0,0,0,.36-.28l.64.77A1.9,1.9,0,0,1,97.54,112.84Z"/><path class="cls-28" d="M102.13,112.76l-.23-1h-1.3l-.22,1H99.12l1.41-4.64H102l1.41,4.64Zm-1.23-2.26-.07.33h.85l-.08-.33-.17-.72c-.06-.26-.11-.51-.17-.74h0c0,.23-.1.48-.15.74S101,110.29,100.9,110.5Z"/><path class="cls-28" d="M103.87,112.76v-4.64h1.31l.7,1.9.12.4.12.41h0l.12-.41.12-.4.67-1.9h1.31v4.64h-1.11v-1.37a6.6,6.6,0,0,1,.06-.83c0-.32.07-.59.1-.83h0l-.38,1.12-.58,1.53h-.65l-.57-1.53-.37-1.12h0c0,.24.06.51.1.83a6.6,6.6,0,0,1,.06.83v1.37Z"/><path class="cls-28" d="M109.4,112.76v-4.64h3v1h-1.76v.73h1.51v1h-1.51v.83h1.84v1Z"/><path class="cls-28" d="M114.59,112.76h-1.23v-4.64h1.76a2.94,2.94,0,0,1,.91.14,1.36,1.36,0,0,1,.68.46,1.44,1.44,0,0,1,.26.9,1.53,1.53,0,0,1-.21.83,1.46,1.46,0,0,1-.54.51l1,1.8h-1.36l-.8-1.56h-.47Zm0-2.53H115c.49,0,.74-.2.74-.61a.42.42,0,0,0-.19-.41,1,1,0,0,0-.55-.12h-.44Z"/><path class="cls-28" d="M120.2,112.76l-.22-1h-1.3l-.23,1H117.2l1.41-4.64h1.48l1.41,4.64ZM119,110.5l-.08.33h.86l-.08-.33c-.06-.21-.12-.46-.17-.72s-.12-.51-.18-.74h0c0,.23-.1.48-.16.74S119,110.29,119,110.5Z"/></svg>