<svg id="Layer_1" data-name="Layer 1" xmlns="http://www.w3.org/2000/svg" xmlns:xlink="http://www.w3.org/1999/xlink" viewBox="0 0 185.16 94.96"><defs><style>.cls-1,.cls-2,.cls-3,.cls-4{stroke-linejoin:round;stroke-width:0.38px;}.cls-1{fill:url(#linear-gradient);stroke:url(#linear-gradient-2);}.cls-2{fill:url(#linear-gradient-3);stroke:url(#linear-gradient-4);}.cls-3{fill:url(#linear-gradient-5);stroke:url(#linear-gradient-6);}.cls-4{fill:url(#linear-gradient-7);stroke:url(#linear-gradient-8);}.cls-5{fill:url(#linear-gradient-9);}.cls-6{fill:url(#linear-gradient-10);}.cls-7{fill:url(#linear-gradient-11);}.cls-8{fill:url(#linear-gradient-12);}.cls-9{fill:url(#linear-gradient-13);}.cls-10{fill:url(#linear-gradient-14);}.cls-11{fill:url(#linear-gradient-15);}.cls-12{fill:url(#linear-gradient-16);}.cls-13{fill:url(#linear-gradient-17);}.cls-14{fill:url(#linear-gradient-18);}.cls-15{fill:url(#linear-gradient-19);}.cls-16{fill:url(#linear-gradient-20);}.cls-17{fill:url(#linear-gradient-21);}.cls-18{fill:url(#linear-gradient-22);}.cls-19{fill:url(#linear-gradient-23);}.cls-20{fill:url(#linear-gradient-24);}.cls-21{fill:url(#linear-gradient-25);}.cls-22{fill:url(#linear-gradient-26);}.cls-23{fill:url(#linear-gradient-27);}.cls-24{fill:url(#linear-gradient-28);}.cls-25{fill:url(#linear-gradient-29);}.cls-26{fill:url(#linear-gradient-30);}.cls-27{fill:url(#radial-gradient);}.cls-28{fill:url(#linear-gradient-31);}.cls-29{fill:url(#radial-gradient-2);}.cls-30{fill:url(#radial-gradient-3);}.cls-31{fill:url(#radial-gradient-4);}.cls-32{fill:url(#linear-gradient-32);}.cls-33{fill:url(#radial-gradient-5);}.cls-34{fill:url(#radial-gradient-6);}.cls-35{fill:url(#linear-gradient-33);}.cls-36{fill:url(#linear-gradient-34);}.cls-37{fill:url(#linear-gradient-35);}.cls-38{fill:#fff;}</style><linearGradient id="linear-gradient" x1="-180.57" y1="47.59" x2="-174.7" y2="47.59" gradientTransform="translate(100.85 -130.05) rotate(-90)" gradientUnits="userSpaceOnUse"><stop offset="0" stop-color="#1a1a1a"/><stop offset="0.09" stop-color="#2c2c2c"/><stop offset="0.15" stop-color="#333"/><stop offset="0.4" stop-color="#4d4d4d"/><stop offset="0.78" stop-color="#333"/><stop offset="1" stop-color="#1a1a1a"/></linearGradient><linearGradient id="linear-gradient-2" x1="-180.75" y1="47.59" x2="-174.52" y2="47.59" xlink:href="#linear-gradient"/><linearGradient id="linear-gradient-3" x1="-174.31" y1="47.17" x2="-150.02" y2="47.17" gradientTransform="translate(116.74 -115) rotate(-90)" xlink:href="#linear-gradient"/><linearGradient id="linear-gradient-4" x1="-174.5" y1="47.17" x2="-149.83" y2="47.17" gradientTransform="translate(116.74 -115) rotate(-90)" xlink:href="#linear-gradient"/><linearGradient id="linear-gradient-5" x1="-150.02" y1="46.94" x2="-141.31" y2="46.94" gradientTransform="translate(133.47 -98.73) rotate(-90)" xlink:href="#linear-gradient"/><linearGradient id="linear-gradient-6" x1="-150.21" y1="46.94" x2="-141.13" y2="46.94" gradientTransform="translate(133.47 -98.73) rotate(-90)" xlink:href="#linear-gradient"/><linearGradient id="linear-gradient-7" x1="-174.7" y1="47.59" x2="-171.97" y2="47.59" gradientTransform="translate(105.15 -125.75) rotate(-90)" xlink:href="#linear-gradient"/><linearGradient id="linear-gradient-8" x1="-174.89" y1="47.59" x2="-171.78" y2="47.59" gradientTransform="translate(105.15 -125.75) rotate(-90)" xlink:href="#linear-gradient"/><linearGradient id="linear-gradient-9" x1="-171.31" y1="17.88" x2="-150.31" y2="17.88" gradientTransform="translate(326.07)" gradientUnits="userSpaceOnUse"><stop offset="0" stop-color="#4d4d4d"/><stop offset="0.06" stop-color="#9e9e9e"/><stop offset="0.32" stop-color="#222"/><stop offset="0.35" stop-color="#232323"/><stop offset="0.78" stop-color="#333"/><stop offset="0.9" stop-color="#454545"/><stop offset="0.96" stop-color="#ccc"/><stop offset="0.96" stop-color="#b6b6b6"/><stop offset="0.97" stop-color="#7f7f7f"/><stop offset="0.98" stop-color="#535353"/><stop offset="0.99" stop-color="#343434"/><stop offset="1" stop-color="#212121"/><stop offset="1" stop-color="#1a1a1a"/></linearGradient><linearGradient id="linear-gradient-10" x1="-171.31" y1="13.38" x2="-150.31" y2="13.38" xlink:href="#linear-gradient-9"/><linearGradient id="linear-gradient-11" x1="-171.31" y1="26.88" x2="-150.31" y2="26.88" xlink:href="#linear-gradient-9"/><linearGradient id="linear-gradient-12" x1="-171.31" y1="22.38" x2="-150.31" y2="22.38" xlink:href="#linear-gradient-9"/><linearGradient id="linear-gradient-13" x1="-171.31" y1="35.88" x2="-150.31" y2="35.88" xlink:href="#linear-gradient-9"/><linearGradient id="linear-gradient-14" x1="-171.31" y1="31.38" x2="-150.31" y2="31.38" xlink:href="#linear-gradient-9"/><linearGradient id="linear-gradient-15" x1="-171.31" y1="44.88" x2="-150.31" y2="44.88" xlink:href="#linear-gradient-9"/><linearGradient id="linear-gradient-16" x1="-171.31" y1="40.38" x2="-150.31" y2="40.38" xlink:href="#linear-gradient-9"/><linearGradient id="linear-gradient-17" x1="-171.31" y1="53.88" x2="-150.31" y2="53.88" xlink:href="#linear-gradient-9"/><linearGradient id="linear-gradient-18" x1="-171.31" y1="49.38" x2="-150.31" y2="49.38" xlink:href="#linear-gradient-9"/><linearGradient id="linear-gradient-19" x1="-171.31" y1="62.88" x2="-150.31" y2="62.88" xlink:href="#linear-gradient-9"/><linearGradient id="linear-gradient-20" x1="-171.31" y1="58.38" x2="-150.31" y2="58.38" xlink:href="#linear-gradient-9"/><linearGradient id="linear-gradient-21" x1="-171.31" y1="71.88" x2="-150.31" y2="71.88" xlink:href="#linear-gradient-9"/><linearGradient id="linear-gradient-22" x1="-171.31" y1="67.38" x2="-150.31" y2="67.38" xlink:href="#linear-gradient-9"/><linearGradient id="linear-gradient-23" x1="-171.31" y1="80.88" x2="-150.31" y2="80.88" xlink:href="#linear-gradient-9"/><linearGradient id="linear-gradient-24" x1="-171.31" y1="76.38" x2="-150.31" y2="76.38" xlink:href="#linear-gradient-9"/><linearGradient id="linear-gradient-25" x1="-325.83" y1="47.59" x2="-180.36" y2="47.59" gradientTransform="translate(326.07)" gradientUnits="userSpaceOnUse"><stop offset="0" stop-color="#4d4d4d"/><stop offset="0.54" stop-color="#222"/><stop offset="0.65" stop-color="#2c2c2c"/><stop offset="0.78" stop-color="#333"/><stop offset="0.93" stop-color="#454545"/><stop offset="1" stop-color="#1a1a1a"/></linearGradient><linearGradient id="linear-gradient-26" x1="-252.58" y1="91.84" x2="-252.58" y2="3.34" gradientTransform="translate(326.07)" gradientUnits="userSpaceOnUse"><stop offset="0.06" stop-color="#1a1a1a"/><stop offset="0.29" stop-color="#353535"/><stop offset="0.51" stop-color="#4d4d4d"/><stop offset="0.87" stop-color="#1a1a1a"/></linearGradient><linearGradient id="linear-gradient-27" x1="-183.85" y1="46.66" x2="-318.31" y2="46.66" xlink:href="#linear-gradient-26"/><linearGradient id="linear-gradient-28" x1="-313.81" y1="21.18" x2="-183.85" y2="21.18" gradientTransform="translate(326.07)" gradientUnits="userSpaceOnUse"><stop offset="0" stop-color="#393939"/><stop offset="0.47" stop-color="#181818"/><stop offset="0.87"/></linearGradient><linearGradient id="linear-gradient-29" x1="-313.81" y1="46.68" x2="-183.85" y2="46.68" xlink:href="#linear-gradient-28"/><linearGradient id="linear-gradient-30" x1="-313.81" y1="72.18" x2="-183.85" y2="72.18" xlink:href="#linear-gradient-28"/><radialGradient id="radial-gradient" cx="-196.26" cy="72.13" r="10.32" gradientTransform="translate(326.07)" gradientUnits="userSpaceOnUse"><stop offset="0" stop-color="#1a1a1a"/><stop offset="0.09" stop-color="#2c2c2c"/><stop offset="0.15" stop-color="#333"/><stop offset="0.78" stop-color="#333"/><stop offset="1" stop-color="#1a1a1a"/></radialGradient><linearGradient id="linear-gradient-31" x1="-204" y1="72.13" x2="-188.52" y2="72.13" gradientTransform="translate(326.07)" gradientUnits="userSpaceOnUse"><stop offset="0.14" stop-color="#b3b3b3"/><stop offset="0.38" stop-color="#999"/><stop offset="0.62" stop-color="#7e7e7e"/><stop offset="0.87" stop-color="#666"/></linearGradient><radialGradient id="radial-gradient-2" cx="-196.26" cy="72.13" r="6.36" gradientTransform="translate(326.07)" gradientUnits="userSpaceOnUse"><stop offset="0" stop-color="#1a1a1a"/><stop offset="0.38" stop-color="#2c2c2c"/><stop offset="0.65" stop-color="#333"/><stop offset="0.78" stop-color="#333"/><stop offset="1" stop-color="#1a1a1a"/></radialGradient><radialGradient id="radial-gradient-3" cx="-196.26" cy="72.13" r="6.56" xlink:href="#radial-gradient-2"/><radialGradient id="radial-gradient-4" cx="-218.76" cy="72.13" r="10.32" xlink:href="#radial-gradient"/><linearGradient id="linear-gradient-32" x1="-226.5" y1="72.13" x2="-211.02" y2="72.13" xlink:href="#linear-gradient-31"/><radialGradient id="radial-gradient-5" cx="-218.76" cy="72.13" r="6.36" xlink:href="#radial-gradient-2"/><radialGradient id="radial-gradient-6" cx="-218.76" cy="72.13" r="6.56" xlink:href="#radial-gradient-2"/><linearGradient id="linear-gradient-33" x1="-313.36" y1="20.39" x2="-183.83" y2="20.39" xlink:href="#linear-gradient-25"/><linearGradient id="linear-gradient-34" x1="-313.36" y1="45.89" x2="-183.83" y2="45.89" xlink:href="#linear-gradient-25"/><linearGradient id="linear-gradient-35" x1="-313.36" y1="71.39" x2="-228.79" y2="71.39" xlink:href="#linear-gradient-25"/></defs><rect class="cls-1" x="104.68" y="44.66" width="87.52" height="5.86" rx="1.04" transform="translate(196.03 -100.85) rotate(90)"/><rect class="cls-2" x="127.74" y="35.02" width="72.33" height="24.29" transform="translate(211.07 -116.74) rotate(90)"/><rect class="cls-3" x="142.52" y="42.59" width="75.78" height="8.71" rx="1.38" transform="translate(227.35 -133.47) rotate(90)"/><rect class="cls-4" x="115.19" y="46.22" width="75.09" height="2.74" rx="0.62" transform="translate(200.33 -105.15) rotate(90)"/><rect class="cls-5" x="154.76" y="16.93" width="21" height="1.9"/><rect class="cls-6" x="154.76" y="12.43" width="21" height="1.9"/><rect class="cls-7" x="154.76" y="25.93" width="21" height="1.9"/><rect class="cls-8" x="154.76" y="21.43" width="21" height="1.9"/><rect class="cls-9" x="154.76" y="34.93" width="21" height="1.9"/><rect class="cls-10" x="154.76" y="30.43" width="21" height="1.9"/><rect class="cls-11" x="154.76" y="43.93" width="21" height="1.9"/><rect class="cls-12" x="154.76" y="39.43" width="21" height="1.9"/><rect class="cls-13" x="154.76" y="52.93" width="21" height="1.9"/><rect class="cls-14" x="154.76" y="48.43" width="21" height="1.9"/><rect class="cls-15" x="154.76" y="61.93" width="21" height="1.9"/><rect class="cls-16" x="154.76" y="57.43" width="21" height="1.9"/><rect class="cls-17" x="154.76" y="70.93" width="21" height="1.9"/><rect class="cls-18" x="154.76" y="66.43" width="21" height="1.9"/><rect class="cls-19" x="154.76" y="79.93" width="21" height="1.9"/><rect class="cls-20" x="154.76" y="75.43" width="21" height="1.9"/><rect class="cls-21" x="0.24" y="0.34" width="145.48" height="94.5" rx="2.9"/><rect class="cls-22" x="4.76" y="3.34" width="137.46" height="88.5" rx="3.65"/><path class="cls-23" d="M14.76,8.56H142.23a0,0,0,0,1,0,0v76.2a0,0,0,0,1,0,0H14.76a7,7,0,0,1-7-7V15.56a7,7,0,0,1,7-7Z"/><path class="cls-24" d="M19.26,10.68h123a0,0,0,0,1,0,0v21a0,0,0,0,1,0,0h-123a7,7,0,0,1-7-7v-7a7,7,0,0,1,7-7Z"/><path class="cls-25" d="M19.26,36.18h123a0,0,0,0,1,0,0v21a0,0,0,0,1,0,0h-123a7,7,0,0,1-7-7v-7a7,7,0,0,1,7-7Z"/><path class="cls-26" d="M19.26,61.68h123a0,0,0,0,1,0,0v21a0,0,0,0,1,0,0h-123a7,7,0,0,1-7-7v-7a7,7,0,0,1,7-7Z"/><circle class="cls-27" cx="129.81" cy="72.13" r="10.32"/><circle class="cls-28" cx="129.81" cy="72.13" r="7.74"/><circle class="cls-29" cx="129.81" cy="72.13" r="6.36"/><path class="cls-30" d="M129.81,78.69a6.56,6.56,0,1,1,6.56-6.56A6.57,6.57,0,0,1,129.81,78.69Zm0-12.72A6.16,6.16,0,1,0,136,72.13,6.18,6.18,0,0,0,129.81,66Z"/><circle class="cls-31" cx="107.31" cy="72.13" r="10.32"/><circle class="cls-32" cx="107.31" cy="72.13" r="7.74"/><circle class="cls-33" cx="107.31" cy="72.13" r="6.36"/><path class="cls-34" d="M107.31,78.69a6.56,6.56,0,1,1,6.56-6.56A6.57,6.57,0,0,1,107.31,78.69Zm0-12.72a6.16,6.16,0,1,0,6.16,6.16A6.18,6.18,0,0,0,107.31,66Z"/><rect class="cls-35" x="12.71" y="19.44" width="129.54" height="1.9"/><rect class="cls-36" x="12.71" y="44.94" width="129.54" height="1.9"/><rect class="cls-37" x="12.71" y="70.44" width="84.58" height="1.9"/><path class="cls-38" d="M21.91,55.48a3.6,3.6,0,0,1-1.62-.36A2.72,2.72,0,0,1,19.14,54a3.37,3.37,0,0,1-.43-1.79,3.42,3.42,0,0,1,.44-1.81A2.93,2.93,0,0,1,20.3,49.3a3.23,3.23,0,0,1,1.57-.39,2.92,2.92,0,0,1,1.22.25,3.21,3.21,0,0,1,.84.59l-.87,1.07a2.28,2.28,0,0,0-.5-.33,1.33,1.33,0,0,0-.63-.14,1.41,1.41,0,0,0-1.08.49,2,2,0,0,0-.43,1.35,2.06,2.06,0,0,0,.41,1.37,1.55,1.55,0,0,0,1.25.48.87.87,0,0,0,.49-.12v-.87h-.94V51.68h2.42v3a2.6,2.6,0,0,1-.9.55A3.18,3.18,0,0,1,21.91,55.48Z"/><path class="cls-38" d="M25.28,55.37V49h4.09v1.4H27v1H29v1.4H27V54h2.51v1.41Z"/><path class="cls-38" d="M30.7,55.37V49h1.72l1.4,2.83.61,1.42h0c0-.34-.08-.73-.13-1.17a11.19,11.19,0,0,1-.08-1.25V49h1.6v6.34H34.13l-1.4-2.84-.61-1.42h0c0,.37.08.76.13,1.19a10.71,10.71,0,0,1,.08,1.23v1.84Z"/><path class="cls-38" d="M37.25,55.37V49h4.1v1.4H38.93v1H41v1.4H38.93V54h2.52v1.41Z"/><path class="cls-38" d="M44.35,55.37H42.67V49h2.4a4.17,4.17,0,0,1,1.26.18,2,2,0,0,1,.93.63,2,2,0,0,1,.35,1.24,2.08,2.08,0,0,1-.29,1.13,1.92,1.92,0,0,1-.74.7L48,55.37H46.09L45,53.24h-.64Zm0-3.46H45c.68,0,1-.28,1-.83a.61.61,0,0,0-.26-.57,1.51,1.51,0,0,0-.76-.16h-.6Z"/><path class="cls-38" d="M48.82,55.37V49h1.67v6.34Z"/><path class="cls-38" d="M54.65,55.48a3.19,3.19,0,0,1-1.5-.36A2.74,2.74,0,0,1,52,54a3.46,3.46,0,0,1-.42-1.79,3.52,3.52,0,0,1,.44-1.81,3,3,0,0,1,1.13-1.14,3,3,0,0,1,1.5-.39,2.64,2.64,0,0,1,1.13.25,3.58,3.58,0,0,1,.84.59l-.88,1.07a2.48,2.48,0,0,0-.49-.33,1.15,1.15,0,0,0-.57-.14,1.27,1.27,0,0,0-1,.49,2.07,2.07,0,0,0-.41,1.35,2.17,2.17,0,0,0,.38,1.37,1.19,1.19,0,0,0,1,.48,1.3,1.3,0,0,0,.66-.17,2.13,2.13,0,0,0,.5-.38l.87,1.06A2.61,2.61,0,0,1,54.65,55.48Z"/><path class="cls-38" d="M19,70.34V64h1.87a3.65,3.65,0,0,1,2.35.73,2.91,2.91,0,0,1,.91,2.41,3.06,3.06,0,0,1-.89,2.44,3.37,3.37,0,0,1-2.27.76ZM20.66,69h.1a1.83,1.83,0,0,0,1.16-.37,1.83,1.83,0,0,0,.47-1.48,1.74,1.74,0,0,0-.47-1.45,1.94,1.94,0,0,0-1.16-.34h-.1Z"/><path class="cls-38" d="M25.24,70.34V64h4.1v1.41H26.92v1H29v1.4H26.92v1.14h2.51v1.4Z"/><path class="cls-38" d="M31.87,70.34V65.41H30.19V64h5v1.41H33.55v4.93Z"/><path class="cls-38" d="M36.16,70.34V64h4.1v1.41H37.84v1h2.07v1.4H37.84v1.14h2.51v1.4Z"/><path class="cls-38" d="M44.33,70.46a3.19,3.19,0,0,1-1.5-.36A2.85,2.85,0,0,1,41.73,69a4,4,0,0,1,0-3.61,3,3,0,0,1,1.13-1.14,3.16,3.16,0,0,1,1.5-.39,2.47,2.47,0,0,1,1.13.26,3.19,3.19,0,0,1,.84.58l-.88,1.08a2.21,2.21,0,0,0-.48-.34,1.2,1.2,0,0,0-.57-.13,1.24,1.24,0,0,0-1,.49A2,2,0,0,0,43,67.16a2.2,2.2,0,0,0,.38,1.38,1.21,1.21,0,0,0,1,.47,1.29,1.29,0,0,0,.66-.16,2.37,2.37,0,0,0,.49-.38l.88,1A2.64,2.64,0,0,1,44.33,70.46Z"/><path class="cls-38" d="M48.41,70.34V65.41H46.73V64h5v1.41H50.08v4.93Z"/><path class="cls-38" d="M55.08,70.46A2.78,2.78,0,0,1,53,69.58a3.43,3.43,0,0,1-.82-2.44A3.32,3.32,0,0,1,53,64.73a2.83,2.83,0,0,1,2.13-.85,2.86,2.86,0,0,1,2.13.85A3.36,3.36,0,0,1,58,67.14a3.47,3.47,0,0,1-.81,2.44A2.81,2.81,0,0,1,55.08,70.46Zm0-1.45a1,1,0,0,0,.89-.5,2.5,2.5,0,0,0,.33-1.37A2.29,2.29,0,0,0,56,65.81a1.07,1.07,0,0,0-1.79,0,2.29,2.29,0,0,0-.33,1.33,2.5,2.5,0,0,0,.33,1.37A1,1,0,0,0,55.08,69Z"/><path class="cls-38" d="M60.83,70.34H59.15V64h2.4a3.92,3.92,0,0,1,1.26.19,1.82,1.82,0,0,1,.92.63,1.88,1.88,0,0,1,.36,1.23,2.08,2.08,0,0,1-.29,1.13,2,2,0,0,1-.74.7l1.38,2.46H62.56l-1.09-2.13h-.64Zm0-3.45h.6q1,0,1-.84a.63.63,0,0,0-.26-.57,1.52,1.52,0,0,0-.76-.15h-.6Z"/></svg>