<svg xmlns="http://www.w3.org/2000/svg" xmlns:xlink="http://www.w3.org/1999/xlink" viewBox="0 0 185.16 94.96"><defs><style>.cls-1{isolation:isolate;}.cls-2,.cls-3,.cls-4,.cls-5{stroke-linejoin:round;stroke-width:0.38px;}.cls-2{fill:url(#linear-gradient);stroke:url(#linear-gradient-2);}.cls-3{fill:url(#linear-gradient-3);stroke:url(#linear-gradient-4);}.cls-4{fill:url(#linear-gradient-5);stroke:url(#linear-gradient-6);}.cls-5{fill:url(#linear-gradient-7);stroke:url(#linear-gradient-8);}.cls-6{fill:url(#linear-gradient-9);}.cls-7{fill:url(#linear-gradient-10);}.cls-8{fill:url(#linear-gradient-11);}.cls-9{fill:url(#linear-gradient-12);}.cls-10{fill:url(#linear-gradient-13);}.cls-11{fill:url(#linear-gradient-14);}.cls-12{fill:url(#linear-gradient-15);}.cls-13{fill:url(#linear-gradient-16);}.cls-14{fill:url(#linear-gradient-17);}.cls-15{fill:url(#linear-gradient-18);}.cls-16{fill:url(#linear-gradient-19);}.cls-17{fill:url(#linear-gradient-20);}.cls-18{fill:url(#linear-gradient-21);}.cls-19{fill:url(#linear-gradient-22);}.cls-20{fill:url(#linear-gradient-23);}.cls-21{fill:url(#linear-gradient-24);}.cls-22{fill:url(#linear-gradient-25);}.cls-23{opacity:0.23;mix-blend-mode:difference;fill:url(#linear-gradient-26);}.cls-24{fill:url(#linear-gradient-27);}.cls-25,.cls-45{opacity:0.85;mix-blend-mode:multiply;}.cls-25{fill:url(#linear-gradient-28);}.cls-26{fill:url(#linear-gradient-29);}.cls-27{fill:url(#linear-gradient-30);}.cls-28{fill:url(#linear-gradient-31);}.cls-29{fill:url(#radial-gradient);}.cls-30{fill:url(#linear-gradient-32);}.cls-31{fill:url(#radial-gradient-2);}.cls-32{fill:url(#radial-gradient-3);}.cls-33{fill:url(#radial-gradient-4);}.cls-34{fill:url(#linear-gradient-33);}.cls-35{fill:url(#radial-gradient-5);}.cls-36{fill:url(#radial-gradient-6);}.cls-37,.cls-38{mix-blend-mode:darken;}.cls-37{fill:url(#radial-gradient-7);}.cls-38{fill:url(#radial-gradient-8);}.cls-39{fill:url(#linear-gradient-34);}.cls-40{fill:url(#linear-gradient-35);}.cls-41{fill:url(#linear-gradient-36);}.cls-42,.cls-43,.cls-44{opacity:0.4;mix-blend-mode:soft-light;}.cls-42{fill:url(#linear-gradient-37);}.cls-43{fill:url(#linear-gradient-38);}.cls-44{fill:url(#linear-gradient-39);}.cls-45{fill:url(#linear-gradient-40);}.cls-46{fill:#fff;}</style><linearGradient id="linear-gradient" x1="-180.48" y1="47.33" x2="-174.62" y2="47.33" gradientTransform="translate(101.19 -130.23) rotate(-90)" gradientUnits="userSpaceOnUse"><stop offset="0" stop-color="#1a1a1a"/><stop offset="0.09" stop-color="#2c2c2c"/><stop offset="0.15" stop-color="#333"/><stop offset="0.4" stop-color="#4d4d4d"/><stop offset="0.78" stop-color="#333"/><stop offset="1" stop-color="#1a1a1a"/></linearGradient><linearGradient id="linear-gradient-2" x1="-180.67" y1="47.33" x2="-174.43" y2="47.33" xlink:href="#linear-gradient"/><linearGradient id="linear-gradient-3" x1="-174.23" y1="46.9" x2="-149.94" y2="46.9" gradientTransform="translate(117.09 -115.18) rotate(-90)" xlink:href="#linear-gradient"/><linearGradient id="linear-gradient-4" x1="-174.42" y1="46.9" x2="-149.75" y2="46.9" gradientTransform="translate(117.09 -115.18) rotate(-90)" xlink:href="#linear-gradient"/><linearGradient id="linear-gradient-5" x1="-149.94" y1="46.68" x2="-141.23" y2="46.68" gradientTransform="translate(133.81 -98.91) rotate(-90)" xlink:href="#linear-gradient"/><linearGradient id="linear-gradient-6" x1="-150.13" y1="46.68" x2="-141.04" y2="46.68" gradientTransform="translate(133.81 -98.91) rotate(-90)" xlink:href="#linear-gradient"/><linearGradient id="linear-gradient-7" x1="-174.62" y1="47.33" x2="-171.89" y2="47.33" gradientTransform="translate(105.49 -125.93) rotate(-90)" xlink:href="#linear-gradient"/><linearGradient id="linear-gradient-8" x1="-174.81" y1="47.33" x2="-171.7" y2="47.33" gradientTransform="translate(105.49 -125.93) rotate(-90)" xlink:href="#linear-gradient"/><linearGradient id="linear-gradient-9" x1="-171.23" y1="17.61" x2="-150.23" y2="17.61" gradientTransform="translate(326.07)" gradientUnits="userSpaceOnUse"><stop offset="0" stop-color="#4d4d4d"/><stop offset="0.06" stop-color="#9e9e9e"/><stop offset="0.32" stop-color="#222"/><stop offset="0.35" stop-color="#232323"/><stop offset="0.78" stop-color="#333"/><stop offset="0.9" stop-color="#454545"/><stop offset="0.96" stop-color="#ccc"/><stop offset="0.96" stop-color="#b6b6b6"/><stop offset="0.97" stop-color="#7f7f7f"/><stop offset="0.98" stop-color="#535353"/><stop offset="0.99" stop-color="#343434"/><stop offset="1" stop-color="#212121"/><stop offset="1" stop-color="#1a1a1a"/></linearGradient><linearGradient id="linear-gradient-10" x1="-171.23" y1="13.11" x2="-150.23" y2="13.11" xlink:href="#linear-gradient-9"/><linearGradient id="linear-gradient-11" x1="-171.23" y1="26.61" x2="-150.23" y2="26.61" xlink:href="#linear-gradient-9"/><linearGradient id="linear-gradient-12" x1="-171.23" y1="22.11" x2="-150.23" y2="22.11" xlink:href="#linear-gradient-9"/><linearGradient id="linear-gradient-13" x1="-171.23" y1="35.61" x2="-150.23" y2="35.61" xlink:href="#linear-gradient-9"/><linearGradient id="linear-gradient-14" x1="-171.23" y1="31.11" x2="-150.23" y2="31.11" xlink:href="#linear-gradient-9"/><linearGradient id="linear-gradient-15" x1="-171.23" y1="44.61" x2="-150.23" y2="44.61" xlink:href="#linear-gradient-9"/><linearGradient id="linear-gradient-16" x1="-171.23" y1="40.11" x2="-150.23" y2="40.11" xlink:href="#linear-gradient-9"/><linearGradient id="linear-gradient-17" x1="-171.23" y1="53.61" x2="-150.23" y2="53.61" xlink:href="#linear-gradient-9"/><linearGradient id="linear-gradient-18" x1="-171.23" y1="49.11" x2="-150.23" y2="49.11" xlink:href="#linear-gradient-9"/><linearGradient id="linear-gradient-19" x1="-171.23" y1="62.61" x2="-150.23" y2="62.61" xlink:href="#linear-gradient-9"/><linearGradient id="linear-gradient-20" x1="-171.23" y1="58.11" x2="-150.23" y2="58.11" xlink:href="#linear-gradient-9"/><linearGradient id="linear-gradient-21" x1="-171.23" y1="71.61" x2="-150.23" y2="71.61" xlink:href="#linear-gradient-9"/><linearGradient id="linear-gradient-22" x1="-171.23" y1="67.11" x2="-150.23" y2="67.11" xlink:href="#linear-gradient-9"/><linearGradient id="linear-gradient-23" x1="-171.23" y1="80.61" x2="-150.23" y2="80.61" xlink:href="#linear-gradient-9"/><linearGradient id="linear-gradient-24" x1="-171.23" y1="76.11" x2="-150.23" y2="76.11" xlink:href="#linear-gradient-9"/><linearGradient id="linear-gradient-25" x1="-325.75" y1="47.33" x2="-180.27" y2="47.33" gradientTransform="translate(326.07)" gradientUnits="userSpaceOnUse"><stop offset="0" stop-color="#4d4d4d"/><stop offset="0.54" stop-color="#222"/><stop offset="0.65" stop-color="#2c2c2c"/><stop offset="0.78" stop-color="#333"/><stop offset="0.93" stop-color="#454545"/><stop offset="1" stop-color="#1a1a1a"/></linearGradient><linearGradient id="linear-gradient-26" x1="-253.45" y1="94.69" x2="-253.45" y2="-0.26" gradientTransform="translate(326.07)" gradientUnits="userSpaceOnUse"><stop offset="0" stop-color="#39b54a"/><stop offset="0.15" stop-color="#8cc63f"/><stop offset="0.3" stop-color="#85c540"/><stop offset="0.55" stop-color="#39b54a"/><stop offset="0.93" stop-color="#009245"/><stop offset="1" stop-color="#006837"/></linearGradient><linearGradient id="linear-gradient-27" x1="-252.5" y1="91.58" x2="-252.5" y2="3.08" gradientTransform="translate(326.07)" gradientUnits="userSpaceOnUse"><stop offset="0.06" stop-color="#1a1a1a"/><stop offset="0.29" stop-color="#353535"/><stop offset="0.51" stop-color="#4d4d4d"/><stop offset="0.87" stop-color="#1a1a1a"/></linearGradient><linearGradient id="linear-gradient-28" x1="-197.31" y1="98.04" x2="-300.59" y2="-5.24" xlink:href="#linear-gradient-26"/><linearGradient id="linear-gradient-29" x1="-313.73" y1="20.91" x2="-183.77" y2="20.91" gradientTransform="translate(326.07)" gradientUnits="userSpaceOnUse"><stop offset="0" stop-color="#393939"/><stop offset="0.47" stop-color="#181818"/><stop offset="0.87"/></linearGradient><linearGradient id="linear-gradient-30" x1="-313.73" y1="46.41" x2="-183.77" y2="46.41" xlink:href="#linear-gradient-29"/><linearGradient id="linear-gradient-31" x1="-313.73" y1="71.91" x2="-183.77" y2="71.91" xlink:href="#linear-gradient-29"/><radialGradient id="radial-gradient" cx="-196.18" cy="71.87" r="10.32" gradientTransform="translate(326.07)" gradientUnits="userSpaceOnUse"><stop offset="0" stop-color="#1a1a1a"/><stop offset="0.09" stop-color="#2c2c2c"/><stop offset="0.15" stop-color="#333"/><stop offset="0.78" stop-color="#333"/><stop offset="1" stop-color="#1a1a1a"/></radialGradient><linearGradient id="linear-gradient-32" x1="-203.92" y1="71.87" x2="-188.44" y2="71.87" gradientTransform="translate(326.07)" gradientUnits="userSpaceOnUse"><stop offset="0.14" stop-color="#b3b3b3"/><stop offset="0.38" stop-color="#999"/><stop offset="0.62" stop-color="#7e7e7e"/><stop offset="0.87" stop-color="#666"/></linearGradient><radialGradient id="radial-gradient-2" cx="-196.18" cy="71.87" r="6.36" gradientTransform="translate(326.07)" gradientUnits="userSpaceOnUse"><stop offset="0" stop-color="#1a1a1a"/><stop offset="0.38" stop-color="#2c2c2c"/><stop offset="0.65" stop-color="#333"/><stop offset="0.78" stop-color="#333"/><stop offset="1" stop-color="#1a1a1a"/></radialGradient><radialGradient id="radial-gradient-3" cx="-196.18" cy="71.87" r="6.56" xlink:href="#radial-gradient-2"/><radialGradient id="radial-gradient-4" cx="-218.68" cy="71.87" r="10.32" xlink:href="#radial-gradient"/><linearGradient id="linear-gradient-33" x1="-226.42" y1="71.87" x2="-210.94" y2="71.87" xlink:href="#linear-gradient-32"/><radialGradient id="radial-gradient-5" cx="-218.68" cy="71.87" r="6.36" xlink:href="#radial-gradient-2"/><radialGradient id="radial-gradient-6" cx="-218.68" cy="71.87" r="6.56" xlink:href="#radial-gradient-2"/><radialGradient id="radial-gradient-7" cx="-196.18" cy="71.87" r="10.32" gradientTransform="translate(326.07)" gradientUnits="userSpaceOnUse"><stop offset="0" stop-color="#39b54a"/><stop offset="0.06" stop-color="#1aa247"/><stop offset="0.11" stop-color="#079646"/><stop offset="0.15" stop-color="#009245"/><stop offset="0.78" stop-color="#22b573"/><stop offset="1" stop-color="#006837"/></radialGradient><radialGradient id="radial-gradient-8" cx="-218.68" cy="71.87" r="10.32" xlink:href="#radial-gradient-7"/><linearGradient id="linear-gradient-34" x1="-313.28" y1="20.12" x2="-183.74" y2="20.12" xlink:href="#linear-gradient-25"/><linearGradient id="linear-gradient-35" x1="-313.28" y1="45.62" x2="-183.74" y2="45.62" xlink:href="#linear-gradient-25"/><linearGradient id="linear-gradient-36" x1="-313.28" y1="71.12" x2="-228.7" y2="71.12" xlink:href="#linear-gradient-25"/><linearGradient id="linear-gradient-37" x1="-267.15" y1="-13.52" x2="-226.85" y2="56.29" xlink:href="#linear-gradient-26"/><linearGradient id="linear-gradient-38" x1="-267.15" y1="11.98" x2="-226.85" y2="81.79" xlink:href="#linear-gradient-26"/><linearGradient id="linear-gradient-39" x1="-267.15" y1="37.48" x2="-226.85" y2="107.29" xlink:href="#linear-gradient-26"/><linearGradient id="linear-gradient-40" x1="-160.45" y1="82.69" x2="-160.45" y2="10.69" xlink:href="#linear-gradient-26"/></defs><g class="cls-1"><g id="Layer_1" data-name="Layer 1"><rect class="cls-2" x="104.76" y="44.4" width="87.52" height="5.86" rx="1.04" transform="translate(195.85 -101.19) rotate(90)"/><rect class="cls-3" x="127.83" y="34.76" width="72.33" height="24.29" transform="translate(210.89 -117.09) rotate(90)"/><rect class="cls-4" x="142.6" y="42.32" width="75.78" height="8.71" rx="1.38" transform="translate(227.17 -133.81) rotate(90)"/><rect class="cls-5" x="115.28" y="45.96" width="75.09" height="2.74" rx="0.62" transform="translate(200.15 -105.49) rotate(90)"/><rect class="cls-6" x="154.84" y="16.66" width="21" height="1.9"/><rect class="cls-7" x="154.84" y="12.16" width="21" height="1.9"/><rect class="cls-8" x="154.84" y="25.66" width="21" height="1.9"/><rect class="cls-9" x="154.84" y="21.16" width="21" height="1.9"/><rect class="cls-10" x="154.84" y="34.66" width="21" height="1.9"/><rect class="cls-11" x="154.84" y="30.16" width="21" height="1.9"/><rect class="cls-12" x="154.84" y="43.66" width="21" height="1.9"/><rect class="cls-13" x="154.84" y="39.16" width="21" height="1.9"/><rect class="cls-14" x="154.84" y="52.66" width="21" height="1.9"/><rect class="cls-15" x="154.84" y="48.16" width="21" height="1.9"/><rect class="cls-16" x="154.84" y="61.66" width="21" height="1.9"/><rect class="cls-17" x="154.84" y="57.16" width="21" height="1.9"/><rect class="cls-18" x="154.84" y="70.66" width="21" height="1.9"/><rect class="cls-19" x="154.84" y="66.16" width="21" height="1.9"/><rect class="cls-20" x="154.84" y="79.66" width="21" height="1.9"/><rect class="cls-21" x="154.84" y="75.16" width="21" height="1.9"/><rect class="cls-22" x="0.32" y="0.08" width="145.48" height="94.5" rx="2.9"/><rect class="cls-23" x="-0.13" y="-0.26" width="145.5" height="94.96" rx="2.9"/><rect class="cls-24" x="4.84" y="3.08" width="137.46" height="88.5" rx="3.65"/><path class="cls-25" d="M14.84,8.3H142.31a0,0,0,0,1,0,0V84.5a0,0,0,0,1,0,0H14.84a7,7,0,0,1-7-7V15.3A7,7,0,0,1,14.84,8.3Z"/><path class="cls-26" d="M19.34,10.41h123a0,0,0,0,1,0,0v21a0,0,0,0,1,0,0h-123a7,7,0,0,1-7-7v-7a7,7,0,0,1,7-7Z"/><path class="cls-27" d="M19.34,35.91h123a0,0,0,0,1,0,0v21a0,0,0,0,1,0,0h-123a7,7,0,0,1-7-7v-7a7,7,0,0,1,7-7Z"/><path class="cls-28" d="M19.34,61.41h123a0,0,0,0,1,0,0v21a0,0,0,0,1,0,0h-123a7,7,0,0,1-7-7v-7a7,7,0,0,1,7-7Z"/><circle class="cls-29" cx="129.89" cy="71.87" r="10.32"/><circle class="cls-30" cx="129.89" cy="71.87" r="7.74"/><circle class="cls-31" cx="129.89" cy="71.87" r="6.36"/><path class="cls-32" d="M129.89,78.43a6.56,6.56,0,1,1,6.56-6.56A6.56,6.56,0,0,1,129.89,78.43Zm0-12.72a6.16,6.16,0,1,0,6.16,6.16A6.17,6.17,0,0,0,129.89,65.71Z"/><circle class="cls-33" cx="107.39" cy="71.87" r="10.32"/><circle class="cls-34" cx="107.39" cy="71.87" r="7.74"/><circle class="cls-35" cx="107.39" cy="71.87" r="6.36"/><path class="cls-36" d="M107.39,78.43A6.56,6.56,0,1,1,114,71.87,6.56,6.56,0,0,1,107.39,78.43Zm0-12.72a6.16,6.16,0,1,0,6.16,6.16A6.17,6.17,0,0,0,107.39,65.71Z"/><circle class="cls-37" cx="129.89" cy="71.87" r="10.32"/><circle class="cls-38" cx="107.39" cy="71.87" r="10.32"/><rect class="cls-39" x="12.79" y="19.17" width="129.54" height="1.9"/><rect class="cls-40" x="12.79" y="44.67" width="129.54" height="1.9"/><rect class="cls-41" x="12.79" y="70.17" width="84.58" height="1.9"/><path class="cls-42" d="M19.34,10.41h123a0,0,0,0,1,0,0v21a0,0,0,0,1,0,0h-123a7,7,0,0,1-7-7v-7a7,7,0,0,1,7-7Z"/><path class="cls-43" d="M19.34,35.91h123a0,0,0,0,1,0,0v21a0,0,0,0,1,0,0h-123a7,7,0,0,1-7-7v-7a7,7,0,0,1,7-7Z"/><path class="cls-44" d="M19.34,61.41h123a0,0,0,0,1,0,0v21a0,0,0,0,1,0,0h-123a7,7,0,0,1-7-7v-7a7,7,0,0,1,7-7Z"/><rect class="cls-45" x="154.37" y="10.69" width="22.5" height="72"/><path class="cls-46" d="M17.85,55.1V48.76h2.32a4,4,0,0,1,1.27.2,1.93,1.93,0,0,1,.94.65,2,2,0,0,1,.36,1.26,2,2,0,0,1-1.29,2,3.22,3.22,0,0,1-1.24.23h-.69v2Zm1.67-3.33h.61c.65,0,1-.3,1-.9a.64.64,0,0,0-.26-.6,1.34,1.34,0,0,0-.75-.18h-.57Z"/><path class="cls-46" d="M23.77,55.1V48.76h1.68v2.36h1.89V48.76H29V55.1H27.34V52.59H25.45V55.1Z"/><path class="cls-46" d="M33.09,55.22A2.78,2.78,0,0,1,31,54.34a3.46,3.46,0,0,1-.81-2.44A3.32,3.32,0,0,1,31,49.5a3.11,3.11,0,0,1,4.27,0A3.32,3.32,0,0,1,36,51.9a3.46,3.46,0,0,1-.81,2.44A2.78,2.78,0,0,1,33.09,55.22Zm0-1.44a1,1,0,0,0,.9-.51,2.48,2.48,0,0,0,.33-1.37A2.31,2.31,0,0,0,34,50.57a1.07,1.07,0,0,0-1.79,0,2.31,2.31,0,0,0-.33,1.33,2.48,2.48,0,0,0,.33,1.37A1,1,0,0,0,33.09,53.78Z"/><path class="cls-46" d="M38.09,55.1V50.17H36.41V48.76h5v1.41H39.76V55.1Z"/><path class="cls-46" d="M44.76,55.22a2.75,2.75,0,0,1-2.13-.88,3.41,3.41,0,0,1-.82-2.44,3.28,3.28,0,0,1,.82-2.4,2.79,2.79,0,0,1,2.13-.85,2.82,2.82,0,0,1,2.13.85,3.32,3.32,0,0,1,.81,2.4,3.46,3.46,0,0,1-.81,2.44A2.78,2.78,0,0,1,44.76,55.22Zm0-1.44a1,1,0,0,0,.89-.51A2.48,2.48,0,0,0,46,51.9a2.31,2.31,0,0,0-.33-1.33,1.07,1.07,0,0,0-1.79,0,2.31,2.31,0,0,0-.33,1.33,2.48,2.48,0,0,0,.33,1.37A1,1,0,0,0,44.76,53.78Z"/><path class="cls-46" d="M17.85,70.08V63.74h1.87a3.63,3.63,0,0,1,2.35.73,2.93,2.93,0,0,1,.9,2.41,3,3,0,0,1-.89,2.43,3.35,3.35,0,0,1-2.26.77Zm1.67-1.35h.1a1.81,1.81,0,0,0,1.16-.37,1.81,1.81,0,0,0,.48-1.48,1.73,1.73,0,0,0-.48-1.46,2,2,0,0,0-1.16-.34h-.1Z"/><path class="cls-46" d="M24.11,70.08V63.74h1.67v6.34Z"/><path class="cls-46" d="M29.86,70.19a2.75,2.75,0,0,1-2.13-.88,3.43,3.43,0,0,1-.82-2.43,3.37,3.37,0,0,1,.82-2.41,3.09,3.09,0,0,1,4.26,0,3.36,3.36,0,0,1,.81,2.41A3.43,3.43,0,0,1,32,69.31,2.75,2.75,0,0,1,29.86,70.19Zm0-1.44a1,1,0,0,0,.9-.51,2.47,2.47,0,0,0,.33-1.36,2.35,2.35,0,0,0-.33-1.34,1.08,1.08,0,0,0-1.8,0,2.35,2.35,0,0,0-.33,1.34A2.47,2.47,0,0,0,29,68.24,1,1,0,0,0,29.86,68.75Z"/><path class="cls-46" d="M33.93,70.08V63.74h1.88a3.63,3.63,0,0,1,2.35.73,2.93,2.93,0,0,1,.9,2.41,3,3,0,0,1-.89,2.43,3.36,3.36,0,0,1-2.27.77Zm1.68-1.35h.1a1.83,1.83,0,0,0,1.16-.37,1.81,1.81,0,0,0,.48-1.48,1.73,1.73,0,0,0-.48-1.46,2,2,0,0,0-1.16-.34h-.1Z"/><path class="cls-46" d="M40.19,70.08V63.74h4.1v1.4H41.87v1h2.07v1.4H41.87v1.13h2.52v1.41Z"/></g></g></svg>