<svg id="Layer_1" data-name="Layer 1" xmlns="http://www.w3.org/2000/svg" xmlns:xlink="http://www.w3.org/1999/xlink" width="123" height="122.08" viewBox="0 0 123 122.08"><defs><style>.cls-1,.cls-14,.cls-2,.cls-3,.cls-8,.cls-9{stroke-linejoin:round;stroke-width:0.38px;}.cls-1{fill:url(#linear-gradient);stroke:url(#linear-gradient-2);}.cls-2{fill:url(#linear-gradient-3);stroke:url(#linear-gradient-4);}.cls-3{fill:url(#linear-gradient-5);stroke:url(#linear-gradient-6);}.cls-4{fill:url(#linear-gradient-7);}.cls-5{fill:url(#linear-gradient-8);}.cls-6{fill:url(#linear-gradient-9);}.cls-7{fill:url(#linear-gradient-10);}.cls-8{fill:url(#linear-gradient-11);stroke:url(#linear-gradient-12);}.cls-9{fill:url(#linear-gradient-13);stroke:url(#linear-gradient-14);}.cls-10{fill:url(#radial-gradient);}.cls-11{fill:url(#radial-gradient-2);}.cls-12{fill:url(#radial-gradient-3);}.cls-13{fill:url(#radial-gradient-4);}.cls-14{fill:url(#linear-gradient-15);stroke:url(#linear-gradient-16);}.cls-15{fill:url(#linear-gradient-17);}.cls-16{fill:url(#linear-gradient-18);}.cls-17{fill:url(#linear-gradient-19);}.cls-18{fill:url(#linear-gradient-20);}.cls-19{fill:url(#linear-gradient-21);}.cls-20{fill:url(#radial-gradient-5);}.cls-21{fill:url(#linear-gradient-22);}.cls-22{fill:url(#radial-gradient-6);}.cls-23{fill:url(#linear-gradient-23);}.cls-24{fill:url(#radial-gradient-7);}.cls-25{fill:url(#radial-gradient-8);}.cls-26{fill:url(#radial-gradient-9);}.cls-27{fill:url(#radial-gradient-10);}.cls-28{fill:#fff;}</style><linearGradient id="linear-gradient" x1="-2909.55" y1="60.27" x2="-2904.98" y2="60.27" gradientTransform="matrix(0, 1, 1, 0, -22.54, 2967.54)" gradientUnits="userSpaceOnUse"><stop offset="0" stop-color="#1a1a1a"/><stop offset="0.09" stop-color="#2c2c2c"/><stop offset="0.15" stop-color="#333"/><stop offset="0.4" stop-color="#4d4d4d"/><stop offset="0.78" stop-color="#333"/><stop offset="1" stop-color="#1a1a1a"/></linearGradient><linearGradient id="linear-gradient-2" x1="-2909.74" y1="60.27" x2="-2904.79" y2="60.27" xlink:href="#linear-gradient"/><linearGradient id="linear-gradient-3" x1="-2904.98" y1="60.27" x2="-2902.84" y2="60.27" gradientTransform="matrix(0, 1, 1, 0, -25.89, 2964.18)" xlink:href="#linear-gradient"/><linearGradient id="linear-gradient-4" x1="-2905.16" y1="60.27" x2="-2902.65" y2="60.27" gradientTransform="matrix(0, 1, 1, 0, -25.89, 2964.18)" xlink:href="#linear-gradient"/><linearGradient id="linear-gradient-5" x1="-2902.84" y1="60.27" x2="-2899.79" y2="60.27" gradientTransform="matrix(0, 1, 1, 0, -28.49, 2961.59)" xlink:href="#linear-gradient"/><linearGradient id="linear-gradient-6" x1="-2903.03" y1="60.27" x2="-2899.6" y2="60.27" gradientTransform="matrix(0, 1, 1, 0, -28.49, 2961.59)" xlink:href="#linear-gradient"/><linearGradient id="linear-gradient-7" x1="-2985.9" y1="117.5" x2="-2912.52" y2="117.5" gradientTransform="matrix(-1, 0, 0, 1, -2869.53, 0)" gradientUnits="userSpaceOnUse"><stop offset="0" stop-color="#1a1a1a"/><stop offset="0.15" stop-color="#4d4d4d"/><stop offset="0.58" stop-color="#1a1a1a"/><stop offset="0.78" stop-color="#333"/><stop offset="0.94" stop-color="#4d4d4d"/></linearGradient><linearGradient id="linear-gradient-8" x1="-2989.24" y1="59.51" x2="-2909.18" y2="59.51" gradientTransform="matrix(1, 0, 0, -1, 3028.89, 119.02)" gradientUnits="userSpaceOnUse"><stop offset="0" stop-color="#4d4d4d"/><stop offset="0.54" stop-color="#222"/><stop offset="0.65" stop-color="#2c2c2c"/><stop offset="0.78" stop-color="#333"/><stop offset="0.93" stop-color="#454545"/><stop offset="1" stop-color="#1a1a1a"/></linearGradient><linearGradient id="linear-gradient-9" x1="-2984.85" y1="2.29" x2="-2913.57" y2="2.29" gradientTransform="matrix(1, 0, 0, -1, 3028.89, 4.58)" xlink:href="#linear-gradient-8"/><linearGradient id="linear-gradient-10" x1="-2992.53" y1="9.16" x2="-2905.89" y2="9.16" gradientTransform="matrix(1, 0, 0, -1, 3028.89, 18.31)" xlink:href="#linear-gradient"/><linearGradient id="linear-gradient-11" x1="-2899.79" y1="60.27" x2="-2884.53" y2="60.27" gradientTransform="matrix(0, 1, 1, 0, -37.64, 2952.43)" xlink:href="#linear-gradient"/><linearGradient id="linear-gradient-12" x1="-2899.98" y1="60.27" x2="-2884.34" y2="60.27" gradientTransform="matrix(0, 1, 1, 0, -37.64, 2952.43)" xlink:href="#linear-gradient"/><linearGradient id="linear-gradient-13" x1="-2884.53" y1="60.27" x2="-2881.48" y2="60.27" gradientTransform="matrix(0, 1, 1, 0, -46.8, 2943.28)" xlink:href="#linear-gradient"/><linearGradient id="linear-gradient-14" x1="-2884.72" y1="60.27" x2="-2881.29" y2="60.27" gradientTransform="matrix(0, 1, 1, 0, -46.8, 2943.28)" xlink:href="#linear-gradient"/><radialGradient id="radial-gradient" cx="-2891.82" cy="88.78" r="5.77" gradientTransform="matrix(-1, 0, 0, 1, -2869.53, 0)" gradientUnits="userSpaceOnUse"><stop offset="0.14" stop-color="#b3b3b3"/><stop offset="0.38" stop-color="#999"/><stop offset="0.69" stop-color="#7e7e7e"/><stop offset="1" stop-color="#666"/></radialGradient><radialGradient id="radial-gradient-2" cx="-2891.82" cy="88.78" r="4.33" gradientTransform="matrix(-1, 0, 0, 1, -2869.53, 0)" gradientUnits="userSpaceOnUse"><stop offset="0.13" stop-color="#999"/><stop offset="0.38" stop-color="#7e7e7e"/><stop offset="0.63" stop-color="#666"/><stop offset="0.7" stop-color="#7a7a7a"/><stop offset="0.82" stop-color="#999"/><stop offset="0.92" stop-color="#acacac"/><stop offset="0.99" stop-color="#b3b3b3"/></radialGradient><radialGradient id="radial-gradient-3" cx="-2891.82" cy="88.78" r="3.56" gradientTransform="matrix(-1, 0, 0, 1, -2869.53, 0)" gradientUnits="userSpaceOnUse"><stop offset="0.14" stop-color="#b3b3b3"/><stop offset="0.38" stop-color="#999"/><stop offset="0.62" stop-color="#7e7e7e"/><stop offset="0.87" stop-color="#666"/></radialGradient><radialGradient id="radial-gradient-4" cx="-2891.82" cy="88.78" r="3.67" xlink:href="#radial-gradient-3"/><linearGradient id="linear-gradient-15" x1="-2881.48" y1="57.06" x2="-2870.7" y2="57.06" gradientTransform="matrix(-1, 0, 0, 1, -2869.53, 0)" xlink:href="#linear-gradient"/><linearGradient id="linear-gradient-16" x1="-2881.66" y1="57.06" x2="-2870.51" y2="57.06" gradientTransform="matrix(-1, 0, 0, 1, -2869.53, 0)" xlink:href="#linear-gradient"/><linearGradient id="linear-gradient-17" x1="-2992.53" y1="109.61" x2="-2905.89" y2="109.61" gradientTransform="matrix(1, 0, 0, -1, 3028.89, 219.23)" xlink:href="#linear-gradient"/><linearGradient id="linear-gradient-18" x1="-2949.98" y1="100.39" x2="-2949.98" y2="17.99" gradientTransform="matrix(1, 0, 0, -1, 3030.43, 118.39)" gradientUnits="userSpaceOnUse"><stop offset="0.06" stop-color="#1a1a1a"/><stop offset="0.29" stop-color="#353535"/><stop offset="0.51" stop-color="#4d4d4d"/><stop offset="0.87" stop-color="#1a1a1a"/></linearGradient><linearGradient id="linear-gradient-19" x1="-2924.41" y1="58.11" x2="-2967.65" y2="14.87" gradientTransform="matrix(1, 0, 0, -1, 3024.29, 72.99)" gradientUnits="userSpaceOnUse"><stop offset="0" stop-color="#393939"/><stop offset="0.47" stop-color="#181818"/><stop offset="0.87"/></linearGradient><linearGradient id="linear-gradient-20" x1="-2924.41" y1="79.11" x2="-2967.65" y2="35.87" gradientTransform="matrix(1, 0, 0, -1, 3024.29, 114.99)" xlink:href="#linear-gradient-19"/><linearGradient id="linear-gradient-21" x1="-2924.41" y1="100.11" x2="-2967.65" y2="56.87" gradientTransform="matrix(1, 0, 0, -1, 3024.29, 156.99)" xlink:href="#linear-gradient-19"/><radialGradient id="radial-gradient-5" cx="-2978.04" cy="68.17" r="8.06" gradientTransform="matrix(-1, 0, 0, 1, -2869.53, 0)" gradientUnits="userSpaceOnUse"><stop offset="0" stop-color="#1a1a1a"/><stop offset="0.09" stop-color="#2c2c2c"/><stop offset="0.15" stop-color="#333"/><stop offset="0.78" stop-color="#333"/><stop offset="1" stop-color="#1a1a1a"/></radialGradient><linearGradient id="linear-gradient-22" x1="-2984.08" y1="68.17" x2="-2972" y2="68.17" gradientTransform="matrix(-1, 0, 0, 1, -2869.53, 0)" xlink:href="#radial-gradient-3"/><radialGradient id="radial-gradient-6" cx="-2978.04" cy="88.01" r="8.06" xlink:href="#radial-gradient-5"/><linearGradient id="linear-gradient-23" x1="-2984.08" y1="88.01" x2="-2972" y2="88.01" gradientTransform="matrix(-1, 0, 0, 1, -2869.53, 0)" xlink:href="#radial-gradient-3"/><radialGradient id="radial-gradient-7" cx="-2978.04" cy="68.17" r="4.97" gradientTransform="matrix(-1, 0, 0, 1, -2869.53, 0)" gradientUnits="userSpaceOnUse"><stop offset="0" stop-color="#1a1a1a"/><stop offset="0.38" stop-color="#2c2c2c"/><stop offset="0.65" stop-color="#333"/><stop offset="0.78" stop-color="#333"/><stop offset="1" stop-color="#1a1a1a"/></radialGradient><radialGradient id="radial-gradient-8" cx="-2978.04" cy="68.17" r="5.12" xlink:href="#radial-gradient-7"/><radialGradient id="radial-gradient-9" cx="-2978.04" cy="88.01" r="4.97" xlink:href="#radial-gradient-7"/><radialGradient id="radial-gradient-10" cx="-2978.04" cy="88.01" r="5.12" xlink:href="#radial-gradient-7"/></defs><title>Detector_Camera_CCD copy</title><rect class="cls-1" x="-2.28" y="57.99" width="80.04" height="4.58" transform="translate(98.01 22.54) rotate(90)"/><rect class="cls-2" x="0.05" y="59.21" width="68.67" height="2.14" transform="translate(94.66 25.89) rotate(90)"/><rect class="cls-3" x="0.5" y="58.75" width="62.56" height="3.05" transform="translate(92.06 28.49) rotate(90)"/><polygon class="cls-4" points="116.38 112.92 42.99 112.92 47.07 122.08 112.3 122.08 116.38 112.92"/><rect class="cls-5" x="39.65" y="10.68" width="80.06" height="97.66" transform="translate(159.36 119.02) rotate(-180)"/><rect class="cls-6" x="44.04" width="71.28" height="4.58" transform="translate(159.36 4.58) rotate(-180)"/><rect class="cls-7" x="36.36" y="3.05" width="86.64" height="12.21" rx="2.47" transform="translate(159.36 18.31) rotate(-180)"/><rect class="cls-8" x="-7.12" y="52.65" width="59.51" height="15.26" transform="translate(82.91 37.64) rotate(90)"/><rect class="cls-9" x="-17.81" y="58.75" width="62.56" height="3.05" transform="translate(73.75 46.8) rotate(90)"/><circle class="cls-10" cx="22.3" cy="88.78" r="5.77"/><circle class="cls-11" cx="22.3" cy="88.78" r="4.33"/><circle class="cls-12" cx="22.3" cy="88.78" r="3.56"/><path class="cls-13" d="M18.63,88.78a3.67,3.67,0,1,1,3.67,3.66A3.67,3.67,0,0,1,18.63,88.78Zm.22,0a3.45,3.45,0,1,0,3.45-3.45A3.45,3.45,0,0,0,18.85,88.78Z"/><path class="cls-14" d="M12,26.77,1.17,22.57q0,34.5.1,69H12S11.68,26.77,12,26.77Z"/><rect class="cls-15" x="36.36" y="103.51" width="86.64" height="12.21" rx="2.47" transform="translate(159.36 219.23) rotate(-180)"/><rect class="cls-16" x="43.76" y="17.99" width="73.39" height="82.4" rx="3.65" transform="translate(160.91 118.39) rotate(-180)"/><path class="cls-17" d="M46.76,26H111a0,0,0,0,1,0,0V47a0,0,0,0,1,0,0H46.76a3,3,0,0,1-3-3V29a3,3,0,0,1,3-3Z" transform="translate(154.76 72.99) rotate(180)"/><path class="cls-18" d="M46.76,47H111a0,0,0,0,1,0,0V68a0,0,0,0,1,0,0H46.76a3,3,0,0,1-3-3V50a3,3,0,0,1,3-3Z" transform="translate(154.76 114.99) rotate(-180)"/><path class="cls-19" d="M46.76,68H111a0,0,0,0,1,0,0V89a0,0,0,0,1,0,0H46.76a3,3,0,0,1-3-3V71A3,3,0,0,1,46.76,68Z" transform="translate(154.76 156.99) rotate(-180)"/><circle class="cls-20" cx="108.51" cy="68.17" r="8.06"/><circle class="cls-21" cx="108.51" cy="68.17" r="6.04"/><circle class="cls-22" cx="108.51" cy="88.01" r="8.06"/><circle class="cls-23" cx="108.51" cy="88.01" r="6.04"/><circle class="cls-24" cx="108.51" cy="68.17" r="4.97"/><path class="cls-25" d="M103.39,68.17a5.12,5.12,0,1,1,5.12,5.13A5.13,5.13,0,0,1,103.39,68.17Zm.31,0a4.81,4.81,0,1,0,4.81-4.81A4.82,4.82,0,0,0,103.7,68.17Z"/><circle class="cls-26" cx="108.51" cy="88.01" r="4.97"/><path class="cls-27" d="M103.39,88a5.12,5.12,0,1,1,5.12,5.12A5.13,5.13,0,0,1,103.39,88Zm.31,0a4.81,4.81,0,1,0,4.81-4.81A4.82,4.82,0,0,0,103.7,88Z"/><path class="cls-28" d="M64.61,112.84a2.41,2.41,0,0,1-1.1-.26,2,2,0,0,1-.8-.79,2.52,2.52,0,0,1-.31-1.31,2.55,2.55,0,0,1,.32-1.33,2.18,2.18,0,0,1,.82-.83,2.22,2.22,0,0,1,1.1-.28,1.83,1.83,0,0,1,.82.18,2.51,2.51,0,0,1,.62.43l-.65.79a1.61,1.61,0,0,0-.35-.25.92.92,0,0,0-.41-.1.89.89,0,0,0-.71.36,1.44,1.44,0,0,0-.31,1,1.56,1.56,0,0,0,.28,1,.87.87,0,0,0,.72.35,1,1,0,0,0,.48-.12,1.72,1.72,0,0,0,.36-.28l.64.77A1.91,1.91,0,0,1,64.61,112.84Z"/><path class="cls-28" d="M68.5,112.84a2.37,2.37,0,0,1-1.09-.26,2,2,0,0,1-.81-.79,2.52,2.52,0,0,1-.31-1.31,2.64,2.64,0,0,1,.32-1.33,2.18,2.18,0,0,1,.82-.83,2.22,2.22,0,0,1,1.1-.28,1.83,1.83,0,0,1,.82.18,2.51,2.51,0,0,1,.62.43l-.64.79a2,2,0,0,0-.36-.25.92.92,0,0,0-.41-.1.9.9,0,0,0-.71.36,1.49,1.49,0,0,0-.3,1,1.62,1.62,0,0,0,.27,1,.87.87,0,0,0,.72.35,1,1,0,0,0,.48-.12,1.72,1.72,0,0,0,.36-.28l.64.77A1.9,1.9,0,0,1,68.5,112.84Z"/><path class="cls-28" d="M70.67,112.76v-4.64H72a2.61,2.61,0,0,1,1.71.54,2.14,2.14,0,0,1,.67,1.76,2.2,2.2,0,0,1-.66,1.78,2.44,2.44,0,0,1-1.65.56Zm1.22-1H72a1.33,1.33,0,0,0,.85-.27,1.29,1.29,0,0,0,.35-1.08c0-.54-.11-.9-.35-1.06a1.38,1.38,0,0,0-.85-.25h-.07Z"/><path class="cls-28" d="M78.68,112.84a2.41,2.41,0,0,1-1.1-.26,2.11,2.11,0,0,1-.81-.79,2.62,2.62,0,0,1-.3-1.31,2.55,2.55,0,0,1,.32-1.33,2.18,2.18,0,0,1,.82-.83,2.22,2.22,0,0,1,1.1-.28,1.83,1.83,0,0,1,.82.18,2.71,2.71,0,0,1,.62.43l-.65.79a1.61,1.61,0,0,0-.35-.25.93.93,0,0,0-.42-.1.89.89,0,0,0-.7.36,1.44,1.44,0,0,0-.31,1,1.56,1.56,0,0,0,.28,1,.87.87,0,0,0,.72.35,1,1,0,0,0,.48-.12,1.72,1.72,0,0,0,.36-.28l.64.77A1.93,1.93,0,0,1,78.68,112.84Z"/><path class="cls-28" d="M83.27,112.76l-.23-1h-1.3l-.23,1H80.26l1.41-4.64h1.48l1.41,4.64ZM82,110.5l-.08.33h.86l-.08-.33c-.06-.21-.11-.46-.17-.72s-.11-.51-.17-.74h0c-.05.23-.1.48-.16.74S82.1,110.29,82,110.5Z"/><path class="cls-28" d="M85,112.76v-4.64h1.31L87,110l.12.4.12.41h0l.12-.41.12-.4.67-1.9h1.31v4.64H88.4v-1.37a6.6,6.6,0,0,1,.06-.83c0-.32.07-.59.1-.83h0l-.39,1.12-.57,1.53h-.65l-.57-1.53L86,109.73h0c0,.24.06.51.1.83a6.43,6.43,0,0,1,0,.83v1.37Z"/><path class="cls-28" d="M90.54,112.76v-4.64h3v1H91.76v.73h1.51v1H91.76v.83H93.6v1Z"/><path class="cls-28" d="M95.73,112.76H94.5v-4.64h1.75a3,3,0,0,1,.92.14,1.36,1.36,0,0,1,.68.46,1.44,1.44,0,0,1,.26.9,1.53,1.53,0,0,1-.21.83,1.46,1.46,0,0,1-.54.51l1,1.8H97l-.79-1.56h-.47Zm0-2.53h.44c.49,0,.74-.2.74-.61a.42.42,0,0,0-.19-.41,1,1,0,0,0-.55-.12h-.44Z"/><path class="cls-28" d="M101.34,112.76l-.23-1H99.82l-.23,1H98.33l1.42-4.64h1.48l1.41,4.64Zm-1.22-2.26-.08.33h.85l-.08-.33-.17-.72c0-.26-.11-.51-.17-.74h0c0,.23-.1.48-.15.74S100.17,110.29,100.12,110.5Z"/></svg>