<svg xmlns="http://www.w3.org/2000/svg" xmlns:xlink="http://www.w3.org/1999/xlink" viewBox="0 0 123 122.08"><defs><style>.cls-1{isolation:isolate;}.cls-10,.cls-15,.cls-2,.cls-3,.cls-31,.cls-32,.cls-33,.cls-35,.cls-36,.cls-37,.cls-4,.cls-9{stroke-linejoin:round;stroke-width:0.38px;}.cls-2{fill:url(#linear-gradient);}.cls-2,.cls-31{stroke:url(#linear-gradient-2);}.cls-3{fill:url(#linear-gradient-3);}.cls-3,.cls-32{stroke:url(#linear-gradient-4);}.cls-4{fill:url(#linear-gradient-5);}.cls-33,.cls-4{stroke:url(#linear-gradient-6);}.cls-5{fill:url(#linear-gradient-7);}.cls-6{fill:url(#linear-gradient-8);}.cls-7{fill:url(#linear-gradient-9);}.cls-8{fill:url(#linear-gradient-10);}.cls-9{fill:url(#linear-gradient-11);}.cls-35,.cls-9{stroke:url(#linear-gradient-12);}.cls-10{fill:url(#linear-gradient-13);}.cls-10,.cls-36{stroke:url(#linear-gradient-14);}.cls-11{fill:url(#radial-gradient);}.cls-12{fill:url(#radial-gradient-2);}.cls-13{fill:url(#radial-gradient-3);}.cls-14{fill:url(#radial-gradient-4);}.cls-15{fill:url(#linear-gradient-15);}.cls-15,.cls-37{stroke:url(#linear-gradient-16);}.cls-16{fill:url(#linear-gradient-17);}.cls-17{fill:url(#linear-gradient-18);}.cls-18{fill:url(#linear-gradient-19);}.cls-19{fill:url(#linear-gradient-20);}.cls-20{fill:url(#linear-gradient-21);}.cls-21{fill:url(#radial-gradient-5);}.cls-22{fill:url(#linear-gradient-22);}.cls-23{fill:url(#radial-gradient-6);}.cls-24{fill:url(#linear-gradient-23);}.cls-25{fill:url(#radial-gradient-7);}.cls-26{fill:url(#radial-gradient-8);}.cls-27{fill:url(#radial-gradient-9);}.cls-28{fill:url(#radial-gradient-10);}.cls-29{fill:#fff;}.cls-30{opacity:0.24;mix-blend-mode:color-dodge;}.cls-31,.cls-32,.cls-33,.cls-34,.cls-35,.cls-36,.cls-37{fill:#33008c;}</style><linearGradient id="linear-gradient" x1="-3061.55" y1="60.27" x2="-3056.98" y2="60.27" gradientTransform="translate(25.99 -2998.99) rotate(-90)" gradientUnits="userSpaceOnUse"><stop offset="0" stop-color="#1a1a1a"/><stop offset="0.09" stop-color="#2c2c2c"/><stop offset="0.15" stop-color="#333"/><stop offset="0.4" stop-color="#4d4d4d"/><stop offset="0.78" stop-color="#333"/><stop offset="1" stop-color="#1a1a1a"/></linearGradient><linearGradient id="linear-gradient-2" x1="-3061.74" y1="60.27" x2="-3056.79" y2="60.27" xlink:href="#linear-gradient"/><linearGradient id="linear-gradient-3" x1="-3056.98" y1="60.27" x2="-3054.84" y2="60.27" gradientTransform="translate(29.34 -2995.63) rotate(-90)" xlink:href="#linear-gradient"/><linearGradient id="linear-gradient-4" x1="-3057.16" y1="60.27" x2="-3054.65" y2="60.27" gradientTransform="translate(29.34 -2995.63) rotate(-90)" xlink:href="#linear-gradient"/><linearGradient id="linear-gradient-5" x1="-3054.84" y1="60.27" x2="-3051.79" y2="60.27" gradientTransform="translate(31.94 -2993.04) rotate(-90)" xlink:href="#linear-gradient"/><linearGradient id="linear-gradient-6" x1="-3055.03" y1="60.27" x2="-3051.6" y2="60.27" gradientTransform="translate(31.94 -2993.04) rotate(-90)" xlink:href="#linear-gradient"/><linearGradient id="linear-gradient-7" x1="-3137.9" y1="117.5" x2="-3064.52" y2="117.5" gradientTransform="translate(3145.53)" gradientUnits="userSpaceOnUse"><stop offset="0" stop-color="#1a1a1a"/><stop offset="0.15" stop-color="#4d4d4d"/><stop offset="0.58" stop-color="#1a1a1a"/><stop offset="0.78" stop-color="#333"/><stop offset="0.94" stop-color="#4d4d4d"/></linearGradient><linearGradient id="linear-gradient-8" x1="-3141.24" y1="59.51" x2="-3061.18" y2="59.51" gradientTransform="translate(3145.53)" gradientUnits="userSpaceOnUse"><stop offset="0" stop-color="#4d4d4d"/><stop offset="0.54" stop-color="#222"/><stop offset="0.65" stop-color="#2c2c2c"/><stop offset="0.78" stop-color="#333"/><stop offset="0.93" stop-color="#454545"/><stop offset="1" stop-color="#1a1a1a"/></linearGradient><linearGradient id="linear-gradient-9" x1="-3136.85" y1="2.29" x2="-3065.57" y2="2.29" xlink:href="#linear-gradient-8"/><linearGradient id="linear-gradient-10" x1="-3144.53" y1="9.16" x2="-3057.89" y2="9.16" gradientTransform="translate(3145.53)" xlink:href="#linear-gradient"/><linearGradient id="linear-gradient-11" x1="-3051.79" y1="60.27" x2="-3036.53" y2="60.27" gradientTransform="translate(41.09 -2983.88) rotate(-90)" xlink:href="#linear-gradient"/><linearGradient id="linear-gradient-12" x1="-3051.98" y1="60.27" x2="-3036.34" y2="60.27" gradientTransform="translate(41.09 -2983.88) rotate(-90)" xlink:href="#linear-gradient"/><linearGradient id="linear-gradient-13" x1="-3036.53" y1="60.27" x2="-3033.48" y2="60.27" gradientTransform="translate(50.25 -2974.73) rotate(-90)" xlink:href="#linear-gradient"/><linearGradient id="linear-gradient-14" x1="-3036.72" y1="60.27" x2="-3033.29" y2="60.27" gradientTransform="translate(50.25 -2974.73) rotate(-90)" xlink:href="#linear-gradient"/><radialGradient id="radial-gradient" cx="-3043.82" cy="88.78" r="5.77" gradientTransform="translate(3145.53)" gradientUnits="userSpaceOnUse"><stop offset="0.14" stop-color="#b3b3b3"/><stop offset="0.38" stop-color="#999"/><stop offset="0.69" stop-color="#7e7e7e"/><stop offset="1" stop-color="#666"/></radialGradient><radialGradient id="radial-gradient-2" cx="-3043.82" cy="88.78" r="4.33" gradientTransform="translate(3145.53)" gradientUnits="userSpaceOnUse"><stop offset="0.13" stop-color="#999"/><stop offset="0.38" stop-color="#7e7e7e"/><stop offset="0.63" stop-color="#666"/><stop offset="0.7" stop-color="#7a7a7a"/><stop offset="0.82" stop-color="#999"/><stop offset="0.92" stop-color="#acacac"/><stop offset="0.99" stop-color="#b3b3b3"/></radialGradient><radialGradient id="radial-gradient-3" cx="-3043.82" cy="88.78" r="3.56" gradientTransform="translate(3145.53)" gradientUnits="userSpaceOnUse"><stop offset="0.14" stop-color="#b3b3b3"/><stop offset="0.38" stop-color="#999"/><stop offset="0.62" stop-color="#7e7e7e"/><stop offset="0.87" stop-color="#666"/></radialGradient><radialGradient id="radial-gradient-4" cx="-3043.82" cy="88.78" r="3.67" xlink:href="#radial-gradient-3"/><linearGradient id="linear-gradient-15" x1="-3033.48" y1="57.06" x2="-3022.7" y2="57.06" gradientTransform="translate(3145.53)" xlink:href="#linear-gradient"/><linearGradient id="linear-gradient-16" x1="-3033.66" y1="57.06" x2="-3022.51" y2="57.06" gradientTransform="translate(3145.53)" xlink:href="#linear-gradient"/><linearGradient id="linear-gradient-17" x1="-3144.53" y1="109.61" x2="-3057.89" y2="109.61" gradientTransform="translate(3145.53)" xlink:href="#linear-gradient"/><linearGradient id="linear-gradient-18" x1="-3101.98" y1="100.39" x2="-3101.98" y2="17.99" gradientTransform="translate(3145.53)" gradientUnits="userSpaceOnUse"><stop offset="0.06" stop-color="#1a1a1a"/><stop offset="0.29" stop-color="#353535"/><stop offset="0.51" stop-color="#4d4d4d"/><stop offset="0.87" stop-color="#1a1a1a"/></linearGradient><linearGradient id="linear-gradient-19" x1="-3076.41" y1="58.11" x2="-3119.65" y2="14.87" gradientTransform="translate(3145.53)" gradientUnits="userSpaceOnUse"><stop offset="0" stop-color="#393939"/><stop offset="0.47" stop-color="#181818"/><stop offset="0.87"/></linearGradient><linearGradient id="linear-gradient-20" x1="-3076.41" y1="79.11" x2="-3119.65" y2="35.87" xlink:href="#linear-gradient-19"/><linearGradient id="linear-gradient-21" x1="-3076.41" y1="100.11" x2="-3119.65" y2="56.87" xlink:href="#linear-gradient-19"/><radialGradient id="radial-gradient-5" cx="-3130.04" cy="68.17" r="8.06" gradientTransform="translate(3145.53)" gradientUnits="userSpaceOnUse"><stop offset="0" stop-color="#1a1a1a"/><stop offset="0.09" stop-color="#2c2c2c"/><stop offset="0.15" stop-color="#333"/><stop offset="0.78" stop-color="#333"/><stop offset="1" stop-color="#1a1a1a"/></radialGradient><linearGradient id="linear-gradient-22" x1="-3136.08" y1="68.17" x2="-3124" y2="68.17" gradientTransform="translate(3145.53)" xlink:href="#radial-gradient-3"/><radialGradient id="radial-gradient-6" cx="-3130.04" cy="88.01" r="8.06" xlink:href="#radial-gradient-5"/><linearGradient id="linear-gradient-23" x1="-3136.08" y1="88.01" x2="-3124" y2="88.01" gradientTransform="translate(3145.53)" xlink:href="#radial-gradient-3"/><radialGradient id="radial-gradient-7" cx="-3130.04" cy="68.17" r="4.97" gradientTransform="translate(3145.53)" gradientUnits="userSpaceOnUse"><stop offset="0" stop-color="#1a1a1a"/><stop offset="0.38" stop-color="#2c2c2c"/><stop offset="0.65" stop-color="#333"/><stop offset="0.78" stop-color="#333"/><stop offset="1" stop-color="#1a1a1a"/></radialGradient><radialGradient id="radial-gradient-8" cx="-3130.04" cy="68.17" r="5.12" xlink:href="#radial-gradient-7"/><radialGradient id="radial-gradient-9" cx="-3130.04" cy="88.01" r="4.97" xlink:href="#radial-gradient-7"/><radialGradient id="radial-gradient-10" cx="-3130.04" cy="88.01" r="5.12" xlink:href="#radial-gradient-7"/></defs><g class="cls-1"><g id="Layer_1" data-name="Layer 1"><rect class="cls-2" x="46.24" y="57.99" width="80.04" height="4.58" transform="translate(146.54 -25.99) rotate(90)"/><rect class="cls-3" x="55.29" y="59.21" width="68.67" height="2.14" transform="translate(149.89 -29.34) rotate(90)"/><rect class="cls-4" x="60.93" y="58.75" width="62.56" height="3.05" transform="translate(152.49 -31.94) rotate(90)"/><polygon class="cls-5" points="7.63 112.92 81.01 112.92 76.93 122.08 11.7 122.08 7.63 112.92"/><rect class="cls-6" x="4.29" y="10.68" width="80.06" height="97.66"/><rect class="cls-7" x="8.68" width="71.28" height="4.58"/><rect class="cls-8" x="1" y="3.05" width="86.64" height="12.21" rx="2.47"/><rect class="cls-9" x="71.61" y="52.65" width="59.51" height="15.26" transform="translate(161.64 -41.09) rotate(90)"/><rect class="cls-10" x="79.24" y="58.75" width="62.56" height="3.05" transform="translate(170.8 -50.25) rotate(90)"/><circle class="cls-11" cx="101.7" cy="88.78" r="5.77"/><circle class="cls-12" cx="101.7" cy="88.78" r="4.33"/><circle class="cls-13" cx="101.7" cy="88.78" r="3.56"/><path class="cls-14" d="M101.7,92.44a3.67,3.67,0,1,1,3.67-3.66A3.66,3.66,0,0,1,101.7,92.44Zm0-7.11a3.45,3.45,0,1,0,3.45,3.45A3.45,3.45,0,0,0,101.7,85.33Z"/><path class="cls-15" d="M112.05,26.77l10.78-4.2q0,34.5-.1,69H112.05S112.32,26.77,112.05,26.77Z"/><rect class="cls-16" x="1" y="103.51" width="86.64" height="12.21" rx="2.47"/><rect class="cls-17" x="6.85" y="17.99" width="73.39" height="82.4" rx="3.65"/><path class="cls-18" d="M16,26H80.24a0,0,0,0,1,0,0V47a0,0,0,0,1,0,0H16a3,3,0,0,1-3-3V29a3,3,0,0,1,3-3Z"/><path class="cls-19" d="M16,47H80.24a0,0,0,0,1,0,0V68a0,0,0,0,1,0,0H16a3,3,0,0,1-3-3V50a3,3,0,0,1,3-3Z"/><path class="cls-20" d="M16,68H80.24a0,0,0,0,1,0,0V89a0,0,0,0,1,0,0H16a3,3,0,0,1-3-3V71a3,3,0,0,1,3-3Z"/><circle class="cls-21" cx="15.49" cy="68.17" r="8.06"/><circle class="cls-22" cx="15.49" cy="68.17" r="6.04"/><circle class="cls-23" cx="15.49" cy="88.01" r="8.06"/><circle class="cls-24" cx="15.49" cy="88.01" r="6.04"/><circle class="cls-25" cx="15.49" cy="68.17" r="4.97"/><path class="cls-26" d="M15.49,73.3a5.13,5.13,0,1,1,5.12-5.13A5.13,5.13,0,0,1,15.49,73.3Zm0-9.94a4.82,4.82,0,1,0,4.81,4.81A4.81,4.81,0,0,0,15.49,63.36Z"/><circle class="cls-27" cx="15.49" cy="88.01" r="4.97"/><path class="cls-28" d="M15.49,93.13A5.12,5.12,0,1,1,20.61,88,5.12,5.12,0,0,1,15.49,93.13Zm0-9.93A4.81,4.81,0,1,0,20.3,88,4.81,4.81,0,0,0,15.49,83.2Z"/><path class="cls-29" d="M10.69,111.76v-4.64h1.22v4.64Z"/><path class="cls-29" d="M12.94,111.76v-4.64h1.25l1,2.07.44,1h0c0-.25-.06-.53-.1-.85a7.59,7.59,0,0,1-.06-.92v-1.34H16.7v4.64H15.45l-1-2.08-.44-1h0c0,.27.06.55.1.87a7,7,0,0,1,.06.9v1.34Z"/><path class="cls-29" d="M18.61,111.76v-3.61H17.39v-1h3.67v1H19.84v3.61Z"/><path class="cls-29" d="M21.75,111.76v-4.64h3v1H23v.73h1.52v1H23v.83h1.84v1Z"/><path class="cls-29" d="M25.71,111.76v-4.64H27l1,2.07.44,1h0c0-.25-.06-.53-.1-.85a7.49,7.49,0,0,1-.05-.92v-1.34h1.16v4.64H28.22l-1-2.08-.44-1h0c0,.27.07.55.1.87a7,7,0,0,1,.06.9v1.34Z"/><path class="cls-29" d="M32,111.84a2.69,2.69,0,0,1-.91-.16,2.38,2.38,0,0,1-.84-.5l.69-.84a2.26,2.26,0,0,0,.54.32,1.29,1.29,0,0,0,.55.13c.35,0,.52-.11.52-.33a.27.27,0,0,0-.16-.25l-.46-.2-.58-.24a1.78,1.78,0,0,1-.66-.47,1.25,1.25,0,0,1-.27-.82,1.32,1.32,0,0,1,.48-1,1.83,1.83,0,0,1,1.24-.42,2.32,2.32,0,0,1,.81.15,2,2,0,0,1,.73.47l-.61.77a2.6,2.6,0,0,0-.45-.25,1.28,1.28,0,0,0-.48-.09c-.32,0-.48.11-.48.32a.27.27,0,0,0,.18.25l.5.21.56.22a1.42,1.42,0,0,1,.67.48,1.24,1.24,0,0,1,.24.79,1.4,1.4,0,0,1-.47,1A1.86,1.86,0,0,1,32,111.84Z"/><path class="cls-29" d="M34.52,111.76v-4.64h1.23v4.64Z"/><path class="cls-29" d="M36.77,111.76v-4.64h3v1H38V109h1.54v1H38v1.7Z"/><path class="cls-29" d="M40.59,111.76v-4.64h1.23v4.64Z"/><path class="cls-29" d="M42.84,111.76v-4.64h3v1H44.07v.73h1.51v1H44.07v.83h1.84v1Z"/><path class="cls-29" d="M46.81,111.76v-4.64h1.37a2.61,2.61,0,0,1,1.71.54,2.11,2.11,0,0,1,.67,1.76,2.2,2.2,0,0,1-.66,1.78,2.44,2.44,0,0,1-1.65.56Zm1.22-1h.07a1.33,1.33,0,0,0,.85-.27,1.29,1.29,0,0,0,.35-1.08c0-.54-.11-.9-.35-1.06a1.38,1.38,0,0,0-.85-.25H48Z"/><path class="cls-29" d="M54.82,111.84a2.41,2.41,0,0,1-1.1-.26,2,2,0,0,1-.8-.79,2.52,2.52,0,0,1-.31-1.31,2.55,2.55,0,0,1,.32-1.33,2.18,2.18,0,0,1,.82-.83,2.22,2.22,0,0,1,1.1-.28,1.83,1.83,0,0,1,.82.18,2.51,2.51,0,0,1,.62.43l-.65.79a1.61,1.61,0,0,0-.35-.25.92.92,0,0,0-.41-.1.89.89,0,0,0-.71.36,1.44,1.44,0,0,0-.31,1,1.56,1.56,0,0,0,.28,1,.87.87,0,0,0,.72.35,1,1,0,0,0,.48-.12,1.72,1.72,0,0,0,.36-.28l.64.77A1.91,1.91,0,0,1,54.82,111.84Z"/><path class="cls-29" d="M59.41,111.76l-.23-1h-1.3l-.22,1H56.4l1.41-4.64h1.48l1.42,4.64Zm-1.23-2.26-.08.32H59l-.08-.32c-.06-.21-.11-.46-.17-.72s-.11-.51-.17-.74h0c0,.23-.1.48-.16.74S58.24,109.29,58.18,109.5Z"/><path class="cls-29" d="M61.15,111.76v-4.64h1.31l.7,1.9.12.4.12.41h0l.12-.41.12-.4.67-1.9h1.31v4.64H64.54v-1.37a6.6,6.6,0,0,1,.06-.83c0-.32.07-.59.1-.82h0l-.39,1.11-.57,1.53h-.65l-.57-1.53-.37-1.11h0c0,.23.06.5.1.82a6.43,6.43,0,0,1,.05.83v1.37Z"/><path class="cls-29" d="M66.68,111.76v-4.64h3v1H67.9v.73h1.52v1H67.9v.83h1.84v1Z"/><path class="cls-29" d="M71.87,111.76H70.64v-4.64h1.75a3,3,0,0,1,.92.14,1.36,1.36,0,0,1,.68.46,1.44,1.44,0,0,1,.26.9,1.53,1.53,0,0,1-.21.83,1.46,1.46,0,0,1-.54.51l1,1.8H73.14l-.8-1.56h-.47Zm0-2.53h.44c.49,0,.74-.2.74-.61a.42.42,0,0,0-.19-.41,1,1,0,0,0-.55-.12h-.44Z"/><path class="cls-29" d="M77.48,111.76l-.23-1H76l-.23,1H74.47l1.42-4.64h1.48l1.41,4.64Zm-1.22-2.26-.08.32H77L77,109.5c-.06-.21-.12-.46-.18-.72s-.11-.51-.17-.74h0c0,.23-.1.48-.15.74S76.31,109.29,76.26,109.5Z"/><g class="cls-30"><rect class="cls-31" x="46.24" y="57.99" width="80.04" height="4.58" transform="translate(146.54 -25.99) rotate(90)"/><rect class="cls-32" x="55.29" y="59.21" width="68.67" height="2.14" transform="translate(149.89 -29.34) rotate(90)"/><rect class="cls-33" x="60.93" y="58.75" width="62.56" height="3.05" transform="translate(152.49 -31.94) rotate(90)"/><polygon class="cls-34" points="7.63 112.92 81.01 112.92 76.93 122.08 11.7 122.08 7.63 112.92"/><rect class="cls-34" x="4.29" y="10.68" width="80.06" height="97.66"/><rect class="cls-34" x="8.68" width="71.28" height="4.58"/><rect class="cls-34" x="1" y="3.05" width="86.64" height="12.21" rx="2.47"/><rect class="cls-35" x="71.61" y="52.65" width="59.51" height="15.26" transform="translate(161.64 -41.09) rotate(90)"/><rect class="cls-36" x="79.24" y="58.75" width="62.56" height="3.05" transform="translate(170.8 -50.25) rotate(90)"/><circle class="cls-34" cx="101.7" cy="88.78" r="5.77"/><circle class="cls-34" cx="101.7" cy="88.78" r="4.33"/><circle class="cls-34" cx="101.7" cy="88.78" r="3.56"/><path class="cls-34" d="M101.7,92.44a3.67,3.67,0,1,1,3.67-3.66A3.66,3.66,0,0,1,101.7,92.44Zm0-7.11a3.45,3.45,0,1,0,3.45,3.45A3.45,3.45,0,0,0,101.7,85.33Z"/><path class="cls-37" d="M112.05,26.77l10.78-4.2q0,34.5-.1,69H112.05S112.32,26.77,112.05,26.77Z"/><rect class="cls-34" x="1" y="103.51" width="86.64" height="12.21" rx="2.47"/><rect class="cls-34" x="6.85" y="17.99" width="73.39" height="82.4" rx="3.65"/><path class="cls-34" d="M16,26H80.24a0,0,0,0,1,0,0V47a0,0,0,0,1,0,0H16a3,3,0,0,1-3-3V29a3,3,0,0,1,3-3Z"/><path class="cls-34" d="M16,47H80.24a0,0,0,0,1,0,0V68a0,0,0,0,1,0,0H16a3,3,0,0,1-3-3V50a3,3,0,0,1,3-3Z"/><path class="cls-34" d="M16,68H80.24a0,0,0,0,1,0,0V89a0,0,0,0,1,0,0H16a3,3,0,0,1-3-3V71a3,3,0,0,1,3-3Z"/><circle class="cls-34" cx="15.49" cy="68.17" r="8.06"/><circle class="cls-34" cx="15.49" cy="68.17" r="6.04"/><circle class="cls-34" cx="15.49" cy="88.01" r="8.06"/><circle class="cls-34" cx="15.49" cy="88.01" r="6.04"/><circle class="cls-34" cx="15.49" cy="68.17" r="4.97"/><path class="cls-34" d="M15.49,73.3a5.13,5.13,0,1,1,5.12-5.13A5.13,5.13,0,0,1,15.49,73.3Zm0-9.94a4.82,4.82,0,1,0,4.81,4.81A4.81,4.81,0,0,0,15.49,63.36Z"/><circle class="cls-34" cx="15.49" cy="88.01" r="4.97"/><path class="cls-34" d="M15.49,93.13A5.12,5.12,0,1,1,20.61,88,5.12,5.12,0,0,1,15.49,93.13Zm0-9.93A4.81,4.81,0,1,0,20.3,88,4.81,4.81,0,0,0,15.49,83.2Z"/><path class="cls-34" d="M73.43,112.76v-4.64h1.23v4.64Z"/><path class="cls-34" d="M71.24,112.76v-1.34a7,7,0,0,1,.06-.9c0-.32.07-.6.1-.87h0l-.44,1-1,2.08H68.65v-4.64h1.16v1.34a7.49,7.49,0,0,1,0,.92c0,.32-.07.6-.1.85h0l.44-1,1-2.07h1.26v4.64Z"/><path class="cls-34" d="M65.51,112.76v-3.61H64.28v-1H68v1H66.74v3.61Z"/><path class="cls-34" d="M60.53,112.76v-1h1.84v-.83H60.86v-1h1.51v-.73H60.61v-1h3v4.64Z"/><path class="cls-34" d="M58.47,112.76v-1.34c0-.29,0-.59.05-.9s.08-.6.1-.87h0l-.45,1-1,2.08H55.87v-4.64H57v1.34c0,.29,0,.59,0,.92s-.08.6-.1.85h0l.45-1,1-2.07h1.26v4.64Z"/><path class="cls-34" d="M52,112.39a1.4,1.4,0,0,1-.47-1,1.3,1.3,0,0,1,.23-.79,1.47,1.47,0,0,1,.67-.48l.57-.22.5-.21a.27.27,0,0,0,.18-.25c0-.21-.16-.32-.48-.32a1.28,1.28,0,0,0-.48.09,2.6,2.6,0,0,0-.45.25l-.61-.77a2,2,0,0,1,.73-.47,2.32,2.32,0,0,1,.81-.15,1.84,1.84,0,0,1,1.24.42,1.32,1.32,0,0,1,.48,1,1.2,1.2,0,0,1-.28.82,1.67,1.67,0,0,1-.65.47l-.58.24-.46.2a.28.28,0,0,0-.17.25c0,.22.18.33.53.33a1.33,1.33,0,0,0,.55-.13,2.2,2.2,0,0,0,.53-.32l.7.84a2.47,2.47,0,0,1-.84.5,2.73,2.73,0,0,1-.91.16A1.86,1.86,0,0,1,52,112.39Z"/><path class="cls-34" d="M45.87,112.16l.64-.77a1.72,1.72,0,0,0,.36.28,1,1,0,0,0,.48.12.87.87,0,0,0,.72-.35,1.56,1.56,0,0,0,.28-1,1.44,1.44,0,0,0-.31-1,.89.89,0,0,0-.7-.36.93.93,0,0,0-.42.1,1.61,1.61,0,0,0-.35.25l-.65-.79a2.71,2.71,0,0,1,.62-.43,1.83,1.83,0,0,1,.82-.18,2.22,2.22,0,0,1,1.1.28,2.18,2.18,0,0,1,.82.83,2.55,2.55,0,0,1,.32,1.33,2.62,2.62,0,0,1-.3,1.31,2.11,2.11,0,0,1-.81.79,2.41,2.41,0,0,1-1.1.26A1.91,1.91,0,0,1,45.87,112.16Z"/><path class="cls-34" d="M42,112.16l.64-.77a1.72,1.72,0,0,0,.36.28,1,1,0,0,0,.48.12.87.87,0,0,0,.72-.35,1.62,1.62,0,0,0,.28-1,1.49,1.49,0,0,0-.31-1,.9.9,0,0,0-.71-.36.92.92,0,0,0-.41.1,2,2,0,0,0-.36.25l-.64-.79a2.51,2.51,0,0,1,.62-.43,1.83,1.83,0,0,1,.82-.18,2.22,2.22,0,0,1,1.1.28,2.18,2.18,0,0,1,.82.83,2.64,2.64,0,0,1,.32,1.33,2.52,2.52,0,0,1-.31,1.31,2,2,0,0,1-.81.79,2.37,2.37,0,0,1-1.09.26A1.91,1.91,0,0,1,42,112.16Z"/><path class="cls-34" d="M39.89,112.76a2.44,2.44,0,0,1-1.65-.56,2.19,2.19,0,0,1-.65-1.78,2.14,2.14,0,0,1,.66-1.76,2.62,2.62,0,0,1,1.72-.54h1.36v4.64Zm.22-3.65H40a1.38,1.38,0,0,0-.85.25,1.25,1.25,0,0,0-.35,1.06,1.11,1.11,0,0,0,1.2,1.35h.07Z"/><path class="cls-34" d="M31.8,112.16l.64-.77a1.72,1.72,0,0,0,.36.28,1,1,0,0,0,.48.12.87.87,0,0,0,.72-.35,1.56,1.56,0,0,0,.28-1,1.44,1.44,0,0,0-.31-1,.89.89,0,0,0-.7-.36.93.93,0,0,0-.42.1,1.61,1.61,0,0,0-.35.25l-.65-.79a2.71,2.71,0,0,1,.62-.43,1.86,1.86,0,0,1,.82-.18,2.22,2.22,0,0,1,1.1.28,2.28,2.28,0,0,1,.83.83,3,3,0,0,1,0,2.64,2.11,2.11,0,0,1-.81.79,2.41,2.41,0,0,1-1.1.26A1.93,1.93,0,0,1,31.8,112.16Z"/><path class="cls-34" d="M27.44,112.76l1.41-4.64h1.48l1.41,4.64H30.49l-.23-1H29l-.23,1Zm2.35-3c-.06-.26-.11-.51-.16-.74h0c-.05.23-.11.48-.17.74s-.11.51-.17.72l-.08.32H30L30,110.5C29.9,110.29,29.85,110.05,29.79,109.78Z"/><path class="cls-34" d="M25.9,112.76v-1.37c0-.24,0-.52.05-.83s.07-.59.1-.82h0l-.37,1.11-.57,1.53h-.65l-.57-1.53-.39-1.11h0c0,.23.07.5.1.82a6.6,6.6,0,0,1,.06.83v1.37H22.49v-4.64H23.8l.67,1.9.12.4.12.41h0l.12-.41L25,110l.7-1.9H27v4.64Z"/><path class="cls-34" d="M18.4,112.76v-1h1.84v-.83H18.73v-1h1.51v-.73H18.47v-1h3v4.64Z"/><path class="cls-34" d="M16.27,111.2H15.8L15,112.76H13.64l1-1.8a1.46,1.46,0,0,1-.54-.51,1.53,1.53,0,0,1-.21-.83,1.44,1.44,0,0,1,.26-.9,1.36,1.36,0,0,1,.68-.46,3,3,0,0,1,.92-.14H17.5v4.64H16.27Zm0-2.11h-.44a1,1,0,0,0-.55.12.42.42,0,0,0-.19.41c0,.41.25.61.74.61h.44Z"/><path class="cls-34" d="M9.36,112.76l1.41-4.64h1.49l1.41,4.64H12.41l-.23-1H10.89l-.23,1Zm2.35-3c-.05-.26-.11-.51-.15-.74h0c-.06.23-.12.48-.17.74l-.17.72-.08.32H12l-.08-.32C11.83,110.29,11.77,110.05,11.71,109.78Z"/></g></g></g></svg>