<svg id="Layer_1" data-name="Layer 1" xmlns="http://www.w3.org/2000/svg" xmlns:xlink="http://www.w3.org/1999/xlink" width="123" height="122.08" viewBox="0 0 123 122.08"><defs><style>.cls-1,.cls-14,.cls-2,.cls-3,.cls-8,.cls-9{stroke-linejoin:round;stroke-width:0.38px;}.cls-1{fill:url(#linear-gradient);stroke:url(#linear-gradient-2);}.cls-2{fill:url(#linear-gradient-3);stroke:url(#linear-gradient-4);}.cls-3{fill:url(#linear-gradient-5);stroke:url(#linear-gradient-6);}.cls-4{fill:url(#linear-gradient-7);}.cls-5{fill:url(#linear-gradient-8);}.cls-6{fill:url(#linear-gradient-9);}.cls-7{fill:url(#linear-gradient-10);}.cls-8{fill:url(#linear-gradient-11);stroke:url(#linear-gradient-12);}.cls-9{fill:url(#linear-gradient-13);stroke:url(#linear-gradient-14);}.cls-10{fill:url(#radial-gradient);}.cls-11{fill:url(#radial-gradient-2);}.cls-12{fill:url(#radial-gradient-3);}.cls-13{fill:url(#radial-gradient-4);}.cls-14{fill:url(#linear-gradient-15);stroke:url(#linear-gradient-16);}.cls-15{fill:url(#linear-gradient-17);}.cls-16{fill:url(#linear-gradient-18);}.cls-17{fill:url(#linear-gradient-19);}.cls-18{fill:url(#linear-gradient-20);}.cls-19{fill:url(#linear-gradient-21);}.cls-20{fill:url(#radial-gradient-5);}.cls-21{fill:url(#linear-gradient-22);}.cls-22{fill:url(#radial-gradient-6);}.cls-23{fill:url(#linear-gradient-23);}.cls-24{fill:url(#radial-gradient-7);}.cls-25{fill:url(#radial-gradient-8);}.cls-26{fill:url(#radial-gradient-9);}.cls-27{fill:url(#radial-gradient-10);}.cls-28{fill:#fff;}</style><linearGradient id="linear-gradient" x1="-3521.55" y1="60.27" x2="-3516.98" y2="60.27" gradientTransform="matrix(0, 1, 1, 0, -22.54, 3579.54)" gradientUnits="userSpaceOnUse"><stop offset="0" stop-color="#1a1a1a"/><stop offset="0.09" stop-color="#2c2c2c"/><stop offset="0.15" stop-color="#333"/><stop offset="0.4" stop-color="#4d4d4d"/><stop offset="0.78" stop-color="#333"/><stop offset="1" stop-color="#1a1a1a"/></linearGradient><linearGradient id="linear-gradient-2" x1="-3521.74" y1="60.27" x2="-3516.79" y2="60.27" xlink:href="#linear-gradient"/><linearGradient id="linear-gradient-3" x1="-3516.98" y1="60.27" x2="-3514.84" y2="60.27" gradientTransform="matrix(0, 1, 1, 0, -25.89, 3576.18)" xlink:href="#linear-gradient"/><linearGradient id="linear-gradient-4" x1="-3517.16" y1="60.27" x2="-3514.65" y2="60.27" gradientTransform="matrix(0, 1, 1, 0, -25.89, 3576.18)" xlink:href="#linear-gradient"/><linearGradient id="linear-gradient-5" x1="-3514.84" y1="60.27" x2="-3511.79" y2="60.27" gradientTransform="matrix(0, 1, 1, 0, -28.49, 3573.59)" xlink:href="#linear-gradient"/><linearGradient id="linear-gradient-6" x1="-3515.03" y1="60.27" x2="-3511.6" y2="60.27" gradientTransform="matrix(0, 1, 1, 0, -28.49, 3573.59)" xlink:href="#linear-gradient"/><linearGradient id="linear-gradient-7" x1="-3597.9" y1="117.5" x2="-3524.52" y2="117.5" gradientTransform="matrix(-1, 0, 0, 1, -3481.53, 0)" gradientUnits="userSpaceOnUse"><stop offset="0" stop-color="#1a1a1a"/><stop offset="0.15" stop-color="#4d4d4d"/><stop offset="0.58" stop-color="#1a1a1a"/><stop offset="0.78" stop-color="#333"/><stop offset="0.94" stop-color="#4d4d4d"/></linearGradient><linearGradient id="linear-gradient-8" x1="-3601.24" y1="59.51" x2="-3521.18" y2="59.51" gradientTransform="matrix(1, 0, 0, -1, 3640.89, 119.02)" gradientUnits="userSpaceOnUse"><stop offset="0" stop-color="#4d4d4d"/><stop offset="0.54" stop-color="#222"/><stop offset="0.65" stop-color="#2c2c2c"/><stop offset="0.78" stop-color="#333"/><stop offset="0.93" stop-color="#454545"/><stop offset="1" stop-color="#1a1a1a"/></linearGradient><linearGradient id="linear-gradient-9" x1="-3596.85" y1="2.29" x2="-3525.57" y2="2.29" gradientTransform="matrix(1, 0, 0, -1, 3640.89, 4.58)" xlink:href="#linear-gradient-8"/><linearGradient id="linear-gradient-10" x1="-3604.53" y1="9.16" x2="-3517.89" y2="9.16" gradientTransform="matrix(1, 0, 0, -1, 3640.89, 18.31)" xlink:href="#linear-gradient"/><linearGradient id="linear-gradient-11" x1="-3511.79" y1="60.27" x2="-3496.53" y2="60.27" gradientTransform="matrix(0, 1, 1, 0, -37.64, 3564.43)" xlink:href="#linear-gradient"/><linearGradient id="linear-gradient-12" x1="-3511.98" y1="60.27" x2="-3496.34" y2="60.27" gradientTransform="matrix(0, 1, 1, 0, -37.64, 3564.43)" xlink:href="#linear-gradient"/><linearGradient id="linear-gradient-13" x1="-3496.53" y1="60.27" x2="-3493.48" y2="60.27" gradientTransform="matrix(0, 1, 1, 0, -46.8, 3555.28)" xlink:href="#linear-gradient"/><linearGradient id="linear-gradient-14" x1="-3496.72" y1="60.27" x2="-3493.29" y2="60.27" gradientTransform="matrix(0, 1, 1, 0, -46.8, 3555.28)" xlink:href="#linear-gradient"/><radialGradient id="radial-gradient" cx="-3503.82" cy="88.78" r="5.77" gradientTransform="matrix(-1, 0, 0, 1, -3481.53, 0)" gradientUnits="userSpaceOnUse"><stop offset="0.14" stop-color="#b3b3b3"/><stop offset="0.38" stop-color="#999"/><stop offset="0.69" stop-color="#7e7e7e"/><stop offset="1" stop-color="#666"/></radialGradient><radialGradient id="radial-gradient-2" cx="-3503.82" cy="88.78" r="4.33" gradientTransform="matrix(-1, 0, 0, 1, -3481.53, 0)" gradientUnits="userSpaceOnUse"><stop offset="0.13" stop-color="#999"/><stop offset="0.38" stop-color="#7e7e7e"/><stop offset="0.63" stop-color="#666"/><stop offset="0.7" stop-color="#7a7a7a"/><stop offset="0.82" stop-color="#999"/><stop offset="0.92" stop-color="#acacac"/><stop offset="0.99" stop-color="#b3b3b3"/></radialGradient><radialGradient id="radial-gradient-3" cx="-3503.82" cy="88.78" r="3.56" gradientTransform="matrix(-1, 0, 0, 1, -3481.53, 0)" gradientUnits="userSpaceOnUse"><stop offset="0.14" stop-color="#b3b3b3"/><stop offset="0.38" stop-color="#999"/><stop offset="0.62" stop-color="#7e7e7e"/><stop offset="0.87" stop-color="#666"/></radialGradient><radialGradient id="radial-gradient-4" cx="-3503.82" cy="88.78" r="3.67" xlink:href="#radial-gradient-3"/><linearGradient id="linear-gradient-15" x1="-3493.48" y1="57.06" x2="-3482.7" y2="57.06" gradientTransform="matrix(-1, 0, 0, 1, -3481.53, 0)" xlink:href="#linear-gradient"/><linearGradient id="linear-gradient-16" x1="-3493.66" y1="57.06" x2="-3482.51" y2="57.06" gradientTransform="matrix(-1, 0, 0, 1, -3481.53, 0)" xlink:href="#linear-gradient"/><linearGradient id="linear-gradient-17" x1="-3604.53" y1="109.61" x2="-3517.89" y2="109.61" gradientTransform="matrix(1, 0, 0, -1, 3640.89, 219.23)" xlink:href="#linear-gradient"/><linearGradient id="linear-gradient-18" x1="-3561.98" y1="100.39" x2="-3561.98" y2="17.99" gradientTransform="matrix(1, 0, 0, -1, 3642.43, 118.39)" gradientUnits="userSpaceOnUse"><stop offset="0.06" stop-color="#1a1a1a"/><stop offset="0.29" stop-color="#353535"/><stop offset="0.51" stop-color="#4d4d4d"/><stop offset="0.87" stop-color="#1a1a1a"/></linearGradient><linearGradient id="linear-gradient-19" x1="-3536.41" y1="58.11" x2="-3579.65" y2="14.87" gradientTransform="matrix(1, 0, 0, -1, 3636.29, 72.99)" gradientUnits="userSpaceOnUse"><stop offset="0" stop-color="#393939"/><stop offset="0.47" stop-color="#181818"/><stop offset="0.87"/></linearGradient><linearGradient id="linear-gradient-20" x1="-3536.41" y1="79.11" x2="-3579.65" y2="35.87" gradientTransform="matrix(1, 0, 0, -1, 3636.29, 114.99)" xlink:href="#linear-gradient-19"/><linearGradient id="linear-gradient-21" x1="-3536.41" y1="100.11" x2="-3579.65" y2="56.87" gradientTransform="matrix(1, 0, 0, -1, 3636.29, 156.99)" xlink:href="#linear-gradient-19"/><radialGradient id="radial-gradient-5" cx="-3590.04" cy="68.17" r="8.06" gradientTransform="matrix(-1, 0, 0, 1, -3481.53, 0)" gradientUnits="userSpaceOnUse"><stop offset="0" stop-color="#1a1a1a"/><stop offset="0.09" stop-color="#2c2c2c"/><stop offset="0.15" stop-color="#333"/><stop offset="0.78" stop-color="#333"/><stop offset="1" stop-color="#1a1a1a"/></radialGradient><linearGradient id="linear-gradient-22" x1="-3596.08" y1="68.17" x2="-3584" y2="68.17" gradientTransform="matrix(-1, 0, 0, 1, -3481.53, 0)" xlink:href="#radial-gradient-3"/><radialGradient id="radial-gradient-6" cx="-3590.04" cy="88.01" r="8.06" xlink:href="#radial-gradient-5"/><linearGradient id="linear-gradient-23" x1="-3596.08" y1="88.01" x2="-3584" y2="88.01" gradientTransform="matrix(-1, 0, 0, 1, -3481.53, 0)" xlink:href="#radial-gradient-3"/><radialGradient id="radial-gradient-7" cx="-3590.04" cy="68.17" r="4.97" gradientTransform="matrix(-1, 0, 0, 1, -3481.53, 0)" gradientUnits="userSpaceOnUse"><stop offset="0" stop-color="#1a1a1a"/><stop offset="0.38" stop-color="#2c2c2c"/><stop offset="0.65" stop-color="#333"/><stop offset="0.78" stop-color="#333"/><stop offset="1" stop-color="#1a1a1a"/></radialGradient><radialGradient id="radial-gradient-8" cx="-3590.04" cy="68.17" r="5.12" xlink:href="#radial-gradient-7"/><radialGradient id="radial-gradient-9" cx="-3590.04" cy="88.01" r="4.97" xlink:href="#radial-gradient-7"/><radialGradient id="radial-gradient-10" cx="-3590.04" cy="88.01" r="5.12" xlink:href="#radial-gradient-7"/></defs><title>Detector_Camera_AnalogVideo copy</title><rect class="cls-1" x="-2.28" y="57.99" width="80.04" height="4.58" transform="translate(98.01 22.54) rotate(90)"/><rect class="cls-2" x="0.05" y="59.21" width="68.67" height="2.14" transform="translate(94.66 25.89) rotate(90)"/><rect class="cls-3" x="0.5" y="58.75" width="62.56" height="3.05" transform="translate(92.06 28.49) rotate(90)"/><polygon class="cls-4" points="116.38 112.92 42.99 112.92 47.07 122.08 112.3 122.08 116.38 112.92"/><rect class="cls-5" x="39.65" y="10.68" width="80.06" height="97.66" transform="translate(159.36 119.02) rotate(-180)"/><rect class="cls-6" x="44.04" width="71.28" height="4.58" transform="translate(159.36 4.58) rotate(-180)"/><rect class="cls-7" x="36.36" y="3.05" width="86.64" height="12.21" rx="2.47" transform="translate(159.36 18.31) rotate(-180)"/><rect class="cls-8" x="-7.12" y="52.65" width="59.51" height="15.26" transform="translate(82.91 37.64) rotate(90)"/><rect class="cls-9" x="-17.81" y="58.75" width="62.56" height="3.05" transform="translate(73.75 46.8) rotate(90)"/><circle class="cls-10" cx="22.3" cy="88.78" r="5.77"/><circle class="cls-11" cx="22.3" cy="88.78" r="4.33"/><circle class="cls-12" cx="22.3" cy="88.78" r="3.56"/><path class="cls-13" d="M18.63,88.78a3.67,3.67,0,1,1,3.67,3.66A3.67,3.67,0,0,1,18.63,88.78Zm.22,0a3.45,3.45,0,1,0,3.45-3.45A3.45,3.45,0,0,0,18.85,88.78Z"/><path class="cls-14" d="M12,26.77,1.17,22.57q0,34.5.1,69H12S11.68,26.77,12,26.77Z"/><rect class="cls-15" x="36.36" y="103.51" width="86.64" height="12.21" rx="2.47" transform="translate(159.36 219.23) rotate(-180)"/><rect class="cls-16" x="43.76" y="17.99" width="73.39" height="82.4" rx="3.65" transform="translate(160.91 118.39) rotate(-180)"/><path class="cls-17" d="M46.76,26H111a0,0,0,0,1,0,0V47a0,0,0,0,1,0,0H46.76a3,3,0,0,1-3-3V29a3,3,0,0,1,3-3Z" transform="translate(154.76 72.99) rotate(180)"/><path class="cls-18" d="M46.76,47H111a0,0,0,0,1,0,0V68a0,0,0,0,1,0,0H46.76a3,3,0,0,1-3-3V50a3,3,0,0,1,3-3Z" transform="translate(154.76 114.99) rotate(-180)"/><path class="cls-19" d="M46.76,68H111a0,0,0,0,1,0,0V89a0,0,0,0,1,0,0H46.76a3,3,0,0,1-3-3V71A3,3,0,0,1,46.76,68Z" transform="translate(154.76 156.99) rotate(-180)"/><circle class="cls-20" cx="108.51" cy="68.17" r="8.06"/><circle class="cls-21" cx="108.51" cy="68.17" r="6.04"/><circle class="cls-22" cx="108.51" cy="88.01" r="8.06"/><circle class="cls-23" cx="108.51" cy="88.01" r="6.04"/><circle class="cls-24" cx="108.51" cy="68.17" r="4.97"/><path class="cls-25" d="M103.39,68.17a5.12,5.12,0,1,1,5.12,5.13A5.13,5.13,0,0,1,103.39,68.17Zm.31,0a4.81,4.81,0,1,0,4.81-4.81A4.82,4.82,0,0,0,103.7,68.17Z"/><circle class="cls-26" cx="108.51" cy="88.01" r="4.97"/><path class="cls-27" d="M103.39,88a5.12,5.12,0,1,1,5.12,5.12A5.13,5.13,0,0,1,103.39,88Zm.31,0a4.81,4.81,0,1,0,4.81-4.81A4.82,4.82,0,0,0,103.7,88Z"/><path class="cls-28" d="M61.26,112.76l-.23-1H59.74l-.23,1H58.26l1.41-4.64h1.48l1.41,4.64ZM60,110.5l-.08.33h.85l-.07-.33c-.06-.21-.12-.46-.18-.72s-.11-.51-.17-.74h0c0,.23-.1.48-.15.74S60.09,110.29,60,110.5Z"/><path class="cls-28" d="M63,112.76v-4.64h1.26l1,2.07.44,1h0c0-.25-.06-.53-.1-.85a7.49,7.49,0,0,1-.05-.92v-1.34h1.16v4.64H65.51l-1-2.08-.44-1h0c0,.27.07.56.1.87a7,7,0,0,1,.06.9v1.34Z"/><path class="cls-28" d="M70.22,112.76l-.23-1h-1.3l-.23,1H67.21l1.41-4.64H70.1l1.41,4.64ZM69,110.5l-.08.33h.86l-.08-.33c-.06-.21-.12-.46-.17-.72s-.12-.51-.18-.74h0c0,.23-.1.48-.16.74S69.05,110.29,69,110.5Z"/><path class="cls-28" d="M72,112.76v-4.64h1.23v3.61h1.75v1Z"/><path class="cls-28" d="M77.4,112.84a2,2,0,0,1-1.56-.64,2.5,2.5,0,0,1-.59-1.78,2.42,2.42,0,0,1,.59-1.76,2.27,2.27,0,0,1,3.12,0,2.46,2.46,0,0,1,.59,1.76A2.55,2.55,0,0,1,79,112.2,2,2,0,0,1,77.4,112.84Zm0-1a.76.76,0,0,0,.65-.37,1.74,1.74,0,0,0,.25-1,1.65,1.65,0,0,0-.25-1,.79.79,0,0,0-1.31,0,1.73,1.73,0,0,0-.24,1,1.83,1.83,0,0,0,.24,1A.76.76,0,0,0,77.4,111.79Z"/><path class="cls-28" d="M82.52,112.84a2.66,2.66,0,0,1-1.18-.26,2,2,0,0,1-.85-.79,2.52,2.52,0,0,1-.31-1.31,2.64,2.64,0,0,1,.32-1.33,2.16,2.16,0,0,1,.84-.83,2.36,2.36,0,0,1,1.15-.28,2,2,0,0,1,.89.18,2.51,2.51,0,0,1,.62.43l-.64.79a2,2,0,0,0-.36-.25,1.09,1.09,0,0,0-.47-.1,1,1,0,0,0-.78.36,1.44,1.44,0,0,0-.32,1,1.5,1.5,0,0,0,.3,1,1.14,1.14,0,0,0,.91.35.6.6,0,0,0,.36-.09v-.64h-.68v-1h1.76v2.21a1.9,1.9,0,0,1-.66.4A2.22,2.22,0,0,1,82.52,112.84Z"/><path class="cls-28" d="M87.19,112.76l-1.37-4.64h1.3l.49,2c.06.25.12.49.17.73a7.12,7.12,0,0,0,.17.74h0c.06-.25.12-.5.17-.74s.11-.48.17-.73l.47-2H90l-1.37,4.64Z"/><path class="cls-28" d="M90.48,112.76v-4.64h1.23v4.64Z"/><path class="cls-28" d="M92.74,112.76v-4.64H94.1a2.62,2.62,0,0,1,1.72.54,2.14,2.14,0,0,1,.66,1.76,2.19,2.19,0,0,1-.65,1.78,2.44,2.44,0,0,1-1.65.56Zm1.22-1H94a1.11,1.11,0,0,0,1.2-1.35,1.25,1.25,0,0,0-.35-1.06,1.38,1.38,0,0,0-.85-.25H94Z"/><path class="cls-28" d="M97.31,112.76v-4.64h3v1H98.54v.73h1.51v1H98.54v.83h1.84v1Z"/><path class="cls-28" d="M103.23,112.84a2,2,0,0,1-1.56-.64,2.5,2.5,0,0,1-.59-1.78,2.42,2.42,0,0,1,.59-1.76,2.27,2.27,0,0,1,3.12,0,2.46,2.46,0,0,1,.59,1.76,2.55,2.55,0,0,1-.59,1.78A2,2,0,0,1,103.23,112.84Zm0-1a.76.76,0,0,0,.65-.37,1.74,1.74,0,0,0,.25-1,1.65,1.65,0,0,0-.25-1,.79.79,0,0,0-1.31,0,1.73,1.73,0,0,0-.24,1,1.83,1.83,0,0,0,.24,1A.76.76,0,0,0,103.23,111.79Z"/></svg>