<svg xmlns="http://www.w3.org/2000/svg" xmlns:xlink="http://www.w3.org/1999/xlink" viewBox="0 0 185.16 94.96"><defs><style>.cls-1{isolation:isolate;}.cls-2,.cls-3,.cls-4,.cls-5{stroke-linejoin:round;stroke-width:0.38px;}.cls-2{fill:url(#linear-gradient);stroke:url(#linear-gradient-2);}.cls-3{fill:url(#linear-gradient-3);stroke:url(#linear-gradient-4);}.cls-4{fill:url(#linear-gradient-5);stroke:url(#linear-gradient-6);}.cls-5{fill:url(#linear-gradient-7);stroke:url(#linear-gradient-8);}.cls-6{fill:url(#linear-gradient-9);}.cls-7{fill:url(#linear-gradient-10);}.cls-8{fill:url(#linear-gradient-11);}.cls-9{fill:url(#linear-gradient-12);}.cls-10{fill:url(#linear-gradient-13);}.cls-11{fill:url(#linear-gradient-14);}.cls-12{fill:url(#linear-gradient-15);}.cls-13{fill:url(#linear-gradient-16);}.cls-14{fill:url(#linear-gradient-17);}.cls-15{fill:url(#linear-gradient-18);}.cls-16{fill:url(#linear-gradient-19);}.cls-17{fill:url(#linear-gradient-20);}.cls-18{fill:url(#linear-gradient-21);}.cls-19{fill:url(#linear-gradient-22);}.cls-20{fill:url(#linear-gradient-23);}.cls-21{fill:url(#linear-gradient-24);}.cls-22{fill:url(#linear-gradient-25);}.cls-23{opacity:0.23;mix-blend-mode:difference;fill:url(#linear-gradient-26);}.cls-24{fill:url(#linear-gradient-27);}.cls-25,.cls-45{opacity:0.85;mix-blend-mode:multiply;}.cls-25{fill:url(#linear-gradient-28);}.cls-26{fill:url(#linear-gradient-29);}.cls-27{fill:url(#linear-gradient-30);}.cls-28{fill:url(#linear-gradient-31);}.cls-29{fill:url(#radial-gradient);}.cls-30{fill:url(#linear-gradient-32);}.cls-31{fill:url(#radial-gradient-2);}.cls-32{fill:url(#radial-gradient-3);}.cls-33{fill:url(#radial-gradient-4);}.cls-34{fill:url(#linear-gradient-33);}.cls-35{fill:url(#radial-gradient-5);}.cls-36{fill:url(#radial-gradient-6);}.cls-37,.cls-38{mix-blend-mode:darken;}.cls-37{fill:url(#radial-gradient-7);}.cls-38{fill:url(#radial-gradient-8);}.cls-39{fill:url(#linear-gradient-34);}.cls-40{fill:url(#linear-gradient-35);}.cls-41{fill:url(#linear-gradient-36);}.cls-42,.cls-43,.cls-44{opacity:0.4;mix-blend-mode:soft-light;}.cls-42{fill:url(#linear-gradient-37);}.cls-43{fill:url(#linear-gradient-38);}.cls-44{fill:url(#linear-gradient-39);}.cls-45{fill:url(#linear-gradient-40);}.cls-46{fill:#fff;}</style><linearGradient id="linear-gradient" x1="-180.17" y1="47.12" x2="-174.31" y2="47.12" gradientTransform="translate(101.72 -130.12) rotate(-90)" gradientUnits="userSpaceOnUse"><stop offset="0" stop-color="#1a1a1a"/><stop offset="0.09" stop-color="#2c2c2c"/><stop offset="0.15" stop-color="#333"/><stop offset="0.4" stop-color="#4d4d4d"/><stop offset="0.78" stop-color="#333"/><stop offset="1" stop-color="#1a1a1a"/></linearGradient><linearGradient id="linear-gradient-2" x1="-180.36" y1="47.12" x2="-174.12" y2="47.12" xlink:href="#linear-gradient"/><linearGradient id="linear-gradient-3" x1="-173.91" y1="46.69" x2="-149.62" y2="46.69" gradientTransform="translate(117.61 -115.07) rotate(-90)" xlink:href="#linear-gradient"/><linearGradient id="linear-gradient-4" x1="-174.1" y1="46.69" x2="-149.44" y2="46.69" gradientTransform="translate(117.61 -115.07) rotate(-90)" xlink:href="#linear-gradient"/><linearGradient id="linear-gradient-5" x1="-149.62" y1="46.47" x2="-140.91" y2="46.47" gradientTransform="translate(134.34 -98.8) rotate(-90)" xlink:href="#linear-gradient"/><linearGradient id="linear-gradient-6" x1="-149.81" y1="46.47" x2="-140.73" y2="46.47" gradientTransform="translate(134.34 -98.8) rotate(-90)" xlink:href="#linear-gradient"/><linearGradient id="linear-gradient-7" x1="-174.31" y1="47.12" x2="-171.57" y2="47.12" gradientTransform="translate(106.02 -125.82) rotate(-90)" xlink:href="#linear-gradient"/><linearGradient id="linear-gradient-8" x1="-174.49" y1="47.12" x2="-171.38" y2="47.12" gradientTransform="translate(106.02 -125.82) rotate(-90)" xlink:href="#linear-gradient"/><linearGradient id="linear-gradient-9" x1="-170.91" y1="17.41" x2="-149.91" y2="17.41" gradientTransform="translate(326.07)" gradientUnits="userSpaceOnUse"><stop offset="0" stop-color="#4d4d4d"/><stop offset="0.06" stop-color="#9e9e9e"/><stop offset="0.32" stop-color="#222"/><stop offset="0.35" stop-color="#232323"/><stop offset="0.78" stop-color="#333"/><stop offset="0.9" stop-color="#454545"/><stop offset="0.96" stop-color="#ccc"/><stop offset="0.96" stop-color="#b6b6b6"/><stop offset="0.97" stop-color="#7f7f7f"/><stop offset="0.98" stop-color="#535353"/><stop offset="0.99" stop-color="#343434"/><stop offset="1" stop-color="#212121"/><stop offset="1" stop-color="#1a1a1a"/></linearGradient><linearGradient id="linear-gradient-10" x1="-170.91" y1="12.91" x2="-149.91" y2="12.91" xlink:href="#linear-gradient-9"/><linearGradient id="linear-gradient-11" x1="-170.91" y1="26.41" x2="-149.91" y2="26.41" xlink:href="#linear-gradient-9"/><linearGradient id="linear-gradient-12" x1="-170.91" y1="21.91" x2="-149.91" y2="21.91" xlink:href="#linear-gradient-9"/><linearGradient id="linear-gradient-13" x1="-170.91" y1="35.41" x2="-149.91" y2="35.41" xlink:href="#linear-gradient-9"/><linearGradient id="linear-gradient-14" x1="-170.91" y1="30.91" x2="-149.91" y2="30.91" xlink:href="#linear-gradient-9"/><linearGradient id="linear-gradient-15" x1="-170.91" y1="44.41" x2="-149.91" y2="44.41" xlink:href="#linear-gradient-9"/><linearGradient id="linear-gradient-16" x1="-170.91" y1="39.91" x2="-149.91" y2="39.91" xlink:href="#linear-gradient-9"/><linearGradient id="linear-gradient-17" x1="-170.91" y1="53.41" x2="-149.91" y2="53.41" xlink:href="#linear-gradient-9"/><linearGradient id="linear-gradient-18" x1="-170.91" y1="48.91" x2="-149.91" y2="48.91" xlink:href="#linear-gradient-9"/><linearGradient id="linear-gradient-19" x1="-170.91" y1="62.41" x2="-149.91" y2="62.41" xlink:href="#linear-gradient-9"/><linearGradient id="linear-gradient-20" x1="-170.91" y1="57.91" x2="-149.91" y2="57.91" xlink:href="#linear-gradient-9"/><linearGradient id="linear-gradient-21" x1="-170.91" y1="71.41" x2="-149.91" y2="71.41" xlink:href="#linear-gradient-9"/><linearGradient id="linear-gradient-22" x1="-170.91" y1="66.91" x2="-149.91" y2="66.91" xlink:href="#linear-gradient-9"/><linearGradient id="linear-gradient-23" x1="-170.91" y1="80.41" x2="-149.91" y2="80.41" xlink:href="#linear-gradient-9"/><linearGradient id="linear-gradient-24" x1="-170.91" y1="75.91" x2="-149.91" y2="75.91" xlink:href="#linear-gradient-9"/><linearGradient id="linear-gradient-25" x1="-325.44" y1="47.12" x2="-179.96" y2="47.12" gradientTransform="translate(326.07)" gradientUnits="userSpaceOnUse"><stop offset="0" stop-color="#4d4d4d"/><stop offset="0.54" stop-color="#222"/><stop offset="0.65" stop-color="#2c2c2c"/><stop offset="0.78" stop-color="#333"/><stop offset="0.93" stop-color="#454545"/><stop offset="1" stop-color="#1a1a1a"/></linearGradient><linearGradient id="linear-gradient-26" x1="-253.14" y1="94.49" x2="-253.14" y2="-0.47" gradientTransform="translate(326.07)" gradientUnits="userSpaceOnUse"><stop offset="0" stop-color="#39b54a"/><stop offset="0.15" stop-color="#8cc63f"/><stop offset="0.3" stop-color="#85c540"/><stop offset="0.55" stop-color="#39b54a"/><stop offset="0.93" stop-color="#009245"/><stop offset="1" stop-color="#006837"/></linearGradient><linearGradient id="linear-gradient-27" x1="-252.18" y1="91.37" x2="-252.18" y2="2.87" gradientTransform="translate(326.07)" gradientUnits="userSpaceOnUse"><stop offset="0.06" stop-color="#1a1a1a"/><stop offset="0.29" stop-color="#353535"/><stop offset="0.51" stop-color="#4d4d4d"/><stop offset="0.87" stop-color="#1a1a1a"/></linearGradient><linearGradient id="linear-gradient-28" x1="-196.99" y1="97.83" x2="-300.27" y2="-5.45" xlink:href="#linear-gradient-26"/><linearGradient id="linear-gradient-29" x1="-313.41" y1="20.7" x2="-183.45" y2="20.7" gradientTransform="translate(326.07)" gradientUnits="userSpaceOnUse"><stop offset="0" stop-color="#393939"/><stop offset="0.47" stop-color="#181818"/><stop offset="0.87"/></linearGradient><linearGradient id="linear-gradient-30" x1="-313.41" y1="46.2" x2="-183.45" y2="46.2" xlink:href="#linear-gradient-29"/><linearGradient id="linear-gradient-31" x1="-313.41" y1="71.7" x2="-183.45" y2="71.7" xlink:href="#linear-gradient-29"/><radialGradient id="radial-gradient" cx="-195.86" cy="71.66" r="10.32" gradientTransform="translate(326.07)" gradientUnits="userSpaceOnUse"><stop offset="0" stop-color="#1a1a1a"/><stop offset="0.09" stop-color="#2c2c2c"/><stop offset="0.15" stop-color="#333"/><stop offset="0.78" stop-color="#333"/><stop offset="1" stop-color="#1a1a1a"/></radialGradient><linearGradient id="linear-gradient-32" x1="-203.6" y1="71.66" x2="-188.12" y2="71.66" gradientTransform="translate(326.07)" gradientUnits="userSpaceOnUse"><stop offset="0.14" stop-color="#b3b3b3"/><stop offset="0.38" stop-color="#999"/><stop offset="0.62" stop-color="#7e7e7e"/><stop offset="0.87" stop-color="#666"/></linearGradient><radialGradient id="radial-gradient-2" cx="-195.86" cy="71.66" r="6.36" gradientTransform="translate(326.07)" gradientUnits="userSpaceOnUse"><stop offset="0" stop-color="#1a1a1a"/><stop offset="0.38" stop-color="#2c2c2c"/><stop offset="0.65" stop-color="#333"/><stop offset="0.78" stop-color="#333"/><stop offset="1" stop-color="#1a1a1a"/></radialGradient><radialGradient id="radial-gradient-3" cx="-195.86" cy="71.66" r="6.56" xlink:href="#radial-gradient-2"/><radialGradient id="radial-gradient-4" cx="-218.36" cy="71.66" r="10.32" xlink:href="#radial-gradient"/><linearGradient id="linear-gradient-33" x1="-226.1" y1="71.66" x2="-210.62" y2="71.66" xlink:href="#linear-gradient-32"/><radialGradient id="radial-gradient-5" cx="-218.36" cy="71.66" r="6.36" xlink:href="#radial-gradient-2"/><radialGradient id="radial-gradient-6" cx="-218.36" cy="71.66" r="6.56" xlink:href="#radial-gradient-2"/><radialGradient id="radial-gradient-7" cx="-195.86" cy="71.66" r="10.32" gradientTransform="translate(326.07)" gradientUnits="userSpaceOnUse"><stop offset="0" stop-color="#39b54a"/><stop offset="0.06" stop-color="#1aa247"/><stop offset="0.11" stop-color="#079646"/><stop offset="0.15" stop-color="#009245"/><stop offset="0.78" stop-color="#22b573"/><stop offset="1" stop-color="#006837"/></radialGradient><radialGradient id="radial-gradient-8" cx="-218.36" cy="71.66" r="10.32" xlink:href="#radial-gradient-7"/><linearGradient id="linear-gradient-34" x1="-312.96" y1="19.92" x2="-183.43" y2="19.92" xlink:href="#linear-gradient-25"/><linearGradient id="linear-gradient-35" x1="-312.96" y1="45.42" x2="-183.43" y2="45.42" xlink:href="#linear-gradient-25"/><linearGradient id="linear-gradient-36" x1="-312.96" y1="70.92" x2="-228.39" y2="70.92" xlink:href="#linear-gradient-25"/><linearGradient id="linear-gradient-37" x1="-266.83" y1="-13.73" x2="-226.53" y2="56.08" xlink:href="#linear-gradient-26"/><linearGradient id="linear-gradient-38" x1="-266.83" y1="11.77" x2="-226.53" y2="81.58" xlink:href="#linear-gradient-26"/><linearGradient id="linear-gradient-39" x1="-266.83" y1="37.27" x2="-226.53" y2="107.08" xlink:href="#linear-gradient-26"/><linearGradient id="linear-gradient-40" x1="-160.14" y1="82.49" x2="-160.14" y2="10.49" xlink:href="#linear-gradient-26"/></defs><g class="cls-1"><g id="Layer_1" data-name="Layer 1"><rect class="cls-2" x="105.08" y="44.19" width="87.52" height="5.86" rx="1.04" transform="translate(195.96 -101.72) rotate(90)"/><rect class="cls-3" x="128.14" y="34.55" width="72.33" height="24.29" transform="translate(211 -117.61) rotate(90)"/><rect class="cls-4" x="142.92" y="42.11" width="75.78" height="8.71" rx="1.38" transform="translate(227.27 -134.34) rotate(90)"/><rect class="cls-5" x="115.59" y="45.75" width="75.09" height="2.74" rx="0.62" transform="translate(200.25 -106.02) rotate(90)"/><rect class="cls-6" x="155.16" y="16.45" width="21" height="1.9"/><rect class="cls-7" x="155.16" y="11.95" width="21" height="1.9"/><rect class="cls-8" x="155.16" y="25.45" width="21" height="1.9"/><rect class="cls-9" x="155.16" y="20.95" width="21" height="1.9"/><rect class="cls-10" x="155.16" y="34.45" width="21" height="1.9"/><rect class="cls-11" x="155.16" y="29.95" width="21" height="1.9"/><rect class="cls-12" x="155.16" y="43.45" width="21" height="1.9"/><rect class="cls-13" x="155.16" y="38.95" width="21" height="1.9"/><rect class="cls-14" x="155.16" y="52.45" width="21" height="1.9"/><rect class="cls-15" x="155.16" y="47.95" width="21" height="1.9"/><rect class="cls-16" x="155.16" y="61.45" width="21" height="1.9"/><rect class="cls-17" x="155.16" y="56.95" width="21" height="1.9"/><rect class="cls-18" x="155.16" y="70.45" width="21" height="1.9"/><rect class="cls-19" x="155.16" y="65.95" width="21" height="1.9"/><rect class="cls-20" x="155.16" y="79.45" width="21" height="1.9"/><rect class="cls-21" x="155.16" y="74.95" width="21" height="1.9"/><rect class="cls-22" x="0.64" y="-0.13" width="145.48" height="94.5" rx="2.9"/><rect class="cls-23" x="0.19" y="-0.47" width="145.5" height="94.96" rx="2.9"/><rect class="cls-24" x="5.16" y="2.87" width="137.46" height="88.5" rx="3.65"/><path class="cls-25" d="M15.16,8.09H142.62a0,0,0,0,1,0,0v76.2a0,0,0,0,1,0,0H15.16a7,7,0,0,1-7-7V15.09A7,7,0,0,1,15.16,8.09Z"/><path class="cls-26" d="M19.66,10.2h123a0,0,0,0,1,0,0v21a0,0,0,0,1,0,0h-123a7,7,0,0,1-7-7v-7A7,7,0,0,1,19.66,10.2Z"/><path class="cls-27" d="M19.66,35.7h123a0,0,0,0,1,0,0v21a0,0,0,0,1,0,0h-123a7,7,0,0,1-7-7v-7a7,7,0,0,1,7-7Z"/><path class="cls-28" d="M19.66,61.2h123a0,0,0,0,1,0,0v21a0,0,0,0,1,0,0h-123a7,7,0,0,1-7-7v-7A7,7,0,0,1,19.66,61.2Z"/><circle class="cls-29" cx="130.21" cy="71.66" r="10.32"/><circle class="cls-30" cx="130.21" cy="71.66" r="7.74"/><circle class="cls-31" cx="130.21" cy="71.66" r="6.36"/><path class="cls-32" d="M130.21,78.22a6.56,6.56,0,1,1,6.56-6.56A6.57,6.57,0,0,1,130.21,78.22Zm0-12.72a6.16,6.16,0,1,0,6.16,6.16A6.17,6.17,0,0,0,130.21,65.5Z"/><circle class="cls-33" cx="107.71" cy="71.66" r="10.32"/><circle class="cls-34" cx="107.71" cy="71.66" r="7.74"/><circle class="cls-35" cx="107.71" cy="71.66" r="6.36"/><path class="cls-36" d="M107.71,78.22a6.56,6.56,0,1,1,6.56-6.56A6.57,6.57,0,0,1,107.71,78.22Zm0-12.72a6.16,6.16,0,1,0,6.16,6.16A6.17,6.17,0,0,0,107.71,65.5Z"/><circle class="cls-37" cx="130.21" cy="71.66" r="10.32"/><circle class="cls-38" cx="107.71" cy="71.66" r="10.32"/><rect class="cls-39" x="13.11" y="18.96" width="129.54" height="1.9"/><rect class="cls-40" x="13.11" y="44.46" width="129.54" height="1.9"/><rect class="cls-41" x="13.11" y="69.96" width="84.58" height="1.9"/><path class="cls-42" d="M19.66,10.2h123a0,0,0,0,1,0,0v21a0,0,0,0,1,0,0h-123a7,7,0,0,1-7-7v-7A7,7,0,0,1,19.66,10.2Z"/><path class="cls-43" d="M19.66,35.7h123a0,0,0,0,1,0,0v21a0,0,0,0,1,0,0h-123a7,7,0,0,1-7-7v-7a7,7,0,0,1,7-7Z"/><path class="cls-44" d="M19.66,61.2h123a0,0,0,0,1,0,0v21a0,0,0,0,1,0,0h-123a7,7,0,0,1-7-7v-7A7,7,0,0,1,19.66,61.2Z"/><rect class="cls-45" x="154.69" y="10.49" width="22.5" height="72"/><path class="cls-46" d="M18.35,54.89V48.56H20v2.36h1.89V48.56H23.6v6.33H21.92V52.38H20v2.51Z"/><path class="cls-46" d="M26.12,54.89V52.71L24.2,48.56H26l.47,1.32c.07.24.15.48.23.7l.24.72h0l.25-.72c.08-.22.17-.46.25-.7L28,48.56H29.7l-1.91,4.15v2.18Z"/><path class="cls-46" d="M30.31,54.89V48.56h2.28a3.92,3.92,0,0,1,1.69.32A1.24,1.24,0,0,1,35,50.14a1.65,1.65,0,0,1-.22.81,1.14,1.14,0,0,1-.58.55v0A1.69,1.69,0,0,1,35,52a1.44,1.44,0,0,1,.32,1,1.53,1.53,0,0,1-.74,1.42,3.29,3.29,0,0,1-1.76.45ZM32,51h.57c.53,0,.8-.21.8-.64s-.27-.55-.8-.55H32Zm0,2.58h.69c.65,0,1-.24,1-.71s-.32-.64-1-.64H32Z"/><path class="cls-46" d="M38,54.89H36.27V48.56h2.4a4.17,4.17,0,0,1,1.26.18,1.89,1.89,0,0,1,.93.63,2,2,0,0,1,.35,1.23,2,2,0,0,1-.29,1.13,1.94,1.94,0,0,1-.74.71l1.38,2.45H39.69l-1.1-2.12H38Zm0-3.45h.61c.67,0,1-.28,1-.84a.6.6,0,0,0-.26-.56,1.39,1.39,0,0,0-.75-.16H38Z"/><path class="cls-46" d="M42.42,54.89V48.56h1.67v6.33Z"/><path class="cls-46" d="M45.5,54.89V48.56h1.87a3.61,3.61,0,0,1,2.35.73,2.92,2.92,0,0,1,.91,2.41,3,3,0,0,1-.9,2.43,3.34,3.34,0,0,1-2.26.76Zm1.67-1.34h.1a1.52,1.52,0,0,0,1.64-1.85,1.72,1.72,0,0,0-.48-1.46,1.92,1.92,0,0,0-1.16-.34h-.1Z"/><path class="cls-46" d="M53.71,54.89V48.56H56a4,4,0,0,1,1.28.19,2,2,0,0,1,.94.65,2.07,2.07,0,0,1,.35,1.26,2.17,2.17,0,0,1-.35,1.27,2,2,0,0,1-.94.72,3.22,3.22,0,0,1-1.24.24h-.69v2Zm1.67-3.33H56c.65,0,1-.3,1-.9a.65.65,0,0,0-.26-.6,1.3,1.3,0,0,0-.75-.18h-.57Z"/><path class="cls-46" d="M59.64,54.89V48.56h1.67v2.36H63.2V48.56h1.68v6.33H63.2V52.38H61.31v2.51Z"/><path class="cls-46" d="M69,55a2.75,2.75,0,0,1-2.13-.88A3.39,3.39,0,0,1,66,51.7a3.31,3.31,0,0,1,.82-2.41A2.79,2.79,0,0,1,69,48.44a2.82,2.82,0,0,1,2.13.85,3.35,3.35,0,0,1,.81,2.41,3.43,3.43,0,0,1-.81,2.43A2.78,2.78,0,0,1,69,55Zm0-1.44a1,1,0,0,0,.89-.51,2.47,2.47,0,0,0,.33-1.36,2.33,2.33,0,0,0-.33-1.34,1.07,1.07,0,0,0-1.79,0,2.33,2.33,0,0,0-.33,1.34,2.47,2.47,0,0,0,.33,1.36A1,1,0,0,0,69,53.57Z"/><path class="cls-46" d="M74,54.89V50H72.27v-1.4h5V50H75.62v4.93Z"/><path class="cls-46" d="M80.62,55a2.75,2.75,0,0,1-2.13-.88,3.39,3.39,0,0,1-.82-2.43,3.31,3.31,0,0,1,.82-2.41,2.79,2.79,0,0,1,2.13-.85,2.82,2.82,0,0,1,2.13.85,3.35,3.35,0,0,1,.81,2.41,3.43,3.43,0,0,1-.81,2.43A2.78,2.78,0,0,1,80.62,55Zm0-1.44a1,1,0,0,0,.89-.51,2.38,2.38,0,0,0,.34-1.36,2.25,2.25,0,0,0-.34-1.34,1.07,1.07,0,0,0-1.79,0,2.33,2.33,0,0,0-.33,1.34,2.47,2.47,0,0,0,.33,1.36A1,1,0,0,0,80.62,53.57Z"/><path class="cls-46" d="M18.35,69.87V63.53h1.88a3.63,3.63,0,0,1,2.35.73,2.93,2.93,0,0,1,.9,2.41,3,3,0,0,1-.89,2.44,3.4,3.4,0,0,1-2.27.76ZM20,68.52h.1a1.83,1.83,0,0,0,1.16-.37,1.81,1.81,0,0,0,.48-1.48c0-.74-.16-1.23-.48-1.45a1.94,1.94,0,0,0-1.16-.34H20Z"/><path class="cls-46" d="M24.61,69.87V63.53h4.1v1.4H26.29v1h2.07v1.4H26.29v1.13h2.52v1.41Z"/><path class="cls-46" d="M31.24,69.87V64.93H29.57v-1.4h5v1.4H32.92v4.94Z"/><path class="cls-46" d="M35.53,69.87V63.53h4.1v1.4H37.21v1h2.07v1.4H37.21v1.13h2.52v1.41Z"/><path class="cls-46" d="M43.7,70a3.15,3.15,0,0,1-1.49-.36,2.78,2.78,0,0,1-1.11-1.07,4,4,0,0,1,0-3.61,3,3,0,0,1,1.13-1.14,3,3,0,0,1,1.49-.39,2.44,2.44,0,0,1,1.13.26,3.19,3.19,0,0,1,.84.58l-.88,1.07a2.56,2.56,0,0,0-.48-.33,1.14,1.14,0,0,0-.57-.13,1.25,1.25,0,0,0-1,.48,2.07,2.07,0,0,0-.41,1.35,2.15,2.15,0,0,0,.37,1.37,1.19,1.19,0,0,0,1,.48,1.29,1.29,0,0,0,.66-.16,2.44,2.44,0,0,0,.49-.38l.88,1A2.62,2.62,0,0,1,43.7,70Z"/><path class="cls-46" d="M47.78,69.87V64.93H46.1v-1.4h5v1.4H49.46v4.94Z"/><path class="cls-46" d="M54.45,70a2.77,2.77,0,0,1-2.13-.87,3.48,3.48,0,0,1-.82-2.44,3.37,3.37,0,0,1,.82-2.41,3.09,3.09,0,0,1,4.26,0,3.36,3.36,0,0,1,.81,2.41,3.47,3.47,0,0,1-.81,2.44A2.77,2.77,0,0,1,54.45,70Zm0-1.44a1,1,0,0,0,.9-.51,2.44,2.44,0,0,0,.33-1.36,2.35,2.35,0,0,0-.33-1.34,1.1,1.1,0,0,0-1.8,0,2.35,2.35,0,0,0-.33,1.34A2.44,2.44,0,0,0,53.55,68,1,1,0,0,0,54.45,68.54Z"/><path class="cls-46" d="M60.2,69.87H58.53V63.53h2.39a3.87,3.87,0,0,1,1.26.19,1.9,1.9,0,0,1,.93.62,2,2,0,0,1,.35,1.24,2.17,2.17,0,0,1-.28,1.13,2,2,0,0,1-.75.7l1.38,2.46H61.94l-1.09-2.13H60.2Zm0-3.45h.61c.67,0,1-.28,1-.84a.62.62,0,0,0-.26-.57,1.5,1.5,0,0,0-.75-.15H60.2Z"/></g></g></svg>