<svg xmlns="http://www.w3.org/2000/svg" xmlns:xlink="http://www.w3.org/1999/xlink" viewBox="0 0 123 122.08"><defs><style>.cls-1{isolation:isolate;}.cls-10,.cls-15,.cls-2,.cls-3,.cls-31,.cls-32,.cls-33,.cls-35,.cls-36,.cls-37,.cls-4,.cls-9{stroke-linejoin:round;stroke-width:0.38px;}.cls-2{fill:url(#linear-gradient);}.cls-2,.cls-31{stroke:url(#linear-gradient-2);}.cls-3{fill:url(#linear-gradient-3);}.cls-3,.cls-32{stroke:url(#linear-gradient-4);}.cls-4{fill:url(#linear-gradient-5);}.cls-33,.cls-4{stroke:url(#linear-gradient-6);}.cls-5{fill:url(#linear-gradient-7);}.cls-6{fill:url(#linear-gradient-8);}.cls-7{fill:url(#linear-gradient-9);}.cls-8{fill:url(#linear-gradient-10);}.cls-9{fill:url(#linear-gradient-11);}.cls-35,.cls-9{stroke:url(#linear-gradient-12);}.cls-10{fill:url(#linear-gradient-13);}.cls-10,.cls-36{stroke:url(#linear-gradient-14);}.cls-11{fill:url(#radial-gradient);}.cls-12{fill:url(#radial-gradient-2);}.cls-13{fill:url(#radial-gradient-3);}.cls-14{fill:url(#radial-gradient-4);}.cls-15{fill:url(#linear-gradient-15);}.cls-15,.cls-37{stroke:url(#linear-gradient-16);}.cls-16{fill:url(#linear-gradient-17);}.cls-17{fill:url(#linear-gradient-18);}.cls-18{fill:url(#linear-gradient-19);}.cls-19{fill:url(#linear-gradient-20);}.cls-20{fill:url(#linear-gradient-21);}.cls-21{fill:url(#radial-gradient-5);}.cls-22{fill:url(#linear-gradient-22);}.cls-23{fill:url(#radial-gradient-6);}.cls-24{fill:url(#linear-gradient-23);}.cls-25{fill:url(#radial-gradient-7);}.cls-26{fill:url(#radial-gradient-8);}.cls-27{fill:url(#radial-gradient-9);}.cls-28{fill:url(#radial-gradient-10);}.cls-29{fill:#fff;}.cls-30{opacity:0.24;mix-blend-mode:color-dodge;}.cls-31,.cls-32,.cls-33,.cls-34,.cls-35,.cls-36,.cls-37{fill:#33008c;}</style><linearGradient id="linear-gradient" x1="-3062.55" y1="60.27" x2="-3057.98" y2="60.27" gradientTransform="translate(24.99 -2999.99) rotate(-90)" gradientUnits="userSpaceOnUse"><stop offset="0" stop-color="#1a1a1a"/><stop offset="0.09" stop-color="#2c2c2c"/><stop offset="0.15" stop-color="#333"/><stop offset="0.4" stop-color="#4d4d4d"/><stop offset="0.78" stop-color="#333"/><stop offset="1" stop-color="#1a1a1a"/></linearGradient><linearGradient id="linear-gradient-2" x1="-3062.74" y1="60.27" x2="-3057.79" y2="60.27" xlink:href="#linear-gradient"/><linearGradient id="linear-gradient-3" x1="-3057.98" y1="60.27" x2="-3055.84" y2="60.27" gradientTransform="translate(28.34 -2996.63) rotate(-90)" xlink:href="#linear-gradient"/><linearGradient id="linear-gradient-4" x1="-3058.16" y1="60.27" x2="-3055.65" y2="60.27" gradientTransform="translate(28.34 -2996.63) rotate(-90)" xlink:href="#linear-gradient"/><linearGradient id="linear-gradient-5" x1="-3055.84" y1="60.27" x2="-3052.79" y2="60.27" gradientTransform="translate(30.94 -2994.04) rotate(-90)" xlink:href="#linear-gradient"/><linearGradient id="linear-gradient-6" x1="-3056.03" y1="60.27" x2="-3052.6" y2="60.27" gradientTransform="translate(30.94 -2994.04) rotate(-90)" xlink:href="#linear-gradient"/><linearGradient id="linear-gradient-7" x1="-3138.9" y1="117.5" x2="-3065.52" y2="117.5" gradientTransform="translate(3145.53)" gradientUnits="userSpaceOnUse"><stop offset="0" stop-color="#1a1a1a"/><stop offset="0.15" stop-color="#4d4d4d"/><stop offset="0.58" stop-color="#1a1a1a"/><stop offset="0.78" stop-color="#333"/><stop offset="0.94" stop-color="#4d4d4d"/></linearGradient><linearGradient id="linear-gradient-8" x1="-3142.24" y1="59.51" x2="-3062.18" y2="59.51" gradientTransform="translate(3145.53)" gradientUnits="userSpaceOnUse"><stop offset="0" stop-color="#4d4d4d"/><stop offset="0.54" stop-color="#222"/><stop offset="0.65" stop-color="#2c2c2c"/><stop offset="0.78" stop-color="#333"/><stop offset="0.93" stop-color="#454545"/><stop offset="1" stop-color="#1a1a1a"/></linearGradient><linearGradient id="linear-gradient-9" x1="-3137.85" y1="2.29" x2="-3066.57" y2="2.29" xlink:href="#linear-gradient-8"/><linearGradient id="linear-gradient-10" x1="-3145.53" y1="9.16" x2="-3058.89" y2="9.16" gradientTransform="translate(3145.53)" xlink:href="#linear-gradient"/><linearGradient id="linear-gradient-11" x1="-3052.79" y1="60.27" x2="-3037.53" y2="60.27" gradientTransform="translate(40.09 -2984.88) rotate(-90)" xlink:href="#linear-gradient"/><linearGradient id="linear-gradient-12" x1="-3052.98" y1="60.27" x2="-3037.34" y2="60.27" gradientTransform="translate(40.09 -2984.88) rotate(-90)" xlink:href="#linear-gradient"/><linearGradient id="linear-gradient-13" x1="-3037.53" y1="60.27" x2="-3034.48" y2="60.27" gradientTransform="translate(49.25 -2975.73) rotate(-90)" xlink:href="#linear-gradient"/><linearGradient id="linear-gradient-14" x1="-3037.72" y1="60.27" x2="-3034.29" y2="60.27" gradientTransform="translate(49.25 -2975.73) rotate(-90)" xlink:href="#linear-gradient"/><radialGradient id="radial-gradient" cx="-3044.82" cy="88.78" r="5.77" gradientTransform="translate(3145.53)" gradientUnits="userSpaceOnUse"><stop offset="0.14" stop-color="#b3b3b3"/><stop offset="0.38" stop-color="#999"/><stop offset="0.69" stop-color="#7e7e7e"/><stop offset="1" stop-color="#666"/></radialGradient><radialGradient id="radial-gradient-2" cx="-3044.82" cy="88.78" r="4.33" gradientTransform="translate(3145.53)" gradientUnits="userSpaceOnUse"><stop offset="0.13" stop-color="#999"/><stop offset="0.38" stop-color="#7e7e7e"/><stop offset="0.63" stop-color="#666"/><stop offset="0.7" stop-color="#7a7a7a"/><stop offset="0.82" stop-color="#999"/><stop offset="0.92" stop-color="#acacac"/><stop offset="0.99" stop-color="#b3b3b3"/></radialGradient><radialGradient id="radial-gradient-3" cx="-3044.82" cy="88.78" r="3.56" gradientTransform="translate(3145.53)" gradientUnits="userSpaceOnUse"><stop offset="0.14" stop-color="#b3b3b3"/><stop offset="0.38" stop-color="#999"/><stop offset="0.62" stop-color="#7e7e7e"/><stop offset="0.87" stop-color="#666"/></radialGradient><radialGradient id="radial-gradient-4" cx="-3044.82" cy="88.78" r="3.67" xlink:href="#radial-gradient-3"/><linearGradient id="linear-gradient-15" x1="-3034.48" y1="57.06" x2="-3023.7" y2="57.06" gradientTransform="translate(3145.53)" xlink:href="#linear-gradient"/><linearGradient id="linear-gradient-16" x1="-3034.66" y1="57.06" x2="-3023.51" y2="57.06" gradientTransform="translate(3145.53)" xlink:href="#linear-gradient"/><linearGradient id="linear-gradient-17" x1="-3145.53" y1="109.61" x2="-3058.89" y2="109.61" gradientTransform="translate(3145.53)" xlink:href="#linear-gradient"/><linearGradient id="linear-gradient-18" x1="-3102.98" y1="100.39" x2="-3102.98" y2="17.99" gradientTransform="translate(3145.53)" gradientUnits="userSpaceOnUse"><stop offset="0.06" stop-color="#1a1a1a"/><stop offset="0.29" stop-color="#353535"/><stop offset="0.51" stop-color="#4d4d4d"/><stop offset="0.87" stop-color="#1a1a1a"/></linearGradient><linearGradient id="linear-gradient-19" x1="-3077.41" y1="58.11" x2="-3120.65" y2="14.87" gradientTransform="translate(3145.53)" gradientUnits="userSpaceOnUse"><stop offset="0" stop-color="#393939"/><stop offset="0.47" stop-color="#181818"/><stop offset="0.87"/></linearGradient><linearGradient id="linear-gradient-20" x1="-3077.41" y1="79.11" x2="-3120.65" y2="35.87" xlink:href="#linear-gradient-19"/><linearGradient id="linear-gradient-21" x1="-3077.41" y1="100.11" x2="-3120.65" y2="56.87" xlink:href="#linear-gradient-19"/><radialGradient id="radial-gradient-5" cx="-3131.04" cy="68.17" r="8.06" gradientTransform="translate(3145.53)" gradientUnits="userSpaceOnUse"><stop offset="0" stop-color="#1a1a1a"/><stop offset="0.09" stop-color="#2c2c2c"/><stop offset="0.15" stop-color="#333"/><stop offset="0.78" stop-color="#333"/><stop offset="1" stop-color="#1a1a1a"/></radialGradient><linearGradient id="linear-gradient-22" x1="-3137.08" y1="68.17" x2="-3125" y2="68.17" gradientTransform="translate(3145.53)" xlink:href="#radial-gradient-3"/><radialGradient id="radial-gradient-6" cx="-3131.04" cy="88.01" r="8.06" xlink:href="#radial-gradient-5"/><linearGradient id="linear-gradient-23" x1="-3137.08" y1="88.01" x2="-3125" y2="88.01" gradientTransform="translate(3145.53)" xlink:href="#radial-gradient-3"/><radialGradient id="radial-gradient-7" cx="-3131.04" cy="68.17" r="4.97" gradientTransform="translate(3145.53)" gradientUnits="userSpaceOnUse"><stop offset="0" stop-color="#1a1a1a"/><stop offset="0.38" stop-color="#2c2c2c"/><stop offset="0.65" stop-color="#333"/><stop offset="0.78" stop-color="#333"/><stop offset="1" stop-color="#1a1a1a"/></radialGradient><radialGradient id="radial-gradient-8" cx="-3131.04" cy="68.17" r="5.12" xlink:href="#radial-gradient-7"/><radialGradient id="radial-gradient-9" cx="-3131.04" cy="88.01" r="4.97" xlink:href="#radial-gradient-7"/><radialGradient id="radial-gradient-10" cx="-3131.04" cy="88.01" r="5.12" xlink:href="#radial-gradient-7"/></defs><g class="cls-1"><g id="Layer_1" data-name="Layer 1"><rect class="cls-2" x="45.24" y="57.99" width="80.04" height="4.58" transform="translate(145.54 -24.99) rotate(90)"/><rect class="cls-3" x="54.29" y="59.21" width="68.67" height="2.14" transform="translate(148.89 -28.34) rotate(90)"/><rect class="cls-4" x="59.93" y="58.75" width="62.56" height="3.05" transform="translate(151.49 -30.94) rotate(90)"/><polygon class="cls-5" points="6.63 112.92 80.01 112.92 75.93 122.08 10.7 122.08 6.63 112.92"/><rect class="cls-6" x="3.29" y="10.68" width="80.06" height="97.66"/><rect class="cls-7" x="7.68" width="71.28" height="4.58"/><rect class="cls-8" y="3.05" width="86.64" height="12.21" rx="2.47"/><rect class="cls-9" x="70.61" y="52.65" width="59.51" height="15.26" transform="translate(160.64 -40.09) rotate(90)"/><rect class="cls-10" x="78.24" y="58.75" width="62.56" height="3.05" transform="translate(169.8 -49.25) rotate(90)"/><circle class="cls-11" cx="100.7" cy="88.78" r="5.77"/><circle class="cls-12" cx="100.7" cy="88.78" r="4.33"/><circle class="cls-13" cx="100.7" cy="88.78" r="3.56"/><path class="cls-14" d="M100.7,92.44a3.67,3.67,0,1,1,3.67-3.66A3.66,3.66,0,0,1,100.7,92.44Zm0-7.11a3.45,3.45,0,1,0,3.45,3.45A3.45,3.45,0,0,0,100.7,85.33Z"/><path class="cls-15" d="M111.05,26.77l10.78-4.2q0,34.5-.1,69H111.05S111.32,26.77,111.05,26.77Z"/><rect class="cls-16" y="103.51" width="86.64" height="12.21" rx="2.47"/><rect class="cls-17" x="5.85" y="17.99" width="73.39" height="82.4" rx="3.65"/><path class="cls-18" d="M15,26H79.24a0,0,0,0,1,0,0V47a0,0,0,0,1,0,0H15a3,3,0,0,1-3-3V29a3,3,0,0,1,3-3Z"/><path class="cls-19" d="M15,47H79.24a0,0,0,0,1,0,0V68a0,0,0,0,1,0,0H15a3,3,0,0,1-3-3V50A3,3,0,0,1,15,47Z"/><path class="cls-20" d="M15,68H79.24a0,0,0,0,1,0,0V89a0,0,0,0,1,0,0H15a3,3,0,0,1-3-3V71a3,3,0,0,1,3-3Z"/><circle class="cls-21" cx="14.49" cy="68.17" r="8.06"/><circle class="cls-22" cx="14.49" cy="68.17" r="6.04"/><circle class="cls-23" cx="14.49" cy="88.01" r="8.06"/><circle class="cls-24" cx="14.49" cy="88.01" r="6.04"/><circle class="cls-25" cx="14.49" cy="68.17" r="4.97"/><path class="cls-26" d="M14.49,73.3a5.13,5.13,0,1,1,5.12-5.13A5.13,5.13,0,0,1,14.49,73.3Zm0-9.94a4.82,4.82,0,1,0,4.81,4.81A4.81,4.81,0,0,0,14.49,63.36Z"/><circle class="cls-27" cx="14.49" cy="88.01" r="4.97"/><path class="cls-28" d="M14.49,93.13A5.12,5.12,0,1,1,19.61,88,5.12,5.12,0,0,1,14.49,93.13Zm0-9.93A4.81,4.81,0,1,0,19.3,88,4.81,4.81,0,0,0,14.49,83.2Z"/><path class="cls-29" d="M22.61,112.76l-.23-1H21.09l-.23,1H19.6L21,108.12H22.5l1.41,4.64Zm-1.22-2.26-.08.33h.85l-.08-.33-.17-.72c-.06-.26-.11-.51-.17-.74h0c0,.23-.1.48-.15.74S21.44,110.29,21.39,110.5Z"/><path class="cls-29" d="M24.35,112.76v-4.64H25.6l1,2.07.44,1h0c0-.25-.06-.53-.1-.85a7.59,7.59,0,0,1-.06-.92v-1.34h1.17v4.64H26.86l-1-2.08-.44-1h0c0,.27.06.56.1.87a7,7,0,0,1,.06.9v1.34Z"/><path class="cls-29" d="M31.56,112.76l-.23-1H30l-.23,1H28.55L30,108.12h1.48l1.41,4.64Zm-1.22-2.26-.08.33h.85L31,110.5l-.17-.72c-.05-.26-.11-.51-.17-.74h0c0,.23-.1.48-.15.74S30.39,110.29,30.34,110.5Z"/><path class="cls-29" d="M33.3,112.76v-4.64h1.23v3.61h1.75v1Z"/><path class="cls-29" d="M38.75,112.84a2,2,0,0,1-1.56-.64,2.51,2.51,0,0,1-.6-1.78,2.42,2.42,0,0,1,.6-1.76,2.07,2.07,0,0,1,1.56-.62,2,2,0,0,1,1.55.62,2.42,2.42,0,0,1,.6,1.76,2.51,2.51,0,0,1-.6,1.78A2,2,0,0,1,38.75,112.84Zm0-1a.76.76,0,0,0,.65-.37,1.83,1.83,0,0,0,.24-1,1.73,1.73,0,0,0-.24-1,.79.79,0,0,0-1.31,0,1.73,1.73,0,0,0-.24,1,1.83,1.83,0,0,0,.24,1A.76.76,0,0,0,38.75,111.79Z"/><path class="cls-29" d="M43.86,112.84a2.72,2.72,0,0,1-1.18-.26,2.06,2.06,0,0,1-.84-.79,2.52,2.52,0,0,1-.32-1.31,2.55,2.55,0,0,1,.33-1.33,2.16,2.16,0,0,1,.84-.83,2.35,2.35,0,0,1,1.14-.28,2,2,0,0,1,.89.18,2.33,2.33,0,0,1,.62.43l-.64.79a1.45,1.45,0,0,0-.36-.25,1,1,0,0,0-.46-.1,1,1,0,0,0-.79.36,1.44,1.44,0,0,0-.31,1,1.56,1.56,0,0,0,.29,1,1.16,1.16,0,0,0,.92.35.64.64,0,0,0,.36-.09v-.64h-.69v-1h1.77v2.21a1.9,1.9,0,0,1-.66.4A2.27,2.27,0,0,1,43.86,112.84Z"/><path class="cls-29" d="M48.54,112.76l-1.37-4.64h1.3l.48,2a7,7,0,0,1,.17.73c.05.24.11.49.17.74h0c.07-.25.13-.5.18-.74s.1-.48.16-.73l.48-2h1.25L50,112.76Z"/><path class="cls-29" d="M51.83,112.76v-4.64h1.23v4.64Z"/><path class="cls-29" d="M54.08,112.76v-4.64h1.37a2.62,2.62,0,0,1,1.72.54,2.14,2.14,0,0,1,.66,1.76,2.19,2.19,0,0,1-.65,1.78,2.47,2.47,0,0,1-1.66.56Zm1.23-1h.07a1.35,1.35,0,0,0,.85-.27,1.33,1.33,0,0,0,.35-1.08,1.25,1.25,0,0,0-.35-1.06,1.4,1.4,0,0,0-.85-.25h-.07Z"/><path class="cls-29" d="M58.66,112.76v-4.64h3v1H59.89v.73H61.4v1H59.89v.83h1.83v1Z"/><path class="cls-29" d="M64.57,112.84A2,2,0,0,1,63,112.2a2.51,2.51,0,0,1-.6-1.78,2.42,2.42,0,0,1,.6-1.76,2.26,2.26,0,0,1,3.11,0,2.42,2.42,0,0,1,.6,1.76,2.51,2.51,0,0,1-.6,1.78A2,2,0,0,1,64.57,112.84Zm0-1a.76.76,0,0,0,.66-.37,1.83,1.83,0,0,0,.24-1,1.73,1.73,0,0,0-.24-1,.79.79,0,0,0-1.31,0,1.73,1.73,0,0,0-.24,1,1.83,1.83,0,0,0,.24,1A.76.76,0,0,0,64.57,111.79Z"/><g class="cls-30"><rect class="cls-31" x="45.24" y="57.99" width="80.04" height="4.58" transform="translate(145.54 -24.99) rotate(90)"/><rect class="cls-32" x="54.29" y="59.21" width="68.67" height="2.14" transform="translate(148.89 -28.34) rotate(90)"/><rect class="cls-33" x="59.93" y="58.75" width="62.56" height="3.05" transform="translate(151.49 -30.94) rotate(90)"/><polygon class="cls-34" points="6.63 112.92 80.01 112.92 75.93 122.08 10.7 122.08 6.63 112.92"/><rect class="cls-34" x="3.29" y="10.68" width="80.06" height="97.66"/><rect class="cls-34" x="7.68" width="71.28" height="4.58"/><rect class="cls-34" y="3.05" width="86.64" height="12.21" rx="2.47"/><rect class="cls-35" x="70.61" y="52.65" width="59.51" height="15.26" transform="translate(160.64 -40.09) rotate(90)"/><rect class="cls-36" x="78.24" y="58.75" width="62.56" height="3.05" transform="translate(169.8 -49.25) rotate(90)"/><circle class="cls-34" cx="100.7" cy="88.78" r="5.77"/><circle class="cls-34" cx="100.7" cy="88.78" r="4.33"/><circle class="cls-34" cx="100.7" cy="88.78" r="3.56"/><path class="cls-34" d="M100.7,92.44a3.67,3.67,0,1,1,3.67-3.66A3.66,3.66,0,0,1,100.7,92.44Zm0-7.11a3.45,3.45,0,1,0,3.45,3.45A3.45,3.45,0,0,0,100.7,85.33Z"/><path class="cls-37" d="M111.05,26.77l10.78-4.2q0,34.5-.1,69H111.05S111.32,26.77,111.05,26.77Z"/><rect class="cls-34" y="103.51" width="86.64" height="12.21" rx="2.47"/><rect class="cls-34" x="5.85" y="17.99" width="73.39" height="82.4" rx="3.65"/><path class="cls-34" d="M15,26H79.24a0,0,0,0,1,0,0V47a0,0,0,0,1,0,0H15a3,3,0,0,1-3-3V29a3,3,0,0,1,3-3Z"/><path class="cls-34" d="M15,47H79.24a0,0,0,0,1,0,0V68a0,0,0,0,1,0,0H15a3,3,0,0,1-3-3V50A3,3,0,0,1,15,47Z"/><path class="cls-34" d="M15,68H79.24a0,0,0,0,1,0,0V89a0,0,0,0,1,0,0H15a3,3,0,0,1-3-3V71a3,3,0,0,1,3-3Z"/><circle class="cls-34" cx="14.49" cy="68.17" r="8.06"/><circle class="cls-34" cx="14.49" cy="68.17" r="6.04"/><circle class="cls-34" cx="14.49" cy="88.01" r="8.06"/><circle class="cls-34" cx="14.49" cy="88.01" r="6.04"/><circle class="cls-34" cx="14.49" cy="68.17" r="4.97"/><path class="cls-34" d="M14.49,73.3a5.13,5.13,0,1,1,5.12-5.13A5.13,5.13,0,0,1,14.49,73.3Zm0-9.94a4.82,4.82,0,1,0,4.81,4.81A4.81,4.81,0,0,0,14.49,63.36Z"/><circle class="cls-34" cx="14.49" cy="88.01" r="4.97"/><path class="cls-34" d="M14.49,93.13A5.12,5.12,0,1,1,19.61,88,5.12,5.12,0,0,1,14.49,93.13Zm0-9.93A4.81,4.81,0,1,0,19.3,88,4.81,4.81,0,0,0,14.49,83.2Z"/></g></g></g></svg>