<svg xmlns="http://www.w3.org/2000/svg" xmlns:xlink="http://www.w3.org/1999/xlink" viewBox="0 0 185.16 94.96"><defs><style>.cls-1{isolation:isolate;}.cls-2,.cls-3,.cls-4,.cls-5{stroke-linejoin:round;stroke-width:0.38px;}.cls-2{fill:url(#linear-gradient);stroke:url(#linear-gradient-2);}.cls-3{fill:url(#linear-gradient-3);stroke:url(#linear-gradient-4);}.cls-4{fill:url(#linear-gradient-5);stroke:url(#linear-gradient-6);}.cls-5{fill:url(#linear-gradient-7);stroke:url(#linear-gradient-8);}.cls-6{fill:url(#linear-gradient-9);}.cls-7{fill:url(#linear-gradient-10);}.cls-8{fill:url(#linear-gradient-11);}.cls-9{fill:url(#linear-gradient-12);}.cls-10{fill:url(#linear-gradient-13);}.cls-11{fill:url(#linear-gradient-14);}.cls-12{fill:url(#linear-gradient-15);}.cls-13{fill:url(#linear-gradient-16);}.cls-14{fill:url(#linear-gradient-17);}.cls-15{fill:url(#linear-gradient-18);}.cls-16{fill:url(#linear-gradient-19);}.cls-17{fill:url(#linear-gradient-20);}.cls-18{fill:url(#linear-gradient-21);}.cls-19{fill:url(#linear-gradient-22);}.cls-20{fill:url(#linear-gradient-23);}.cls-21{fill:url(#linear-gradient-24);}.cls-22{fill:url(#linear-gradient-25);}.cls-23{opacity:0.23;mix-blend-mode:difference;fill:url(#linear-gradient-26);}.cls-24{fill:url(#linear-gradient-27);}.cls-25,.cls-45{opacity:0.85;mix-blend-mode:multiply;}.cls-25{fill:url(#linear-gradient-28);}.cls-26{fill:url(#linear-gradient-29);}.cls-27{fill:url(#linear-gradient-30);}.cls-28{fill:url(#linear-gradient-31);}.cls-29{fill:url(#radial-gradient);}.cls-30{fill:url(#linear-gradient-32);}.cls-31{fill:url(#radial-gradient-2);}.cls-32{fill:url(#radial-gradient-3);}.cls-33{fill:url(#radial-gradient-4);}.cls-34{fill:url(#linear-gradient-33);}.cls-35{fill:url(#radial-gradient-5);}.cls-36{fill:url(#radial-gradient-6);}.cls-37,.cls-38{mix-blend-mode:darken;}.cls-37{fill:url(#radial-gradient-7);}.cls-38{fill:url(#radial-gradient-8);}.cls-39{fill:url(#linear-gradient-34);}.cls-40{fill:url(#linear-gradient-35);}.cls-41{fill:url(#linear-gradient-36);}.cls-42,.cls-43,.cls-44{opacity:0.4;mix-blend-mode:soft-light;}.cls-42{fill:url(#linear-gradient-37);}.cls-43{fill:url(#linear-gradient-38);}.cls-44{fill:url(#linear-gradient-39);}.cls-45{fill:url(#linear-gradient-40);}.cls-46{fill:#fff;}</style><linearGradient id="linear-gradient" x1="-181.17" y1="47.33" x2="-175.31" y2="47.33" gradientTransform="translate(100.51 -130.91) rotate(-90)" gradientUnits="userSpaceOnUse"><stop offset="0" stop-color="#1a1a1a"/><stop offset="0.09" stop-color="#2c2c2c"/><stop offset="0.15" stop-color="#333"/><stop offset="0.4" stop-color="#4d4d4d"/><stop offset="0.78" stop-color="#333"/><stop offset="1" stop-color="#1a1a1a"/></linearGradient><linearGradient id="linear-gradient-2" x1="-181.36" y1="47.33" x2="-175.12" y2="47.33" xlink:href="#linear-gradient"/><linearGradient id="linear-gradient-3" x1="-174.91" y1="46.9" x2="-150.62" y2="46.9" gradientTransform="translate(116.4 -115.87) rotate(-90)" xlink:href="#linear-gradient"/><linearGradient id="linear-gradient-4" x1="-175.1" y1="46.9" x2="-150.44" y2="46.9" gradientTransform="translate(116.4 -115.87) rotate(-90)" xlink:href="#linear-gradient"/><linearGradient id="linear-gradient-5" x1="-150.62" y1="46.68" x2="-141.91" y2="46.68" gradientTransform="translate(133.13 -99.59) rotate(-90)" xlink:href="#linear-gradient"/><linearGradient id="linear-gradient-6" x1="-150.81" y1="46.68" x2="-141.73" y2="46.68" gradientTransform="translate(133.13 -99.59) rotate(-90)" xlink:href="#linear-gradient"/><linearGradient id="linear-gradient-7" x1="-175.31" y1="47.33" x2="-172.57" y2="47.33" gradientTransform="translate(104.81 -126.61) rotate(-90)" xlink:href="#linear-gradient"/><linearGradient id="linear-gradient-8" x1="-175.49" y1="47.33" x2="-172.38" y2="47.33" gradientTransform="translate(104.81 -126.61) rotate(-90)" xlink:href="#linear-gradient"/><linearGradient id="linear-gradient-9" x1="-171.91" y1="17.61" x2="-150.91" y2="17.61" gradientTransform="translate(326.07)" gradientUnits="userSpaceOnUse"><stop offset="0" stop-color="#4d4d4d"/><stop offset="0.06" stop-color="#9e9e9e"/><stop offset="0.32" stop-color="#222"/><stop offset="0.35" stop-color="#232323"/><stop offset="0.78" stop-color="#333"/><stop offset="0.9" stop-color="#454545"/><stop offset="0.96" stop-color="#ccc"/><stop offset="0.96" stop-color="#b6b6b6"/><stop offset="0.97" stop-color="#7f7f7f"/><stop offset="0.98" stop-color="#535353"/><stop offset="0.99" stop-color="#343434"/><stop offset="1" stop-color="#212121"/><stop offset="1" stop-color="#1a1a1a"/></linearGradient><linearGradient id="linear-gradient-10" x1="-171.91" y1="13.11" x2="-150.91" y2="13.11" xlink:href="#linear-gradient-9"/><linearGradient id="linear-gradient-11" x1="-171.91" y1="26.61" x2="-150.91" y2="26.61" xlink:href="#linear-gradient-9"/><linearGradient id="linear-gradient-12" x1="-171.91" y1="22.11" x2="-150.91" y2="22.11" xlink:href="#linear-gradient-9"/><linearGradient id="linear-gradient-13" x1="-171.91" y1="35.61" x2="-150.91" y2="35.61" xlink:href="#linear-gradient-9"/><linearGradient id="linear-gradient-14" x1="-171.91" y1="31.11" x2="-150.91" y2="31.11" xlink:href="#linear-gradient-9"/><linearGradient id="linear-gradient-15" x1="-171.91" y1="44.61" x2="-150.91" y2="44.61" xlink:href="#linear-gradient-9"/><linearGradient id="linear-gradient-16" x1="-171.91" y1="40.11" x2="-150.91" y2="40.11" xlink:href="#linear-gradient-9"/><linearGradient id="linear-gradient-17" x1="-171.91" y1="53.61" x2="-150.91" y2="53.61" xlink:href="#linear-gradient-9"/><linearGradient id="linear-gradient-18" x1="-171.91" y1="49.11" x2="-150.91" y2="49.11" xlink:href="#linear-gradient-9"/><linearGradient id="linear-gradient-19" x1="-171.91" y1="62.61" x2="-150.91" y2="62.61" xlink:href="#linear-gradient-9"/><linearGradient id="linear-gradient-20" x1="-171.91" y1="58.11" x2="-150.91" y2="58.11" xlink:href="#linear-gradient-9"/><linearGradient id="linear-gradient-21" x1="-171.91" y1="71.61" x2="-150.91" y2="71.61" xlink:href="#linear-gradient-9"/><linearGradient id="linear-gradient-22" x1="-171.91" y1="67.11" x2="-150.91" y2="67.11" xlink:href="#linear-gradient-9"/><linearGradient id="linear-gradient-23" x1="-171.91" y1="80.61" x2="-150.91" y2="80.61" xlink:href="#linear-gradient-9"/><linearGradient id="linear-gradient-24" x1="-171.91" y1="76.11" x2="-150.91" y2="76.11" xlink:href="#linear-gradient-9"/><linearGradient id="linear-gradient-25" x1="-326.44" y1="47.33" x2="-180.96" y2="47.33" gradientTransform="translate(326.07)" gradientUnits="userSpaceOnUse"><stop offset="0" stop-color="#4d4d4d"/><stop offset="0.54" stop-color="#222"/><stop offset="0.65" stop-color="#2c2c2c"/><stop offset="0.78" stop-color="#333"/><stop offset="0.93" stop-color="#454545"/><stop offset="1" stop-color="#1a1a1a"/></linearGradient><linearGradient id="linear-gradient-26" x1="-254.14" y1="94.69" x2="-254.14" y2="-0.26" gradientTransform="translate(326.07)" gradientUnits="userSpaceOnUse"><stop offset="0" stop-color="#39b54a"/><stop offset="0.15" stop-color="#8cc63f"/><stop offset="0.3" stop-color="#85c540"/><stop offset="0.55" stop-color="#39b54a"/><stop offset="0.93" stop-color="#009245"/><stop offset="1" stop-color="#006837"/></linearGradient><linearGradient id="linear-gradient-27" x1="-253.18" y1="91.58" x2="-253.18" y2="3.08" gradientTransform="translate(326.07)" gradientUnits="userSpaceOnUse"><stop offset="0.06" stop-color="#1a1a1a"/><stop offset="0.29" stop-color="#353535"/><stop offset="0.51" stop-color="#4d4d4d"/><stop offset="0.87" stop-color="#1a1a1a"/></linearGradient><linearGradient id="linear-gradient-28" x1="-197.99" y1="98.04" x2="-301.27" y2="-5.24" xlink:href="#linear-gradient-26"/><linearGradient id="linear-gradient-29" x1="-314.41" y1="20.91" x2="-184.45" y2="20.91" gradientTransform="translate(326.07)" gradientUnits="userSpaceOnUse"><stop offset="0" stop-color="#393939"/><stop offset="0.47" stop-color="#181818"/><stop offset="0.87"/></linearGradient><linearGradient id="linear-gradient-30" x1="-314.41" y1="46.41" x2="-184.45" y2="46.41" xlink:href="#linear-gradient-29"/><linearGradient id="linear-gradient-31" x1="-314.41" y1="71.91" x2="-184.45" y2="71.91" xlink:href="#linear-gradient-29"/><radialGradient id="radial-gradient" cx="-196.86" cy="71.87" r="10.32" gradientTransform="translate(326.07)" gradientUnits="userSpaceOnUse"><stop offset="0" stop-color="#1a1a1a"/><stop offset="0.09" stop-color="#2c2c2c"/><stop offset="0.15" stop-color="#333"/><stop offset="0.78" stop-color="#333"/><stop offset="1" stop-color="#1a1a1a"/></radialGradient><linearGradient id="linear-gradient-32" x1="-204.6" y1="71.87" x2="-189.12" y2="71.87" gradientTransform="translate(326.07)" gradientUnits="userSpaceOnUse"><stop offset="0.14" stop-color="#b3b3b3"/><stop offset="0.38" stop-color="#999"/><stop offset="0.62" stop-color="#7e7e7e"/><stop offset="0.87" stop-color="#666"/></linearGradient><radialGradient id="radial-gradient-2" cx="-196.86" cy="71.87" r="6.36" gradientTransform="translate(326.07)" gradientUnits="userSpaceOnUse"><stop offset="0" stop-color="#1a1a1a"/><stop offset="0.38" stop-color="#2c2c2c"/><stop offset="0.65" stop-color="#333"/><stop offset="0.78" stop-color="#333"/><stop offset="1" stop-color="#1a1a1a"/></radialGradient><radialGradient id="radial-gradient-3" cx="-196.86" cy="71.87" r="6.56" xlink:href="#radial-gradient-2"/><radialGradient id="radial-gradient-4" cx="-219.36" cy="71.87" r="10.32" xlink:href="#radial-gradient"/><linearGradient id="linear-gradient-33" x1="-227.1" y1="71.87" x2="-211.62" y2="71.87" xlink:href="#linear-gradient-32"/><radialGradient id="radial-gradient-5" cx="-219.36" cy="71.87" r="6.36" xlink:href="#radial-gradient-2"/><radialGradient id="radial-gradient-6" cx="-219.36" cy="71.87" r="6.56" xlink:href="#radial-gradient-2"/><radialGradient id="radial-gradient-7" cx="-196.86" cy="71.87" r="10.32" gradientTransform="translate(326.07)" gradientUnits="userSpaceOnUse"><stop offset="0" stop-color="#39b54a"/><stop offset="0.06" stop-color="#1aa247"/><stop offset="0.11" stop-color="#079646"/><stop offset="0.15" stop-color="#009245"/><stop offset="0.78" stop-color="#22b573"/><stop offset="1" stop-color="#006837"/></radialGradient><radialGradient id="radial-gradient-8" cx="-219.36" cy="71.87" r="10.32" xlink:href="#radial-gradient-7"/><linearGradient id="linear-gradient-34" x1="-313.96" y1="20.12" x2="-184.43" y2="20.12" xlink:href="#linear-gradient-25"/><linearGradient id="linear-gradient-35" x1="-313.96" y1="45.62" x2="-184.43" y2="45.62" xlink:href="#linear-gradient-25"/><linearGradient id="linear-gradient-36" x1="-313.96" y1="71.12" x2="-229.39" y2="71.12" xlink:href="#linear-gradient-25"/><linearGradient id="linear-gradient-37" x1="-267.83" y1="-13.52" x2="-227.53" y2="56.29" xlink:href="#linear-gradient-26"/><linearGradient id="linear-gradient-38" x1="-267.83" y1="11.98" x2="-227.53" y2="81.79" xlink:href="#linear-gradient-26"/><linearGradient id="linear-gradient-39" x1="-267.83" y1="37.48" x2="-227.53" y2="107.29" xlink:href="#linear-gradient-26"/><linearGradient id="linear-gradient-40" x1="-161.14" y1="82.69" x2="-161.14" y2="10.69" xlink:href="#linear-gradient-26"/></defs><g class="cls-1"><g id="Layer_1" data-name="Layer 1"><rect class="cls-2" x="104.08" y="44.4" width="87.52" height="5.86" rx="1.04" transform="translate(195.16 -100.51) rotate(90)"/><rect class="cls-3" x="127.14" y="34.76" width="72.33" height="24.29" transform="translate(210.21 -116.4) rotate(90)"/><rect class="cls-4" x="141.92" y="42.32" width="75.78" height="8.71" rx="1.38" transform="translate(226.48 -133.13) rotate(90)"/><rect class="cls-5" x="114.59" y="45.96" width="75.09" height="2.74" rx="0.62" transform="translate(199.46 -104.81) rotate(90)"/><rect class="cls-6" x="154.16" y="16.66" width="21" height="1.9"/><rect class="cls-7" x="154.16" y="12.16" width="21" height="1.9"/><rect class="cls-8" x="154.16" y="25.66" width="21" height="1.9"/><rect class="cls-9" x="154.16" y="21.16" width="21" height="1.9"/><rect class="cls-10" x="154.16" y="34.66" width="21" height="1.9"/><rect class="cls-11" x="154.16" y="30.16" width="21" height="1.9"/><rect class="cls-12" x="154.16" y="43.66" width="21" height="1.9"/><rect class="cls-13" x="154.16" y="39.16" width="21" height="1.9"/><rect class="cls-14" x="154.16" y="52.66" width="21" height="1.9"/><rect class="cls-15" x="154.16" y="48.16" width="21" height="1.9"/><rect class="cls-16" x="154.16" y="61.66" width="21" height="1.9"/><rect class="cls-17" x="154.16" y="57.16" width="21" height="1.9"/><rect class="cls-18" x="154.16" y="70.66" width="21" height="1.9"/><rect class="cls-19" x="154.16" y="66.16" width="21" height="1.9"/><rect class="cls-20" x="154.16" y="79.66" width="21" height="1.9"/><rect class="cls-21" x="154.16" y="75.16" width="21" height="1.9"/><rect class="cls-22" x="-0.36" y="0.08" width="145.48" height="94.5" rx="2.9"/><rect class="cls-23" x="-0.81" y="-0.26" width="145.5" height="94.96" rx="2.9"/><rect class="cls-24" x="4.16" y="3.08" width="137.46" height="88.5" rx="3.65"/><path class="cls-25" d="M14.16,8.3H141.62a0,0,0,0,1,0,0V84.5a0,0,0,0,1,0,0H14.16a7,7,0,0,1-7-7V15.3a7,7,0,0,1,7-7Z"/><path class="cls-26" d="M18.66,10.41h123a0,0,0,0,1,0,0v21a0,0,0,0,1,0,0h-123a7,7,0,0,1-7-7v-7a7,7,0,0,1,7-7Z"/><path class="cls-27" d="M18.66,35.91h123a0,0,0,0,1,0,0v21a0,0,0,0,1,0,0h-123a7,7,0,0,1-7-7v-7a7,7,0,0,1,7-7Z"/><path class="cls-28" d="M18.66,61.41h123a0,0,0,0,1,0,0v21a0,0,0,0,1,0,0h-123a7,7,0,0,1-7-7v-7a7,7,0,0,1,7-7Z"/><circle class="cls-29" cx="129.21" cy="71.87" r="10.32"/><circle class="cls-30" cx="129.21" cy="71.87" r="7.74"/><circle class="cls-31" cx="129.21" cy="71.87" r="6.36"/><path class="cls-32" d="M129.21,78.43a6.56,6.56,0,1,1,6.56-6.56A6.57,6.57,0,0,1,129.21,78.43Zm0-12.72a6.16,6.16,0,1,0,6.16,6.16A6.16,6.16,0,0,0,129.21,65.71Z"/><circle class="cls-33" cx="106.71" cy="71.87" r="10.32"/><circle class="cls-34" cx="106.71" cy="71.87" r="7.74"/><circle class="cls-35" cx="106.71" cy="71.87" r="6.36"/><path class="cls-36" d="M106.71,78.43a6.56,6.56,0,1,1,6.56-6.56A6.57,6.57,0,0,1,106.71,78.43Zm0-12.72a6.16,6.16,0,1,0,6.16,6.16A6.16,6.16,0,0,0,106.71,65.71Z"/><circle class="cls-37" cx="129.21" cy="71.87" r="10.32"/><circle class="cls-38" cx="106.71" cy="71.87" r="10.32"/><rect class="cls-39" x="12.11" y="19.17" width="129.54" height="1.9"/><rect class="cls-40" x="12.11" y="44.67" width="129.54" height="1.9"/><rect class="cls-41" x="12.11" y="70.17" width="84.58" height="1.9"/><path class="cls-42" d="M18.66,10.41h123a0,0,0,0,1,0,0v21a0,0,0,0,1,0,0h-123a7,7,0,0,1-7-7v-7a7,7,0,0,1,7-7Z"/><path class="cls-43" d="M18.66,35.91h123a0,0,0,0,1,0,0v21a0,0,0,0,1,0,0h-123a7,7,0,0,1-7-7v-7a7,7,0,0,1,7-7Z"/><path class="cls-44" d="M18.66,61.41h123a0,0,0,0,1,0,0v21a0,0,0,0,1,0,0h-123a7,7,0,0,1-7-7v-7a7,7,0,0,1,7-7Z"/><rect class="cls-45" x="153.69" y="10.69" width="22.5" height="72"/><path class="cls-46" d="M16.77,54.1V47.76h2.32a4,4,0,0,1,1.27.2,1.93,1.93,0,0,1,.94.65,2,2,0,0,1,.36,1.26,2,2,0,0,1-1.29,2,3.22,3.22,0,0,1-1.24.23h-.69v2Zm1.67-3.33h.61c.65,0,1-.3,1-.9a.64.64,0,0,0-.26-.6,1.34,1.34,0,0,0-.75-.18h-.57Z"/><path class="cls-46" d="M22.69,54.1V47.76h1.68v2.36h1.89V47.76h1.68V54.1H26.26V51.59H24.37V54.1Z"/><path class="cls-46" d="M32,54.22a2.78,2.78,0,0,1-2.13-.88,3.46,3.46,0,0,1-.81-2.44,3.32,3.32,0,0,1,.81-2.4,3.11,3.11,0,0,1,4.27,0A3.32,3.32,0,0,1,35,50.9a3.46,3.46,0,0,1-.81,2.44A2.78,2.78,0,0,1,32,54.22Zm0-1.44a1,1,0,0,0,.9-.51,2.48,2.48,0,0,0,.33-1.37,2.31,2.31,0,0,0-.33-1.33,1.07,1.07,0,0,0-1.79,0,2.31,2.31,0,0,0-.33,1.33,2.48,2.48,0,0,0,.33,1.37A1,1,0,0,0,32,52.78Z"/><path class="cls-46" d="M37,54.1V49.17H35.33V47.76h5v1.41H38.68V54.1Z"/><path class="cls-46" d="M43.68,54.22a2.75,2.75,0,0,1-2.13-.88,3.41,3.41,0,0,1-.82-2.44,3.28,3.28,0,0,1,.82-2.4,2.79,2.79,0,0,1,2.13-.85,2.82,2.82,0,0,1,2.13.85,3.32,3.32,0,0,1,.81,2.4,3.46,3.46,0,0,1-.81,2.44A2.78,2.78,0,0,1,43.68,54.22Zm0-1.44a1,1,0,0,0,.89-.51,2.48,2.48,0,0,0,.33-1.37,2.31,2.31,0,0,0-.33-1.33,1.07,1.07,0,0,0-1.79,0,2.31,2.31,0,0,0-.33,1.33,2.48,2.48,0,0,0,.33,1.37A1,1,0,0,0,43.68,52.78Z"/><path class="cls-46" d="M47.48,52.21V51h2.46v1.17Z"/><path class="cls-46" d="M51.07,54.1V47.76h1.79l1,2.6c.06.17.11.36.16.55s.11.38.17.56h0c.06-.18.11-.37.16-.56s.11-.38.17-.55l.92-2.6h1.79V54.1H55.71V52.23a8.41,8.41,0,0,1,.08-1.14c.05-.43.09-.8.13-1.12h0l-.52,1.52-.78,2.1h-.9l-.78-2.1L52.39,50h0c0,.32.09.69.14,1.12a10.44,10.44,0,0,1,.08,1.14V54.1Z"/><path class="cls-46" d="M61.23,54.22a2.42,2.42,0,0,1-2-.78,3.66,3.66,0,0,1-.66-2.4V47.76h1.68v3.48a2.3,2.3,0,0,0,.23,1.19.81.81,0,0,0,.73.35.83.83,0,0,0,.73-.35,2.18,2.18,0,0,0,.24-1.19V47.76h1.62V51a3.78,3.78,0,0,1-.63,2.4A2.39,2.39,0,0,1,61.23,54.22Z"/><path class="cls-46" d="M65.18,54.1V47.76h1.68V52.7h2.4v1.4Z"/><path class="cls-46" d="M70.39,54.1V49.17H68.71V47.76h5v1.41H72.07V54.1Z"/><path class="cls-46" d="M74.68,54.1V47.76h1.68V54.1Z"/><path class="cls-46" d="M77.76,54.1V47.76h2.32a4,4,0,0,1,1.28.2,2,2,0,0,1,.94.65,2,2,0,0,1,.36,1.26,2.1,2.1,0,0,1-.36,1.27,2.18,2.18,0,0,1-.94.72,3.18,3.18,0,0,1-1.24.23h-.68v2Zm1.68-3.33H80c.65,0,1-.3,1-.9a.65.65,0,0,0-.27-.6,1.3,1.3,0,0,0-.75-.18h-.56Z"/><path class="cls-46" d="M83.69,54.1V47.76h1.68V52.7h2.39v1.4Z"/><path class="cls-46" d="M88.86,54.1V47.76h1.67V54.1Z"/><path class="cls-46" d="M91.94,54.1V47.76H96v1.41H93.62v1h2.06v1.41H93.62V52.7h2.51v1.4Z"/><path class="cls-46" d="M99,54.1H97.36V47.76h2.4A4.26,4.26,0,0,1,101,48a1.82,1.82,0,0,1,.92.63,1.9,1.9,0,0,1,.35,1.23,2.06,2.06,0,0,1-.28,1.13,2,2,0,0,1-.74.7l1.37,2.46h-1.87L99.68,52H99Zm0-3.45h.6c.68,0,1-.28,1-.84a.6.6,0,0,0-.25-.56,1.46,1.46,0,0,0-.76-.16H99Z"/><path class="cls-46" d="M18,70.08V65.14H16.3v-1.4h5v1.4H19.65v4.94Z"/><path class="cls-46" d="M24.86,70.19a2.44,2.44,0,0,1-2-.78,3.66,3.66,0,0,1-.65-2.4V63.74H23.9v3.47a2.3,2.3,0,0,0,.23,1.19.83.83,0,0,0,.73.35.82.82,0,0,0,.73-.35,2.18,2.18,0,0,0,.24-1.19V63.74h1.62V67a3.78,3.78,0,0,1-.63,2.4A2.38,2.38,0,0,1,24.86,70.19Z"/><path class="cls-46" d="M28.82,70.08V63.74H31.1a4.08,4.08,0,0,1,1.69.32,1.24,1.24,0,0,1,.71,1.26,1.65,1.65,0,0,1-.22.81,1.14,1.14,0,0,1-.58.55v0a1.69,1.69,0,0,1,.77.5,1.44,1.44,0,0,1,.32,1,1.56,1.56,0,0,1-.74,1.43,3.29,3.29,0,0,1-1.76.45Zm1.67-3.87h.57c.53,0,.8-.21.8-.64s-.27-.54-.8-.54h-.57Zm0,2.58h.69c.65,0,1-.24,1-.7s-.32-.65-1-.65h-.69Z"/><path class="cls-46" d="M34.78,70.08V63.74h4.1v1.4H36.46v1h2.07v1.4H36.46v1.13H39v1.41Z"/></g></g></svg>