<svg xmlns="http://www.w3.org/2000/svg" xmlns:xlink="http://www.w3.org/1999/xlink" width="185.16" height="94.96" viewBox="0 0 185.16 94.96"><defs><style>.cls-1{isolation:isolate;}.cls-2,.cls-3,.cls-4,.cls-5{stroke-linejoin:round;stroke-width:0.38px;}.cls-2{fill:url(#linear-gradient);stroke:url(#linear-gradient-2);}.cls-3{fill:url(#linear-gradient-3);stroke:url(#linear-gradient-4);}.cls-4{fill:url(#linear-gradient-5);stroke:url(#linear-gradient-6);}.cls-5{fill:url(#linear-gradient-7);stroke:url(#linear-gradient-8);}.cls-6{fill:url(#linear-gradient-9);}.cls-7{fill:url(#linear-gradient-10);}.cls-8{fill:url(#linear-gradient-11);}.cls-9{fill:url(#linear-gradient-12);}.cls-10{fill:url(#linear-gradient-13);}.cls-11{fill:url(#linear-gradient-14);}.cls-12{fill:url(#linear-gradient-15);}.cls-13{fill:url(#linear-gradient-16);}.cls-14{fill:url(#linear-gradient-17);}.cls-15{fill:url(#linear-gradient-18);}.cls-16{fill:url(#linear-gradient-19);}.cls-17{fill:url(#linear-gradient-20);}.cls-18{fill:url(#linear-gradient-21);}.cls-19{fill:url(#linear-gradient-22);}.cls-20{fill:url(#linear-gradient-23);}.cls-21{fill:url(#linear-gradient-24);}.cls-22{fill:url(#linear-gradient-25);}.cls-23{opacity:0.23;mix-blend-mode:difference;fill:url(#linear-gradient-26);}.cls-24{fill:url(#linear-gradient-27);}.cls-25,.cls-45{opacity:0.85;mix-blend-mode:multiply;}.cls-25{fill:url(#linear-gradient-28);}.cls-26{fill:url(#linear-gradient-29);}.cls-27{fill:url(#linear-gradient-30);}.cls-28{fill:url(#linear-gradient-31);}.cls-29{fill:url(#radial-gradient);}.cls-30{fill:url(#linear-gradient-32);}.cls-31{fill:url(#radial-gradient-2);}.cls-32{fill:url(#radial-gradient-3);}.cls-33{fill:url(#radial-gradient-4);}.cls-34{fill:url(#linear-gradient-33);}.cls-35{fill:url(#radial-gradient-5);}.cls-36{fill:url(#radial-gradient-6);}.cls-37,.cls-38{mix-blend-mode:darken;}.cls-37{fill:url(#radial-gradient-7);}.cls-38{fill:url(#radial-gradient-8);}.cls-39{fill:url(#linear-gradient-34);}.cls-40{fill:url(#linear-gradient-35);}.cls-41{fill:url(#linear-gradient-36);}.cls-42,.cls-43,.cls-44{opacity:0.4;mix-blend-mode:soft-light;}.cls-42{fill:url(#linear-gradient-37);}.cls-43{fill:url(#linear-gradient-38);}.cls-44{fill:url(#linear-gradient-39);}.cls-45{fill:url(#linear-gradient-40);}.cls-46{fill:#fff;}</style><linearGradient id="linear-gradient" x1="-616.57" y1="47.59" x2="-610.7" y2="47.59" gradientTransform="matrix(0, 1, 1, 0, -11.08, 661.23)" gradientUnits="userSpaceOnUse"><stop offset="0" stop-color="#1a1a1a"/><stop offset="0.09" stop-color="#2c2c2c"/><stop offset="0.15" stop-color="#333"/><stop offset="0.4" stop-color="#4d4d4d"/><stop offset="0.78" stop-color="#333"/><stop offset="1" stop-color="#1a1a1a"/></linearGradient><linearGradient id="linear-gradient-2" x1="-616.75" y1="47.59" x2="-610.52" y2="47.59" xlink:href="#linear-gradient"/><linearGradient id="linear-gradient-3" x1="-610.31" y1="47.17" x2="-586.02" y2="47.17" gradientTransform="matrix(0, 1, 1, 0, -26.12, 645.33)" xlink:href="#linear-gradient"/><linearGradient id="linear-gradient-4" x1="-610.5" y1="47.17" x2="-585.83" y2="47.17" gradientTransform="matrix(0, 1, 1, 0, -26.12, 645.33)" xlink:href="#linear-gradient"/><linearGradient id="linear-gradient-5" x1="-586.02" y1="46.94" x2="-577.31" y2="46.94" gradientTransform="matrix(0, 1, 1, 0, -42.4, 628.61)" xlink:href="#linear-gradient"/><linearGradient id="linear-gradient-6" x1="-586.21" y1="46.94" x2="-577.13" y2="46.94" gradientTransform="matrix(0, 1, 1, 0, -42.4, 628.61)" xlink:href="#linear-gradient"/><linearGradient id="linear-gradient-7" x1="-610.7" y1="47.59" x2="-607.97" y2="47.59" gradientTransform="matrix(0, 1, 1, 0, -15.38, 656.93)" xlink:href="#linear-gradient"/><linearGradient id="linear-gradient-8" x1="-610.89" y1="47.59" x2="-607.78" y2="47.59" gradientTransform="matrix(0, 1, 1, 0, -15.38, 656.93)" xlink:href="#linear-gradient"/><linearGradient id="linear-gradient-9" x1="-607.31" y1="17.88" x2="-586.31" y2="17.88" gradientTransform="matrix(1, 0, 0, -1, 616.5, 35.75)" gradientUnits="userSpaceOnUse"><stop offset="0" stop-color="#4d4d4d"/><stop offset="0.06" stop-color="#9e9e9e"/><stop offset="0.32" stop-color="#222"/><stop offset="0.35" stop-color="#232323"/><stop offset="0.78" stop-color="#333"/><stop offset="0.9" stop-color="#454545"/><stop offset="0.96" stop-color="#ccc"/><stop offset="0.96" stop-color="#b6b6b6"/><stop offset="0.97" stop-color="#7f7f7f"/><stop offset="0.98" stop-color="#535353"/><stop offset="0.99" stop-color="#343434"/><stop offset="1" stop-color="#212121"/><stop offset="1" stop-color="#1a1a1a"/></linearGradient><linearGradient id="linear-gradient-10" x1="-607.31" y1="13.38" x2="-586.31" y2="13.38" gradientTransform="matrix(1, 0, 0, -1, 616.5, 26.75)" xlink:href="#linear-gradient-9"/><linearGradient id="linear-gradient-11" x1="-607.31" y1="26.88" x2="-586.31" y2="26.88" gradientTransform="matrix(1, 0, 0, -1, 616.5, 53.75)" xlink:href="#linear-gradient-9"/><linearGradient id="linear-gradient-12" x1="-607.31" y1="22.38" x2="-586.31" y2="22.38" gradientTransform="matrix(1, 0, 0, -1, 616.5, 44.75)" xlink:href="#linear-gradient-9"/><linearGradient id="linear-gradient-13" x1="-607.31" y1="35.88" x2="-586.31" y2="35.88" gradientTransform="matrix(1, 0, 0, -1, 616.5, 71.75)" xlink:href="#linear-gradient-9"/><linearGradient id="linear-gradient-14" x1="-607.31" y1="31.38" x2="-586.31" y2="31.38" gradientTransform="matrix(1, 0, 0, -1, 616.5, 62.75)" xlink:href="#linear-gradient-9"/><linearGradient id="linear-gradient-15" x1="-607.31" y1="44.88" x2="-586.31" y2="44.88" gradientTransform="matrix(1, 0, 0, -1, 616.5, 89.75)" xlink:href="#linear-gradient-9"/><linearGradient id="linear-gradient-16" x1="-607.31" y1="40.38" x2="-586.31" y2="40.38" gradientTransform="matrix(1, 0, 0, -1, 616.5, 80.75)" xlink:href="#linear-gradient-9"/><linearGradient id="linear-gradient-17" x1="-607.31" y1="53.88" x2="-586.31" y2="53.88" gradientTransform="matrix(1, 0, 0, -1, 616.5, 107.75)" xlink:href="#linear-gradient-9"/><linearGradient id="linear-gradient-18" x1="-607.31" y1="49.38" x2="-586.31" y2="49.38" gradientTransform="matrix(1, 0, 0, -1, 616.5, 98.75)" xlink:href="#linear-gradient-9"/><linearGradient id="linear-gradient-19" x1="-607.31" y1="62.88" x2="-586.31" y2="62.88" gradientTransform="matrix(1, 0, 0, -1, 616.5, 125.75)" xlink:href="#linear-gradient-9"/><linearGradient id="linear-gradient-20" x1="-607.31" y1="58.38" x2="-586.31" y2="58.38" gradientTransform="matrix(1, 0, 0, -1, 616.5, 116.75)" xlink:href="#linear-gradient-9"/><linearGradient id="linear-gradient-21" x1="-607.31" y1="71.88" x2="-586.31" y2="71.88" gradientTransform="matrix(1, 0, 0, -1, 616.5, 143.75)" xlink:href="#linear-gradient-9"/><linearGradient id="linear-gradient-22" x1="-607.31" y1="67.38" x2="-586.31" y2="67.38" gradientTransform="matrix(1, 0, 0, -1, 616.5, 134.75)" xlink:href="#linear-gradient-9"/><linearGradient id="linear-gradient-23" x1="-607.31" y1="80.88" x2="-586.31" y2="80.88" gradientTransform="matrix(1, 0, 0, -1, 616.5, 161.75)" xlink:href="#linear-gradient-9"/><linearGradient id="linear-gradient-24" x1="-607.31" y1="76.38" x2="-586.31" y2="76.38" gradientTransform="matrix(1, 0, 0, -1, 616.5, 152.75)" xlink:href="#linear-gradient-9"/><linearGradient id="linear-gradient-25" x1="-761.83" y1="47.59" x2="-616.36" y2="47.59" gradientTransform="matrix(1, 0, 0, -1, 801.06, 95.18)" gradientUnits="userSpaceOnUse"><stop offset="0" stop-color="#4d4d4d"/><stop offset="0.54" stop-color="#222"/><stop offset="0.65" stop-color="#2c2c2c"/><stop offset="0.78" stop-color="#333"/><stop offset="0.93" stop-color="#454545"/><stop offset="1" stop-color="#1a1a1a"/></linearGradient><linearGradient id="linear-gradient-26" x1="-689.54" y1="94.96" x2="-689.54" gradientTransform="matrix(1, 0, 0, -1, 801.95, 94.96)" gradientUnits="userSpaceOnUse"><stop offset="0" stop-color="#39b54a"/><stop offset="0.15" stop-color="#8cc63f"/><stop offset="0.3" stop-color="#85c540"/><stop offset="0.55" stop-color="#39b54a"/><stop offset="0.93" stop-color="#009245"/><stop offset="1" stop-color="#006837"/></linearGradient><linearGradient id="linear-gradient-27" x1="-688.58" y1="91.84" x2="-688.58" y2="3.34" gradientTransform="matrix(1, 0, 0, -1, 800.04, 95.18)" gradientUnits="userSpaceOnUse"><stop offset="0.06" stop-color="#1a1a1a"/><stop offset="0.29" stop-color="#353535"/><stop offset="0.51" stop-color="#4d4d4d"/><stop offset="0.87" stop-color="#1a1a1a"/></linearGradient><linearGradient id="linear-gradient-28" x1="-633.39" y1="98.31" x2="-736.67" y2="-4.98" gradientTransform="matrix(1, 0, 0, -1, 797.04, 93.33)" xlink:href="#linear-gradient-26"/><linearGradient id="linear-gradient-29" x1="-749.81" y1="21.18" x2="-619.85" y2="21.18" gradientTransform="matrix(1, 0, 0, -1, 792.54, 42.35)" gradientUnits="userSpaceOnUse"><stop offset="0" stop-color="#393939"/><stop offset="0.47" stop-color="#181818"/><stop offset="0.87"/></linearGradient><linearGradient id="linear-gradient-30" x1="-749.81" y1="46.68" x2="-619.85" y2="46.68" gradientTransform="matrix(1, 0, 0, -1, 792.54, 93.35)" xlink:href="#linear-gradient-29"/><linearGradient id="linear-gradient-31" x1="-749.81" y1="72.18" x2="-619.85" y2="72.18" gradientTransform="matrix(1, 0, 0, -1, 792.54, 144.35)" xlink:href="#linear-gradient-29"/><radialGradient id="radial-gradient" cx="-632.26" cy="72.13" r="10.32" gradientTransform="matrix(-1, 0, 0, 1, -577.13, 0)" gradientUnits="userSpaceOnUse"><stop offset="0" stop-color="#1a1a1a"/><stop offset="0.09" stop-color="#2c2c2c"/><stop offset="0.15" stop-color="#333"/><stop offset="0.78" stop-color="#333"/><stop offset="1" stop-color="#1a1a1a"/></radialGradient><linearGradient id="linear-gradient-32" x1="-640" y1="72.13" x2="-624.52" y2="72.13" gradientTransform="matrix(-1, 0, 0, 1, -577.13, 0)" gradientUnits="userSpaceOnUse"><stop offset="0.14" stop-color="#b3b3b3"/><stop offset="0.38" stop-color="#999"/><stop offset="0.62" stop-color="#7e7e7e"/><stop offset="0.87" stop-color="#666"/></linearGradient><radialGradient id="radial-gradient-2" cx="-632.26" cy="72.13" r="6.36" gradientTransform="matrix(-1, 0, 0, 1, -577.13, 0)" gradientUnits="userSpaceOnUse"><stop offset="0" stop-color="#1a1a1a"/><stop offset="0.38" stop-color="#2c2c2c"/><stop offset="0.65" stop-color="#333"/><stop offset="0.78" stop-color="#333"/><stop offset="1" stop-color="#1a1a1a"/></radialGradient><radialGradient id="radial-gradient-3" cx="-632.26" cy="72.13" r="6.56" xlink:href="#radial-gradient-2"/><radialGradient id="radial-gradient-4" cx="-654.76" cy="72.13" r="10.32" xlink:href="#radial-gradient"/><linearGradient id="linear-gradient-33" x1="-662.5" y1="72.13" x2="-647.02" y2="72.13" xlink:href="#linear-gradient-32"/><radialGradient id="radial-gradient-5" cx="-654.76" cy="72.13" r="6.36" xlink:href="#radial-gradient-2"/><radialGradient id="radial-gradient-6" cx="-654.76" cy="72.13" r="6.56" xlink:href="#radial-gradient-2"/><radialGradient id="radial-gradient-7" cx="-632.26" cy="72.13" r="10.32" gradientTransform="matrix(-1, 0, 0, 1, -577.13, 0)" gradientUnits="userSpaceOnUse"><stop offset="0" stop-color="#39b54a"/><stop offset="0.06" stop-color="#1aa247"/><stop offset="0.11" stop-color="#079646"/><stop offset="0.15" stop-color="#009245"/><stop offset="0.78" stop-color="#22b573"/><stop offset="1" stop-color="#006837"/></radialGradient><radialGradient id="radial-gradient-8" cx="-654.76" cy="72.13" r="10.32" xlink:href="#radial-gradient-7"/><linearGradient id="linear-gradient-34" x1="-749.36" y1="20.39" x2="-619.83" y2="20.39" gradientTransform="matrix(1, 0, 0, -1, 792.06, 40.78)" xlink:href="#linear-gradient-25"/><linearGradient id="linear-gradient-35" x1="-749.36" y1="45.89" x2="-619.83" y2="45.89" gradientTransform="matrix(1, 0, 0, -1, 792.06, 91.78)" xlink:href="#linear-gradient-25"/><linearGradient id="linear-gradient-36" x1="-749.36" y1="71.39" x2="-664.79" y2="71.39" gradientTransform="matrix(1, 0, 0, -1, 837.02, 142.78)" xlink:href="#linear-gradient-25"/><linearGradient id="linear-gradient-37" x1="-703.23" y1="-13.26" x2="-662.93" y2="56.55" gradientTransform="matrix(1, 0, 0, -1, 792.54, 42.35)" xlink:href="#linear-gradient-26"/><linearGradient id="linear-gradient-38" x1="-703.23" y1="12.24" x2="-662.93" y2="82.05" gradientTransform="matrix(1, 0, 0, -1, 792.54, 93.35)" xlink:href="#linear-gradient-26"/><linearGradient id="linear-gradient-39" x1="-703.23" y1="37.74" x2="-662.93" y2="107.55" gradientTransform="matrix(1, 0, 0, -1, 792.54, 144.35)" xlink:href="#linear-gradient-26"/><linearGradient id="linear-gradient-40" x1="-596.54" y1="82.96" x2="-596.54" y2="10.96" gradientTransform="matrix(1, 0, 0, -1, 615.95, 93.92)" xlink:href="#linear-gradient-26"/></defs><title>Detector_PhotoMultiplier copy</title><g class="cls-1"><g id="Layer_1" data-name="Layer 1"><rect class="cls-2" x="-7.25" y="44.66" width="87.52" height="5.86" rx="1.04" transform="translate(84.1 11.08) rotate(90)"/><rect class="cls-3" x="-15.12" y="35.02" width="72.33" height="24.29" transform="translate(68.21 26.12) rotate(90)"/><rect class="cls-4" x="-33.35" y="42.59" width="75.78" height="8.71" rx="1.38" transform="translate(51.48 42.4) rotate(90)"/><rect class="cls-5" x="-5.33" y="46.22" width="75.09" height="2.74" rx="0.62" transform="translate(79.8 15.38) rotate(90)"/><rect class="cls-6" x="9.19" y="16.93" width="21" height="1.9" transform="translate(39.38 35.75) rotate(-180)"/><rect class="cls-7" x="9.19" y="12.43" width="21" height="1.9" transform="translate(39.38 26.75) rotate(-180)"/><rect class="cls-8" x="9.19" y="25.93" width="21" height="1.9" transform="translate(39.38 53.75) rotate(-180)"/><rect class="cls-9" x="9.19" y="21.43" width="21" height="1.9" transform="translate(39.38 44.75) rotate(-180)"/><rect class="cls-10" x="9.19" y="34.93" width="21" height="1.9" transform="translate(39.38 71.75) rotate(-180)"/><rect class="cls-11" x="9.19" y="30.43" width="21" height="1.9" transform="translate(39.38 62.75) rotate(-180)"/><rect class="cls-12" x="9.19" y="43.93" width="21" height="1.9" transform="translate(39.38 89.75) rotate(-180)"/><rect class="cls-13" x="9.19" y="39.43" width="21" height="1.9" transform="translate(39.38 80.75) rotate(-180)"/><rect class="cls-14" x="9.19" y="52.93" width="21" height="1.9" transform="translate(39.38 107.75) rotate(-180)"/><rect class="cls-15" x="9.19" y="48.43" width="21" height="1.9" transform="translate(39.38 98.75) rotate(-180)"/><rect class="cls-16" x="9.19" y="61.93" width="21" height="1.9" transform="translate(39.38 125.75) rotate(-180)"/><rect class="cls-17" x="9.19" y="57.43" width="21" height="1.9" transform="translate(39.38 116.75) rotate(-180)"/><rect class="cls-18" x="9.19" y="70.93" width="21" height="1.9" transform="translate(39.38 143.75) rotate(-180)"/><rect class="cls-19" x="9.19" y="66.43" width="21" height="1.9" transform="translate(39.38 134.75) rotate(-180)"/><rect class="cls-20" x="9.19" y="79.93" width="21" height="1.9" transform="translate(39.38 161.75) rotate(-180)"/><rect class="cls-21" x="9.19" y="75.43" width="21" height="1.9" transform="translate(39.38 152.75) rotate(-180)"/><rect class="cls-22" x="39.23" y="0.34" width="145.48" height="94.5" rx="2.9" transform="translate(223.94 95.18) rotate(-180)"/><rect class="cls-23" x="39.66" width="145.5" height="94.96" rx="2.9" transform="translate(224.82 94.96) rotate(180)"/><rect class="cls-24" x="42.72" y="3.34" width="137.46" height="88.5" rx="3.65" transform="translate(222.91 95.18) rotate(-180)"/><path class="cls-25" d="M49.72,8.56H177.19a0,0,0,0,1,0,0v76.2a0,0,0,0,1,0,0H49.72a7,7,0,0,1-7-7V15.56a7,7,0,0,1,7-7Z" transform="translate(219.91 93.33) rotate(-180)"/><path class="cls-26" d="M49.72,10.68h123a0,0,0,0,1,0,0v21a0,0,0,0,1,0,0h-123a7,7,0,0,1-7-7v-7a7,7,0,0,1,7-7Z" transform="translate(215.41 42.35) rotate(180)"/><path class="cls-27" d="M49.72,36.18h123a0,0,0,0,1,0,0v21a0,0,0,0,1,0,0h-123a7,7,0,0,1-7-7v-7A7,7,0,0,1,49.72,36.18Z" transform="translate(215.41 93.35) rotate(180)"/><path class="cls-28" d="M49.72,61.68h123a0,0,0,0,1,0,0v21a0,0,0,0,1,0,0h-123a7,7,0,0,1-7-7v-7A7,7,0,0,1,49.72,61.68Z" transform="translate(215.41 144.35) rotate(180)"/><circle class="cls-29" cx="55.14" cy="72.13" r="10.32"/><circle class="cls-30" cx="55.14" cy="72.13" r="7.74"/><circle class="cls-31" cx="55.14" cy="72.13" r="6.36"/><path class="cls-32" d="M48.58,72.13a6.56,6.56,0,1,1,6.56,6.56A6.56,6.56,0,0,1,48.58,72.13Zm.4,0A6.16,6.16,0,1,0,55.14,66,6.16,6.16,0,0,0,49,72.13Z"/><circle class="cls-33" cx="77.64" cy="72.13" r="10.32"/><circle class="cls-34" cx="77.64" cy="72.13" r="7.74"/><circle class="cls-35" cx="77.64" cy="72.13" r="6.36"/><path class="cls-36" d="M71.08,72.13a6.56,6.56,0,1,1,6.56,6.56A6.56,6.56,0,0,1,71.08,72.13Zm.4,0A6.16,6.16,0,1,0,77.64,66,6.16,6.16,0,0,0,71.48,72.13Z"/><circle class="cls-37" cx="55.14" cy="72.13" r="10.32"/><circle class="cls-38" cx="77.64" cy="72.13" r="10.32"/><rect class="cls-39" x="42.7" y="19.44" width="129.54" height="1.9" transform="translate(214.94 40.78) rotate(-180)"/><rect class="cls-40" x="42.7" y="44.94" width="129.54" height="1.9" transform="translate(214.94 91.78) rotate(-180)"/><rect class="cls-41" x="87.66" y="70.44" width="84.58" height="1.9" transform="translate(259.9 142.78) rotate(-180)"/><path class="cls-42" d="M49.72,10.68h123a0,0,0,0,1,0,0v21a0,0,0,0,1,0,0h-123a7,7,0,0,1-7-7v-7a7,7,0,0,1,7-7Z" transform="translate(215.41 42.35) rotate(180)"/><path class="cls-43" d="M49.72,36.18h123a0,0,0,0,1,0,0v21a0,0,0,0,1,0,0h-123a7,7,0,0,1-7-7v-7A7,7,0,0,1,49.72,36.18Z" transform="translate(215.41 93.35) rotate(180)"/><path class="cls-44" d="M49.72,61.68h123a0,0,0,0,1,0,0v21a0,0,0,0,1,0,0h-123a7,7,0,0,1-7-7v-7A7,7,0,0,1,49.72,61.68Z" transform="translate(215.41 144.35) rotate(180)"/><rect class="cls-45" x="8.16" y="10.96" width="22.5" height="72" transform="translate(38.82 93.92) rotate(-180)"/><path class="cls-46" d="M80.69,54.37V48H83a4,4,0,0,1,1.28.19,1.93,1.93,0,0,1,.94.66,2,2,0,0,1,.35,1.25,2.14,2.14,0,0,1-.35,1.27,2,2,0,0,1-.94.72,3.22,3.22,0,0,1-1.24.24h-.68v2ZM82.37,51H83c.65,0,1-.3,1-.9a.67.67,0,0,0-.27-.6,1.3,1.3,0,0,0-.75-.18h-.56Z"/><path class="cls-46" d="M86.62,54.37V48h1.67v2.36h1.89V48h1.68v6.34H90.18V51.85H88.29v2.52Z"/><path class="cls-46" d="M95.94,54.48a2.75,2.75,0,0,1-2.13-.88A3.39,3.39,0,0,1,93,51.17a3.32,3.32,0,0,1,.82-2.41,2.79,2.79,0,0,1,2.13-.85,2.82,2.82,0,0,1,2.13.85,3.36,3.36,0,0,1,.81,2.41,3.43,3.43,0,0,1-.81,2.43A2.78,2.78,0,0,1,95.94,54.48Zm0-1.44a1,1,0,0,0,.89-.51,2.47,2.47,0,0,0,.33-1.36,2.35,2.35,0,0,0-.33-1.34,1.07,1.07,0,0,0-1.79,0,2.35,2.35,0,0,0-.33,1.34A2.47,2.47,0,0,0,95,52.53,1,1,0,0,0,95.94,53Z"/><path class="cls-46" d="M100.93,54.37V49.43H99.25V48h5v1.4h-1.67v4.94Z"/><path class="cls-46" d="M107.6,54.48a2.75,2.75,0,0,1-2.13-.88,3.39,3.39,0,0,1-.82-2.43,3.32,3.32,0,0,1,.82-2.41,3.09,3.09,0,0,1,4.26,0,3.36,3.36,0,0,1,.81,2.41,3.43,3.43,0,0,1-.81,2.43A2.75,2.75,0,0,1,107.6,54.48Zm0-1.44a1,1,0,0,0,.9-.51,2.47,2.47,0,0,0,.33-1.36,2.35,2.35,0,0,0-.33-1.34,1.06,1.06,0,0,0-.9-.48,1,1,0,0,0-.9.48,2.35,2.35,0,0,0-.33,1.34,2.47,2.47,0,0,0,.33,1.36A1,1,0,0,0,107.6,53Z"/><path class="cls-46" d="M111.4,52.47V51.3h2.46v1.17Z"/><path class="cls-46" d="M115,54.37V48h1.79l1,2.59c.06.18.11.36.16.55s.11.38.17.56h0c.06-.18.11-.37.16-.56s.11-.37.17-.55l.92-2.59h1.79v6.34h-1.52V52.49a10.11,10.11,0,0,1,.08-1.13c.05-.43.09-.81.13-1.13h0l-.52,1.52-.78,2.1h-.9l-.78-2.1-.51-1.52h0c0,.32.08.7.13,1.13a10.11,10.11,0,0,1,.08,1.13v1.88Z"/><path class="cls-46" d="M125.15,54.48a2.42,2.42,0,0,1-2-.78,3.66,3.66,0,0,1-.65-2.4V48h1.67V51.5a2.3,2.3,0,0,0,.23,1.19.82.82,0,0,0,.73.35.83.83,0,0,0,.73-.35,2.18,2.18,0,0,0,.24-1.19V48h1.62V51.3a3.78,3.78,0,0,1-.63,2.4A2.38,2.38,0,0,1,125.15,54.48Z"/><path class="cls-46" d="M129.11,54.37V48h1.67V53h2.4v1.41Z"/><path class="cls-46" d="M134.31,54.37V49.43h-1.67V48h5v1.4H136v4.94Z"/><path class="cls-46" d="M138.6,54.37V48h1.68v6.34Z"/><path class="cls-46" d="M141.68,54.37V48H144a4,4,0,0,1,1.28.19,1.93,1.93,0,0,1,.94.66,2,2,0,0,1,.36,1.25,2,2,0,0,1-1.29,2,3.24,3.24,0,0,1-1.25.24h-.68v2ZM143.36,51h.6c.66,0,1-.3,1-.9a.69.69,0,0,0-.26-.6,1.34,1.34,0,0,0-.75-.18h-.57Z"/><path class="cls-46" d="M147.61,54.37V48h1.68V53h2.4v1.41Z"/><path class="cls-46" d="M152.78,54.37V48h1.68v6.34Z"/><path class="cls-46" d="M155.86,54.37V48H160v1.4h-2.41v1h2.06v1.4h-2.06V53h2.51v1.41Z"/><path class="cls-46" d="M163,54.37h-1.68V48h2.4a4.26,4.26,0,0,1,1.26.18,2,2,0,0,1,.92.63,1.93,1.93,0,0,1,.35,1.24,2.08,2.08,0,0,1-.28,1.13,2,2,0,0,1-.74.7l1.38,2.46h-1.88l-1.09-2.13H163Zm0-3.46h.6c.68,0,1-.28,1-.83a.61.61,0,0,0-.26-.57,1.54,1.54,0,0,0-.76-.16H163Z"/><path class="cls-46" d="M119.69,70.34V64h1.87a3.66,3.66,0,0,1,2.35.73,2.94,2.94,0,0,1,.91,2.41,3,3,0,0,1-.9,2.44,3.34,3.34,0,0,1-2.26.76ZM121.37,69h.09a1.52,1.52,0,0,0,1.64-1.85,1.71,1.71,0,0,0-.48-1.45,1.92,1.92,0,0,0-1.16-.34h-.09Z"/><path class="cls-46" d="M126,70.34V64H130v1.41h-2.42v1h2.07v1.4h-2.07v1.14h2.52v1.4Z"/><path class="cls-46" d="M132.58,70.34V65.41H130.9V64h5v1.41h-1.68v4.93Z"/><path class="cls-46" d="M136.87,70.34V64H141v1.41h-2.42v1h2.07v1.4h-2.07v1.14h2.52v1.4Z"/><path class="cls-46" d="M145,70.46a3.19,3.19,0,0,1-1.5-.36,2.72,2.72,0,0,1-1.1-1.08,4,4,0,0,1,0-3.61,3,3,0,0,1,1.13-1.14,3.13,3.13,0,0,1,1.5-.39,2.5,2.5,0,0,1,1.13.26,3.19,3.19,0,0,1,.84.58l-.88,1.08a2.83,2.83,0,0,0-.48-.34,1.2,1.2,0,0,0-.57-.13,1.22,1.22,0,0,0-1,.49,2,2,0,0,0-.42,1.34,2.2,2.2,0,0,0,.38,1.38,1.21,1.21,0,0,0,1,.47,1.28,1.28,0,0,0,.65-.16,2.19,2.19,0,0,0,.5-.38l.87,1A2.61,2.61,0,0,1,145,70.46Z"/><path class="cls-46" d="M149.11,70.34V65.41h-1.67V64h5v1.41h-1.68v4.93Z"/><path class="cls-46" d="M155.78,70.46a2.81,2.81,0,0,1-2.13-.88,3.47,3.47,0,0,1-.81-2.44,3.36,3.36,0,0,1,.81-2.41,2.86,2.86,0,0,1,2.13-.85,2.83,2.83,0,0,1,2.13.85,3.32,3.32,0,0,1,.82,2.41,3.43,3.43,0,0,1-.82,2.44A2.78,2.78,0,0,1,155.78,70.46Zm0-1.45a1,1,0,0,0,.9-.5,2.5,2.5,0,0,0,.33-1.37,2.29,2.29,0,0,0-.33-1.33,1.07,1.07,0,0,0-1.79,0,2.22,2.22,0,0,0-.34,1.33,2.42,2.42,0,0,0,.34,1.37A1,1,0,0,0,155.78,69Z"/><path class="cls-46" d="M161.54,70.34h-1.68V64h2.4a3.86,3.86,0,0,1,1.25.19,1.81,1.81,0,0,1,.93.63,1.94,1.94,0,0,1,.35,1.23,1.94,1.94,0,0,1-1,1.83l1.37,2.46h-1.87l-1.09-2.13h-.64Zm0-3.45h.6c.68,0,1-.28,1-.84a.62.62,0,0,0-.25-.57,1.57,1.57,0,0,0-.76-.15h-.6Z"/></g></g></svg>