<svg xmlns="http://www.w3.org/2000/svg" xmlns:xlink="http://www.w3.org/1999/xlink" width="579" height="515" viewBox="0 0 579 515">
  <defs>
    <clipPath id="clip-Export_Icon_-_White">
      <rect width="579" height="515"/>
    </clipPath>
  </defs>
  <g id="Export_Icon_-_White" data-name="Export Icon - White" clip-path="url(#clip-Export_Icon_-_White)">
    <path id="file-export-solid" d="M384,121.9a23.923,23.923,0,0,0-7-16.9L279.1,7a23.982,23.982,0,0,0-17-7H256V128H384ZM571,308l-95.7-96.4c-10.1-10.1-27.4-3-27.4,11.3V288h-64v64h64v65.2c0,14.3,17.3,21.4,27.4,11.3L571,332A17.02,17.02,0,0,0,571,308ZM192,336V304a16.047,16.047,0,0,1,16-16H384V160H248a24.071,24.071,0,0,1-24-24V0H24A23.942,23.942,0,0,0,0,24V488a23.942,23.942,0,0,0,24,24H360a23.942,23.942,0,0,0,24-24V352H208A16.047,16.047,0,0,1,192,336Z" fill="#fff"/>
  </g>
</svg>
