<svg xmlns="http://www.w3.org/2000/svg" xmlns:xlink="http://www.w3.org/1999/xlink" viewBox="0 0 33.26 60.73"><defs><style>.cls-1{isolation:isolate;}.cls-2{opacity:0.65;}.cls-3{opacity:0.61;fill:url(#linear-gradient);}.cls-4{opacity:0.51;fill:url(#linear-gradient-2);}.cls-5{fill:url(#linear-gradient-3);}.cls-6,.cls-9{mix-blend-mode:multiply;}.cls-6{fill:url(#linear-gradient-4);}.cls-7{fill:url(#linear-gradient-5);}.cls-8{fill:url(#linear-gradient-6);}.cls-9{fill:url(#linear-gradient-7);}.cls-10{fill:#fff;}</style><linearGradient id="linear-gradient" x1="26.68" y1="27.72" x2="5.35" y2="15.4" gradientUnits="userSpaceOnUse"><stop offset="0.02" stop-color="#666"/><stop offset="0.02" stop-color="#6e6e6e"/><stop offset="0.05" stop-color="#999899"/><stop offset="0.07" stop-color="#b8b7b8"/><stop offset="0.09" stop-color="#cbcacb"/><stop offset="0.11" stop-color="#d2d1d2"/><stop offset="0.18" stop-color="#c5c4c5"/><stop offset="0.29" stop-color="#979696"/><stop offset="0.33" stop-color="#919090"/><stop offset="0.5" stop-color="#f2f2f2"/><stop offset="0.78" stop-color="#c9c8c8"/><stop offset="0.85" stop-color="#fff"/><stop offset="1" stop-color="#4d4d4d"/></linearGradient><linearGradient id="linear-gradient-2" x1="17.09" y1="41.87" x2="17.09" y2="1.25" gradientUnits="userSpaceOnUse"><stop offset="0.02" stop-color="#666"/><stop offset="0.02" stop-color="#6e6e6e"/><stop offset="0.05" stop-color="#999899"/><stop offset="0.07" stop-color="#b8b7b8"/><stop offset="0.09" stop-color="#cbcacb"/><stop offset="0.11" stop-color="#d2d1d2"/><stop offset="0.18" stop-color="#c5c4c5"/><stop offset="0.29" stop-color="#979696"/><stop offset="0.36" stop-color="#919090"/><stop offset="0.59" stop-color="#c9c8c8"/><stop offset="0.85" stop-color="#f2f2f2"/><stop offset="1" stop-color="#4d4d4d"/></linearGradient><linearGradient id="linear-gradient-3" x1="25.1" y1="21.99" x2="7.29" y2="21.99" gradientUnits="userSpaceOnUse"><stop offset="0.02" stop-color="#666"/><stop offset="0.02" stop-color="#646464"/><stop offset="0.2" stop-color="#393939"/><stop offset="0.36" stop-color="#1a1a1a"/><stop offset="0.5" stop-color="#070707"/><stop offset="0.59"/><stop offset="1" stop-color="#4d4d4d"/></linearGradient><linearGradient id="linear-gradient-4" x1="8.43" y1="36.37" x2="25.35" y2="7.06" gradientUnits="userSpaceOnUse"><stop offset="0" stop-color="#999"/><stop offset="0.85" stop-color="#999"/></linearGradient><linearGradient id="linear-gradient-5" x1="27.69" y1="28.74" x2="4.39" y2="15.29" xlink:href="#linear-gradient-3"/><linearGradient id="linear-gradient-6" x1="26.13" y1="21.99" x2="8.32" y2="21.99" xlink:href="#linear-gradient-3"/><linearGradient id="linear-gradient-7" x1="27.38" y1="11.56" x2="7.06" y2="31.87" xlink:href="#linear-gradient-4"/></defs><g class="cls-1"><g id="Layer_1" data-name="Layer 1"><g class="cls-2"><ellipse class="cls-3" cx="16.02" cy="21.56" rx="8.04" ry="20.31"/><ellipse class="cls-4" cx="17.09" cy="21.56" rx="8.04" ry="20.31"/></g><path class="cls-5" d="M16.09,0c-4.92.11-8.86,10-8.8,22.19s4.1,21.9,9,21.79,8.86-10,8.8-22.18S21-.11,16.09,0Zm.12,40.72c-4.11.09-7.49-8.35-7.54-18.85S11.91,2.78,16,2.69,23.51,11,23.56,21.54,20.32,40.63,16.21,40.72Z"/><ellipse class="cls-6" cx="16.89" cy="21.71" rx="7.7" ry="19.02"/><path class="cls-7" d="M15.93,0c-4.92.1-8.86,10-8.8,22.18s4.09,21.9,9,21.8a4,4,0,0,0,1.13-.2c4.38-1.46,7.73-10.78,7.67-22C24.88,9.68,20.85-.08,15.93,0Zm1.31,40.7c-4.12.09-7.49-8.35-7.54-18.85S12.94,2.79,17.05,2.7s7.49,8.35,7.54,18.85S21.35,40.64,17.24,40.73Z"/><path class="cls-8" d="M17.12,0C12.2.11,8.26,10,8.32,22.19s4.09,21.9,9,21.79,8.86-10,8.8-22.18S22-.11,17.12,0Zm.11,40.72c-4.11.09-7.48-8.35-7.53-18.85S12.94,2.78,17.05,2.69,24.54,11,24.59,21.54,21.35,40.63,17.23,40.72Z"/><path class="cls-9" d="M24.59,22.26c-.1,8.49-3.06,18.21-7.19,18.47-4.29.28-7.7-9.81-7.7-19s3.41-19.28,7.7-19S24.7,13.32,24.59,22.26Z"/><path d="M15.17,52.38l-.89-1.8-.14-.32s0,.08,0,.13a5.14,5.14,0,0,1,0,.77v1.22H13v-4.1h1.22l.89,1.8.13.32v-.11a7.27,7.27,0,0,1-.05-.78V48.28h1.19v4.1Z"/><path class="cls-10" d="M16.29,48.38v3.9H15.23l-.86-1.74L14,49.67h0c0,.22,0,.47.08.73a4.93,4.93,0,0,1,0,.76v1.12h-1v-3.9h1.05L15,50.12l.37.88h0c0-.21,0-.45-.08-.72a7.09,7.09,0,0,1,0-.77V48.38h1m.2-.2H15.1v1.33c0,.1,0,.2,0,.31l-.76-1.53,0-.11H12.92v4.3H14.3V51.16c0-.11,0-.21,0-.32l.76,1.53.06.11h1.38v-4.3Z"/><path d="M17.05,52.38v-4.1H18.3a2.3,2.3,0,0,1,1.51.48,1.87,1.87,0,0,1,.6,1.56,2,2,0,0,1-.59,1.57,2.15,2.15,0,0,1-1.46.49Zm1.23-1a1,1,0,0,0,.62-.2,1,1,0,0,0,.25-.83c0-.42-.08-.7-.25-.82a1.14,1.14,0,0,0-.62-.19Z"/><path class="cls-10" d="M18.3,48.38a2.24,2.24,0,0,1,1.45.45,1.82,1.82,0,0,1,.56,1.49,1.91,1.91,0,0,1-.55,1.5,2.09,2.09,0,0,1-1.4.46H17.15v-3.9H18.3m-.12,3.07h.06a1.16,1.16,0,0,0,.72-.22,1.14,1.14,0,0,0,.29-.91,1.08,1.08,0,0,0-.29-.9,1.22,1.22,0,0,0-.72-.21h-.06v2.24m.12-3.27H17v4.3h1.41A2.3,2.3,0,0,0,19.89,52a2.07,2.07,0,0,0,.62-1.65,2,2,0,0,0-.64-1.64,2.4,2.4,0,0,0-1.57-.5Zm.08,3.07V49.42a1,1,0,0,1,.46.16c.14.1.21.36.21.74s-.07.64-.22.75a.83.83,0,0,1-.45.18Z"/><polygon points="7.92 58.38 7.92 54.28 10.67 54.28 10.67 55.35 9.16 55.35 9.16 55.89 10.45 55.89 10.45 56.95 9.16 56.95 9.16 58.38 7.92 58.38"/><path class="cls-10" d="M10.57,54.38v.87H9.06V56h1.29v.86H9.06v1.43H8v-3.9h2.55m.2-.2H7.82v4.3H9.26V57.05h1.29V55.79H9.26v-.34h1.51V54.18Z"/><rect x="11.14" y="54.28" width="1.23" height="4.1"/><path class="cls-10" d="M12.27,54.38v3.9h-1v-3.9h1m.2-.2H11v4.3h1.43v-4.3Z"/><polygon points="13.04 58.38 13.04 54.28 14.27 54.28 14.27 57.32 15.74 57.32 15.74 58.38 13.04 58.38"/><path class="cls-10" d="M14.17,54.38v3h1.47v.86h-2.5v-3.9h1m.2-.2H12.94v4.3h2.9V57.22H14.37v-3Z"/><polygon points="16.24 58.38 16.24 55.35 15.21 55.35 15.21 54.28 18.5 54.28 18.5 55.35 17.47 55.35 17.47 58.38 16.24 58.38"/><path class="cls-10" d="M18.4,54.38v.87h-1v3h-1v-3h-1v-.87H18.4m.2-.2H15.11v1.27h1v3h1.43v-3h1V54.18Z"/><polygon points="18.88 58.38 18.88 54.28 21.6 54.28 21.6 55.35 20.11 55.35 20.11 55.76 21.38 55.76 21.38 56.82 20.11 56.82 20.11 57.32 21.66 57.32 21.66 58.38 18.88 58.38"/><path class="cls-10" d="M21.5,54.38v.87H20v.61h1.27v.86H20v.7h1.55v.86H19v-3.9H21.5m.2-.2H18.78v4.3h3V57.22H20.21v-.3h1.27V55.66H20.21v-.21H21.7V54.18Z"/><path d="M24.35,58.38l-.67-1.3h-.23v1.3H22.22v-4.1h1.57a2.64,2.64,0,0,1,.81.12,1.27,1.27,0,0,1,.61.42,1.29,1.29,0,0,1,.24.82,1.34,1.34,0,0,1-.59,1.17l.88,1.57Zm-.63-2.32c.46,0,.52-.22.52-.42s-.08-.24-.11-.26a.87.87,0,0,0-.41-.08h-.27v.76Z"/><path class="cls-10" d="M23.79,54.38a2.45,2.45,0,0,1,.78.12,1.18,1.18,0,0,1,.57.38,1.25,1.25,0,0,1,.21.76,1.34,1.34,0,0,1-.17.7,1.26,1.26,0,0,1-.46.43l.85,1.51H24.42L23.74,57h-.39v1.3h-1v-3.9h1.47m-.44,1.78h.37c.42,0,.62-.17.62-.52a.36.36,0,0,0-.16-.34.83.83,0,0,0-.46-.1h-.37v1m.44-2H22.12v4.3h1.43v-1.3h.07l.62,1.19.05.11h1.62l-.17-.29L25,56.84a1.67,1.67,0,0,0,.36-.39,1.57,1.57,0,0,0,.2-.81,1.4,1.4,0,0,0-.26-.88,1.35,1.35,0,0,0-.66-.45,2.55,2.55,0,0,0-.84-.13Zm-.24,1.22h.17a.69.69,0,0,1,.36.07s.06,0,.06.17,0,.32-.42.32h-.17V55.4Z"/></g></g></svg>