<svg xmlns="http://www.w3.org/2000/svg" xmlns:xlink="http://www.w3.org/1999/xlink" viewBox="0 0 33.26 60.73"><defs><style>.cls-1{isolation:isolate;}.cls-2{opacity:0.65;}.cls-3{opacity:0.61;fill:url(#linear-gradient);}.cls-4{opacity:0.51;fill:url(#linear-gradient-2);}.cls-5{fill:url(#linear-gradient-3);}.cls-6{stroke-miterlimit:10;stroke-width:0.38px;opacity:0.43;fill:url(#linear-gradient-4);stroke:url(#linear-gradient-5);}.cls-7{fill:url(#linear-gradient-6);}.cls-8{fill:url(#linear-gradient-7);}.cls-9{opacity:0.93;mix-blend-mode:soft-light;fill:url(#linear-gradient-8);}.cls-10{fill:#8e8e8e;}</style><linearGradient id="linear-gradient" x1="26.48" y1="26.16" x2="6.06" y2="14.37" gradientUnits="userSpaceOnUse"><stop offset="0.02" stop-color="#666"/><stop offset="0.02" stop-color="#6e6e6e"/><stop offset="0.05" stop-color="#999899"/><stop offset="0.07" stop-color="#b8b7b8"/><stop offset="0.09" stop-color="#cbcacb"/><stop offset="0.11" stop-color="#d2d1d2"/><stop offset="0.18" stop-color="#c5c4c5"/><stop offset="0.29" stop-color="#979696"/><stop offset="0.33" stop-color="#919090"/><stop offset="0.5" stop-color="#f2f2f2"/><stop offset="0.78" stop-color="#c9c8c8"/><stop offset="0.85" stop-color="#fff"/><stop offset="1" stop-color="#4d4d4d"/></linearGradient><linearGradient id="linear-gradient-2" x1="17.34" y1="39.28" x2="17.34" y2="1.25" gradientUnits="userSpaceOnUse"><stop offset="0.02" stop-color="#666"/><stop offset="0.02" stop-color="#6e6e6e"/><stop offset="0.05" stop-color="#999899"/><stop offset="0.07" stop-color="#b8b7b8"/><stop offset="0.09" stop-color="#cbcacb"/><stop offset="0.11" stop-color="#d2d1d2"/><stop offset="0.18" stop-color="#c5c4c5"/><stop offset="0.29" stop-color="#979696"/><stop offset="0.36" stop-color="#919090"/><stop offset="0.59" stop-color="#c9c8c8"/><stop offset="0.85" stop-color="#f2f2f2"/><stop offset="1" stop-color="#4d4d4d"/></linearGradient><linearGradient id="linear-gradient-3" x1="25.35" y1="21.99" x2="7.54" y2="21.99" gradientUnits="userSpaceOnUse"><stop offset="0.02" stop-color="#666"/><stop offset="0.02" stop-color="#646464"/><stop offset="0.2" stop-color="#393939"/><stop offset="0.36" stop-color="#1a1a1a"/><stop offset="0.5" stop-color="#070707"/><stop offset="0.59"/><stop offset="1" stop-color="#4d4d4d"/></linearGradient><linearGradient id="linear-gradient-4" x1="8.68" y1="36.37" x2="25.6" y2="7.06" gradientUnits="userSpaceOnUse"><stop offset="0.02" stop-color="#666"/><stop offset="0.06" stop-color="#8c8c8c"/><stop offset="0.11" stop-color="#abaaab"/><stop offset="0.15" stop-color="#bebdbe"/><stop offset="0.18" stop-color="#c5c4c5"/><stop offset="0.5" stop-color="#f2f2f2"/><stop offset="0.78" stop-color="#c9c8c8"/><stop offset="1" stop-color="#4d4d4d"/></linearGradient><linearGradient id="linear-gradient-5" x1="9.25" y1="21.71" x2="25.03" y2="21.71" gradientUnits="userSpaceOnUse"><stop offset="0" stop-color="#a6a5a5"/><stop offset="0.11" stop-color="#d2d1d2"/><stop offset="0.18" stop-color="#c5c4c5"/><stop offset="0.29" stop-color="#979696"/><stop offset="0.33" stop-color="#919090"/><stop offset="0.78" stop-color="#c9c8c8"/><stop offset="0.85" stop-color="#fff"/><stop offset="1" stop-color="#797979"/></linearGradient><linearGradient id="linear-gradient-6" x1="27.94" y1="28.74" x2="4.64" y2="15.29" xlink:href="#linear-gradient-3"/><linearGradient id="linear-gradient-7" x1="26.38" y1="21.99" x2="8.57" y2="21.99" xlink:href="#linear-gradient-3"/><linearGradient id="linear-gradient-8" x1="27.63" y1="31.87" x2="7.32" y2="11.56" gradientUnits="userSpaceOnUse"><stop offset="0" stop-color="#feff55"/><stop offset="1" stop-color="#efffb0"/></linearGradient></defs><g class="cls-1"><g id="Layer_1" data-name="Layer 1"><g class="cls-2"><ellipse class="cls-3" cx="16.27" cy="20.27" rx="8.04" ry="19.02"/><ellipse class="cls-4" cx="17.34" cy="20.27" rx="8.04" ry="19.02"/></g><path class="cls-5" d="M16.34,0c-4.92.11-8.86,10-8.8,22.19s4.1,21.9,9,21.79,8.86-10,8.8-22.18S21.26-.11,16.34,0Zm.12,40.72c-4.11.09-7.49-8.35-7.54-18.85S12.16,2.78,16.27,2.69,23.76,11,23.81,21.54,20.57,40.63,16.46,40.72Z"/><ellipse class="cls-6" cx="17.14" cy="21.71" rx="7.7" ry="19.02"/><path class="cls-7" d="M16.18,0c-4.92.1-8.86,10-8.8,22.18s4.09,21.9,9,21.8a4,4,0,0,0,1.13-.2c4.38-1.46,7.73-10.78,7.67-22C25.13,9.68,21.1-.08,16.18,0Zm1.31,40.7C13.37,40.82,10,32.38,10,21.88S13.19,2.79,17.3,2.7s7.49,8.35,7.54,18.85S21.6,40.64,17.49,40.73Z"/><path class="cls-8" d="M17.37,0c-4.92.11-8.86,10-8.8,22.19s4.09,21.9,9,21.79,8.86-10,8.8-22.18S22.28-.11,17.37,0Zm.11,40.72C13.37,40.81,10,32.37,10,21.87S13.19,2.78,17.3,2.69,24.79,11,24.84,21.54,21.6,40.63,17.48,40.72Z"/><path class="cls-9" d="M24.84,22.26c-.1,8.49-3.06,18.21-7.19,18.47-4.29.28-7.7-9.81-7.7-19s3.41-19.28,7.7-19S25,13.32,24.84,22.26Z"/><path class="cls-10" d="M7.21,52.39a2.19,2.19,0,0,1-1-.22,1.69,1.69,0,0,1-.71-.67,2.38,2.38,0,0,1,0-2.22,1.77,1.77,0,0,1,.71-.7,2,2,0,0,1,1-.24,1.73,1.73,0,0,1,.75.15,2.23,2.23,0,0,1,.53.36l-.54.67a1.21,1.21,0,0,0-.31-.21.75.75,0,0,0-.39-.08.83.83,0,0,0-.66.3,1.2,1.2,0,0,0-.27.83,1.32,1.32,0,0,0,.25.85,1,1,0,0,0,.77.29.57.57,0,0,0,.31-.07v-.54H7v-.84H8.53v1.86a1.85,1.85,0,0,1-.56.34A2.1,2.1,0,0,1,7.21,52.39Z"/><path class="cls-10" d="M9.29,52.32V48.41h2.52v.87H10.32v.61H11.6v.86H10.32v.7h1.55v.87Z"/><path class="cls-10" d="M12.63,52.32V48.41h1.06l.86,1.74.38.88h0c0-.21,0-.45-.08-.72a5.23,5.23,0,0,1,0-.77V48.41h1v3.91H14.75l-.87-1.75-.37-.87h0c0,.22.06.47.09.73a6.76,6.76,0,0,1,0,.76v1.13Z"/><path class="cls-10" d="M16.67,52.32V48.41h2.52v.87H17.7v.61H19v.86H17.7v.7h1.56v.87Z"/><path class="cls-10" d="M21.05,52.32H20V48.41h1.48a2.77,2.77,0,0,1,.78.11,1.27,1.27,0,0,1,.57.39,1.23,1.23,0,0,1,.21.76,1.18,1.18,0,0,1-.63,1.13l.85,1.52H22.12L21.44,51h-.39Zm0-2.13h.37c.42,0,.62-.17.62-.52a.39.39,0,0,0-.15-.35,1,1,0,0,0-.47-.09h-.37Z"/><path class="cls-10" d="M23.8,52.32V48.41h1v3.91Z"/><path class="cls-10" d="M27.4,52.39a2,2,0,0,1-.93-.22,1.68,1.68,0,0,1-.68-.67,2.46,2.46,0,0,1,0-2.22,1.81,1.81,0,0,1,.7-.7,1.83,1.83,0,0,1,.92-.24,1.6,1.6,0,0,1,.7.15,2.29,2.29,0,0,1,.51.36l-.54.67a1.12,1.12,0,0,0-.29-.21.71.71,0,0,0-.36-.08.76.76,0,0,0-.59.3,1.25,1.25,0,0,0-.26.83,1.39,1.39,0,0,0,.23.85.76.76,0,0,0,.61.29.8.8,0,0,0,.41-.1,1.22,1.22,0,0,0,.3-.24l.54.65A1.6,1.6,0,0,1,27.4,52.39Z"/><path class="cls-10" d="M8.26,58.32V54.41h2.55v.87H9.29V56h1.3v.87H9.29v1.43Z"/><path class="cls-10" d="M11.48,58.32V54.41h1v3.91Z"/><path class="cls-10" d="M13.38,58.32V54.41h1v3H15.9v.87Z"/><path class="cls-10" d="M16.59,58.32v-3h-1v-.87h3.1v.87h-1v3Z"/><path class="cls-10" d="M19.24,58.32V54.41h2.52v.87H20.27v.61h1.28v.86H20.27v.7h1.55v.87Z"/><path class="cls-10" d="M23.61,58.32h-1V54.41h1.48a2.65,2.65,0,0,1,.77.11,1.25,1.25,0,0,1,.58.39,1.23,1.23,0,0,1,.21.76,1.34,1.34,0,0,1-.17.7,1.26,1.26,0,0,1-.46.43l.85,1.52H24.68L24,57h-.4Zm0-2.13H24c.41,0,.62-.17.62-.52a.37.37,0,0,0-.16-.35.94.94,0,0,0-.46-.09h-.38Z"/></g></g></svg>