<svg xmlns="http://www.w3.org/2000/svg" xmlns:xlink="http://www.w3.org/1999/xlink" viewBox="0 0 33.26 60.73"><defs><style>.cls-1{isolation:isolate;}.cls-2{opacity:0.65;}.cls-3{opacity:0.61;fill:url(#linear-gradient);}.cls-4{opacity:0.51;fill:url(#linear-gradient-2);}.cls-5{fill:url(#linear-gradient-3);}.cls-6,.cls-9{mix-blend-mode:multiply;}.cls-6{fill:url(#linear-gradient-4);}.cls-7{fill:url(#linear-gradient-5);}.cls-8{fill:url(#linear-gradient-6);}.cls-9{fill:url(#linear-gradient-7);}.cls-10{fill:#8e8e8e;}</style><linearGradient id="linear-gradient" x1="26.68" y1="27.72" x2="5.35" y2="15.4" gradientUnits="userSpaceOnUse"><stop offset="0.02" stop-color="#666"/><stop offset="0.02" stop-color="#6e6e6e"/><stop offset="0.05" stop-color="#999899"/><stop offset="0.07" stop-color="#b8b7b8"/><stop offset="0.09" stop-color="#cbcacb"/><stop offset="0.11" stop-color="#d2d1d2"/><stop offset="0.18" stop-color="#c5c4c5"/><stop offset="0.29" stop-color="#979696"/><stop offset="0.33" stop-color="#919090"/><stop offset="0.5" stop-color="#f2f2f2"/><stop offset="0.78" stop-color="#c9c8c8"/><stop offset="0.85" stop-color="#fff"/><stop offset="1" stop-color="#4d4d4d"/></linearGradient><linearGradient id="linear-gradient-2" x1="17.09" y1="41.87" x2="17.09" y2="1.25" gradientUnits="userSpaceOnUse"><stop offset="0.02" stop-color="#666"/><stop offset="0.02" stop-color="#6e6e6e"/><stop offset="0.05" stop-color="#999899"/><stop offset="0.07" stop-color="#b8b7b8"/><stop offset="0.09" stop-color="#cbcacb"/><stop offset="0.11" stop-color="#d2d1d2"/><stop offset="0.18" stop-color="#c5c4c5"/><stop offset="0.29" stop-color="#979696"/><stop offset="0.36" stop-color="#919090"/><stop offset="0.59" stop-color="#c9c8c8"/><stop offset="0.85" stop-color="#f2f2f2"/><stop offset="1" stop-color="#4d4d4d"/></linearGradient><linearGradient id="linear-gradient-3" x1="25.1" y1="21.99" x2="7.29" y2="21.99" gradientUnits="userSpaceOnUse"><stop offset="0.02" stop-color="#666"/><stop offset="0.02" stop-color="#646464"/><stop offset="0.2" stop-color="#393939"/><stop offset="0.36" stop-color="#1a1a1a"/><stop offset="0.5" stop-color="#070707"/><stop offset="0.59"/><stop offset="1" stop-color="#4d4d4d"/></linearGradient><linearGradient id="linear-gradient-4" x1="8.43" y1="36.37" x2="25.35" y2="7.06" gradientUnits="userSpaceOnUse"><stop offset="0" stop-color="#999"/><stop offset="0.85" stop-color="#999"/></linearGradient><linearGradient id="linear-gradient-5" x1="27.69" y1="28.74" x2="4.39" y2="15.29" xlink:href="#linear-gradient-3"/><linearGradient id="linear-gradient-6" x1="26.13" y1="21.99" x2="8.32" y2="21.99" xlink:href="#linear-gradient-3"/><linearGradient id="linear-gradient-7" x1="27.38" y1="11.56" x2="7.06" y2="31.87" xlink:href="#linear-gradient-4"/></defs><g class="cls-1"><g id="Layer_1" data-name="Layer 1"><g class="cls-2"><ellipse class="cls-3" cx="16.02" cy="21.56" rx="8.04" ry="20.31"/><ellipse class="cls-4" cx="17.09" cy="21.56" rx="8.04" ry="20.31"/></g><path class="cls-5" d="M16.09,0c-4.92.11-8.86,10-8.8,22.19s4.1,21.9,9,21.79,8.86-10,8.8-22.18S21-.11,16.09,0Zm.12,40.72c-4.11.09-7.49-8.35-7.54-18.85S11.91,2.78,16,2.69,23.51,11,23.56,21.54,20.32,40.63,16.21,40.72Z"/><ellipse class="cls-6" cx="16.89" cy="21.71" rx="7.7" ry="19.02"/><path class="cls-7" d="M15.93,0c-4.92.1-8.86,10-8.8,22.18s4.09,21.9,9,21.8a4,4,0,0,0,1.13-.2c4.38-1.46,7.73-10.78,7.67-22C24.88,9.68,20.85-.08,15.93,0Zm1.31,40.7c-4.12.09-7.49-8.35-7.54-18.85S12.94,2.79,17.05,2.7s7.49,8.35,7.54,18.85S21.35,40.64,17.24,40.73Z"/><path class="cls-8" d="M17.12,0C12.2.11,8.26,10,8.32,22.19s4.09,21.9,9,21.79,8.86-10,8.8-22.18S22-.11,17.12,0Zm.11,40.72c-4.11.09-7.48-8.35-7.53-18.85S12.94,2.78,17.05,2.69,24.54,11,24.59,21.54,21.35,40.63,17.23,40.72Z"/><path class="cls-9" d="M24.59,22.26c-.1,8.49-3.06,18.21-7.19,18.47-4.29.28-7.7-9.81-7.7-19s3.41-19.28,7.7-19S24.7,13.32,24.59,22.26Z"/><path class="cls-10" d="M13.12,52.28v-3.9h1.05L15,50.12l.37.88h0c0-.21,0-.45-.08-.72a7.09,7.09,0,0,1,0-.77V48.38h1v3.9H15.23l-.86-1.74L14,49.67h0c0,.22,0,.47.08.73a4.93,4.93,0,0,1,0,.76v1.12Z"/><path class="cls-10" d="M17.15,52.28v-3.9H18.3a2.24,2.24,0,0,1,1.45.45,1.82,1.82,0,0,1,.56,1.49,1.91,1.91,0,0,1-.55,1.5,2.09,2.09,0,0,1-1.4.46Zm1-.83h.06a1.16,1.16,0,0,0,.72-.22,1.14,1.14,0,0,0,.29-.91,1.08,1.08,0,0,0-.29-.9,1.22,1.22,0,0,0-.72-.21h-.06Z"/><path class="cls-10" d="M8,58.28v-3.9h2.55v.87H9.06V56h1.29v.86H9.06v1.43Z"/><path class="cls-10" d="M11.24,58.28v-3.9h1v3.9Z"/><path class="cls-10" d="M13.14,58.28v-3.9h1v3h1.47v.86Z"/><path class="cls-10" d="M16.34,58.28v-3h-1v-.87H18.4v.87h-1v3Z"/><path class="cls-10" d="M19,58.28v-3.9H21.5v.87H20v.61h1.27v.86H20v.7h1.55v.86Z"/><path class="cls-10" d="M23.35,58.28h-1v-3.9h1.47a2.45,2.45,0,0,1,.78.12,1.18,1.18,0,0,1,.57.38,1.25,1.25,0,0,1,.21.76,1.34,1.34,0,0,1-.17.7,1.26,1.26,0,0,1-.46.43l.85,1.51H24.42L23.74,57h-.39Zm0-2.12h.37c.42,0,.62-.17.62-.52a.36.36,0,0,0-.16-.34.83.83,0,0,0-.46-.1h-.37Z"/></g></g></svg>