<svg id="Layer_1" data-name="Layer 1" xmlns="http://www.w3.org/2000/svg" xmlns:xlink="http://www.w3.org/1999/xlink" viewBox="0 0 37.22 38.44"><defs><style>.cls-1{fill:url(#linear-gradient);}.cls-2{fill:url(#linear-gradient-2);}.cls-3{fill:#140000;}</style><linearGradient id="linear-gradient" x1="-2015.25" y1="-1108.41" x2="-2015.25" y2="-1151.39" gradientTransform="matrix(-0.47, 0.47, -0.81, -0.81, -1841.43, 57.77)" gradientUnits="userSpaceOnUse"><stop offset="0.02" stop-color="#666"/><stop offset="0.02" stop-color="#6e6e6e"/><stop offset="0.05" stop-color="#999899"/><stop offset="0.07" stop-color="#b8b7b8"/><stop offset="0.09" stop-color="#cbcacb"/><stop offset="0.11" stop-color="#d2d1d2"/><stop offset="0.18" stop-color="#c5c4c5"/><stop offset="0.29" stop-color="#979696"/><stop offset="0.33" stop-color="#919090"/><stop offset="0.5" stop-color="#f2f2f2"/><stop offset="0.78" stop-color="#c9c8c8"/><stop offset="0.85" stop-color="#fff"/><stop offset="1" stop-color="#4d4d4d"/></linearGradient><linearGradient id="linear-gradient-2" x1="-2015.66" y1="-1108.59" x2="-2015.66" y2="-1151.57" gradientTransform="matrix(-0.47, 0.47, -0.81, -0.81, -1841.75, 58.68)" gradientUnits="userSpaceOnUse"><stop offset="0.02" stop-color="red" stop-opacity="0.5"/><stop offset="0.59" stop-color="red" stop-opacity="0.43"/><stop offset="1" stop-color="red" stop-opacity="0.4"/></linearGradient></defs><path class="cls-1" d="M37.21,35.19,34,38.44C28.52,33.57,22.63,28,16.55,21.75,10.32,15.31,4.82,9.08,0,3.25L3.19,0A191.58,191.58,0,0,1,20.94,16.12,194,194,0,0,1,37.21,35.19Z"/><path class="cls-2" d="M37.22,35.18l-3.17,3.25C28.53,33.57,22.63,28,16.55,21.75,10.31,15.32,4.81,9.09,0,3.26L3.18,0A192.64,192.64,0,0,1,20.94,16.12,192.83,192.83,0,0,1,37.22,35.18Z"/><path class="cls-3" d="M7.68,11l2.78-2.74.81.82A2.26,2.26,0,0,1,12,10.45a1.77,1.77,0,0,1-.66,1.43,1.87,1.87,0,0,1-1.46.67,2.16,2.16,0,0,1-1.31-.67ZM9,11.17l0,0a1.1,1.1,0,0,0,.66.35c.25,0,.53-.11.86-.43a1.1,1.1,0,0,0,.43-.84,1.22,1.22,0,0,0-.36-.65l0,0Z"/><path class="cls-3" d="M10.38,13.76,13.16,11l.73.74L11.11,14.5Z"/><path class="cls-3" d="M12.85,16.37a2.09,2.09,0,0,1-.49-.82,1.7,1.7,0,0,1,0-1A2.43,2.43,0,0,1,14,13.05a1.81,1.81,0,0,1,1,0,1.84,1.84,0,0,1,.82.48,1.73,1.73,0,0,1,.38.61,2.05,2.05,0,0,1,.1.62l-.85.08a1,1,0,0,0-.06-.36.61.61,0,0,0-.19-.3A.74.74,0,0,0,14.5,14a1.23,1.23,0,0,0-.77.4,1.35,1.35,0,0,0-.44.76.73.73,0,0,0,.22.64.86.86,0,0,0,.36.22,1.65,1.65,0,0,0,.38,0l-.09.84A1.65,1.65,0,0,1,12.85,16.37Z"/><path class="cls-3" d="M14.18,17.62,17,14.88l.73.73-1,1,.82.83,1-1,.73.74-2.78,2.73-.72-.73,1.1-1.09L16,17.26l-1.1,1.09Z"/><path class="cls-3" d="M17.78,21.26l-.72-.73,2.77-2.74,1,1.05a2.41,2.41,0,0,1,.46.63,1.19,1.19,0,0,1,.13.68,1.23,1.23,0,0,1-.39.69,1.29,1.29,0,0,1-.62.36,1.23,1.23,0,0,1-.63,0l-.48,1.66L18.53,22,19,20.63l-.28-.28Zm1.51-1.49.26.27c.3.29.57.32.81.08a.38.38,0,0,0,.14-.36,1,1,0,0,0-.26-.4L20,19.1Z"/><path class="cls-3" d="M20.81,24.44a1.69,1.69,0,0,1-.53-1.31A2.13,2.13,0,0,1,21,21.72,2,2,0,0,1,22.4,21a1.9,1.9,0,0,1,1.84,1.86,2.05,2.05,0,0,1-.7,1.4,2.16,2.16,0,0,1-1.42.7A1.72,1.72,0,0,1,20.81,24.44Zm.64-.62a.63.63,0,0,0,.61.17,1.5,1.5,0,0,0,.74-.44,1.42,1.42,0,0,0,.44-.72.65.65,0,0,0-.18-.6.63.63,0,0,0-.6-.19,1.46,1.46,0,0,0-.73.43,1.48,1.48,0,0,0-.45.74A.62.62,0,0,0,21.45,23.82Z"/><path class="cls-3" d="M22.63,26.18l2.77-2.74.73.74-2.78,2.73Z"/><path class="cls-3" d="M25.09,28.78A2,2,0,0,1,24.6,28a1.7,1.7,0,0,1,0-.95,2.49,2.49,0,0,1,1.59-1.55,1.81,1.81,0,0,1,1,0A2,2,0,0,1,28,26a1.64,1.64,0,0,1,.38.61,2,2,0,0,1,.1.62l-.85.08a1,1,0,0,0-.06-.36.69.69,0,0,0-.19-.31.76.76,0,0,0-.63-.21,1.23,1.23,0,0,0-.77.4,1.35,1.35,0,0,0-.44.76.74.74,0,0,0,.22.64.83.83,0,0,0,.36.21,1,1,0,0,0,.38.05l-.09.84A1.58,1.58,0,0,1,25.09,28.78Z"/></svg>