<svg id="Layer_1" data-name="Layer 1" xmlns="http://www.w3.org/2000/svg" xmlns:xlink="http://www.w3.org/1999/xlink" viewBox="0 0 65.01 69.33"><defs><style>.cls-1{fill:url(#linear-gradient);}.cls-2{fill:#fff;}.cls-10,.cls-11,.cls-12,.cls-13,.cls-14,.cls-15,.cls-16,.cls-17,.cls-18,.cls-19,.cls-20,.cls-22,.cls-3,.cls-4,.cls-5,.cls-6,.cls-7,.cls-8,.cls-9{stroke:#000;stroke-width:0.15px;}.cls-3{fill:url(#linear-gradient-2);}.cls-4{fill:url(#linear-gradient-3);}.cls-5{fill:url(#linear-gradient-4);}.cls-6{fill:url(#linear-gradient-5);}.cls-7{fill:url(#linear-gradient-6);}.cls-8{fill:url(#linear-gradient-7);}.cls-9{fill:url(#linear-gradient-8);}.cls-10{fill:url(#linear-gradient-9);}.cls-11{fill:url(#linear-gradient-10);}.cls-12{fill:url(#linear-gradient-11);}.cls-13{fill:url(#linear-gradient-12);}.cls-14{fill:url(#linear-gradient-13);}.cls-15{fill:url(#linear-gradient-14);}.cls-16{fill:url(#linear-gradient-15);}.cls-17{fill:url(#linear-gradient-16);}.cls-18{fill:url(#linear-gradient-17);}.cls-19{fill:url(#linear-gradient-18);}.cls-20{fill:url(#linear-gradient-19);}.cls-21{stroke:#ff0;stroke-width:0.38px;isolation:isolate;fill:url(#Yellow);}.cls-22{stroke-linecap:round;stroke-linejoin:round;fill:url(#linear-gradient-20);}</style><linearGradient id="linear-gradient" x1="-3330.64" y1="34.67" x2="-3395.65" y2="34.67" gradientTransform="matrix(1, 0, 0, -1, 3395.65, 69.33)" gradientUnits="userSpaceOnUse"><stop offset="0" stop-color="#c12730"/><stop offset="0.33" stop-color="#9f1b2b"/><stop offset="0.77" stop-color="#780d26"/><stop offset="1" stop-color="#690824"/></linearGradient><linearGradient id="linear-gradient-2" x1="-4809.31" y1="2703.64" x2="-4809.31" y2="2704.8" gradientTransform="translate(-4753.75 2742.28) rotate(180)" gradientUnits="userSpaceOnUse"><stop offset="0" stop-color="#222"/><stop offset="0.5" stop-color="#fff"/><stop offset="1" stop-color="#222"/></linearGradient><linearGradient id="linear-gradient-3" x1="-769.14" y1="165.87" x2="-769.14" y2="165.34" gradientTransform="matrix(0.5, -0.87, -0.87, -0.5, 580.19, -546.25)" xlink:href="#linear-gradient-2"/><linearGradient id="linear-gradient-4" x1="-760.81" y1="170.34" x2="-760.81" y2="169.81" gradientTransform="matrix(0.5, -0.87, -0.87, -0.5, 580.19, -536.25)" xlink:href="#linear-gradient-2"/><linearGradient id="linear-gradient-5" x1="-752.43" y1="174.81" x2="-752.43" y2="174.29" gradientTransform="matrix(0.5, -0.87, -0.87, -0.5, 580.19, -526.25)" xlink:href="#linear-gradient-2"/><linearGradient id="linear-gradient-6" x1="-755.12" y1="179.47" x2="-755.12" y2="178.94" gradientTransform="matrix(0.5, -0.87, -0.87, -0.5, 586.2, -526.25)" xlink:href="#linear-gradient-2"/><linearGradient id="linear-gradient-7" x1="-757.8" y1="184.11" x2="-757.8" y2="183.58" gradientTransform="matrix(0.5, -0.87, -0.87, -0.5, 592.19, -526.26)" xlink:href="#linear-gradient-2"/><linearGradient id="linear-gradient-8" x1="-760.48" y1="188.76" x2="-760.48" y2="188.23" gradientTransform="matrix(0.5, -0.87, -0.87, -0.5, 598.19, -526.25)" xlink:href="#linear-gradient-2"/><linearGradient id="linear-gradient-9" x1="-763.8" y1="193.41" x2="-763.8" y2="192.88" gradientTransform="matrix(0.5, -0.87, -0.87, -0.5, 604.2, -526.25)" xlink:href="#linear-gradient-2"/><linearGradient id="linear-gradient-10" x1="-767.06" y1="198.05" x2="-767.06" y2="197.53" gradientTransform="matrix(0.5, -0.87, -0.87, -0.5, 610.19, -526.25)" xlink:href="#linear-gradient-2"/><linearGradient id="linear-gradient-11" x1="8.4" y1="2703.64" x2="8.4" y2="2704.8" gradientTransform="matrix(1, 0, 0, -1, 0, 2742.28)" xlink:href="#linear-gradient-2"/><linearGradient id="linear-gradient-12" x1="-584.42" y1="-154.06" x2="-584.42" y2="-154.59" gradientTransform="matrix(0.5, -0.87, -0.87, -0.5, 167.21, -546.25)" xlink:href="#linear-gradient-2"/><linearGradient id="linear-gradient-13" x1="-576.09" y1="-149.59" x2="-576.09" y2="-150.12" gradientTransform="matrix(0.5, -0.87, -0.87, -0.5, 167.21, -536.25)" xlink:href="#linear-gradient-2"/><linearGradient id="linear-gradient-14" x1="-567.71" y1="-145.12" x2="-567.71" y2="-145.64" gradientTransform="matrix(0.5, -0.87, -0.87, -0.5, 167.21, -526.25)" xlink:href="#linear-gradient-2"/><linearGradient id="linear-gradient-15" x1="-570.39" y1="-140.47" x2="-570.39" y2="-141" gradientTransform="matrix(0.5, -0.87, -0.87, -0.5, 173.2, -526.25)" xlink:href="#linear-gradient-2"/><linearGradient id="linear-gradient-16" x1="-573.08" y1="-135.82" x2="-573.08" y2="-136.35" gradientTransform="matrix(0.5, -0.87, -0.87, -0.5, 179.2, -526.25)" xlink:href="#linear-gradient-2"/><linearGradient id="linear-gradient-17" x1="-575.76" y1="-131.18" x2="-575.76" y2="-131.71" gradientTransform="matrix(0.5, -0.87, -0.87, -0.5, 185.2, -526.25)" xlink:href="#linear-gradient-2"/><linearGradient id="linear-gradient-18" x1="-579.08" y1="-126.53" x2="-579.08" y2="-127.06" gradientTransform="matrix(0.5, -0.87, -0.87, -0.5, 191.2, -526.25)" xlink:href="#linear-gradient-2"/><linearGradient id="linear-gradient-19" x1="-582.34" y1="-121.88" x2="-582.34" y2="-122.4" gradientTransform="matrix(0.5, -0.87, -0.87, -0.5, 197.21, -526.25)" xlink:href="#linear-gradient-2"/><linearGradient id="Yellow" x1="13.42" y1="38.46" x2="50.55" y2="38.46" gradientUnits="userSpaceOnUse"><stop offset="0" stop-color="#fff7a9"/><stop offset="0.5" stop-color="#fff100"/><stop offset="1" stop-color="gold"/></linearGradient><linearGradient id="linear-gradient-20" x1="6.14" y1="2703.79" x2="57.83" y2="2703.79" gradientTransform="matrix(1, 0, 0, -1, 0, 2742.28)" gradientUnits="userSpaceOnUse"><stop offset="0" stop-color="#e6e6ff"/><stop offset="0.5" stop-color="#fff"/><stop offset="1" stop-color="#e6e6ff"/></linearGradient></defs><path class="cls-1" d="M7,0H65a0,0,0,0,1,0,0V69.33a0,0,0,0,1,0,0H7a7,7,0,0,1-7-7V7A7,7,0,0,1,7,0Z" transform="translate(65.01 69.33) rotate(-180)"/><path class="cls-2" d="M10.24,10.82V6.43h2.61V7H10.94V8.35h1.62v.59H10.94v1.88Z"/><path class="cls-2" d="M13.61,10.82V6.43h.71v3.8h1.85v.59Z"/><path class="cls-2" d="M18.42,10.9A1.74,1.74,0,0,1,17,10.28a2.5,2.5,0,0,1-.53-1.67A2.43,2.43,0,0,1,17,7,1.89,1.89,0,0,1,19.8,7a2.38,2.38,0,0,1,.53,1.66,2.44,2.44,0,0,1-.53,1.67A1.74,1.74,0,0,1,18.42,10.9Zm0-.61a1,1,0,0,0,.86-.46,2,2,0,0,0,.33-1.22,2,2,0,0,0-.33-1.21,1.08,1.08,0,0,0-1.72,0,2,2,0,0,0-.33,1.21,2,2,0,0,0,.33,1.22A1,1,0,0,0,18.42,10.29Z"/><path class="cls-2" d="M22.85,10.9a1.59,1.59,0,0,1-1.18-.45,2.06,2.06,0,0,1-.45-1.51V6.43h.7V9a1.55,1.55,0,0,0,.26,1,.88.88,0,0,0,.67.29.91.91,0,0,0,.69-.29,1.49,1.49,0,0,0,.27-1V6.43h.67V8.94A2.06,2.06,0,0,1,24,10.45,1.57,1.57,0,0,1,22.85,10.9Z"/><path class="cls-2" d="M26.31,10.82H25.6V6.43h1.45a2.08,2.08,0,0,1,1.13.28,1.07,1.07,0,0,1,.46,1,1.28,1.28,0,0,1-.25.81,1.3,1.3,0,0,1-.67.44l1.07,1.86H28L27,9.06h-.71Zm0-2.33H27c.65,0,1-.26,1-.78a.62.62,0,0,0-.25-.56A1.37,1.37,0,0,0,27,7h-.66Z"/><path class="cls-2" d="M29.52,10.82V6.43h2.6V7h-1.9v1.2h1.61v.6H30.22v1.4h2v.59Z"/><path class="cls-2" d="M34.35,10.9a2.22,2.22,0,0,1-.85-.17,2.17,2.17,0,0,1-.71-.48l.41-.48a2,2,0,0,0,.54.37,1.45,1.45,0,0,0,.63.15,1,1,0,0,0,.6-.17.57.57,0,0,0,.21-.45A.46.46,0,0,0,35,9.25a3.76,3.76,0,0,0-.5-.27l-.61-.27a2,2,0,0,1-.6-.4A1,1,0,0,1,33,7.56a1.08,1.08,0,0,1,.4-.86,1.58,1.58,0,0,1,1-.35,1.8,1.8,0,0,1,.73.15,1.83,1.83,0,0,1,.6.41l-.36.44A1.63,1.63,0,0,0,35,7.07a1.32,1.32,0,0,0-.53-.1.87.87,0,0,0-.53.14.47.47,0,0,0-.2.41.45.45,0,0,0,.22.41,2.25,2.25,0,0,0,.49.25l.6.25a1.87,1.87,0,0,1,.64.44,1,1,0,0,1,.25.74,1.19,1.19,0,0,1-.41.91A1.63,1.63,0,0,1,34.35,10.9Z"/><path class="cls-2" d="M38.44,10.9a1.85,1.85,0,0,1-1.39-.59,2.31,2.31,0,0,1-.57-1.68A2.34,2.34,0,0,1,37.06,7a1.84,1.84,0,0,1,1.41-.61,1.57,1.57,0,0,1,.73.17,1.88,1.88,0,0,1,.51.38l-.37.45A1.75,1.75,0,0,0,39,7.07a1,1,0,0,0-.46-.1,1.13,1.13,0,0,0-.93.44,1.88,1.88,0,0,0-.35,1.2,2,2,0,0,0,.34,1.23,1.09,1.09,0,0,0,.92.45,1.07,1.07,0,0,0,.53-.13,1.54,1.54,0,0,0,.43-.34l.38.44a1.82,1.82,0,0,1-.61.47A1.73,1.73,0,0,1,38.44,10.9Z"/><path class="cls-2" d="M40.56,10.82V6.43h2.61V7h-1.9v1.2h1.6v.6h-1.6v1.4h2v.59Z"/><path class="cls-2" d="M44.14,10.82V6.43h.72L46.3,9l.47.93h0c0-.23,0-.47,0-.72a6.51,6.51,0,0,1,0-.75v-2h.67v4.39h-.72L45.2,8.25l-.45-.92h0c0,.23,0,.46.06.71s0,.49,0,.73v2.05Z"/><path class="cls-2" d="M50.24,10.9a1.87,1.87,0,0,1-1.4-.59,2.35,2.35,0,0,1-.56-1.68A2.29,2.29,0,0,1,48.86,7a1.83,1.83,0,0,1,1.4-.61,1.54,1.54,0,0,1,.73.17,2.12,2.12,0,0,1,.52.38l-.38.45a1.49,1.49,0,0,0-.38-.28,1,1,0,0,0-.47-.1,1.1,1.1,0,0,0-.92.44A1.83,1.83,0,0,0,49,8.61a2,2,0,0,0,.34,1.23,1.11,1.11,0,0,0,.92.45,1,1,0,0,0,.53-.13,1.58,1.58,0,0,0,.44-.34l.37.44a1.89,1.89,0,0,1-.6.47A1.73,1.73,0,0,1,50.24,10.9Z"/><path class="cls-2" d="M52.36,10.82V6.43H55V7h-1.9v1.2h1.61v.6H53.06v1.4h2v.59Z"/><path class="cls-2" d="M10.91,16.82V12.43h.71v3.8h1.85v.59Z"/><path class="cls-2" d="M14.24,16.82V12.43h.7v4.39Z"/><path class="cls-2" d="M17.89,16.9a2,2,0,0,1-1.46-.59,2.27,2.27,0,0,1-.58-1.68A2.3,2.3,0,0,1,16.44,13a1.93,1.93,0,0,1,1.46-.61,1.71,1.71,0,0,1,.79.17,2.12,2.12,0,0,1,.52.38l-.38.45a1.46,1.46,0,0,0-.38-.27,1.05,1.05,0,0,0-.52-.11,1.22,1.22,0,0,0-1,.44,1.83,1.83,0,0,0-.36,1.2,1.91,1.91,0,0,0,.35,1.23,1.23,1.23,0,0,0,1,.45,1,1,0,0,0,.69-.22v-1h-.87v-.58h1.5v1.9a1.81,1.81,0,0,1-.57.37A2.09,2.09,0,0,1,17.89,16.9Z"/><path class="cls-2" d="M20.27,16.82V12.43H21v1.79h1.87V12.43h.7v4.39h-.7v-2H21v2Z"/><path class="cls-2" d="M25.58,16.82V13H24.29v-.6h3.28V13H26.28v3.79Z"/><path class="cls-2" d="M30.92,16.9a2.27,2.27,0,0,1-.86-.17,2.13,2.13,0,0,1-.7-.48l.4-.48a1.9,1.9,0,0,0,.55.37,1.38,1.38,0,0,0,.62.15,1,1,0,0,0,.61-.17.57.57,0,0,0,.21-.45.47.47,0,0,0-.2-.42,3.22,3.22,0,0,0-.5-.27l-.61-.27a2,2,0,0,1-.6-.4,1,1,0,0,1-.29-.75A1.09,1.09,0,0,1,30,12.7a1.56,1.56,0,0,1,1-.35,1.87,1.87,0,0,1,.73.15,1.78,1.78,0,0,1,.59.41l-.36.44a1.49,1.49,0,0,0-.44-.28A1.27,1.27,0,0,0,31,13a.91.91,0,0,0-.54.14.5.5,0,0,0-.2.41.45.45,0,0,0,.22.41,2.51,2.51,0,0,0,.49.25l.6.25a1.87,1.87,0,0,1,.64.44,1,1,0,0,1,.25.74,1.16,1.16,0,0,1-.41.91A1.61,1.61,0,0,1,30.92,16.9Z"/><path class="cls-2" d="M35,16.9a1.73,1.73,0,0,1-1.38-.62,2.44,2.44,0,0,1-.53-1.67A2.38,2.38,0,0,1,33.58,13a1.75,1.75,0,0,1,1.38-.6,1.77,1.77,0,0,1,1.38.6,2.43,2.43,0,0,1,.53,1.66,2.5,2.5,0,0,1-.53,1.67A1.76,1.76,0,0,1,35,16.9Zm0-.61a1,1,0,0,0,.86-.46,2,2,0,0,0,.33-1.22,2,2,0,0,0-.33-1.21,1.08,1.08,0,0,0-1.72,0,2,2,0,0,0-.33,1.21,2,2,0,0,0,.33,1.22A1,1,0,0,0,35,16.29Z"/><path class="cls-2" d="M39.39,16.9a1.59,1.59,0,0,1-1.18-.45,2.06,2.06,0,0,1-.45-1.51V12.43h.7V15a1.55,1.55,0,0,0,.26,1,.87.87,0,0,0,.67.29.91.91,0,0,0,.69-.29,1.49,1.49,0,0,0,.27-1V12.43H41v2.51a2.06,2.06,0,0,1-.45,1.51A1.57,1.57,0,0,1,39.39,16.9Z"/><path class="cls-2" d="M42.85,16.82h-.71V12.43h1.45a2.08,2.08,0,0,1,1.13.28,1.07,1.07,0,0,1,.46,1,1.28,1.28,0,0,1-.25.81,1.3,1.3,0,0,1-.67.44l1.07,1.86h-.79l-1-1.76h-.71Zm0-2.33h.66c.65,0,1-.26,1-.78a.62.62,0,0,0-.25-.56,1.37,1.37,0,0,0-.72-.16h-.66Z"/><path class="cls-2" d="M47.78,16.9a1.87,1.87,0,0,1-1.4-.59,2.35,2.35,0,0,1-.56-1.68A2.29,2.29,0,0,1,46.4,13a1.83,1.83,0,0,1,1.4-.61,1.54,1.54,0,0,1,.73.17,1.94,1.94,0,0,1,.52.38l-.38.45a1.49,1.49,0,0,0-.38-.28,1,1,0,0,0-.47-.1,1.11,1.11,0,0,0-.92.44,1.83,1.83,0,0,0-.36,1.2,2,2,0,0,0,.35,1.23,1.16,1.16,0,0,0,1.45.32,1.69,1.69,0,0,0,.43-.34l.37.44a1.89,1.89,0,0,1-.6.47A1.73,1.73,0,0,1,47.78,16.9Z"/><path class="cls-2" d="M49.9,16.82V12.43h2.61V13H50.6v1.2h1.61v.6H50.6v1.4h2v.59Z"/><path class="cls-2" d="M53.8,14.57a.45.45,0,0,1-.33-.14.54.54,0,0,1,0-.7.46.46,0,0,1,.66,0,.54.54,0,0,1,0,.7A.45.45,0,0,1,53.8,14.57Zm0,2.33a.45.45,0,0,1-.33-.14.47.47,0,0,1-.13-.34.48.48,0,0,1,.13-.36.46.46,0,0,1,.66,0,.48.48,0,0,1,.13.36.47.47,0,0,1-.13.34A.45.45,0,0,1,53.8,16.9Z"/><path class="cls-2" d="M28.12,64.82l-.28-1.24H26.2l-.29,1.24H24.33L26.11,59H28l1.78,5.85ZM26.58,62l-.1.41h1.08l-.1-.41c-.07-.27-.14-.58-.22-.91s-.14-.65-.21-.94h0c-.06.3-.12.61-.2.94S26.65,61.7,26.58,62Z"/><path class="cls-2" d="M31.87,64.82H30.32V59h2.21a3.68,3.68,0,0,1,1.17.17,1.71,1.71,0,0,1,.85.58,1.76,1.76,0,0,1,.32,1.14,1.81,1.81,0,0,1-.94,1.69l1.27,2.27H33.47l-1-2h-.59Zm0-3.19h.56c.62,0,.93-.26.93-.77a.55.55,0,0,0-.24-.52,1.29,1.29,0,0,0-.69-.15h-.56Z"/><path class="cls-2" d="M38.53,64.93a2.94,2.94,0,0,1-1.38-.34,2.43,2.43,0,0,1-1-1,3.71,3.71,0,0,1,0-3.33,2.76,2.76,0,0,1,1-1.05,2.8,2.8,0,0,1,1.39-.36,2.37,2.37,0,0,1,1,.23,3.08,3.08,0,0,1,.77.54l-.81,1a2.52,2.52,0,0,0-.44-.31,1.15,1.15,0,0,0-.53-.12,1.16,1.16,0,0,0-.9.45,1.89,1.89,0,0,0-.38,1.24,2,2,0,0,0,.35,1.27,1.08,1.08,0,0,0,.91.44,1.23,1.23,0,0,0,.61-.15,1.8,1.8,0,0,0,.45-.35l.81,1A2.39,2.39,0,0,1,38.53,64.93Z"/><g id="Arc_lamp" data-name="Arc lamp"><rect id="rect112" class="cls-3" x="51.12" y="37.51" width="8.88" height="1.13"/><path id="rect118" class="cls-4" d="M51.9,37l.16-.27a.29.29,0,0,1,.39-.14h0a.3.3,0,0,1,.07.4l-.16.28a.3.3,0,0,1-.39.14h0A.31.31,0,0,1,51.9,37Z"/><path id="rect124" class="cls-5" d="M51.9,38.08l.74-1.28a.29.29,0,0,1,.39-.14h0a.29.29,0,0,1,.07.4l-.74,1.28a.29.29,0,0,1-.39.14h0A.3.3,0,0,1,51.9,38.08Z"/><path id="rect130" class="cls-6" d="M51.9,39.13l1.37-2.37a.29.29,0,0,1,.39-.14h0a.28.28,0,0,1,.07.4L52.36,39.4a.3.3,0,0,1-.39.14h0A.31.31,0,0,1,51.9,39.13Z"/><path id="rect136" class="cls-7" d="M52.54,39.13l1.37-2.37a.28.28,0,0,1,.38-.14h0a.28.28,0,0,1,.07.4L53,39.4a.29.29,0,0,1-.38.14h0A.29.29,0,0,1,52.54,39.13Z"/><path id="rect142" class="cls-8" d="M53.17,39.13l1.37-2.37a.29.29,0,0,1,.39-.14h0A.3.3,0,0,1,55,37L53.62,39.4a.29.29,0,0,1-.38.14h0A.29.29,0,0,1,53.17,39.13Z"/><path id="rect148" class="cls-9" d="M53.8,39.13l1.37-2.37a.29.29,0,0,1,.39-.14h0a.28.28,0,0,1,.07.4L54.26,39.4a.3.3,0,0,1-.39.14h0A.3.3,0,0,1,53.8,39.13Z"/><path id="rect154" class="cls-10" d="M54.43,39.13l.74-1.28a.3.3,0,0,1,.39-.14h0a.29.29,0,0,1,.07.41l-.74,1.28a.3.3,0,0,1-.39.14h0A.31.31,0,0,1,54.43,39.13Z"/><path id="rect160" class="cls-11" d="M55.07,39.13l.16-.27a.28.28,0,0,1,.38-.14h0a.28.28,0,0,1,.07.4l-.16.28a.29.29,0,0,1-.38.14h0A.29.29,0,0,1,55.07,39.13Z"/><rect id="rect46" class="cls-12" x="3.96" y="37.51" width="8.88" height="1.13"/><path id="rect59" class="cls-13" d="M8.34,37l.15-.27a.29.29,0,0,1,.39-.14h0A.28.28,0,0,1,9,37l-.16.28a.29.29,0,0,1-.38.14h0A.29.29,0,0,1,8.34,37Z"/><path id="rect65" class="cls-14" d="M8.34,38.08l.73-1.28a.29.29,0,0,1,.39-.14h0a.28.28,0,0,1,.07.4l-.74,1.28a.28.28,0,0,1-.38.14h0A.28.28,0,0,1,8.34,38.08Z"/><path id="rect71" class="cls-15" d="M8.34,39.13l1.37-2.37a.28.28,0,0,1,.38-.14h0a.28.28,0,0,1,.07.4L8.79,39.4a.29.29,0,0,1-.38.14h0A.29.29,0,0,1,8.34,39.13Z"/><path id="rect77" class="cls-16" d="M9,39.13l1.37-2.37a.29.29,0,0,1,.39-.14h0a.3.3,0,0,1,.07.4L9.43,39.4a.3.3,0,0,1-.39.14H9A.29.29,0,0,1,9,39.13Z"/><path id="rect83" class="cls-17" d="M9.6,39.13,11,36.76a.29.29,0,0,1,.39-.14h0a.28.28,0,0,1,.07.4L10.06,39.4a.3.3,0,0,1-.39.14h0A.3.3,0,0,1,9.6,39.13Z"/><path id="rect89" class="cls-18" d="M10.23,39.13l1.38-2.37a.28.28,0,0,1,.38-.14h0a.28.28,0,0,1,.07.4L10.69,39.4a.3.3,0,0,1-.39.14h0A.31.31,0,0,1,10.23,39.13Z"/><path id="rect95" class="cls-19" d="M10.87,39.13l.74-1.28a.29.29,0,0,1,.38-.14h0a.29.29,0,0,1,.07.41l-.74,1.28a.29.29,0,0,1-.38.14h0A.29.29,0,0,1,10.87,39.13Z"/><path id="rect101" class="cls-20" d="M11.5,39.13l.16-.27a.29.29,0,0,1,.39-.14h0a.3.3,0,0,1,.07.4L12,39.4a.3.3,0,0,1-.39.14h0A.3.3,0,0,1,11.5,39.13Z"/><path id="path14" class="cls-21" d="M50.55,38.46A2.53,2.53,0,0,1,48,41H16a2.53,2.53,0,0,1-2.53-2.53h0A2.53,2.53,0,0,1,16,35.93H48a2.53,2.53,0,0,1,2.53,2.53Z"/><path id="path25" class="cls-22" d="M7.21,33.22a1.07,1.07,0,0,0-1.07,1.07v8.4a1.07,1.07,0,0,0,1.07,1.08H56.75a1.08,1.08,0,0,0,1.08-1.08v-8.4a1.07,1.07,0,0,0-1.08-1.07Zm-.12,9.47v-8.4a.12.12,0,0,1,.12-.12H56.75a.12.12,0,0,1,.13.12v8.4a.13.13,0,0,1-.13.13H7.21A.12.12,0,0,1,7.09,42.69Z"/></g><path class="cls-1" d="M7,0H65a0,0,0,0,1,0,0V69.33a0,0,0,0,1,0,0H7a7,7,0,0,1-7-7V7A7,7,0,0,1,7,0Z" transform="translate(65.01 69.33) rotate(-180)"/><path class="cls-2" d="M10.24,10.82V6.43h2.61V7H10.94V8.35h1.62v.59H10.94v1.88Z"/><path class="cls-2" d="M13.61,10.82V6.43h.71v3.8h1.85v.59Z"/><path class="cls-2" d="M21.19,10.28a2.45,2.45,0,0,1-.54-1.67A2.39,2.39,0,0,1,21.19,7a1.75,1.75,0,0,1,1.38-.6A1.77,1.77,0,0,1,24,7a2.43,2.43,0,0,1,.53,1.66A2.5,2.5,0,0,1,24,10.28a1.76,1.76,0,0,1-1.38.62A1.73,1.73,0,0,1,21.19,10.28Zm2.24-.45a2,2,0,0,0,.32-1.22,2,2,0,0,0-.32-1.21A1,1,0,0,0,22.57,7a1,1,0,0,0-.87.43,2.07,2.07,0,0,0-.32,1.21,2.1,2.1,0,0,0,.32,1.22,1,1,0,0,0,.87.46A1,1,0,0,0,23.43,9.83Z"/><path class="cls-2" d="M17,10.45a2.11,2.11,0,0,1-.44-1.51V6.43h.67V9a1.49,1.49,0,0,0,.27,1,.91.91,0,0,0,.68.29A.86.86,0,0,0,18.8,10a1.49,1.49,0,0,0,.27-1V6.43h.7V8.94a2.06,2.06,0,0,1-.45,1.51,1.61,1.61,0,0,1-1.19.45A1.59,1.59,0,0,1,17,10.45Z"/><path class="cls-2" d="M26.31,10.82H25.6V6.43h1.45a2.08,2.08,0,0,1,1.13.28,1.07,1.07,0,0,1,.46,1,1.28,1.28,0,0,1-.25.81,1.3,1.3,0,0,1-.67.44l1.07,1.86H28L27,9.06h-.71Zm0-2.33H27c.65,0,1-.26,1-.78a.62.62,0,0,0-.25-.56A1.37,1.37,0,0,0,27,7h-.66Z"/><path class="cls-2" d="M29.52,10.82V6.43h2.6V7h-1.9v1.2h1.61v.6H30.22v1.4h2v.59Z"/><path class="cls-2" d="M34.35,10.9a2.22,2.22,0,0,1-.85-.17,2.17,2.17,0,0,1-.71-.48l.41-.48a2,2,0,0,0,.54.37,1.45,1.45,0,0,0,.63.15,1,1,0,0,0,.6-.17.57.57,0,0,0,.21-.45A.46.46,0,0,0,35,9.25a3.76,3.76,0,0,0-.5-.27l-.61-.27a2,2,0,0,1-.6-.4A1,1,0,0,1,33,7.56a1.08,1.08,0,0,1,.4-.86,1.58,1.58,0,0,1,1-.35,1.8,1.8,0,0,1,.73.15,1.83,1.83,0,0,1,.6.41l-.36.44A1.63,1.63,0,0,0,35,7.07a1.32,1.32,0,0,0-.53-.1.87.87,0,0,0-.53.14.47.47,0,0,0-.2.41.45.45,0,0,0,.22.41,2.25,2.25,0,0,0,.49.25l.6.25a1.87,1.87,0,0,1,.64.44,1,1,0,0,1,.25.74,1.19,1.19,0,0,1-.41.91A1.63,1.63,0,0,1,34.35,10.9Z"/><path class="cls-2" d="M38.44,10.9a1.85,1.85,0,0,1-1.39-.59,2.31,2.31,0,0,1-.57-1.68A2.34,2.34,0,0,1,37.06,7a1.84,1.84,0,0,1,1.41-.61,1.57,1.57,0,0,1,.73.17,1.88,1.88,0,0,1,.51.38l-.37.45A1.75,1.75,0,0,0,39,7.07a1,1,0,0,0-.46-.1,1.13,1.13,0,0,0-.93.44,1.88,1.88,0,0,0-.35,1.2,2,2,0,0,0,.34,1.23,1.09,1.09,0,0,0,.92.45,1.07,1.07,0,0,0,.53-.13,1.54,1.54,0,0,0,.43-.34l.38.44a1.82,1.82,0,0,1-.61.47A1.73,1.73,0,0,1,38.44,10.9Z"/><path class="cls-2" d="M40.56,10.82V6.43h2.61V7h-1.9v1.2h1.6v.6h-1.6v1.4h2v.59Z"/><path class="cls-2" d="M44.14,10.82V6.43h.72L46.3,9l.47.93h0c0-.23,0-.47,0-.72a6.51,6.51,0,0,1,0-.75v-2h.67v4.39h-.72L45.2,8.25l-.45-.92h0c0,.23,0,.46.06.71s0,.49,0,.73v2.05Z"/><path class="cls-2" d="M50.24,10.9a1.87,1.87,0,0,1-1.4-.59,2.35,2.35,0,0,1-.56-1.68A2.29,2.29,0,0,1,48.86,7a1.83,1.83,0,0,1,1.4-.61,1.54,1.54,0,0,1,.73.17,2.12,2.12,0,0,1,.52.38l-.38.45a1.49,1.49,0,0,0-.38-.28,1,1,0,0,0-.47-.1,1.1,1.1,0,0,0-.92.44A1.83,1.83,0,0,0,49,8.61a2,2,0,0,0,.34,1.23,1.11,1.11,0,0,0,.92.45,1,1,0,0,0,.53-.13,1.58,1.58,0,0,0,.44-.34l.37.44a1.89,1.89,0,0,1-.6.47A1.73,1.73,0,0,1,50.24,10.9Z"/><path class="cls-2" d="M52.36,10.82V6.43H55V7h-1.9v1.2h1.61v.6H53.06v1.4h2v.59Z"/><path class="cls-2" d="M10.91,16.82V12.43h.71v3.8h1.85v.59Z"/><path class="cls-2" d="M14.24,16.82V12.43h.7v4.39Z"/><path class="cls-2" d="M17.89,16.9a2,2,0,0,1-1.46-.59,2.27,2.27,0,0,1-.58-1.68A2.3,2.3,0,0,1,16.44,13a1.93,1.93,0,0,1,1.46-.61,1.71,1.71,0,0,1,.79.17,2.12,2.12,0,0,1,.52.38l-.38.45a1.46,1.46,0,0,0-.38-.27,1.05,1.05,0,0,0-.52-.11,1.22,1.22,0,0,0-1,.44,1.83,1.83,0,0,0-.36,1.2,1.91,1.91,0,0,0,.35,1.23,1.23,1.23,0,0,0,1,.45,1,1,0,0,0,.69-.22v-1h-.87v-.58h1.5v1.9a1.81,1.81,0,0,1-.57.37A2.09,2.09,0,0,1,17.89,16.9Z"/><path class="cls-2" d="M20.27,16.82V12.43H21v1.79h1.87V12.43h.7v4.39h-.7v-2H21v2Z"/><path class="cls-2" d="M25.58,16.82V13H24.29v-.6h3.28V13H26.28v3.79Z"/><path class="cls-2" d="M30.92,16.9a2.27,2.27,0,0,1-.86-.17,2.13,2.13,0,0,1-.7-.48l.4-.48a1.9,1.9,0,0,0,.55.37,1.38,1.38,0,0,0,.62.15,1,1,0,0,0,.61-.17.57.57,0,0,0,.21-.45.47.47,0,0,0-.2-.42,3.22,3.22,0,0,0-.5-.27l-.61-.27a2,2,0,0,1-.6-.4,1,1,0,0,1-.29-.75A1.09,1.09,0,0,1,30,12.7a1.56,1.56,0,0,1,1-.35,1.87,1.87,0,0,1,.73.15,1.78,1.78,0,0,1,.59.41l-.36.44a1.49,1.49,0,0,0-.44-.28A1.27,1.27,0,0,0,31,13a.91.91,0,0,0-.54.14.5.5,0,0,0-.2.41.45.45,0,0,0,.22.41,2.51,2.51,0,0,0,.49.25l.6.25a1.87,1.87,0,0,1,.64.44,1,1,0,0,1,.25.74,1.16,1.16,0,0,1-.41.91A1.61,1.61,0,0,1,30.92,16.9Z"/><path class="cls-2" d="M35,16.9a1.73,1.73,0,0,1-1.38-.62,2.44,2.44,0,0,1-.53-1.67A2.38,2.38,0,0,1,33.58,13a1.75,1.75,0,0,1,1.38-.6,1.77,1.77,0,0,1,1.38.6,2.43,2.43,0,0,1,.53,1.66,2.5,2.5,0,0,1-.53,1.67A1.76,1.76,0,0,1,35,16.9Zm0-.61a1,1,0,0,0,.86-.46,2,2,0,0,0,.33-1.22,2,2,0,0,0-.33-1.21,1.08,1.08,0,0,0-1.72,0,2,2,0,0,0-.33,1.21,2,2,0,0,0,.33,1.22A1,1,0,0,0,35,16.29Z"/><path class="cls-2" d="M39.39,16.9a1.59,1.59,0,0,1-1.18-.45,2.06,2.06,0,0,1-.45-1.51V12.43h.7V15a1.55,1.55,0,0,0,.26,1,.87.87,0,0,0,.67.29.91.91,0,0,0,.69-.29,1.49,1.49,0,0,0,.27-1V12.43H41v2.51a2.06,2.06,0,0,1-.45,1.51A1.57,1.57,0,0,1,39.39,16.9Z"/><path class="cls-2" d="M42.85,16.82h-.71V12.43h1.45a2.08,2.08,0,0,1,1.13.28,1.07,1.07,0,0,1,.46,1,1.28,1.28,0,0,1-.25.81,1.3,1.3,0,0,1-.67.44l1.07,1.86h-.79l-1-1.76h-.71Zm0-2.33h.66c.65,0,1-.26,1-.78a.62.62,0,0,0-.25-.56,1.37,1.37,0,0,0-.72-.16h-.66Z"/><path class="cls-2" d="M47.78,16.9a1.87,1.87,0,0,1-1.4-.59,2.35,2.35,0,0,1-.56-1.68A2.29,2.29,0,0,1,46.4,13a1.83,1.83,0,0,1,1.4-.61,1.54,1.54,0,0,1,.73.17,1.94,1.94,0,0,1,.52.38l-.38.45a1.49,1.49,0,0,0-.38-.28,1,1,0,0,0-.47-.1,1.11,1.11,0,0,0-.92.44,1.83,1.83,0,0,0-.36,1.2,2,2,0,0,0,.35,1.23,1.16,1.16,0,0,0,1.45.32,1.69,1.69,0,0,0,.43-.34l.37.44a1.89,1.89,0,0,1-.6.47A1.73,1.73,0,0,1,47.78,16.9Z"/><path class="cls-2" d="M49.9,16.82V12.43h2.61V13H50.6v1.2h1.61v.6H50.6v1.4h2v.59Z"/><path class="cls-2" d="M53.8,14.57a.45.45,0,0,1-.33-.14.54.54,0,0,1,0-.7.46.46,0,0,1,.66,0,.54.54,0,0,1,0,.7A.45.45,0,0,1,53.8,14.57Zm0,2.33a.45.45,0,0,1-.33-.14.47.47,0,0,1-.13-.34.48.48,0,0,1,.13-.36.46.46,0,0,1,.66,0,.48.48,0,0,1,.13.36.47.47,0,0,1-.13.34A.45.45,0,0,1,53.8,16.9Z"/><path class="cls-2" d="M28.12,64.82l-.28-1.24H26.2l-.29,1.24H24.33L26.11,59H28l1.78,5.85ZM26.58,62l-.1.41h1.08l-.1-.41c-.07-.27-.14-.58-.22-.91s-.14-.65-.21-.94h0c-.06.3-.12.61-.2.94S26.65,61.7,26.58,62Z"/><path class="cls-2" d="M31.87,64.82H30.32V59h2.21a3.68,3.68,0,0,1,1.17.17,1.71,1.71,0,0,1,.85.58,1.76,1.76,0,0,1,.32,1.14,1.81,1.81,0,0,1-.94,1.69l1.27,2.27H33.47l-1-2h-.59Zm0-3.19h.56c.62,0,.93-.26.93-.77a.55.55,0,0,0-.24-.52,1.29,1.29,0,0,0-.69-.15h-.56Z"/><path class="cls-2" d="M38.53,64.93a2.94,2.94,0,0,1-1.38-.34,2.43,2.43,0,0,1-1-1,3.71,3.71,0,0,1,0-3.33,2.76,2.76,0,0,1,1-1.05,2.8,2.8,0,0,1,1.39-.36,2.37,2.37,0,0,1,1,.23,3.08,3.08,0,0,1,.77.54l-.81,1a2.52,2.52,0,0,0-.44-.31,1.15,1.15,0,0,0-.53-.12,1.16,1.16,0,0,0-.9.45,1.89,1.89,0,0,0-.38,1.24,2,2,0,0,0,.35,1.27,1.08,1.08,0,0,0,.91.44,1.23,1.23,0,0,0,.61-.15,1.8,1.8,0,0,0,.45-.35l.81,1A2.39,2.39,0,0,1,38.53,64.93Z"/><g id="Arc_lamp-2" data-name="Arc lamp"><rect id="rect112-2" data-name="rect112" class="cls-3" x="51.12" y="37.51" width="8.88" height="1.13"/><path id="rect118-2" data-name="rect118" class="cls-4" d="M51.9,37l.16-.27a.29.29,0,0,1,.39-.14h0a.3.3,0,0,1,.07.4l-.16.28a.3.3,0,0,1-.39.14h0A.31.31,0,0,1,51.9,37Z"/><path id="rect124-2" data-name="rect124" class="cls-5" d="M51.9,38.08l.74-1.28a.29.29,0,0,1,.39-.14h0a.29.29,0,0,1,.07.4l-.74,1.28a.29.29,0,0,1-.39.14h0A.3.3,0,0,1,51.9,38.08Z"/><path id="rect130-2" data-name="rect130" class="cls-6" d="M51.9,39.13l1.37-2.37a.29.29,0,0,1,.39-.14h0a.28.28,0,0,1,.07.4L52.36,39.4a.3.3,0,0,1-.39.14h0A.31.31,0,0,1,51.9,39.13Z"/><path id="rect136-2" data-name="rect136" class="cls-7" d="M52.54,39.13l1.37-2.37a.28.28,0,0,1,.38-.14h0a.28.28,0,0,1,.07.4L53,39.4a.29.29,0,0,1-.38.14h0A.29.29,0,0,1,52.54,39.13Z"/><path id="rect142-2" data-name="rect142" class="cls-8" d="M53.17,39.13l1.37-2.37a.29.29,0,0,1,.39-.14h0A.3.3,0,0,1,55,37L53.62,39.4a.29.29,0,0,1-.38.14h0A.29.29,0,0,1,53.17,39.13Z"/><path id="rect148-2" data-name="rect148" class="cls-9" d="M53.8,39.13l1.37-2.37a.29.29,0,0,1,.39-.14h0a.28.28,0,0,1,.07.4L54.26,39.4a.3.3,0,0,1-.39.14h0A.3.3,0,0,1,53.8,39.13Z"/><path id="rect154-2" data-name="rect154" class="cls-10" d="M54.43,39.13l.74-1.28a.3.3,0,0,1,.39-.14h0a.29.29,0,0,1,.07.41l-.74,1.28a.3.3,0,0,1-.39.14h0A.31.31,0,0,1,54.43,39.13Z"/><path id="rect160-2" data-name="rect160" class="cls-11" d="M55.07,39.13l.16-.27a.28.28,0,0,1,.38-.14h0a.28.28,0,0,1,.07.4l-.16.28a.29.29,0,0,1-.38.14h0A.29.29,0,0,1,55.07,39.13Z"/><rect id="rect46-2" data-name="rect46" class="cls-12" x="3.96" y="37.51" width="8.88" height="1.13"/><path id="rect59-2" data-name="rect59" class="cls-13" d="M8.34,37l.15-.27a.29.29,0,0,1,.39-.14h0A.28.28,0,0,1,9,37l-.16.28a.29.29,0,0,1-.38.14h0A.29.29,0,0,1,8.34,37Z"/><path id="rect65-2" data-name="rect65" class="cls-14" d="M8.34,38.08l.73-1.28a.29.29,0,0,1,.39-.14h0a.28.28,0,0,1,.07.4l-.74,1.28a.28.28,0,0,1-.38.14h0A.28.28,0,0,1,8.34,38.08Z"/><path id="rect71-2" data-name="rect71" class="cls-15" d="M8.34,39.13l1.37-2.37a.28.28,0,0,1,.38-.14h0a.28.28,0,0,1,.07.4L8.79,39.4a.29.29,0,0,1-.38.14h0A.29.29,0,0,1,8.34,39.13Z"/><path id="rect77-2" data-name="rect77" class="cls-16" d="M9,39.13l1.37-2.37a.29.29,0,0,1,.39-.14h0a.3.3,0,0,1,.07.4L9.43,39.4a.3.3,0,0,1-.39.14H9A.29.29,0,0,1,9,39.13Z"/><path id="rect83-2" data-name="rect83" class="cls-17" d="M9.6,39.13,11,36.76a.29.29,0,0,1,.39-.14h0a.28.28,0,0,1,.07.4L10.06,39.4a.3.3,0,0,1-.39.14h0A.3.3,0,0,1,9.6,39.13Z"/><path id="rect89-2" data-name="rect89" class="cls-18" d="M10.23,39.13l1.38-2.37a.28.28,0,0,1,.38-.14h0a.28.28,0,0,1,.07.4L10.69,39.4a.3.3,0,0,1-.39.14h0A.31.31,0,0,1,10.23,39.13Z"/><path id="rect95-2" data-name="rect95" class="cls-19" d="M10.87,39.13l.74-1.28a.29.29,0,0,1,.38-.14h0a.29.29,0,0,1,.07.41l-.74,1.28a.29.29,0,0,1-.38.14h0A.29.29,0,0,1,10.87,39.13Z"/><path id="rect101-2" data-name="rect101" class="cls-20" d="M11.5,39.13l.16-.27a.29.29,0,0,1,.39-.14h0a.3.3,0,0,1,.07.4L12,39.4a.3.3,0,0,1-.39.14h0A.3.3,0,0,1,11.5,39.13Z"/><path id="path14-2" data-name="path14" class="cls-21" d="M50.55,38.46A2.53,2.53,0,0,1,48,41H16a2.53,2.53,0,0,1-2.53-2.53h0A2.53,2.53,0,0,1,16,35.93H48a2.53,2.53,0,0,1,2.53,2.53Z"/><path id="path25-2" data-name="path25" class="cls-22" d="M7.21,33.22a1.07,1.07,0,0,0-1.07,1.07v8.4a1.07,1.07,0,0,0,1.07,1.08H56.75a1.08,1.08,0,0,0,1.08-1.08v-8.4a1.07,1.07,0,0,0-1.08-1.07Zm-.12,9.47v-8.4a.12.12,0,0,1,.12-.12H56.75a.12.12,0,0,1,.13.12v8.4a.13.13,0,0,1-.13.13H7.21A.12.12,0,0,1,7.09,42.69Z"/></g></svg>