<svg id="Layer_1" data-name="Layer 1" xmlns="http://www.w3.org/2000/svg" xmlns:xlink="http://www.w3.org/1999/xlink" viewBox="0 0 9.44 45.18"><defs><style>.cls-1{fill:url(#linear-gradient);}.cls-2{fill:url(#linear-gradient-2);}.cls-3{fill:#140000;}</style><linearGradient id="linear-gradient" x1="-3690.3" y1="831.89" x2="-3690.3" y2="786.7" gradientTransform="matrix(-1, 0, 0, 1, -3686.14, -786.7)" gradientUnits="userSpaceOnUse"><stop offset="0.02" stop-color="#666"/><stop offset="0.02" stop-color="#6e6e6e"/><stop offset="0.05" stop-color="#999899"/><stop offset="0.07" stop-color="#b8b7b8"/><stop offset="0.09" stop-color="#cbcacb"/><stop offset="0.11" stop-color="#d2d1d2"/><stop offset="0.18" stop-color="#c5c4c5"/><stop offset="0.29" stop-color="#979696"/><stop offset="0.33" stop-color="#919090"/><stop offset="0.5" stop-color="#f2f2f2"/><stop offset="0.78" stop-color="#c9c8c8"/><stop offset="0.85" stop-color="#fff"/><stop offset="1" stop-color="#4d4d4d"/></linearGradient><linearGradient id="linear-gradient-2" x1="-3690.3" y1="831.89" x2="-3690.3" y2="786.7" gradientTransform="matrix(-1, 0, 0, 1, -3686.14, -786.7)" gradientUnits="userSpaceOnUse"><stop offset="0" stop-color="lime" stop-opacity="0.49"/><stop offset="0.56" stop-color="lime" stop-opacity="0.43"/><stop offset="1" stop-color="lime" stop-opacity="0.4"/></linearGradient></defs><path class="cls-1" d="M5.76,0H0A111.15,111.15,0,0,1,2.3,21.4,111.81,111.81,0,0,1,0,45.18H5.76S11.52,22.59,5.76,0Z"/><path class="cls-2" d="M5.76,0H0A111.15,111.15,0,0,1,2.3,21.4,111.81,111.81,0,0,1,0,45.18H5.76S11.52,22.59,5.76,0Z"/><path class="cls-3" d="M7,35.66H3.05V33.14h.86v1.49h.62V33.36h.86v1.27h.7V33.08H7Z"/><path class="cls-3" d="M7,32.7,5,31.64l-1.9,1V31.49l.64-.27L4,31.1,4.33,31v0L4,30.8l-.29-.12-.64-.22V29.35l1.94,1,2-1.06v1.15l-.7.32-.31.13L5.61,31v0l.33.12.31.13.7.29Z"/><path class="cls-3" d="M5.79,29.21H5.07V27.7h.72Z"/><path class="cls-3" d="M7,27H3.05V24.46h.86V26h.75v-1.3h.86V26H7Z"/><path class="cls-3" d="M7,23.78H3.05v-1H7Z"/><path class="cls-3" d="M7,21.89H3.05v-1h3V19.38H7Z"/><path class="cls-3" d="M7,18.68h-3v1H3.05v-3.1h.86v1H7Z"/><path class="cls-3" d="M7,16H3.05V13.52h.86V15h.62V13.74h.86V15h.7V13.46H7Z"/><path class="cls-3" d="M7,11.68v1H3.05V11.23a2.65,2.65,0,0,1,.11-.77,1.1,1.1,0,0,1,1.15-.79,1.28,1.28,0,0,1,.7.18,1.24,1.24,0,0,1,.43.45L7,9.46v1.15l-1.31.67v.4Zm-2.12,0V11.3c0-.41-.18-.62-.52-.62a.37.37,0,0,0-.35.16,1,1,0,0,0-.09.46v.38Z"/></svg>