<svg id="Layer_1" data-name="Layer 1" xmlns="http://www.w3.org/2000/svg" xmlns:xlink="http://www.w3.org/1999/xlink" viewBox="0 0 45.18 9.44"><defs><style>.cls-1{fill:url(#linear-gradient);}.cls-2{fill:url(#linear-gradient-2);}.cls-3{fill:#140000;}</style><linearGradient id="linear-gradient" x1="-4140.87" y1="-168.43" x2="-4140.87" y2="-213.61" gradientTransform="matrix(0, -1, -1, 0, -168.43, -4136.71)" gradientUnits="userSpaceOnUse"><stop offset="0.02" stop-color="#666"/><stop offset="0.02" stop-color="#6e6e6e"/><stop offset="0.05" stop-color="#999899"/><stop offset="0.07" stop-color="#b8b7b8"/><stop offset="0.09" stop-color="#cbcacb"/><stop offset="0.11" stop-color="#d2d1d2"/><stop offset="0.18" stop-color="#c5c4c5"/><stop offset="0.29" stop-color="#979696"/><stop offset="0.33" stop-color="#919090"/><stop offset="0.5" stop-color="#f2f2f2"/><stop offset="0.78" stop-color="#c9c8c8"/><stop offset="0.85" stop-color="#fff"/><stop offset="1" stop-color="#4d4d4d"/></linearGradient><linearGradient id="linear-gradient-2" x1="-4140.87" y1="-168.43" x2="-4140.87" y2="-213.61" gradientTransform="matrix(0, -1, -1, 0, -168.43, -4136.71)" gradientUnits="userSpaceOnUse"><stop offset="0.02" stop-color="red" stop-opacity="0.5"/><stop offset="0.59" stop-color="red" stop-opacity="0.43"/><stop offset="1" stop-color="red" stop-opacity="0.4"/></linearGradient></defs><path class="cls-1" d="M45.18,5.76V0a111,111,0,0,1-21.4,2.3A111.81,111.81,0,0,1,0,0V5.76S22.59,11.52,45.18,5.76Z"/><path class="cls-2" d="M45.18,5.76V0a111,111,0,0,1-21.4,2.3A111.81,111.81,0,0,1,0,0V5.76S22.59,11.52,45.18,5.76Z"/><path class="cls-3" d="M9.52,7V3.05H12v.86H10.55v.62h1.28v.86H10.55v.7H12.1V7Z"/><path class="cls-3" d="M12.86,7V3.05H14l.59,1.6a2.75,2.75,0,0,1,.1.34l.1.34h0l.1-.34c0-.12.07-.24.1-.34l.57-1.6h1.1V7h-.94V5.8a6.55,6.55,0,0,1,0-.7q0-.4.09-.69h0l-.32.93L15,6.63h-.55L14,5.34l-.32-.93h0c0,.19,0,.42.08.69a4.68,4.68,0,0,1,0,.7V7Z"/><path class="cls-3" d="M17.35,5.79V5.07h1.51v.72Z"/><path class="cls-3" d="M19.55,7V3.05H22.1v.86H20.59v.75h1.29v.86H20.59V7Z"/><path class="cls-3" d="M22.77,7V3.05h1V7Z"/><path class="cls-3" d="M24.67,7V3.05h1v3h1.47V7Z"/><path class="cls-3" d="M27.87,7v-3h-1V3.05h3.09v.86h-1V7Z"/><path class="cls-3" d="M30.51,7V3.05H33v.86H31.54v.62h1.27v.86H31.54v.7h1.55V7Z"/><path class="cls-3" d="M34.88,7h-1V3.05h1.48a2.65,2.65,0,0,1,.77.11,1.25,1.25,0,0,1,.58.39,1.23,1.23,0,0,1,.21.76,1.37,1.37,0,0,1-.17.7,1.35,1.35,0,0,1-.46.43L37.1,7H36l-.68-1.31h-.39Zm0-2.12h.37c.42,0,.62-.18.62-.52A.37.37,0,0,0,35.71,4a.94.94,0,0,0-.46-.09h-.37Z"/></svg>