<svg id="Layer_1" data-name="Layer 1" xmlns="http://www.w3.org/2000/svg" xmlns:xlink="http://www.w3.org/1999/xlink" viewBox="0 0 71.28 71.64"><defs><style>.cls-1{stroke:#000;stroke-miterlimit:10;stroke-width:4.5px;fill:url(#linear-gradient);}.cls-2{fill:url(#linear-gradient-2);}.cls-3{fill:url(#linear-gradient-3);}.cls-4{fill:url(#linear-gradient-4);}.cls-5{fill:url(#linear-gradient-5);}.cls-6{fill:#e6e6e6;}.cls-7{fill:#fff;}.cls-8{fill:#140000;}</style><linearGradient id="linear-gradient" x1="523.37" y1="-944.3" x2="456.41" y2="-1011.26" gradientTransform="matrix(0, 1, 1, 0, 1013.42, -454.07)" gradientUnits="userSpaceOnUse"><stop offset="0" stop-color="#1a1a1a"/><stop offset="0.09" stop-color="#2c2c2c"/><stop offset="0.15" stop-color="#333"/><stop offset="0.49" stop-color="#666"/><stop offset="0.78" stop-color="#333"/><stop offset="1" stop-color="#1a1a1a"/></linearGradient><linearGradient id="linear-gradient-2" x1="35.64" y1="71.09" x2="35.64" y2="67.44" gradientTransform="matrix(1, 0, 0, 1, 0, 0)" xlink:href="#linear-gradient"/><linearGradient id="linear-gradient-3" x1="35.64" y1="4.2" x2="35.64" y2="0.55" gradientTransform="matrix(1, 0, 0, 1, 0, 0)" xlink:href="#linear-gradient"/><linearGradient id="linear-gradient-4" x1="-1059.82" y1="407.63" x2="-1059.82" y2="403.63" gradientTransform="translate(-403.26 -1024) rotate(-90)" xlink:href="#linear-gradient"/><linearGradient id="linear-gradient-5" x1="-1059.82" y1="474.17" x2="-1059.82" y2="470.63" gradientTransform="translate(-403.26 -1024) rotate(-90)" xlink:href="#linear-gradient"/></defs><rect class="cls-1" x="2.07" y="2.43" width="67.14" height="66.78" transform="translate(71.46 0.18) rotate(90)"/><rect class="cls-2" x="0.37" y="67.44" width="70.54" height="3.65"/><rect class="cls-3" x="0.37" y="0.55" width="70.54" height="3.65"/><path class="cls-4" d="M4.37,4.05v63l-4,4V.55Z"/><path class="cls-5" d="M70.91.55V71.09l-3.54-4v-63Z"/><rect class="cls-6" x="17.37" y="69.05" width="37" height="2"/><rect class="cls-6" x="68.37" y="18.05" width="2.24" height="35"/><path class="cls-7" d="M21.53,11.23V6h3.39V7.18h-2v1h1.73V9.33H22.91v1.9Z"/><path class="cls-7" d="M25.82,11.23V6H27.2v5.2Z"/><path class="cls-7" d="M28.35,11.23V6h1.38v4.05h2v1.15Z"/><path class="cls-7" d="M32.62,11.23V7.18H31.25V6h4.12V7.18H34v4.05Z"/><path class="cls-7" d="M36.14,11.23V6H39.5V7.18h-2V8h1.69V9.15H37.52v.93h2.06v1.15Z"/><path class="cls-7" d="M42,11.23H40.59V6h2a3.42,3.42,0,0,1,1,.15,1.58,1.58,0,0,1,.76.52,1.6,1.6,0,0,1,.29,1,1.67,1.67,0,0,1-.24.93,1.59,1.59,0,0,1-.6.58l1.13,2H43.39l-.9-1.74H42ZM42,8.4h.49c.56,0,.83-.23.83-.69a.49.49,0,0,0-.21-.46,1.17,1.17,0,0,0-.62-.13H42Z"/><path class="cls-7" d="M49.48,11.33a2.53,2.53,0,0,1-1.22-.3,2.26,2.26,0,0,1-.91-.88A2.89,2.89,0,0,1,47,8.67a2.87,2.87,0,0,1,.36-1.48,2.44,2.44,0,0,1,.93-.93,2.4,2.4,0,0,1,1.23-.32,2.11,2.11,0,0,1,.92.2,2.63,2.63,0,0,1,.69.48l-.72.88A2.28,2.28,0,0,0,50,7.23a1,1,0,0,0-1.27.29,1.68,1.68,0,0,0-.34,1.1,1.83,1.83,0,0,0,.31,1.13,1,1,0,0,0,.81.39,1,1,0,0,0,.54-.13,2.2,2.2,0,0,0,.41-.31l.72.86A2.16,2.16,0,0,1,49.48,11.33Z"/><path class="cls-7" d="M53.88,11.33a2,2,0,0,1-1.62-.64,3,3,0,0,1-.54-2V6H53.1V8.88a1.83,1.83,0,0,0,.19,1,.64.64,0,0,0,.59.28.68.68,0,0,0,.61-.28,1.83,1.83,0,0,0,.19-1V6H56V8.72a3.07,3.07,0,0,1-.52,2A2,2,0,0,1,53.88,11.33Z"/><path class="cls-7" d="M57.13,11.23V6H59a3.3,3.3,0,0,1,1.4.27,1,1,0,0,1,.57,1A1.55,1.55,0,0,1,60.8,8a1,1,0,0,1-.48.45v0a1.36,1.36,0,0,1,.63.41,1.19,1.19,0,0,1,.26.81,1.25,1.25,0,0,1-.6,1.16,2.7,2.7,0,0,1-1.45.37Zm1.38-3.17H59c.44,0,.66-.17.66-.52s-.22-.45-.66-.45h-.46Zm0,2.12h.56c.53,0,.8-.2.8-.58s-.27-.53-.8-.53h-.56Z"/><path class="cls-7" d="M62,11.23V6h3.36V7.18h-2V8h1.7V9.15H63.4v.93h2.07v1.15Z"/><path class="cls-8" d="M27.82,30.33l2.54-2.54.63.64a1.66,1.66,0,0,1,.57,1.22,1.84,1.84,0,0,1-.63,1.23,1.88,1.88,0,0,1-1.25.64A1.6,1.6,0,0,1,28.47,31Zm.58.06.29.29a1.19,1.19,0,0,0,.94.4,1.63,1.63,0,0,0,1-.53,1.59,1.59,0,0,0,.52-1,1.23,1.23,0,0,0-.41-.93l-.29-.29Z"/><path class="cls-8" d="M30.2,32.71l2.54-2.54.32.32L30.52,33Z"/><path class="cls-8" d="M32.13,34.73a1.39,1.39,0,0,1-.44-1.14,2,2,0,0,1,.65-1.28,1.92,1.92,0,0,1,1.28-.64,1.49,1.49,0,0,1,1.16.45,1.25,1.25,0,0,1,.32.5,1.57,1.57,0,0,1,.06.51l-.38,0a1.13,1.13,0,0,0-.05-.41.85.85,0,0,0-.23-.35,1,1,0,0,0-.85-.3,1.58,1.58,0,0,0-1,.53,1.76,1.76,0,0,0-.55,1,1,1,0,0,0,.29.85,1,1,0,0,0,.4.25,1.1,1.1,0,0,0,.48,0l0,.38a1.4,1.4,0,0,1-.61-.07A1.23,1.23,0,0,1,32.13,34.73Z"/><path class="cls-8" d="M33.43,35.94,36,33.4l.33.32-1.07,1.06L36.4,36l1.07-1.06.32.33-2.54,2.53-.32-.32,1.19-1.2-1.18-1.18-1.19,1.2Z"/><path class="cls-8" d="M36.27,38.78,36,38.46l2.54-2.54.79.79a1.71,1.71,0,0,1,.48.8.87.87,0,0,1-.3.81,1,1,0,0,1-.63.32,1.14,1.14,0,0,1-.66-.18l-.46,1.76-.37-.37.46-1.68-.46-.46Zm1.34-1.33.42.42c.41.41.78.45,1.11.13a.56.56,0,0,0,.19-.51,1.17,1.17,0,0,0-.35-.56l-.43-.43Z"/><path class="cls-8" d="M39,41.65a1.38,1.38,0,0,1-.42-1.14,2.07,2.07,0,0,1,.66-1.28,2,2,0,0,1,1.26-.65,1.39,1.39,0,0,1,1.13.43,1.42,1.42,0,0,1,.44,1.14,2,2,0,0,1-.65,1.26,2.12,2.12,0,0,1-1.28.66A1.37,1.37,0,0,1,39,41.65Zm.28-.29a.89.89,0,0,0,.83.26,1.76,1.76,0,0,0,1-.55,1.73,1.73,0,0,0,.54-1A1,1,0,0,0,40.57,39a1.64,1.64,0,0,0-1,.54,1.82,1.82,0,0,0-.56,1A.92.92,0,0,0,39.32,41.36Z"/><path class="cls-8" d="M40.72,43.23l2.54-2.54.32.32L41,43.55Z"/><path class="cls-8" d="M42.65,45.26a1.45,1.45,0,0,1-.44-1.14,2.28,2.28,0,0,1,1.94-1.93,1.46,1.46,0,0,1,1.15.45,1.28,1.28,0,0,1,.32.51,1.88,1.88,0,0,1,.07.5l-.39,0a1.07,1.07,0,0,0,0-.4.88.88,0,0,0-.23-.36,1,1,0,0,0-.85-.3,1.66,1.66,0,0,0-1,.53,1.76,1.76,0,0,0-.55,1A1,1,0,0,0,43,45a.88.88,0,0,0,.4.24,1.19,1.19,0,0,0,.47.06l0,.38a1.73,1.73,0,0,1-.61-.07A1.49,1.49,0,0,1,42.65,45.26Z"/><path class="cls-7" d="M64.87,50.16H60.28V47.4h.49v2.15h1.44V47.74h.49v1.81h1.67V47.33h.5Z"/><path class="cls-7" d="M64.87,46.86l-2.38-1.39-2.21,1.3V46.1l1.17-.65.31-.18.36-.19v0l-.36-.18-.31-.16-1.17-.64v-.64l2.24,1.31,2.35-1.4V44l-1.24.7-.35.2-.39.21v0l.39.2.35.18,1.24.69Z"/><path class="cls-7" d="M63.33,43.13h-.44V41.46h.44Z"/><path class="cls-7" d="M64.87,40.51H60.28V37.76h.49v2.15h1.55V38.09h.49v1.82h2.06Z"/><path class="cls-7" d="M64.87,36.91H60.28v-.6h4.59Z"/><path class="cls-7" d="M64.87,35H60.28v-.61h4.09V32.3h.5Z"/><path class="cls-7" d="M64.87,31.34h-4.1v1.44h-.49v-3.5h.49v1.45h4.1Z"/><path class="cls-7" d="M64.87,28.43H60.28V25.67h.49v2.15h1.44V26h.49v1.81h1.67V25.6h.5Z"/><path class="cls-7" d="M64.87,24v.61H60.28v-1.5a2.27,2.27,0,0,1,.28-1.2,1.07,1.07,0,0,1,1-.47,1.24,1.24,0,0,1,.86.29,1.51,1.51,0,0,1,.45.79l2-1.22V22l-1.94,1.16V24Zm-2.42,0v-.8c0-.77-.29-1.16-.89-1.16a.68.68,0,0,0-.63.3,1.69,1.69,0,0,0-.19.86V24Z"/><path class="cls-7" d="M20.83,65.52v-4.6h2.83v.49H21.45v1.45h1.87v.49H21.45V65h2.29v.5Z"/><path class="cls-7" d="M24.78,65.52v-4.6h.75l.95,2.45c.06.16.12.32.17.48l.18.48h0c.06-.16.12-.32.17-.48s.11-.32.17-.48l.93-2.45h.76v4.6H28.3V63c0-.2,0-.43,0-.68s0-.48.05-.68h0l-.39,1L27,65.05h-.41l-.93-2.38-.39-1h0c0,.2,0,.43.05.68s0,.48,0,.68v2.53Z"/><path class="cls-7" d="M29.87,64v-.44h1.72V64Z"/><path class="cls-7" d="M32.57,65.52v-4.6h2.84v.49H33.19V63h1.88v.49H33.19v2.06Z"/><path class="cls-7" d="M36.27,65.52v-4.6h.63v4.6Z"/><path class="cls-7" d="M38.25,65.52v-4.6h.62V65H41v.5Z"/><path class="cls-7" d="M42,65.52V61.41H40.53v-.49h3.6v.49H42.65v4.11Z"/><path class="cls-7" d="M45,65.52v-4.6h2.83v.49H45.64v1.45h1.87v.49H45.64V65h2.29v.5Z"/><path class="cls-7" d="M49.59,65.52H49v-4.6h1.54a2.42,2.42,0,0,1,1.24.29,1.07,1.07,0,0,1,.48,1,1.2,1.2,0,0,1-.3.86,1.46,1.46,0,0,1-.81.44l1.26,2h-.71l-1.19-1.94h-.89Zm0-2.42h.83c.79,0,1.19-.3,1.19-.89a.66.66,0,0,0-.31-.63,1.74,1.74,0,0,0-.88-.19h-.83Z"/><path class="cls-6" d="M55.22,53.13,52,56.38C46.55,51.53,40.68,46,34.63,39.76,28.42,33.35,23,27.14,18.16,21.34l3.18-3.26A191.48,191.48,0,0,1,39,34.13,192.32,192.32,0,0,1,55.22,53.13Z"/><rect class="cls-6" x="-8.92" y="35.16" width="89.2" height="1" rx="0.5" transform="translate(35.67 -14.79) rotate(45)"/><path d="M25.47,28.74l3.26-3.22.86.88a2,2,0,0,1-.06,3.17,2.28,2.28,0,0,1-1.63.8,2.13,2.13,0,0,1-1.54-.73Zm1,.11.25.26a1.38,1.38,0,0,0,1,.48A1.77,1.77,0,0,0,29,29a1.71,1.71,0,0,0,.61-1.13,1.47,1.47,0,0,0-.48-1l-.25-.25Z"/><path d="M28.54,31.85l3.26-3.21.57.58-3.26,3.21Z"/><path d="M31.15,34.62a2,2,0,0,1-.6-1.47,2.43,2.43,0,0,1,.83-1.66,2.76,2.76,0,0,1,1.11-.7,2.14,2.14,0,0,1,1.12,0,2,2,0,0,1,.94.55A1.58,1.58,0,0,1,35,32a1.87,1.87,0,0,1,.1.68l-.68.06a1.27,1.27,0,0,0-.06-.48,1.15,1.15,0,0,0-1.22-.76,1.82,1.82,0,0,0-1.12.59,2,2,0,0,0-.64,1.11,1.19,1.19,0,0,0,.81,1.26,1.6,1.6,0,0,0,.54.07l-.06.67A1.81,1.81,0,0,1,31.15,34.62Z"/><path d="M32.76,36.13,36,32.92l.57.58-1.32,1.29,1.31,1.32,1.31-1.29.57.57L35.2,38.61,34.63,38l1.44-1.43-1.3-1.32-1.44,1.43Z"/><path d="M36.58,40,36,39.44l3.26-3.22,1.09,1.1A2.28,2.28,0,0,1,41,38.38a1.12,1.12,0,0,1-.42,1.09,1.32,1.32,0,0,1-.78.42,1.38,1.38,0,0,1-.79-.14l-.59,2.11-.64-.64.58-2-.49-.5Zm1.74-1.71.45.47c.46.46.87.5,1.24.14a.61.61,0,0,0,.22-.57,1.32,1.32,0,0,0-.39-.62l-.46-.46Z"/><path d="M40.11,43.71a1.82,1.82,0,0,1-.56-1.48A3,3,0,0,1,42,39.78a2,2,0,0,1,2,2.08,2.46,2.46,0,0,1-.83,1.61,2.57,2.57,0,0,1-1.65.83A1.84,1.84,0,0,1,40.11,43.71Zm.5-.49a1,1,0,0,0,.94.29,2.15,2.15,0,0,0,1.1-.64,2,2,0,0,0,.63-1.07,1,1,0,0,0-.29-.92,1,1,0,0,0-.92-.31,2,2,0,0,0-1.09.62,2.05,2.05,0,0,0-.64,1.09A1,1,0,0,0,40.61,43.22Z"/><path d="M42.23,45.75l3.27-3.22.57.58-3.26,3.22Z"/><path d="M44.84,48.51A2,2,0,0,1,44.25,47a2.38,2.38,0,0,1,.82-1.65,2.68,2.68,0,0,1,1.12-.7,2,2,0,0,1,1.11,0,2.09,2.09,0,0,1,.94.55,1.67,1.67,0,0,1,.42.67,2.12,2.12,0,0,1,.1.68l-.68.06a1.51,1.51,0,0,0-.07-.48,1,1,0,0,0-.26-.42,1.13,1.13,0,0,0-1-.34,1.86,1.86,0,0,0-1.12.6,1.93,1.93,0,0,0-.63,1.1,1.17,1.17,0,0,0,.8,1.26,1.7,1.7,0,0,0,.55.08l-.06.66A1.83,1.83,0,0,1,44.84,48.51Z"/></svg>