<svg id="Layer_1" data-name="Layer 1" xmlns="http://www.w3.org/2000/svg" xmlns:xlink="http://www.w3.org/1999/xlink" viewBox="0 0 518.89 105"><defs><style>.cls-1,.cls-2,.cls-3,.cls-4{stroke-linejoin:round;}.cls-1,.cls-19,.cls-2,.cls-20,.cls-3,.cls-4{stroke-width:0.38px;}.cls-1{fill:url(#linear-gradient);stroke:url(#linear-gradient-2);}.cls-2{fill:url(#linear-gradient-3);stroke:url(#linear-gradient-4);}.cls-3{fill:url(#linear-gradient-5);stroke:url(#linear-gradient-6);}.cls-4{fill:url(#linear-gradient-7);stroke:url(#linear-gradient-8);}.cls-5{fill:url(#linear-gradient-9);}.cls-6{fill:url(#linear-gradient-10);}.cls-7{fill:url(#linear-gradient-11);}.cls-10,.cls-12,.cls-14,.cls-16,.cls-18,.cls-8{opacity:0.78;}.cls-8{fill:url(#linear-gradient-12);}.cls-9{fill:url(#linear-gradient-13);}.cls-10{fill:url(#linear-gradient-14);}.cls-11{fill:url(#linear-gradient-15);}.cls-12{fill:url(#linear-gradient-16);}.cls-13{fill:url(#linear-gradient-17);}.cls-14{fill:url(#linear-gradient-18);}.cls-15{fill:url(#linear-gradient-19);}.cls-16{fill:url(#linear-gradient-20);}.cls-17{fill:url(#linear-gradient-21);}.cls-18{fill:url(#linear-gradient-22);}.cls-19{fill:none;stroke:#ccc;stroke-linecap:round;}.cls-19,.cls-20{stroke-miterlimit:10;}.cls-20,.cls-21{fill:#fff;}.cls-20{stroke:url(#linear-gradient-23);}</style><linearGradient id="linear-gradient" x1="0.19" y1="54.12" x2="46.39" y2="54.12" gradientUnits="userSpaceOnUse"><stop offset="0" stop-color="#1a1a1a"/><stop offset="0.22" stop-color="#333"/><stop offset="0.6" stop-color="#4d4d4d"/><stop offset="0.85" stop-color="#333"/><stop offset="0.91" stop-color="#2c2c2c"/><stop offset="1" stop-color="#1a1a1a"/></linearGradient><linearGradient id="linear-gradient-2" y1="54.12" x2="46.57" y2="54.12" gradientUnits="userSpaceOnUse"><stop offset="0" stop-color="#1a1a1a"/><stop offset="0.09" stop-color="#2c2c2c"/><stop offset="0.15" stop-color="#333"/><stop offset="0.4" stop-color="#4d4d4d"/><stop offset="0.78" stop-color="#333"/><stop offset="1" stop-color="#1a1a1a"/></linearGradient><linearGradient id="linear-gradient-3" x1="-2309.55" y1="27.85" x2="-2305.65" y2="27.85" gradientTransform="matrix(0, 1, 1, 0, -25.71, 2335.45)" xlink:href="#linear-gradient-2"/><linearGradient id="linear-gradient-4" x1="-2309.74" y1="27.85" x2="-2305.46" y2="27.85" gradientTransform="matrix(0, 1, 1, 0, -25.71, 2335.45)" xlink:href="#linear-gradient-2"/><linearGradient id="linear-gradient-5" x1="-390.91" y1="3073.08" x2="-387" y2="3073.08" gradientTransform="matrix(0, 1, 1, 0, -3070.94, 469.3)" xlink:href="#linear-gradient-2"/><linearGradient id="linear-gradient-6" x1="-391.1" y1="3073.08" x2="-386.81" y2="3073.08" gradientTransform="matrix(0, 1, 1, 0, -3070.94, 469.3)" xlink:href="#linear-gradient-2"/><linearGradient id="linear-gradient-7" x1="-2358.26" y1="54.49" x2="-2348.41" y2="54.49" gradientTransform="matrix(0, 1, 1, 0, -6.61, 2407.82)" xlink:href="#linear-gradient-2"/><linearGradient id="linear-gradient-8" x1="-2358.44" y1="54.49" x2="-2348.22" y2="54.49" gradientTransform="matrix(0, 1, 1, 0, -6.61, 2407.82)" xlink:href="#linear-gradient-2"/><linearGradient id="linear-gradient-9" x1="-2824.35" y1="52.5" x2="-2356.53" y2="52.5" gradientTransform="matrix(1, 0, 0, -1, 2875.42, 105)" gradientUnits="userSpaceOnUse"><stop offset="0" stop-color="#4d4d4d"/><stop offset="0.54" stop-color="#222"/><stop offset="0.65" stop-color="#2c2c2c"/><stop offset="0.78" stop-color="#333"/><stop offset="0.93" stop-color="#454545"/><stop offset="1" stop-color="#1a1a1a"/></linearGradient><linearGradient id="linear-gradient-10" x1="-2590.35" y1="100.5" x2="-2590.35" y2="4.5" gradientTransform="matrix(1, 0, 0, -1, 2875.23, 105)" gradientUnits="userSpaceOnUse"><stop offset="0.06" stop-color="#1a1a1a"/><stop offset="0.29" stop-color="#353535"/><stop offset="0.51" stop-color="#4d4d4d"/><stop offset="0.87" stop-color="#1a1a1a"/></linearGradient><linearGradient id="linear-gradient-11" x1="-2359.21" y1="88.14" x2="-2430.24" y2="17.11" gradientTransform="matrix(1, 0, 0, -1, 2488.09, 105.25)" gradientUnits="userSpaceOnUse"><stop offset="0" stop-color="#393939"/><stop offset="0.47" stop-color="#181818"/><stop offset="0.87"/></linearGradient><linearGradient id="linear-gradient-12" x1="-2426.8" y1="52.62" x2="-2361.79" y2="52.62" gradientTransform="matrix(1, 0, 0, -1, 2483.14, 105.25)" gradientUnits="userSpaceOnUse"><stop offset="0" stop-color="#c12730"/><stop offset="0.33" stop-color="#9f1b2b"/><stop offset="0.77" stop-color="#780d26"/><stop offset="1" stop-color="#690824"/></linearGradient><linearGradient id="linear-gradient-13" x1="-2435.71" y1="88.14" x2="-2506.74" y2="17.11" gradientTransform="matrix(1, 0, 0, -1, 2641.09, 105.25)" xlink:href="#linear-gradient-11"/><linearGradient id="linear-gradient-14" x1="-2503.3" y1="52.62" x2="-2438.29" y2="52.62" gradientTransform="matrix(1, 0, 0, -1, 2636.14, 105.25)" xlink:href="#linear-gradient-12"/><linearGradient id="linear-gradient-15" x1="-2512.21" y1="88.14" x2="-2583.24" y2="17.11" gradientTransform="matrix(1, 0, 0, -1, 2794.09, 105.25)" xlink:href="#linear-gradient-11"/><linearGradient id="linear-gradient-16" x1="-2579.8" y1="52.62" x2="-2514.79" y2="52.62" gradientTransform="matrix(1, 0, 0, -1, 2789.14, 105.25)" xlink:href="#linear-gradient-12"/><linearGradient id="linear-gradient-17" x1="-2588.71" y1="88.14" x2="-2659.74" y2="17.11" gradientTransform="matrix(1, 0, 0, -1, 2947.09, 105.25)" xlink:href="#linear-gradient-11"/><linearGradient id="linear-gradient-18" x1="-2656.3" y1="52.62" x2="-2591.29" y2="52.62" gradientTransform="matrix(1, 0, 0, -1, 2942.14, 105.25)" xlink:href="#linear-gradient-12"/><linearGradient id="linear-gradient-19" x1="-2665.21" y1="88.14" x2="-2736.24" y2="17.11" gradientTransform="matrix(1, 0, 0, -1, 3100.09, 105.25)" xlink:href="#linear-gradient-11"/><linearGradient id="linear-gradient-20" x1="-2732.8" y1="52.62" x2="-2667.79" y2="52.62" gradientTransform="matrix(1, 0, 0, -1, 3095.14, 105.25)" xlink:href="#linear-gradient-12"/><linearGradient id="linear-gradient-21" x1="-2741.71" y1="88.14" x2="-2812.74" y2="17.11" gradientTransform="matrix(1, 0, 0, -1, 3253.09, 105.25)" xlink:href="#linear-gradient-11"/><linearGradient id="linear-gradient-22" x1="-2809.3" y1="52.62" x2="-2744.29" y2="52.62" gradientTransform="matrix(1, 0, 0, -1, 3248.14, 105.25)" xlink:href="#linear-gradient-12"/><linearGradient id="linear-gradient-23" x1="25.37" y1="88.32" x2="25.37" y2="18.94" gradientUnits="userSpaceOnUse"><stop offset="0" stop-color="#a6a5a5"/><stop offset="0.11" stop-color="#d2d1d2"/><stop offset="0.18" stop-color="#c5c4c5"/><stop offset="0.29" stop-color="#979696"/><stop offset="0.33" stop-color="#919090"/><stop offset="0.78" stop-color="#c9c8c8"/><stop offset="0.85" stop-color="#fff"/><stop offset="1" stop-color="#797979"/></linearGradient></defs><path class="cls-1" d="M4.1,16v-.36a1.6,1.6,0,0,0-1.6-1.59H1.78A1.59,1.59,0,0,0,.19,15.66V41.58h1.2v2.35H4.88v2.5h4v15h-4V64H1.39V66.3H.19V92.59a1.59,1.59,0,0,0,1.59,1.59H2.5a1.6,1.6,0,0,0,1.6-1.59v-.36l42.29.4V16.13Z"/><path class="cls-2" d="M-10.64,25.9H15.92a0,0,0,0,1,0,0V29.8a0,0,0,0,1,0,0H-10.64a1,1,0,0,1-1-1V26.9A1,1,0,0,1-10.64,25.9Z" transform="translate(29.99 25.71) rotate(90)"/><path class="cls-3" d="M-10.64,78.4H15.92a0,0,0,0,1,0,0V82.3a0,0,0,0,1,0,0H-10.64a1,1,0,0,1-1-1V79.4a1,1,0,0,1,1-1Z" transform="translate(-78.21 82.49) rotate(-90)"/><rect class="cls-4" x="3.91" y="49.57" width="87.93" height="9.84" rx="1.94" transform="translate(102.36 6.61) rotate(90)"/><rect class="cls-5" x="51.07" width="467.81" height="105" rx="6" transform="translate(569.96 105) rotate(-180)"/><rect class="cls-6" x="55.39" y="4.5" width="459" height="96" rx="3.65" transform="translate(569.77 105) rotate(-180)"/><path class="cls-7" d="M63.33,14.52h63a0,0,0,0,1,0,0v76.2a0,0,0,0,1,0,0h-63a7,7,0,0,1-7-7V21.52a7,7,0,0,1,7-7Z" transform="translate(182.63 105.25) rotate(-180)"/><path class="cls-8" d="M63.33,18h58a0,0,0,0,1,0,0V87.29a0,0,0,0,1,0,0h-58a7,7,0,0,1-7-7V25a7,7,0,0,1,7-7Z" transform="translate(177.68 105.25) rotate(-180)"/><path class="cls-9" d="M139.83,14.52h63a0,0,0,0,1,0,0v76.2a0,0,0,0,1,0,0h-63a7,7,0,0,1-7-7V21.52a7,7,0,0,1,7-7Z" transform="translate(335.63 105.25) rotate(-180)"/><path class="cls-10" d="M139.83,18h58a0,0,0,0,1,0,0V87.29a0,0,0,0,1,0,0h-58a7,7,0,0,1-7-7V25a7,7,0,0,1,7-7Z" transform="translate(330.68 105.25) rotate(-180)"/><path class="cls-11" d="M216.33,14.52h63a0,0,0,0,1,0,0v76.2a0,0,0,0,1,0,0h-63a7,7,0,0,1-7-7V21.52a7,7,0,0,1,7-7Z" transform="translate(488.63 105.25) rotate(-180)"/><path class="cls-12" d="M216.33,18h58a0,0,0,0,1,0,0V87.29a0,0,0,0,1,0,0h-58a7,7,0,0,1-7-7V25a7,7,0,0,1,7-7Z" transform="translate(483.68 105.25) rotate(-180)"/><path class="cls-13" d="M292.83,14.52h63a0,0,0,0,1,0,0v76.2a0,0,0,0,1,0,0h-63a7,7,0,0,1-7-7V21.52a7,7,0,0,1,7-7Z" transform="translate(641.63 105.25) rotate(-180)"/><path class="cls-14" d="M292.83,18h58a0,0,0,0,1,0,0V87.29a0,0,0,0,1,0,0h-58a7,7,0,0,1-7-7V25a7,7,0,0,1,7-7Z" transform="translate(636.68 105.25) rotate(-180)"/><path class="cls-15" d="M369.33,14.52h63a0,0,0,0,1,0,0v76.2a0,0,0,0,1,0,0h-63a7,7,0,0,1-7-7V21.52a7,7,0,0,1,7-7Z" transform="translate(794.63 105.25) rotate(-180)"/><path class="cls-16" d="M369.33,18h58a0,0,0,0,1,0,0V87.29a0,0,0,0,1,0,0h-58a7,7,0,0,1-7-7V25A7,7,0,0,1,369.33,18Z" transform="translate(789.68 105.25) rotate(-180)"/><path class="cls-17" d="M445.83,14.52h63a0,0,0,0,1,0,0v76.2a0,0,0,0,1,0,0h-63a7,7,0,0,1-7-7V21.52a7,7,0,0,1,7-7Z" transform="translate(947.63 105.25) rotate(-180)"/><path class="cls-18" d="M445.83,18h58a0,0,0,0,1,0,0V87.29a0,0,0,0,1,0,0h-58a7,7,0,0,1-7-7V25A7,7,0,0,1,445.83,18Z" transform="translate(942.68 105.25) rotate(-180)"/><line class="cls-19" x1="67.39" y1="86.63" x2="67.37" y2="86.66"/><path class="cls-20" d="M23.35,19.13h7.29v69H23.35S16.05,53.63,23.35,19.13Z"/><path d="M28.78,79.23a2.47,2.47,0,0,1-.3,1.21,2.22,2.22,0,0,1-.89.88,3,3,0,0,1-1.48.33,3,3,0,0,1-1.47-.34,2.36,2.36,0,0,1-1.26-2.12,1.87,1.87,0,0,1,.2-.9,2.68,2.68,0,0,1,.48-.67l.75.63a2,2,0,0,0-.3.42,1,1,0,0,0-.12.5,1.12,1.12,0,0,0,.45.9,1.86,1.86,0,0,0,1.23.38,2,2,0,0,0,1.25-.35,1.09,1.09,0,0,0,.45-.92,1.2,1.2,0,0,0-.14-.57,1.51,1.51,0,0,0-.35-.44l.74-.63A2.12,2.12,0,0,1,28.78,79.23Z"/><path d="M28.78,74.93a2.21,2.21,0,0,1-.72,1.71,2.85,2.85,0,0,1-2,.65,2.75,2.75,0,0,1-2-.65,2.45,2.45,0,0,1,0-3.43,2.83,2.83,0,0,1,2-.65,2.9,2.9,0,0,1,2,.65A2.22,2.22,0,0,1,28.78,74.93Zm-1,0a1,1,0,0,0-.47-.85,2.15,2.15,0,0,0-1.24-.31,2.06,2.06,0,0,0-1.22.31,1,1,0,0,0-.45.85,1,1,0,0,0,.45.84,2.06,2.06,0,0,0,1.22.32,2.15,2.15,0,0,0,1.24-.32A1,1,0,0,0,27.77,74.93Z"/><path d="M28.78,69.52a1.94,1.94,0,0,1-.6,1.55,2.79,2.79,0,0,1-1.91.54h-2.8V70.42h2.92a1.78,1.78,0,0,0,1.07-.23.77.77,0,0,0,.31-.67.81.81,0,0,0-.31-.68,1.77,1.77,0,0,0-1.07-.24H23.47V67.46h2.8a2.85,2.85,0,0,1,1.91.53A1.89,1.89,0,0,1,28.78,69.52Z"/><path d="M28.69,66.25H23.47V64.46A2.8,2.8,0,0,1,23.84,63a1.4,1.4,0,0,1,1.31-.61A1.53,1.53,0,0,1,26.5,63a2.44,2.44,0,0,1,.42,1.43v.65h1.77ZM26,65.08V64.5c0-.64-.27-1-.83-1a.63.63,0,0,0-.57.26,1.27,1.27,0,0,0-.17.74v.54Z"/><path d="M28.69,61.49H23.47V60.31H27.7V58.25h1Z"/><path d="M28.69,57.34H23.47V56.17h5.22Z"/><path d="M28.69,54.93H23.47v-1.2l2.59-1.36,1.16-.51v0l-.93.09a8.44,8.44,0,0,1-1,.06H23.47V50.85h5.22v1.2l-2.6,1.36L25,53.93v0l.93-.09a7.92,7.92,0,0,1,1,0h1.85Z"/><path d="M28.78,47.31a2.45,2.45,0,0,1-2.67,2.55,3,3,0,0,1-1.47-.34,2.4,2.4,0,0,1-.94-.93,2.5,2.5,0,0,1-.32-1.27,2.1,2.1,0,0,1,.21-1,2.16,2.16,0,0,1,.47-.67l.75.61a2.38,2.38,0,0,0-.3.43,1.19,1.19,0,0,0-.12.56,1.24,1.24,0,0,0,.45,1,1.81,1.81,0,0,0,1.23.39,1.92,1.92,0,0,0,1.25-.37,1.33,1.33,0,0,0,.45-1.1.91.91,0,0,0-.16-.56h-.9v.87h-1V45.59h2.4a2.07,2.07,0,0,1,.45.73A2.64,2.64,0,0,1,28.78,47.31Z"/><path d="M28.69,42.91H23.47V41.74H27.7V39.67h1Z"/><path d="M28.69,38.77H23.47V35.5h1v2.09h1.05V35.82h1v1.77h1.2V35.42h1Z"/><path d="M28.69,34.38H23.47V33.17l2.59-1.35,1.16-.52v0l-.93.09a8.36,8.36,0,0,1-1,.05H23.47V30.29h5.22V31.5l-2.6,1.36L25,33.37v0l.93-.09a8,8,0,0,1,1-.06h1.85Z"/><path d="M28.78,27.47a2.92,2.92,0,0,1-.19,1,2.63,2.63,0,0,1-.56.9l-.81-.67a2.59,2.59,0,0,0,.4-.63,1.65,1.65,0,0,0,.15-.66c0-.49-.17-.73-.51-.73a.4.4,0,0,0-.36.2,6,6,0,0,0-.26.55l-.29.68a1.87,1.87,0,0,1-.51.73,1.29,1.29,0,0,1-.91.32,1.4,1.4,0,0,1-1.1-.52,2,2,0,0,1-.45-1.34,2.6,2.6,0,0,1,.17-.89,2.29,2.29,0,0,1,.51-.78l.75.6a2,2,0,0,0-.31.51,1.47,1.47,0,0,0-.11.56.79.79,0,0,0,.13.49.38.38,0,0,0,.34.18.39.39,0,0,0,.36-.23c.08-.15.17-.34.26-.56l.27-.67a2,2,0,0,1,.53-.76,1.37,1.37,0,0,1,.89-.28A1.52,1.52,0,0,1,28.3,26,2,2,0,0,1,28.78,27.47Z"/><path class="cls-21" d="M426.86,13V7.12h1.66l.88,2.4.15.51c.05.17.1.34.16.51h0a4.91,4.91,0,0,0,.15-.51c.05-.18.1-.35.16-.51l.84-2.4h1.66V13h-1.4V11.25a8.38,8.38,0,0,1,.07-1.05c0-.4.09-.75.12-1h0l-.49,1.4-.72,1.94h-.83l-.72-1.94-.46-1.4h0c0,.29.08.64.12,1a8.56,8.56,0,0,1,.08,1.05V13Z"/><path class="cls-21" d="M436.24,13.08a2.25,2.25,0,0,1-1.83-.72,3.41,3.41,0,0,1-.6-2.21v-3h1.55v3.21a2.1,2.1,0,0,0,.21,1.1.75.75,0,0,0,.67.32.78.78,0,0,0,.68-.32,2,2,0,0,0,.22-1.1V7.12h1.49v3a3.48,3.48,0,0,1-.58,2.21A2.2,2.2,0,0,1,436.24,13.08Z"/><path class="cls-21" d="M439.89,13V7.12h1.55v4.56h2.22V13Z"/><path class="cls-21" d="M444.7,13V8.42h-1.55V7.12h4.64v1.3h-1.54V13Z"/><path class="cls-21" d="M448.66,13V7.12h1.55V13Z"/><path class="cls-21" d="M451.5,13V7.12h1.55v4.56h2.21V13Z"/><path class="cls-21" d="M459.24,13,459,11.73h-1.63L457,13h-1.59l1.79-5.85h1.87L460.88,13Zm-1.55-2.84-.09.4h1.08l-.1-.4c-.08-.28-.15-.58-.22-.92s-.14-.64-.22-.94h0c-.06.31-.13.62-.2,1S457.77,9.85,457.69,10.13Z"/><path class="cls-21" d="M463.29,13.08a3.46,3.46,0,0,1-1.15-.21,2.87,2.87,0,0,1-1.06-.63l.88-1.06a2.62,2.62,0,0,0,.68.41,1.65,1.65,0,0,0,.69.16c.44,0,.67-.14.67-.42a.35.35,0,0,0-.22-.31l-.58-.25-.73-.31a2.05,2.05,0,0,1-.82-.59,1.51,1.51,0,0,1-.36-1,1.65,1.65,0,0,1,.62-1.28A2.26,2.26,0,0,1,463.47,7a2.85,2.85,0,0,1,1,.2,2.54,2.54,0,0,1,.93.59l-.78,1a2.7,2.7,0,0,0-.57-.31,1.46,1.46,0,0,0-.6-.11c-.41,0-.61.13-.61.39a.35.35,0,0,0,.23.32q.24.12.63.27l.72.28a1.9,1.9,0,0,1,.84.6,1.59,1.59,0,0,1,.3,1,1.73,1.73,0,0,1-.6,1.3A2.34,2.34,0,0,1,463.29,13.08Z"/><path class="cls-21" d="M466.51,13V7.12h3.79v1.3h-2.24v.92H470v1.29h-1.91v1h2.32V13Z"/><path class="cls-21" d="M473.07,13h-1.55V7.12h2.21a3.87,3.87,0,0,1,1.16.17,1.81,1.81,0,0,1,.86.58A1.86,1.86,0,0,1,476.07,9a1.9,1.9,0,0,1-.26,1.05,1.93,1.93,0,0,1-.68.65L476.4,13h-1.73l-1-2h-.59Zm0-3.18h.55c.63,0,.94-.26.94-.78a.56.56,0,0,0-.24-.52,1.33,1.33,0,0,0-.7-.14h-.55Z"/><path class="cls-21" d="M479,13V7.12h3.78v1.3h-2.23v.92h1.9v1.29h-1.9v1h2.32V13Z"/><path class="cls-21" d="M484,13V7.12h1.59l1.29,2.61.56,1.32h0c0-.32-.08-.68-.13-1.08a9.6,9.6,0,0,1-.07-1.16V7.12h1.47V13h-1.58l-1.3-2.62-.55-1.3h0c0,.33.08.7.13,1.1a11.23,11.23,0,0,1,.07,1.13V13Z"/><path class="cls-21" d="M492.74,13.08a3.33,3.33,0,0,1-1.49-.33,2.57,2.57,0,0,1-1.07-1,3.21,3.21,0,0,1-.39-1.66,3.25,3.25,0,0,1,.4-1.67,2.76,2.76,0,0,1,1.07-1A3,3,0,0,1,492.7,7a2.48,2.48,0,0,1,1.13.24,2.57,2.57,0,0,1,.78.54l-.81,1a1.9,1.9,0,0,0-.45-.31,1.32,1.32,0,0,0-.59-.12,1.25,1.25,0,0,0-1,.45,1.78,1.78,0,0,0-.4,1.24,1.92,1.92,0,0,0,.38,1.27,1.43,1.43,0,0,0,1.15.44.83.83,0,0,0,.45-.11v-.81h-.86V9.57h2.23v2.79a2.45,2.45,0,0,1-.83.51A3.09,3.09,0,0,1,492.74,13.08Z"/><path class="cls-21" d="M495.85,13V7.12h1.55V13Z"/><path class="cls-21" d="M498.7,13V7.12h1.58l1.3,2.61.56,1.32h0c0-.32-.08-.68-.12-1.08A9.7,9.7,0,0,1,502,8.81V7.12h1.48V13h-1.58l-1.3-2.62L500,9.05h0c0,.33.07.7.12,1.1a8.9,8.9,0,0,1,.07,1.13V13Z"/><path class="cls-21" d="M504.75,13V7.12h3.78v1.3h-2.24v.92h1.91v1.29h-1.91v1h2.33V13Z"/><path class="cls-21" d="M77.76,45.32V39.43h1.8a3.08,3.08,0,0,1,1.62.39,1.5,1.5,0,0,1,.64,1.4,1.65,1.65,0,0,1-.63,1.42,2.6,2.6,0,0,1-1.59.46h-.9v2.22Zm.94-3h.81c.91,0,1.37-.37,1.37-1.12a.91.91,0,0,0-.35-.81,2,2,0,0,0-1.06-.23H78.7Z"/><path class="cls-21" d="M83.79,45.43a.79.79,0,0,1-.71-.31,1.38,1.38,0,0,1-.22-.84V39h.94v5.38q0,.33.21.33h.17l.12.7-.21.06Z"/><path class="cls-21" d="M86.3,45.43a1.32,1.32,0,0,1-.94-.35,1.32,1.32,0,0,1,.27-2,5,5,0,0,1,2-.54,1.21,1.21,0,0,0-.18-.66.71.71,0,0,0-.65-.28,1.67,1.67,0,0,0-.67.13,3.38,3.38,0,0,0-.6.31l-.36-.62A4.37,4.37,0,0,1,86,41a2.63,2.63,0,0,1,1-.18,1.49,1.49,0,0,1,1.22.49,2.19,2.19,0,0,1,.39,1.39v2.63h-.78l-.07-.5h0a3.93,3.93,0,0,1-.66.43A1.59,1.59,0,0,1,86.3,45.43Zm.29-.74a1.06,1.06,0,0,0,.52-.13,2.73,2.73,0,0,0,.52-.38V43.11a3.47,3.47,0,0,0-1.35.37.71.71,0,0,0-.38.6.55.55,0,0,0,.2.47A.86.86,0,0,0,86.59,44.69Z"/><path class="cls-21" d="M91.66,45.43a2,2,0,0,1-1.5-.6,2.3,2.3,0,0,1-.6-1.7,2.24,2.24,0,0,1,.65-1.71,2.2,2.2,0,0,1,1.53-.61,1.67,1.67,0,0,1,.73.15,1.92,1.92,0,0,1,.55.35l-.46.61a1.14,1.14,0,0,0-.78-.34,1.11,1.11,0,0,0-.91.43,1.66,1.66,0,0,0-.36,1.12,1.7,1.7,0,0,0,.35,1.11,1.1,1.1,0,0,0,.89.42,1.16,1.16,0,0,0,.52-.11,2.23,2.23,0,0,0,.44-.29l.38.62A2.09,2.09,0,0,1,91.66,45.43Z"/><path class="cls-21" d="M95.63,45.43a2.08,2.08,0,0,1-1.52-.61,2.27,2.27,0,0,1-.62-1.69,2.53,2.53,0,0,1,.29-1.24,2.07,2.07,0,0,1,.75-.8,1.88,1.88,0,0,1,1-.28,1.62,1.62,0,0,1,1.34.57,2.34,2.34,0,0,1,.46,1.51,2,2,0,0,1,0,.48H94.4a1.56,1.56,0,0,0,.43,1,1.29,1.29,0,0,0,.93.35,1.61,1.61,0,0,0,.54-.09,2.3,2.3,0,0,0,.5-.24l.33.59a2.94,2.94,0,0,1-.69.33A2.16,2.16,0,0,1,95.63,45.43Zm-1.24-2.71h2.1c0-.78-.32-1.18-1-1.18a1,1,0,0,0-.74.31A1.31,1.31,0,0,0,94.39,42.72Z"/><path class="cls-21" d="M75.44,56.12V50.23h.94v5.1h2.5v.79Z"/><path class="cls-21" d="M80.87,56.23a1.29,1.29,0,0,1-.93-.35,1.23,1.23,0,0,1-.36-.93,1.24,1.24,0,0,1,.62-1.1,5,5,0,0,1,2-.54,1.31,1.31,0,0,0-.19-.66.7.7,0,0,0-.65-.28,1.67,1.67,0,0,0-.67.13,4.25,4.25,0,0,0-.6.31l-.35-.62a4.26,4.26,0,0,1,.8-.4,2.67,2.67,0,0,1,1-.18,1.49,1.49,0,0,1,1.22.49,2.19,2.19,0,0,1,.39,1.39v2.63h-.77l-.07-.5h0a3.85,3.85,0,0,1-.65.43A1.6,1.6,0,0,1,80.87,56.23Zm.29-.74a1.09,1.09,0,0,0,.53-.13,3.09,3.09,0,0,0,.52-.38V53.91a3.47,3.47,0,0,0-1.35.37.69.69,0,0,0-.38.6.52.52,0,0,0,.2.47A.83.83,0,0,0,81.16,55.49Z"/><path class="cls-21" d="M85.63,56.23a2.32,2.32,0,0,1-.89-.18,2.65,2.65,0,0,1-.76-.43l.44-.61a3.12,3.12,0,0,0,.58.37,1.59,1.59,0,0,0,.66.14.87.87,0,0,0,.58-.17.55.55,0,0,0,.19-.42.48.48,0,0,0-.31-.45,5.19,5.19,0,0,0-.67-.29,4.61,4.61,0,0,1-.85-.45,1,1,0,0,1-.41-.84,1.16,1.16,0,0,1,.42-.92,1.68,1.68,0,0,1,1.16-.37,2,2,0,0,1,.81.16,2.47,2.47,0,0,1,.62.36l-.43.57a2.83,2.83,0,0,0-.47-.27,1.26,1.26,0,0,0-.51-.11.74.74,0,0,0-.54.16.47.47,0,0,0-.17.38.43.43,0,0,0,.28.41,6.9,6.9,0,0,0,.66.28,5.07,5.07,0,0,1,.87.44,1,1,0,0,1,.42.89,1.23,1.23,0,0,1-.43.95A1.74,1.74,0,0,1,85.63,56.23Z"/><path class="cls-21" d="M90.12,56.23a2.1,2.1,0,0,1-1.53-.61A2.27,2.27,0,0,1,88,53.93a2.53,2.53,0,0,1,.29-1.24,2.07,2.07,0,0,1,.75-.8,1.91,1.91,0,0,1,1-.28,1.61,1.61,0,0,1,1.34.57,2.34,2.34,0,0,1,.46,1.51,2.09,2.09,0,0,1,0,.48H88.88a1.56,1.56,0,0,0,.43,1,1.29,1.29,0,0,0,.93.35,1.67,1.67,0,0,0,.55-.09,2.85,2.85,0,0,0,.5-.24l.32.59a3.3,3.3,0,0,1-.68.33A2.23,2.23,0,0,1,90.12,56.23Zm-1.25-2.71H91c0-.78-.32-1.18-1-1.18a1,1,0,0,0-.74.31A1.41,1.41,0,0,0,88.87,53.52Z"/><path class="cls-21" d="M92.8,56.12v-4.4h.77l.07.78h0a1.43,1.43,0,0,1,1.25-.89,1.16,1.16,0,0,1,.49.09l-.16.81-.22,0-.23,0a1,1,0,0,0-.56.21,1.61,1.61,0,0,0-.51.74v2.73Z"/><path class="cls-21" d="M97.87,56.12v-.76h1.29V51.43h-1v-.58a4.24,4.24,0,0,0,1.29-.46h.7v5h1.15v.76Z"/><path class="cls-21" d="M79.89,66.92V61h1v2.4h2.51V61h.94v5.89h-.94V64.26H80.84v2.66Z"/><path class="cls-21" d="M87.59,67a2.07,2.07,0,0,1-1.52-.61,2.23,2.23,0,0,1-.62-1.69,2.52,2.52,0,0,1,.28-1.24,2.15,2.15,0,0,1,.75-.8,1.91,1.91,0,0,1,1-.28,1.61,1.61,0,0,1,1.34.57,2.34,2.34,0,0,1,.46,1.51,2.09,2.09,0,0,1,0,.48H86.35a1.62,1.62,0,0,0,.43,1,1.31,1.31,0,0,0,.93.35,1.63,1.63,0,0,0,.55-.09,2.55,2.55,0,0,0,.5-.24l.32.59a3.3,3.3,0,0,1-.68.33A2.16,2.16,0,0,1,87.59,67Zm-1.24-2.71h2.09c0-.78-.32-1.18-1-1.18a1,1,0,0,0-.74.31A1.35,1.35,0,0,0,86.35,64.32Z"/><path class="cls-21" d="M90.27,66.92v-4.4H91l.08.78h0a1.43,1.43,0,0,1,1.25-.89,1.16,1.16,0,0,1,.49.09l-.16.81-.21-.05-.24,0a1,1,0,0,0-.56.21,1.53,1.53,0,0,0-.5.74v2.73Z"/><path class="cls-21" d="M95.3,67a2.07,2.07,0,0,1-1.52-.61,2.27,2.27,0,0,1-.62-1.69,2.42,2.42,0,0,1,.29-1.24,2.12,2.12,0,0,1,.74-.8,1.92,1.92,0,0,1,1-.28,1.63,1.63,0,0,1,1.34.57A2.4,2.4,0,0,1,97,64.49a2,2,0,0,1,0,.48H94.07a1.51,1.51,0,0,0,.43,1,1.29,1.29,0,0,0,.93.35,1.61,1.61,0,0,0,.54-.09,2.55,2.55,0,0,0,.5-.24l.32.59a3.3,3.3,0,0,1-.68.33A2.16,2.16,0,0,1,95.3,67Zm-1.24-2.71h2.1c0-.78-.33-1.18-1-1.18a1,1,0,0,0-.73.31A1.31,1.31,0,0,0,94.06,64.32Z"/><path class="cls-21" d="M154.56,45.62V39.73h1.8a3.08,3.08,0,0,1,1.62.39,1.5,1.5,0,0,1,.64,1.4,1.65,1.65,0,0,1-.63,1.42,2.6,2.6,0,0,1-1.59.46h-.9v2.22Zm.94-3h.81c.91,0,1.37-.37,1.37-1.12a.91.91,0,0,0-.35-.81,2,2,0,0,0-1.06-.23h-.77Z"/><path class="cls-21" d="M160.59,45.73a.79.79,0,0,1-.71-.31,1.38,1.38,0,0,1-.22-.84V39.25h.94v5.38q0,.33.21.33H161l.12.7-.21.06Z"/><path class="cls-21" d="M163.1,45.73a1.32,1.32,0,0,1-.94-.35,1.32,1.32,0,0,1,.27-2,5,5,0,0,1,2-.54,1.3,1.3,0,0,0-.18-.66.72.72,0,0,0-.66-.28,1.74,1.74,0,0,0-.67.13,3.66,3.66,0,0,0-.59.31l-.35-.62a4,4,0,0,1,.8-.4,2.63,2.63,0,0,1,1-.18,1.49,1.49,0,0,1,1.22.49,2.19,2.19,0,0,1,.39,1.39v2.63h-.78l-.07-.5h0a3.93,3.93,0,0,1-.66.43A1.59,1.59,0,0,1,163.1,45.73Zm.29-.74a1.12,1.12,0,0,0,.53-.13,3,3,0,0,0,.51-.38V43.41a3.53,3.53,0,0,0-1.35.37.71.71,0,0,0-.38.6.55.55,0,0,0,.2.47A.86.86,0,0,0,163.39,45Z"/><path class="cls-21" d="M168.46,45.73a2,2,0,0,1-1.5-.6,2.3,2.3,0,0,1-.6-1.7,2.24,2.24,0,0,1,.65-1.71,2.2,2.2,0,0,1,1.53-.61,1.67,1.67,0,0,1,.73.15,1.92,1.92,0,0,1,.55.35l-.46.61a1.16,1.16,0,0,0-.78-.34,1.12,1.12,0,0,0-.91.43,1.66,1.66,0,0,0-.36,1.12,1.7,1.7,0,0,0,.35,1.11,1.1,1.1,0,0,0,.89.42,1.16,1.16,0,0,0,.52-.11,2.23,2.23,0,0,0,.44-.29l.39.62A2.11,2.11,0,0,1,168.46,45.73Z"/><path class="cls-21" d="M172.43,45.73a2.08,2.08,0,0,1-1.52-.61,2.27,2.27,0,0,1-.62-1.69,2.53,2.53,0,0,1,.29-1.24,2.07,2.07,0,0,1,.75-.8,1.88,1.88,0,0,1,1-.28,1.62,1.62,0,0,1,1.34.57,2.34,2.34,0,0,1,.46,1.51,2,2,0,0,1,0,.48H171.2a1.51,1.51,0,0,0,.43,1,1.29,1.29,0,0,0,.93.35,1.61,1.61,0,0,0,.54-.09,2.55,2.55,0,0,0,.5-.24l.33.59a3.39,3.39,0,0,1-.69.33A2.16,2.16,0,0,1,172.43,45.73ZM171.19,43h2.1c0-.78-.33-1.18-1-1.18a1,1,0,0,0-.74.31A1.31,1.31,0,0,0,171.19,43Z"/><path class="cls-21" d="M152.24,56.42V50.53h.94v5.1h2.5v.79Z"/><path class="cls-21" d="M157.67,56.53a1.29,1.29,0,0,1-.93-.35,1.23,1.23,0,0,1-.36-.93,1.24,1.24,0,0,1,.62-1.1,5,5,0,0,1,2-.54,1.21,1.21,0,0,0-.18-.66.7.7,0,0,0-.65-.28,1.67,1.67,0,0,0-.67.13,4.25,4.25,0,0,0-.6.31l-.35-.62a4.26,4.26,0,0,1,.8-.4,2.67,2.67,0,0,1,1-.18,1.49,1.49,0,0,1,1.22.49,2.19,2.19,0,0,1,.39,1.39v2.63h-.77l-.07-.5h0a3.85,3.85,0,0,1-.65.43A1.63,1.63,0,0,1,157.67,56.53Zm.29-.74a1.09,1.09,0,0,0,.53-.13,2.69,2.69,0,0,0,.51-.38V54.21a3.3,3.3,0,0,0-1.34.37.69.69,0,0,0-.38.6.52.52,0,0,0,.2.47A.83.83,0,0,0,158,55.79Z"/><path class="cls-21" d="M162.43,56.53a2.41,2.41,0,0,1-.9-.18,2.73,2.73,0,0,1-.75-.43l.44-.61a3.12,3.12,0,0,0,.58.37,1.59,1.59,0,0,0,.66.14.87.87,0,0,0,.58-.17.55.55,0,0,0,.19-.42.5.5,0,0,0-.31-.45,5.19,5.19,0,0,0-.67-.29,4.61,4.61,0,0,1-.85-.45,1,1,0,0,1-.4-.84,1.15,1.15,0,0,1,.41-.92,1.68,1.68,0,0,1,1.16-.37,2,2,0,0,1,.81.16,2.47,2.47,0,0,1,.62.36l-.43.57a3.3,3.3,0,0,0-.47-.27,1.26,1.26,0,0,0-.51-.11.74.74,0,0,0-.54.16.46.46,0,0,0-.17.38.43.43,0,0,0,.29.41,5.76,5.76,0,0,0,.65.28,5.07,5.07,0,0,1,.87.44,1,1,0,0,1,.42.89,1.23,1.23,0,0,1-.43,1A1.74,1.74,0,0,1,162.43,56.53Z"/><path class="cls-21" d="M166.92,56.53a2.07,2.07,0,0,1-1.52-.61,2.23,2.23,0,0,1-.63-1.69,2.53,2.53,0,0,1,.29-1.24,2.07,2.07,0,0,1,.75-.8,1.91,1.91,0,0,1,1-.28,1.61,1.61,0,0,1,1.34.57,2.34,2.34,0,0,1,.46,1.51,2.09,2.09,0,0,1,0,.48h-2.86a1.62,1.62,0,0,0,.43,1,1.29,1.29,0,0,0,.93.35,1.67,1.67,0,0,0,.55-.09,2.85,2.85,0,0,0,.5-.24l.32.59a3.3,3.3,0,0,1-.68.33A2.23,2.23,0,0,1,166.92,56.53Zm-1.25-2.71h2.1c0-.78-.32-1.18-1-1.18a1,1,0,0,0-.74.31A1.36,1.36,0,0,0,165.67,53.82Z"/><path class="cls-21" d="M169.6,56.42V52h.77l.07.78h0a1.43,1.43,0,0,1,1.25-.89,1.16,1.16,0,0,1,.49.09l-.16.81-.21-.05-.24,0A1,1,0,0,0,171,53a1.61,1.61,0,0,0-.51.74v2.73Z"/><path class="cls-21" d="M174.34,56.42v-.55a27.2,27.2,0,0,0,1.93-2,2.39,2.39,0,0,0,.7-1.49,1.13,1.13,0,0,0-.25-.75,1,1,0,0,0-.75-.28,1.09,1.09,0,0,0-.63.19,2.31,2.31,0,0,0-.52.47l-.52-.53a3.22,3.22,0,0,1,.8-.65,2.08,2.08,0,0,1,1-.23,1.78,1.78,0,0,1,1.29.47,1.71,1.71,0,0,1,.48,1.27,2.63,2.63,0,0,1-.63,1.59,20.15,20.15,0,0,1-1.54,1.77l.49,0,.47,0h1.49v.79Z"/><path class="cls-21" d="M156.69,67.22V61.33h.95v2.4h2.51v-2.4h.94v5.89h-.94V64.56h-2.51v2.66Z"/><path class="cls-21" d="M164.39,67.33a2.07,2.07,0,0,1-1.52-.61,2.23,2.23,0,0,1-.62-1.69,2.52,2.52,0,0,1,.28-1.24,2.15,2.15,0,0,1,.75-.8,1.91,1.91,0,0,1,1-.28,1.61,1.61,0,0,1,1.34.57,2.33,2.33,0,0,1,.46,1.51,2.09,2.09,0,0,1,0,.48h-2.86a1.62,1.62,0,0,0,.43,1,1.33,1.33,0,0,0,.93.35,1.63,1.63,0,0,0,.55-.09,2.55,2.55,0,0,0,.5-.24l.32.59a3.3,3.3,0,0,1-.68.33A2.19,2.19,0,0,1,164.39,67.33Zm-1.24-2.71h2.09c0-.79-.32-1.18-1-1.18a1,1,0,0,0-.74.31A1.35,1.35,0,0,0,163.15,64.62Z"/><path class="cls-21" d="M167.07,67.22v-4.4h.77l.08.78h0a1.43,1.43,0,0,1,1.25-.89,1.16,1.16,0,0,1,.49.09l-.16.81-.21,0-.24,0a1,1,0,0,0-.56.21,1.61,1.61,0,0,0-.51.74v2.73Z"/><path class="cls-21" d="M172.1,67.33a2.07,2.07,0,0,1-1.52-.61A2.27,2.27,0,0,1,170,65a2.42,2.42,0,0,1,.29-1.24A2.12,2.12,0,0,1,171,63a1.92,1.92,0,0,1,1-.28,1.63,1.63,0,0,1,1.34.57,2.38,2.38,0,0,1,.45,1.51,2.09,2.09,0,0,1,0,.48h-2.85a1.51,1.51,0,0,0,.43,1,1.29,1.29,0,0,0,.93.35,1.61,1.61,0,0,0,.54-.09,2.55,2.55,0,0,0,.5-.24l.32.59a3.3,3.3,0,0,1-.68.33A2.16,2.16,0,0,1,172.1,67.33Zm-1.24-2.71H173c0-.79-.33-1.18-1-1.18a1,1,0,0,0-.73.31A1.31,1.31,0,0,0,170.86,64.62Z"/><path class="cls-21" d="M231.36,45.92V40h1.8a3.08,3.08,0,0,1,1.62.39,1.5,1.5,0,0,1,.64,1.4,1.65,1.65,0,0,1-.63,1.42,2.6,2.6,0,0,1-1.59.46h-.9v2.22Zm.94-3h.81c.91,0,1.37-.37,1.37-1.12a.9.9,0,0,0-.35-.81,2,2,0,0,0-1.06-.23h-.77Z"/><path class="cls-21" d="M237.39,46a.79.79,0,0,1-.71-.31,1.38,1.38,0,0,1-.22-.84V39.55h.94v5.38q0,.33.21.33h.17l.12.7-.21.06Z"/><path class="cls-21" d="M239.9,46a1.32,1.32,0,0,1-.94-.35,1.32,1.32,0,0,1,.27-2,5,5,0,0,1,2-.54,1.21,1.21,0,0,0-.18-.66.71.71,0,0,0-.65-.28,1.75,1.75,0,0,0-.68.13,3.66,3.66,0,0,0-.59.31l-.36-.62a4.37,4.37,0,0,1,.81-.4,2.63,2.63,0,0,1,1-.18,1.49,1.49,0,0,1,1.22.49,2.19,2.19,0,0,1,.39,1.39v2.63h-.78l-.07-.5h0a3.93,3.93,0,0,1-.66.43A1.59,1.59,0,0,1,239.9,46Zm.29-.74a1.06,1.06,0,0,0,.52-.13,2.73,2.73,0,0,0,.52-.38V43.71a3.3,3.3,0,0,0-1.35.37.71.71,0,0,0-.38.6.55.55,0,0,0,.2.47A.86.86,0,0,0,240.19,45.29Z"/><path class="cls-21" d="M245.25,46a2,2,0,0,1-1.49-.6,2.3,2.3,0,0,1-.6-1.7,2.24,2.24,0,0,1,.65-1.71,2.2,2.2,0,0,1,1.53-.61,1.67,1.67,0,0,1,.73.15,1.92,1.92,0,0,1,.55.35l-.46.61a1.14,1.14,0,0,0-.78-.34,1.11,1.11,0,0,0-.91.43,1.66,1.66,0,0,0-.36,1.12,1.7,1.7,0,0,0,.35,1.11,1.1,1.1,0,0,0,.89.42,1.16,1.16,0,0,0,.52-.11,2.23,2.23,0,0,0,.44-.29l.38.62A2.09,2.09,0,0,1,245.25,46Z"/><path class="cls-21" d="M249.23,46a2.08,2.08,0,0,1-1.52-.61,2.27,2.27,0,0,1-.62-1.69,2.53,2.53,0,0,1,.29-1.24,2.07,2.07,0,0,1,.75-.8,1.88,1.88,0,0,1,1-.28,1.62,1.62,0,0,1,1.34.57,2.34,2.34,0,0,1,.46,1.51,2,2,0,0,1-.05.48H248a1.51,1.51,0,0,0,.43,1,1.29,1.29,0,0,0,.93.35,1.61,1.61,0,0,0,.54-.09,2.3,2.3,0,0,0,.5-.24l.33.59a3.39,3.39,0,0,1-.69.33A2.16,2.16,0,0,1,249.23,46ZM248,43.32h2.1c0-.78-.33-1.18-1-1.18a1,1,0,0,0-.74.31A1.31,1.31,0,0,0,248,43.32Z"/><path class="cls-21" d="M229,56.72V50.83H230v5.1h2.5v.79Z"/><path class="cls-21" d="M234.47,56.83a1.29,1.29,0,0,1-.93-.35,1.23,1.23,0,0,1-.36-.93,1.24,1.24,0,0,1,.62-1.1,5,5,0,0,1,2-.54,1.31,1.31,0,0,0-.19-.66A.7.7,0,0,0,235,53a1.67,1.67,0,0,0-.67.13,4.25,4.25,0,0,0-.6.31l-.35-.62a3.73,3.73,0,0,1,.8-.4,2.67,2.67,0,0,1,1-.18,1.49,1.49,0,0,1,1.22.49,2.18,2.18,0,0,1,.39,1.38v2.64H236l-.07-.5h0a3.85,3.85,0,0,1-.65.43A1.6,1.6,0,0,1,234.47,56.83Zm.29-.74a1.09,1.09,0,0,0,.53-.13,3.09,3.09,0,0,0,.52-.38V54.51a3.3,3.3,0,0,0-1.35.37.69.69,0,0,0-.38.6.52.52,0,0,0,.2.47A.83.83,0,0,0,234.76,56.09Z"/><path class="cls-21" d="M239.23,56.83a2.32,2.32,0,0,1-.89-.18,2.65,2.65,0,0,1-.76-.43l.44-.61a3.12,3.12,0,0,0,.58.37,1.59,1.59,0,0,0,.66.14.87.87,0,0,0,.58-.17.55.55,0,0,0,.19-.42.5.5,0,0,0-.31-.45,5.19,5.19,0,0,0-.67-.29,4.61,4.61,0,0,1-.85-.45,1,1,0,0,1-.41-.84,1.16,1.16,0,0,1,.42-.92,1.68,1.68,0,0,1,1.16-.37,1.91,1.91,0,0,1,.8.16,2.37,2.37,0,0,1,.63.36l-.43.57a3.3,3.3,0,0,0-.47-.27,1.26,1.26,0,0,0-.51-.11.74.74,0,0,0-.54.16.46.46,0,0,0-.17.38.43.43,0,0,0,.28.41,6.9,6.9,0,0,0,.66.28,5.07,5.07,0,0,1,.87.44,1,1,0,0,1,.42.89,1.23,1.23,0,0,1-.43,1A1.74,1.74,0,0,1,239.23,56.83Z"/><path class="cls-21" d="M243.72,56.83a2.1,2.1,0,0,1-1.53-.61,2.27,2.27,0,0,1-.62-1.69,2.53,2.53,0,0,1,.29-1.24,2.07,2.07,0,0,1,.75-.8,1.91,1.91,0,0,1,1-.28,1.61,1.61,0,0,1,1.34.57,2.33,2.33,0,0,1,.46,1.51,2.09,2.09,0,0,1,0,.48h-2.86a1.56,1.56,0,0,0,.43,1,1.29,1.29,0,0,0,.93.35,1.67,1.67,0,0,0,.55-.09,2.85,2.85,0,0,0,.5-.24l.32.59a3.3,3.3,0,0,1-.68.33A2.23,2.23,0,0,1,243.72,56.83Zm-1.25-2.71h2.1c0-.79-.32-1.18-1-1.18a1,1,0,0,0-.74.31A1.41,1.41,0,0,0,242.47,54.12Z"/><path class="cls-21" d="M246.4,56.72v-4.4h.77l.07.78h0a1.43,1.43,0,0,1,1.25-.89,1.16,1.16,0,0,1,.49.09l-.16.81-.22,0-.23,0a1,1,0,0,0-.56.21,1.61,1.61,0,0,0-.51.74v2.73Z"/><path class="cls-21" d="M252.93,56.83a2.51,2.51,0,0,1-1.15-.24A2.71,2.71,0,0,1,251,56l.45-.6a3.36,3.36,0,0,0,.6.45,1.58,1.58,0,0,0,.8.19,1.29,1.29,0,0,0,.8-.24.85.85,0,0,0,.31-.68.9.9,0,0,0-.38-.75,2.34,2.34,0,0,0-1.36-.29v-.69a1.88,1.88,0,0,0,1.2-.28.83.83,0,0,0,.34-.68.77.77,0,0,0-.24-.6.92.92,0,0,0-.66-.22,1.33,1.33,0,0,0-.63.15,2.27,2.27,0,0,0-.54.41l-.49-.59a3.59,3.59,0,0,1,.77-.52,2.12,2.12,0,0,1,.93-.2,2.07,2.07,0,0,1,1.3.39,1.3,1.3,0,0,1,.5,1.1,1.26,1.26,0,0,1-.27.83,1.75,1.75,0,0,1-.74.51v0a1.8,1.8,0,0,1,.86.49,1.33,1.33,0,0,1,.34,1,1.43,1.43,0,0,1-.57,1.21A2.27,2.27,0,0,1,252.93,56.83Z"/><path class="cls-21" d="M233.49,67.52V61.63h.95V64H237v-2.4h.94v5.89H237V64.86h-2.51v2.66Z"/><path class="cls-21" d="M241.19,67.63a2.07,2.07,0,0,1-1.52-.61,2.23,2.23,0,0,1-.62-1.69,2.52,2.52,0,0,1,.28-1.24,2.15,2.15,0,0,1,.75-.8,1.91,1.91,0,0,1,1-.28,1.61,1.61,0,0,1,1.34.57,2.33,2.33,0,0,1,.46,1.51,2.09,2.09,0,0,1,0,.48H240a1.56,1.56,0,0,0,.43,1,1.26,1.26,0,0,0,.93.36,1.67,1.67,0,0,0,.55-.09,2.55,2.55,0,0,0,.5-.24l.32.59a3.3,3.3,0,0,1-.68.33A2.38,2.38,0,0,1,241.19,67.63ZM240,64.92H242c0-.79-.32-1.18-1-1.18a1,1,0,0,0-.74.31A1.35,1.35,0,0,0,240,64.92Z"/><path class="cls-21" d="M243.87,67.52v-4.4h.77l.07.78h0A1.43,1.43,0,0,1,246,63a1.16,1.16,0,0,1,.49.09l-.16.81-.21,0-.24,0a1,1,0,0,0-.56.21,1.53,1.53,0,0,0-.5.74v2.73Z"/><path class="cls-21" d="M248.9,67.63a2.07,2.07,0,0,1-1.52-.61,2.27,2.27,0,0,1-.62-1.69,2.42,2.42,0,0,1,.29-1.24,2.12,2.12,0,0,1,.74-.8,1.91,1.91,0,0,1,1-.28,1.64,1.64,0,0,1,1.35.57,2.38,2.38,0,0,1,.46,1.51,2,2,0,0,1,0,.48h-2.85a1.5,1.5,0,0,0,.42,1,1.3,1.3,0,0,0,.94.36,1.61,1.61,0,0,0,.54-.09,2.55,2.55,0,0,0,.5-.24l.32.59a3.3,3.3,0,0,1-.68.33A2.38,2.38,0,0,1,248.9,67.63Zm-1.24-2.71h2.09c0-.79-.32-1.18-1-1.18a1,1,0,0,0-.73.31A1.31,1.31,0,0,0,247.66,64.92Z"/><path class="cls-21" d="M308.16,46.22V40.33H310a3.08,3.08,0,0,1,1.62.39,1.52,1.52,0,0,1,.64,1.4,1.65,1.65,0,0,1-.63,1.42A2.6,2.6,0,0,1,310,44h-.9v2.22Zm.94-3h.81c.91,0,1.37-.37,1.37-1.12a.91.91,0,0,0-.35-.81,2,2,0,0,0-1.06-.23h-.77Z"/><path class="cls-21" d="M314.19,46.33a.79.79,0,0,1-.71-.31,1.38,1.38,0,0,1-.22-.84V39.85h.94v5.38c0,.23.07.34.21.34l.17,0,.12.7-.21.06Z"/><path class="cls-21" d="M316.7,46.33a1.32,1.32,0,0,1-.94-.35,1.32,1.32,0,0,1,.27-2,5,5,0,0,1,2-.54,1.3,1.3,0,0,0-.18-.66.72.72,0,0,0-.66-.28,1.74,1.74,0,0,0-.67.13,3.66,3.66,0,0,0-.59.31l-.35-.62a4,4,0,0,1,.8-.4,2.63,2.63,0,0,1,1-.18,1.49,1.49,0,0,1,1.22.49,2.19,2.19,0,0,1,.39,1.39v2.63h-.78l-.07-.5h0a3.49,3.49,0,0,1-.65.43A1.59,1.59,0,0,1,316.7,46.33Zm.29-.74a1.06,1.06,0,0,0,.52-.13,2.73,2.73,0,0,0,.52-.38V44a3.47,3.47,0,0,0-1.35.37.71.71,0,0,0-.38.6.55.55,0,0,0,.2.47A.86.86,0,0,0,317,45.59Z"/><path class="cls-21" d="M322.05,46.33a2,2,0,0,1-1.49-.6A2.3,2.3,0,0,1,320,44a2.16,2.16,0,0,1,2.18-2.32,1.67,1.67,0,0,1,.73.15,1.92,1.92,0,0,1,.55.35l-.46.61a1.16,1.16,0,0,0-.78-.34,1.11,1.11,0,0,0-.91.43,1.66,1.66,0,0,0-.36,1.12,1.7,1.7,0,0,0,.35,1.11,1.11,1.11,0,0,0,.89.43,1.2,1.2,0,0,0,.52-.12,2.23,2.23,0,0,0,.44-.29l.39.62A2.14,2.14,0,0,1,322.05,46.33Z"/><path class="cls-21" d="M326,46.33a2.08,2.08,0,0,1-1.52-.61,2.27,2.27,0,0,1-.62-1.69,2.53,2.53,0,0,1,.29-1.24,2.07,2.07,0,0,1,.75-.8,1.88,1.88,0,0,1,1-.28,1.6,1.6,0,0,1,1.34.58,2.3,2.3,0,0,1,.46,1.5,2,2,0,0,1-.05.48H324.8a1.51,1.51,0,0,0,.43,1,1.29,1.29,0,0,0,.93.35,1.61,1.61,0,0,0,.54-.09,2.55,2.55,0,0,0,.5-.24l.33.59a3.17,3.17,0,0,1-.69.34A2.37,2.37,0,0,1,326,46.33Zm-1.24-2.71h2.1c0-.78-.33-1.18-1-1.18a1,1,0,0,0-.74.31A1.31,1.31,0,0,0,324.79,43.62Z"/><path class="cls-21" d="M305.84,57V51.13h.94v5.1h2.5V57Z"/><path class="cls-21" d="M311.27,57.13a1.29,1.29,0,0,1-.93-.35,1.23,1.23,0,0,1-.36-.93,1.24,1.24,0,0,1,.62-1.1,5,5,0,0,1,2-.54,1.21,1.21,0,0,0-.18-.66.7.7,0,0,0-.65-.28,1.67,1.67,0,0,0-.67.13,3.38,3.38,0,0,0-.6.31l-.35-.62a4.26,4.26,0,0,1,.8-.4,2.63,2.63,0,0,1,1-.18,1.49,1.49,0,0,1,1.22.49,2.19,2.19,0,0,1,.39,1.39V57h-.77l-.07-.5h0A3.85,3.85,0,0,1,312,57,1.63,1.63,0,0,1,311.27,57.13Zm.29-.74a1.09,1.09,0,0,0,.53-.13,3,3,0,0,0,.51-.38V54.81a3.59,3.59,0,0,0-1.35.37.7.7,0,0,0-.37.6.52.52,0,0,0,.2.47A.83.83,0,0,0,311.56,56.39Z"/><path class="cls-21" d="M316,57.13a2.61,2.61,0,0,1-.9-.17,3,3,0,0,1-.75-.44l.44-.61a2.68,2.68,0,0,0,.58.37,1.59,1.59,0,0,0,.66.14.87.87,0,0,0,.58-.17.55.55,0,0,0,.19-.42.51.51,0,0,0-.31-.45,7.08,7.08,0,0,0-.67-.29,4.61,4.61,0,0,1-.85-.45,1,1,0,0,1-.41-.84,1.16,1.16,0,0,1,.42-.92,1.68,1.68,0,0,1,1.16-.37,1.91,1.91,0,0,1,.8.16,2.37,2.37,0,0,1,.63.36l-.43.57a3.3,3.3,0,0,0-.47-.27,1.26,1.26,0,0,0-.51-.11.79.79,0,0,0-.54.16.47.47,0,0,0-.17.38.43.43,0,0,0,.28.41,6,6,0,0,0,.66.28,5.07,5.07,0,0,1,.87.44,1,1,0,0,1,.42.89,1.23,1.23,0,0,1-.43.95A1.74,1.74,0,0,1,316,57.13Z"/><path class="cls-21" d="M320.52,57.13a2.07,2.07,0,0,1-1.52-.61,2.23,2.23,0,0,1-.63-1.69,2.53,2.53,0,0,1,.29-1.24,2.07,2.07,0,0,1,.75-.8,1.88,1.88,0,0,1,1-.28,1.61,1.61,0,0,1,1.34.57,2.34,2.34,0,0,1,.46,1.51,2.09,2.09,0,0,1,0,.48h-2.86a1.62,1.62,0,0,0,.43,1,1.29,1.29,0,0,0,.93.35,1.71,1.71,0,0,0,.55-.09,2.85,2.85,0,0,0,.5-.24l.32.59a3.32,3.32,0,0,1-.68.34A2.45,2.45,0,0,1,320.52,57.13Zm-1.25-2.71h2.1c0-.78-.32-1.18-1-1.18a1,1,0,0,0-.74.31A1.36,1.36,0,0,0,319.27,54.42Z"/><path class="cls-21" d="M323.2,57v-4.4H324l.07.78h0a1.43,1.43,0,0,1,1.25-.89,1.16,1.16,0,0,1,.49.09l-.16.81-.22,0-.23,0a1,1,0,0,0-.56.21,1.61,1.61,0,0,0-.51.74V57Z"/><path class="cls-21" d="M331.92,55.51h-.75V57h-.87V55.51h-2.55v-.63l2.33-3.59h1.09v3.49h.75Zm-3.23-.73h1.61V53.36c0-.16,0-.36,0-.58s0-.42,0-.58h0c-.07.14-.15.28-.23.42l-.24.44Z"/><path class="cls-21" d="M310.29,67.82V61.93h.95v2.4h2.51v-2.4h.94v5.89h-.94V65.16h-2.51v2.66Z"/><path class="cls-21" d="M318,67.93a2.07,2.07,0,0,1-1.52-.61,2.23,2.23,0,0,1-.63-1.69,2.53,2.53,0,0,1,.29-1.24,2.15,2.15,0,0,1,.75-.8,1.91,1.91,0,0,1,1-.28,1.61,1.61,0,0,1,1.34.57,2.34,2.34,0,0,1,.46,1.51,2.09,2.09,0,0,1,0,.48h-2.86a1.62,1.62,0,0,0,.43,1,1.31,1.31,0,0,0,.93.35,1.63,1.63,0,0,0,.55-.09,2.55,2.55,0,0,0,.5-.24l.32.59a2.86,2.86,0,0,1-.68.33A2.19,2.19,0,0,1,318,67.93Zm-1.24-2.71h2.09c0-.78-.32-1.18-1-1.18a1,1,0,0,0-.74.31A1.35,1.35,0,0,0,316.75,65.22Z"/><path class="cls-21" d="M320.67,67.82v-4.4h.77l.07.78h0a1.43,1.43,0,0,1,1.25-.89,1.16,1.16,0,0,1,.49.09l-.16.81-.21,0-.24,0a1,1,0,0,0-.56.21,1.61,1.61,0,0,0-.51.74v2.73Z"/><path class="cls-21" d="M325.7,67.93a2.07,2.07,0,0,1-1.52-.61,2.23,2.23,0,0,1-.62-1.69,2.42,2.42,0,0,1,.29-1.24,2.12,2.12,0,0,1,.74-.8,1.92,1.92,0,0,1,1-.28,1.63,1.63,0,0,1,1.34.57,2.4,2.4,0,0,1,.45,1.51,2.09,2.09,0,0,1,0,.48h-2.85a1.55,1.55,0,0,0,.42,1,1.33,1.33,0,0,0,.94.35,1.61,1.61,0,0,0,.54-.09,2.55,2.55,0,0,0,.5-.24l.32.59a2.86,2.86,0,0,1-.68.33A2.16,2.16,0,0,1,325.7,67.93Zm-1.24-2.71h2.09c0-.78-.32-1.18-1-1.18a1,1,0,0,0-.74.31A1.35,1.35,0,0,0,324.46,65.22Z"/><path class="cls-21" d="M385,45V39.13h1.8a3.08,3.08,0,0,1,1.62.39,1.5,1.5,0,0,1,.64,1.4,1.65,1.65,0,0,1-.63,1.42,2.6,2.6,0,0,1-1.59.46h-.9V45Zm.94-3h.81c.91,0,1.37-.37,1.37-1.12a.9.9,0,0,0-.35-.81,2,2,0,0,0-1.06-.23h-.77Z"/><path class="cls-21" d="M391,45.13a.79.79,0,0,1-.71-.31,1.38,1.38,0,0,1-.22-.84V38.65H391V44q0,.33.21.33h.17l.12.7-.21.06Z"/><path class="cls-21" d="M393.5,45.13a1.32,1.32,0,0,1-.94-.35,1.24,1.24,0,0,1-.36-.93,1.23,1.23,0,0,1,.63-1.1,5,5,0,0,1,2-.54,1.3,1.3,0,0,0-.18-.66.71.71,0,0,0-.65-.28,1.67,1.67,0,0,0-.67.13,3.38,3.38,0,0,0-.6.31l-.35-.62a3.51,3.51,0,0,1,.8-.4,2.63,2.63,0,0,1,1-.18,1.49,1.49,0,0,1,1.22.49,2.18,2.18,0,0,1,.39,1.38V45H395l-.07-.5h0a3.93,3.93,0,0,1-.66.43A1.59,1.59,0,0,1,393.5,45.13Zm.29-.74a1.06,1.06,0,0,0,.52-.13,2.73,2.73,0,0,0,.52-.38V42.81a3.3,3.3,0,0,0-1.35.37.71.71,0,0,0-.38.6.55.55,0,0,0,.2.47A.86.86,0,0,0,393.79,44.39Z"/><path class="cls-21" d="M398.85,45.13a2,2,0,0,1-1.49-.6,2.32,2.32,0,0,1-.6-1.7,2.24,2.24,0,0,1,.65-1.71,2.15,2.15,0,0,1,1.53-.61,1.67,1.67,0,0,1,.73.15,1.92,1.92,0,0,1,.55.35l-.46.61a1.14,1.14,0,0,0-.78-.34,1.11,1.11,0,0,0-.91.43,1.66,1.66,0,0,0-.36,1.12,1.7,1.7,0,0,0,.35,1.11,1.1,1.1,0,0,0,.89.42,1.16,1.16,0,0,0,.52-.11,2.23,2.23,0,0,0,.44-.29l.39.62A2.12,2.12,0,0,1,398.85,45.13Z"/><path class="cls-21" d="M402.83,45.13a2.08,2.08,0,0,1-1.52-.61,2.27,2.27,0,0,1-.62-1.69,2.53,2.53,0,0,1,.29-1.24,2.07,2.07,0,0,1,.75-.8,1.88,1.88,0,0,1,1-.28,1.62,1.62,0,0,1,1.34.57,2.38,2.38,0,0,1,.46,1.51,2,2,0,0,1-.05.48H401.6a1.46,1.46,0,0,0,.43,1,1.26,1.26,0,0,0,.93.36,1.61,1.61,0,0,0,.54-.09,2.55,2.55,0,0,0,.5-.24l.33.59a3.39,3.39,0,0,1-.69.33A2.38,2.38,0,0,1,402.83,45.13Zm-1.24-2.71h2.1c0-.79-.33-1.18-1-1.18a1,1,0,0,0-.74.31A1.31,1.31,0,0,0,401.59,42.42Z"/><path class="cls-21" d="M382.64,55.82V49.93h.94V55h2.5v.79Z"/><path class="cls-21" d="M388.07,55.93a1.29,1.29,0,0,1-.93-.35,1.32,1.32,0,0,1,.26-2,5,5,0,0,1,2-.54,1.31,1.31,0,0,0-.19-.66.7.7,0,0,0-.65-.28,1.7,1.7,0,0,0-.67.13,3.77,3.77,0,0,0-.6.31l-.35-.62a3.73,3.73,0,0,1,.8-.4,2.67,2.67,0,0,1,1-.18,1.49,1.49,0,0,1,1.22.49,2.18,2.18,0,0,1,.39,1.38v2.64h-.77l-.07-.5h0a3.85,3.85,0,0,1-.65.43A1.6,1.6,0,0,1,388.07,55.93Zm.29-.74a1.09,1.09,0,0,0,.53-.13,3.09,3.09,0,0,0,.52-.38V53.61a3.3,3.3,0,0,0-1.35.37.69.69,0,0,0-.38.6.54.54,0,0,0,.2.47A.83.83,0,0,0,388.36,55.19Z"/><path class="cls-21" d="M392.84,55.93a2.42,2.42,0,0,1-.91-.18,2.73,2.73,0,0,1-.75-.43l.44-.61a3.12,3.12,0,0,0,.58.37,1.59,1.59,0,0,0,.66.14.87.87,0,0,0,.58-.17.55.55,0,0,0,.19-.42.5.5,0,0,0-.31-.45,5.19,5.19,0,0,0-.67-.29,4.61,4.61,0,0,1-.85-.45,1,1,0,0,1-.41-.84,1.16,1.16,0,0,1,.42-.92,1.68,1.68,0,0,1,1.16-.37,2.07,2.07,0,0,1,.8.15,2.68,2.68,0,0,1,.63.37l-.43.57a2.83,2.83,0,0,0-.47-.27A1.26,1.26,0,0,0,393,52a.74.74,0,0,0-.54.16.45.45,0,0,0-.17.37.44.44,0,0,0,.28.42,6.9,6.9,0,0,0,.66.28,5.07,5.07,0,0,1,.87.44,1,1,0,0,1,.42.89,1.23,1.23,0,0,1-.43,1A1.73,1.73,0,0,1,392.84,55.93Z"/><path class="cls-21" d="M397.32,55.93a2.07,2.07,0,0,1-1.52-.61,2.24,2.24,0,0,1-.63-1.7,2.51,2.51,0,0,1,.29-1.23,2.07,2.07,0,0,1,.75-.8,1.88,1.88,0,0,1,1-.28,1.61,1.61,0,0,1,1.34.57,2.33,2.33,0,0,1,.46,1.51,2.09,2.09,0,0,1,0,.48h-2.86a1.56,1.56,0,0,0,.43,1,1.26,1.26,0,0,0,.93.36,1.67,1.67,0,0,0,.55-.09,2.85,2.85,0,0,0,.5-.24l.32.59a3.3,3.3,0,0,1-.68.33A2.46,2.46,0,0,1,397.32,55.93Zm-1.25-2.71h2.1c0-.79-.32-1.18-1-1.18a1,1,0,0,0-.74.31A1.41,1.41,0,0,0,396.07,53.22Z"/><path class="cls-21" d="M400,55.82v-4.4h.77l.07.78h0a1.43,1.43,0,0,1,1.25-.89,1.16,1.16,0,0,1,.49.09l-.16.81-.22-.05-.23,0a1,1,0,0,0-.56.21,1.63,1.63,0,0,0-.51.73v2.74Z"/><path class="cls-21" d="M406.54,55.93a2.52,2.52,0,0,1-1.16-.24,3.38,3.38,0,0,1-.77-.55l.44-.61a3,3,0,0,0,.59.45,1.58,1.58,0,0,0,.78.18,1.16,1.16,0,0,0,.83-.31,1.11,1.11,0,0,0,.34-.86,1.06,1.06,0,0,0-1.12-1.13,1.34,1.34,0,0,0-.48.08,3,3,0,0,0-.46.24l-.46-.28.18-2.81h3v.79h-2.18l-.13,1.49a1.74,1.74,0,0,1,.38-.14,1.34,1.34,0,0,1,.42,0,1.91,1.91,0,0,1,1.26.43,1.66,1.66,0,0,1,.53,1.36,1.82,1.82,0,0,1-.6,1.45A2.07,2.07,0,0,1,406.54,55.93Z"/><path class="cls-21" d="M387.09,66.62V60.73h1v2.4h2.51v-2.4h.94v5.89h-.94V64H388v2.66Z"/><path class="cls-21" d="M394.79,66.73a2.07,2.07,0,0,1-1.52-.61,2.24,2.24,0,0,1-.62-1.7,2.51,2.51,0,0,1,.28-1.23,2.15,2.15,0,0,1,.75-.8,1.91,1.91,0,0,1,1-.28,1.61,1.61,0,0,1,1.34.57,2.33,2.33,0,0,1,.46,1.51,2.09,2.09,0,0,1,0,.48h-2.86a1.56,1.56,0,0,0,.43,1,1.27,1.27,0,0,0,.93.36,1.63,1.63,0,0,0,.55-.09,2.55,2.55,0,0,0,.5-.24l.32.59a3.3,3.3,0,0,1-.68.33A2.42,2.42,0,0,1,394.79,66.73ZM393.55,64h2.09c0-.79-.32-1.18-1-1.18a1,1,0,0,0-.74.31A1.35,1.35,0,0,0,393.55,64Z"/><path class="cls-21" d="M397.47,66.62v-4.4h.77l.08.78h0a1.43,1.43,0,0,1,1.25-.89,1.16,1.16,0,0,1,.49.09l-.16.81-.21,0-.24,0a1,1,0,0,0-.56.21,1.54,1.54,0,0,0-.5.73v2.74Z"/><path class="cls-21" d="M402.5,66.73a2.07,2.07,0,0,1-1.52-.61,2.27,2.27,0,0,1-.62-1.7,2.41,2.41,0,0,1,.29-1.23,2.12,2.12,0,0,1,.74-.8,1.92,1.92,0,0,1,1-.28,1.63,1.63,0,0,1,1.34.57,2.38,2.38,0,0,1,.46,1.51,2,2,0,0,1-.05.48h-2.85a1.5,1.5,0,0,0,.42,1,1.3,1.3,0,0,0,.94.36,1.61,1.61,0,0,0,.54-.09,2.55,2.55,0,0,0,.5-.24l.32.59a3.3,3.3,0,0,1-.68.33A2.38,2.38,0,0,1,402.5,66.73ZM401.26,64h2.09c0-.79-.32-1.18-1-1.18a1,1,0,0,0-.73.31A1.31,1.31,0,0,0,401.26,64Z"/><path class="cls-21" d="M461.76,44.72V38.83h1.8a3.08,3.08,0,0,1,1.62.39,1.5,1.5,0,0,1,.64,1.4,1.65,1.65,0,0,1-.63,1.42,2.6,2.6,0,0,1-1.59.46h-.9v2.22Zm.94-3h.81c.91,0,1.37-.37,1.37-1.12a.91.91,0,0,0-.35-.81,2,2,0,0,0-1.06-.23h-.77Z"/><path class="cls-21" d="M467.79,44.83a.79.79,0,0,1-.71-.31,1.38,1.38,0,0,1-.22-.84V38.35h.94v5.38c0,.23.07.34.21.34l.17,0,.12.7-.21.06Z"/><path class="cls-21" d="M470.3,44.83a1.32,1.32,0,0,1-.94-.35,1.32,1.32,0,0,1,.27-2,5,5,0,0,1,2-.54,1.21,1.21,0,0,0-.18-.66.71.71,0,0,0-.65-.28,1.67,1.67,0,0,0-.67.13,3.38,3.38,0,0,0-.6.31l-.36-.62a4.37,4.37,0,0,1,.81-.4,2.63,2.63,0,0,1,1-.18,1.49,1.49,0,0,1,1.22.49,2.19,2.19,0,0,1,.39,1.39v2.63h-.78l-.07-.5h0a3.93,3.93,0,0,1-.66.43A1.59,1.59,0,0,1,470.3,44.83Zm.29-.74a1.06,1.06,0,0,0,.52-.13,2.73,2.73,0,0,0,.52-.38V42.51a3.47,3.47,0,0,0-1.35.37.71.71,0,0,0-.38.6.55.55,0,0,0,.2.47A.86.86,0,0,0,470.59,44.09Z"/><path class="cls-21" d="M475.66,44.83a2,2,0,0,1-1.5-.6,2.3,2.3,0,0,1-.6-1.7,2.24,2.24,0,0,1,.65-1.71,2.2,2.2,0,0,1,1.53-.61,1.67,1.67,0,0,1,.73.15,1.92,1.92,0,0,1,.55.35l-.46.61a1.14,1.14,0,0,0-.78-.34,1.11,1.11,0,0,0-.91.43,1.66,1.66,0,0,0-.36,1.12,1.7,1.7,0,0,0,.35,1.11,1.11,1.11,0,0,0,.89.43,1.17,1.17,0,0,0,.52-.12,2.23,2.23,0,0,0,.44-.29l.38.62A2.09,2.09,0,0,1,475.66,44.83Z"/><path class="cls-21" d="M479.63,44.83a2.08,2.08,0,0,1-1.52-.61,2.27,2.27,0,0,1-.62-1.69,2.53,2.53,0,0,1,.29-1.24,2.07,2.07,0,0,1,.75-.8,1.88,1.88,0,0,1,1-.28,1.6,1.6,0,0,1,1.34.58,2.3,2.3,0,0,1,.46,1.5,2,2,0,0,1-.05.48H478.4a1.56,1.56,0,0,0,.43,1,1.29,1.29,0,0,0,.93.35,1.61,1.61,0,0,0,.54-.09,2.3,2.3,0,0,0,.5-.24l.33.59a3,3,0,0,1-.69.34A2.37,2.37,0,0,1,479.63,44.83Zm-1.24-2.71h2.1c0-.78-.32-1.18-1-1.18a1,1,0,0,0-.74.31A1.31,1.31,0,0,0,478.39,42.12Z"/><path class="cls-21" d="M459.44,55.52V49.63h.94v5.1h2.5v.79Z"/><path class="cls-21" d="M464.87,55.63a1.29,1.29,0,0,1-.93-.35,1.23,1.23,0,0,1-.36-.93,1.24,1.24,0,0,1,.62-1.1,5,5,0,0,1,2-.54,1.31,1.31,0,0,0-.19-.66.7.7,0,0,0-.65-.28,1.67,1.67,0,0,0-.67.13,4.25,4.25,0,0,0-.6.31l-.35-.62a4.26,4.26,0,0,1,.8-.4,2.67,2.67,0,0,1,1-.18,1.49,1.49,0,0,1,1.22.49,2.19,2.19,0,0,1,.39,1.39v2.63h-.77l-.07-.5h0a3.85,3.85,0,0,1-.65.43A1.6,1.6,0,0,1,464.87,55.63Zm.29-.74a1.09,1.09,0,0,0,.53-.13,3.09,3.09,0,0,0,.52-.38V53.31a3.47,3.47,0,0,0-1.35.37.69.69,0,0,0-.38.6.52.52,0,0,0,.2.47A.83.83,0,0,0,465.16,54.89Z"/><path class="cls-21" d="M469.63,55.63a2.51,2.51,0,0,1-.89-.17A2.92,2.92,0,0,1,468,55l.44-.61a2.68,2.68,0,0,0,.58.37,1.59,1.59,0,0,0,.66.14.87.87,0,0,0,.58-.17.55.55,0,0,0,.19-.42.49.49,0,0,0-.31-.45,7.08,7.08,0,0,0-.67-.29,4.61,4.61,0,0,1-.85-.45,1,1,0,0,1-.41-.84,1.16,1.16,0,0,1,.42-.92,1.68,1.68,0,0,1,1.16-.37,2,2,0,0,1,.81.16,2.47,2.47,0,0,1,.62.36l-.43.57a2.83,2.83,0,0,0-.47-.27,1.26,1.26,0,0,0-.51-.11.79.79,0,0,0-.54.16.47.47,0,0,0-.17.38.43.43,0,0,0,.28.41A6.9,6.9,0,0,0,470,53a5.07,5.07,0,0,1,.87.44,1,1,0,0,1,.42.89,1.23,1.23,0,0,1-.43.95A1.74,1.74,0,0,1,469.63,55.63Z"/><path class="cls-21" d="M474.12,55.63a2.1,2.1,0,0,1-1.53-.61,2.27,2.27,0,0,1-.62-1.69,2.53,2.53,0,0,1,.29-1.24,2.07,2.07,0,0,1,.75-.8,1.91,1.91,0,0,1,1-.28,1.61,1.61,0,0,1,1.34.57,2.34,2.34,0,0,1,.46,1.51,2.09,2.09,0,0,1,0,.48h-2.86a1.56,1.56,0,0,0,.43,1,1.29,1.29,0,0,0,.93.35,1.67,1.67,0,0,0,.55-.09,2.85,2.85,0,0,0,.5-.24l.32.59a3.32,3.32,0,0,1-.68.34A2.45,2.45,0,0,1,474.12,55.63Zm-1.25-2.71H475c0-.78-.32-1.18-1-1.18a1,1,0,0,0-.74.31A1.41,1.41,0,0,0,472.87,52.92Z"/><path class="cls-21" d="M476.8,55.52v-4.4h.77l.07.78h0a1.43,1.43,0,0,1,1.25-.89,1.16,1.16,0,0,1,.49.09l-.16.81-.22,0-.23,0a1,1,0,0,0-.56.21,1.61,1.61,0,0,0-.51.74v2.73Z"/><path class="cls-21" d="M485.41,53.77a1.76,1.76,0,0,1-.53,1.35,1.71,1.71,0,0,1-1.23.51A1.87,1.87,0,0,1,482.2,55a3.13,3.13,0,0,1-.6-2.1,4.52,4.52,0,0,1,.32-1.83,2.2,2.2,0,0,1,.82-1,2,2,0,0,1,1.09-.32,1.82,1.82,0,0,1,.86.19,2.06,2.06,0,0,1,.62.45l-.51.57a1.14,1.14,0,0,0-.92-.44,1.24,1.24,0,0,0-1,.49,2.92,2.92,0,0,0-.44,1.74,1.76,1.76,0,0,1,.61-.51,1.43,1.43,0,0,1,.67-.18,1.69,1.69,0,0,1,1.2.44A1.76,1.76,0,0,1,485.41,53.77Zm-1.78,1.14a.83.83,0,0,0,.65-.3,1.26,1.26,0,0,0,.26-.84c0-.73-.32-1.09-1-1.09a1.11,1.11,0,0,0-.55.16,1.49,1.49,0,0,0-.53.53,2.13,2.13,0,0,0,.37,1.17A.92.92,0,0,0,483.63,54.91Z"/><path class="cls-21" d="M463.89,66.32V60.43h.95v2.4h2.51v-2.4h.94v5.89h-.94V63.66h-2.51v2.66Z"/><path class="cls-21" d="M471.59,66.43a2.07,2.07,0,0,1-1.52-.61,2.23,2.23,0,0,1-.62-1.69,2.52,2.52,0,0,1,.28-1.24,2.15,2.15,0,0,1,.75-.8,1.91,1.91,0,0,1,1-.28,1.61,1.61,0,0,1,1.34.57,2.34,2.34,0,0,1,.46,1.51,2.09,2.09,0,0,1,0,.48h-2.86a1.62,1.62,0,0,0,.43,1,1.31,1.31,0,0,0,.93.35,1.63,1.63,0,0,0,.55-.09,2.55,2.55,0,0,0,.5-.24l.32.59a2.86,2.86,0,0,1-.68.33A2.16,2.16,0,0,1,471.59,66.43Zm-1.24-2.71h2.09c0-.78-.32-1.18-1-1.18a1,1,0,0,0-.74.31A1.35,1.35,0,0,0,470.35,63.72Z"/><path class="cls-21" d="M474.27,66.32v-4.4H475l.08.78h0a1.43,1.43,0,0,1,1.25-.89,1.16,1.16,0,0,1,.49.09l-.16.81-.21-.05-.24,0a1,1,0,0,0-.56.21,1.53,1.53,0,0,0-.5.74v2.73Z"/><path class="cls-21" d="M479.3,66.43a2.07,2.07,0,0,1-1.52-.61,2.27,2.27,0,0,1-.62-1.69,2.42,2.42,0,0,1,.29-1.24,2.12,2.12,0,0,1,.74-.8,1.92,1.92,0,0,1,1-.28,1.63,1.63,0,0,1,1.34.57,2.4,2.4,0,0,1,.46,1.51,2,2,0,0,1-.05.48h-2.85a1.51,1.51,0,0,0,.43,1,1.29,1.29,0,0,0,.93.35,1.61,1.61,0,0,0,.54-.09,2.55,2.55,0,0,0,.5-.24l.32.59a2.86,2.86,0,0,1-.68.33A2.16,2.16,0,0,1,479.3,66.43Zm-1.24-2.71h2.1c0-.78-.33-1.18-1-1.18a1,1,0,0,0-.73.31A1.31,1.31,0,0,0,478.06,63.72Z"/></svg>