<svg id="Layer_1" data-name="Layer 1" xmlns="http://www.w3.org/2000/svg" xmlns:xlink="http://www.w3.org/1999/xlink" width="65.01" height="69.33" viewBox="0 0 65.01 69.33"><defs><style>.cls-1{fill:url(#linear-gradient);}.cls-2{fill:#fff;}.cls-3{stroke:#2cc5ff;fill:url(#linear-gradient-2);}.cls-3,.cls-4,.cls-5,.cls-6{stroke-miterlimit:10;stroke-width:1.5px;}.cls-4{stroke:#9d21d2;fill:url(#linear-gradient-3);}.cls-5{stroke:#f70021;fill:url(#linear-gradient-4);}.cls-6{stroke:#fcee21;fill:url(#linear-gradient-5);}</style><linearGradient id="linear-gradient" x1="7022.53" y1="34.67" x2="6957.52" y2="34.67" gradientTransform="matrix(1, 0, 0, -1, -6957.52, 69.33)" gradientUnits="userSpaceOnUse"><stop offset="0" stop-color="#c12730"/><stop offset="0.33" stop-color="#9f1b2b"/><stop offset="0.77" stop-color="#780d26"/><stop offset="1" stop-color="#690824"/></linearGradient><linearGradient id="linear-gradient-2" x1="4160.78" y1="86.78" x2="4189.32" y2="86.78" gradientTransform="translate(-6374.7 -51.86) scale(1.53 1)" gradientUnits="userSpaceOnUse"><stop offset="0.01" stop-color="#fff"/><stop offset="0.31" stop-color="#d6ffff"/><stop offset="0.71" stop-color="#3fa9f5"/><stop offset="0.89" stop-color="#fff"/><stop offset="1" stop-color="#3fa9f5"/></linearGradient><linearGradient id="linear-gradient-3" x1="882.43" y1="65.12" x2="910.97" y2="65.12" gradientTransform="matrix(1.53, 0, 0, -1, -1343.04, 93.93)" gradientUnits="userSpaceOnUse"><stop offset="0" stop-color="#ffeeef"/><stop offset="0.09" stop-color="#f4d8e9"/><stop offset="0.28" stop-color="#d99eda"/><stop offset="0.56" stop-color="#ae42c3"/><stop offset="0.59" stop-color="#a937c0"/><stop offset="0.81" stop-color="#8e2bc6"/><stop offset="0.93" stop-color="#f6daea"/><stop offset="0.94" stop-color="#eabce8"/><stop offset="0.97" stop-color="#ca70e2"/><stop offset="1" stop-color="#a71adc"/></linearGradient><linearGradient id="linear-gradient-4" x1="882.43" y1="78.66" x2="910.97" y2="78.66" gradientTransform="translate(-1343.19 -30.22) scale(1.53 1)" gradientUnits="userSpaceOnUse"><stop offset="0" stop-color="#ffb3b3"/><stop offset="0.03" stop-color="#dfdfdf"/><stop offset="0.32" stop-color="#ff3737"/><stop offset="0.8" stop-color="#f85a5a"/><stop offset="0.91" stop-color="#e4c6c6"/><stop offset="1" stop-color="#f33"/></linearGradient><linearGradient id="linear-gradient-5" x1="882.42" y1="72.02" x2="910.99" y2="71.53" gradientTransform="translate(-1343.11 -30.22) scale(1.53 1)" gradientUnits="userSpaceOnUse"><stop offset="0" stop-color="#fcee21"/><stop offset="0.11" stop-color="#fdf684"/><stop offset="0.28" stop-color="#fff"/><stop offset="0.46" stop-color="#fef9a7"/><stop offset="1" stop-color="#fff"/></linearGradient></defs><title>Fluorescence_LightSource_Laser copy</title><path class="cls-1" d="M7,0H65a0,0,0,0,1,0,0V69.33a0,0,0,0,1,0,0H7a7,7,0,0,1-7-7V7A7,7,0,0,1,7,0Z" transform="translate(65.01 69.33) rotate(-180)"/><path class="cls-2" d="M10.24,10.82V6.43h2.61V7H10.94V8.35h1.62v.59H10.94v1.88Z"/><path class="cls-2" d="M13.61,10.82V6.43h.71v3.8h1.85v.59Z"/><path class="cls-2" d="M18.42,10.9A1.74,1.74,0,0,1,17,10.28a2.5,2.5,0,0,1-.53-1.67A2.43,2.43,0,0,1,17,7,1.89,1.89,0,0,1,19.8,7a2.38,2.38,0,0,1,.53,1.66,2.44,2.44,0,0,1-.53,1.67A1.74,1.74,0,0,1,18.42,10.9Zm0-.61a1,1,0,0,0,.86-.46,2,2,0,0,0,.33-1.22,2,2,0,0,0-.33-1.21,1.08,1.08,0,0,0-1.72,0,2,2,0,0,0-.33,1.21,2,2,0,0,0,.33,1.22A1,1,0,0,0,18.42,10.29Z"/><path class="cls-2" d="M22.85,10.9a1.59,1.59,0,0,1-1.18-.45,2.06,2.06,0,0,1-.45-1.51V6.43h.7V9a1.55,1.55,0,0,0,.26,1,.88.88,0,0,0,.67.29.91.91,0,0,0,.69-.29,1.49,1.49,0,0,0,.27-1V6.43h.67V8.94A2.06,2.06,0,0,1,24,10.45,1.57,1.57,0,0,1,22.85,10.9Z"/><path class="cls-2" d="M26.31,10.82H25.6V6.43h1.45a2.08,2.08,0,0,1,1.13.28,1.07,1.07,0,0,1,.46,1,1.23,1.23,0,0,1-.25.81,1.3,1.3,0,0,1-.67.44l1.07,1.86H28L27,9.06h-.71Zm0-2.33H27c.65,0,1-.26,1-.78a.62.62,0,0,0-.25-.56A1.37,1.37,0,0,0,27,7h-.66Z"/><path class="cls-2" d="M29.52,10.82V6.43h2.6V7h-1.9v1.2h1.61v.6H30.22v1.4h2v.59Z"/><path class="cls-2" d="M34.35,10.9a2.22,2.22,0,0,1-.85-.17,2.17,2.17,0,0,1-.71-.48l.41-.48a2,2,0,0,0,.54.37,1.45,1.45,0,0,0,.63.15,1,1,0,0,0,.6-.17.57.57,0,0,0,.21-.45A.46.46,0,0,0,35,9.25a3.76,3.76,0,0,0-.5-.27l-.61-.27a2,2,0,0,1-.6-.4A1,1,0,0,1,33,7.56a1.06,1.06,0,0,1,.41-.86,1.53,1.53,0,0,1,1-.35,1.8,1.8,0,0,1,.73.15,1.83,1.83,0,0,1,.6.41l-.36.44A1.63,1.63,0,0,0,35,7.07a1.29,1.29,0,0,0-.53-.1.89.89,0,0,0-.53.14.47.47,0,0,0-.2.41.45.45,0,0,0,.22.41,2.51,2.51,0,0,0,.49.25l.6.25a1.87,1.87,0,0,1,.64.44,1,1,0,0,1,.25.74,1.19,1.19,0,0,1-.41.91A1.63,1.63,0,0,1,34.35,10.9Z"/><path class="cls-2" d="M38.44,10.9a1.85,1.85,0,0,1-1.39-.59,2.31,2.31,0,0,1-.57-1.68A2.34,2.34,0,0,1,37.06,7a1.84,1.84,0,0,1,1.41-.61,1.57,1.57,0,0,1,.73.17,1.88,1.88,0,0,1,.51.38l-.37.45A2,2,0,0,0,39,7.07a1,1,0,0,0-.47-.1,1.13,1.13,0,0,0-.93.44,1.88,1.88,0,0,0-.35,1.2,2,2,0,0,0,.34,1.23,1.09,1.09,0,0,0,.92.45,1.07,1.07,0,0,0,.53-.13,1.54,1.54,0,0,0,.43-.34l.38.44a1.82,1.82,0,0,1-.61.47A1.73,1.73,0,0,1,38.44,10.9Z"/><path class="cls-2" d="M40.56,10.82V6.43h2.61V7h-1.9v1.2h1.6v.6h-1.6v1.4h2v.59Z"/><path class="cls-2" d="M44.14,10.82V6.43h.72L46.3,9l.47.93h0c0-.23,0-.47,0-.72s0-.51,0-.75v-2h.66v4.39h-.72L45.2,8.25l-.45-.92h0c0,.23,0,.46.06.71s0,.49,0,.73v2.05Z"/><path class="cls-2" d="M50.24,10.9a1.87,1.87,0,0,1-1.4-.59,2.35,2.35,0,0,1-.56-1.68A2.29,2.29,0,0,1,48.86,7a1.83,1.83,0,0,1,1.4-.61,1.54,1.54,0,0,1,.73.17,2.12,2.12,0,0,1,.52.38l-.38.45a1.49,1.49,0,0,0-.38-.28,1,1,0,0,0-.47-.1,1.1,1.1,0,0,0-.92.44A1.83,1.83,0,0,0,49,8.61a2,2,0,0,0,.34,1.23,1.11,1.11,0,0,0,.92.45,1,1,0,0,0,.53-.13,1.58,1.58,0,0,0,.44-.34l.37.44a1.89,1.89,0,0,1-.6.47A1.73,1.73,0,0,1,50.24,10.9Z"/><path class="cls-2" d="M52.36,10.82V6.43H55V7h-1.9v1.2h1.61v.6H53.06v1.4h2v.59Z"/><path class="cls-2" d="M10.92,16.82V12.43h.7v3.8h1.85v.59Z"/><path class="cls-2" d="M14.24,16.82V12.43h.7v4.39Z"/><path class="cls-2" d="M17.89,16.9a2,2,0,0,1-1.46-.59,2.27,2.27,0,0,1-.58-1.68A2.3,2.3,0,0,1,16.44,13a1.93,1.93,0,0,1,1.46-.61,1.71,1.71,0,0,1,.79.17,2.12,2.12,0,0,1,.52.38l-.38.45a1.46,1.46,0,0,0-.38-.27,1.05,1.05,0,0,0-.52-.11,1.22,1.22,0,0,0-1,.44,1.83,1.83,0,0,0-.36,1.2,1.91,1.91,0,0,0,.35,1.23,1.24,1.24,0,0,0,1,.45,1,1,0,0,0,.68-.22v-1h-.87v-.58h1.5v1.9a1.71,1.71,0,0,1-.57.37A2.09,2.09,0,0,1,17.89,16.9Z"/><path class="cls-2" d="M20.27,16.82V12.43H21v1.79h1.87V12.43h.7v4.39h-.7v-2H21v2Z"/><path class="cls-2" d="M25.58,16.82V13H24.29v-.6h3.28V13H26.28v3.79Z"/><path class="cls-2" d="M30.92,16.9a2.27,2.27,0,0,1-.86-.17,2.13,2.13,0,0,1-.7-.48l.4-.48a1.9,1.9,0,0,0,.55.37,1.38,1.38,0,0,0,.62.15,1,1,0,0,0,.61-.17.57.57,0,0,0,.21-.45.47.47,0,0,0-.2-.42,3.22,3.22,0,0,0-.5-.27l-.61-.27a2,2,0,0,1-.6-.4,1,1,0,0,1-.29-.75A1.09,1.09,0,0,1,30,12.7a1.56,1.56,0,0,1,1-.35,1.83,1.83,0,0,1,.73.15,1.78,1.78,0,0,1,.59.41l-.36.44a1.49,1.49,0,0,0-.44-.28A1.27,1.27,0,0,0,31,13a.91.91,0,0,0-.54.14.5.5,0,0,0-.2.41.45.45,0,0,0,.22.41,2.51,2.51,0,0,0,.49.25l.6.25a1.78,1.78,0,0,1,.64.44,1,1,0,0,1,.25.74,1.16,1.16,0,0,1-.41.91A1.61,1.61,0,0,1,30.92,16.9Z"/><path class="cls-2" d="M35,16.9a1.73,1.73,0,0,1-1.38-.62,2.44,2.44,0,0,1-.53-1.67A2.38,2.38,0,0,1,33.58,13a1.75,1.75,0,0,1,1.38-.6,1.77,1.77,0,0,1,1.38.6,2.43,2.43,0,0,1,.53,1.66,2.5,2.5,0,0,1-.53,1.67A1.76,1.76,0,0,1,35,16.9Zm0-.61a1,1,0,0,0,.86-.46,2,2,0,0,0,.33-1.22,2,2,0,0,0-.33-1.21,1.08,1.08,0,0,0-1.72,0,2,2,0,0,0-.33,1.21,2,2,0,0,0,.33,1.22A1,1,0,0,0,35,16.29Z"/><path class="cls-2" d="M39.39,16.9a1.59,1.59,0,0,1-1.18-.45,2.06,2.06,0,0,1-.45-1.51V12.43h.7V15a1.55,1.55,0,0,0,.26,1,.87.87,0,0,0,.67.29.91.91,0,0,0,.69-.29,1.49,1.49,0,0,0,.27-1V12.43H41v2.51a2.06,2.06,0,0,1-.45,1.51A1.57,1.57,0,0,1,39.39,16.9Z"/><path class="cls-2" d="M42.85,16.82h-.71V12.43h1.45a2.08,2.08,0,0,1,1.13.28,1.07,1.07,0,0,1,.46,1,1.28,1.28,0,0,1-.25.81,1.3,1.3,0,0,1-.67.44l1.07,1.86h-.79l-1-1.76h-.71Zm0-2.33h.66c.65,0,1-.26,1-.78a.62.62,0,0,0-.25-.56,1.37,1.37,0,0,0-.72-.16h-.66Z"/><path class="cls-2" d="M47.78,16.9a1.87,1.87,0,0,1-1.4-.59,2.35,2.35,0,0,1-.56-1.68A2.29,2.29,0,0,1,46.4,13a1.83,1.83,0,0,1,1.4-.61,1.54,1.54,0,0,1,.73.17,1.94,1.94,0,0,1,.52.38l-.38.45a1.49,1.49,0,0,0-.38-.28,1,1,0,0,0-.47-.1,1.11,1.11,0,0,0-.92.44,1.83,1.83,0,0,0-.36,1.2,2,2,0,0,0,.35,1.23,1.16,1.16,0,0,0,1.45.32,1.69,1.69,0,0,0,.43-.34l.37.44a1.79,1.79,0,0,1-.6.47A1.73,1.73,0,0,1,47.78,16.9Z"/><path class="cls-2" d="M49.9,16.82V12.43h2.61V13H50.6v1.2h1.61v.6H50.6v1.4h2v.59Z"/><path class="cls-2" d="M53.8,14.57a.45.45,0,0,1-.33-.14.54.54,0,0,1,0-.7.46.46,0,0,1,.66,0,.54.54,0,0,1,0,.7A.45.45,0,0,1,53.8,14.57Zm0,2.33a.45.45,0,0,1-.33-.14.47.47,0,0,1-.13-.34.48.48,0,0,1,.13-.36.46.46,0,0,1,.66,0,.48.48,0,0,1,.13.36.47.47,0,0,1-.13.34A.45.45,0,0,1,53.8,16.9Z"/><path class="cls-2" d="M20.32,64.82V59h1.55v4.55h2.22v1.3Z"/><path class="cls-2" d="M28.06,64.82l-.28-1.24H26.14l-.29,1.24H24.27L26.05,59h1.87l1.78,5.85ZM26.52,62l-.1.41H27.5L27.4,62c-.07-.27-.15-.58-.22-.91s-.14-.65-.21-.94h0c-.06.3-.13.61-.2.94S26.59,61.7,26.52,62Z"/><path class="cls-2" d="M32.11,64.93A3.46,3.46,0,0,1,31,64.72a3.17,3.17,0,0,1-1.06-.63L30.78,63a3.32,3.32,0,0,0,.68.41,1.79,1.79,0,0,0,.69.15c.44,0,.67-.13.67-.41a.34.34,0,0,0-.22-.31c-.14-.07-.33-.16-.58-.26l-.73-.3a2.18,2.18,0,0,1-.82-.6,1.49,1.49,0,0,1-.36-1,1.67,1.67,0,0,1,.62-1.29,2.3,2.3,0,0,1,1.56-.53,2.83,2.83,0,0,1,1,.19,2.68,2.68,0,0,1,.93.59l-.78,1a3.25,3.25,0,0,0-.57-.31,1.64,1.64,0,0,0-.6-.11c-.41,0-.61.13-.61.4a.35.35,0,0,0,.24.32c.15.07.36.16.63.26l.71.28a2.06,2.06,0,0,1,.84.6,1.61,1.61,0,0,1,.3,1,1.75,1.75,0,0,1-.6,1.31A2.34,2.34,0,0,1,32.11,64.93Z"/><path class="cls-2" d="M35.34,64.82V59h3.78v1.29H36.88v.92h1.91v1.3H36.88v1h2.33v1.3Z"/><path class="cls-2" d="M41.89,64.82H40.34V59h2.21a3.58,3.58,0,0,1,1.16.17,1.74,1.74,0,0,1,.86.58,1.76,1.76,0,0,1,.32,1.14A1.81,1.81,0,0,1,44,62.55l1.27,2.27H43.49l-1-2h-.59Zm0-3.19h.55c.63,0,.94-.26.94-.77a.55.55,0,0,0-.24-.52,1.32,1.32,0,0,0-.7-.15h-.55Z"/><rect class="cls-3" x="11.42" y="33.42" width="43.81" height="3.01" rx="0.5" transform="translate(66.64 69.85) rotate(180)"/><rect class="cls-4" x="11.35" y="27.31" width="43.81" height="3.01" rx="0.5"/><rect class="cls-5" x="11.2" y="46.93" width="43.81" height="3.01" rx="0.5"/><rect class="cls-6" x="11.27" y="40.05" width="43.81" height="3.01" rx="0.5"/></svg>