<svg id="Layer_1" data-name="Layer 1" xmlns="http://www.w3.org/2000/svg" xmlns:xlink="http://www.w3.org/1999/xlink" viewBox="0 0 65.01 69.33"><defs><style>.cls-1{fill:url(#linear-gradient);}.cls-2{fill:#fff;}.cls-3{stroke:#f2f2f2;fill:url(#linear-gradient-2);}.cls-3,.cls-4,.cls-6{stroke-miterlimit:10;}.cls-3,.cls-4{stroke-width:0.38px;}.cls-4,.cls-6{stroke:#ccc;}.cls-4{fill:url(#linear-gradient-3);}.cls-5{fill:url(#linear-gradient-4);}.cls-6{fill:none;stroke-width:0.15px;}.cls-7{fill:url(#linear-gradient-5);}.cls-8{fill:url(#linear-gradient-6);}.cls-9{fill:url(#linear-gradient-7);}.cls-10{fill:url(#linear-gradient-8);}</style><linearGradient id="linear-gradient" x1="-3501.49" y1="34.67" x2="-3566.5" y2="34.67" gradientTransform="matrix(1, 0, 0, -1, 3566.5, 69.33)" gradientUnits="userSpaceOnUse"><stop offset="0" stop-color="#c12730"/><stop offset="0.33" stop-color="#9f1b2b"/><stop offset="0.77" stop-color="#780d26"/><stop offset="1" stop-color="#690824"/></linearGradient><linearGradient id="linear-gradient-2" x1="32.55" y1="21.54" x2="32.55" y2="39.11" gradientUnits="userSpaceOnUse"><stop offset="0" stop-color="#fff"/><stop offset="0.54" stop-color="#fceeff"/><stop offset="1" stop-color="#ebe6ff"/></linearGradient><linearGradient id="linear-gradient-3" x1="24.63" y1="44.76" x2="40.47" y2="44.76" gradientUnits="userSpaceOnUse"><stop offset="0.08" stop-color="#f2eaff"/><stop offset="0.4" stop-color="#e5dfd9"/><stop offset="0.86" stop-color="#f2f2f2"/><stop offset="0.97" stop-color="#dfdfdf"/><stop offset="1" stop-color="#fceeff"/></linearGradient><linearGradient id="linear-gradient-4" x1="28.21" y1="50.94" x2="36.89" y2="50.94" gradientUnits="userSpaceOnUse"><stop offset="0" stop-color="#1a1a1a"/><stop offset="0" stop-color="#242424"/><stop offset="0.02" stop-color="#5b5b5b"/><stop offset="0.04" stop-color="#878787"/><stop offset="0.06" stop-color="#a6a6a6"/><stop offset="0.08" stop-color="#b9b9b9"/><stop offset="0.09" stop-color="silver"/><stop offset="0.15" stop-color="#333"/><stop offset="0.24" stop-color="#666"/><stop offset="0.45" stop-color="#e6e6e6"/><stop offset="0.78" stop-color="#333"/><stop offset="0.86" stop-color="#cdcdcd"/><stop offset="1" stop-color="#1a1a1a"/></linearGradient><linearGradient id="linear-gradient-5" x1="28.21" y1="52.03" x2="36.89" y2="52.03" xlink:href="#linear-gradient-4"/><linearGradient id="linear-gradient-6" x1="28.21" y1="53.11" x2="36.89" y2="53.11" xlink:href="#linear-gradient-4"/><linearGradient id="linear-gradient-7" x1="28.21" y1="54.2" x2="36.89" y2="54.2" xlink:href="#linear-gradient-4"/><linearGradient id="linear-gradient-8" x1="29.66" y1="55.46" x2="35.44" y2="55.46" xlink:href="#linear-gradient-4"/></defs><path class="cls-1" d="M7,0H65a0,0,0,0,1,0,0V69.33a0,0,0,0,1,0,0H7a7,7,0,0,1-7-7V7A7,7,0,0,1,7,0Z" transform="translate(65.01 69.33) rotate(-180)"/><path class="cls-2" d="M10.24,10.82V6.43h2.61V7H10.94V8.35h1.62v.59H10.94v1.88Z"/><path class="cls-2" d="M13.61,10.82V6.43h.71v3.8h1.85v.59Z"/><path class="cls-2" d="M18.42,10.9A1.74,1.74,0,0,1,17,10.28a2.5,2.5,0,0,1-.53-1.67A2.43,2.43,0,0,1,17,7,1.89,1.89,0,0,1,19.8,7a2.38,2.38,0,0,1,.53,1.66,2.44,2.44,0,0,1-.53,1.67A1.74,1.74,0,0,1,18.42,10.9Zm0-.61a1,1,0,0,0,.86-.46,2,2,0,0,0,.33-1.22,2,2,0,0,0-.33-1.21,1.08,1.08,0,0,0-1.72,0,2,2,0,0,0-.33,1.21,2,2,0,0,0,.33,1.22A1,1,0,0,0,18.42,10.29Z"/><path class="cls-2" d="M22.85,10.9a1.59,1.59,0,0,1-1.18-.45,2.06,2.06,0,0,1-.45-1.51V6.43h.7V9a1.55,1.55,0,0,0,.26,1,.88.88,0,0,0,.67.29.91.91,0,0,0,.69-.29,1.49,1.49,0,0,0,.27-1V6.43h.67V8.94A2.06,2.06,0,0,1,24,10.45,1.57,1.57,0,0,1,22.85,10.9Z"/><path class="cls-2" d="M26.31,10.82H25.6V6.43h1.45a2.08,2.08,0,0,1,1.13.28,1.07,1.07,0,0,1,.46,1,1.28,1.28,0,0,1-.25.81,1.3,1.3,0,0,1-.67.44l1.07,1.86H28L27,9.06h-.71Zm0-2.33H27c.65,0,1-.26,1-.78a.62.62,0,0,0-.25-.56A1.37,1.37,0,0,0,27,7h-.66Z"/><path class="cls-2" d="M29.52,10.82V6.43h2.6V7h-1.9v1.2h1.61v.6H30.22v1.4h2v.59Z"/><path class="cls-2" d="M34.35,10.9a2.22,2.22,0,0,1-.85-.17,2.17,2.17,0,0,1-.71-.48l.41-.48a2,2,0,0,0,.54.37,1.45,1.45,0,0,0,.63.15,1,1,0,0,0,.6-.17.57.57,0,0,0,.21-.45A.46.46,0,0,0,35,9.25a3.76,3.76,0,0,0-.5-.27l-.61-.27a2,2,0,0,1-.6-.4A1,1,0,0,1,33,7.56a1.08,1.08,0,0,1,.4-.86,1.58,1.58,0,0,1,1-.35,1.8,1.8,0,0,1,.73.15,1.83,1.83,0,0,1,.6.41l-.36.44A1.63,1.63,0,0,0,35,7.07a1.29,1.29,0,0,0-.53-.1.87.87,0,0,0-.53.14.47.47,0,0,0-.2.41.45.45,0,0,0,.22.41,2.25,2.25,0,0,0,.49.25l.6.25a1.87,1.87,0,0,1,.64.44,1,1,0,0,1,.25.74,1.19,1.19,0,0,1-.41.91A1.63,1.63,0,0,1,34.35,10.9Z"/><path class="cls-2" d="M38.44,10.9a1.85,1.85,0,0,1-1.39-.59,2.31,2.31,0,0,1-.57-1.68A2.34,2.34,0,0,1,37.06,7a1.84,1.84,0,0,1,1.41-.61,1.57,1.57,0,0,1,.73.17,1.88,1.88,0,0,1,.51.38l-.37.45A2,2,0,0,0,39,7.07a1,1,0,0,0-.47-.1,1.13,1.13,0,0,0-.93.44,1.88,1.88,0,0,0-.35,1.2,2,2,0,0,0,.34,1.23,1.09,1.09,0,0,0,.92.45,1.07,1.07,0,0,0,.53-.13,1.54,1.54,0,0,0,.43-.34l.38.44a1.82,1.82,0,0,1-.61.47A1.73,1.73,0,0,1,38.44,10.9Z"/><path class="cls-2" d="M40.56,10.82V6.43h2.61V7h-1.9v1.2h1.6v.6h-1.6v1.4h2v.59Z"/><path class="cls-2" d="M44.14,10.82V6.43h.72L46.3,9l.47.93h0c0-.23,0-.47,0-.72a6.44,6.44,0,0,1,0-.75v-2h.66v4.39h-.72L45.21,8.25l-.46-.92h0c0,.23,0,.46.06.71s0,.49,0,.73v2.05Z"/><path class="cls-2" d="M50.24,10.9a1.87,1.87,0,0,1-1.4-.59,2.35,2.35,0,0,1-.56-1.68A2.29,2.29,0,0,1,48.86,7a1.83,1.83,0,0,1,1.4-.61,1.54,1.54,0,0,1,.73.17,2.12,2.12,0,0,1,.52.38l-.38.45a1.49,1.49,0,0,0-.38-.28,1,1,0,0,0-.47-.1,1.1,1.1,0,0,0-.92.44A1.83,1.83,0,0,0,49,8.61a2,2,0,0,0,.34,1.23,1.11,1.11,0,0,0,.92.45,1.08,1.08,0,0,0,.54-.13,1.69,1.69,0,0,0,.43-.34l.37.44a1.89,1.89,0,0,1-.6.47A1.73,1.73,0,0,1,50.24,10.9Z"/><path class="cls-2" d="M52.36,10.82V6.43H55V7h-1.9v1.2h1.61v.6H53.06v1.4h2v.59Z"/><path class="cls-2" d="M10.92,16.82V12.43h.7v3.8h1.85v.59Z"/><path class="cls-2" d="M14.24,16.82V12.43h.7v4.39Z"/><path class="cls-2" d="M17.89,16.9a2,2,0,0,1-1.46-.59,2.27,2.27,0,0,1-.58-1.68A2.3,2.3,0,0,1,16.44,13a1.93,1.93,0,0,1,1.46-.61,1.71,1.71,0,0,1,.79.17,2.12,2.12,0,0,1,.52.38l-.38.45a1.46,1.46,0,0,0-.38-.27,1.05,1.05,0,0,0-.52-.11,1.22,1.22,0,0,0-1,.44,1.83,1.83,0,0,0-.36,1.2,1.91,1.91,0,0,0,.35,1.23,1.24,1.24,0,0,0,1,.45,1,1,0,0,0,.68-.22v-1h-.87v-.58h1.5v1.9a1.71,1.71,0,0,1-.57.37A2.09,2.09,0,0,1,17.89,16.9Z"/><path class="cls-2" d="M20.27,16.82V12.43H21v1.79h1.87V12.43h.7v4.39h-.7v-2H21v2Z"/><path class="cls-2" d="M25.58,16.82V13H24.29v-.6h3.28V13H26.28v3.79Z"/><path class="cls-2" d="M30.92,16.9a2.27,2.27,0,0,1-.86-.17,2.13,2.13,0,0,1-.7-.48l.4-.48a1.9,1.9,0,0,0,.55.37,1.38,1.38,0,0,0,.62.15,1,1,0,0,0,.61-.17.57.57,0,0,0,.21-.45.47.47,0,0,0-.2-.42,3.22,3.22,0,0,0-.5-.27l-.61-.27a2,2,0,0,1-.6-.4,1,1,0,0,1-.29-.75A1.09,1.09,0,0,1,30,12.7a1.56,1.56,0,0,1,1-.35,1.83,1.83,0,0,1,.73.15,1.78,1.78,0,0,1,.59.41l-.36.44a1.49,1.49,0,0,0-.44-.28A1.27,1.27,0,0,0,31,13a.91.91,0,0,0-.54.14.5.5,0,0,0-.2.41.45.45,0,0,0,.22.41,2.51,2.51,0,0,0,.49.25l.6.25a1.78,1.78,0,0,1,.64.44,1,1,0,0,1,.25.74,1.16,1.16,0,0,1-.41.91A1.61,1.61,0,0,1,30.92,16.9Z"/><path class="cls-2" d="M35,16.9a1.73,1.73,0,0,1-1.38-.62,2.44,2.44,0,0,1-.53-1.67A2.38,2.38,0,0,1,33.58,13a1.75,1.75,0,0,1,1.38-.6,1.77,1.77,0,0,1,1.38.6,2.43,2.43,0,0,1,.53,1.66,2.5,2.5,0,0,1-.53,1.67A1.76,1.76,0,0,1,35,16.9Zm0-.61a1,1,0,0,0,.86-.46,2,2,0,0,0,.33-1.22,2,2,0,0,0-.33-1.21,1.08,1.08,0,0,0-1.72,0,2,2,0,0,0-.33,1.21,2,2,0,0,0,.33,1.22A1,1,0,0,0,35,16.29Z"/><path class="cls-2" d="M39.39,16.9a1.59,1.59,0,0,1-1.18-.45,2.06,2.06,0,0,1-.45-1.51V12.43h.7V15a1.55,1.55,0,0,0,.26,1,.87.87,0,0,0,.67.29.91.91,0,0,0,.69-.29,1.49,1.49,0,0,0,.27-1V12.43H41v2.51a2.06,2.06,0,0,1-.45,1.51A1.57,1.57,0,0,1,39.39,16.9Z"/><path class="cls-2" d="M42.85,16.82h-.71V12.43h1.45a2.08,2.08,0,0,1,1.13.28,1.07,1.07,0,0,1,.46,1,1.28,1.28,0,0,1-.25.81,1.3,1.3,0,0,1-.67.44l1.07,1.86h-.79l-1-1.76h-.71Zm0-2.33h.66c.65,0,1-.26,1-.78a.62.62,0,0,0-.25-.56,1.37,1.37,0,0,0-.72-.16h-.66Z"/><path class="cls-2" d="M47.78,16.9a1.87,1.87,0,0,1-1.4-.59,2.35,2.35,0,0,1-.56-1.68A2.29,2.29,0,0,1,46.4,13a1.83,1.83,0,0,1,1.4-.61,1.54,1.54,0,0,1,.73.17,1.94,1.94,0,0,1,.52.38l-.38.45a1.49,1.49,0,0,0-.38-.28,1,1,0,0,0-.47-.1,1.11,1.11,0,0,0-.92.44,1.83,1.83,0,0,0-.35,1.2,2,2,0,0,0,.34,1.23,1.16,1.16,0,0,0,1.45.32,1.54,1.54,0,0,0,.43-.34l.37.44a1.89,1.89,0,0,1-.6.47A1.73,1.73,0,0,1,47.78,16.9Z"/><path class="cls-2" d="M49.9,16.82V12.43h2.61V13H50.6v1.2h1.61v.6H50.6v1.4h2v.59Z"/><path class="cls-2" d="M53.8,14.57a.45.45,0,0,1-.33-.14.54.54,0,0,1,0-.7.46.46,0,0,1,.66,0,.54.54,0,0,1,0,.7A.45.45,0,0,1,53.8,14.57Zm0,2.33a.45.45,0,0,1-.33-.14.47.47,0,0,1-.13-.34.48.48,0,0,1,.13-.36.46.46,0,0,1,.66,0,.48.48,0,0,1,.13.36.47.47,0,0,1-.13.34A.45.45,0,0,1,53.8,16.9Z"/><path class="cls-2" d="M17.14,64.93a3.3,3.3,0,0,1-1.49-.34,2.49,2.49,0,0,1-1.07-1,3.63,3.63,0,0,1,0-3.33,2.7,2.7,0,0,1,1.07-1.05,3,3,0,0,1,1.44-.36,2.65,2.65,0,0,1,1.13.23,3.35,3.35,0,0,1,.78.54l-.81,1a2.65,2.65,0,0,0-.46-.31,1.26,1.26,0,0,0-.59-.12,1.28,1.28,0,0,0-1,.45,1.84,1.84,0,0,0-.39,1.24,1.89,1.89,0,0,0,.37,1.27,1.42,1.42,0,0,0,1.16.44.83.83,0,0,0,.45-.1v-.81h-.87V61.42h2.24v2.79a2.79,2.79,0,0,1-.84.5A3,3,0,0,1,17.14,64.93Z"/><path class="cls-2" d="M20.25,64.82V59H24v1.29H21.8v.92h1.91v1.3H21.8v1h2.32v1.3Z"/><path class="cls-2" d="M25.25,64.82V59h1.59l1.29,2.61.56,1.31h0c0-.31-.08-.67-.13-1.08a9.44,9.44,0,0,1-.07-1.15V59H30v5.85H28.42L27.13,62.2l-.56-1.31h0c0,.34.08.71.13,1.1a9.16,9.16,0,0,1,.07,1.14v1.69Z"/><path class="cls-2" d="M31.3,64.82V59h3.78v1.29H32.85v.92h1.91v1.3H32.85v1h2.32v1.3Z"/><path class="cls-2" d="M37.85,64.82H36.31V59h2.21a3.58,3.58,0,0,1,1.16.17,1.74,1.74,0,0,1,.86.58,1.82,1.82,0,0,1,.32,1.14,1.93,1.93,0,0,1-.26,1,1.84,1.84,0,0,1-.68.65l1.26,2.27H39.46l-1-2h-.6Zm0-3.19h.56c.63,0,.94-.26.94-.77a.55.55,0,0,0-.24-.52,1.32,1.32,0,0,0-.7-.15h-.56Z"/><path class="cls-2" d="M42,64.82V59h1.54v5.85Z"/><path class="cls-2" d="M47.36,64.93A2.94,2.94,0,0,1,46,64.59a2.43,2.43,0,0,1-1-1,3.71,3.71,0,0,1,0-3.33,2.75,2.75,0,0,1,2.42-1.41,2.38,2.38,0,0,1,1,.23,3.08,3.08,0,0,1,.77.54l-.81,1a2.52,2.52,0,0,0-.44-.31,1.15,1.15,0,0,0-.53-.12,1.16,1.16,0,0,0-.9.45,1.89,1.89,0,0,0-.38,1.24,2,2,0,0,0,.35,1.27,1.08,1.08,0,0,0,.91.44,1.23,1.23,0,0,0,.61-.15,1.8,1.8,0,0,0,.45-.35l.81,1A2.39,2.39,0,0,1,47.36,64.93Z"/><path class="cls-3" d="M41.63,37.57A5.16,5.16,0,0,1,40.56,39l-.09.1H24.63l-.09-.1,0,0a5.22,5.22,0,0,1-1-1.41A10.31,10.31,0,0,1,23.7,27a11.17,11.17,0,0,1,8-5.45,8,8,0,0,1,1.62,0,11.19,11.19,0,0,1,8,5.45A10.31,10.31,0,0,1,41.63,37.57Z"/><path class="cls-4" d="M40.47,39.11c-2.14,2.23-2.14,8.66-2.14,8.66a1.72,1.72,0,0,1,0,.39,3.11,3.11,0,0,1-3.18,2.24H30a3.11,3.11,0,0,1-3.18-2.24,1.72,1.72,0,0,1,0-.39s0-6.43-2.14-8.66Z"/><rect class="cls-5" x="28.21" y="50.4" width="8.67" height="1.08" rx="0.21"/><rect class="cls-6" x="28.21" y="50.4" width="8.67" height="1.08" rx="0.21"/><rect class="cls-7" x="28.21" y="51.49" width="8.67" height="1.08" rx="0.21"/><rect class="cls-6" x="28.21" y="51.49" width="8.67" height="1.08" rx="0.21"/><rect class="cls-8" x="28.21" y="52.57" width="8.67" height="1.08" rx="0.21"/><rect class="cls-6" x="28.21" y="52.57" width="8.67" height="1.08" rx="0.21"/><path class="cls-9" d="M36.31,54.74H28.78a.58.58,0,0,1-.57-.57v-.36a.15.15,0,0,1,.15-.15h8.38a.15.15,0,0,1,.15.15v.36A.58.58,0,0,1,36.31,54.74Z"/><path class="cls-6" d="M36.31,54.74H28.78a.58.58,0,0,1-.57-.57v-.36a.15.15,0,0,1,.15-.15h8.38a.15.15,0,0,1,.15.15v.36A.58.58,0,0,1,36.31,54.74Z"/><path class="cls-10" d="M29.66,54.74v.09a1.41,1.41,0,0,0,1.44,1.35H34a1.42,1.42,0,0,0,1.45-1.44Z"/><path class="cls-6" d="M29.66,54.74v.09a1.41,1.41,0,0,0,1.44,1.35H34a1.42,1.42,0,0,0,1.45-1.44Z"/><path class="cls-1" d="M7,0H65a0,0,0,0,1,0,0V69.33a0,0,0,0,1,0,0H7a7,7,0,0,1-7-7V7A7,7,0,0,1,7,0Z" transform="translate(65.01 69.33) rotate(-180)"/><path class="cls-2" d="M10.24,10.82V6.43h2.61V7H10.94V8.35h1.62v.59H10.94v1.88Z"/><path class="cls-2" d="M13.61,10.82V6.43h.71v3.8h1.85v.59Z"/><path class="cls-2" d="M21.19,10.28a2.45,2.45,0,0,1-.54-1.67A2.39,2.39,0,0,1,21.19,7a1.75,1.75,0,0,1,1.38-.6A1.77,1.77,0,0,1,24,7a2.43,2.43,0,0,1,.53,1.66A2.5,2.5,0,0,1,24,10.28a1.76,1.76,0,0,1-1.38.62A1.73,1.73,0,0,1,21.19,10.28Zm2.24-.45a2,2,0,0,0,.32-1.22,2,2,0,0,0-.32-1.21A1,1,0,0,0,22.57,7a1,1,0,0,0-.87.43,2.07,2.07,0,0,0-.32,1.21,2.1,2.1,0,0,0,.32,1.22,1,1,0,0,0,.87.46A1,1,0,0,0,23.43,9.83Z"/><path class="cls-2" d="M17,10.45a2.11,2.11,0,0,1-.44-1.51V6.43h.67V9a1.49,1.49,0,0,0,.27,1,.91.91,0,0,0,.68.29A.86.86,0,0,0,18.8,10a1.49,1.49,0,0,0,.27-1V6.43h.7V8.94a2.06,2.06,0,0,1-.45,1.51,1.61,1.61,0,0,1-1.19.45A1.59,1.59,0,0,1,17,10.45Z"/><path class="cls-2" d="M26.31,10.82H25.6V6.43h1.45a2.08,2.08,0,0,1,1.13.28,1.07,1.07,0,0,1,.46,1,1.28,1.28,0,0,1-.25.81,1.3,1.3,0,0,1-.67.44l1.07,1.86H28L27,9.06h-.71Zm0-2.33H27c.65,0,1-.26,1-.78a.62.62,0,0,0-.25-.56A1.37,1.37,0,0,0,27,7h-.66Z"/><path class="cls-2" d="M29.52,10.82V6.43h2.6V7h-1.9v1.2h1.61v.6H30.22v1.4h2v.59Z"/><path class="cls-2" d="M34.35,10.9a2.22,2.22,0,0,1-.85-.17,2.17,2.17,0,0,1-.71-.48l.41-.48a2,2,0,0,0,.54.37,1.45,1.45,0,0,0,.63.15,1,1,0,0,0,.6-.17.57.57,0,0,0,.21-.45A.46.46,0,0,0,35,9.25a3.76,3.76,0,0,0-.5-.27l-.61-.27a2,2,0,0,1-.6-.4A1,1,0,0,1,33,7.56a1.08,1.08,0,0,1,.4-.86,1.58,1.58,0,0,1,1-.35,1.8,1.8,0,0,1,.73.15,1.83,1.83,0,0,1,.6.41l-.36.44A1.63,1.63,0,0,0,35,7.07a1.29,1.29,0,0,0-.53-.1.87.87,0,0,0-.53.14.47.47,0,0,0-.2.41.45.45,0,0,0,.22.41,2.25,2.25,0,0,0,.49.25l.6.25a1.87,1.87,0,0,1,.64.44,1,1,0,0,1,.25.74,1.19,1.19,0,0,1-.41.91A1.63,1.63,0,0,1,34.35,10.9Z"/><path class="cls-2" d="M38.44,10.9a1.85,1.85,0,0,1-1.39-.59,2.31,2.31,0,0,1-.57-1.68A2.34,2.34,0,0,1,37.06,7a1.84,1.84,0,0,1,1.41-.61,1.57,1.57,0,0,1,.73.17,1.88,1.88,0,0,1,.51.38l-.37.45A2,2,0,0,0,39,7.07a1,1,0,0,0-.47-.1,1.13,1.13,0,0,0-.93.44,1.88,1.88,0,0,0-.35,1.2,2,2,0,0,0,.34,1.23,1.09,1.09,0,0,0,.92.45,1.07,1.07,0,0,0,.53-.13,1.54,1.54,0,0,0,.43-.34l.38.44a1.82,1.82,0,0,1-.61.47A1.73,1.73,0,0,1,38.44,10.9Z"/><path class="cls-2" d="M40.56,10.82V6.43h2.61V7h-1.9v1.2h1.6v.6h-1.6v1.4h2v.59Z"/><path class="cls-2" d="M44.14,10.82V6.43h.72L46.3,9l.47.93h0c0-.23,0-.47,0-.72a6.44,6.44,0,0,1,0-.75v-2h.66v4.39h-.72L45.21,8.25l-.46-.92h0c0,.23,0,.46.06.71s0,.49,0,.73v2.05Z"/><path class="cls-2" d="M50.24,10.9a1.87,1.87,0,0,1-1.4-.59,2.35,2.35,0,0,1-.56-1.68A2.29,2.29,0,0,1,48.86,7a1.83,1.83,0,0,1,1.4-.61,1.54,1.54,0,0,1,.73.17,2.12,2.12,0,0,1,.52.38l-.38.45a1.49,1.49,0,0,0-.38-.28,1,1,0,0,0-.47-.1,1.1,1.1,0,0,0-.92.44A1.83,1.83,0,0,0,49,8.61a2,2,0,0,0,.34,1.23,1.11,1.11,0,0,0,.92.45,1.08,1.08,0,0,0,.54-.13,1.69,1.69,0,0,0,.43-.34l.37.44a1.89,1.89,0,0,1-.6.47A1.73,1.73,0,0,1,50.24,10.9Z"/><path class="cls-2" d="M52.36,10.82V6.43H55V7h-1.9v1.2h1.61v.6H53.06v1.4h2v.59Z"/><path class="cls-2" d="M10.92,16.82V12.43h.7v3.8h1.85v.59Z"/><path class="cls-2" d="M14.24,16.82V12.43h.7v4.39Z"/><path class="cls-2" d="M17.89,16.9a2,2,0,0,1-1.46-.59,2.27,2.27,0,0,1-.58-1.68A2.3,2.3,0,0,1,16.44,13a1.93,1.93,0,0,1,1.46-.61,1.71,1.71,0,0,1,.79.17,2.12,2.12,0,0,1,.52.38l-.38.45a1.46,1.46,0,0,0-.38-.27,1.05,1.05,0,0,0-.52-.11,1.22,1.22,0,0,0-1,.44,1.83,1.83,0,0,0-.36,1.2,1.91,1.91,0,0,0,.35,1.23,1.24,1.24,0,0,0,1,.45,1,1,0,0,0,.68-.22v-1h-.87v-.58h1.5v1.9a1.71,1.71,0,0,1-.57.37A2.09,2.09,0,0,1,17.89,16.9Z"/><path class="cls-2" d="M20.27,16.82V12.43H21v1.79h1.87V12.43h.7v4.39h-.7v-2H21v2Z"/><path class="cls-2" d="M25.58,16.82V13H24.29v-.6h3.28V13H26.28v3.79Z"/><path class="cls-2" d="M30.92,16.9a2.27,2.27,0,0,1-.86-.17,2.13,2.13,0,0,1-.7-.48l.4-.48a1.9,1.9,0,0,0,.55.37,1.38,1.38,0,0,0,.62.15,1,1,0,0,0,.61-.17.57.57,0,0,0,.21-.45.47.47,0,0,0-.2-.42,3.22,3.22,0,0,0-.5-.27l-.61-.27a2,2,0,0,1-.6-.4,1,1,0,0,1-.29-.75A1.09,1.09,0,0,1,30,12.7a1.56,1.56,0,0,1,1-.35,1.83,1.83,0,0,1,.73.15,1.78,1.78,0,0,1,.59.41l-.36.44a1.49,1.49,0,0,0-.44-.28A1.27,1.27,0,0,0,31,13a.91.91,0,0,0-.54.14.5.5,0,0,0-.2.41.45.45,0,0,0,.22.41,2.51,2.51,0,0,0,.49.25l.6.25a1.78,1.78,0,0,1,.64.44,1,1,0,0,1,.25.74,1.16,1.16,0,0,1-.41.91A1.61,1.61,0,0,1,30.92,16.9Z"/><path class="cls-2" d="M35,16.9a1.73,1.73,0,0,1-1.38-.62,2.44,2.44,0,0,1-.53-1.67A2.38,2.38,0,0,1,33.58,13a1.75,1.75,0,0,1,1.38-.6,1.77,1.77,0,0,1,1.38.6,2.43,2.43,0,0,1,.53,1.66,2.5,2.5,0,0,1-.53,1.67A1.76,1.76,0,0,1,35,16.9Zm0-.61a1,1,0,0,0,.86-.46,2,2,0,0,0,.33-1.22,2,2,0,0,0-.33-1.21,1.08,1.08,0,0,0-1.72,0,2,2,0,0,0-.33,1.21,2,2,0,0,0,.33,1.22A1,1,0,0,0,35,16.29Z"/><path class="cls-2" d="M39.39,16.9a1.59,1.59,0,0,1-1.18-.45,2.06,2.06,0,0,1-.45-1.51V12.43h.7V15a1.55,1.55,0,0,0,.26,1,.87.87,0,0,0,.67.29.91.91,0,0,0,.69-.29,1.49,1.49,0,0,0,.27-1V12.43H41v2.51a2.06,2.06,0,0,1-.45,1.51A1.57,1.57,0,0,1,39.39,16.9Z"/><path class="cls-2" d="M42.85,16.82h-.71V12.43h1.45a2.08,2.08,0,0,1,1.13.28,1.07,1.07,0,0,1,.46,1,1.28,1.28,0,0,1-.25.81,1.3,1.3,0,0,1-.67.44l1.07,1.86h-.79l-1-1.76h-.71Zm0-2.33h.66c.65,0,1-.26,1-.78a.62.62,0,0,0-.25-.56,1.37,1.37,0,0,0-.72-.16h-.66Z"/><path class="cls-2" d="M47.78,16.9a1.87,1.87,0,0,1-1.4-.59,2.35,2.35,0,0,1-.56-1.68A2.29,2.29,0,0,1,46.4,13a1.83,1.83,0,0,1,1.4-.61,1.54,1.54,0,0,1,.73.17,1.94,1.94,0,0,1,.52.38l-.38.45a1.49,1.49,0,0,0-.38-.28,1,1,0,0,0-.47-.1,1.11,1.11,0,0,0-.92.44,1.83,1.83,0,0,0-.35,1.2,2,2,0,0,0,.34,1.23,1.16,1.16,0,0,0,1.45.32,1.54,1.54,0,0,0,.43-.34l.37.44a1.89,1.89,0,0,1-.6.47A1.73,1.73,0,0,1,47.78,16.9Z"/><path class="cls-2" d="M49.9,16.82V12.43h2.61V13H50.6v1.2h1.61v.6H50.6v1.4h2v.59Z"/><path class="cls-2" d="M53.8,14.57a.45.45,0,0,1-.33-.14.54.54,0,0,1,0-.7.46.46,0,0,1,.66,0,.54.54,0,0,1,0,.7A.45.45,0,0,1,53.8,14.57Zm0,2.33a.45.45,0,0,1-.33-.14.47.47,0,0,1-.13-.34.48.48,0,0,1,.13-.36.46.46,0,0,1,.66,0,.48.48,0,0,1,.13.36.47.47,0,0,1-.13.34A.45.45,0,0,1,53.8,16.9Z"/><path class="cls-2" d="M17.14,64.93a3.3,3.3,0,0,1-1.49-.34,2.49,2.49,0,0,1-1.07-1,3.63,3.63,0,0,1,0-3.33,2.7,2.7,0,0,1,1.07-1.05,3,3,0,0,1,1.44-.36,2.65,2.65,0,0,1,1.13.23,3.35,3.35,0,0,1,.78.54l-.81,1a2.65,2.65,0,0,0-.46-.31,1.26,1.26,0,0,0-.59-.12,1.28,1.28,0,0,0-1,.45,1.84,1.84,0,0,0-.39,1.24,1.89,1.89,0,0,0,.37,1.27,1.42,1.42,0,0,0,1.16.44.83.83,0,0,0,.45-.1v-.81h-.87V61.42h2.24v2.79a2.79,2.79,0,0,1-.84.5A3,3,0,0,1,17.14,64.93Z"/><path class="cls-2" d="M20.25,64.82V59H24v1.29H21.8v.92h1.91v1.3H21.8v1h2.32v1.3Z"/><path class="cls-2" d="M25.25,64.82V59h1.59l1.29,2.61.56,1.31h0c0-.31-.08-.67-.13-1.08a9.44,9.44,0,0,1-.07-1.15V59H30v5.85H28.42L27.13,62.2l-.56-1.31h0c0,.34.08.71.13,1.1a9.16,9.16,0,0,1,.07,1.14v1.69Z"/><path class="cls-2" d="M31.3,64.82V59h3.78v1.29H32.85v.92h1.91v1.3H32.85v1h2.32v1.3Z"/><path class="cls-2" d="M37.85,64.82H36.31V59h2.21a3.58,3.58,0,0,1,1.16.17,1.74,1.74,0,0,1,.86.58,1.82,1.82,0,0,1,.32,1.14,1.93,1.93,0,0,1-.26,1,1.84,1.84,0,0,1-.68.65l1.26,2.27H39.46l-1-2h-.6Zm0-3.19h.56c.63,0,.94-.26.94-.77a.55.55,0,0,0-.24-.52,1.32,1.32,0,0,0-.7-.15h-.56Z"/><path class="cls-2" d="M42,64.82V59h1.54v5.85Z"/><path class="cls-2" d="M47.36,64.93A2.94,2.94,0,0,1,46,64.59a2.43,2.43,0,0,1-1-1,3.71,3.71,0,0,1,0-3.33,2.75,2.75,0,0,1,2.42-1.41,2.38,2.38,0,0,1,1,.23,3.08,3.08,0,0,1,.77.54l-.81,1a2.52,2.52,0,0,0-.44-.31,1.15,1.15,0,0,0-.53-.12,1.16,1.16,0,0,0-.9.45,1.89,1.89,0,0,0-.38,1.24,2,2,0,0,0,.35,1.27,1.08,1.08,0,0,0,.91.44,1.23,1.23,0,0,0,.61-.15,1.8,1.8,0,0,0,.45-.35l.81,1A2.39,2.39,0,0,1,47.36,64.93Z"/><path class="cls-3" d="M41.63,37.57A5.16,5.16,0,0,1,40.56,39l-.09.1H24.63l-.09-.1,0,0a5.22,5.22,0,0,1-1-1.41A10.31,10.31,0,0,1,23.7,27a11.17,11.17,0,0,1,8-5.45,8,8,0,0,1,1.62,0,11.19,11.19,0,0,1,8,5.45A10.31,10.31,0,0,1,41.63,37.57Z"/><path class="cls-4" d="M40.47,39.11c-2.14,2.23-2.14,8.66-2.14,8.66a1.72,1.72,0,0,1,0,.39,3.11,3.11,0,0,1-3.18,2.24H30a3.11,3.11,0,0,1-3.18-2.24,1.72,1.72,0,0,1,0-.39s0-6.43-2.14-8.66Z"/><rect class="cls-5" x="28.21" y="50.4" width="8.67" height="1.08" rx="0.21"/><rect class="cls-6" x="28.21" y="50.4" width="8.67" height="1.08" rx="0.21"/><rect class="cls-7" x="28.21" y="51.49" width="8.67" height="1.08" rx="0.21"/><rect class="cls-6" x="28.21" y="51.49" width="8.67" height="1.08" rx="0.21"/><rect class="cls-8" x="28.21" y="52.57" width="8.67" height="1.08" rx="0.21"/><rect class="cls-6" x="28.21" y="52.57" width="8.67" height="1.08" rx="0.21"/><path class="cls-9" d="M36.31,54.74H28.78a.58.58,0,0,1-.57-.57v-.36a.15.15,0,0,1,.15-.15h8.38a.15.15,0,0,1,.15.15v.36A.58.58,0,0,1,36.31,54.74Z"/><path class="cls-6" d="M36.31,54.74H28.78a.58.58,0,0,1-.57-.57v-.36a.15.15,0,0,1,.15-.15h8.38a.15.15,0,0,1,.15.15v.36A.58.58,0,0,1,36.31,54.74Z"/><path class="cls-10" d="M29.66,54.74v.09a1.41,1.41,0,0,0,1.44,1.35H34a1.42,1.42,0,0,0,1.45-1.44Z"/><path class="cls-6" d="M29.66,54.74v.09a1.41,1.41,0,0,0,1.44,1.35H34a1.42,1.42,0,0,0,1.45-1.44Z"/></svg>