<svg id="Layer_1" data-name="Layer 1" xmlns="http://www.w3.org/2000/svg" xmlns:xlink="http://www.w3.org/1999/xlink" width="65.01" height="69.33" viewBox="0 0 65.01 69.33"><defs><style>.cls-1{fill:url(#linear-gradient);}.cls-2{fill:#fff;}.cls-11,.cls-12,.cls-18,.cls-19,.cls-20,.cls-21,.cls-22,.cls-23,.cls-24,.cls-25,.cls-26,.cls-3,.cls-4,.cls-6{stroke-miterlimit:10;}.cls-11,.cls-12,.cls-18,.cls-19,.cls-25,.cls-26,.cls-3,.cls-4{stroke-width:0.15px;}.cls-3{fill:url(#linear-gradient-2);stroke:url(#linear-gradient-3);}.cls-12,.cls-19,.cls-20,.cls-21,.cls-22,.cls-23,.cls-24,.cls-26,.cls-4,.cls-6{stroke:#ccc;}.cls-4{fill:url(#linear-gradient-4);}.cls-5{fill:url(#linear-gradient-5);}.cls-6{fill:none;}.cls-20,.cls-21,.cls-22,.cls-23,.cls-24,.cls-6{stroke-width:0.09px;}.cls-7{fill:url(#linear-gradient-6);}.cls-8{fill:url(#linear-gradient-7);}.cls-9{fill:url(#linear-gradient-8);}.cls-10{fill:url(#linear-gradient-9);}.cls-11{fill:url(#linear-gradient-10);stroke:url(#linear-gradient-11);}.cls-12{fill:url(#linear-gradient-12);}.cls-13{fill:url(#linear-gradient-13);}.cls-14{fill:url(#linear-gradient-14);}.cls-15{fill:url(#linear-gradient-15);}.cls-16{fill:url(#linear-gradient-16);}.cls-17{fill:url(#linear-gradient-17);}.cls-18{fill:url(#linear-gradient-18);stroke:url(#linear-gradient-19);}.cls-19{fill:url(#linear-gradient-20);}.cls-20{fill:url(#linear-gradient-21);}.cls-21{fill:url(#linear-gradient-22);}.cls-22{fill:url(#linear-gradient-23);}.cls-23{fill:url(#linear-gradient-24);}.cls-24{fill:url(#linear-gradient-25);}.cls-25{fill:url(#linear-gradient-26);stroke:url(#linear-gradient-27);}.cls-26{fill:url(#linear-gradient-28);}.cls-27{fill:url(#linear-gradient-29);}.cls-28{fill:url(#linear-gradient-30);}.cls-29{fill:url(#linear-gradient-31);}.cls-30{fill:url(#linear-gradient-32);}.cls-31{fill:url(#linear-gradient-33);}</style><linearGradient id="linear-gradient" x1="7212.55" y1="34.67" x2="7147.54" y2="34.67" gradientTransform="matrix(1, 0, 0, -1, -7147.54, 69.33)" gradientUnits="userSpaceOnUse"><stop offset="0" stop-color="#c12730"/><stop offset="0.33" stop-color="#9f1b2b"/><stop offset="0.77" stop-color="#780d26"/><stop offset="1" stop-color="#690824"/></linearGradient><linearGradient id="linear-gradient-2" x1="39.98" y1="26.87" x2="39.98" y2="37.37" gradientTransform="translate(-28.05)" gradientUnits="userSpaceOnUse"><stop offset="0" stop-color="#ffeeef"/><stop offset="0.09" stop-color="#f4d8e9"/><stop offset="0.28" stop-color="#d99eda"/><stop offset="0.56" stop-color="#ae42c3"/><stop offset="0.59" stop-color="#a937c0"/><stop offset="0.81" stop-color="#8e2bc6"/><stop offset="1" stop-color="#a71adc"/></linearGradient><linearGradient id="linear-gradient-3" x1="39.98" y1="37.45" x2="39.98" y2="26.8" gradientTransform="translate(-28.05)" gradientUnits="userSpaceOnUse"><stop offset="0" stop-color="#ffeeef"/><stop offset="0.47" stop-color="#a937c0"/><stop offset="0.81" stop-color="#8e2bc6"/><stop offset="1" stop-color="#a71adc"/></linearGradient><linearGradient id="linear-gradient-4" x1="35.24" y1="40.75" x2="44.71" y2="40.75" gradientTransform="translate(-28.05)" gradientUnits="userSpaceOnUse"><stop offset="0" stop-color="#e2cfcf"/><stop offset="0.21" stop-color="#e0d8d8"/><stop offset="0.86" stop-color="#f2f2f2"/><stop offset="0.97" stop-color="#dfdfdf"/><stop offset="1" stop-color="#ffb3b3"/></linearGradient><linearGradient id="linear-gradient-5" x1="37.39" y1="44.44" x2="42.57" y2="44.44" gradientTransform="translate(-28.05)" gradientUnits="userSpaceOnUse"><stop offset="0" stop-color="#1a1a1a"/><stop offset="0" stop-color="#242424"/><stop offset="0.02" stop-color="#5b5b5b"/><stop offset="0.04" stop-color="#878787"/><stop offset="0.06" stop-color="#a6a6a6"/><stop offset="0.08" stop-color="#b9b9b9"/><stop offset="0.09" stop-color="silver"/><stop offset="0.15" stop-color="#333"/><stop offset="0.24" stop-color="#666"/><stop offset="0.45" stop-color="#e6e6e6"/><stop offset="0.78" stop-color="#333"/><stop offset="0.86" stop-color="#cdcdcd"/><stop offset="1" stop-color="#1a1a1a"/></linearGradient><linearGradient id="linear-gradient-6" x1="37.39" y1="45.09" x2="42.57" y2="45.09" xlink:href="#linear-gradient-5"/><linearGradient id="linear-gradient-7" x1="37.39" y1="45.74" x2="42.57" y2="45.74" xlink:href="#linear-gradient-5"/><linearGradient id="linear-gradient-8" x1="37.39" y1="46.39" x2="42.57" y2="46.39" xlink:href="#linear-gradient-5"/><linearGradient id="linear-gradient-9" x1="38.25" y1="47.14" x2="41.7" y2="47.14" xlink:href="#linear-gradient-5"/><linearGradient id="linear-gradient-10" x1="27.95" y1="37.37" x2="27.95" y2="26.87" gradientTransform="matrix(-1, 0, 0, 1, 67.67, 0)" gradientUnits="userSpaceOnUse"><stop offset="0" stop-color="#fcee21"/><stop offset="0.28" stop-color="#fdf684"/><stop offset="1" stop-color="#fff"/></linearGradient><linearGradient id="linear-gradient-11" x1="27.95" y1="37.45" x2="27.95" y2="26.8" gradientTransform="matrix(-1, 0, 0, 1, 67.67, 0)" gradientUnits="userSpaceOnUse"><stop offset="0" stop-color="#fff"/><stop offset="0.54" stop-color="#fcee21"/><stop offset="1" stop-color="#fcdd28"/></linearGradient><linearGradient id="linear-gradient-12" x1="23.22" y1="40.75" x2="32.69" y2="40.75" gradientTransform="matrix(-1, 0, 0, 1, 67.67, 0)" xlink:href="#linear-gradient-4"/><linearGradient id="linear-gradient-13" x1="25.36" y1="44.44" x2="30.54" y2="44.44" gradientTransform="matrix(-1, 0, 0, 1, 67.67, 0)" xlink:href="#linear-gradient-5"/><linearGradient id="linear-gradient-14" x1="25.36" y1="45.09" x2="30.54" y2="45.09" gradientTransform="matrix(-1, 0, 0, 1, 67.67, 0)" xlink:href="#linear-gradient-5"/><linearGradient id="linear-gradient-15" x1="25.36" y1="45.74" x2="30.54" y2="45.74" gradientTransform="matrix(-1, 0, 0, 1, 67.67, 0)" xlink:href="#linear-gradient-5"/><linearGradient id="linear-gradient-16" x1="25.36" y1="46.39" x2="30.54" y2="46.39" gradientTransform="matrix(-1, 0, 0, 1, 67.67, 0)" xlink:href="#linear-gradient-5"/><linearGradient id="linear-gradient-17" x1="26.22" y1="47.14" x2="29.68" y2="47.14" gradientTransform="matrix(-1, 0, 0, 1, 67.67, 0)" xlink:href="#linear-gradient-5"/><linearGradient id="linear-gradient-18" x1="13.93" y1="26.87" x2="13.93" y2="37.37" gradientTransform="matrix(-1, 0, 0, 1, 67.67, 0)" gradientUnits="userSpaceOnUse"><stop offset="0" stop-color="#ffb3b3"/><stop offset="0.03" stop-color="#dfdfdf"/><stop offset="0.47" stop-color="#ff3737"/><stop offset="0.82" stop-color="#f33"/></linearGradient><linearGradient id="linear-gradient-19" x1="13.93" y1="37.45" x2="13.93" y2="26.8" gradientTransform="matrix(-1, 0, 0, 1, 67.67, 0)" gradientUnits="userSpaceOnUse"><stop offset="0" stop-color="#ffb3b3"/><stop offset="0.47" stop-color="#ff3737"/><stop offset="0.61" stop-color="#c12121"/><stop offset="0.82" stop-color="#f33"/><stop offset="1" stop-color="#a71a1a"/></linearGradient><linearGradient id="linear-gradient-20" x1="9.19" y1="40.75" x2="18.66" y2="40.75" gradientTransform="matrix(-1, 0, 0, 1, 67.67, 0)" xlink:href="#linear-gradient-4"/><linearGradient id="linear-gradient-21" x1="11.34" y1="44.44" x2="16.52" y2="44.44" gradientTransform="matrix(1, 0, 0, -1, 39.81, 88.89)" xlink:href="#linear-gradient-5"/><linearGradient id="linear-gradient-22" x1="11.34" y1="45.09" x2="16.52" y2="45.09" gradientTransform="matrix(1, 0, 0, -1, 39.81, 90.18)" xlink:href="#linear-gradient-5"/><linearGradient id="linear-gradient-23" x1="11.34" y1="45.74" x2="16.52" y2="45.74" gradientTransform="matrix(1, 0, 0, -1, 39.81, 91.48)" xlink:href="#linear-gradient-5"/><linearGradient id="linear-gradient-24" x1="11.34" y1="46.39" x2="16.52" y2="46.39" gradientTransform="matrix(1, 0, 0, -1, 39.81, 92.77)" xlink:href="#linear-gradient-5"/><linearGradient id="linear-gradient-25" x1="12.2" y1="47.14" x2="15.65" y2="47.14" gradientTransform="matrix(-1, 0, 0, 1, 67.67, 0)" xlink:href="#linear-gradient-5"/><linearGradient id="linear-gradient-26" x1="53.74" y1="26.87" x2="53.74" y2="37.37" gradientTransform="translate(-28.05)" gradientUnits="userSpaceOnUse"><stop offset="0.01" stop-color="#fff"/><stop offset="0.31" stop-color="#bfe2ff"/><stop offset="0.67" stop-color="#3fa9f5"/><stop offset="1" stop-color="#2986e2"/></linearGradient><linearGradient id="linear-gradient-27" x1="53.74" y1="37.45" x2="53.74" y2="26.8" gradientTransform="translate(-28.05)" gradientUnits="userSpaceOnUse"><stop offset="0.01" stop-color="#fff"/><stop offset="0.31" stop-color="#bfe2ff"/><stop offset="0.71" stop-color="#2986e2"/><stop offset="1" stop-color="#3fa9f5"/></linearGradient><linearGradient id="linear-gradient-28" x1="49.01" y1="40.75" x2="58.47" y2="40.75" xlink:href="#linear-gradient-4"/><linearGradient id="linear-gradient-29" x1="51.15" y1="44.44" x2="56.33" y2="44.44" xlink:href="#linear-gradient-5"/><linearGradient id="linear-gradient-30" x1="51.15" y1="45.09" x2="56.33" y2="45.09" xlink:href="#linear-gradient-5"/><linearGradient id="linear-gradient-31" x1="51.15" y1="45.74" x2="56.33" y2="45.74" xlink:href="#linear-gradient-5"/><linearGradient id="linear-gradient-32" x1="51.15" y1="46.39" x2="56.33" y2="46.39" xlink:href="#linear-gradient-5"/><linearGradient id="linear-gradient-33" x1="52.01" y1="47.14" x2="55.47" y2="47.14" xlink:href="#linear-gradient-5"/></defs><title>Fluorescence_LightSource_LightEmittingDiode copy</title><path class="cls-1" d="M7,0H65a0,0,0,0,1,0,0V69.33a0,0,0,0,1,0,0H7a7,7,0,0,1-7-7V7A7,7,0,0,1,7,0Z" transform="translate(65.01 69.33) rotate(-180)"/><path class="cls-2" d="M10.24,10.82V6.43h2.61V7H10.94V8.35h1.62v.59H10.94v1.88Z"/><path class="cls-2" d="M13.61,10.82V6.43h.71v3.8h1.85v.59Z"/><path class="cls-2" d="M18.42,10.9A1.74,1.74,0,0,1,17,10.28a2.5,2.5,0,0,1-.53-1.67A2.43,2.43,0,0,1,17,7,1.89,1.89,0,0,1,19.8,7a2.38,2.38,0,0,1,.53,1.66,2.44,2.44,0,0,1-.53,1.67A1.74,1.74,0,0,1,18.42,10.9Zm0-.61a1,1,0,0,0,.86-.46,2,2,0,0,0,.33-1.22,2,2,0,0,0-.33-1.21,1.08,1.08,0,0,0-1.72,0,2,2,0,0,0-.33,1.21,2,2,0,0,0,.33,1.22A1,1,0,0,0,18.42,10.29Z"/><path class="cls-2" d="M22.85,10.9a1.59,1.59,0,0,1-1.18-.45,2.06,2.06,0,0,1-.45-1.51V6.43h.7V9a1.55,1.55,0,0,0,.26,1,.88.88,0,0,0,.67.29.91.91,0,0,0,.69-.29,1.49,1.49,0,0,0,.27-1V6.43h.67V8.94A2.06,2.06,0,0,1,24,10.45,1.57,1.57,0,0,1,22.85,10.9Z"/><path class="cls-2" d="M26.31,10.82H25.6V6.43h1.45a2.08,2.08,0,0,1,1.13.28,1.07,1.07,0,0,1,.46,1,1.28,1.28,0,0,1-.25.81,1.3,1.3,0,0,1-.67.44l1.07,1.86H28L27,9.06h-.71Zm0-2.33H27c.65,0,1-.26,1-.78a.62.62,0,0,0-.25-.56A1.37,1.37,0,0,0,27,7h-.66Z"/><path class="cls-2" d="M29.52,10.82V6.43h2.6V7h-1.9v1.2h1.61v.6H30.22v1.4h2v.59Z"/><path class="cls-2" d="M34.35,10.9a2.22,2.22,0,0,1-.85-.17,2.17,2.17,0,0,1-.71-.48l.41-.48a2,2,0,0,0,.54.37,1.45,1.45,0,0,0,.63.15,1,1,0,0,0,.6-.17.57.57,0,0,0,.21-.45A.46.46,0,0,0,35,9.25a3.76,3.76,0,0,0-.5-.27l-.61-.27a2.21,2.21,0,0,1-.61-.4A1,1,0,0,1,33,7.56a1.08,1.08,0,0,1,.4-.86,1.58,1.58,0,0,1,1-.35,1.8,1.8,0,0,1,.73.15,1.83,1.83,0,0,1,.6.41l-.36.44A1.63,1.63,0,0,0,35,7.07a1.29,1.29,0,0,0-.53-.1.87.87,0,0,0-.53.14.47.47,0,0,0-.2.41.45.45,0,0,0,.22.41,2.25,2.25,0,0,0,.49.25l.6.25a1.87,1.87,0,0,1,.64.44,1,1,0,0,1,.25.74,1.19,1.19,0,0,1-.41.91A1.63,1.63,0,0,1,34.35,10.9Z"/><path class="cls-2" d="M38.44,10.9a1.85,1.85,0,0,1-1.39-.59,2.31,2.31,0,0,1-.57-1.68A2.34,2.34,0,0,1,37.06,7a1.84,1.84,0,0,1,1.41-.61,1.57,1.57,0,0,1,.73.17,1.88,1.88,0,0,1,.51.38l-.37.45A1.75,1.75,0,0,0,39,7.07a1,1,0,0,0-.46-.1,1.13,1.13,0,0,0-.93.44,1.83,1.83,0,0,0-.35,1.2,2,2,0,0,0,.34,1.23,1.09,1.09,0,0,0,.92.45,1.07,1.07,0,0,0,.53-.13,1.54,1.54,0,0,0,.43-.34l.38.44a1.82,1.82,0,0,1-.61.47A1.73,1.73,0,0,1,38.44,10.9Z"/><path class="cls-2" d="M40.56,10.82V6.43h2.61V7h-1.9v1.2h1.6v.6h-1.6v1.4h2v.59Z"/><path class="cls-2" d="M44.14,10.82V6.43h.72L46.3,9l.47.93h0c0-.23,0-.47,0-.72s0-.51,0-.75v-2h.67v4.39h-.72L45.2,8.25l-.45-.92h0c0,.23,0,.46.06.71s0,.49,0,.73v2.05Z"/><path class="cls-2" d="M50.24,10.9a1.87,1.87,0,0,1-1.4-.59,2.35,2.35,0,0,1-.56-1.68A2.29,2.29,0,0,1,48.86,7a1.83,1.83,0,0,1,1.4-.61,1.54,1.54,0,0,1,.73.17,2.12,2.12,0,0,1,.52.38l-.38.45a1.49,1.49,0,0,0-.38-.28,1,1,0,0,0-.47-.1,1.1,1.1,0,0,0-.92.44A1.83,1.83,0,0,0,49,8.61a2,2,0,0,0,.34,1.23,1.11,1.11,0,0,0,.92.45,1,1,0,0,0,.53-.13,1.58,1.58,0,0,0,.44-.34l.37.44a1.89,1.89,0,0,1-.6.47A1.73,1.73,0,0,1,50.24,10.9Z"/><path class="cls-2" d="M52.36,10.82V6.43H55V7h-1.9v1.2h1.61v.6H53.06v1.4h2v.59Z"/><path class="cls-2" d="M10.91,16.82V12.43h.71v3.8h1.85v.59Z"/><path class="cls-2" d="M14.24,16.82V12.43h.7v4.39Z"/><path class="cls-2" d="M17.89,16.9a2,2,0,0,1-1.46-.59,2.27,2.27,0,0,1-.58-1.68A2.3,2.3,0,0,1,16.44,13a1.93,1.93,0,0,1,1.46-.61,1.71,1.71,0,0,1,.79.17,2.12,2.12,0,0,1,.52.38l-.38.45a1.46,1.46,0,0,0-.38-.27,1.05,1.05,0,0,0-.52-.11,1.22,1.22,0,0,0-1,.44,1.83,1.83,0,0,0-.37,1.2,1.92,1.92,0,0,0,.36,1.23,1.23,1.23,0,0,0,1,.45,1,1,0,0,0,.69-.22v-1h-.87v-.58h1.5v1.9a1.81,1.81,0,0,1-.57.37A2.09,2.09,0,0,1,17.89,16.9Z"/><path class="cls-2" d="M20.27,16.82V12.43H21v1.79h1.87V12.43h.7v4.39h-.7v-2H21v2Z"/><path class="cls-2" d="M25.58,16.82V13H24.29v-.6h3.28V13H26.28v3.79Z"/><path class="cls-2" d="M30.92,16.9a2.27,2.27,0,0,1-.86-.17,2.13,2.13,0,0,1-.7-.48l.4-.48a1.9,1.9,0,0,0,.55.37,1.38,1.38,0,0,0,.62.15,1,1,0,0,0,.61-.17.57.57,0,0,0,.21-.45.47.47,0,0,0-.2-.42,3.22,3.22,0,0,0-.5-.27l-.61-.27a2,2,0,0,1-.6-.4,1,1,0,0,1-.29-.75A1.09,1.09,0,0,1,30,12.7a1.56,1.56,0,0,1,1-.35,1.87,1.87,0,0,1,.73.15,1.78,1.78,0,0,1,.59.41l-.36.44a1.49,1.49,0,0,0-.44-.28A1.27,1.27,0,0,0,31,13a.91.91,0,0,0-.54.14.5.5,0,0,0-.2.41.45.45,0,0,0,.22.41,2.51,2.51,0,0,0,.49.25l.6.25a1.78,1.78,0,0,1,.64.44,1,1,0,0,1,.25.74,1.16,1.16,0,0,1-.41.91A1.61,1.61,0,0,1,30.92,16.9Z"/><path class="cls-2" d="M35,16.9a1.73,1.73,0,0,1-1.38-.62,2.44,2.44,0,0,1-.53-1.67A2.38,2.38,0,0,1,33.58,13a1.75,1.75,0,0,1,1.38-.6,1.77,1.77,0,0,1,1.38.6,2.43,2.43,0,0,1,.53,1.66,2.5,2.5,0,0,1-.53,1.67A1.76,1.76,0,0,1,35,16.9Zm0-.61a1,1,0,0,0,.86-.46,2,2,0,0,0,.33-1.22,2,2,0,0,0-.33-1.21A1,1,0,0,0,35,13a1,1,0,0,0-.87.43,2.07,2.07,0,0,0-.32,1.21,2.1,2.1,0,0,0,.32,1.22A1,1,0,0,0,35,16.29Z"/><path class="cls-2" d="M39.39,16.9a1.59,1.59,0,0,1-1.18-.45,2.06,2.06,0,0,1-.45-1.51V12.43h.7V15a1.55,1.55,0,0,0,.26,1,.87.87,0,0,0,.67.29.91.91,0,0,0,.69-.29,1.49,1.49,0,0,0,.27-1V12.43H41v2.51a2.06,2.06,0,0,1-.45,1.51A1.57,1.57,0,0,1,39.39,16.9Z"/><path class="cls-2" d="M42.85,16.82h-.71V12.43h1.45a2.08,2.08,0,0,1,1.13.28,1.07,1.07,0,0,1,.46,1,1.28,1.28,0,0,1-.25.81,1.3,1.3,0,0,1-.67.44l1.07,1.86h-.79l-1-1.76h-.71Zm0-2.33h.66c.65,0,1-.26,1-.78a.62.62,0,0,0-.25-.56,1.37,1.37,0,0,0-.72-.16h-.66Z"/><path class="cls-2" d="M47.78,16.9a1.87,1.87,0,0,1-1.4-.59,2.35,2.35,0,0,1-.56-1.68A2.29,2.29,0,0,1,46.4,13a1.83,1.83,0,0,1,1.4-.61,1.54,1.54,0,0,1,.73.17,1.94,1.94,0,0,1,.52.38l-.38.45a1.49,1.49,0,0,0-.38-.28,1,1,0,0,0-.47-.1,1.11,1.11,0,0,0-.92.44,1.83,1.83,0,0,0-.36,1.2,2,2,0,0,0,.35,1.23,1.16,1.16,0,0,0,1.45.32,1.69,1.69,0,0,0,.43-.34l.37.44a1.89,1.89,0,0,1-.6.47A1.73,1.73,0,0,1,47.78,16.9Z"/><path class="cls-2" d="M49.9,16.82V12.43h2.61V13H50.6v1.2h1.61v.6H50.6v1.4h2v.59Z"/><path class="cls-2" d="M53.8,14.57a.45.45,0,0,1-.33-.14.54.54,0,0,1,0-.7.46.46,0,0,1,.66,0,.54.54,0,0,1,0,.7A.45.45,0,0,1,53.8,14.57Zm0,2.33a.45.45,0,0,1-.33-.14.47.47,0,0,1-.13-.34.48.48,0,0,1,.13-.36.46.46,0,0,1,.66,0,.48.48,0,0,1,.13.36.47.47,0,0,1-.13.34A.45.45,0,0,1,53.8,16.9Z"/><path class="cls-2" d="M24.49,64.82V59H26v4.55h2.21v1.3Z"/><path class="cls-2" d="M29.26,64.82V59H33v1.29H30.81v.92h1.91v1.3H30.81v1h2.32v1.3Z"/><path class="cls-2" d="M34.26,64.82V59H36a3.35,3.35,0,0,1,2.17.67A2.69,2.69,0,0,1,39,61.87a2.81,2.81,0,0,1-.83,2.25,3.14,3.14,0,0,1-2.09.7Zm1.55-1.24h.09A1.68,1.68,0,0,0,37,63.23a1.63,1.63,0,0,0,.44-1.36c0-.69-.14-1.14-.44-1.35a1.78,1.78,0,0,0-1.07-.31h-.09Z"/><path class="cls-3" d="M17.35,36.45a3,3,0,0,1-.64.86l-.05.06H7.19l-.05-.06h0a3.52,3.52,0,0,1-.62-.85,6.17,6.17,0,0,1,.14-6.3,6.64,6.64,0,0,1,4.8-3.25,4.48,4.48,0,0,1,1,0,6.64,6.64,0,0,1,4.8,3.25A6.15,6.15,0,0,1,17.35,36.45Z"/><path class="cls-4" d="M16.66,37.37c-1.28,1.33-1.28,5.18-1.28,5.18a1.79,1.79,0,0,1,0,.23,1.88,1.88,0,0,1-1.9,1.34H10.4a1.86,1.86,0,0,1-1.9-1.34.91.91,0,0,1,0-.23s0-3.85-1.28-5.18Z"/><rect class="cls-5" x="9.34" y="44.12" width="5.18" height="0.65" rx="0.16"/><rect class="cls-6" x="9.34" y="44.12" width="5.18" height="0.65" rx="0.16"/><rect class="cls-7" x="9.34" y="44.77" width="5.18" height="0.65" rx="0.16"/><rect class="cls-6" x="9.34" y="44.77" width="5.18" height="0.65" rx="0.16"/><rect class="cls-8" x="9.34" y="45.42" width="5.18" height="0.65" rx="0.16"/><rect class="cls-6" x="9.34" y="45.42" width="5.18" height="0.65" rx="0.16"/><path class="cls-9" d="M14.26,46.71H9.59a.26.26,0,0,1-.25-.26v-.32a.07.07,0,0,1,.06-.07h5a.07.07,0,0,1,.07.07v.32A.26.26,0,0,1,14.26,46.71Z"/><path class="cls-6" d="M14.26,46.71H9.59a.26.26,0,0,1-.25-.26v-.32a.07.07,0,0,1,.06-.07h5a.07.07,0,0,1,.07.07v.32A.26.26,0,0,1,14.26,46.71Z"/><path class="cls-10" d="M10.2,46.71v0a.85.85,0,0,0,.86.81h1.73a.84.84,0,0,0,.86-.86Z"/><path class="cls-6" d="M10.2,46.71v0a.85.85,0,0,0,.86.81h1.73a.84.84,0,0,0,.86-.86Z"/><path class="cls-11" d="M34.29,36.45a3,3,0,0,0,.64.86l0,.06h9.47l0-.06h0a3.27,3.27,0,0,0,.62-.85,6.15,6.15,0,0,0-.14-6.3,6.64,6.64,0,0,0-4.8-3.25,4.48,4.48,0,0,0-1,0,6.64,6.64,0,0,0-4.8,3.25A6.17,6.17,0,0,0,34.29,36.45Z"/><path class="cls-12" d="M35,37.37c1.28,1.33,1.28,5.18,1.28,5.18a.91.91,0,0,0,0,.23,1.86,1.86,0,0,0,1.9,1.34h3.05a1.86,1.86,0,0,0,1.9-1.34.91.91,0,0,0,0-.23s0-3.85,1.28-5.18Z"/><rect class="cls-13" x="37.12" y="44.12" width="5.18" height="0.65" rx="0.16"/><rect class="cls-6" x="37.12" y="44.12" width="5.18" height="0.65" rx="0.16"/><rect class="cls-14" x="37.12" y="44.77" width="5.18" height="0.65" rx="0.16"/><rect class="cls-6" x="37.12" y="44.77" width="5.18" height="0.65" rx="0.16"/><rect class="cls-15" x="37.12" y="45.42" width="5.18" height="0.65" rx="0.16"/><rect class="cls-6" x="37.12" y="45.42" width="5.18" height="0.65" rx="0.16"/><path class="cls-16" d="M37.38,46.71h4.67a.26.26,0,0,0,.26-.26v-.32a.07.07,0,0,0-.07-.07H37.19a.08.08,0,0,0-.07.07v.32A.26.26,0,0,0,37.38,46.71Z"/><path class="cls-6" d="M37.38,46.71h4.67a.26.26,0,0,0,.26-.26v-.32a.07.07,0,0,0-.07-.07H37.19a.08.08,0,0,0-.07.07v.32A.26.26,0,0,0,37.38,46.71Z"/><path class="cls-17" d="M41.44,46.71v0a.84.84,0,0,1-.86.81H38.85a.84.84,0,0,1-.86-.86Z"/><path class="cls-6" d="M41.44,46.71v0a.84.84,0,0,1-.86.81H38.85a.84.84,0,0,1-.86-.86Z"/><path class="cls-18" d="M48.32,36.45a3,3,0,0,0,.64.86l0,.06h9.46l.06-.06h0a3.58,3.58,0,0,0,.63-.85,6.17,6.17,0,0,0-.14-6.3,6.68,6.68,0,0,0-4.81-3.25,4.39,4.39,0,0,0-1,0,6.68,6.68,0,0,0-4.81,3.25A6.17,6.17,0,0,0,48.32,36.45Z"/><path class="cls-19" d="M49,37.37c1.28,1.33,1.28,5.18,1.28,5.18a.9.9,0,0,0,0,.23,1.87,1.87,0,0,0,1.9,1.34h3.06a1.87,1.87,0,0,0,1.9-1.34.91.91,0,0,0,0-.23s0-3.85,1.27-5.18Z"/><rect class="cls-20" x="51.15" y="44.12" width="5.18" height="0.65" rx="0.16" transform="translate(107.48 88.89) rotate(180)"/><rect class="cls-21" x="51.15" y="44.77" width="5.18" height="0.65" rx="0.16" transform="translate(107.48 90.18) rotate(180)"/><rect class="cls-22" x="51.15" y="45.42" width="5.18" height="0.65" rx="0.16" transform="translate(107.48 91.48) rotate(-180)"/><path class="cls-23" d="M51.41,46.06h4.67a.26.26,0,0,1,.26.26v.32a.07.07,0,0,1-.07.07h-5a.07.07,0,0,1-.07-.07v-.32a.26.26,0,0,1,.26-.26Z" transform="translate(107.48 92.77) rotate(-180)"/><path class="cls-24" d="M55.47,46.71v0a.86.86,0,0,1-.87.81H52.88a.85.85,0,0,1-.87-.86Z"/><path class="cls-25" d="M31.12,36.45a3.19,3.19,0,0,1-.64.86l-.06.06H21l-.05-.06h0a3.27,3.27,0,0,1-.62-.85,6.15,6.15,0,0,1,.14-6.3,6.64,6.64,0,0,1,4.8-3.25,4.39,4.39,0,0,1,1,0A6.68,6.68,0,0,1,31,30.15,6.17,6.17,0,0,1,31.12,36.45Z"/><path class="cls-26" d="M30.42,37.37c-1.27,1.33-1.27,5.18-1.27,5.18a.91.91,0,0,1,0,.23,1.87,1.87,0,0,1-1.9,1.34H24.16a1.87,1.87,0,0,1-1.9-1.34.9.9,0,0,1,0-.23s0-3.85-1.28-5.18Z"/><rect class="cls-27" x="23.1" y="44.12" width="5.18" height="0.65" rx="0.16"/><rect class="cls-6" x="23.1" y="44.12" width="5.18" height="0.65" rx="0.16"/><rect class="cls-28" x="23.1" y="44.77" width="5.18" height="0.65" rx="0.16"/><rect class="cls-6" x="23.1" y="44.77" width="5.18" height="0.65" rx="0.16"/><rect class="cls-29" x="23.1" y="45.42" width="5.18" height="0.65" rx="0.16"/><rect class="cls-6" x="23.1" y="45.42" width="5.18" height="0.65" rx="0.16"/><path class="cls-30" d="M28,46.71H23.36a.26.26,0,0,1-.26-.26v-.32a.07.07,0,0,1,.07-.07h5a.07.07,0,0,1,.07.07v.32A.26.26,0,0,1,28,46.71Z"/><path class="cls-6" d="M28,46.71H23.36a.26.26,0,0,1-.26-.26v-.32a.07.07,0,0,1,.07-.07h5a.07.07,0,0,1,.07.07v.32A.26.26,0,0,1,28,46.71Z"/><path class="cls-31" d="M24,46.71v0a.86.86,0,0,0,.87.81h1.73a.84.84,0,0,0,.86-.86Z"/><path class="cls-6" d="M24,46.71a.07.07,0,0,0,0,0,.84.84,0,0,0,.86.81h1.72a.85.85,0,0,0,.87-.86Z"/></svg>