<svg xmlns="http://www.w3.org/2000/svg" xmlns:xlink="http://www.w3.org/1999/xlink" width="261" height="261" viewBox="0 0 261 261">
  <defs>
    <clipPath id="clip-Microscope_with_circle">
      <rect width="261" height="261"/>
    </clipPath>
  </defs>
  <g id="Microscope_with_circle" clip-path="url(#clip-Microscope_with_circle)">
    <rect width="261" height="261" fill="rgba(255,255,255,0)"/>
    <path id="microscope-solid" d="M46.406,92.813h3.48v4.641a4.639,4.639,0,0,0,4.641,4.641h11.6a4.639,4.639,0,0,0,4.641-4.641V92.813h3.48a9.282,9.282,0,0,0,9.281-9.281V18.563A9.282,9.282,0,0,0,74.25,9.281V4.641A4.639,4.639,0,0,0,69.609,0H51.047a4.639,4.639,0,0,0-4.641,4.641V9.281a9.282,9.282,0,0,0-9.281,9.281V83.531A9.282,9.282,0,0,0,46.406,92.813Zm88.172,37.125H134.2A55.594,55.594,0,0,0,92.813,37.125V55.687a37.125,37.125,0,0,1,0,74.25H13.922A13.922,13.922,0,0,0,0,143.859,4.639,4.639,0,0,0,4.641,148.5H143.859a4.639,4.639,0,0,0,4.641-4.641A13.922,13.922,0,0,0,134.578,129.937ZM30.164,120.656H90.492a2.32,2.32,0,0,0,2.32-2.32V113.7a2.32,2.32,0,0,0-2.32-2.32H30.164a2.32,2.32,0,0,0-2.32,2.32v4.641A2.32,2.32,0,0,0,30.164,120.656Z" transform="translate(56 56)" fill="#393939"/>
    <g id="Ellipse_14" data-name="Ellipse 14" fill="none" stroke="#393939" stroke-width="7">
      <circle cx="130.5" cy="130.5" r="130.5" stroke="none"/>
      <circle cx="130.5" cy="130.5" r="127" fill="none"/>
    </g>
  </g>
</svg>
