<svg xmlns="http://www.w3.org/2000/svg" xmlns:xlink="http://www.w3.org/1999/xlink" width="58" height="45" viewBox="0 0 58 45">
  <defs>
    <clipPath id="clip-Home_Solo">
      <rect width="58" height="45"/>
    </clipPath>
  </defs>
  <g id="Home_Solo" clip-path="url(#clip-Home_Solo)">
    <path id="home-solid" d="M27.972,43.65,9.569,58.807V75.166a1.6,1.6,0,0,0,1.6,1.6l11.185-.029a1.6,1.6,0,0,0,1.589-1.6V65.583a1.6,1.6,0,0,1,1.6-1.6h6.388a1.6,1.6,0,0,1,1.6,1.6V75.13a1.6,1.6,0,0,0,1.6,1.6l11.181.031a1.6,1.6,0,0,0,1.6-1.6V58.8L29.5,43.65a1.217,1.217,0,0,0-1.527,0Zm29.07,10.3L48.7,47.073V33.248a1.2,1.2,0,0,0-1.2-1.2h-5.59a1.2,1.2,0,0,0-1.2,1.2V40.5l-8.937-7.352a4.791,4.791,0,0,0-6.089,0L.419,53.952a1.2,1.2,0,0,0-.16,1.687l2.545,3.094a1.2,1.2,0,0,0,1.688.163L27.972,39.557a1.217,1.217,0,0,1,1.527,0L52.979,58.9a1.2,1.2,0,0,0,1.687-.16l2.545-3.094a1.2,1.2,0,0,0-.17-1.69Z" transform="translate(0.016 -32.05)"/>
  </g>
</svg>
