<svg id="Layer_1" data-name="Layer 1" xmlns="http://www.w3.org/2000/svg" xmlns:xlink="http://www.w3.org/1999/xlink" viewBox="0 0 33.26 60.78"><defs><style>.cls-1{fill:#fff;}.cls-2{opacity:0.65;}.cls-3{opacity:0.61;fill:url(#linear-gradient);}.cls-4{opacity:0.51;fill:url(#linear-gradient-2);}.cls-5{fill:url(#linear-gradient-3);}.cls-6,.cls-9{stroke-miterlimit:10;stroke-width:0.38px;}.cls-6{opacity:0.43;fill:url(#linear-gradient-4);stroke:url(#linear-gradient-5);}.cls-7{fill:url(#linear-gradient-6);}.cls-8{fill:url(#linear-gradient-7);}.cls-9{opacity:0.42;fill:url(#linear-gradient-8);stroke:url(#linear-gradient-9);}</style><linearGradient id="linear-gradient" x1="26.23" y1="26.16" x2="5.81" y2="14.37" gradientUnits="userSpaceOnUse"><stop offset="0.02" stop-color="#666"/><stop offset="0.02" stop-color="#6e6e6e"/><stop offset="0.05" stop-color="#999899"/><stop offset="0.07" stop-color="#b8b7b8"/><stop offset="0.09" stop-color="#cbcacb"/><stop offset="0.11" stop-color="#d2d1d2"/><stop offset="0.18" stop-color="#c5c4c5"/><stop offset="0.29" stop-color="#979696"/><stop offset="0.33" stop-color="#919090"/><stop offset="0.5" stop-color="#f2f2f2"/><stop offset="0.78" stop-color="#c9c8c8"/><stop offset="0.85" stop-color="#fff"/><stop offset="1" stop-color="#4d4d4d"/></linearGradient><linearGradient id="linear-gradient-2" x1="17.09" y1="39.28" x2="17.09" y2="1.25" gradientUnits="userSpaceOnUse"><stop offset="0.02" stop-color="#666"/><stop offset="0.02" stop-color="#6e6e6e"/><stop offset="0.05" stop-color="#999899"/><stop offset="0.07" stop-color="#b8b7b8"/><stop offset="0.09" stop-color="#cbcacb"/><stop offset="0.11" stop-color="#d2d1d2"/><stop offset="0.18" stop-color="#c5c4c5"/><stop offset="0.29" stop-color="#979696"/><stop offset="0.36" stop-color="#919090"/><stop offset="0.59" stop-color="#c9c8c8"/><stop offset="0.85" stop-color="#f2f2f2"/><stop offset="1" stop-color="#4d4d4d"/></linearGradient><linearGradient id="linear-gradient-3" x1="25.1" y1="21.99" x2="7.29" y2="21.99" gradientUnits="userSpaceOnUse"><stop offset="0.02" stop-color="#666"/><stop offset="0.02" stop-color="#646464"/><stop offset="0.2" stop-color="#393939"/><stop offset="0.36" stop-color="#1a1a1a"/><stop offset="0.5" stop-color="#070707"/><stop offset="0.59"/><stop offset="1" stop-color="#4d4d4d"/></linearGradient><linearGradient id="linear-gradient-4" x1="8.43" y1="36.37" x2="25.35" y2="7.06" gradientUnits="userSpaceOnUse"><stop offset="0.02" stop-color="#666"/><stop offset="0.06" stop-color="#8c8c8c"/><stop offset="0.11" stop-color="#abaaab"/><stop offset="0.15" stop-color="#bebdbe"/><stop offset="0.18" stop-color="#c5c4c5"/><stop offset="0.5" stop-color="#f2f2f2"/><stop offset="0.78" stop-color="#c9c8c8"/><stop offset="1" stop-color="#4d4d4d"/></linearGradient><linearGradient id="linear-gradient-5" x1="9" y1="21.71" x2="24.78" y2="21.71" gradientUnits="userSpaceOnUse"><stop offset="0" stop-color="#a6a5a5"/><stop offset="0.11" stop-color="#d2d1d2"/><stop offset="0.18" stop-color="#c5c4c5"/><stop offset="0.29" stop-color="#979696"/><stop offset="0.33" stop-color="#919090"/><stop offset="0.78" stop-color="#c9c8c8"/><stop offset="0.85" stop-color="#fff"/><stop offset="1" stop-color="#797979"/></linearGradient><linearGradient id="linear-gradient-6" x1="27.69" y1="28.74" x2="4.39" y2="15.29" xlink:href="#linear-gradient-3"/><linearGradient id="linear-gradient-7" x1="26.13" y1="21.99" x2="8.32" y2="21.99" xlink:href="#linear-gradient-3"/><linearGradient id="linear-gradient-8" x1="27.38" y1="31.87" x2="7.07" y2="11.56" gradientUnits="userSpaceOnUse"><stop offset="0" stop-color="#4d4d4d"/><stop offset="0.22" stop-color="#c9c8c8"/><stop offset="0.5" stop-color="#f2f2f2"/><stop offset="0.67" stop-color="#919090"/><stop offset="0.71" stop-color="#979696"/><stop offset="0.82" stop-color="#c5c4c5"/><stop offset="0.85" stop-color="#bebdbe"/><stop offset="0.89" stop-color="#abaaab"/><stop offset="0.94" stop-color="#8c8c8c"/><stop offset="0.98" stop-color="#666"/></linearGradient><linearGradient id="linear-gradient-9" x1="9.51" y1="21.71" x2="24.78" y2="21.71" xlink:href="#linear-gradient-5"/></defs><path d="M2.16,52.52a2,2,0,0,1-1-.24,1.73,1.73,0,0,1-.72-.7A2.22,2.22,0,0,1,.2,50.43a2.25,2.25,0,0,1,.29-1.17,1.9,1.9,0,0,1,.73-.73,1.93,1.93,0,0,1,1-.26,1.64,1.64,0,0,1,.74.17,2.25,2.25,0,0,1,.54.38l.06.06-.66.81-.08-.06a1.56,1.56,0,0,0-.27-.2.74.74,0,0,0-.31-.07.66.66,0,0,0-.52.27,1.15,1.15,0,0,0-.23.76,1.23,1.23,0,0,0,.21.78.61.61,0,0,0,.53.26.74.74,0,0,0,.36-.09,1.46,1.46,0,0,0,.28-.21L2.91,51l.67.8-.06.07A1.71,1.71,0,0,1,2.16,52.52Z"/><path class="cls-1" d="M2.19,48.37a1.56,1.56,0,0,1,.69.16,1.84,1.84,0,0,1,.52.36l-.54.66a2.73,2.73,0,0,0-.3-.21.78.78,0,0,0-.35-.08.77.77,0,0,0-.6.3,1.3,1.3,0,0,0-.25.83,1.39,1.39,0,0,0,.23.85.75.75,0,0,0,.61.29.8.8,0,0,0,.41-.1,1.76,1.76,0,0,0,.3-.24l.54.65a1.61,1.61,0,0,1-1.29.58,2.08,2.08,0,0,1-.92-.22,1.68,1.68,0,0,1-.68-.67,2.16,2.16,0,0,1-.26-1.1,2.19,2.19,0,0,1,.27-1.12,1.88,1.88,0,0,1,.7-.7,1.83,1.83,0,0,1,.92-.24m0-.2a2.06,2.06,0,0,0-1.79,1,2.37,2.37,0,0,0-.3,1.22,2.34,2.34,0,0,0,.29,1.2,1.86,1.86,0,0,0,.76.74,2.07,2.07,0,0,0,1,.25A1.81,1.81,0,0,0,3.6,52l.11-.13-.11-.13-.54-.64-.14-.18-.16.17a1.11,1.11,0,0,1-.26.2.66.66,0,0,1-.3.07.52.52,0,0,1-.45-.22,1.13,1.13,0,0,1-.19-.72,1,1,0,0,1,.21-.7.57.57,0,0,1,.44-.23.53.53,0,0,1,.26.06,2,2,0,0,1,.26.18l.15.14L3,49.68,3.55,49l.12-.14-.13-.13a2.06,2.06,0,0,0-.57-.4,1.69,1.69,0,0,0-.78-.18Z"/><path d="M5.39,52.52A1.79,1.79,0,0,1,4,52a2.24,2.24,0,0,1-.53-1.57A2.14,2.14,0,0,1,4,48.83a1.83,1.83,0,0,1,1.38-.56,1.82,1.82,0,0,1,1.38.56,2.14,2.14,0,0,1,.53,1.55A2.24,2.24,0,0,1,6.78,52,1.82,1.82,0,0,1,5.39,52.52Zm0-3.16a.54.54,0,0,0-.47.25,1.39,1.39,0,0,0-.18.77,1.45,1.45,0,0,0,.18.78.54.54,0,0,0,.94,0,1.45,1.45,0,0,0,.19-.78,1.39,1.39,0,0,0-.19-.77A.54.54,0,0,0,5.39,49.36Z"/><path class="cls-1" d="M5.39,48.37a1.72,1.72,0,0,1,1.31.53,2,2,0,0,1,.5,1.48,2.09,2.09,0,0,1-.5,1.5,1.7,1.7,0,0,1-1.31.54,1.7,1.7,0,0,1-1.31-.54,2.14,2.14,0,0,1-.5-1.5,2.05,2.05,0,0,1,.5-1.48,1.72,1.72,0,0,1,1.31-.53m0,3.16a.62.62,0,0,0,.55-.31,1.49,1.49,0,0,0,.21-.84,1.38,1.38,0,0,0-.21-.82.63.63,0,0,0-.55-.3.64.64,0,0,0-.55.3,1.38,1.38,0,0,0-.2.82,1.49,1.49,0,0,0,.2.84.63.63,0,0,0,.55.31m0-3.36a1.92,1.92,0,0,0-1.45.59,2.24,2.24,0,0,0-.56,1.62A2.33,2.33,0,0,0,3.93,52a1.92,1.92,0,0,0,1.46.61A1.91,1.91,0,0,0,6.85,52a2.28,2.28,0,0,0,.55-1.63,2.24,2.24,0,0,0-.55-1.62,2,2,0,0,0-1.46-.59Zm0,3.16A.43.43,0,0,1,5,51.11a1.65,1.65,0,0,1,0-1.44.46.46,0,0,1,.39-.21.45.45,0,0,1,.39.21,1.26,1.26,0,0,1,.17.71,1.38,1.38,0,0,1-.17.73.45.45,0,0,1-.39.22Z"/><path d="M10,52.45l-.89-1.81-.14-.32a.59.59,0,0,0,0,.13,6.85,6.85,0,0,1,0,.77v1.23H7.8v-4.1H9l.89,1.79.13.32v-.11a7.11,7.11,0,0,1,0-.78V48.35h1.19v4.1Z"/><path class="cls-1" d="M11.07,48.45v3.9H10L9.15,50.6l-.37-.87h0c0,.22.05.47.09.73a6.8,6.8,0,0,1,0,.76v1.13h-1v-3.9H9l.86,1.74.37.87h0q0-.31-.09-.72a7.09,7.09,0,0,1-.05-.77V48.45h1m.2-.2H9.88v1.32c0,.1,0,.21,0,.31l-.76-1.52-.05-.11H7.7v4.3H9.08V50.9l.75,1.53.06.12h1.38v-4.3Z"/><path d="M11.83,52.45v-4.1h1.25a2.29,2.29,0,0,1,1.51.47,1.88,1.88,0,0,1,.6,1.56A2,2,0,0,1,14.6,52a2.16,2.16,0,0,1-1.46.5Zm1.23-1a1.12,1.12,0,0,0,.62-.21,1,1,0,0,0,.25-.83c0-.42-.08-.69-.25-.81a1.14,1.14,0,0,0-.62-.2Z"/><path class="cls-1" d="M13.08,48.45a2.22,2.22,0,0,1,1.45.45,1.8,1.8,0,0,1,.56,1.48,1.88,1.88,0,0,1-.55,1.5,2.1,2.1,0,0,1-1.4.47H11.93v-3.9h1.15M13,51.52H13a1.17,1.17,0,0,0,.72-.23,1.14,1.14,0,0,0,.29-.91,1.08,1.08,0,0,0-.29-.9,1.22,1.22,0,0,0-.72-.21H13v2.25m.12-3.27H11.73v4.3h1.41A2.3,2.3,0,0,0,14.67,52a2.07,2.07,0,0,0,.62-1.65,2,2,0,0,0-.63-1.64,2.44,2.44,0,0,0-1.58-.49Zm.08,3.06V49.48a.88.88,0,0,1,.46.17c.14.1.21.35.21.73a1,1,0,0,1-.21.75.89.89,0,0,1-.46.18Z"/><polygon points="15.68 52.45 15.68 48.35 18.4 48.35 18.4 49.41 16.91 49.41 16.91 49.82 18.19 49.82 18.19 50.89 16.91 50.89 16.91 51.38 18.46 51.38 18.46 52.45 15.68 52.45"/><path class="cls-1" d="M18.3,48.45v.86H16.82v.61h1.27v.87H16.82v.69h1.54v.87H15.78v-3.9H18.3m.2-.2H15.58v4.3h3V51.28H17V51h1.27V49.72H17v-.21H18.5V48.25Z"/><path d="M21.17,52.45l-.89-1.81-.14-.32s0,.09,0,.13a5.14,5.14,0,0,1,.05.77v1.23H19v-4.1h1.22l.89,1.79.13.32v-.11a7.11,7.11,0,0,1-.05-.78V48.35h1.19v4.1Z"/><path class="cls-1" d="M22.29,48.45v3.9H21.23l-.86-1.75L20,49.73h0c0,.22.05.47.09.73a6.8,6.8,0,0,1,0,.76v1.13h-1v-3.9h1.06L21,50.19l.37.87h0q0-.31-.09-.72a7.09,7.09,0,0,1-.05-.77V48.45h1m.2-.2H21.1v1.32c0,.1,0,.21,0,.31l-.76-1.52-.05-.11H18.92v4.3H20.3V51.22c0-.1,0-.21,0-.32l.76,1.53.06.12h1.38v-4.3Z"/><path d="M24.39,52.52a2.31,2.31,0,0,1-.8-.15,2,2,0,0,1-.75-.44l-.07-.06.72-.86.07.07a1.67,1.67,0,0,0,.43.25,1,1,0,0,0,.42.1c.35,0,.35-.13.35-.18a.13.13,0,0,0-.09-.11L24.29,51l-.49-.21a1.5,1.5,0,0,1-.59-.42,1.11,1.11,0,0,1-.25-.75,1.17,1.17,0,0,1,.44-.93,1.6,1.6,0,0,1,1.11-.39,2,2,0,0,1,.71.14,1.84,1.84,0,0,1,.65.41l.07.07-.63.79-.08,0a1.46,1.46,0,0,0-.36-.2.86.86,0,0,0-.36-.07c-.31,0-.31.12-.31.17s0,.08.1.12a3.69,3.69,0,0,0,.41.17l.48.19a1.37,1.37,0,0,1,.6.43,1.15,1.15,0,0,1,.22.73,1.25,1.25,0,0,1-.43.94A1.65,1.65,0,0,1,24.39,52.52Z"/><path class="cls-1" d="M24.51,48.37a2.1,2.1,0,0,1,.68.13,1.75,1.75,0,0,1,.61.4l-.51.64a2.47,2.47,0,0,0-.38-.21,1.34,1.34,0,0,0-.4-.07c-.27,0-.41.09-.41.27a.23.23,0,0,0,.16.21l.42.18.47.18a1.32,1.32,0,0,1,.56.4,1,1,0,0,1,.2.67,1.17,1.17,0,0,1-.39.87,1.59,1.59,0,0,1-1.13.38,2.37,2.37,0,0,1-.77-.14,2.05,2.05,0,0,1-.71-.42l.59-.71a2.11,2.11,0,0,0,.45.28,1.16,1.16,0,0,0,.46.1c.3,0,.45-.09.45-.28a.21.21,0,0,0-.15-.2,2.93,2.93,0,0,0-.38-.17l-.49-.21a1.39,1.39,0,0,1-.55-.39,1,1,0,0,1-.23-.69,1.1,1.1,0,0,1,.4-.86,1.54,1.54,0,0,1,1.05-.36m0-.2a1.75,1.75,0,0,0-1.18.41,1.32,1.32,0,0,0-.47,1,1.22,1.22,0,0,0,.28.82,1.66,1.66,0,0,0,.63.45l.48.2.38.17c0,.09-.13.1-.22.1a1,1,0,0,1-.38-.09,1.47,1.47,0,0,1-.4-.24l-.16-.13-.12.15-.59.71-.12.15.14.13a2.32,2.32,0,0,0,.77.46,2.57,2.57,0,0,0,.84.15,1.74,1.74,0,0,0,1.26-.44,1.34,1.34,0,0,0,.46-1,1.26,1.26,0,0,0-.24-.79,1.45,1.45,0,0,0-.65-.46l-.47-.19-.41-.17,0,0c0-.06.11-.07.21-.07a.83.83,0,0,1,.32.06,1.68,1.68,0,0,1,.34.19l.16.11.11-.15L26,49l.11-.14-.13-.13a2,2,0,0,0-.68-.43,2,2,0,0,0-.75-.15Z"/><polygon points="26.43 52.45 26.43 48.35 29.16 48.35 29.16 49.41 27.67 49.41 27.67 49.82 28.94 49.82 28.94 50.89 27.67 50.89 27.67 51.38 29.21 51.38 29.21 52.45 26.43 52.45"/><path class="cls-1" d="M29.06,48.45v.86H27.57v.61h1.27v.87H27.57v.69h1.54v.87H26.53v-3.9h2.53m.2-.2H26.33v4.3h3V51.28H27.77V51H29V49.72H27.77v-.21h1.49V48.25Z"/><path d="M31.91,52.45l-.67-1.31H31v1.31H29.77v-4.1h1.58a2.86,2.86,0,0,1,.8.11,1.31,1.31,0,0,1,.62.43,1.25,1.25,0,0,1,.24.82,1.46,1.46,0,0,1-.19.75,1.6,1.6,0,0,1-.41.41l.88,1.58Zm-.63-2.33c.46,0,.52-.22.52-.41s-.08-.25-.11-.27a.87.87,0,0,0-.41-.08H31v.76Z"/><path class="cls-1" d="M31.35,48.45a2.35,2.35,0,0,1,.77.11,1.17,1.17,0,0,1,.57.39,1.15,1.15,0,0,1,.22.76,1.22,1.22,0,0,1-.18.69,1.1,1.1,0,0,1-.45.43l.84,1.52H32L31.3,51h-.4v1.31h-1v-3.9h1.48m-.45,1.77h.38c.41,0,.62-.17.62-.51a.36.36,0,0,0-.16-.35.85.85,0,0,0-.46-.1H30.9v1m.45-2H29.67v4.3H31.1V51.24h.08l.61,1.2.06.11h1.61l-.16-.3-.76-1.35a1.41,1.41,0,0,0,.57-1.19,1.43,1.43,0,0,0-.26-.89,1.38,1.38,0,0,0-.67-.45,2.73,2.73,0,0,0-.83-.12Zm-.25,1.21h.18a.72.72,0,0,1,.36.07s.06,0,.06.18,0,.31-.42.31H31.1v-.56Z"/><polygon points="10 58.45 10 54.35 11.23 54.35 11.23 57.38 12.7 57.38 12.7 58.45 10 58.45"/><path class="cls-1" d="M11.13,54.45v3H12.6v.87H10.1v-3.9h1m.2-.2H9.9v4.3h2.9V57.28H11.33v-3Z"/><polygon points="13.18 58.45 13.18 54.35 15.89 54.35 15.89 55.41 14.41 55.41 14.41 55.82 15.68 55.82 15.68 56.89 14.41 56.89 14.41 57.38 15.96 57.38 15.96 58.45 13.18 58.45"/><path class="cls-1" d="M15.8,54.45v.86H14.31v.61h1.27v.87H14.31v.69h1.55v.87H13.28v-3.9H15.8m.2-.2H13.08v4.3h3V57.28H14.51V57h1.27V55.72H14.51v-.21H16V54.25Z"/><path d="M18.66,58.45l-.89-1.81-.14-.32s0,.09,0,.13a6.93,6.93,0,0,1,.05.77v1.23H16.51v-4.1h1.22l.89,1.79.14.32,0-.11a7,7,0,0,1,0-.78V54.35h1.18v4.1Z"/><path class="cls-1" d="M19.78,54.45v3.9H18.72l-.86-1.75-.37-.87h0c0,.22.06.47.09.73a6.91,6.91,0,0,1,.05.76v1.13h-1v-3.9h1.06l.86,1.74.37.87h0c0-.21-.05-.45-.09-.72a7,7,0,0,1,0-.77V54.45h1m.2-.2H18.6v1.63l-.75-1.52-.06-.11H16.41v4.3H17.8V57.22c0-.1,0-.21,0-.32l.75,1.53.06.12H20v-4.3Z"/><path d="M21.88,58.52a2.31,2.31,0,0,1-.8-.15,1.92,1.92,0,0,1-.74-.44l-.07-.06L21,57l.08.07a1.61,1.61,0,0,0,.42.25,1,1,0,0,0,.42.1c.35,0,.35-.13.35-.18s0-.08-.09-.11L21.78,57l-.49-.21a1.4,1.4,0,0,1-.58-.42,1.07,1.07,0,0,1-.26-.75,1.2,1.2,0,0,1,.44-.93A1.6,1.6,0,0,1,22,54.27a2,2,0,0,1,.72.14,1.93,1.93,0,0,1,.65.41l.06.07-.63.79-.08,0a1.3,1.3,0,0,0-.36-.2.86.86,0,0,0-.36-.07c-.31,0-.31.12-.31.17s0,.08.1.12a3.69,3.69,0,0,0,.41.17l.48.19a1.37,1.37,0,0,1,.6.43,1.15,1.15,0,0,1,.22.73,1.28,1.28,0,0,1-.42.94A1.69,1.69,0,0,1,21.88,58.52Z"/><path class="cls-1" d="M22,54.37a2.1,2.1,0,0,1,.68.13,1.79,1.79,0,0,1,.62.4l-.52.64a2.08,2.08,0,0,0-.38-.21,1.29,1.29,0,0,0-.4-.07c-.27,0-.41.09-.41.27a.23.23,0,0,0,.16.21l.42.18.47.18a1.36,1.36,0,0,1,.57.4,1.11,1.11,0,0,1,.19.67A1.17,1.17,0,0,1,23,58a1.59,1.59,0,0,1-1.13.38,2.42,2.42,0,0,1-.77-.14,2.05,2.05,0,0,1-.71-.42l.59-.71a2.11,2.11,0,0,0,.45.28,1.2,1.2,0,0,0,.46.1c.3,0,.45-.09.45-.28a.21.21,0,0,0-.14-.2l-.39-.17-.49-.21a1.39,1.39,0,0,1-.55-.39,1,1,0,0,1-.23-.69,1.08,1.08,0,0,1,.41-.86,1.51,1.51,0,0,1,1-.36m0-.2a1.75,1.75,0,0,0-1.18.41,1.32,1.32,0,0,0-.47,1,1.22,1.22,0,0,0,.28.82,1.74,1.74,0,0,0,.63.45l.48.2.38.17c0,.09-.13.1-.22.1a1,1,0,0,1-.38-.09,1.47,1.47,0,0,1-.4-.24L21,56.87l-.13.15-.59.71-.12.15.14.13a2.37,2.37,0,0,0,.78.46,2.47,2.47,0,0,0,.83.15,1.78,1.78,0,0,0,1.27-.44,1.37,1.37,0,0,0,.45-1,1.26,1.26,0,0,0-.24-.79,1.45,1.45,0,0,0-.65-.46l-.47-.19-.41-.17,0,0c0-.06.11-.07.21-.07a.88.88,0,0,1,.33.06,2,2,0,0,1,.34.19l.15.11.12-.15.51-.65.11-.14-.12-.13a1.91,1.91,0,0,0-.69-.43,2,2,0,0,0-.75-.15Z"/><g class="cls-2"><ellipse class="cls-3" cx="16.02" cy="20.27" rx="8.04" ry="19.02"/><ellipse class="cls-4" cx="17.09" cy="20.27" rx="8.04" ry="19.02"/></g><path class="cls-5" d="M16.09,0c-4.92.11-8.86,10-8.8,22.19s4.1,21.9,9,21.79,8.86-10,8.8-22.18S21-.11,16.09,0Zm.12,40.72c-4.11.09-7.49-8.35-7.54-18.85S11.91,2.78,16,2.69,23.51,11,23.56,21.54,20.32,40.63,16.21,40.72Z"/><ellipse class="cls-6" cx="16.89" cy="21.71" rx="7.7" ry="19.02"/><path class="cls-7" d="M15.93,0c-4.92.1-8.86,10-8.8,22.18s4.09,21.9,9,21.8a4,4,0,0,0,1.13-.2c4.38-1.46,7.73-10.78,7.67-22C24.88,9.68,20.85-.08,15.93,0Zm1.31,40.7c-4.12.09-7.49-8.35-7.54-18.85S12.94,2.79,17.05,2.7s7.49,8.35,7.54,18.85S21.35,40.64,17.24,40.73Z"/><path class="cls-8" d="M17.12,0C12.2.11,8.26,10,8.32,22.19s4.09,21.9,9,21.79,8.86-10,8.8-22.18S22-.11,17.12,0Zm.11,40.72c-4.11.09-7.48-8.35-7.53-18.85S12.94,2.78,17.05,2.69,24.54,11,24.59,21.54,21.35,40.63,17.23,40.72Z"/><path class="cls-9" d="M24.59,22.26c-.1,8.49-3.06,18.21-7.19,18.47-4.29.28-7.7-9.81-7.7-19s3.41-19.28,7.7-19S24.7,13.32,24.59,22.26Z"/></svg>