<svg xmlns="http://www.w3.org/2000/svg" xmlns:xlink="http://www.w3.org/1999/xlink" viewBox="0 0 33.26 60.78"><defs><style>.cls-1{isolation:isolate;}.cls-2{fill:#8e8e8e;}.cls-3{fill:url(#linear-gradient);}.cls-4{stroke-miterlimit:10;stroke-width:0.38px;opacity:0.25;fill:url(#linear-gradient-2);stroke:url(#linear-gradient-3);}.cls-5{fill:url(#linear-gradient-4);}.cls-6{fill:url(#linear-gradient-5);}.cls-7{opacity:0.77;mix-blend-mode:soft-light;fill:url(#linear-gradient-6);}</style><linearGradient id="linear-gradient" x1="25.12" y1="21.95" x2="7.31" y2="21.95" gradientUnits="userSpaceOnUse"><stop offset="0.02" stop-color="#666"/><stop offset="0.02" stop-color="#646464"/><stop offset="0.2" stop-color="#393939"/><stop offset="0.36" stop-color="#1a1a1a"/><stop offset="0.5" stop-color="#070707"/><stop offset="0.59"/><stop offset="1" stop-color="#4d4d4d"/></linearGradient><linearGradient id="linear-gradient-2" x1="8.45" y1="36.32" x2="25.36" y2="7.02" gradientUnits="userSpaceOnUse"><stop offset="0.02" stop-color="#666"/><stop offset="0.06" stop-color="#8c8c8c"/><stop offset="0.11" stop-color="#abaaab"/><stop offset="0.15" stop-color="#bebdbe"/><stop offset="0.18" stop-color="#c5c4c5"/><stop offset="0.5" stop-color="#f2f2f2"/><stop offset="0.78" stop-color="#c9c8c8"/><stop offset="1" stop-color="#4d4d4d"/></linearGradient><linearGradient id="linear-gradient-3" x1="9.01" y1="21.67" x2="24.79" y2="21.67" gradientUnits="userSpaceOnUse"><stop offset="0" stop-color="#a6a5a5"/><stop offset="0.11" stop-color="#d2d1d2"/><stop offset="0.18" stop-color="#c5c4c5"/><stop offset="0.29" stop-color="#979696"/><stop offset="0.33" stop-color="#919090"/><stop offset="0.78" stop-color="#c9c8c8"/><stop offset="0.85" stop-color="#fff"/><stop offset="1" stop-color="#797979"/></linearGradient><linearGradient id="linear-gradient-4" x1="27.7" y1="28.7" x2="4.4" y2="15.25" xlink:href="#linear-gradient"/><linearGradient id="linear-gradient-5" x1="26.15" y1="21.95" x2="8.34" y2="21.95" xlink:href="#linear-gradient"/><linearGradient id="linear-gradient-6" x1="27.4" y1="31.83" x2="7.08" y2="11.52" gradientUnits="userSpaceOnUse"><stop offset="0" stop-color="#ccc"/><stop offset="0.32" stop-color="#e6e6e6"/><stop offset="1" stop-color="#fff"/></linearGradient></defs><g class="cls-1"><g id="Layer_1" data-name="Layer 1"><path class="cls-2" d="M3.49,52.42a2,2,0,0,1-.92-.22,1.68,1.68,0,0,1-.68-.67,2.16,2.16,0,0,1-.26-1.1,2.19,2.19,0,0,1,.27-1.12,1.86,1.86,0,0,1,.69-.7,1.89,1.89,0,0,1,.92-.24,1.6,1.6,0,0,1,.7.16,1.84,1.84,0,0,1,.52.36l-.54.66a2.73,2.73,0,0,0-.3-.21.78.78,0,0,0-.35-.08.77.77,0,0,0-.6.3,1.25,1.25,0,0,0-.25.83,1.32,1.32,0,0,0,.23.85.74.74,0,0,0,.61.29.77.77,0,0,0,.4-.1,1.22,1.22,0,0,0,.3-.24l.54.65A1.57,1.57,0,0,1,3.49,52.42Z"/><path class="cls-2" d="M6.72,52.42a1.7,1.7,0,0,1-1.31-.54,2.1,2.1,0,0,1-.51-1.5,2,2,0,0,1,.51-1.48,1.72,1.72,0,0,1,1.31-.53A1.74,1.74,0,0,1,8,48.9a2.05,2.05,0,0,1,.5,1.48,2.14,2.14,0,0,1-.5,1.5A1.71,1.71,0,0,1,6.72,52.42Zm0-.89a.63.63,0,0,0,.55-.31,1.58,1.58,0,0,0,.2-.84,1.46,1.46,0,0,0-.2-.82.64.64,0,0,0-.55-.3.62.62,0,0,0-.55.3,1.38,1.38,0,0,0-.21.82,1.49,1.49,0,0,0,.21.84A.61.61,0,0,0,6.72,51.53Z"/><path class="cls-2" d="M9.23,52.35v-3.9h1v3h1.47v.87Z"/><path class="cls-2" d="M12.4,52.35v-3.9h1v3h1.47v.87Z"/><path class="cls-2" d="M15.58,52.35v-3.9h1v3.9Z"/><path class="cls-2" d="M17.48,52.35v-3.9h1.1L19.17,50a3.37,3.37,0,0,1,.1.34l.11.35h0c0-.12.07-.23.1-.35s.07-.23.1-.34l.57-1.59h1.1v3.9h-.93V51.19a6,6,0,0,1,0-.69c0-.27.06-.5.09-.7h0l-.32.94L19.64,52h-.55l-.48-1.29-.31-.94h0c0,.2.05.43.09.7a6,6,0,0,1,0,.69v1.16Z"/><path class="cls-2" d="M24.18,52.35l-.2-.83H22.89l-.19.83H21.65l1.18-3.9h1.25l1.19,3.9Zm-1-1.9-.07.27h.72l-.07-.27-.14-.61-.15-.63h0c0,.2-.08.41-.13.63Z"/><path class="cls-2" d="M25.9,52.35v-3h-1v-.86H28v.86h-1v3Z"/><path class="cls-2" d="M29.58,52.35h-1v-3.9H30a2.35,2.35,0,0,1,.77.11,1.17,1.17,0,0,1,.57.39,1.15,1.15,0,0,1,.22.76,1.31,1.31,0,0,1-.17.69,1.19,1.19,0,0,1-.46.43l.85,1.52H30.65L30,51h-.39Zm0-2.13H30c.41,0,.62-.17.62-.51a.36.36,0,0,0-.16-.35.83.83,0,0,0-.46-.1h-.37Z"/><path class="cls-2" d="M10.1,58.35v-3.9h1v3H12.6v.87Z"/><path class="cls-2" d="M13.27,58.35v-3.9H15.8v.86H14.31v.61h1.27v.87H14.31v.69h1.54v.87Z"/><path class="cls-2" d="M16.61,58.35v-3.9h1.06l.86,1.74.37.87h0c0-.21-.05-.45-.09-.72a7,7,0,0,1,0-.77V54.45h1v3.9H18.72l-.86-1.75-.37-.87h0c0,.22.06.47.09.73a6.91,6.91,0,0,1,.05.76v1.13Z"/><path class="cls-2" d="M21.88,58.42a2.42,2.42,0,0,1-.77-.14,2.05,2.05,0,0,1-.71-.42l.59-.71a2.11,2.11,0,0,0,.45.28,1.16,1.16,0,0,0,.46.1c.3,0,.45-.09.45-.28a.21.21,0,0,0-.14-.2l-.39-.17-.49-.21a1.39,1.39,0,0,1-.55-.39,1,1,0,0,1-.23-.69,1.08,1.08,0,0,1,.41-.86,1.51,1.51,0,0,1,1-.36,2.1,2.1,0,0,1,.68.13,1.79,1.79,0,0,1,.62.4l-.52.64a2.08,2.08,0,0,0-.38-.21,1.29,1.29,0,0,0-.4-.07c-.27,0-.41.09-.41.27a.23.23,0,0,0,.16.21l.42.18.47.18a1.36,1.36,0,0,1,.57.4,1.11,1.11,0,0,1,.19.67A1.17,1.17,0,0,1,23,58,1.59,1.59,0,0,1,21.88,58.42Z"/><path class="cls-3" d="M16.11,0c-4.92.11-8.86,10-8.8,22.18s4.09,21.91,9,21.8,8.86-10,8.8-22.19S21-.15,16.11,0Zm.12,40.72c-4.12.09-7.49-8.35-7.54-18.86S11.93,2.73,16,2.64,23.53,11,23.58,21.5,20.34,40.59,16.23,40.68Z"/><ellipse class="cls-4" cx="16.9" cy="21.67" rx="7.7" ry="19.02"/><path class="cls-5" d="M16,0C11,.09,7.09,10,7.15,22.17s4.09,21.9,9,21.79a3.67,3.67,0,0,0,1.13-.19C21.67,42.3,25,33,25,21.78,24.9,9.63,20.87-.12,16,0Zm1.3,40.71c-4.11.09-7.48-8.35-7.53-18.85S13,2.74,17.07,2.65,24.56,11,24.61,21.51,21.37,40.6,17.25,40.69Z"/><path class="cls-6" d="M17.13,0C12.22.07,8.28,10,8.34,22.14s4.09,21.91,9,21.8,8.86-10,8.8-22.19S22.05-.15,17.13,0Zm.12,40.72c-4.11.09-7.48-8.35-7.54-18.86S13,2.73,17.07,2.64,24.55,11,24.61,21.5,21.36,40.59,17.25,40.68Z"/><path class="cls-7" d="M24.61,22.22c-.1,8.49-3.06,18.21-7.19,18.47-4.3.28-7.7-9.81-7.7-19s3.41-19.28,7.7-19S24.71,13.27,24.61,22.22Z"/></g></g></svg>