<svg xmlns="http://www.w3.org/2000/svg" xmlns:xlink="http://www.w3.org/1999/xlink" viewBox="0 0 33.26 60.78"><defs><style>.cls-1{isolation:isolate;}.cls-2{fill:#8e8e8e;}.cls-3{fill:url(#linear-gradient);}.cls-4{stroke-miterlimit:10;stroke-width:0.38px;opacity:0.25;fill:url(#linear-gradient-2);stroke:url(#linear-gradient-3);}.cls-5{fill:url(#linear-gradient-4);}.cls-6{fill:url(#linear-gradient-5);}.cls-7{opacity:0.77;mix-blend-mode:soft-light;fill:url(#linear-gradient-6);}</style><linearGradient id="linear-gradient" x1="25.28" y1="22.14" x2="7.47" y2="22.14" gradientUnits="userSpaceOnUse"><stop offset="0.02" stop-color="#666"/><stop offset="0.02" stop-color="#646464"/><stop offset="0.2" stop-color="#393939"/><stop offset="0.36" stop-color="#1a1a1a"/><stop offset="0.5" stop-color="#070707"/><stop offset="0.59"/><stop offset="1" stop-color="#4d4d4d"/></linearGradient><linearGradient id="linear-gradient-2" x1="8.6" y1="36.51" x2="25.52" y2="7.21" gradientUnits="userSpaceOnUse"><stop offset="0.02" stop-color="#666"/><stop offset="0.06" stop-color="#8c8c8c"/><stop offset="0.11" stop-color="#abaaab"/><stop offset="0.15" stop-color="#bebdbe"/><stop offset="0.18" stop-color="#c5c4c5"/><stop offset="0.5" stop-color="#f2f2f2"/><stop offset="0.78" stop-color="#c9c8c8"/><stop offset="1" stop-color="#4d4d4d"/></linearGradient><linearGradient id="linear-gradient-3" x1="9.17" y1="21.86" x2="24.95" y2="21.86" gradientUnits="userSpaceOnUse"><stop offset="0" stop-color="#a6a5a5"/><stop offset="0.11" stop-color="#d2d1d2"/><stop offset="0.18" stop-color="#c5c4c5"/><stop offset="0.29" stop-color="#979696"/><stop offset="0.33" stop-color="#919090"/><stop offset="0.78" stop-color="#c9c8c8"/><stop offset="0.85" stop-color="#fff"/><stop offset="1" stop-color="#797979"/></linearGradient><linearGradient id="linear-gradient-4" x1="27.86" y1="28.89" x2="4.56" y2="15.44" xlink:href="#linear-gradient"/><linearGradient id="linear-gradient-5" x1="26.31" y1="22.14" x2="8.49" y2="22.14" xlink:href="#linear-gradient"/><linearGradient id="linear-gradient-6" x1="27.55" y1="32.02" x2="7.24" y2="11.7" gradientUnits="userSpaceOnUse"><stop offset="0" stop-color="#ccc"/><stop offset="0.32" stop-color="#e6e6e6"/><stop offset="1" stop-color="#fff"/></linearGradient></defs><g class="cls-1"><g id="Layer_1" data-name="Layer 1"><path class="cls-2" d="M3.08,52.33v-3.9H4.49a2.54,2.54,0,0,1,1,.2A.76.76,0,0,1,6,49.4a1,1,0,0,1-.13.5.7.7,0,0,1-.36.34v0a1,1,0,0,1,.47.3.85.85,0,0,1,.2.61.94.94,0,0,1-.45.87,2,2,0,0,1-1.08.28Zm1-2.38h.35c.33,0,.49-.13.49-.39s-.16-.34-.49-.34H4.11Zm0,1.59h.42c.4,0,.6-.15.6-.43s-.2-.4-.6-.4H4.11Z"/><path class="cls-2" d="M6.75,52.33v-3.9H9.27v.86H7.79v.62H9.06v.86H7.79v.7H9.33v.86Z"/><path class="cls-2" d="M12.13,52.33l-.19-.83H10.85l-.2.83H9.6l1.19-3.9H12l1.19,3.9Zm-1-1.9L11,50.7h.72l-.06-.27q-.07-.27-.15-.6c0-.23-.09-.44-.14-.63h0c0,.2-.08.41-.13.63S11.15,50.25,11.1,50.43Z"/><path class="cls-2" d="M13.59,52.33v-3.9H14.7l.59,1.6c0,.1.07.22.1.34s.06.23.1.34h0c0-.11.07-.23.11-.34a2.75,2.75,0,0,1,.1-.34l.56-1.6h1.11v3.9h-.94V51.18a6.38,6.38,0,0,1,.05-.7c0-.27.06-.5.08-.69h0l-.33.93L15.75,52H15.2l-.48-1.29-.31-.93h0c0,.19,0,.42.08.69a6.38,6.38,0,0,1,0,.7v1.15Z"/><path class="cls-2" d="M19.45,52.33v-3.9H22v.86H20.48v.62h1.27v.86H20.48v.7H22v.86Z"/><path class="cls-2" d="M22.41,52.33l1.06-2-1-1.9h1.16l.26.64.13.29a3.35,3.35,0,0,0,.15.35h0l.12-.35a2.85,2.85,0,0,1,.12-.29l.23-.64h1.1l-1,1.94,1.05,2H24.67l-.31-.7a2.92,2.92,0,0,1-.14-.31L24.08,51h0a2.52,2.52,0,0,1-.13.33l-.12.31-.29.7Z"/><path class="cls-2" d="M26.31,52.33v-3.9h1.43a2.47,2.47,0,0,1,.79.12,1.19,1.19,0,0,1,.58.4,1.29,1.29,0,0,1,.22.78,1.21,1.21,0,0,1-.8,1.22,1.94,1.94,0,0,1-.76.14h-.42v1.24Zm1-2h.37c.4,0,.6-.19.6-.55a.45.45,0,0,0-.16-.38.89.89,0,0,0-.47-.1h-.34Z"/><path class="cls-2" d="M29.65,52.4a.55.55,0,0,1-.43-.18.64.64,0,0,1-.17-.44.64.64,0,0,1,.17-.45.6.6,0,0,1,.86,0,.64.64,0,0,1,.17.45.64.64,0,0,1-.17.44A.55.55,0,0,1,29.65,52.4Z"/><path class="cls-2" d="M10.1,58.33v-3.9h1v3H12.6v.86Z"/><path class="cls-2" d="M13.27,58.33v-3.9H15.8v.86H14.31v.62h1.27v.86H14.31v.7h1.54v.86Z"/><path class="cls-2" d="M16.61,58.33v-3.9h1.06l.86,1.74.37.88h0c0-.21-.05-.45-.09-.72a7.1,7.1,0,0,1,0-.77V54.43h1v3.9H18.72l-.86-1.75-.37-.87h0c0,.23.06.47.09.74a6.59,6.59,0,0,1,.05.75v1.13Z"/><path class="cls-2" d="M21.88,58.4a2.17,2.17,0,0,1-.77-.14,2.05,2.05,0,0,1-.71-.42l.59-.7a2.07,2.07,0,0,0,.45.27,1.16,1.16,0,0,0,.46.1q.45,0,.45-.27a.24.24,0,0,0-.14-.21l-.39-.17-.49-.2a1.53,1.53,0,0,1-.55-.4,1,1,0,0,1-.23-.69,1.09,1.09,0,0,1,.41-.86,1.56,1.56,0,0,1,1-.35,1.86,1.86,0,0,1,.68.13,1.63,1.63,0,0,1,.62.39l-.52.65a2.08,2.08,0,0,0-.38-.21,1.05,1.05,0,0,0-.4-.07c-.27,0-.41.08-.41.26a.23.23,0,0,0,.16.21l.42.18.47.19a1.28,1.28,0,0,1,.57.4,1.05,1.05,0,0,1,.19.66A1.17,1.17,0,0,1,23,58,1.55,1.55,0,0,1,21.88,58.4Z"/><path class="cls-3" d="M16.27.15c-4.92.1-8.86,10-8.8,22.18s4.09,21.9,9,21.8,8.86-10,8.8-22.19S21.18,0,16.27.15Zm.11,40.72C12.27,41,8.9,32.52,8.85,22S12.09,2.92,16.2,2.83s7.48,8.35,7.54,18.86S20.5,40.78,16.38,40.87Z"/><ellipse class="cls-4" cx="17.06" cy="21.86" rx="7.7" ry="19.02"/><path class="cls-5" d="M16.1.17c-4.91.11-8.85,10-8.79,22.19s4.09,21.9,9,21.79a3.57,3.57,0,0,0,1.12-.2c4.38-1.46,7.73-10.78,7.68-22C25.06,9.82,21,.07,16.1.17Zm1.31,40.71C13.3,41,9.93,32.53,9.87,22S13.11,2.93,17.23,2.84s7.48,8.35,7.53,18.86S21.52,40.79,17.41,40.88Z"/><path class="cls-6" d="M17.29.15c-4.92.1-8.86,10-8.8,22.18s4.1,21.9,9,21.8,8.85-10,8.8-22.19S22.21,0,17.29.15Zm.12,40.72C13.3,41,9.92,32.52,9.87,22S13.11,2.92,17.22,2.83s7.49,8.35,7.54,18.86S21.52,40.78,17.41,40.87Z"/><path class="cls-7" d="M24.77,22.4c-.11,8.5-3.06,18.21-7.19,18.48-4.3.28-7.71-9.81-7.71-19s3.41-19.28,7.71-19S24.87,13.46,24.77,22.4Z"/></g></g></svg>