<svg id="Layer_1" data-name="Layer 1" xmlns="http://www.w3.org/2000/svg" xmlns:xlink="http://www.w3.org/1999/xlink" viewBox="0 0 33.26 60.78"><defs><style>.cls-1{opacity:0.65;}.cls-2{opacity:0.61;fill:url(#linear-gradient);}.cls-3{opacity:0.51;fill:url(#linear-gradient-2);}.cls-4{fill:url(#linear-gradient-3);}.cls-5,.cls-8{stroke-miterlimit:10;stroke-width:0.38px;}.cls-5{opacity:0.43;fill:url(#linear-gradient-4);stroke:url(#linear-gradient-5);}.cls-6{fill:url(#linear-gradient-6);}.cls-7{fill:url(#linear-gradient-7);}.cls-8{opacity:0.42;fill:url(#linear-gradient-8);stroke:url(#linear-gradient-9);}</style><linearGradient id="linear-gradient" x1="26.23" y1="26.16" x2="5.81" y2="14.37" gradientUnits="userSpaceOnUse"><stop offset="0.02" stop-color="#666"/><stop offset="0.02" stop-color="#6e6e6e"/><stop offset="0.05" stop-color="#999899"/><stop offset="0.07" stop-color="#b8b7b8"/><stop offset="0.09" stop-color="#cbcacb"/><stop offset="0.11" stop-color="#d2d1d2"/><stop offset="0.18" stop-color="#c5c4c5"/><stop offset="0.29" stop-color="#979696"/><stop offset="0.33" stop-color="#919090"/><stop offset="0.5" stop-color="#f2f2f2"/><stop offset="0.78" stop-color="#c9c8c8"/><stop offset="0.85" stop-color="#fff"/><stop offset="1" stop-color="#4d4d4d"/></linearGradient><linearGradient id="linear-gradient-2" x1="17.09" y1="39.28" x2="17.09" y2="1.25" gradientUnits="userSpaceOnUse"><stop offset="0.02" stop-color="#666"/><stop offset="0.02" stop-color="#6e6e6e"/><stop offset="0.05" stop-color="#999899"/><stop offset="0.07" stop-color="#b8b7b8"/><stop offset="0.09" stop-color="#cbcacb"/><stop offset="0.11" stop-color="#d2d1d2"/><stop offset="0.18" stop-color="#c5c4c5"/><stop offset="0.29" stop-color="#979696"/><stop offset="0.36" stop-color="#919090"/><stop offset="0.59" stop-color="#c9c8c8"/><stop offset="0.85" stop-color="#f2f2f2"/><stop offset="1" stop-color="#4d4d4d"/></linearGradient><linearGradient id="linear-gradient-3" x1="25.1" y1="21.99" x2="7.29" y2="21.99" gradientUnits="userSpaceOnUse"><stop offset="0.02" stop-color="#666"/><stop offset="0.02" stop-color="#646464"/><stop offset="0.2" stop-color="#393939"/><stop offset="0.36" stop-color="#1a1a1a"/><stop offset="0.5" stop-color="#070707"/><stop offset="0.59"/><stop offset="1" stop-color="#4d4d4d"/></linearGradient><linearGradient id="linear-gradient-4" x1="8.43" y1="36.37" x2="25.35" y2="7.06" gradientUnits="userSpaceOnUse"><stop offset="0.02" stop-color="#666"/><stop offset="0.06" stop-color="#8c8c8c"/><stop offset="0.11" stop-color="#abaaab"/><stop offset="0.15" stop-color="#bebdbe"/><stop offset="0.18" stop-color="#c5c4c5"/><stop offset="0.5" stop-color="#f2f2f2"/><stop offset="0.78" stop-color="#c9c8c8"/><stop offset="1" stop-color="#4d4d4d"/></linearGradient><linearGradient id="linear-gradient-5" x1="9" y1="21.71" x2="24.78" y2="21.71" gradientUnits="userSpaceOnUse"><stop offset="0" stop-color="#a6a5a5"/><stop offset="0.11" stop-color="#d2d1d2"/><stop offset="0.18" stop-color="#c5c4c5"/><stop offset="0.29" stop-color="#979696"/><stop offset="0.33" stop-color="#919090"/><stop offset="0.78" stop-color="#c9c8c8"/><stop offset="0.85" stop-color="#fff"/><stop offset="1" stop-color="#797979"/></linearGradient><linearGradient id="linear-gradient-6" x1="27.69" y1="28.74" x2="4.39" y2="15.29" xlink:href="#linear-gradient-3"/><linearGradient id="linear-gradient-7" x1="26.13" y1="21.99" x2="8.32" y2="21.99" xlink:href="#linear-gradient-3"/><linearGradient id="linear-gradient-8" x1="27.38" y1="31.87" x2="7.07" y2="11.56" gradientUnits="userSpaceOnUse"><stop offset="0" stop-color="#4d4d4d"/><stop offset="0.22" stop-color="#c9c8c8"/><stop offset="0.5" stop-color="#f2f2f2"/><stop offset="0.67" stop-color="#919090"/><stop offset="0.71" stop-color="#979696"/><stop offset="0.82" stop-color="#c5c4c5"/><stop offset="0.85" stop-color="#bebdbe"/><stop offset="0.89" stop-color="#abaaab"/><stop offset="0.94" stop-color="#8c8c8c"/><stop offset="0.98" stop-color="#666"/></linearGradient><linearGradient id="linear-gradient-9" x1="9.51" y1="21.71" x2="24.78" y2="21.71" xlink:href="#linear-gradient-5"/></defs><path d="M2.16,52.42a2.08,2.08,0,0,1-.92-.22,1.68,1.68,0,0,1-.68-.67,2.16,2.16,0,0,1-.26-1.1,2.19,2.19,0,0,1,.27-1.12,1.88,1.88,0,0,1,.7-.7,1.83,1.83,0,0,1,.92-.24,1.56,1.56,0,0,1,.69.16,1.84,1.84,0,0,1,.52.36l-.54.66a2.73,2.73,0,0,0-.3-.21.78.78,0,0,0-.35-.08.77.77,0,0,0-.6.3,1.3,1.3,0,0,0-.25.83,1.39,1.39,0,0,0,.23.85.75.75,0,0,0,.61.29.8.8,0,0,0,.41-.1,1.76,1.76,0,0,0,.3-.24l.54.65A1.61,1.61,0,0,1,2.16,52.42Z"/><path d="M5.39,52.42a1.7,1.7,0,0,1-1.31-.54,2.14,2.14,0,0,1-.5-1.5,2.05,2.05,0,0,1,.5-1.48,1.72,1.72,0,0,1,1.31-.53,1.72,1.72,0,0,1,1.31.53,2,2,0,0,1,.5,1.48,2.09,2.09,0,0,1-.5,1.5A1.7,1.7,0,0,1,5.39,52.42Zm0-.89a.62.62,0,0,0,.55-.31,1.49,1.49,0,0,0,.21-.84,1.38,1.38,0,0,0-.21-.82.63.63,0,0,0-.55-.3.64.64,0,0,0-.55.3,1.38,1.38,0,0,0-.2.82,1.49,1.49,0,0,0,.2.84A.63.63,0,0,0,5.39,51.53Z"/><path d="M7.9,52.35v-3.9H9l.86,1.74.37.87h0q0-.31-.09-.72a7.09,7.09,0,0,1-.05-.77V48.45h1v3.9H10L9.15,50.6l-.37-.87h0c0,.22.05.47.09.73a6.8,6.8,0,0,1,0,.76v1.13Z"/><path d="M11.93,52.35v-3.9h1.15a2.22,2.22,0,0,1,1.45.45,1.8,1.8,0,0,1,.56,1.48,1.88,1.88,0,0,1-.55,1.5,2.1,2.1,0,0,1-1.4.47Zm1-.83H13a1.17,1.17,0,0,0,.72-.23,1.14,1.14,0,0,0,.29-.91,1.08,1.08,0,0,0-.29-.9,1.22,1.22,0,0,0-.72-.21H13Z"/><path d="M15.78,52.35v-3.9H18.3v.86H16.82v.61h1.27v.87H16.82v.69h1.54v.87Z"/><path d="M19.12,52.35v-3.9h1.06L21,50.19l.37.87h0q0-.31-.09-.72a7.09,7.09,0,0,1-.05-.77V48.45h1v3.9H21.23l-.86-1.75L20,49.73h0c0,.22.05.47.09.73a6.8,6.8,0,0,1,0,.76v1.13Z"/><path d="M24.39,52.42a2.37,2.37,0,0,1-.77-.14,2.05,2.05,0,0,1-.71-.42l.59-.71a2.11,2.11,0,0,0,.45.28,1.16,1.16,0,0,0,.46.1c.3,0,.45-.09.45-.28a.21.21,0,0,0-.15-.2,2.93,2.93,0,0,0-.38-.17l-.49-.21a1.39,1.39,0,0,1-.55-.39,1,1,0,0,1-.23-.69,1.1,1.1,0,0,1,.4-.86,1.54,1.54,0,0,1,1.05-.36,2.1,2.1,0,0,1,.68.13,1.75,1.75,0,0,1,.61.4l-.51.64a2.47,2.47,0,0,0-.38-.21,1.34,1.34,0,0,0-.4-.07c-.27,0-.41.09-.41.27a.23.23,0,0,0,.16.21l.42.18.47.18a1.32,1.32,0,0,1,.56.4,1,1,0,0,1,.2.67,1.17,1.17,0,0,1-.39.87A1.59,1.59,0,0,1,24.39,52.42Z"/><path d="M26.53,52.35v-3.9h2.53v.86H27.57v.61h1.27v.87H27.57v.69h1.54v.87Z"/><path d="M30.9,52.35h-1v-3.9h1.48a2.35,2.35,0,0,1,.77.11,1.17,1.17,0,0,1,.57.39,1.15,1.15,0,0,1,.22.76,1.22,1.22,0,0,1-.18.69,1.1,1.1,0,0,1-.45.43l.84,1.52H32L31.3,51h-.4Zm0-2.13h.38c.41,0,.62-.17.62-.51a.36.36,0,0,0-.16-.35.85.85,0,0,0-.46-.1H30.9Z"/><path d="M10.1,58.35v-3.9h1v3H12.6v.87Z"/><path d="M13.28,58.35v-3.9H15.8v.86H14.31v.61h1.27v.87H14.31v.69h1.55v.87Z"/><path d="M16.61,58.35v-3.9h1.06l.86,1.74.37.87h0c0-.21-.05-.45-.09-.72a7,7,0,0,1,0-.77V54.45h1v3.9H18.72l-.86-1.75-.37-.87h0c0,.22.06.47.09.73a6.91,6.91,0,0,1,.05.76v1.13Z"/><path d="M21.88,58.42a2.42,2.42,0,0,1-.77-.14,2.05,2.05,0,0,1-.71-.42l.59-.71a2.11,2.11,0,0,0,.45.28,1.2,1.2,0,0,0,.46.1c.3,0,.45-.09.45-.28a.21.21,0,0,0-.14-.2l-.39-.17-.49-.21a1.39,1.39,0,0,1-.55-.39,1,1,0,0,1-.23-.69,1.08,1.08,0,0,1,.41-.86,1.51,1.51,0,0,1,1-.36,2.1,2.1,0,0,1,.68.13,1.79,1.79,0,0,1,.62.4l-.52.64a2.08,2.08,0,0,0-.38-.21,1.29,1.29,0,0,0-.4-.07c-.27,0-.41.09-.41.27a.23.23,0,0,0,.16.21l.42.18.47.18a1.36,1.36,0,0,1,.57.4,1.11,1.11,0,0,1,.19.67A1.17,1.17,0,0,1,23,58,1.59,1.59,0,0,1,21.88,58.42Z"/><g class="cls-1"><ellipse class="cls-2" cx="16.02" cy="20.27" rx="8.04" ry="19.02"/><ellipse class="cls-3" cx="17.09" cy="20.27" rx="8.04" ry="19.02"/></g><path class="cls-4" d="M16.09,0c-4.92.11-8.86,10-8.8,22.19s4.1,21.9,9,21.79,8.86-10,8.8-22.18S21-.11,16.09,0Zm.12,40.72c-4.11.09-7.49-8.35-7.54-18.85S11.91,2.78,16,2.69,23.51,11,23.56,21.54,20.32,40.63,16.21,40.72Z"/><ellipse class="cls-5" cx="16.89" cy="21.71" rx="7.7" ry="19.02"/><path class="cls-6" d="M15.93,0c-4.92.1-8.86,10-8.8,22.18s4.09,21.9,9,21.8a4,4,0,0,0,1.13-.2c4.38-1.46,7.73-10.78,7.67-22C24.88,9.68,20.85-.08,15.93,0Zm1.31,40.7c-4.12.09-7.49-8.35-7.54-18.85S12.94,2.79,17.05,2.7s7.49,8.35,7.54,18.85S21.35,40.64,17.24,40.73Z"/><path class="cls-7" d="M17.12,0C12.2.11,8.26,10,8.32,22.19s4.09,21.9,9,21.79,8.86-10,8.8-22.18S22-.11,17.12,0Zm.11,40.72c-4.11.09-7.48-8.35-7.53-18.85S12.94,2.78,17.05,2.69,24.54,11,24.59,21.54,21.35,40.63,17.23,40.72Z"/><path class="cls-8" d="M24.59,22.26c-.1,8.49-3.06,18.21-7.19,18.47-4.29.28-7.7-9.81-7.7-19s3.41-19.28,7.7-19S24.7,13.32,24.59,22.26Z"/></svg>