<svg id="Layer_1" data-name="Layer 1" xmlns="http://www.w3.org/2000/svg" xmlns:xlink="http://www.w3.org/1999/xlink" viewBox="0 0 12.15 69.37"><defs><style>.cls-1{stroke-miterlimit:10;stroke-width:0.38px;fill:url(#linear-gradient);stroke:url(#linear-gradient-2);}</style><linearGradient id="linear-gradient" x1="-997.74" y1="613.07" x2="-997.74" y2="544.07" gradientTransform="translate(1003.34 -543.88)" gradientUnits="userSpaceOnUse"><stop offset="0.02" stop-color="#666"/><stop offset="0.06" stop-color="#8c8c8c"/><stop offset="0.11" stop-color="#abaaab"/><stop offset="0.15" stop-color="#bebdbe"/><stop offset="0.18" stop-color="#c5c4c5"/><stop offset="0.29" stop-color="#979696"/><stop offset="0.33" stop-color="#919090"/><stop offset="0.5" stop-color="#f2f2f2"/><stop offset="0.78" stop-color="#c9c8c8"/><stop offset="1" stop-color="#4d4d4d"/></linearGradient><linearGradient id="linear-gradient-2" x1="5.6" y1="69.37" x2="5.6" gradientUnits="userSpaceOnUse"><stop offset="0" stop-color="#a6a5a5"/><stop offset="0.11" stop-color="#d2d1d2"/><stop offset="0.18" stop-color="#c5c4c5"/><stop offset="0.29" stop-color="#979696"/><stop offset="0.33" stop-color="#919090"/><stop offset="0.78" stop-color="#c9c8c8"/><stop offset="0.85" stop-color="#fff"/><stop offset="1" stop-color="#797979"/></linearGradient></defs><path class="cls-1" d="M3.52.19H11v69H3.52S-4,34.69,3.52.19Z"/><path d="M9.63,60.47a2.49,2.49,0,0,1-.3,1.21,2.24,2.24,0,0,1-.9.88A3,3,0,0,1,7,62.89a3,3,0,0,1-1.48-.34,2.44,2.44,0,0,1-.93-.9,2.39,2.39,0,0,1-.32-1.22,1.93,1.93,0,0,1,.2-.91,2.59,2.59,0,0,1,.47-.66l.76.62a1.82,1.82,0,0,0-.3.42,1.06,1.06,0,0,0-.12.5,1.14,1.14,0,0,0,.45.91,1.86,1.86,0,0,0,1.23.37,2,2,0,0,0,1.25-.34,1.11,1.11,0,0,0,.45-.92,1.15,1.15,0,0,0-.14-.57,1.94,1.94,0,0,0-.35-.45l.73-.62A2.1,2.1,0,0,1,9.63,60.47Z"/><path d="M9.63,56.16a2.18,2.18,0,0,1-.72,1.71,2.86,2.86,0,0,1-2,.66,2.79,2.79,0,0,1-2-.66,2.45,2.45,0,0,1,0-3.42,2.78,2.78,0,0,1,2-.66,2.86,2.86,0,0,1,2,.66A2.21,2.21,0,0,1,9.63,56.16Zm-1,0a1,1,0,0,0-.47-.85A2.26,2.26,0,0,0,6.9,55a2.12,2.12,0,0,0-1.21.31,1,1,0,0,0,0,1.7,2,2,0,0,0,1.21.31A2.18,2.18,0,0,0,8.15,57,1,1,0,0,0,8.62,56.16Z"/><path d="M9.63,50.75A2,2,0,0,1,9,52.31a2.85,2.85,0,0,1-1.91.53H4.32V51.66H7.24a1.86,1.86,0,0,0,1.07-.23.79.79,0,0,0,.31-.68.81.81,0,0,0-.31-.68,1.77,1.77,0,0,0-1.07-.24H4.32V48.7h2.8A2.85,2.85,0,0,1,9,49.22,1.92,1.92,0,0,1,9.63,50.75Z"/><path d="M9.54,47.49H4.32V45.7a2.77,2.77,0,0,1,.37-1.47A1.4,1.4,0,0,1,6,43.63a1.52,1.52,0,0,1,1.34.6,2.43,2.43,0,0,1,.43,1.44v.64H9.54ZM6.83,46.31v-.57c0-.64-.27-1-.83-1a.65.65,0,0,0-.58.25,1.38,1.38,0,0,0-.16.74v.54Z"/><path d="M9.54,42.72H4.32V41.55H8.54V39.48h1Z"/><path d="M9.54,38.58H4.32V37.4H9.54Z"/><path d="M9.54,36.17H4.32V35L6.91,33.6l1.16-.51v0l-.93.09c-.34,0-.67.05-1,.05H4.32V32.08H9.54v1.21l-2.6,1.36-1.14.51v0l.93-.09c.33,0,.65-.05,1-.05H9.54Z"/><path d="M9.63,28.55A2.45,2.45,0,0,1,7,31.1a3,3,0,0,1-1.48-.35,2.35,2.35,0,0,1-.93-.92,2.54,2.54,0,0,1-.32-1.28,2.13,2.13,0,0,1,.2-1,2.73,2.73,0,0,1,.47-.67l.76.62a2.32,2.32,0,0,0-.3.42,1.19,1.19,0,0,0-.12.56,1.26,1.26,0,0,0,.45,1,1.86,1.86,0,0,0,1.23.38,1.92,1.92,0,0,0,1.25-.36,1.34,1.34,0,0,0,.45-1.1.91.91,0,0,0-.16-.56h-.9v.86h-1v-1.9H9a2.11,2.11,0,0,1,.45.72A2.66,2.66,0,0,1,9.63,28.55Z"/><path d="M9.54,24.15H4.32V23H8.54V20.91h1Z"/><path d="M9.54,20H4.32V16.74h1v2.09H6.36V17.05h1v1.78h1.2V16.66h1Z"/><path d="M9.54,15.62H4.32V14.41l2.59-1.36,1.16-.51v0l-.93.08a8.44,8.44,0,0,1-1,.06H4.32V11.53H9.54v1.21L6.94,14.1l-1.14.51v0l.93-.09c.33,0,.65-.05,1-.05H9.54Z"/><path d="M9.63,8.71a2.83,2.83,0,0,1-.19,1,2.63,2.63,0,0,1-.56.9L8.07,10a2.32,2.32,0,0,0,.39-.62,1.53,1.53,0,0,0,.16-.67Q8.62,8,8.11,8a.38.38,0,0,0-.36.2,4.15,4.15,0,0,0-.26.55l-.29.68a2,2,0,0,1-.51.72,1.26,1.26,0,0,1-.91.33,1.41,1.41,0,0,1-1.1-.52,2,2,0,0,1-.45-1.34,2.37,2.37,0,0,1,.68-1.68l.75.6A2,2,0,0,0,5.35,8a1.48,1.48,0,0,0-.11.57.85.85,0,0,0,.12.48.41.41,0,0,0,.35.18A.38.38,0,0,0,6.07,9c.08-.16.17-.34.26-.57l.27-.67A1.82,1.82,0,0,1,7.13,7,1.32,1.32,0,0,1,8,6.74a1.51,1.51,0,0,1,1.13.51A2.07,2.07,0,0,1,9.63,8.71Z"/></svg>