<svg id="Layer_1" data-name="Layer 1" xmlns="http://www.w3.org/2000/svg" xmlns:xlink="http://www.w3.org/1999/xlink" viewBox="0 0 12.41 69.37"><defs><style>.cls-1{stroke-miterlimit:10;stroke-width:0.38px;fill:url(#linear-gradient);stroke:url(#linear-gradient-2);}</style><linearGradient id="linear-gradient" x1="-5617.93" y1="-1558.03" x2="-5617.93" y2="-1627.03" gradientTransform="translate(-5611.12 -1557.84) rotate(180)" gradientUnits="userSpaceOnUse"><stop offset="0.02" stop-color="#666"/><stop offset="0.06" stop-color="#8c8c8c"/><stop offset="0.11" stop-color="#abaaab"/><stop offset="0.15" stop-color="#bebdbe"/><stop offset="0.18" stop-color="#c5c4c5"/><stop offset="0.29" stop-color="#979696"/><stop offset="0.33" stop-color="#919090"/><stop offset="0.5" stop-color="#f2f2f2"/><stop offset="0.78" stop-color="#c9c8c8"/><stop offset="1" stop-color="#4d4d4d"/></linearGradient><linearGradient id="linear-gradient-2" x1="-4614.58" y1="-2101.72" x2="-4614.58" y2="-2171.1" gradientTransform="translate(-4607.78 -2101.72) rotate(180)" gradientUnits="userSpaceOnUse"><stop offset="0" stop-color="#a6a5a5"/><stop offset="0.11" stop-color="#d2d1d2"/><stop offset="0.18" stop-color="#c5c4c5"/><stop offset="0.29" stop-color="#979696"/><stop offset="0.33" stop-color="#919090"/><stop offset="0.78" stop-color="#c9c8c8"/><stop offset="0.85" stop-color="#fff"/><stop offset="1" stop-color="#797979"/></linearGradient></defs><path class="cls-1" d="M8.89,69.19H1.39V.19h7.5S16.39,34.69,8.89,69.19Z"/><path d="M2.87,16.7H7.1V15.27h1v4.05h-1V17.89H2.87Z"/><path d="M2.78,22.19a2,2,0,0,1,.6-1.55,2.79,2.79,0,0,1,1.91-.54h2.8v1.19H5.17a1.78,1.78,0,0,0-1.07.23.77.77,0,0,0-.31.67.81.81,0,0,0,.31.68,1.77,1.77,0,0,0,1.07.24H8.09v1.14H5.29a2.85,2.85,0,0,1-1.91-.53A1.92,1.92,0,0,1,2.78,22.19Z"/><path d="M2.87,25.45H8.09v1.79a3.08,3.08,0,0,1-.27,1.36,1.05,1.05,0,0,1-1,.56A1.41,1.41,0,0,1,6.11,29a1,1,0,0,1-.45-.5h0a1.33,1.33,0,0,1-.4.66,1.19,1.19,0,0,1-.82.27,1.27,1.27,0,0,1-1.17-.59,2.69,2.69,0,0,1-.37-1.43Zm.91,1.18v.66c0,.65.24,1,.71,1s.64-.32.64-1v-.66Zm2.22,0v.55a1,1,0,0,0,.17.63.55.55,0,0,0,.45.19c.37,0,.56-.27.56-.81v-.56Z"/><path d="M2.87,30.29H8.09v3.27h-1V31.47h-1v1.77h-1V31.47H3.86v2.17h-1Z"/><path d="M2.87,36.28H8.09v1.17H3.86v2.07h-1Z"/><path d="M2.87,40.42H8.09v3.26h-1V41.6h-1v1.77h-1V41.6H3.86v2.16h-1Z"/><path d="M2.87,44.8H8.09V46L5.5,47.37l-1.16.51v0l.93-.09a8.44,8.44,0,0,1,1-.06H8.09v1.12H2.87V47.68l2.6-1.36,1.14-.51v0l-.93.09a7.92,7.92,0,0,1-1,.05H2.87Z"/><path d="M2.78,51.72a2.84,2.84,0,0,1,.19-1,2.63,2.63,0,0,1,.56-.9l.81.67a2.53,2.53,0,0,0-.4.62,1.7,1.7,0,0,0-.15.67c0,.48.17.73.51.73a.39.39,0,0,0,.36-.21,4.93,4.93,0,0,0,.26-.55L5.21,51a1.91,1.91,0,0,1,.51-.72A1.25,1.25,0,0,1,6.63,50a1.4,1.4,0,0,1,1.1.52,2,2,0,0,1,.45,1.33,2.61,2.61,0,0,1-.17.9,2.29,2.29,0,0,1-.51.78l-.75-.6a2,2,0,0,0,.31-.51,1.48,1.48,0,0,0,.11-.57A.78.78,0,0,0,7,51.37a.38.38,0,0,0-.34-.18.38.38,0,0,0-.36.23c-.08.15-.17.34-.26.56l-.27.67a1.85,1.85,0,0,1-.53.75,1.32,1.32,0,0,1-.89.28,1.51,1.51,0,0,1-1.13-.51A2.06,2.06,0,0,1,2.78,51.72Z"/></svg>