<svg id="Layer_1" data-name="Layer 1" xmlns="http://www.w3.org/2000/svg" xmlns:xlink="http://www.w3.org/1999/xlink" viewBox="0 0 33.26 60.78"><defs><style>.cls-1{fill:#fff;}.cls-2{opacity:0.65;}.cls-3{opacity:0.61;fill:url(#linear-gradient);}.cls-4{opacity:0.51;fill:url(#linear-gradient-2);}.cls-5{fill:url(#linear-gradient-3);}.cls-6,.cls-9{stroke-miterlimit:10;stroke-width:0.38px;}.cls-6{opacity:0.43;fill:url(#linear-gradient-4);stroke:url(#linear-gradient-5);}.cls-7{fill:url(#linear-gradient-6);}.cls-8{fill:url(#linear-gradient-7);}.cls-9{opacity:0.42;fill:url(#linear-gradient-8);stroke:url(#linear-gradient-9);}</style><linearGradient id="linear-gradient" x1="26.23" y1="26.16" x2="5.81" y2="14.37" gradientUnits="userSpaceOnUse"><stop offset="0.02" stop-color="#666"/><stop offset="0.02" stop-color="#6e6e6e"/><stop offset="0.05" stop-color="#999899"/><stop offset="0.07" stop-color="#b8b7b8"/><stop offset="0.09" stop-color="#cbcacb"/><stop offset="0.11" stop-color="#d2d1d2"/><stop offset="0.18" stop-color="#c5c4c5"/><stop offset="0.29" stop-color="#979696"/><stop offset="0.33" stop-color="#919090"/><stop offset="0.5" stop-color="#f2f2f2"/><stop offset="0.78" stop-color="#c9c8c8"/><stop offset="0.85" stop-color="#fff"/><stop offset="1" stop-color="#4d4d4d"/></linearGradient><linearGradient id="linear-gradient-2" x1="17.09" y1="39.28" x2="17.09" y2="1.25" gradientUnits="userSpaceOnUse"><stop offset="0.02" stop-color="#666"/><stop offset="0.02" stop-color="#6e6e6e"/><stop offset="0.05" stop-color="#999899"/><stop offset="0.07" stop-color="#b8b7b8"/><stop offset="0.09" stop-color="#cbcacb"/><stop offset="0.11" stop-color="#d2d1d2"/><stop offset="0.18" stop-color="#c5c4c5"/><stop offset="0.29" stop-color="#979696"/><stop offset="0.36" stop-color="#919090"/><stop offset="0.59" stop-color="#c9c8c8"/><stop offset="0.85" stop-color="#f2f2f2"/><stop offset="1" stop-color="#4d4d4d"/></linearGradient><linearGradient id="linear-gradient-3" x1="25.1" y1="21.99" x2="7.29" y2="21.99" gradientUnits="userSpaceOnUse"><stop offset="0.02" stop-color="#666"/><stop offset="0.02" stop-color="#646464"/><stop offset="0.2" stop-color="#393939"/><stop offset="0.36" stop-color="#1a1a1a"/><stop offset="0.5" stop-color="#070707"/><stop offset="0.59"/><stop offset="1" stop-color="#4d4d4d"/></linearGradient><linearGradient id="linear-gradient-4" x1="8.43" y1="36.37" x2="25.35" y2="7.06" gradientUnits="userSpaceOnUse"><stop offset="0.02" stop-color="#666"/><stop offset="0.06" stop-color="#8c8c8c"/><stop offset="0.11" stop-color="#abaaab"/><stop offset="0.15" stop-color="#bebdbe"/><stop offset="0.18" stop-color="#c5c4c5"/><stop offset="0.5" stop-color="#f2f2f2"/><stop offset="0.78" stop-color="#c9c8c8"/><stop offset="1" stop-color="#4d4d4d"/></linearGradient><linearGradient id="linear-gradient-5" x1="9" y1="21.71" x2="24.78" y2="21.71" gradientUnits="userSpaceOnUse"><stop offset="0" stop-color="#a6a5a5"/><stop offset="0.11" stop-color="#d2d1d2"/><stop offset="0.18" stop-color="#c5c4c5"/><stop offset="0.29" stop-color="#979696"/><stop offset="0.33" stop-color="#919090"/><stop offset="0.78" stop-color="#c9c8c8"/><stop offset="0.85" stop-color="#fff"/><stop offset="1" stop-color="#797979"/></linearGradient><linearGradient id="linear-gradient-6" x1="27.69" y1="28.74" x2="4.39" y2="15.29" xlink:href="#linear-gradient-3"/><linearGradient id="linear-gradient-7" x1="26.13" y1="21.99" x2="8.32" y2="21.99" xlink:href="#linear-gradient-3"/><linearGradient id="linear-gradient-8" x1="27.38" y1="31.87" x2="7.07" y2="11.56" gradientUnits="userSpaceOnUse"><stop offset="0" stop-color="#4d4d4d"/><stop offset="0.22" stop-color="#c9c8c8"/><stop offset="0.5" stop-color="#f2f2f2"/><stop offset="0.67" stop-color="#919090"/><stop offset="0.71" stop-color="#979696"/><stop offset="0.82" stop-color="#c5c4c5"/><stop offset="0.85" stop-color="#bebdbe"/><stop offset="0.89" stop-color="#abaaab"/><stop offset="0.94" stop-color="#8c8c8c"/><stop offset="0.98" stop-color="#666"/></linearGradient><linearGradient id="linear-gradient-9" x1="9.51" y1="21.71" x2="24.78" y2="21.71" xlink:href="#linear-gradient-5"/></defs><path d="M3.49,52.52a2,2,0,0,1-1-.24,1.79,1.79,0,0,1-.72-.7,2.22,2.22,0,0,1-.27-1.15,2.25,2.25,0,0,1,.28-1.17,2,2,0,0,1,1.7-1,1.64,1.64,0,0,1,.74.17,2.32,2.32,0,0,1,.55.38l.06.06-.66.81-.08-.06a1.31,1.31,0,0,0-.28-.2.7.7,0,0,0-.3-.07.66.66,0,0,0-.52.27,1.1,1.1,0,0,0-.23.76,1.23,1.23,0,0,0,.21.78.6.6,0,0,0,.53.26.68.68,0,0,0,.35-.09,1,1,0,0,0,.28-.21L4.24,51l.66.8-.05.07A1.73,1.73,0,0,1,3.49,52.52Z"/><path class="cls-1" d="M3.51,48.37a1.6,1.6,0,0,1,.7.16,1.84,1.84,0,0,1,.52.36l-.54.66a2.73,2.73,0,0,0-.3-.21.78.78,0,0,0-.35-.08.77.77,0,0,0-.6.3,1.25,1.25,0,0,0-.25.83,1.32,1.32,0,0,0,.23.85.74.74,0,0,0,.61.29.77.77,0,0,0,.4-.1,1.22,1.22,0,0,0,.3-.24l.54.65a1.57,1.57,0,0,1-1.28.58,2,2,0,0,1-.92-.22,1.68,1.68,0,0,1-.68-.67,2.16,2.16,0,0,1-.26-1.1,2.19,2.19,0,0,1,.27-1.12,1.86,1.86,0,0,1,.69-.7,1.89,1.89,0,0,1,.92-.24m0-.2a2,2,0,0,0-1,.27,2.18,2.18,0,0,0-.77.77,2.47,2.47,0,0,0-.29,1.22,2.34,2.34,0,0,0,.29,1.2,1.8,1.8,0,0,0,.76.74,2.07,2.07,0,0,0,1,.25A1.81,1.81,0,0,0,4.93,52L5,51.84l-.11-.13-.54-.64-.15-.18-.15.17a1.37,1.37,0,0,1-.26.2.73.73,0,0,1-.3.07.54.54,0,0,1-.46-.22,1.19,1.19,0,0,1-.18-.72,1.1,1.1,0,0,1,.2-.7.59.59,0,0,1,.45-.23.55.55,0,0,1,.26.06,2,2,0,0,1,.25.18l.16.14.13-.16L4.88,49,5,48.88l-.13-.13a2.23,2.23,0,0,0-.57-.4,1.73,1.73,0,0,0-.79-.18Z"/><path d="M6.72,52.52A1.81,1.81,0,0,1,5.33,52a2.24,2.24,0,0,1-.52-1.57,2.14,2.14,0,0,1,.52-1.55,1.85,1.85,0,0,1,1.39-.56,1.83,1.83,0,0,1,1.38.56,2.14,2.14,0,0,1,.53,1.55A2.24,2.24,0,0,1,8.1,52,1.8,1.8,0,0,1,6.72,52.52Zm0-3.16a.53.53,0,0,0-.47.25,1.31,1.31,0,0,0-.19.77,1.36,1.36,0,0,0,.19.78.54.54,0,0,0,.94,0,1.45,1.45,0,0,0,.18-.78,1.39,1.39,0,0,0-.18-.77A.54.54,0,0,0,6.72,49.36Z"/><path class="cls-1" d="M6.72,48.37A1.74,1.74,0,0,1,8,48.9a2.05,2.05,0,0,1,.5,1.48,2.14,2.14,0,0,1-.5,1.5,1.71,1.71,0,0,1-1.31.54,1.7,1.7,0,0,1-1.31-.54,2.1,2.1,0,0,1-.51-1.5,2,2,0,0,1,.51-1.48,1.72,1.72,0,0,1,1.31-.53m0,3.16a.63.63,0,0,0,.55-.31,1.58,1.58,0,0,0,.2-.84,1.46,1.46,0,0,0-.2-.82.64.64,0,0,0-.55-.3.62.62,0,0,0-.55.3,1.38,1.38,0,0,0-.21.82,1.49,1.49,0,0,0,.21.84.61.61,0,0,0,.55.31m0-3.36a1.93,1.93,0,0,0-1.46.59,2.24,2.24,0,0,0-.56,1.62A2.29,2.29,0,0,0,5.26,52a1.91,1.91,0,0,0,1.46.61A1.9,1.9,0,0,0,8.17,52a2.29,2.29,0,0,0,.56-1.63,2.24,2.24,0,0,0-.56-1.62,1.92,1.92,0,0,0-1.45-.59Zm0,3.16a.44.44,0,0,1-.39-.22,1.36,1.36,0,0,1-.17-.73,1.26,1.26,0,0,1,.17-.71.45.45,0,0,1,.39-.21.43.43,0,0,1,.38.21,1.18,1.18,0,0,1,.17.71,1.29,1.29,0,0,1-.17.73.43.43,0,0,1-.38.22Z"/><polygon points="9.13 52.45 9.13 48.35 10.36 48.35 10.36 51.38 11.83 51.38 11.83 52.45 9.13 52.45"/><path class="cls-1" d="M10.26,48.45v3h1.47v.87H9.23v-3.9h1m.2-.2H9v4.3h2.9V51.28H10.46v-3Z"/><polygon points="12.3 52.45 12.3 48.35 13.54 48.35 13.54 51.38 15.01 51.38 15.01 52.45 12.3 52.45"/><path class="cls-1" d="M13.44,48.45v3h1.47v.87H12.4v-3.9h1m.2-.2H12.2v4.3h2.91V51.28H13.64v-3Z"/><rect x="15.48" y="48.35" width="1.23" height="4.1"/><path class="cls-1" d="M16.62,48.45v3.9h-1v-3.9h1m.2-.2H15.38v4.3h1.44v-4.3Z"/><path d="M20.24,52.45V51.19a5.06,5.06,0,0,1,0-.63l-.06.21-.51,1.36H19l-.51-1.36,0-.12q0,.3,0,.54v1.26H17.38v-4.1h1.27L19.27,50c0,.11.07.23.1.35l0,.06,0-.07a3.37,3.37,0,0,1,.1-.34l.59-1.66h1.27v4.1Z"/><path class="cls-1" d="M21.27,48.45v3.9h-.93V51.19a6,6,0,0,1,0-.69c0-.27.06-.5.09-.7h0l-.32.94L19.64,52h-.55l-.48-1.29-.31-.94h0c0,.2.05.43.09.7a6,6,0,0,1,0,.69v1.16h-.92v-3.9h1.1L19.17,50a3.37,3.37,0,0,1,.1.34l.11.35h0c0-.12.07-.23.1-.35s.07-.23.1-.34l.57-1.59h1.1m.2-.2H20l-.05.13L19.42,50l0,.08,0-.08-.59-1.6-.05-.13H17.28v4.3H18.6V51.3l.3.8.05.13h.83l0-.13.31-.83v1.28h1.33v-4.3Z"/><path d="M24.1,52.45l-.19-.83H23l-.19.83H21.51l1.25-4.1h1.39l1.25,4.1Zm-.43-1.83,0-.15c-.05-.18-.1-.38-.15-.61,0-.08,0-.16,0-.24a1.84,1.84,0,0,0-.05.25c-.05.22-.1.42-.15.61l0,.14Z"/><path class="cls-1" d="M24.08,48.45l1.19,3.9H24.18l-.2-.83H22.89l-.19.83H21.65l1.18-3.9h1.25m-1,2.27h.72l-.07-.27-.14-.61-.15-.63h0c0,.2-.08.41-.13.63l-.14.61-.07.27m1.15-2.47H22.68l0,.14-1.19,3.9-.07.26h1.48l0-.16.15-.67h.78l.15.67,0,.16h1.52l-.08-.26-1.19-3.9,0-.14Zm-.9,2.27v0c0-.13.07-.27.1-.41,0,.15.07.28.1.41v0Z"/><polygon points="25.8 52.45 25.8 49.41 24.77 49.41 24.77 48.35 28.07 48.35 28.07 49.41 27.04 49.41 27.04 52.45 25.8 52.45"/><path class="cls-1" d="M28,48.45v.86h-1v3h-1v-3h-1v-.86H28m.2-.2h-3.5v1.26h1v3h1.44v-3h1V48.25Z"/><path d="M30.58,52.45l-.67-1.31h-.23v1.31H28.44v-4.1H30a2.86,2.86,0,0,1,.8.11,1.27,1.27,0,0,1,.62.43,1.25,1.25,0,0,1,.24.82,1.37,1.37,0,0,1-.19.75,1.56,1.56,0,0,1-.4.41L32,52.45ZM30,50.12c.46,0,.52-.22.52-.41s-.08-.25-.11-.27a.87.87,0,0,0-.41-.08h-.27v.76Z"/><path class="cls-1" d="M30,48.45a2.35,2.35,0,0,1,.77.11,1.17,1.17,0,0,1,.57.39,1.15,1.15,0,0,1,.22.76,1.31,1.31,0,0,1-.17.69,1.19,1.19,0,0,1-.46.43l.85,1.52H30.65L30,51h-.39v1.31h-1v-3.9H30m-.44,1.77H30c.41,0,.62-.17.62-.51a.36.36,0,0,0-.16-.35.83.83,0,0,0-.46-.1h-.37v1m.44-2H28.34v4.3h1.44V51.24h.07l.62,1.2.05.11h1.62l-.17-.3-.75-1.35a1.67,1.67,0,0,0,.36-.39,1.56,1.56,0,0,0,.2-.8,1.43,1.43,0,0,0-.26-.89,1.4,1.4,0,0,0-.66-.45,2.84,2.84,0,0,0-.84-.12Zm-.24,1.21H30a.69.69,0,0,1,.36.07s.06,0,.06.18,0,.31-.42.31h-.17v-.56Z"/><polygon points="10 58.45 10 54.35 11.23 54.35 11.23 57.38 12.7 57.38 12.7 58.45 10 58.45"/><path class="cls-1" d="M11.13,54.45v3H12.6v.87H10.1v-3.9h1m.2-.2H9.9v4.3h2.9V57.28H11.33v-3Z"/><polygon points="13.18 58.45 13.18 54.35 15.89 54.35 15.89 55.41 14.41 55.41 14.41 55.82 15.68 55.82 15.68 56.89 14.41 56.89 14.41 57.38 15.96 57.38 15.96 58.45 13.18 58.45"/><path class="cls-1" d="M15.8,54.45v.86H14.31v.61h1.27v.87H14.31v.69h1.54v.87H13.27v-3.9H15.8m.2-.2H13.07v4.3h3V57.28H14.51V57h1.27V55.72H14.51v-.21H16V54.25Z"/><path d="M18.66,58.45l-.89-1.81-.14-.32s0,.09,0,.13a6.85,6.85,0,0,1,0,.77v1.23H16.51v-4.1h1.22l.89,1.79.14.32,0-.11a7,7,0,0,1,0-.78V54.35h1.18v4.1Z"/><path class="cls-1" d="M19.78,54.45v3.9H18.72l-.86-1.75-.37-.87h0c0,.22.06.47.09.73a6.91,6.91,0,0,1,.05.76v1.13h-1v-3.9h1.06l.86,1.74.37.87h0c0-.21-.05-.45-.09-.72a7,7,0,0,1,0-.77V54.45h1m.2-.2H18.6v1.63l-.75-1.52-.06-.11H16.41v4.3H17.8V57.22c0-.1,0-.21,0-.32l.75,1.53.06.12H20v-4.3Z"/><path d="M21.88,58.52a2.31,2.31,0,0,1-.8-.15,1.92,1.92,0,0,1-.74-.44l-.07-.06L21,57l.08.07a1.61,1.61,0,0,0,.42.25,1,1,0,0,0,.42.1c.35,0,.35-.13.35-.18s0-.08-.09-.11L21.78,57l-.49-.21a1.4,1.4,0,0,1-.58-.42,1.07,1.07,0,0,1-.26-.75,1.2,1.2,0,0,1,.44-.93A1.6,1.6,0,0,1,22,54.27a2.09,2.09,0,0,1,.72.14,1.93,1.93,0,0,1,.65.41l.06.07-.63.79-.08,0a1.3,1.3,0,0,0-.36-.2.86.86,0,0,0-.36-.07c-.31,0-.31.12-.31.17s0,.08.1.12a3.69,3.69,0,0,0,.41.17l.48.19a1.37,1.37,0,0,1,.6.43,1.15,1.15,0,0,1,.22.73,1.28,1.28,0,0,1-.42.94A1.69,1.69,0,0,1,21.88,58.52Z"/><path class="cls-1" d="M22,54.37a2.1,2.1,0,0,1,.68.13,1.79,1.79,0,0,1,.62.4l-.52.64a2.08,2.08,0,0,0-.38-.21,1.29,1.29,0,0,0-.4-.07c-.27,0-.41.09-.41.27a.23.23,0,0,0,.16.21l.42.18.47.18a1.36,1.36,0,0,1,.57.4,1.11,1.11,0,0,1,.19.67A1.17,1.17,0,0,1,23,58a1.59,1.59,0,0,1-1.13.38,2.42,2.42,0,0,1-.77-.14,2.05,2.05,0,0,1-.71-.42l.59-.71a2.11,2.11,0,0,0,.45.28,1.16,1.16,0,0,0,.46.1c.3,0,.45-.09.45-.28a.21.21,0,0,0-.14-.2l-.39-.17-.49-.21a1.39,1.39,0,0,1-.55-.39,1,1,0,0,1-.23-.69,1.08,1.08,0,0,1,.41-.86,1.51,1.51,0,0,1,1-.36m0-.2a1.75,1.75,0,0,0-1.18.41,1.32,1.32,0,0,0-.47,1,1.22,1.22,0,0,0,.28.82,1.74,1.74,0,0,0,.63.45l.48.2.38.17c0,.09-.13.1-.22.1a1,1,0,0,1-.38-.09,1.47,1.47,0,0,1-.4-.24L21,56.87l-.13.15-.59.71-.12.15.14.13a2.37,2.37,0,0,0,.78.46,2.47,2.47,0,0,0,.83.15,1.78,1.78,0,0,0,1.27-.44,1.37,1.37,0,0,0,.45-1,1.26,1.26,0,0,0-.24-.79,1.45,1.45,0,0,0-.65-.46l-.47-.19-.41-.17,0,0c0-.06.11-.07.21-.07a.79.79,0,0,1,.32.06,1.74,1.74,0,0,1,.35.19l.15.11.12-.15.51-.65.11-.14-.12-.13a1.91,1.91,0,0,0-.69-.43,2,2,0,0,0-.75-.15Z"/><g class="cls-2"><ellipse class="cls-3" cx="16.02" cy="20.27" rx="8.04" ry="19.02"/><ellipse class="cls-4" cx="17.09" cy="20.27" rx="8.04" ry="19.02"/></g><path class="cls-5" d="M16.09,0c-4.92.11-8.86,10-8.8,22.19s4.1,21.9,9,21.79,8.86-10,8.8-22.18S21-.11,16.09,0Zm.12,40.72c-4.11.09-7.49-8.35-7.54-18.85S11.91,2.78,16,2.69,23.51,11,23.56,21.54,20.32,40.63,16.21,40.72Z"/><ellipse class="cls-6" cx="16.89" cy="21.71" rx="7.7" ry="19.02"/><path class="cls-7" d="M15.93,0c-4.92.1-8.86,10-8.8,22.18s4.09,21.9,9,21.8a4,4,0,0,0,1.13-.2c4.38-1.46,7.73-10.78,7.67-22C24.88,9.68,20.85-.08,15.93,0Zm1.31,40.7c-4.12.09-7.49-8.35-7.54-18.85S12.94,2.79,17.05,2.7s7.49,8.35,7.54,18.85S21.35,40.64,17.24,40.73Z"/><path class="cls-8" d="M17.12,0C12.2.11,8.26,10,8.32,22.19s4.09,21.9,9,21.79,8.86-10,8.8-22.18S22-.11,17.12,0Zm.11,40.72c-4.11.09-7.48-8.35-7.53-18.85S12.94,2.78,17.05,2.69,24.54,11,24.59,21.54,21.35,40.63,17.23,40.72Z"/><path class="cls-9" d="M24.59,22.26c-.1,8.49-3.06,18.21-7.19,18.47-4.29.28-7.7-9.81-7.7-19s3.41-19.28,7.7-19S24.7,13.32,24.59,22.26Z"/></svg>