<svg xmlns="http://www.w3.org/2000/svg" xmlns:xlink="http://www.w3.org/1999/xlink" viewBox="0 0 33.26 60.78"><defs><style>.cls-1{isolation:isolate;}.cls-2{fill:#8e8e8e;}.cls-3{fill:url(#linear-gradient);}.cls-4{stroke-miterlimit:10;stroke-width:0.38px;opacity:0.25;fill:url(#linear-gradient-2);stroke:url(#linear-gradient-3);}.cls-5{fill:url(#linear-gradient-4);}.cls-6{fill:url(#linear-gradient-5);}.cls-7{opacity:0.77;mix-blend-mode:soft-light;fill:url(#linear-gradient-6);}</style><linearGradient id="linear-gradient" x1="25.26" y1="22.18" x2="7.45" y2="22.18" gradientUnits="userSpaceOnUse"><stop offset="0.02" stop-color="#666"/><stop offset="0.02" stop-color="#646464"/><stop offset="0.2" stop-color="#393939"/><stop offset="0.36" stop-color="#1a1a1a"/><stop offset="0.5" stop-color="#070707"/><stop offset="0.59"/><stop offset="1" stop-color="#4d4d4d"/></linearGradient><linearGradient id="linear-gradient-2" x1="8.58" y1="36.56" x2="25.5" y2="7.25" gradientUnits="userSpaceOnUse"><stop offset="0.02" stop-color="#666"/><stop offset="0.06" stop-color="#8c8c8c"/><stop offset="0.11" stop-color="#abaaab"/><stop offset="0.15" stop-color="#bebdbe"/><stop offset="0.18" stop-color="#c5c4c5"/><stop offset="0.5" stop-color="#f2f2f2"/><stop offset="0.78" stop-color="#c9c8c8"/><stop offset="1" stop-color="#4d4d4d"/></linearGradient><linearGradient id="linear-gradient-3" x1="9.15" y1="21.9" x2="24.93" y2="21.9" gradientUnits="userSpaceOnUse"><stop offset="0" stop-color="#a6a5a5"/><stop offset="0.11" stop-color="#d2d1d2"/><stop offset="0.18" stop-color="#c5c4c5"/><stop offset="0.29" stop-color="#979696"/><stop offset="0.33" stop-color="#919090"/><stop offset="0.78" stop-color="#c9c8c8"/><stop offset="0.85" stop-color="#fff"/><stop offset="1" stop-color="#797979"/></linearGradient><linearGradient id="linear-gradient-4" x1="27.84" y1="28.93" x2="4.54" y2="15.48" xlink:href="#linear-gradient"/><linearGradient id="linear-gradient-5" x1="26.29" y1="22.18" x2="8.47" y2="22.18" xlink:href="#linear-gradient"/><linearGradient id="linear-gradient-6" x1="27.54" y1="32.06" x2="7.22" y2="11.75" gradientUnits="userSpaceOnUse"><stop offset="0" stop-color="#ccc"/><stop offset="0.32" stop-color="#e6e6e6"/><stop offset="1" stop-color="#fff"/></linearGradient></defs><g class="cls-1"><g id="Layer_1" data-name="Layer 1"><path class="cls-2" d="M2.16,52.42a2.08,2.08,0,0,1-.92-.22,1.68,1.68,0,0,1-.68-.67,2.16,2.16,0,0,1-.26-1.1,2.19,2.19,0,0,1,.27-1.12,1.88,1.88,0,0,1,.7-.7,1.83,1.83,0,0,1,.92-.24,1.56,1.56,0,0,1,.69.16,1.84,1.84,0,0,1,.52.36l-.54.66a2.73,2.73,0,0,0-.3-.21.78.78,0,0,0-.35-.08.77.77,0,0,0-.6.3,1.3,1.3,0,0,0-.25.83,1.39,1.39,0,0,0,.23.85.75.75,0,0,0,.61.29.8.8,0,0,0,.41-.1,1.76,1.76,0,0,0,.3-.24l.54.65A1.61,1.61,0,0,1,2.16,52.42Z"/><path class="cls-2" d="M5.39,52.42a1.7,1.7,0,0,1-1.31-.54,2.14,2.14,0,0,1-.5-1.5,2.05,2.05,0,0,1,.5-1.48,1.72,1.72,0,0,1,1.31-.53,1.72,1.72,0,0,1,1.31.53,2,2,0,0,1,.5,1.48,2.09,2.09,0,0,1-.5,1.5A1.7,1.7,0,0,1,5.39,52.42Zm0-.89a.62.62,0,0,0,.55-.31,1.49,1.49,0,0,0,.21-.84,1.38,1.38,0,0,0-.21-.82.63.63,0,0,0-.55-.3.64.64,0,0,0-.55.3,1.38,1.38,0,0,0-.2.82,1.49,1.49,0,0,0,.2.84A.63.63,0,0,0,5.39,51.53Z"/><path class="cls-2" d="M7.9,52.35v-3.9H9l.86,1.74.37.87h0q0-.31-.09-.72a7.09,7.09,0,0,1-.05-.77V48.45h1v3.9H10L9.15,50.6l-.37-.87h0c0,.22.05.47.09.73a6.8,6.8,0,0,1,0,.76v1.13Z"/><path class="cls-2" d="M11.93,52.35v-3.9h1.15a2.22,2.22,0,0,1,1.45.45,1.8,1.8,0,0,1,.56,1.48,1.88,1.88,0,0,1-.55,1.5,2.1,2.1,0,0,1-1.4.47Zm1-.83H13a1.17,1.17,0,0,0,.72-.23,1.14,1.14,0,0,0,.29-.91,1.08,1.08,0,0,0-.29-.9,1.22,1.22,0,0,0-.72-.21H13Z"/><path class="cls-2" d="M15.78,52.35v-3.9H18.3v.86H16.82v.61h1.27v.87H16.82v.69h1.54v.87Z"/><path class="cls-2" d="M19.12,52.35v-3.9h1.06L21,50.19l.37.87h0q0-.31-.09-.72a7.09,7.09,0,0,1-.05-.77V48.45h1v3.9H21.23l-.86-1.75L20,49.73h0c0,.22.05.47.09.73a6.8,6.8,0,0,1,0,.76v1.13Z"/><path class="cls-2" d="M24.39,52.42a2.37,2.37,0,0,1-.77-.14,2.05,2.05,0,0,1-.71-.42l.59-.71a2.11,2.11,0,0,0,.45.28,1.16,1.16,0,0,0,.46.1c.3,0,.45-.09.45-.28a.21.21,0,0,0-.15-.2,2.93,2.93,0,0,0-.38-.17l-.49-.21a1.39,1.39,0,0,1-.55-.39,1,1,0,0,1-.23-.69,1.1,1.1,0,0,1,.4-.86,1.54,1.54,0,0,1,1.05-.36,2.1,2.1,0,0,1,.68.13,1.75,1.75,0,0,1,.61.4l-.51.64a2.47,2.47,0,0,0-.38-.21,1.34,1.34,0,0,0-.4-.07c-.27,0-.41.09-.41.27a.23.23,0,0,0,.16.21l.42.18.47.18a1.32,1.32,0,0,1,.56.4,1,1,0,0,1,.2.67,1.17,1.17,0,0,1-.39.87A1.59,1.59,0,0,1,24.39,52.42Z"/><path class="cls-2" d="M26.53,52.35v-3.9h2.53v.86H27.57v.61h1.27v.87H27.57v.69h1.54v.87Z"/><path class="cls-2" d="M30.9,52.35h-1v-3.9h1.48a2.35,2.35,0,0,1,.77.11,1.17,1.17,0,0,1,.57.39,1.15,1.15,0,0,1,.22.76,1.22,1.22,0,0,1-.18.69,1.1,1.1,0,0,1-.45.43l.84,1.52H32L31.3,51h-.4Zm0-2.13h.38c.41,0,.62-.17.62-.51a.36.36,0,0,0-.16-.35.85.85,0,0,0-.46-.1H30.9Z"/><path class="cls-2" d="M10.1,58.35v-3.9h1v3H12.6v.87Z"/><path class="cls-2" d="M13.28,58.35v-3.9H15.8v.86H14.31v.61h1.27v.87H14.31v.69h1.55v.87Z"/><path class="cls-2" d="M16.61,58.35v-3.9h1.06l.86,1.74.37.87h0c0-.21-.05-.45-.09-.72a7,7,0,0,1,0-.77V54.45h1v3.9H18.72l-.86-1.75-.37-.87h0c0,.22.06.47.09.73a6.91,6.91,0,0,1,.05.76v1.13Z"/><path class="cls-2" d="M21.88,58.42a2.42,2.42,0,0,1-.77-.14,2.05,2.05,0,0,1-.71-.42l.59-.71a2.11,2.11,0,0,0,.45.28,1.2,1.2,0,0,0,.46.1c.3,0,.45-.09.45-.28a.21.21,0,0,0-.14-.2l-.39-.17-.49-.21a1.39,1.39,0,0,1-.55-.39,1,1,0,0,1-.23-.69,1.08,1.08,0,0,1,.41-.86,1.51,1.51,0,0,1,1-.36,2.1,2.1,0,0,1,.68.13,1.79,1.79,0,0,1,.62.4l-.52.64a2.08,2.08,0,0,0-.38-.21,1.29,1.29,0,0,0-.4-.07c-.27,0-.41.09-.41.27a.23.23,0,0,0,.16.21l.42.18.47.18a1.36,1.36,0,0,1,.57.4,1.11,1.11,0,0,1,.19.67A1.17,1.17,0,0,1,23,58,1.59,1.59,0,0,1,21.88,58.42Z"/><path class="cls-3" d="M16.25.19c-4.92.11-8.86,10-8.8,22.18s4.09,21.91,9,21.8,8.86-10,8.8-22.19S21.17.08,16.25.19Zm.12,40.72c-4.12.09-7.49-8.35-7.54-18.86S12.07,3,16.18,2.87s7.49,8.36,7.54,18.86S20.48,40.82,16.37,40.91Z"/><ellipse class="cls-4" cx="17.04" cy="21.9" rx="7.7" ry="19.02"/><path class="cls-5" d="M16.09.21c-4.92.11-8.86,10-8.8,22.19s4.09,21.9,9,21.79A3.56,3.56,0,0,0,17.42,44c4.39-1.47,7.73-10.79,7.68-22C25,9.87,21,.11,16.09.21Zm1.3,40.71c-4.11.09-7.48-8.35-7.53-18.85S13.1,3,17.21,2.88s7.49,8.36,7.54,18.86S21.51,40.83,17.39,40.92Z"/><path class="cls-6" d="M17.27.19c-4.91.11-8.85,10-8.79,22.18s4.09,21.91,9,21.8,8.86-10,8.8-22.19S22.19.08,17.27.19Zm.12,40.72c-4.11.09-7.48-8.35-7.54-18.86S13.09,3,17.21,2.87s7.48,8.36,7.53,18.86S21.5,40.82,17.39,40.91Z"/><path class="cls-7" d="M24.75,22.45c-.11,8.49-3.06,18.21-7.19,18.47-4.3.28-7.71-9.81-7.7-19s3.4-19.28,7.7-19S24.85,13.5,24.75,22.45Z"/></g></g></svg>