<svg id="Layer_1" data-name="Layer 1" xmlns="http://www.w3.org/2000/svg" xmlns:xlink="http://www.w3.org/1999/xlink" viewBox="0 0 33.26 60.78"><defs><style>.cls-1{opacity:0.65;}.cls-2{opacity:0.61;fill:url(#linear-gradient);}.cls-3{opacity:0.51;fill:url(#linear-gradient-2);}.cls-4{fill:url(#linear-gradient-3);}.cls-5,.cls-8{stroke-miterlimit:10;stroke-width:0.38px;}.cls-5{opacity:0.43;fill:url(#linear-gradient-4);stroke:url(#linear-gradient-5);}.cls-6{fill:url(#linear-gradient-6);}.cls-7{fill:url(#linear-gradient-7);}.cls-8{opacity:0.42;fill:url(#linear-gradient-8);stroke:url(#linear-gradient-9);}.cls-9{fill:#8e8e8e;}</style><linearGradient id="linear-gradient" x1="26.23" y1="26.16" x2="5.81" y2="14.37" gradientUnits="userSpaceOnUse"><stop offset="0.02" stop-color="#666"/><stop offset="0.02" stop-color="#6e6e6e"/><stop offset="0.05" stop-color="#999899"/><stop offset="0.07" stop-color="#b8b7b8"/><stop offset="0.09" stop-color="#cbcacb"/><stop offset="0.11" stop-color="#d2d1d2"/><stop offset="0.18" stop-color="#c5c4c5"/><stop offset="0.29" stop-color="#979696"/><stop offset="0.33" stop-color="#919090"/><stop offset="0.5" stop-color="#f2f2f2"/><stop offset="0.78" stop-color="#c9c8c8"/><stop offset="0.85" stop-color="#fff"/><stop offset="1" stop-color="#4d4d4d"/></linearGradient><linearGradient id="linear-gradient-2" x1="17.09" y1="39.28" x2="17.09" y2="1.25" gradientUnits="userSpaceOnUse"><stop offset="0.02" stop-color="#666"/><stop offset="0.02" stop-color="#6e6e6e"/><stop offset="0.05" stop-color="#999899"/><stop offset="0.07" stop-color="#b8b7b8"/><stop offset="0.09" stop-color="#cbcacb"/><stop offset="0.11" stop-color="#d2d1d2"/><stop offset="0.18" stop-color="#c5c4c5"/><stop offset="0.29" stop-color="#979696"/><stop offset="0.36" stop-color="#919090"/><stop offset="0.59" stop-color="#c9c8c8"/><stop offset="0.85" stop-color="#f2f2f2"/><stop offset="1" stop-color="#4d4d4d"/></linearGradient><linearGradient id="linear-gradient-3" x1="25.1" y1="21.99" x2="7.29" y2="21.99" gradientUnits="userSpaceOnUse"><stop offset="0.02" stop-color="#666"/><stop offset="0.02" stop-color="#646464"/><stop offset="0.2" stop-color="#393939"/><stop offset="0.36" stop-color="#1a1a1a"/><stop offset="0.5" stop-color="#070707"/><stop offset="0.59"/><stop offset="1" stop-color="#4d4d4d"/></linearGradient><linearGradient id="linear-gradient-4" x1="8.43" y1="36.37" x2="25.35" y2="7.06" gradientUnits="userSpaceOnUse"><stop offset="0.02" stop-color="#666"/><stop offset="0.06" stop-color="#8c8c8c"/><stop offset="0.11" stop-color="#abaaab"/><stop offset="0.15" stop-color="#bebdbe"/><stop offset="0.18" stop-color="#c5c4c5"/><stop offset="0.5" stop-color="#f2f2f2"/><stop offset="0.78" stop-color="#c9c8c8"/><stop offset="1" stop-color="#4d4d4d"/></linearGradient><linearGradient id="linear-gradient-5" x1="9" y1="21.71" x2="24.78" y2="21.71" gradientUnits="userSpaceOnUse"><stop offset="0" stop-color="#a6a5a5"/><stop offset="0.11" stop-color="#d2d1d2"/><stop offset="0.18" stop-color="#c5c4c5"/><stop offset="0.29" stop-color="#979696"/><stop offset="0.33" stop-color="#919090"/><stop offset="0.78" stop-color="#c9c8c8"/><stop offset="0.85" stop-color="#fff"/><stop offset="1" stop-color="#797979"/></linearGradient><linearGradient id="linear-gradient-6" x1="27.69" y1="28.74" x2="4.39" y2="15.29" xlink:href="#linear-gradient-3"/><linearGradient id="linear-gradient-7" x1="26.13" y1="21.99" x2="8.32" y2="21.99" xlink:href="#linear-gradient-3"/><linearGradient id="linear-gradient-8" x1="27.38" y1="31.87" x2="7.07" y2="11.56" gradientUnits="userSpaceOnUse"><stop offset="0" stop-color="#4d4d4d"/><stop offset="0.22" stop-color="#c9c8c8"/><stop offset="0.5" stop-color="#f2f2f2"/><stop offset="0.67" stop-color="#919090"/><stop offset="0.71" stop-color="#979696"/><stop offset="0.82" stop-color="#c5c4c5"/><stop offset="0.85" stop-color="#bebdbe"/><stop offset="0.89" stop-color="#abaaab"/><stop offset="0.94" stop-color="#8c8c8c"/><stop offset="0.98" stop-color="#666"/></linearGradient><linearGradient id="linear-gradient-9" x1="9.51" y1="21.71" x2="24.78" y2="21.71" xlink:href="#linear-gradient-5"/></defs><path d="M3.08,52.35v-3.9H4.49a2.54,2.54,0,0,1,1,.19.77.77,0,0,1,.43.78,1,1,0,0,1-.13.5.7.7,0,0,1-.36.34v0a1,1,0,0,1,.47.31.84.84,0,0,1,.2.6,1,1,0,0,1-.45.88,2.06,2.06,0,0,1-1.08.28Zm1-2.38h.35c.33,0,.49-.13.49-.4s-.16-.33-.49-.33H4.11Zm0,1.58h.42c.4,0,.6-.14.6-.43s-.2-.39-.6-.39H4.11Z"/><path d="M6.75,52.35v-3.9H9.27v.86H7.79v.61H9.06v.87H7.79v.69H9.33v.87Z"/><path d="M12.13,52.35l-.19-.83H10.85l-.2.83H9.6l1.19-3.9H12l1.19,3.9Zm-1-1.9-.07.27h.72l-.06-.27c0-.18-.1-.39-.15-.61s-.09-.43-.14-.63h0c0,.2-.08.41-.13.63S11.15,50.27,11.1,50.45Z"/><path d="M13.59,52.35v-3.9H14.7L15.29,50c0,.11.07.22.1.34s.06.23.1.35h0l.11-.35a3.37,3.37,0,0,1,.1-.34l.56-1.59h1.1v3.9h-.93V51.19a4.68,4.68,0,0,1,.05-.7c0-.26.06-.49.08-.69h0l-.33.94L15.75,52H15.2l-.48-1.29-.31-.94h0q0,.3.09.69a6.55,6.55,0,0,1,0,.7v1.16Z"/><path d="M19.45,52.35v-3.9H22v.86H20.48v.61h1.27v.87H20.48v.69H22v.87Z"/><path d="M22.41,52.35l1.06-2-1-1.89h1.16l.26.63.13.3.14.35h0c0-.13.08-.25.12-.35l.12-.3.23-.63h1.1l-1,1.94,1.05,2H24.67l-.31-.7c-.05-.1-.1-.21-.14-.31s-.09-.22-.14-.34h0a3.42,3.42,0,0,1-.13.34l-.12.31-.29.7Z"/><path d="M26.31,52.35v-3.9h1.43a2.47,2.47,0,0,1,.79.12,1.19,1.19,0,0,1,.58.4,1.26,1.26,0,0,1,.22.77,1.33,1.33,0,0,1-.22.78,1.36,1.36,0,0,1-.58.45,2.14,2.14,0,0,1-.76.14h-.42v1.24Zm1-2.06h.37c.4,0,.6-.18.6-.55a.43.43,0,0,0-.16-.37.88.88,0,0,0-.47-.11h-.34Z"/><path d="M29.65,52.42a.55.55,0,0,1-.43-.18.64.64,0,0,1-.17-.45.64.64,0,0,1,.17-.44.6.6,0,0,1,.86,0,.64.64,0,0,1,.17.44.64.64,0,0,1-.17.45A.55.55,0,0,1,29.65,52.42Z"/><path d="M10.09,58.35v-3.9h1v3H12.6v.87Z"/><path d="M13.27,58.35v-3.9h2.52v.86H14.31v.61h1.27v.87H14.31v.69h1.54v.87Z"/><path d="M16.61,58.35v-3.9h1.06l.86,1.74.37.87h0q0-.31-.09-.72a7.09,7.09,0,0,1-.05-.77V54.45h1v3.9H18.72l-.86-1.75-.37-.87h0c0,.22.05.47.09.73a6.8,6.8,0,0,1,0,.76v1.13Z"/><path d="M21.88,58.42a2.37,2.37,0,0,1-.77-.14,2.05,2.05,0,0,1-.71-.42l.59-.71a2.6,2.6,0,0,0,.45.28,1.36,1.36,0,0,0,.46.1c.3,0,.45-.09.45-.28a.21.21,0,0,0-.14-.2l-.39-.17-.49-.21a1.39,1.39,0,0,1-.55-.39,1,1,0,0,1-.23-.69,1.1,1.1,0,0,1,.4-.86A1.56,1.56,0,0,1,22,54.37a2.1,2.1,0,0,1,.68.13,1.66,1.66,0,0,1,.61.4l-.51.64a2.08,2.08,0,0,0-.38-.21,1.29,1.29,0,0,0-.4-.07c-.27,0-.41.09-.41.27a.23.23,0,0,0,.16.21l.42.18.47.18a1.32,1.32,0,0,1,.56.4,1,1,0,0,1,.2.67A1.17,1.17,0,0,1,23,58,1.59,1.59,0,0,1,21.88,58.42Z"/><g class="cls-1"><ellipse class="cls-2" cx="16.02" cy="20.27" rx="8.04" ry="19.02"/><ellipse class="cls-3" cx="17.09" cy="20.27" rx="8.04" ry="19.02"/></g><path class="cls-4" d="M16.09,0c-4.92.11-8.86,10-8.8,22.19s4.1,21.9,9,21.79,8.86-10,8.8-22.18S21-.11,16.09,0Zm.12,40.72c-4.11.09-7.49-8.35-7.54-18.85S11.91,2.78,16,2.69,23.51,11,23.56,21.54,20.32,40.63,16.21,40.72Z"/><ellipse class="cls-5" cx="16.89" cy="21.71" rx="7.7" ry="19.02"/><path class="cls-6" d="M15.93,0c-4.92.1-8.86,10-8.8,22.18s4.09,21.9,9,21.8a4,4,0,0,0,1.13-.2c4.38-1.46,7.73-10.78,7.67-22C24.88,9.68,20.85-.08,15.93,0Zm1.31,40.7c-4.12.09-7.49-8.35-7.54-18.85S12.94,2.79,17.05,2.7s7.49,8.35,7.54,18.85S21.35,40.64,17.24,40.73Z"/><path class="cls-7" d="M17.12,0C12.2.11,8.26,10,8.32,22.19s4.09,21.9,9,21.79,8.86-10,8.8-22.18S22-.11,17.12,0Zm.11,40.72c-4.11.09-7.48-8.35-7.53-18.85S12.94,2.78,17.05,2.69,24.54,11,24.59,21.54,21.35,40.63,17.23,40.72Z"/><path class="cls-8" d="M24.59,22.26c-.1,8.49-3.06,18.21-7.19,18.47-4.29.28-7.7-9.81-7.7-19s3.41-19.28,7.7-19S24.7,13.32,24.59,22.26Z"/><path class="cls-9" d="M3.08,52.33v-3.9H4.49a2.54,2.54,0,0,1,1,.2A.76.76,0,0,1,6,49.4a1,1,0,0,1-.13.5.7.7,0,0,1-.36.34v0a1,1,0,0,1,.47.3.85.85,0,0,1,.2.61.94.94,0,0,1-.45.87,2,2,0,0,1-1.08.28Zm1-2.38h.35c.33,0,.49-.13.49-.39s-.16-.34-.49-.34H4.11Zm0,1.59h.42c.4,0,.6-.15.6-.43s-.2-.4-.6-.4H4.11Z"/><path class="cls-9" d="M6.75,52.33v-3.9H9.27v.86H7.79v.62H9.06v.86H7.79v.7H9.33v.86Z"/><path class="cls-9" d="M12.13,52.33l-.19-.83H10.85l-.2.83H9.6l1.19-3.9H12l1.19,3.9Zm-1-1.9L11,50.7h.72l-.06-.27q-.07-.27-.15-.6c0-.23-.09-.44-.14-.63h0c0,.2-.08.41-.13.63S11.15,50.25,11.1,50.43Z"/><path class="cls-9" d="M13.59,52.33v-3.9H14.7l.59,1.6c0,.1.07.22.1.34s.06.23.1.34h0c0-.11.07-.23.11-.34a2.75,2.75,0,0,1,.1-.34l.56-1.6h1.11v3.9h-.94V51.18a6.38,6.38,0,0,1,.05-.7c0-.27.06-.5.08-.69h0l-.33.93L15.75,52H15.2l-.48-1.29-.31-.93h0c0,.19,0,.42.08.69a6.38,6.38,0,0,1,0,.7v1.15Z"/><path class="cls-9" d="M19.45,52.33v-3.9H22v.86H20.48v.62h1.27v.86H20.48v.7H22v.86Z"/><path class="cls-9" d="M22.41,52.33l1.06-2-1-1.9h1.16l.26.64.13.29a3.35,3.35,0,0,0,.15.35h0l.12-.35a2.85,2.85,0,0,1,.12-.29l.23-.64h1.1l-1,1.94,1.05,2H24.67l-.31-.7a2.92,2.92,0,0,1-.14-.31L24.08,51h0a2.52,2.52,0,0,1-.13.33l-.12.31-.29.7Z"/><path class="cls-9" d="M26.31,52.33v-3.9h1.43a2.47,2.47,0,0,1,.79.12,1.19,1.19,0,0,1,.58.4,1.29,1.29,0,0,1,.22.78,1.21,1.21,0,0,1-.8,1.22,1.94,1.94,0,0,1-.76.14h-.42v1.24Zm1-2h.37c.4,0,.6-.19.6-.55a.45.45,0,0,0-.16-.38.89.89,0,0,0-.47-.1h-.34Z"/><path class="cls-9" d="M29.65,52.4a.55.55,0,0,1-.43-.18.64.64,0,0,1-.17-.44.64.64,0,0,1,.17-.45.6.6,0,0,1,.86,0,.64.64,0,0,1,.17.45.64.64,0,0,1-.17.44A.55.55,0,0,1,29.65,52.4Z"/><path class="cls-9" d="M10.1,58.33v-3.9h1v3H12.6v.86Z"/><path class="cls-9" d="M13.27,58.33v-3.9H15.8v.86H14.31v.62h1.27v.86H14.31v.7h1.54v.86Z"/><path class="cls-9" d="M16.61,58.33v-3.9h1.06l.86,1.74.37.88h0c0-.21-.05-.45-.09-.72a7.1,7.1,0,0,1,0-.77V54.43h1v3.9H18.72l-.86-1.75-.37-.87h0c0,.23.06.47.09.74a6.59,6.59,0,0,1,.05.75v1.13Z"/><path class="cls-9" d="M21.88,58.4a2.17,2.17,0,0,1-.77-.14,2.05,2.05,0,0,1-.71-.42l.59-.7a2.07,2.07,0,0,0,.45.27,1.16,1.16,0,0,0,.46.1q.45,0,.45-.27a.24.24,0,0,0-.14-.21l-.39-.17-.49-.2a1.53,1.53,0,0,1-.55-.4,1,1,0,0,1-.23-.69,1.09,1.09,0,0,1,.41-.86,1.56,1.56,0,0,1,1-.35,1.86,1.86,0,0,1,.68.13,1.63,1.63,0,0,1,.62.39l-.52.65a2.08,2.08,0,0,0-.38-.21,1.05,1.05,0,0,0-.4-.07c-.27,0-.41.08-.41.26a.23.23,0,0,0,.16.21l.42.18.47.19a1.28,1.28,0,0,1,.57.4,1.05,1.05,0,0,1,.19.66A1.17,1.17,0,0,1,23,58,1.55,1.55,0,0,1,21.88,58.4Z"/></svg>