<svg id="Layer_1" data-name="Layer 1" xmlns="http://www.w3.org/2000/svg" xmlns:xlink="http://www.w3.org/1999/xlink" viewBox="0 0 33.26 60.78"><defs><style>.cls-1{fill:#fff;}.cls-2{opacity:0.65;}.cls-3{opacity:0.61;fill:url(#linear-gradient);}.cls-4{opacity:0.51;fill:url(#linear-gradient-2);}.cls-5{fill:url(#linear-gradient-3);}.cls-6,.cls-9{stroke-miterlimit:10;stroke-width:0.38px;}.cls-6{opacity:0.43;fill:url(#linear-gradient-4);stroke:url(#linear-gradient-5);}.cls-7{fill:url(#linear-gradient-6);}.cls-8{fill:url(#linear-gradient-7);}.cls-9{opacity:0.42;fill:url(#linear-gradient-8);stroke:url(#linear-gradient-9);}</style><linearGradient id="linear-gradient" x1="26.23" y1="26.16" x2="5.81" y2="14.37" gradientUnits="userSpaceOnUse"><stop offset="0.02" stop-color="#666"/><stop offset="0.02" stop-color="#6e6e6e"/><stop offset="0.05" stop-color="#999899"/><stop offset="0.07" stop-color="#b8b7b8"/><stop offset="0.09" stop-color="#cbcacb"/><stop offset="0.11" stop-color="#d2d1d2"/><stop offset="0.18" stop-color="#c5c4c5"/><stop offset="0.29" stop-color="#979696"/><stop offset="0.33" stop-color="#919090"/><stop offset="0.5" stop-color="#f2f2f2"/><stop offset="0.78" stop-color="#c9c8c8"/><stop offset="0.85" stop-color="#fff"/><stop offset="1" stop-color="#4d4d4d"/></linearGradient><linearGradient id="linear-gradient-2" x1="17.09" y1="39.28" x2="17.09" y2="1.25" gradientUnits="userSpaceOnUse"><stop offset="0.02" stop-color="#666"/><stop offset="0.02" stop-color="#6e6e6e"/><stop offset="0.05" stop-color="#999899"/><stop offset="0.07" stop-color="#b8b7b8"/><stop offset="0.09" stop-color="#cbcacb"/><stop offset="0.11" stop-color="#d2d1d2"/><stop offset="0.18" stop-color="#c5c4c5"/><stop offset="0.29" stop-color="#979696"/><stop offset="0.36" stop-color="#919090"/><stop offset="0.59" stop-color="#c9c8c8"/><stop offset="0.85" stop-color="#f2f2f2"/><stop offset="1" stop-color="#4d4d4d"/></linearGradient><linearGradient id="linear-gradient-3" x1="25.1" y1="21.99" x2="7.29" y2="21.99" gradientUnits="userSpaceOnUse"><stop offset="0.02" stop-color="#666"/><stop offset="0.02" stop-color="#646464"/><stop offset="0.2" stop-color="#393939"/><stop offset="0.36" stop-color="#1a1a1a"/><stop offset="0.5" stop-color="#070707"/><stop offset="0.59"/><stop offset="1" stop-color="#4d4d4d"/></linearGradient><linearGradient id="linear-gradient-4" x1="8.43" y1="36.37" x2="25.35" y2="7.06" gradientUnits="userSpaceOnUse"><stop offset="0.02" stop-color="#666"/><stop offset="0.06" stop-color="#8c8c8c"/><stop offset="0.11" stop-color="#abaaab"/><stop offset="0.15" stop-color="#bebdbe"/><stop offset="0.18" stop-color="#c5c4c5"/><stop offset="0.5" stop-color="#f2f2f2"/><stop offset="0.78" stop-color="#c9c8c8"/><stop offset="1" stop-color="#4d4d4d"/></linearGradient><linearGradient id="linear-gradient-5" x1="9" y1="21.71" x2="24.78" y2="21.71" gradientUnits="userSpaceOnUse"><stop offset="0" stop-color="#a6a5a5"/><stop offset="0.11" stop-color="#d2d1d2"/><stop offset="0.18" stop-color="#c5c4c5"/><stop offset="0.29" stop-color="#979696"/><stop offset="0.33" stop-color="#919090"/><stop offset="0.78" stop-color="#c9c8c8"/><stop offset="0.85" stop-color="#fff"/><stop offset="1" stop-color="#797979"/></linearGradient><linearGradient id="linear-gradient-6" x1="27.69" y1="28.74" x2="4.39" y2="15.29" xlink:href="#linear-gradient-3"/><linearGradient id="linear-gradient-7" x1="26.13" y1="21.99" x2="8.32" y2="21.99" xlink:href="#linear-gradient-3"/><linearGradient id="linear-gradient-8" x1="27.38" y1="31.87" x2="7.07" y2="11.56" gradientUnits="userSpaceOnUse"><stop offset="0" stop-color="#4d4d4d"/><stop offset="0.22" stop-color="#c9c8c8"/><stop offset="0.5" stop-color="#f2f2f2"/><stop offset="0.67" stop-color="#919090"/><stop offset="0.71" stop-color="#979696"/><stop offset="0.82" stop-color="#c5c4c5"/><stop offset="0.85" stop-color="#bebdbe"/><stop offset="0.89" stop-color="#abaaab"/><stop offset="0.94" stop-color="#8c8c8c"/><stop offset="0.98" stop-color="#666"/></linearGradient><linearGradient id="linear-gradient-9" x1="9.51" y1="21.71" x2="24.78" y2="21.71" xlink:href="#linear-gradient-5"/></defs><path d="M3,52.45v-4.1H4.49a2.7,2.7,0,0,1,1.08.2.86.86,0,0,1,.49.87,1.25,1.25,0,0,1-.14.55,1.16,1.16,0,0,1-.24.29,1.19,1.19,0,0,1,.34.26,1,1,0,0,1,.22.67,1.07,1.07,0,0,1-.5,1,2.18,2.18,0,0,1-1.13.29Zm1.55-1c.5,0,.5-.24.5-.33s0-.29-.5-.29H4.21v.62Zm-.07-1.58c.35,0,.39-.15.39-.3s0-.23-.39-.23H4.21v.53Z"/><path class="cls-1" d="M4.49,48.45a2.54,2.54,0,0,1,1,.19.77.77,0,0,1,.43.78,1,1,0,0,1-.13.5.7.7,0,0,1-.36.34v0a1,1,0,0,1,.47.31.84.84,0,0,1,.2.6,1,1,0,0,1-.45.88,2.06,2.06,0,0,1-1.08.28H3.08v-3.9H4.49M4.11,50h.35c.33,0,.49-.13.49-.4s-.16-.33-.49-.33H4.11V50m0,1.58h.42c.4,0,.6-.14.6-.43s-.2-.39-.6-.39H4.11v.82m.38-3.3H2.88v4.3H4.61a2.25,2.25,0,0,0,1.18-.31,1.13,1.13,0,0,0,.55-1.05,1.07,1.07,0,0,0-.25-.74,1,1,0,0,0-.25-.21A.81.81,0,0,0,6,50a1.26,1.26,0,0,0,.15-.59,1,1,0,0,0-.55-1,2.73,2.73,0,0,0-1.12-.21Zm-.18,1.19h.15c.29,0,.29.09.29.13s0,.2-.29.2H4.31v-.33Zm0,1.49h.22c.4,0,.4.13.4.19s0,.23-.4.23H4.31v-.42Z"/><polygon points="6.65 52.45 6.65 48.35 9.37 48.35 9.37 49.41 7.88 49.41 7.88 49.82 9.16 49.82 9.16 50.89 7.88 50.89 7.88 51.38 9.43 51.38 9.43 52.45 6.65 52.45"/><path class="cls-1" d="M9.27,48.45v.86H7.79v.61H9.06v.87H7.79v.69H9.33v.87H6.75v-3.9H9.27m.2-.2H6.55v4.3h3V51.28H8V51H9.26V49.72H8v-.21H9.47V48.25Z"/><path d="M12.05,52.45l-.19-.83h-.94l-.19.83H9.46l1.25-4.1h1.4l1.25,4.1Zm-.43-1.83,0-.15c-.05-.18-.1-.38-.15-.61a2,2,0,0,0,0-.24l-.05.25c-.05.22-.1.42-.15.61l0,.14Z"/><path class="cls-1" d="M12,48.45l1.19,3.9H12.13l-.19-.83H10.85l-.2.83H9.6l1.19-3.9H12m-1,2.27h.72l-.06-.27c0-.18-.1-.39-.15-.61s-.09-.43-.14-.63h0c0,.2-.08.41-.13.63s-.09.43-.14.61l-.07.27m1.15-2.47H10.64l-.05.14-1.18,3.9-.08.26h1.48l0-.16.15-.67h.78l.15.67,0,.16h1.52l-.08-.26-1.19-3.9,0-.14Zm-.89,2.27v0c0-.13.07-.27.1-.41,0,.15.07.28.1.41v0Z"/><path d="M16.35,52.45V51.19a5.06,5.06,0,0,1,0-.63l-.06.21-.51,1.36h-.69l-.5-1.36,0-.12q0,.3,0,.54v1.26H13.49v-4.1h1.28L15.38,50a3.57,3.57,0,0,1,.1.35l0,.06,0-.07a3.37,3.37,0,0,1,.1-.34l.59-1.66h1.27v4.1Z"/><path class="cls-1" d="M17.38,48.45v3.9h-.93V51.19a4.68,4.68,0,0,1,.05-.7c0-.26.06-.49.08-.69h0l-.33.94L15.75,52H15.2l-.48-1.29-.31-.94h0q0,.3.09.69a6.55,6.55,0,0,1,0,.7v1.16h-.93v-3.9H14.7L15.29,50c0,.11.07.22.1.34s.06.23.1.35h0l.11-.35a3.37,3.37,0,0,1,.1-.34l.56-1.59h1.1m.2-.2H16.14l-.05.13L15.53,50l0,.09,0-.08-.59-1.6,0-.13H13.39v4.3h1.33V51.3l.29.8.05.13h.83l0-.13.31-.83v1.28h1.33v-4.3Z"/><polygon points="19.35 52.45 19.35 48.35 22.07 48.35 22.07 49.41 20.58 49.41 20.58 49.82 21.85 49.82 21.85 50.89 20.58 50.89 20.58 51.38 22.13 51.38 22.13 52.45 19.35 52.45"/><path class="cls-1" d="M22,48.45v.86H20.48v.61h1.27v.87H20.48v.69H22v.87H19.45v-3.9H22m.2-.2H19.25v4.3h3V51.28H20.68V51H22V49.72H20.68v-.21h1.49V48.25Z"/><path d="M24.61,52.45s-.44-1-.48-1.07l-.06-.13s-.13.33-.17.44l-.32.76H22.25l1.13-2.15-1-1.81-.07-.14h1.38l.48,1.13a1.21,1.21,0,0,1,0-.14l.12-.3.25-.69h1.34l-1.08,2.09,1.14,2Z"/><path class="cls-1" d="M25.76,48.45l-1,1.94,1.05,2H24.67l-.31-.7c-.05-.1-.1-.21-.14-.31s-.09-.22-.14-.34h0a3.42,3.42,0,0,1-.13.34l-.12.31-.29.7H22.41l1.06-2-1-1.89h1.16l.26.63.13.3.14.35h0c0-.13.08-.25.12-.35l.12-.3.23-.63h1.1m.33-.2H24.52l-.05.13-.23.63-.08.2L24.07,49l-.26-.63,0-.12H22.14l.16.29.94,1.8-1,1.91-.16.3h1.57l.05-.13.29-.69.09-.22a1.47,1.47,0,0,0,.1.22l.31.7.05.12h1.62l-.16-.3-1-1.86,1-1.85.15-.29Z"/><path d="M26.21,52.45v-4.1h1.53a2.66,2.66,0,0,1,.82.12,1.29,1.29,0,0,1,.63.44,1.36,1.36,0,0,1,.24.83,1.39,1.39,0,0,1-.24.84,1.55,1.55,0,0,1-.62.48,2.15,2.15,0,0,1-.8.15h-.32v1.24Zm1.51-2.26c.34,0,.5-.14.5-.45a.33.33,0,0,0-.12-.29.76.76,0,0,0-.41-.09h-.24v.83Z"/><path class="cls-1" d="M27.74,48.45a2.47,2.47,0,0,1,.79.12,1.19,1.19,0,0,1,.58.4,1.26,1.26,0,0,1,.22.77,1.33,1.33,0,0,1-.22.78,1.36,1.36,0,0,1-.58.45,2.14,2.14,0,0,1-.76.14h-.42v1.24h-1v-3.9h1.43m-.39,1.84h.37c.4,0,.6-.18.6-.55a.43.43,0,0,0-.16-.37.88.88,0,0,0-.47-.11h-.34v1m.39-2H26.11v4.3h1.44V51.31h.22a2.2,2.2,0,0,0,.84-.16,1.51,1.51,0,0,0,.66-.51,1.5,1.5,0,0,0,.26-.9,1.37,1.37,0,0,0-.27-.89,1.31,1.31,0,0,0-.67-.47,2.57,2.57,0,0,0-.85-.13Zm-.19,1.21h.14a.69.69,0,0,1,.36.08s.07,0,.07.2-.07.35-.4.35h-.17v-.63Z"/><path d="M29.65,52.52a.66.66,0,0,1-.51-.21.79.79,0,0,1,0-1,.66.66,0,0,1,.51-.21.66.66,0,0,1,.5.21.76.76,0,0,1,0,1A.66.66,0,0,1,29.65,52.52Z"/><path class="cls-1" d="M29.65,51.17a.55.55,0,0,1,.43.18.64.64,0,0,1,.17.44.64.64,0,0,1-.17.45.6.6,0,0,1-.86,0,.64.64,0,0,1-.17-.45.64.64,0,0,1,.17-.44.55.55,0,0,1,.43-.18m0-.2a.77.77,0,0,0-.58.24.82.82,0,0,0-.22.58.79.79,0,0,0,.22.58.8.8,0,0,0,1.16,0,.83.83,0,0,0,.22-.58.87.87,0,0,0-.22-.58.77.77,0,0,0-.58-.24Z"/><polygon points="9.99 58.45 9.99 54.35 11.23 54.35 11.23 57.38 12.7 57.38 12.7 58.45 9.99 58.45"/><path class="cls-1" d="M11.13,54.45v3H12.6v.87H10.09v-3.9h1m.2-.2H9.89v4.3H12.8V57.28H11.33v-3Z"/><polygon points="13.18 58.45 13.18 54.35 15.89 54.35 15.89 55.41 14.41 55.41 14.41 55.82 15.68 55.82 15.68 56.89 14.41 56.89 14.41 57.38 15.95 57.38 15.95 58.45 13.18 58.45"/><path class="cls-1" d="M15.79,54.45v.86H14.31v.61h1.27v.87H14.31v.69h1.54v.87H13.27v-3.9h2.52m.2-.2H13.07v4.3h3V57.28H14.51V57h1.27V55.72H14.51v-.21H16V54.25Z"/><path d="M18.66,58.45l-.89-1.81-.14-.32s0,.09,0,.13a6.85,6.85,0,0,1,0,.77v1.23H16.51v-4.1h1.22l.89,1.79.14.32,0-.11a7,7,0,0,1,0-.78V54.35h1.18v4.1Z"/><path class="cls-1" d="M19.78,54.45v3.9H18.72l-.86-1.75-.37-.87h0c0,.22.05.47.09.73a6.8,6.8,0,0,1,0,.76v1.13h-1v-3.9h1.06l.86,1.74.37.87h0q0-.31-.09-.72a7.09,7.09,0,0,1-.05-.77V54.45h1m.2-.2H18.59v1.32c0,.1,0,.21,0,.31l-.75-1.52-.06-.11H16.41v4.3h1.38V56.9l.75,1.53.06.12H20v-4.3Z"/><path d="M21.88,58.52a2.31,2.31,0,0,1-.8-.15,1.92,1.92,0,0,1-.74-.44l-.07-.06L21,57l.07.06a1.59,1.59,0,0,0,.43.26,1,1,0,0,0,.42.1c.35,0,.35-.13.35-.18s0-.08-.09-.11L21.78,57l-.49-.21a1.4,1.4,0,0,1-.58-.42,1.07,1.07,0,0,1-.26-.75,1.2,1.2,0,0,1,.44-.93A1.6,1.6,0,0,1,22,54.27a2,2,0,0,1,.71.14,1.88,1.88,0,0,1,.66.41l.06.07-.63.79-.08,0a1.3,1.3,0,0,0-.36-.2.86.86,0,0,0-.36-.07c-.31,0-.31.12-.31.17s0,.08.1.12a3.69,3.69,0,0,0,.41.17l.48.19a1.37,1.37,0,0,1,.6.43,1.15,1.15,0,0,1,.22.73,1.28,1.28,0,0,1-.42.94A1.69,1.69,0,0,1,21.88,58.52Z"/><path class="cls-1" d="M22,54.37a2.1,2.1,0,0,1,.68.13,1.66,1.66,0,0,1,.61.4l-.51.64a2.08,2.08,0,0,0-.38-.21,1.29,1.29,0,0,0-.4-.07c-.27,0-.41.09-.41.27a.23.23,0,0,0,.16.21l.42.18.47.18a1.32,1.32,0,0,1,.56.4,1,1,0,0,1,.2.67A1.17,1.17,0,0,1,23,58a1.59,1.59,0,0,1-1.13.38,2.37,2.37,0,0,1-.77-.14,2.05,2.05,0,0,1-.71-.42l.59-.71a2.6,2.6,0,0,0,.45.28,1.36,1.36,0,0,0,.46.1c.3,0,.45-.09.45-.28a.21.21,0,0,0-.14-.2l-.39-.17-.49-.21a1.39,1.39,0,0,1-.55-.39,1,1,0,0,1-.23-.69,1.1,1.1,0,0,1,.4-.86A1.56,1.56,0,0,1,22,54.37m0-.2a1.75,1.75,0,0,0-1.18.41,1.32,1.32,0,0,0-.47,1,1.22,1.22,0,0,0,.28.82,1.74,1.74,0,0,0,.63.45l.48.2.38.17c0,.09-.13.1-.22.1a1,1,0,0,1-.38-.09,1.47,1.47,0,0,1-.4-.24L21,56.87l-.12.15-.59.71-.12.15.14.13a2.37,2.37,0,0,0,.78.46,2.47,2.47,0,0,0,.83.15,1.74,1.74,0,0,0,1.26-.44,1.34,1.34,0,0,0,.46-1,1.26,1.26,0,0,0-.24-.79,1.38,1.38,0,0,0-.65-.46l-.47-.19-.41-.17,0,0c0-.06.13-.07.21-.07a.79.79,0,0,1,.32.06,1.45,1.45,0,0,1,.34.19l.16.11.12-.15.51-.65.11-.14-.13-.13a1.79,1.79,0,0,0-.68-.43,2,2,0,0,0-.75-.15Z"/><g class="cls-2"><ellipse class="cls-3" cx="16.02" cy="20.27" rx="8.04" ry="19.02"/><ellipse class="cls-4" cx="17.09" cy="20.27" rx="8.04" ry="19.02"/></g><path class="cls-5" d="M16.09,0c-4.92.11-8.86,10-8.8,22.19s4.1,21.9,9,21.79,8.86-10,8.8-22.18S21-.11,16.09,0Zm.12,40.72c-4.11.09-7.49-8.35-7.54-18.85S11.91,2.78,16,2.69,23.51,11,23.56,21.54,20.32,40.63,16.21,40.72Z"/><ellipse class="cls-6" cx="16.89" cy="21.71" rx="7.7" ry="19.02"/><path class="cls-7" d="M15.93,0c-4.92.1-8.86,10-8.8,22.18s4.09,21.9,9,21.8a4,4,0,0,0,1.13-.2c4.38-1.46,7.73-10.78,7.67-22C24.88,9.68,20.85-.08,15.93,0Zm1.31,40.7c-4.12.09-7.49-8.35-7.54-18.85S12.94,2.79,17.05,2.7s7.49,8.35,7.54,18.85S21.35,40.64,17.24,40.73Z"/><path class="cls-8" d="M17.12,0C12.2.11,8.26,10,8.32,22.19s4.09,21.9,9,21.79,8.86-10,8.8-22.18S22-.11,17.12,0Zm.11,40.72c-4.11.09-7.48-8.35-7.53-18.85S12.94,2.78,17.05,2.69,24.54,11,24.59,21.54,21.35,40.63,17.23,40.72Z"/><path class="cls-9" d="M24.59,22.26c-.1,8.49-3.06,18.21-7.19,18.47-4.29.28-7.7-9.81-7.7-19s3.41-19.28,7.7-19S24.7,13.32,24.59,22.26Z"/><path d="M3,52.43v-4.1H4.49a2.54,2.54,0,0,1,1.08.21.85.85,0,0,1,.49.86,1.21,1.21,0,0,1-.14.55,1,1,0,0,1-.24.29,1.23,1.23,0,0,1,.34.27,1,1,0,0,1,.22.67,1.05,1.05,0,0,1-.5,1,2.16,2.16,0,0,1-1.13.29Zm1.55-1c.51,0,.51-.24.51-.33s0-.3-.51-.3H4.21v.63Zm-.07-1.59c.35,0,.39-.15.39-.29s0-.24-.39-.24H4.21v.53Z"/><path class="cls-1" d="M4.49,48.43a2.54,2.54,0,0,1,1,.2A.76.76,0,0,1,6,49.4a1,1,0,0,1-.13.5.7.7,0,0,1-.36.34v0a1,1,0,0,1,.47.3.85.85,0,0,1,.2.61.94.94,0,0,1-.45.87,2,2,0,0,1-1.08.28H3.08v-3.9H4.49M4.11,50h.35c.33,0,.49-.13.49-.39s-.16-.34-.49-.34H4.11V50m0,1.59h.42c.4,0,.6-.15.6-.43s-.2-.4-.6-.4H4.11v.83m.38-3.31H2.88v4.3H4.61a2.16,2.16,0,0,0,1.18-.31,1.12,1.12,0,0,0,.55-1,1,1,0,0,0-.25-.74,1,1,0,0,0-.24-.22A1.25,1.25,0,0,0,6,50a1.33,1.33,0,0,0,.15-.6,1,1,0,0,0-.55-.95,2.57,2.57,0,0,0-1.12-.22Zm-.18,1.19h.15c.29,0,.29.09.29.14s0,.19-.29.19H4.31v-.33Zm0,1.49h.22c.4,0,.4.13.4.2s0,.23-.4.23H4.31v-.43Z"/><polygon points="6.65 52.43 6.65 48.33 9.37 48.33 9.37 49.39 7.89 49.39 7.89 49.81 9.16 49.81 9.16 50.87 7.89 50.87 7.89 51.37 9.43 51.37 9.43 52.43 6.65 52.43"/><path class="cls-1" d="M9.27,48.43v.86H7.79v.62H9.06v.86H7.79v.7H9.33v.86H6.75v-3.9H9.27m.2-.2H6.55v4.3h3V51.27H8V51H9.26V49.71H8v-.22H9.47V48.23Z"/><path d="M12.05,52.43l-.19-.83h-.93l-.2.83H9.46l1.25-4.1h1.4l1.25,4.1Zm-.43-1.83,0-.14c-.05-.19-.1-.39-.15-.61a1.84,1.84,0,0,0,0-.25l-.05.25c-.05.22-.1.42-.14.61l0,.14Z"/><path class="cls-1" d="M12,48.43l1.19,3.9H12.13l-.19-.83H10.85l-.2.83H9.6l1.19-3.9H12M11,50.7h.72l-.06-.27q-.07-.27-.15-.6c0-.23-.09-.44-.14-.63h0c0,.2-.08.41-.13.63s-.09.42-.14.6L11,50.7m1.15-2.47H10.64l-.05.14-1.18,3.9-.08.26h1.48l0-.15L11,51.7h.77l.15.67,0,.16h1.52l-.08-.26-1.19-3.9,0-.14Zm-.89,2.27v0a4.11,4.11,0,0,0,.1-.41c0,.15.07.29.1.41v0Z"/><path d="M16.35,52.43V51.18a4.84,4.84,0,0,1,0-.63l-.06.2-.51,1.36h-.69l-.5-1.35,0-.12q0,.3,0,.54v1.25H13.49v-4.1h1.28L15.38,50a3.57,3.57,0,0,1,.1.35l0,.06,0-.06c0-.12.07-.24.1-.35l.59-1.66h1.28v4.1Z"/><path class="cls-1" d="M17.39,48.43v3.9h-.94V51.18a6.38,6.38,0,0,1,.05-.7c0-.27.06-.5.08-.69h0l-.33.93L15.75,52H15.2l-.48-1.29-.31-.93h0c0,.19,0,.42.08.69a6.38,6.38,0,0,1,0,.7v1.15h-.93v-3.9H14.7l.59,1.6c0,.1.07.22.1.34s.06.23.1.34h0c0-.11.07-.23.11-.34a2.75,2.75,0,0,1,.1-.34l.56-1.6h1.11m.2-.2H16.14l-.05.13L15.53,50l0,.08,0-.08-.59-1.6-.05-.13H13.39v4.3h1.33V51.29l.29.79.05.13h.83l0-.13.31-.83v1.28h1.34v-4.3Z"/><polygon points="19.35 52.43 19.35 48.33 22.07 48.33 22.07 49.39 20.58 49.39 20.58 49.81 21.85 49.81 21.85 50.87 20.58 50.87 20.58 51.37 22.13 51.37 22.13 52.43 19.35 52.43"/><path class="cls-1" d="M22,48.43v.86H20.48v.62h1.27v.86H20.48v.7H22v.86H19.45v-3.9H22m.2-.2H19.25v4.3h3V51.27H20.68V51H22V49.71H20.68v-.22h1.49V48.23Z"/><path d="M24.61,52.43s-.44-1-.48-1.07l-.06-.13s-.13.34-.17.44l-.32.76H22.25l1.13-2.15-1-1.8-.08-.15h1.38l.48,1.14a.88.88,0,0,1,0-.15l.12-.29.25-.7h1.34l-1.07,2.09,1.13,2Z"/><path class="cls-1" d="M25.76,48.43l-1,1.94,1.05,2H24.67l-.31-.7a2.92,2.92,0,0,1-.14-.31L24.08,51h0a2.52,2.52,0,0,1-.13.33l-.12.31-.29.7H22.41l1.06-2-1-1.9h1.16l.26.64.13.29a3.35,3.35,0,0,0,.15.35h0l.12-.35a2.85,2.85,0,0,1,.12-.29l.23-.64h1.1m.33-.2H24.52l-.05.13-.23.64-.08.19L24.07,49l-.26-.63,0-.12H22.14l.16.29.94,1.81-1,1.91-.16.29h1.57l.05-.12.29-.7.09-.22a2.29,2.29,0,0,0,.1.23l.31.69.05.12h1.62l-.16-.3-1-1.86,1-1.85.15-.29Z"/><path d="M26.21,52.43v-4.1h1.53a2.66,2.66,0,0,1,.82.12,1.23,1.23,0,0,1,.87,1.28A1.33,1.33,0,0,1,28.57,51a2.15,2.15,0,0,1-.8.15h-.32v1.24Zm1.51-2.25c.34,0,.5-.14.5-.45a.31.31,0,0,0-.12-.29.76.76,0,0,0-.41-.09h-.24v.83Z"/><path class="cls-1" d="M27.74,48.43a2.47,2.47,0,0,1,.79.12,1.19,1.19,0,0,1,.58.4,1.29,1.29,0,0,1,.22.78,1.21,1.21,0,0,1-.8,1.22,1.94,1.94,0,0,1-.76.14h-.42v1.24h-1v-3.9h1.43m-.39,1.85h.37c.4,0,.6-.19.6-.55a.45.45,0,0,0-.16-.38.89.89,0,0,0-.47-.1h-.34v1m.39-2.05H26.11v4.3h1.44V51.29h.22a2.36,2.36,0,0,0,.84-.15,1.61,1.61,0,0,0,.66-.52,1.47,1.47,0,0,0,.26-.89,1.38,1.38,0,0,0-.27-.9,1.31,1.31,0,0,0-.67-.47,2.57,2.57,0,0,0-.85-.13Zm-.19,1.22h.14a.7.7,0,0,1,.36.07s.07,0,.07.21-.07.35-.4.35h-.17v-.63Z"/><path d="M29.65,52.5a.66.66,0,0,1-.5-.21.73.73,0,0,1-.2-.51.71.71,0,0,1,.2-.51.69.69,0,0,1,1,0,.75.75,0,0,1,.19.51.76.76,0,0,1-.19.51A.66.66,0,0,1,29.65,52.5Z"/><path class="cls-1" d="M29.65,51.15a.55.55,0,0,1,.43.18.64.64,0,0,1,.17.45.64.64,0,0,1-.17.44.6.6,0,0,1-.86,0,.64.64,0,0,1-.17-.44.64.64,0,0,1,.17-.45.55.55,0,0,1,.43-.18m0-.2a.78.78,0,0,0-.58.25.79.79,0,0,0-.22.58.81.81,0,0,0,.22.58.82.82,0,0,0,1.16,0,.85.85,0,0,0,.22-.58.83.83,0,0,0-.22-.58.78.78,0,0,0-.58-.25Z"/><polygon points="10 58.43 10 54.33 11.23 54.33 11.23 57.37 12.7 57.37 12.7 58.43 10 58.43"/><path class="cls-1" d="M11.13,54.43v3H12.6v.86H10.1v-3.9h1m.2-.2H9.9v4.3h2.9V57.27H11.33v-3Z"/><polygon points="13.18 58.43 13.18 54.33 15.89 54.33 15.89 55.39 14.41 55.39 14.41 55.81 15.68 55.81 15.68 56.87 14.41 56.87 14.41 57.37 15.96 57.37 15.96 58.43 13.18 58.43"/><path class="cls-1" d="M15.8,54.43v.86H14.31v.62h1.27v.86H14.31v.7h1.54v.86H13.27v-3.9H15.8m.2-.2H13.07v4.3h3V57.27H14.51V57h1.27V55.71H14.51v-.22H16V54.23Z"/><path d="M18.66,58.43l-.89-1.8-.14-.32s0,.08,0,.12a7.09,7.09,0,0,1,.05.77v1.23H16.51v-4.1h1.22l.89,1.8.14.32,0-.11a7.28,7.28,0,0,1,0-.78V54.33h1.18v4.1Z"/><path class="cls-1" d="M19.78,54.43v3.9H18.72l-.86-1.75-.37-.87h0c0,.23.06.47.09.74a6.59,6.59,0,0,1,.05.75v1.13h-1v-3.9h1.06l.86,1.74.37.88h0c0-.21-.05-.45-.09-.72a7.1,7.1,0,0,1,0-.77V54.43h1m.2-.2H18.6v1.64l-.75-1.53-.06-.11H16.41v4.3H17.8V57.2c0-.1,0-.21,0-.31l.75,1.53.06.11H20v-4.3Z"/><path d="M21.88,58.5a2.54,2.54,0,0,1-.8-.14,2.2,2.2,0,0,1-.74-.44l-.07-.07L21,57l.08.06a2,2,0,0,0,.42.26,1.14,1.14,0,0,0,.42.09c.35,0,.35-.12.35-.17s0-.08-.09-.12L21.78,57l-.48-.2a1.46,1.46,0,0,1-.59-.42,1.15,1.15,0,0,1-.26-.76,1.21,1.21,0,0,1,.44-.93A1.64,1.64,0,0,1,22,54.26a2,2,0,0,1,.72.13,1.82,1.82,0,0,1,.65.42l.06.06-.63.79-.08,0a1.62,1.62,0,0,0-.36-.2,1,1,0,0,0-.36-.06c-.31,0-.31.11-.31.16s0,.08.1.12l.41.18.48.18a1.48,1.48,0,0,1,.61.44,1.18,1.18,0,0,1,.21.72,1.3,1.3,0,0,1-.42,1A1.74,1.74,0,0,1,21.88,58.5Z"/><path class="cls-1" d="M22,54.36a1.86,1.86,0,0,1,.68.13,1.63,1.63,0,0,1,.62.39l-.52.65a2.08,2.08,0,0,0-.38-.21,1.05,1.05,0,0,0-.4-.07c-.27,0-.41.08-.41.26a.23.23,0,0,0,.16.21l.42.18.47.19a1.28,1.28,0,0,1,.57.4,1.05,1.05,0,0,1,.19.66A1.17,1.17,0,0,1,23,58a1.55,1.55,0,0,1-1.13.38,2.17,2.17,0,0,1-.77-.14,2.05,2.05,0,0,1-.71-.42l.59-.7a2.07,2.07,0,0,0,.45.27,1.16,1.16,0,0,0,.46.1q.45,0,.45-.27a.24.24,0,0,0-.14-.21l-.39-.17-.49-.2a1.53,1.53,0,0,1-.55-.4,1,1,0,0,1-.23-.69,1.09,1.09,0,0,1,.41-.86,1.56,1.56,0,0,1,1-.35m0-.2a1.74,1.74,0,0,0-1.18.4,1.32,1.32,0,0,0-.47,1,1.2,1.2,0,0,0,.28.82,1.63,1.63,0,0,0,.63.45l.48.2.38.17c0,.09-.13.1-.22.1a1,1,0,0,1-.38-.09,1.47,1.47,0,0,1-.4-.24L21,56.85l-.13.16-.59.71-.12.14.14.13a2.21,2.21,0,0,0,.78.46,2.47,2.47,0,0,0,.83.15,1.78,1.78,0,0,0,1.27-.43,1.37,1.37,0,0,0,.45-1,1.23,1.23,0,0,0-.24-.78,1.46,1.46,0,0,0-.65-.47l-.47-.19a3.69,3.69,0,0,1-.41-.17.07.07,0,0,1,0,0c0-.06.13-.06.21-.06a1,1,0,0,1,.32,0,2.45,2.45,0,0,1,.35.19l.15.11.12-.15.51-.65.11-.14-.12-.12a1.94,1.94,0,0,0-.69-.44,2.21,2.21,0,0,0-.75-.14Z"/></svg>