<svg id="Layer_1" data-name="Layer 1" xmlns="http://www.w3.org/2000/svg" xmlns:xlink="http://www.w3.org/1999/xlink" viewBox="0 0 10.91 54.38"><defs><style>.cls-1{stroke-miterlimit:10;stroke-width:0.38px;fill:url(#linear-gradient);stroke:url(#linear-gradient-2);}</style><linearGradient id="linear-gradient" x1="-10955.6" y1="54.19" x2="-10955.6" y2="0.19" gradientTransform="matrix(-1, 0, 0, 1, -10950.14, 0)" gradientUnits="userSpaceOnUse"><stop offset="0.02" stop-color="#666"/><stop offset="0.06" stop-color="#8c8c8c"/><stop offset="0.11" stop-color="#abaaab"/><stop offset="0.15" stop-color="#bebdbe"/><stop offset="0.18" stop-color="#c5c4c5"/><stop offset="0.29" stop-color="#979696"/><stop offset="0.33" stop-color="#919090"/><stop offset="0.5" stop-color="#f2f2f2"/><stop offset="0.78" stop-color="#c9c8c8"/><stop offset="1" stop-color="#4d4d4d"/></linearGradient><linearGradient id="linear-gradient-2" x1="-10955.6" y1="54.37" x2="-10955.6" gradientTransform="matrix(-1, 0, 0, 1, -10950.14, 0)" gradientUnits="userSpaceOnUse"><stop offset="0" stop-color="#a6a5a5"/><stop offset="0.11" stop-color="#d2d1d2"/><stop offset="0.18" stop-color="#c5c4c5"/><stop offset="0.29" stop-color="#979696"/><stop offset="0.33" stop-color="#919090"/><stop offset="0.78" stop-color="#c9c8c8"/><stop offset="0.85" stop-color="#fff"/><stop offset="1" stop-color="#797979"/></linearGradient></defs><path class="cls-1" d="M7.49.19H.19v54h7.3S14.78,27.19,7.49.19Z"/><path d="M1.87,8.89V7.72H7.09V9.6A2.77,2.77,0,0,1,6.74,11a1.37,1.37,0,0,1-1.28.59,1.63,1.63,0,0,1-.94-.26A1.59,1.59,0,0,1,4,10.68L1.87,11.86V10.54l1.88-1V8.89Zm2.82,0V9.5c0,.64.26.95.77.95A.59.59,0,0,0,6,10.21a1.36,1.36,0,0,0,.15-.71V8.89Z"/><path d="M1.87,12.62H7.09v3.27h-1V13.8h-1v1.77h-1V13.8H2.86V16h-1Z"/><path d="M1.87,17H7.09v1.17H2.86v2.07h-1Z"/><path d="M1.87,23.87l1.24-.32V22l-1.24-.32v-1.2l5.22,1.63v1.42L1.87,25.12Zm2.64-1.54L4,22.2v1.11l.48-.12L5.34,23l.85-.2v0l-.85-.19Z"/><path d="M1.87,26.44H3.73l3.36-1.58v1.27l-1.2.46-.57.22-.58.2v0l.58.22.57.22,1.2.47v1.23L3.73,27.61H1.87Z"/><path d="M1.87,31.34H7.09v1.18H2.86v2.06h-1Z"/><path d="M1.87,35.49H7.09v3.26h-1V36.66h-1v1.78h-1V36.66H2.86v2.17h-1Z"/><path d="M1.87,39.87H7.09v1.21L4.5,42.44,3.34,43v0l.93-.09c.34,0,.67,0,1,0H7.09V44H1.87V42.75l2.6-1.36,1.14-.51v0l-.93.09c-.33,0-.65.05-1,.05H1.87Z"/><path d="M1.78,46.78a2.83,2.83,0,0,1,.19-1,2.77,2.77,0,0,1,.56-.91l.81.68a2.36,2.36,0,0,0-.4.62,1.65,1.65,0,0,0-.15.66c0,.49.17.73.51.73a.4.4,0,0,0,.36-.2,6,6,0,0,0,.26-.55l.29-.68a1.77,1.77,0,0,1,.51-.72,1.26,1.26,0,0,1,.91-.33,1.43,1.43,0,0,1,1.1.52,2,2,0,0,1,.45,1.34,2.51,2.51,0,0,1-.17.89,2.44,2.44,0,0,1-.51.79L5.75,48a2,2,0,0,0,.31-.51,1.48,1.48,0,0,0,.11-.57A.81.81,0,0,0,6,46.43a.38.38,0,0,0-.34-.18.39.39,0,0,0-.36.23,5.39,5.39,0,0,0-.26.57l-.27.67a2,2,0,0,1-.53.75,1.32,1.32,0,0,1-.89.28,1.48,1.48,0,0,1-1.13-.52A2,2,0,0,1,1.78,46.78Z"/></svg>