<svg id="Layer_1" data-name="Layer 1" xmlns="http://www.w3.org/2000/svg" viewBox="0 0 100 100"><defs><style>.cls-1{fill:none;stroke:#000;stroke-miterlimit:10;stroke-width:0.25px;}</style></defs><path class="cls-1" d="M94.77,53.17V41.76a220.89,220.89,0,0,1-42.41,4.56A221.26,221.26,0,0,1,5.23,41.76V53.17S50,64.58,94.77,53.17Z"/><path d="M27.1,55.81v-7h4.21v1h-3v1.78h2.51V52.7H28.34v2.06h3.07v1.05Z"/><path d="M32.85,55.81v-7h1.39l1.24,3.42c.07.22.15.45.23.68s.15.46.22.69h0c.08-.23.15-.46.22-.69s.14-.46.22-.68l1.21-3.42H39v7H37.89V52.62c0-.33,0-.7,0-1.12s.08-.79.11-1.11h0L37.44,52l-1.15,3.14h-.73L34.4,52l-.55-1.63h0c0,.32.06.69.1,1.11s.06.79.06,1.12v3.19Z"/><path d="M40.36,53.57v-.9H42.9v.9Z"/><path d="M44.24,55.81v-7h4.22v1h-3v2H48v1H45.48v2.92Z"/><path d="M49.69,55.81v-7h1.23v7Z"/><path d="M52.7,55.81v-7h1.24v5.94h2.9v1.05Z"/><path d="M58.19,55.81V49.87h-2v-1h5.27v1h-2v5.94Z"/><path d="M62.61,55.81v-7h4.2v1h-3v1.78h2.5V52.7h-2.5v2.06h3.07v1.05Z"/><path d="M69.59,55.81H68.35v-7h2.36a3.45,3.45,0,0,1,1.83.45,1.75,1.75,0,0,1,.73,1.63,1.91,1.91,0,0,1-1.38,2l1.66,2.92H72.16l-1.5-2.74H69.59Zm0-3.72h1c1,0,1.48-.4,1.48-1.19a.92.92,0,0,0-.38-.84,2.06,2.06,0,0,0-1.1-.24h-1Z"/><path d="M37.11,37.63V31.09h2.06a3.44,3.44,0,0,1,1.81.44,1.7,1.7,0,0,1,.72,1.58A1.85,1.85,0,0,1,41,34.72a2.94,2.94,0,0,1-1.77.51h-.94v2.4Zm1.16-3.33h.85c1,0,1.44-.4,1.44-1.19a.92.92,0,0,0-.38-.85,2,2,0,0,0-1.1-.24h-.81Z"/><path d="M42.93,37.63V31.09h1.16v5.56h2.72v1Z"/><path d="M51.48,37.63,51,35.86h-2.2l-.51,1.77H47.08l2.13-6.54h1.36l2.13,6.54Zm-2.21-3.48L49,35h1.67l-.23-.8c-.11-.35-.21-.7-.31-1.07S50,32.35,49.89,32h0c-.09.37-.18.73-.28,1.1S49.38,33.8,49.27,34.15Z"/><path d="M56,37.75a2.83,2.83,0,0,1-2.1-.87,3.41,3.41,0,0,1-.85-2.5,3.83,3.83,0,0,1,.4-1.83A2.88,2.88,0,0,1,56.06,31a2.32,2.32,0,0,1,1.1.25,3.05,3.05,0,0,1,.79.58l-.62.75a2.28,2.28,0,0,0-.56-.42,1.51,1.51,0,0,0-.68-.15,1.65,1.65,0,0,0-1.32.63,2.73,2.73,0,0,0-.51,1.74,2.81,2.81,0,0,0,.49,1.76,1.58,1.58,0,0,0,1.31.63,1.55,1.55,0,0,0,.78-.19,2.35,2.35,0,0,0,.62-.48l.62.73A2.63,2.63,0,0,1,56,37.75Z"/><path d="M59.17,37.63V31.09h3.94v1H60.33v1.67h2.35v1H60.33v1.93h2.88v1Z"/><path d="M39.17,73.63V67.09h1.16v2.63H43V67.09h1.16v6.54H43v-2.9H40.33v2.9Z"/><path d="M45.8,73.63V67.09h3.94v1H47v1.67h2.35v1H47v1.93h2.88v1Z"/><path d="M52.34,73.63H51.18V67.09h2.21a3.23,3.23,0,0,1,1.71.42A1.64,1.64,0,0,1,55.79,69a1.81,1.81,0,0,1-1.3,1.87l1.56,2.73h-1.3l-1.41-2.56h-1Zm0-3.48h.93c.92,0,1.38-.37,1.38-1.12a.84.84,0,0,0-.35-.78,1.85,1.85,0,0,0-1-.23h-.93Z"/><path d="M57.1,73.63V67.09H61v1H58.26v1.67h2.35v1H58.26v1.93h2.88v1Z"/></svg>