<svg id="Layer_1" data-name="Layer 1" xmlns="http://www.w3.org/2000/svg" viewBox="0 0 100 100"><defs><style>.cls-1{fill:none;stroke:#000;stroke-miterlimit:10;stroke-width:0.38px;}</style></defs><path class="cls-1" d="M53.32,5.21h-12V94.79h12S65.27,50,53.32,5.21Z"/><path d="M44.75,19.46V18h8.49v2.87a4.26,4.26,0,0,1-.54,2.23,2.15,2.15,0,0,1-2,.89,2.48,2.48,0,0,1-1.57-.46,2.6,2.6,0,0,1-.86-1.23l-3.54,2V22.59l3.32-1.83v-1.3Zm4.52,0v1.21c0,1.19.48,1.79,1.45,1.79a1.1,1.1,0,0,0,1-.46A2.45,2.45,0,0,0,52,20.67V19.46Z"/><path d="M44.75,25.64h8.49v5.12H52V27.15H49.8V30.2H48.53V27.15H46v3.74H44.75Z"/><path d="M44.75,32.63h8.49v1.51H46v3.53H44.75Z"/><path d="M44.75,43.73l2.3-.66V40.21l-2.3-.66V38l8.49,2.76v1.77l-8.49,2.77Zm4.52-2.87-1-.3v2.17l1-.3c.45-.14.91-.27,1.39-.39l1.41-.37v-.06l-1.42-.35Z"/><path d="M44.75,47.58H47.9L53.24,45v1.61l-2.17.92c-.32.12-.63.24-.93.37l-.94.39v0l.94.4c.3.13.61.26.93.38l2.17.92v1.57L47.9,49.08H44.75Z"/><path d="M44.75,55.26h8.49v1.51H46V60.3H44.75Z"/><path d="M44.75,61.78h8.49V66.9H52V63.29H49.8v3.05H48.53V63.29H46V67H44.75Z"/><path d="M44.75,68.77h8.49v1.54L48.46,73l-1.8.87v0l1.41-.12c.51-.05,1-.07,1.48-.07h3.69v1.44H44.75V73.59l4.78-2.65,1.8-.87V70l-1.41.13a14.55,14.55,0,0,1-1.46.07H44.75Z"/><path d="M44.59,79.77a4.24,4.24,0,0,1,1.25-3.07l1,.89a3.87,3.87,0,0,0-.69,1,2.77,2.77,0,0,0-.27,1.17,1.75,1.75,0,0,0,.3,1.11,1,1,0,0,0,.79.37.84.84,0,0,0,.77-.37,5.8,5.8,0,0,0,.48-.94l.51-1.17a3.72,3.72,0,0,1,.79-1.17A2,2,0,0,1,51,77.08a2.17,2.17,0,0,1,1.7.8,3.05,3.05,0,0,1,.69,2.06,3.48,3.48,0,0,1-.3,1.42,3.62,3.62,0,0,1-.78,1.19l-1-.77a3.64,3.64,0,0,0,.53-.85,2.46,2.46,0,0,0,.19-1,1.6,1.6,0,0,0-.26-1,.87.87,0,0,0-.74-.36.83.83,0,0,0-.74.41,7.5,7.5,0,0,0-.45.94l-.48,1.15a3.54,3.54,0,0,1-.85,1.24,2.06,2.06,0,0,1-1.45.48A2.34,2.34,0,0,1,45.33,82,3.22,3.22,0,0,1,44.59,79.77Z"/><path d="M63.14,37.11h6.54v2.06A3.44,3.44,0,0,1,69.24,41a1.7,1.7,0,0,1-1.58.72A1.87,1.87,0,0,1,66.05,41a3,3,0,0,1-.51-1.78v-.94h-2.4Zm3.33,1.16v.85c0,1,.4,1.44,1.19,1.44a.91.91,0,0,0,.85-.37,2.08,2.08,0,0,0,.24-1.11v-.81Z"/><path d="M63.14,42.93h6.54v1.16H64.12v2.72h-1Z"/><path d="M63.14,51.48,64.91,51v-2.2l-1.77-.51V47.08l6.54,2.13v1.36L63.14,52.7Zm3.48-2.21-.8-.23v1.67l.8-.23c.35-.11.7-.21,1.07-.3l1.09-.29v0l-1.1-.27Z"/><path d="M63,56a2.81,2.81,0,0,1,.87-2.09,3.42,3.42,0,0,1,2.5-.86,3.86,3.86,0,0,1,1.83.41,2.92,2.92,0,0,1,1.17,1.08,2.86,2.86,0,0,1,.41,1.5,2.32,2.32,0,0,1-.25,1.1A3.05,3.05,0,0,1,69,58l-.75-.62a2.13,2.13,0,0,0,.41-.55,1.46,1.46,0,0,0,.16-.69,1.6,1.6,0,0,0-.64-1.31,2.63,2.63,0,0,0-1.73-.52,2.81,2.81,0,0,0-1.76.49A1.58,1.58,0,0,0,64,56.06a1.66,1.66,0,0,0,.18.78,2.63,2.63,0,0,0,.49.62l-.73.62A2.63,2.63,0,0,1,63,56Z"/><path d="M63.14,59.17h6.54v3.94h-1V60.33H67v2.35h-1V60.33H64.12v2.88h-1Z"/><path d="M27.14,39.18h6.54v1.16H31.05V43h2.63v1.16H27.14V43H30V40.34h-2.9Z"/><path d="M27.14,45.81h6.54v3.94h-1V47H31v2.35h-1V47H28.12v2.88h-1Z"/><path d="M27.14,52.35V51.19h6.54V53.4a3.23,3.23,0,0,1-.42,1.71,1.64,1.64,0,0,1-1.52.69,1.84,1.84,0,0,1-1.87-1.3l-2.73,1.56v-1.3l2.56-1.41v-1Zm3.48,0v.93c0,.92.37,1.38,1.12,1.38a.85.85,0,0,0,.78-.36,1.93,1.93,0,0,0,.23-1v-.93Z"/><path d="M27.14,57.11h6.54v3.94h-1V58.27H31v2.34h-1V58.27H28.12v2.88h-1Z"/></svg>