<?xml version="1.0" encoding="utf-8"?>
<!-- Generator: Adobe Illustrator 25.1.0, SVG Export Plug-In . SVG Version: 6.00 Build 0)  -->
<svg version="1.1" id="Layer_1" xmlns="http://www.w3.org/2000/svg" xmlns:xlink="http://www.w3.org/1999/xlink" x="0px" y="0px"
	 viewBox="0 0 100 100" style="enable-background:new 0 0 100 100;" xml:space="preserve">
<style type="text/css">
	.st0{fill:none;stroke:#000000;stroke-width:0.3;stroke-miterlimit:10;}
</style>
<path d="M49.9,5.3L49.9,5.3c1.6,0,3.1,0.3,4.6,1v0.4h0.2c0.9,0.1,1.8,0.3,2.6,0.5l1.5,1.5l1.6,1.7v5.1h0.3c1.6,0.2,3,0.3,4.2,0.5
	l4.6,3.6c-6.5-0.6-13.1-1-19.6-1h-1.1c-6.2,0-12.5,0.4-18.7,1l3.7-3.7c1.6-0.2,3.3-0.4,5.3-0.6h0.3v-5l3.1-3.3
	c0.8-0.2,1.7-0.3,2.6-0.5h0.3V6.3c1.3-0.6,2.6-0.9,4-1L49.9,5.3 M49.9,5h-0.5c-1.5,0.1-3,0.4-4.3,1.1v0.3c-1.1,0.2-2,0.3-2.7,0.5
	l-3.2,3.4v4.9c-1.9,0.2-3.7,0.4-5.4,0.6l-4.3,4.3c5.9-0.6,12.5-1,19.5-1.1H50c6.9,0,13.8,0.4,20.6,1.1l-5.4-4.3
	c-1.4-0.2-2.8-0.4-4.3-0.5v-5L57.5,7c-0.7-0.2-1.7-0.3-2.7-0.5V6.1C53.3,5.4,51.6,5,49.9,5L49.9,5z"/>
<path class="st0" d="M69.6,88.4v-0.7l1-0.2V26.7h0.1v-3.2h-0.1v-3.2c-13.7-1.5-27.5-1.5-41.2,0v67.2l1.2,0.2v0.7"/>
<path class="st0" d="M30.5,88.3v2.2l5.9,1.5c1.3,0.1,3,0.2,4.9,0.2v1.2c3.1,1.2,6.4,1.7,9.7,1.6c2.7-0.1,5.3-0.6,7.8-1.6v-1.2
	c1.9-0.1,3.6-0.2,4.9-0.2l5.8-1.5v-2.1"/>
<path d="M53.2,75c0,0.8-0.3,1.5-0.9,2c-0.7,0.5-1.5,0.8-2.4,0.8c-0.9,0.1-1.7-0.2-2.4-0.8c-1.1-1.1-1.1-2.8-0.1-3.9c0,0,0,0,0.1-0.1
	c0.7-0.5,1.5-0.8,2.4-0.7c0.9,0,1.7,0.2,2.4,0.8C53,73.5,53.3,74.3,53.2,75z M52.2,75c0-0.5-0.2-0.9-0.6-1.2
	c-0.5-0.3-1.1-0.4-1.6-0.4c-0.6,0-1.2,0.1-1.7,0.4c-0.4,0.3-0.6,0.7-0.6,1.2c0,0.5,0.2,0.9,0.6,1.2c0.5,0.3,1.1,0.5,1.7,0.4
	c0.6,0,1.2-0.1,1.7-0.4C52.1,75.9,52.3,75.5,52.2,75L52.2,75z"/>
<path d="M53.1,71h-6.3v-2c0-0.6,0.1-1.1,0.3-1.6c0.2-0.4,0.7-0.7,1.2-0.6c0.3,0,0.6,0.1,0.8,0.2c0.3,0.1,0.4,0.4,0.5,0.6l0,0
	c0.1-0.3,0.2-0.6,0.5-0.9c0.3-0.2,0.6-0.4,1-0.3c0.6,0,1.1,0.2,1.4,0.7c0.3,0.5,0.5,1.1,0.5,1.7L53.1,71z M49.5,69.9v-0.8
	c0-0.4-0.1-0.7-0.2-1c-0.2-0.2-0.4-0.3-0.6-0.3c-0.3,0-0.5,0.1-0.7,0.3c-0.1,0.3-0.2,0.6-0.2,0.9v0.8L49.5,69.9z M52.3,69.9V69
	c0-1-0.3-1.4-1-1.4s-1,0.5-1,1.4v0.9L52.3,69.9z"/>
<path d="M53.2,64.1c0,0.8-0.4,1.5-1.1,1.9l-0.6-0.8c0.4-0.2,0.7-0.6,0.7-1c0-0.2-0.1-0.5-0.3-0.6c-0.3-0.2-0.6-0.3-0.9-0.2h-4.2
	v-1.1h4.3c0.5,0,1,0.1,1.5,0.4C53.1,63.1,53.3,63.6,53.2,64.1z"/>
<path d="M53.1,60.7h-6.3v-3.8h0.9v2.7h1.6v-2.3h0.9v2.3h1.8v-2.8h0.9L53.1,60.7z"/>
<path d="M53.2,53c0,0.8-0.3,1.5-0.8,2c-0.7,0.6-1.5,0.9-2.4,0.8c-0.6,0-1.2-0.1-1.8-0.4C47.3,55,46.7,54,46.7,53
	c0-0.4,0.1-0.7,0.3-1.1c0.1-0.3,0.3-0.5,0.5-0.8l0.7,0.6c-0.2,0.2-0.3,0.3-0.4,0.5c-0.1,0.2-0.2,0.4-0.2,0.7c0,0.5,0.2,1,0.6,1.3
	c0.5,0.3,1.1,0.5,1.7,0.5c0.6,0,1.2-0.1,1.7-0.5c0.4-0.3,0.6-0.8,0.6-1.3c0-0.3-0.1-0.5-0.2-0.8c-0.1-0.2-0.3-0.4-0.5-0.6l0.7-0.6
	C52.9,51.5,53.2,52.2,53.2,53z"/>
<path d="M53.1,48.9h-5.3v1.8h-0.9V46h0.9v1.8h5.3V48.9z"/>
<path d="M53.1,44.9h-6.3v-1.1h6.3L53.1,44.9z"/>
<path d="M53.1,41.1l-6.3,2v-1.2L50,41l1-0.3c0.3-0.1,0.7-0.2,1-0.3l0,0c-0.4-0.1-0.7-0.2-1-0.3s-0.7-0.2-1-0.3L46.8,39v-1.2l6.3,2
	L53.1,41.1z"/>
<path d="M53.1,37.1h-6.3v-3.8h0.9v2.7h1.6v-2.3h0.9v2.2h1.8v-2.8h0.9L53.1,37.1z"/>
</svg>
