<svg id="Layer_1" data-name="Layer 1" xmlns="http://www.w3.org/2000/svg" viewBox="0 0 100 100"><defs><style>.cls-1{fill:none;stroke:#000;stroke-miterlimit:10;stroke-width:0.25px;}</style></defs><path class="cls-1" d="M52.91,5.06H41.45A221.65,221.65,0,0,1,46,47.63a222.16,222.16,0,0,1-4.58,47.31H52.91S64.36,50,52.91,5.06Z"/><path d="M55.3,72h-7V67.74h1v3h1.78V68.2H52.2v2.51h2.06V67.63h1Z"/><path d="M55.3,67l-3.6-2-3.38,1.86V65.44l1.55-.77.5-.25.57-.28v0l-.57-.24-.5-.23-1.55-.74V61.58l3.44,1.86,3.54-2v1.38l-1.64.85-.55.27-.59.3v0l.59.26.55.25,1.64.84Z"/><path d="M53.06,61.2h-.9V58.66h.9Z"/><path d="M55.3,57.33h-7V53.11h1v3h2V53.55h1v2.54H55.3Z"/><path d="M55.3,51.88h-7V50.64h7Z"/><path d="M55.3,48.87h-7V47.63h5.94v-2.9h1Z"/><path d="M55.3,43.38H49.37v2h-1V40.12h1v2H55.3Z"/><path d="M55.3,39h-7V34.75h1v3h1.78V35.21H52.2v2.51h2.06V34.65h1Z"/><path d="M55.3,32v1.24h-7V30.86A3.45,3.45,0,0,1,48.77,29a1.75,1.75,0,0,1,1.62-.74,2,2,0,0,1,2,1.39L55.3,28V29.4l-2.73,1.51V32Zm-3.71,0V31q0-1.47-1.2-1.47a.92.92,0,0,0-.84.38A2,2,0,0,0,49.31,31v1Z"/><path d="M36.37,62.89H29.83V60.83A3.35,3.35,0,0,1,30.27,59a1.7,1.7,0,0,1,1.58-.72,1.85,1.85,0,0,1,1.6.71A2.93,2.93,0,0,1,34,60.79v.94h2.4ZM33,61.73v-.85c0-1-.4-1.44-1.19-1.44a.94.94,0,0,0-.86.38,2.15,2.15,0,0,0-.23,1.1v.81Z"/><path d="M36.37,57.07H29.83V55.91h5.56V53.19h1Z"/><path d="M36.37,48.52,34.6,49v2.2l1.77.51v1.18l-6.54-2.13V49.43l6.54-2.13Zm-3.48,2.21.8.23V49.29l-.8.23c-.35.11-.71.21-1.07.3l-1.09.29v0l1.09.28C32.19,50.52,32.54,50.62,32.89,50.73Z"/><path d="M36.49,44a2.79,2.79,0,0,1-.87,2.09,3.39,3.39,0,0,1-2.5.86,3.88,3.88,0,0,1-1.84-.4,2.94,2.94,0,0,1-1.17-1.09,2.86,2.86,0,0,1-.4-1.5,2.32,2.32,0,0,1,.25-1.1,2.84,2.84,0,0,1,.58-.79l.75.62a2.06,2.06,0,0,0-.42.56,1.51,1.51,0,0,0-.15.68,1.65,1.65,0,0,0,.63,1.32,2.71,2.71,0,0,0,1.74.51,2.78,2.78,0,0,0,1.75-.49,1.67,1.67,0,0,0,.45-2.09,2.35,2.35,0,0,0-.48-.62l.73-.62A2.63,2.63,0,0,1,36.49,44Z"/><path d="M36.37,40.83H29.83V36.89h1v2.78h1.67V37.32h1v2.35h1.93V36.79h1Z"/><path d="M72.37,60.82H65.83V59.66h2.63V57H65.83V55.86h6.54V57h-2.9v2.65h2.9Z"/><path d="M72.37,54.2H65.83V50.26h1V53h1.67V50.69h1V53h1.93V50.15h1Z"/><path d="M72.37,47.65v1.17H65.83V46.61a3.23,3.23,0,0,1,.42-1.71,1.63,1.63,0,0,1,1.52-.69,1.91,1.91,0,0,1,1.21.35,2,2,0,0,1,.66.95L72.37,44v1.3l-2.56,1.4v1Zm-3.48,0v-.92c0-.92-.38-1.38-1.12-1.38a.85.85,0,0,0-.79.35,2,2,0,0,0-.22,1v.92Z"/><path d="M72.37,42.9H65.83V39h1v2.78h1.67V39.39h1v2.35h1.93V38.86h1Z"/></svg>