<svg id="Layer_1" data-name="Layer 1" xmlns="http://www.w3.org/2000/svg" viewBox="0 0 100 100"><defs><style>.cls-1{fill:none;stroke:#000;stroke-miterlimit:10;stroke-width:0.3px;}</style></defs><path d="M49.94,5.29h0a11.28,11.28,0,0,1,4.59,1V6.7l.25,0c.93.14,1.82.3,2.6.48l1.48,1.55,1.63,1.71v5.13l.27,0c1.6.16,3,.32,4.25.49l4.56,3.65c-6.5-.65-13.1-1-19.62-1H48.86c-6.22,0-12.51.37-18.71,1l3.67-3.67c1.57-.22,3.31-.41,5.31-.59l.27,0v-5l3.11-3.26c.82-.19,1.7-.35,2.6-.48l.26,0V6.28a11.15,11.15,0,0,1,4.05-1h.52m0-.3H49.4a11.23,11.23,0,0,0-4.33,1.09v.35c-1.07.16-2,.34-2.72.51L39.1,10.36v4.88c-1.89.17-3.72.37-5.42.61l-4.34,4.33c5.93-.62,12.46-1,19.52-1.08H50a198.1,198.1,0,0,1,20.6,1.08l-5.42-4.33c-1.38-.2-2.84-.36-4.34-.51v-5L57.54,7c-.74-.17-1.66-.35-2.71-.5V6.09A11.41,11.41,0,0,0,49.94,5Z"/><path class="cls-1" d="M69.57,88.38v-.73l1-.19V26.67l.11,0V23.46h-.11V20.24a186.27,186.27,0,0,0-41.21,0V87.46l1.19.24v.65"/><path class="cls-1" d="M30.53,88.35v2.16L36.39,92c1.33.08,3,.16,4.88.22v1.17A24.5,24.5,0,0,0,51,95a24,24,0,0,0,7.81-1.61V92.21c1.92-.07,3.57-.15,4.88-.22l5.85-1.48V88.38"/><path d="M39.69,46.5V41.27h1.65a2.74,2.74,0,0,1,1.44.35,1.36,1.36,0,0,1,.58,1.27,1.47,1.47,0,0,1-.57,1.28,2.34,2.34,0,0,1-1.42.41h-.75V46.5Zm.93-2.66h.68c.76,0,1.15-.32,1.15-1a.76.76,0,0,0-.3-.69,1.77,1.77,0,0,0-.89-.18h-.64Z"/><path d="M44.34,46.5V41.27h.93v4.45h2.18v.78Z"/><path d="M51.18,46.5l-.4-1.41H49l-.41,1.41h-1l1.71-5.23h1.09l1.7,5.23Zm-1.76-2.78-.19.64h1.34l-.19-.64c-.08-.28-.16-.56-.24-.86s-.15-.58-.23-.87h0c-.07.29-.14.59-.22.88Z"/><path d="M54.82,46.6a2.24,2.24,0,0,1-1.68-.7,2.71,2.71,0,0,1-.68-2,3,3,0,0,1,.32-1.46,2.4,2.4,0,0,1,.87-.94,2.25,2.25,0,0,1,1.2-.32,1.81,1.81,0,0,1,.88.2,2.33,2.33,0,0,1,.63.46l-.5.6a1.54,1.54,0,0,0-.44-.33,1.24,1.24,0,0,0-.55-.13,1.29,1.29,0,0,0-1,.51,2.17,2.17,0,0,0-.41,1.39,2.22,2.22,0,0,0,.39,1.4,1.34,1.34,0,0,0,1.67.36,1.79,1.79,0,0,0,.5-.38l.49.58A2.08,2.08,0,0,1,54.82,46.6Z"/><path d="M57.34,46.5V41.27h3.15v.79H58.26v1.33h1.88v.79H58.26v1.54h2.31v.78Z"/><path d="M33.7,56.2A2.11,2.11,0,0,1,32,55.47a2.94,2.94,0,0,1-.64-2,2.82,2.82,0,0,1,.64-2,2.31,2.31,0,0,1,3.33,0,2.82,2.82,0,0,1,.65,2,2.94,2.94,0,0,1-.65,2A2.11,2.11,0,0,1,33.7,56.2Zm0-.81a1.16,1.16,0,0,0,1-.52,2.45,2.45,0,0,0,.37-1.41,2.35,2.35,0,0,0-.37-1.38,1.19,1.19,0,0,0-1-.5,1.17,1.17,0,0,0-1,.5,2.28,2.28,0,0,0-.37,1.38,2.38,2.38,0,0,0,.37,1.41A1.14,1.14,0,0,0,33.7,55.39Z"/><path d="M37.06,56.1V50.87h1.68a2.86,2.86,0,0,1,1.34.29,1,1,0,0,1,.53,1,1.44,1.44,0,0,1-.19.7,1,1,0,0,1-.54.44v0a1.35,1.35,0,0,1,.72.4,1.2,1.2,0,0,1,.28.84,1.29,1.29,0,0,1-.57,1.16,2.57,2.57,0,0,1-1.44.37ZM38,53h.67a1.23,1.23,0,0,0,.79-.2.66.66,0,0,0,.25-.53.6.6,0,0,0-.26-.55,1.55,1.55,0,0,0-.77-.16H38Zm0,2.35h.79c.8,0,1.2-.28,1.2-.86s-.4-.79-1.2-.79H38Z"/><path d="M42.78,56.2a1.67,1.67,0,0,1-1.56-.89l.64-.47a.9.9,0,0,0,.82.55.66.66,0,0,0,.55-.22,1.28,1.28,0,0,0,.19-.79V50.87h.92v3.59A2.08,2.08,0,0,1,44,55.69,1.39,1.39,0,0,1,42.78,56.2Z"/><path d="M45.65,56.1V50.87H48.8v.79H46.58V53h1.88v.79H46.58v1.54h2.3v.78Z"/><path d="M52,56.2a2.26,2.26,0,0,1-1.68-.7,2.75,2.75,0,0,1-.68-2A3.12,3.12,0,0,1,50,52a2.4,2.4,0,0,1,.87-.94,2.25,2.25,0,0,1,1.2-.32A1.79,1.79,0,0,1,53,51a2.06,2.06,0,0,1,.63.46l-.49.6a1.58,1.58,0,0,0-.45-.33,1.2,1.2,0,0,0-.54-.13,1.31,1.31,0,0,0-1.06.51,2.17,2.17,0,0,0-.41,1.39,2.22,2.22,0,0,0,.39,1.4,1.27,1.27,0,0,0,1,.51,1.3,1.3,0,0,0,.63-.15,1.75,1.75,0,0,0,.49-.38l.5.58A2.09,2.09,0,0,1,52,56.2Z"/><path d="M55.5,56.1V51.66H54v-.79h4v.79H56.42V56.1Z"/><path d="M58.81,56.1V50.87h.93V56.1Z"/><path d="M62,56.1l-1.63-5.23h1l.74,2.63c.08.3.16.58.23.85s.14.56.23.86h0c.09-.3.17-.59.24-.86L63,53.5l.73-2.63h.95L63.1,56.1Z"/><path d="M65.35,56.1V50.87H68.5v.79H66.28V53h1.88v.79H66.28v1.54h2.3v.78Z"/><path d="M41.34,65.7V60.47h.93v2.11h2.12V60.47h.93V65.7h-.93V63.38H42.27V65.7Z"/><path d="M46.64,65.7V60.47H49.8v.79H47.57v1.33h1.88v.79H47.57v1.54h2.31v.78Z"/><path d="M51.88,65.7H51V60.47h1.77a2.5,2.5,0,0,1,1.36.34A1.3,1.3,0,0,1,54.64,62a1.53,1.53,0,0,1-.29,1,1.57,1.57,0,0,1-.75.53l1.24,2.18h-1l-1.12-2h-.8Zm0-2.78h.74c.74,0,1.1-.3,1.1-.9a.68.68,0,0,0-.28-.62,1.53,1.53,0,0,0-.82-.18h-.74Z"/><path d="M55.68,65.7V60.47h3.16v.79H56.61v1.33h1.88v.79H56.61v1.54h2.31v.78Z"/></svg>