<svg id="Layer_1" data-name="Layer 1" xmlns="http://www.w3.org/2000/svg" xmlns:xlink="http://www.w3.org/1999/xlink" width="51.25" height="51.25" viewBox="0 0 51.25 51.25"><defs><style>.cls-1{fill:url(#linear-gradient);}.cls-2{fill:url(#linear-gradient-2);}.cls-3{fill:#140000;}</style><linearGradient id="linear-gradient" x1="-1698.22" y1="27.92" x2="-1698.22" y2="-29.08" gradientTransform="matrix(-0.71, 0.71, -0.81, -0.81, -1175.33, 1225.63)" gradientUnits="userSpaceOnUse"><stop offset="0.02" stop-color="#666"/><stop offset="0.02" stop-color="#6e6e6e"/><stop offset="0.05" stop-color="#999899"/><stop offset="0.07" stop-color="#b8b7b8"/><stop offset="0.09" stop-color="#cbcacb"/><stop offset="0.11" stop-color="#d2d1d2"/><stop offset="0.18" stop-color="#c5c4c5"/><stop offset="0.29" stop-color="#979696"/><stop offset="0.33" stop-color="#919090"/><stop offset="0.5" stop-color="#f2f2f2"/><stop offset="0.78" stop-color="#c9c8c8"/><stop offset="0.85" stop-color="#fff"/><stop offset="1" stop-color="#4d4d4d"/></linearGradient><linearGradient id="linear-gradient-2" x1="-1698.22" y1="27.92" x2="-1698.22" y2="-29.08" gradientTransform="matrix(-0.71, 0.71, -0.81, -0.81, -1175.33, 1225.63)" gradientUnits="userSpaceOnUse"><stop offset="0.02" stop-color="red" stop-opacity="0.5"/><stop offset="0.59" stop-color="red" stop-opacity="0.43"/><stop offset="1" stop-color="red" stop-opacity="0.4"/></linearGradient></defs><title>LightPath_StandardDichroic copy</title><path class="cls-1" d="M51.25,45.94l-5.31,5.31C38.36,45,30.33,37.87,22.12,29.68,13.7,21.28,6.36,13.05,0,5.3Q2.66,2.66,5.3,0A205.85,205.85,0,0,1,29.62,20.68,206.92,206.92,0,0,1,51.25,45.94Z"/><path class="cls-2" d="M51.25,45.94l-5.31,5.31C38.36,45,30.33,37.87,22.12,29.68,13.7,21.28,6.36,13.05,0,5.3Q2.66,2.66,5.3,0A205.85,205.85,0,0,1,29.62,20.68,206.92,206.92,0,0,1,51.25,45.94Z"/><path class="cls-3" d="M15.29,17.27l3.1-3.11.92.92a2.51,2.51,0,0,1,.79,1.51,2,2,0,0,1-.73,1.62,2.11,2.11,0,0,1-1.63.76,2.39,2.39,0,0,1-1.49-.74Zm1.48.16.05,0a1.2,1.2,0,0,0,.75.39,1.28,1.28,0,0,0,1-.49c.36-.36.52-.68.47-.95a1.27,1.27,0,0,0-.4-.73l0,0Z"/><path class="cls-3" d="M18.35,20.33l3.11-3.1.82.82-3.1,3.1Z"/><path class="cls-3" d="M21.15,23.24a2.15,2.15,0,0,1-.55-.91,1.85,1.85,0,0,1,0-1.07,2.86,2.86,0,0,1,1.77-1.76,2.1,2.1,0,0,1,2,.54,1.91,1.91,0,0,1,.43.68,2.29,2.29,0,0,1,.12.7l-1,.09a1.77,1.77,0,0,0-.08-.4.69.69,0,0,0-.21-.34.87.87,0,0,0-.71-.24,1.44,1.44,0,0,0-.87.46,1.49,1.49,0,0,0-.48.85.81.81,0,0,0,.25.72.88.88,0,0,0,.4.24,1.65,1.65,0,0,0,.43.06l-.09.94A1.79,1.79,0,0,1,21.15,23.24Z"/><path class="cls-3" d="M22.66,24.63l3.1-3.1.82.82-1.15,1.16.92.92,1.16-1.15.82.82-3.1,3.1-.82-.82,1.23-1.23-.93-.93-1.23,1.23Z"/><path class="cls-3" d="M26.74,28.71l-.83-.82L29,24.79,30.19,26a2.92,2.92,0,0,1,.53.71,1.36,1.36,0,0,1,.14.76,1.29,1.29,0,0,1-.43.77,1.35,1.35,0,0,1-.69.42,1.42,1.42,0,0,1-.71,0l-.53,1.88-.91-.92.5-1.58-.31-.31ZM28.43,27l.29.3c.33.33.63.36.91.08a.43.43,0,0,0,.15-.4,1.06,1.06,0,0,0-.29-.45l-.3-.29Z"/><path class="cls-3" d="M30.17,32.26a1.91,1.91,0,0,1-.61-1.47,2.42,2.42,0,0,1,.79-1.59,2.31,2.31,0,0,1,1.58-.78A2.14,2.14,0,0,1,34,30.5a2.31,2.31,0,0,1-.78,1.58,2.38,2.38,0,0,1-1.6.79A1.91,1.91,0,0,1,30.17,32.26Zm.71-.71a.71.71,0,0,0,.69.2,1.76,1.76,0,0,0,.83-.51,1.6,1.6,0,0,0,.49-.82.75.75,0,0,0-.88-.87,1.57,1.57,0,0,0-.82.49,1.61,1.61,0,0,0-.5.83A.68.68,0,0,0,30.88,31.55Z"/><path class="cls-3" d="M32.22,34.2l3.11-3.1.82.82L33.05,35Z"/><path class="cls-3" d="M35,37.11a2.15,2.15,0,0,1-.55-.91,1.85,1.85,0,0,1,0-1.07,2.86,2.86,0,0,1,1.77-1.76,2.1,2.1,0,0,1,2,.54,1.91,1.91,0,0,1,.43.68,2.29,2.29,0,0,1,.12.7l-1,.09a1.77,1.77,0,0,0-.08-.4.69.69,0,0,0-.21-.34.87.87,0,0,0-.71-.24,1.44,1.44,0,0,0-.87.46,1.49,1.49,0,0,0-.48.85.81.81,0,0,0,.25.72.88.88,0,0,0,.4.24,1.65,1.65,0,0,0,.43.06l-.09.94A1.79,1.79,0,0,1,35,37.11Z"/></svg>