<svg id="Layer_1" data-name="Layer 1" xmlns="http://www.w3.org/2000/svg" xmlns:xlink="http://www.w3.org/1999/xlink" width="53.28" height="7.05" viewBox="0 0 53.28 7.05"><defs><style>.cls-1{fill:url(#linear-gradient);}.cls-2{fill:url(#linear-gradient-2);}.cls-3{fill:#140000;}</style><linearGradient id="linear-gradient" x1="-3052.43" y1="918.85" x2="-3052.43" y2="865.56" gradientTransform="matrix(0, -1, -1, 0, 918.85, -3049.43)" gradientUnits="userSpaceOnUse"><stop offset="0.02" stop-color="#666"/><stop offset="0.02" stop-color="#6e6e6e"/><stop offset="0.05" stop-color="#999899"/><stop offset="0.07" stop-color="#b8b7b8"/><stop offset="0.09" stop-color="#cbcacb"/><stop offset="0.11" stop-color="#d2d1d2"/><stop offset="0.18" stop-color="#c5c4c5"/><stop offset="0.29" stop-color="#979696"/><stop offset="0.33" stop-color="#919090"/><stop offset="0.5" stop-color="#f2f2f2"/><stop offset="0.78" stop-color="#c9c8c8"/><stop offset="0.85" stop-color="#fff"/><stop offset="1" stop-color="#4d4d4d"/></linearGradient><linearGradient id="linear-gradient-2" x1="-3052.43" y1="918.85" x2="-3052.43" y2="865.56" gradientTransform="matrix(0, -1, -1, 0, 918.85, -3049.43)" gradientUnits="userSpaceOnUse"><stop offset="0.02" stop-color="red" stop-opacity="0.5"/><stop offset="0.59" stop-color="red" stop-opacity="0.43"/><stop offset="1" stop-color="red" stop-opacity="0.4"/></linearGradient></defs><title>LightPath_EmissionFilter copy</title><path class="cls-1" d="M53.28,4.15V0A210.76,210.76,0,0,1,28,1.66,213.14,213.14,0,0,1,0,0V4.15S26.64,8.31,53.28,4.15Z"/><path class="cls-2" d="M53.28,4.15V0A210.76,210.76,0,0,1,28,1.66,213.14,213.14,0,0,1,0,0V4.15S26.64,8.31,53.28,4.15Z"/><path class="cls-3" d="M16.45,5.22V2.3h1.89V3H17.22v.46h1v.64h-1v.53h1.16v.64Z"/><path class="cls-3" d="M19,5.22V2.3h.83l.44,1.2a1.82,1.82,0,0,1,.07.25l.08.26h0l.08-.26a1.82,1.82,0,0,1,.07-.25L21,2.3h.83V5.22h-.7V4.36a3.46,3.46,0,0,1,0-.52c0-.2,0-.38.06-.52h0l-.24.7-.36,1h-.41l-.37-1-.23-.7h0c0,.14,0,.32.07.52s0,.37,0,.52v.86Z"/><path class="cls-3" d="M22.32,4.35V3.81h1.13v.54Z"/><path class="cls-3" d="M24,5.22V2.3h1.91V3H24.74V3.5h1v.65h-1V5.22Z"/><path class="cls-3" d="M26.38,5.22V2.3h.78V5.22Z"/><path class="cls-3" d="M27.8,5.22V2.3h.78V4.58h1.11v.64Z"/><path class="cls-3" d="M30.21,5.22V3h-.78V2.3h2.33V3H31V5.22Z"/><path class="cls-3" d="M32.19,5.22V2.3h1.89V3H33v.46h1v.64H33v.53h1.16v.64Z"/><path class="cls-3" d="M35.46,5.22h-.77V2.3H35.8a2.14,2.14,0,0,1,.58.08,1,1,0,0,1,.43.29,1,1,0,0,1,.16.57,1.06,1.06,0,0,1-.13.53,1,1,0,0,1-.34.32l.63,1.13h-.86l-.51-1h-.3Zm0-1.59h.28c.32,0,.47-.13.47-.39A.29.29,0,0,0,36.09,3a.66.66,0,0,0-.35-.07h-.28Z"/></svg>