<svg id="Layer_1" data-name="Layer 1" xmlns="http://www.w3.org/2000/svg" viewBox="0 0 100 100"><defs><style>.cls-1{fill:none;stroke:#000;stroke-miterlimit:10;stroke-width:0.38px;}</style></defs><path class="cls-1" d="M47.38,5.34h9.44V94.68H47.38S37.94,50,47.38,5.34Z"/><path d="M36.39,62.89H29.85V60.83A3.44,3.44,0,0,1,30.29,59a1.7,1.7,0,0,1,1.58-.72,1.85,1.85,0,0,1,1.6.71A2.93,2.93,0,0,1,34,60.79v.94h2.4Zm-3.33-1.16v-.85c0-1-.4-1.44-1.19-1.44a.94.94,0,0,0-.86.38,2.15,2.15,0,0,0-.23,1.1v.81Z"/><path d="M36.39,57.07H29.85V55.91h5.56V53.19h1Z"/><path d="M36.39,48.52,34.62,49v2.2l1.77.51v1.18l-6.54-2.13V49.43l6.54-2.13Zm-3.48,2.21.8.23V49.29l-.8.23c-.35.11-.71.21-1.07.3l-1.09.29v0l1.09.28C32.21,50.52,32.56,50.62,32.91,50.73Z"/><path d="M36.51,44a2.79,2.79,0,0,1-.87,2.09,3.39,3.39,0,0,1-2.5.86,3.88,3.88,0,0,1-1.84-.4,2.94,2.94,0,0,1-1.17-1.09,2.86,2.86,0,0,1-.4-1.5,2.32,2.32,0,0,1,.25-1.1,2.84,2.84,0,0,1,.58-.79l.75.62a2.06,2.06,0,0,0-.42.56,1.51,1.51,0,0,0-.15.68,1.65,1.65,0,0,0,.63,1.32,2.71,2.71,0,0,0,1.74.51,2.78,2.78,0,0,0,1.75-.49,1.67,1.67,0,0,0,.45-2.09,2.35,2.35,0,0,0-.48-.62l.73-.62A2.63,2.63,0,0,1,36.51,44Z"/><path d="M36.39,40.83H29.85V36.89h1v2.78H32.5V37.32h1v2.35h1.93V36.79h1Z"/><path d="M72.39,60.82H65.85V59.66h2.63V57H65.85V55.86h6.54V57h-2.9v2.65h2.9Z"/><path d="M72.39,54.2H65.85V50.26h1V53H68.5V50.69h1V53h1.93V50.16h1Z"/><path d="M72.39,47.66v1.16H65.85V46.61a3.23,3.23,0,0,1,.42-1.71,1.63,1.63,0,0,1,1.52-.69,1.91,1.91,0,0,1,1.21.35,2,2,0,0,1,.66.95L72.39,44v1.3l-2.56,1.41v1Zm-3.48,0v-.93c0-.92-.38-1.38-1.12-1.38a.85.85,0,0,0-.79.35,2,2,0,0,0-.22,1v.93Z"/><path d="M72.39,42.9H65.85V39h1v2.78H68.5V39.39h1v2.35h1.93V38.86h1Z"/><path d="M55,83.5a3,3,0,0,1-.93,2.24,3.65,3.65,0,0,1-2.67.91,4.14,4.14,0,0,1-2-.43,3,3,0,0,1-1.68-2.76A2.46,2.46,0,0,1,48,82.29a3.11,3.11,0,0,1,.62-.85l.8.67a1.94,1.94,0,0,0-.44.59,1.6,1.6,0,0,0-.17.73,1.72,1.72,0,0,0,.68,1.4,2.83,2.83,0,0,0,1.85.55,3,3,0,0,0,1.88-.52,1.67,1.67,0,0,0,.67-1.4,1.72,1.72,0,0,0-.19-.83,3,3,0,0,0-.52-.66L54,81.3A2.84,2.84,0,0,1,55,83.5Z"/><path d="M55,77.78A2.82,2.82,0,0,1,54,80a4,4,0,0,1-2.68.86A3.83,3.83,0,0,1,48.72,80a3.08,3.08,0,0,1,0-4.45,3.83,3.83,0,0,1,2.64-.86,4,4,0,0,1,2.68.86A2.84,2.84,0,0,1,55,77.78Zm-1.08,0a1.52,1.52,0,0,0-.7-1.31A3.16,3.16,0,0,0,51.36,76a3,3,0,0,0-1.84.49,1.62,1.62,0,0,0,0,2.62,3,3,0,0,0,1.84.5,3.16,3.16,0,0,0,1.87-.5A1.5,1.5,0,0,0,53.93,77.78Z"/><path d="M55,70.68a2.59,2.59,0,0,1-.73,1.93,3.46,3.46,0,0,1-2.46.72H47.9V72.09h4a2.4,2.4,0,0,0,1.57-.39,1.28,1.28,0,0,0,.44-1,1.34,1.34,0,0,0-.44-1.05,2.33,2.33,0,0,0-1.57-.4h-4V68h3.92a3.51,3.51,0,0,1,2.46.71A2.57,2.57,0,0,1,55,70.68Z"/><path d="M54.88,66.3h-7V64.1a3.68,3.68,0,0,1,.47-1.93,1.82,1.82,0,0,1,1.69-.77,2,2,0,0,1,1.71.76,3.14,3.14,0,0,1,.55,1.9v1h2.56Zm-3.55-1.24v-.91c0-1-.43-1.53-1.27-1.53a1,1,0,0,0-.92.4,2.3,2.3,0,0,0-.25,1.18v.86Z"/><path d="M54.88,60.09h-7V58.85h5.94V55.94h1Z"/><path d="M54.88,54.73h-7V53.49h7Z"/><path d="M54.88,51.71h-7V50.44l3.93-2.18,1.48-.71v0c-.35,0-.74.06-1.16.1s-.83.06-1.22.06h-3V46.48h7v1.27L51,49.93l-1.48.72v0l1.16-.1q.61-.06,1.2-.06h3.05Z"/><path d="M55,41.78a3.22,3.22,0,0,1-.93,2.36,3.61,3.61,0,0,1-2.67.93,3.67,3.67,0,0,1-2.68-1,3.19,3.19,0,0,1-1-2.35,2.55,2.55,0,0,1,.28-1.26,3.38,3.38,0,0,1,.61-.85l.8.66a2.7,2.7,0,0,0-.43.59,1.69,1.69,0,0,0-.18.82,1.87,1.87,0,0,0,.68,1.5,2.78,2.78,0,0,0,1.85.57,3,3,0,0,0,1.88-.54,1.94,1.94,0,0,0,.67-1.59,1.44,1.44,0,0,0-.31-1h-1.5V42h-1V39.55h3.08a3,3,0,0,1,.59.94A3.33,3.33,0,0,1,55,41.78Z"/><path d="M54.88,35.87h-7V34.63h5.94V31.72h1Z"/><path d="M54.88,30.51h-7V26.3H49v3h1.78V26.76h1.05v2.51h2.06V26.19h1Z"/><path d="M54.88,24.76h-7V23.49l3.93-2.18,1.48-.71v-.05l-1.16.11c-.42,0-.83.05-1.22.05h-3V19.53h7V20.8L51,23l-1.48.71v0l1.16-.11c.41,0,.81-.05,1.2-.05h3.05Z"/><path d="M55,15.72a3.49,3.49,0,0,1-1,2.52l-.85-.73a2.88,2.88,0,0,0,.57-.85,2.24,2.24,0,0,0,.22-1,1.45,1.45,0,0,0-.24-.91.79.79,0,0,0-.65-.31.7.7,0,0,0-.63.3,6.16,6.16,0,0,0-.4.78l-.41,1a3.12,3.12,0,0,1-.66,1,1.59,1.59,0,0,1-1.2.45,1.77,1.77,0,0,1-1.4-.66,2.52,2.52,0,0,1-.57-1.69A3,3,0,0,1,48,14.4a3.12,3.12,0,0,1,.65-1l.79.63a2.92,2.92,0,0,0-.44.7,2,2,0,0,0-.16.82,1.31,1.31,0,0,0,.22.8.71.71,0,0,0,.6.3.67.67,0,0,0,.61-.34,6.14,6.14,0,0,0,.38-.77l.39-1a2.93,2.93,0,0,1,.7-1,1.72,1.72,0,0,1,1.19-.39,1.91,1.91,0,0,1,1.46.66A2.63,2.63,0,0,1,55,15.72Z"/></svg>