<svg id="Layer_1" data-name="Layer 1" xmlns="http://www.w3.org/2000/svg" xmlns:xlink="http://www.w3.org/1999/xlink" width="7.2" height="53.28" viewBox="0 0 7.2 53.28"><defs><style>.cls-1{fill:url(#linear-gradient);}.cls-2{fill:url(#linear-gradient-2);}.cls-3{fill:#140000;}</style><linearGradient id="linear-gradient" x1="-2307.83" y1="3946.94" x2="-2307.83" y2="3893.65" gradientTransform="translate(-2304.83 3946.94) rotate(180)" gradientUnits="userSpaceOnUse"><stop offset="0.02" stop-color="#666"/><stop offset="0.02" stop-color="#6e6e6e"/><stop offset="0.05" stop-color="#999899"/><stop offset="0.07" stop-color="#b8b7b8"/><stop offset="0.09" stop-color="#cbcacb"/><stop offset="0.11" stop-color="#d2d1d2"/><stop offset="0.18" stop-color="#c5c4c5"/><stop offset="0.29" stop-color="#979696"/><stop offset="0.33" stop-color="#919090"/><stop offset="0.5" stop-color="#f2f2f2"/><stop offset="0.78" stop-color="#c9c8c8"/><stop offset="0.85" stop-color="#fff"/><stop offset="1" stop-color="#4d4d4d"/></linearGradient><linearGradient id="linear-gradient-2" x1="-2264.83" y1="3863.94" x2="-2264.83" y2="3810.65" gradientTransform="translate(-2261.83 3863.94) rotate(180)" gradientUnits="userSpaceOnUse"><stop offset="0" stop-color="lime" stop-opacity="0.49"/><stop offset="0.56" stop-color="lime" stop-opacity="0.43"/><stop offset="1" stop-color="lime" stop-opacity="0.4"/></linearGradient></defs><title>LightPath_ExcitationFilter copy</title><path class="cls-1" d="M4.15,53.28H0A210.76,210.76,0,0,0,1.66,28,213.14,213.14,0,0,0,0,0H4.15S8.31,26.64,4.15,53.28Z"/><path class="cls-2" d="M4.15,53.28H0A210.76,210.76,0,0,0,1.66,28,213.14,213.14,0,0,0,0,0H4.15S8.31,26.64,4.15,53.28Z"/><path class="cls-3" d="M5.37,35.5H2.45V33.61H3.1v1.12h.46v-1H4.2v1h.53V33.57h.64Z"/><path class="cls-3" d="M5.37,33.28l-1.5-.79-1.42.74v-.86l.48-.2.22-.09L3.41,32h0l-.26-.1-.22-.08-.48-.18v-.82l1.46.74,1.46-.79v.87l-.52.23-.23.1L4.37,32h0l.25.1.23.09.52.22Z"/><path class="cls-3" d="M4.5,30.66H4V29.52H4.5Z"/><path class="cls-3" d="M5.37,29H2.45V27.09H3.1v1.14h.56v-1H4.3v1H5.37Z"/><path class="cls-3" d="M5.37,26.59H2.45v-.77H5.37Z"/><path class="cls-3" d="M5.37,25.17H2.45v-.78H4.73v-1.1h.64Z"/><path class="cls-3" d="M5.37,22.77H3.1v.77H2.45V21.22H3.1V22H5.37Z"/><path class="cls-3" d="M5.37,20.79H2.45V18.9H3.1V20h.46v-1H4.2v1h.53V18.85h.64Z"/><path class="cls-3" d="M5.37,17.51v.77H2.45v-1.1a2.08,2.08,0,0,1,.08-.58.89.89,0,0,1,.3-.43A.85.85,0,0,1,3.39,16a.89.89,0,0,1,.85.47l1.13-.64v.87l-1,.5v.3Zm-1.59,0v-.28c0-.31-.13-.47-.39-.47a.29.29,0,0,0-.26.12.8.8,0,0,0-.07.35v.28Z"/></svg>