<svg id="Layer_1" data-name="Layer 1" xmlns="http://www.w3.org/2000/svg" xmlns:xlink="http://www.w3.org/1999/xlink" width="87.11" height="87.3" viewBox="0 0 87.11 87.3"><defs><style>.cls-1{stroke:#000;stroke-miterlimit:10;stroke-width:4.5px;fill:url(#linear-gradient);}.cls-2{fill:#333;fill-opacity:0.58;}.cls-3{fill:#e6e6e6;}.cls-4{fill:url(#linear-gradient-2);}.cls-5{fill:url(#linear-gradient-3);}.cls-6{fill:url(#linear-gradient-4);}.cls-7{fill:url(#linear-gradient-5);}.cls-8{fill:#fff;}.cls-9{fill:#140000;}</style><linearGradient id="linear-gradient" x1="699.45" y1="-928.66" x2="616.87" y2="-1011.24" gradientTransform="matrix(0, 1, 1, 0, 1013.45, -614.51)" gradientUnits="userSpaceOnUse"><stop offset="0" stop-color="#1a1a1a"/><stop offset="0.09" stop-color="#2c2c2c"/><stop offset="0.15" stop-color="#333"/><stop offset="0.49" stop-color="#666"/><stop offset="0.78" stop-color="#333"/><stop offset="1" stop-color="#1a1a1a"/></linearGradient><linearGradient id="linear-gradient-2" x1="43.5" y1="87.15" x2="43.5" y2="82.65" gradientTransform="matrix(1, 0, 0, 1, 0, 0)" xlink:href="#linear-gradient"/><linearGradient id="linear-gradient-3" x1="43.5" y1="4.65" x2="43.5" y2="0.15" gradientTransform="matrix(1, 0, 0, 1, 0, 0)" xlink:href="#linear-gradient"/><linearGradient id="linear-gradient-4" x1="-418.93" y1="880.36" x2="-418.93" y2="875.86" gradientTransform="translate(421.18 -834.46)" xlink:href="#linear-gradient"/><linearGradient id="linear-gradient-5" x1="-418.93" y1="962.86" x2="-418.93" y2="958.36" gradientTransform="translate(503.68 -916.96)" xlink:href="#linear-gradient"/></defs><title>LightPath_FilterSet copy</title><rect class="cls-1" x="2.1" y="2.47" width="82.8" height="82.36" transform="translate(87.15 0.15) rotate(90)"/><polygon class="cls-2" points="81.51 84.34 82.79 83.06 66.78 67.05 68.88 64.95 22.95 19.02 20.84 21.11 4.84 5.11 3.56 6.39 19.57 22.39 17.46 24.5 63.4 70.43 65.5 68.33 81.51 84.34"/><polygon class="cls-3" points="81.51 82.84 82.79 81.56 66.78 65.55 68.88 63.45 22.95 17.52 20.84 19.61 4.84 3.61 3.56 4.89 19.57 20.89 17.46 23 63.4 68.93 65.5 66.83 81.51 82.84"/><rect class="cls-4" y="82.65" width="87" height="4.5"/><rect class="cls-5" y="0.15" width="87" height="4.5"/><rect class="cls-6" x="-41.25" y="41.4" width="87" height="4.5" transform="translate(-41.4 45.9) rotate(-90)"/><rect class="cls-7" x="41.25" y="41.4" width="87" height="4.5" transform="translate(41.1 128.4) rotate(-90)"/><rect class="cls-3" x="17.71" y="83.24" width="51.52" height="3"/><rect class="cls-3" x="83.14" y="19.23" width="3.48" height="48.09"/><path class="cls-8" d="M40.78,13.33V8h3.5V9.15H42.2v1H44v1.18H42.2v2Z"/><path class="cls-8" d="M45.21,13.33V8h1.41v5.36Z"/><path class="cls-8" d="M47.81,13.33V8h1.42v4.17h2v1.19Z"/><path class="cls-8" d="M52.22,13.33V9.15H50.8V8h4.26V9.15H53.64v4.18Z"/><path class="cls-8" d="M55.85,13.33V8h3.46V9.15h-2V10H59v1.19H57.27v1H59.4v1.19Z"/><path class="cls-8" d="M61.85,13.33H60.43V8h2a3.64,3.64,0,0,1,1.07.15A1.49,1.49,0,0,1,64.61,9.7a1.74,1.74,0,0,1-.24,1,1.65,1.65,0,0,1-.63.6l1.17,2.08H63.32l-.92-1.8h-.55Zm0-2.92h.52c.57,0,.85-.24.85-.71A.53.53,0,0,0,63,9.22a1.25,1.25,0,0,0-.64-.13h-.52Z"/><path class="cls-8" d="M69,13.43a3.33,3.33,0,0,1-1-.19,2.86,2.86,0,0,1-1-.58l.81-1a2.43,2.43,0,0,0,.62.37,1.6,1.6,0,0,0,.63.15c.41,0,.62-.13.62-.38a.31.31,0,0,0-.2-.29l-.53-.23L68.23,11a2,2,0,0,1-.76-.55,1.42,1.42,0,0,1-.32-1,1.51,1.51,0,0,1,.56-1.17,2.1,2.1,0,0,1,1.44-.49,2.77,2.77,0,0,1,.93.17,2.46,2.46,0,0,1,.85.54l-.71.89a2.68,2.68,0,0,0-.52-.28,1.45,1.45,0,0,0-.55-.1c-.38,0-.56.12-.56.36a.31.31,0,0,0,.21.29l.58.25.65.25a1.83,1.83,0,0,1,.78.55,1.5,1.5,0,0,1,.27.92,1.61,1.61,0,0,1-.55,1.2A2.18,2.18,0,0,1,69,13.43Z"/><path class="cls-8" d="M71.93,13.33V8H75.4V9.15H73.35V10H75.1v1.19H73.35v1h2.13v1.19Z"/><path class="cls-8" d="M77.55,13.33V9.15H76.13V8h4.25V9.15H79v4.18Z"/><path class="cls-9" d="M33.79,36.84l3.13-3.13.79.79a2.06,2.06,0,0,1,.7,1.5,2.78,2.78,0,0,1-2.32,2.31,2,2,0,0,1-1.5-.66Zm.72.08.36.35a1.42,1.42,0,0,0,1.15.5,2,2,0,0,0,1.2-.65,1.91,1.91,0,0,0,.64-1.19,1.45,1.45,0,0,0-.51-1.14L37,34.43Z"/><path class="cls-9" d="M36.73,39.78l3.13-3.13.4.39-3.14,3.14Z"/><path class="cls-9" d="M39.11,42.28a1.83,1.83,0,0,1-.55-1.41,2.45,2.45,0,0,1,.81-1.58A2.38,2.38,0,0,1,41,38.5a1.83,1.83,0,0,1,1.43.55,1.61,1.61,0,0,1,.39.62,2.09,2.09,0,0,1,.08.63l-.47,0a1.61,1.61,0,0,0-.07-.49,1.07,1.07,0,0,0-.27-.44A1.21,1.21,0,0,0,41,39a2,2,0,0,0-1.19.65,2.12,2.12,0,0,0-.68,1.2,1.22,1.22,0,0,0,.36,1,1.27,1.27,0,0,0,.5.31,1.54,1.54,0,0,0,.58.07l0,.46a2,2,0,0,1-.75-.08A1.68,1.68,0,0,1,39.11,42.28Z"/><path class="cls-9" d="M40.71,43.76l3.13-3.13.4.4-1.32,1.31,1.46,1.45,1.31-1.31.4.4L43,46l-.4-.4L44,44.14l-1.46-1.46L41.1,44.16Z"/><path class="cls-9" d="M44.22,47.27l-.4-.4L47,43.74l1,1a2,2,0,0,1,.59,1,1.06,1.06,0,0,1-.37,1,1.27,1.27,0,0,1-.78.39,1.33,1.33,0,0,1-.81-.21L46,49l-.45-.45.57-2.08L45.54,46Zm1.64-1.65.53.53c.5.5,1,.55,1.36.15a.65.65,0,0,0,.24-.63,1.52,1.52,0,0,0-.44-.69L47,44.46Z"/><path class="cls-9" d="M47.63,50.8a1.72,1.72,0,0,1-.52-1.4,2.51,2.51,0,0,1,.83-1.57A2.44,2.44,0,0,1,49.49,47a1.71,1.71,0,0,1,1.39.54A1.75,1.75,0,0,1,51.42,49a2.46,2.46,0,0,1-.81,1.55,2.51,2.51,0,0,1-1.57.83A1.73,1.73,0,0,1,47.63,50.8Zm.35-.35a1.11,1.11,0,0,0,1,.32,2.19,2.19,0,0,0,1.19-.68,2.14,2.14,0,0,0,.67-1.18,1.15,1.15,0,0,0-.34-1,1.12,1.12,0,0,0-1-.33,2.12,2.12,0,0,0-1.17.67,2.15,2.15,0,0,0-.69,1.19A1.12,1.12,0,0,0,48,50.45Z"/><path class="cls-9" d="M49.71,52.76l3.13-3.13.39.39L50.1,53.15Z"/><path class="cls-9" d="M52.09,55.25a1.78,1.78,0,0,1-.55-1.4,2.84,2.84,0,0,1,2.39-2.38,1.85,1.85,0,0,1,1.43.56,1.41,1.41,0,0,1,.38.62,1.78,1.78,0,0,1,.09.63l-.47,0a1.68,1.68,0,0,0-.07-.5,1.06,1.06,0,0,0-.28-.44A1.24,1.24,0,0,0,54,52a2,2,0,0,0-1.19.66,2.06,2.06,0,0,0-.68,1.2,1.17,1.17,0,0,0,.36,1.05,1.23,1.23,0,0,0,.49.31,1.88,1.88,0,0,0,.59.06l0,.47a1.85,1.85,0,0,1-.75-.09A1.49,1.49,0,0,1,52.09,55.25Z"/><path class="cls-8" d="M82,59H77.42V56.27h.49v2.14h1.44V56.6h.5v1.81h1.67V56.19H82Z"/><path class="cls-8" d="M82,55.73l-2.37-1.39-2.22,1.29V55l1.18-.65.3-.17.36-.2v0l-.36-.18-.3-.16-1.18-.63V52.3l2.25,1.3L82,52.21v.67l-1.24.7-.34.19L80,54v0l.39.19.34.18,1.24.7Z"/><path class="cls-8" d="M80.48,52H80V50.32h.44Z"/><path class="cls-8" d="M82,49.37H77.42V46.62h.49v2.15h1.55V47H80v1.82H82Z"/><path class="cls-8" d="M82,45.78H77.42v-.61H82Z"/><path class="cls-8" d="M82,43.86H77.42v-.6h4.1v-2.1H82Z"/><path class="cls-8" d="M82,40.2h-4.1v1.45h-.49v-3.5h.49v1.44H82Z"/><path class="cls-8" d="M82,37.29H77.42V34.54h.49v2.14h1.44V34.87h.5v1.81h1.67V34.46H82Z"/><path class="cls-8" d="M82,32.85v.6H77.42V32a2.31,2.31,0,0,1,.29-1.21,1.08,1.08,0,0,1,1-.47,1.2,1.2,0,0,1,.86.3,1.5,1.5,0,0,1,.44.78l2-1.22v.69L80.07,32v.87Zm-2.41,0V32c0-.77-.3-1.15-.89-1.15a.69.69,0,0,0-.63.29,1.59,1.59,0,0,0-.19.86v.81Z"/><path class="cls-8" d="M28.77,81.51V76.92h2.84v.49H29.4v1.44h1.86v.5H29.4V81h2.28v.5Z"/><path class="cls-8" d="M32.73,81.51V76.92h.75l.94,2.45.18.48c.06.16.11.32.18.48h0c.06-.16.11-.32.16-.48l.17-.48.93-2.45h.76v4.59h-.58V79c0-.2,0-.42,0-.67s0-.48,0-.68h0l-.39,1L35,81.05h-.41l-.94-2.38-.38-1h0c0,.2,0,.42,0,.68s0,.47,0,.67v2.53Z"/><path class="cls-8" d="M37.81,80v-.44h1.73V80Z"/><path class="cls-8" d="M40.51,81.51V76.92h2.84v.49H41.14V79H43v.49H41.14v2.06Z"/><path class="cls-8" d="M44.22,81.51V76.92h.62v4.59Z"/><path class="cls-8" d="M46.19,81.51V76.92h.63V81H49v.5Z"/><path class="cls-8" d="M50,81.51v-4.1H48.47v-.49h3.61v.49H50.59v4.1Z"/><path class="cls-8" d="M53,81.51V76.92H55.8v.49H53.58v1.44h1.87v.5H53.58V81h2.29v.5Z"/><path class="cls-8" d="M57.54,81.51h-.62V76.92h1.53a2.46,2.46,0,0,1,1.25.29,1.06,1.06,0,0,1,.48,1,1.22,1.22,0,0,1-.3.86,1.68,1.68,0,0,1-.81.44l1.25,2h-.7l-1.19-1.94h-.89Zm0-2.41h.82c.8,0,1.2-.3,1.2-.89a.71.71,0,0,0-.31-.64,1.79,1.79,0,0,0-.89-.18h-.82Z"/></svg>