<svg id="Layer_1" data-name="Layer 1" xmlns="http://www.w3.org/2000/svg" viewBox="0 0 100 100"><defs><style>.cls-1{fill:none;stroke:#000;stroke-miterlimit:10;stroke-width:0.25px;}</style></defs><path class="cls-1" d="M93.28,87.07l-7.39,7.57C73.06,83.32,59.35,70.42,45.22,55.84c-14.52-15-27.31-29.45-38.5-43l7.39-7.56a445,445,0,0,1,41.3,37.46A449.17,449.17,0,0,1,93.28,87.07Z"/><path d="M31.2,34.9,36.14,30l1.32,1.32a3.48,3.48,0,0,1,1.16,2.38,3.44,3.44,0,0,1-1.21,2.46,3.52,3.52,0,0,1-2.48,1.24,3.27,3.27,0,0,1-2.36-1.1Zm1.59.17.38.39a2.2,2.2,0,0,0,1.59.72,2.73,2.73,0,0,0,1.76-.94,2.63,2.63,0,0,0,.91-1.73,2.14,2.14,0,0,0-.74-1.57l-.39-.39Z"/><path d="M35.92,39.62l4.94-4.94.87.88L36.8,40.5Z"/><path d="M39.93,43.81A3.05,3.05,0,0,1,39,41.58,3.69,3.69,0,0,1,40.25,39,4,4,0,0,1,41.94,38a3.08,3.08,0,0,1,3.14.76,2.68,2.68,0,0,1,.64,1,3.07,3.07,0,0,1,.16,1l-1,.1a2.6,2.6,0,0,0-.11-.74,1.64,1.64,0,0,0-.4-.63A1.73,1.73,0,0,0,42.87,39a2.81,2.81,0,0,0-1.7.92,3,3,0,0,0-1,1.69,1.69,1.69,0,0,0,.51,1.47,1.77,1.77,0,0,0,.73.45,2.56,2.56,0,0,0,.83.1l-.08,1A2.81,2.81,0,0,1,39.93,43.81Z"/><path d="M42.4,46.1l4.94-4.94.87.88-2,2,2,2,2-2,.88.88-4.94,4.94L45.27,49l2.2-2.19-2-2L43.27,47Z"/><path d="M48.28,52l-.88-.87,4.94-4.94L54,47.84a3.51,3.51,0,0,1,1,1.61,1.77,1.77,0,0,1-.63,1.67,2.08,2.08,0,0,1-1.18.64A2.14,2.14,0,0,1,52,51.55l-.89,3.24-1-1,.87-3-.76-.76Zm2.63-2.62.7.7c.7.69,1.33.76,1.89.2a.92.92,0,0,0,.32-.87,2,2,0,0,0-.6-.94l-.7-.7Z"/><path d="M53.7,57.59a2.79,2.79,0,0,1-.87-2.26,3.87,3.87,0,0,1,1.28-2.5,3.82,3.82,0,0,1,2.47-1.26,2.86,2.86,0,0,1,2.24.9,2.8,2.8,0,0,1,.9,2.24,3.8,3.8,0,0,1-1.25,2.48A3.89,3.89,0,0,1,56,58.47,2.84,2.84,0,0,1,53.7,57.59Zm.76-.77a1.54,1.54,0,0,0,1.43.44,3.23,3.23,0,0,0,1.67-1,3.11,3.11,0,0,0,1-1.65,1.63,1.63,0,0,0-1.86-1.86,3,3,0,0,0-1.65,1,3.16,3.16,0,0,0-1,1.67A1.53,1.53,0,0,0,54.46,56.82Z"/><path d="M57,60.67l4.94-4.94.88.88-4.94,4.93Z"/><path d="M61,64.86a3,3,0,0,1-.92-2.24,3.65,3.65,0,0,1,1.24-2.53A4.11,4.11,0,0,1,63,59a3,3,0,0,1,3.14.76,2.46,2.46,0,0,1,.65,1,3.25,3.25,0,0,1,.15,1l-1,.1a2.19,2.19,0,0,0-.11-.73,1.63,1.63,0,0,0-.4-.64A1.73,1.73,0,0,0,63.91,60a2.89,2.89,0,0,0-1.7.92,3,3,0,0,0-1,1.7,1.65,1.65,0,0,0,.51,1.47,1.71,1.71,0,0,0,.73.45,2.82,2.82,0,0,0,.83.1l-.08,1A2.82,2.82,0,0,1,61,64.86Z"/><path d="M50.2,28l4.62-4.63,1.46,1.46a3.59,3.59,0,0,1,1,1.59,1.71,1.71,0,0,1-.61,1.63,1.87,1.87,0,0,1-1.64.63,3,3,0,0,1-1.62-.89l-.67-.67L51,28.86Zm3.17-1.53.6.6c.68.67,1.3.73,1.86.17a.92.92,0,0,0,.34-.87,2.07,2.07,0,0,0-.61-.94L55,24.89Z"/><path d="M54.31,32.15l4.63-4.62.82.82-3.93,3.93,1.92,1.93-.69.69Z"/><path d="M60.36,38.2l.89-1.61L59.69,35l-1.61.89-.83-.83L63.38,32l1,1-3.12,6.13Zm.9-4-.73.4,1.18,1.18.4-.73c.17-.32.35-.64.54-1l.57-1,0,0-1,.58Z"/><path d="M63.48,41.5a2.85,2.85,0,0,1-.86-2.1A3.38,3.38,0,0,1,63.78,37a3.79,3.79,0,0,1,1.58-1A2.92,2.92,0,0,1,67,36a2.79,2.79,0,0,1,1.35.77,2.38,2.38,0,0,1,.6,1,3.19,3.19,0,0,1,.15,1l-1,.09a2.2,2.2,0,0,0-.1-.68,1.4,1.4,0,0,0-.38-.59A1.62,1.62,0,0,0,66.23,37a2.71,2.71,0,0,0-1.59.87,2.79,2.79,0,0,0-.89,1.58,1.57,1.57,0,0,0,.48,1.38,1.49,1.49,0,0,0,.68.42,2.53,2.53,0,0,0,.78.1l-.08,1A2.61,2.61,0,0,1,63.48,41.5Z"/><path d="M65.8,43.64,70.42,39l2.79,2.79-.7.69-2-2-1.18,1.18L71,43.37l-.69.69L68.67,42.4l-1.36,1.37,2,2-.7.69Z"/><path d="M26.2,55l4.63-4.63.82.82L29.79,53l1.87,1.87L33.52,53l.82.82-4.62,4.62-.83-.82,2.06-2-1.88-1.87L27,55.78Z"/><path d="M30.89,59.64,35.51,55,38.3,57.8l-.69.7-2-2-1.18,1.18,1.66,1.66-.69.7-1.66-1.66L32.4,59.77l2,2-.69.69Z"/><path d="M35.51,64.27l-.82-.82,4.63-4.63,1.56,1.57a3.17,3.17,0,0,1,.91,1.5,1.62,1.62,0,0,1-.58,1.56,1.94,1.94,0,0,1-1.11.61,2,2,0,0,1-1.14-.2l-.82,3L37.22,66,38,63.16l-.71-.7ZM38,61.81l.66.65c.65.65,1.24.72,1.77.19a.85.85,0,0,0,.3-.81,1.92,1.92,0,0,0-.56-.88l-.66-.66Z"/><path d="M38.88,67.63,43.5,63l2.79,2.79-.69.69-2-2L42.45,65.7l1.66,1.66-.69.7L41.76,66.4l-1.37,1.36,2,2-.69.69Z"/></svg>