<svg id="Layer_1" data-name="Layer 1" xmlns="http://www.w3.org/2000/svg" xmlns:xlink="http://www.w3.org/1999/xlink" viewBox="0 0 100 100"><defs><style>.cls-1,.cls-2,.cls-3{fill:none;stroke-miterlimit:10;}.cls-1,.cls-3{stroke:#000;}.cls-1{stroke-width:0.5px;}.cls-2{stroke-width:0;stroke:url(#linear-gradient);}.cls-3{stroke-width:0.38px;}</style><linearGradient id="linear-gradient" x1="7.85" y1="50" x2="92.15" y2="50" gradientTransform="translate(100 100) rotate(180)" gradientUnits="userSpaceOnUse"><stop offset="0" stop-color="#c12730"/><stop offset="0.33" stop-color="#9f1b2b"/><stop offset="0.77" stop-color="#780d26"/><stop offset="1" stop-color="#690824"/></linearGradient></defs><path class="cls-1" d="M14.85,5h77.3a0,0,0,0,1,0,0V95a0,0,0,0,1,0,0H14.85a7,7,0,0,1-7-7V12a7,7,0,0,1,7-7Z" transform="translate(100 100) rotate(-180)"/><path class="cls-2" d="M14.85,5h77.3a0,0,0,0,1,0,0V95a0,0,0,0,1,0,0H14.85a7,7,0,0,1-7-7V12a7,7,0,0,1,7-7Z" transform="translate(100 100) rotate(-180)"/><path class="cls-3" d="M61.38,63.91A6.47,6.47,0,0,1,60,65.78l-.11.13H39.34l-.12-.13,0,0a6.81,6.81,0,0,1-1.35-1.84,13.35,13.35,0,0,1,.3-13.67c2.28-3.71,6.15-6.65,10.42-7.06a10.5,10.5,0,0,1,2.1,0c4.27.41,8.13,3.35,10.42,7.06A13.35,13.35,0,0,1,61.38,63.91Z"/><path class="cls-3" d="M59.88,65.91c-2.77,2.89-2.77,11.23-2.77,11.23a2.22,2.22,0,0,1-.06.51,4,4,0,0,1-4.12,2.9H46.29a4,4,0,0,1-4.12-2.9,2.22,2.22,0,0,1-.06-.51s0-8.34-2.77-11.23Z"/><rect class="cls-3" x="43.99" y="80.55" width="11.25" height="1.41" rx="0.21"/><rect class="cls-3" x="43.99" y="81.96" width="11.25" height="1.41" rx="0.21"/><rect class="cls-3" x="43.99" y="83.37" width="11.25" height="1.41" rx="0.21"/><path class="cls-3" d="M44.14,84.77H55.08a.15.15,0,0,1,.15.15v.68a.57.57,0,0,1-.57.57H44.56a.57.57,0,0,1-.57-.57v-.68A.15.15,0,0,1,44.14,84.77Z"/><path class="cls-3" d="M45.86,86.18v.12a1.84,1.84,0,0,0,1.87,1.75h3.75a1.84,1.84,0,0,0,1.88-1.87Z"/><path d="M38.4,16.19V10.3h1.85a3,3,0,0,1,1.63.4,1.52,1.52,0,0,1,.65,1.42,1.65,1.65,0,0,1-.64,1.44,2.66,2.66,0,0,1-1.6.47h-.85v2.16Zm1-3h.77c.86,0,1.29-.36,1.29-1.07a.85.85,0,0,0-.33-.77,1.93,1.93,0,0,0-1-.21h-.73Z"/><path d="M43.64,16.19V10.3h1v5h2.45v.89Z"/><path d="M51.33,16.19l-.46-1.6h-2l-.46,1.6H47.37l1.92-5.89h1.22l1.92,5.89Zm-2-3.14-.2.72h1.5l-.21-.72-.27-1c-.09-.33-.17-.66-.26-1h0c-.08.33-.17.66-.25,1S49.44,12.74,49.34,13.05Z"/><path d="M55.42,16.29a2.56,2.56,0,0,1-1.89-.78,3.08,3.08,0,0,1-.77-2.25,3.53,3.53,0,0,1,.37-1.65,2.6,2.6,0,0,1,1-1,2.54,2.54,0,0,1,1.35-.37,2.07,2.07,0,0,1,1,.23,2.67,2.67,0,0,1,.72.52l-.56.67a2,2,0,0,0-.5-.37,1.41,1.41,0,0,0-.62-.14,1.45,1.45,0,0,0-1.18.57,2.4,2.4,0,0,0-.47,1.56,2.48,2.48,0,0,0,.45,1.58,1.38,1.38,0,0,0,1.17.58,1.49,1.49,0,0,0,.71-.17,2.09,2.09,0,0,0,.55-.44l.56.66A2.35,2.35,0,0,1,55.42,16.29Z"/><path d="M58.25,16.19V10.3H61.8v.88H59.3v1.51h2.11v.88H59.3V15.3h2.59v.89Z"/><path d="M21.94,27V21.1h1v5h2.44V27Z"/><path d="M26.46,27V21.1h1.05V27Z"/><path d="M31.47,27.09a2.72,2.72,0,0,1-2-.78,3,3,0,0,1-.79-2.25,3.07,3.07,0,0,1,.81-2.26,2.67,2.67,0,0,1,2-.81,2.2,2.2,0,0,1,1.07.24,2.88,2.88,0,0,1,.72.51l-.56.67a2.54,2.54,0,0,0-.5-.36,1.41,1.41,0,0,0-.69-.15,1.57,1.57,0,0,0-1.26.57A2.3,2.3,0,0,0,29.76,24a2.48,2.48,0,0,0,.46,1.58,1.61,1.61,0,0,0,1.34.58,1.19,1.19,0,0,0,.85-.27V24.66H31.29V23.8h2.06v2.59a2.28,2.28,0,0,1-.79.5A2.75,2.75,0,0,1,31.47,27.09Z"/><path d="M34.65,27V21.1H35.7v2.37h2.38V21.1h1V27h-1V24.38H35.7V27Z"/><path d="M41.81,27V22H40.1V21.1h4.45V22h-1.7v5Z"/><path d="M49.05,27.09a2.9,2.9,0,0,1-2.12-.86l.61-.71a2.52,2.52,0,0,0,.72.48,2,2,0,0,0,.81.19,1.19,1.19,0,0,0,.76-.21.65.65,0,0,0,.26-.55.57.57,0,0,0-.25-.53,4.33,4.33,0,0,0-.65-.33l-.81-.36a2.61,2.61,0,0,1-.81-.54,1.34,1.34,0,0,1-.38-1,1.47,1.47,0,0,1,.56-1.18A2.09,2.09,0,0,1,49.17,21a2.69,2.69,0,0,1,1.81.75l-.53.67a2.51,2.51,0,0,0-.59-.37,1.74,1.74,0,0,0-.69-.14,1.1,1.1,0,0,0-.68.19.62.62,0,0,0,0,1,4.37,4.37,0,0,0,.65.31l.8.34a2.41,2.41,0,0,1,.85.58,1.47,1.47,0,0,1,.34,1,1.59,1.59,0,0,1-.57,1.23A2.21,2.21,0,0,1,49.05,27.09Z"/><path d="M54.52,27.09a2.35,2.35,0,0,1-1.86-.82A3.26,3.26,0,0,1,51.93,24a3.19,3.19,0,0,1,.73-2.23,2.4,2.4,0,0,1,1.86-.8,2.43,2.43,0,0,1,1.88.8A3.23,3.23,0,0,1,57.12,24a3.3,3.3,0,0,1-.72,2.25A2.38,2.38,0,0,1,54.52,27.09Zm0-.9a1.3,1.3,0,0,0,1.11-.59A2.69,2.69,0,0,0,56,24a2.58,2.58,0,0,0-.41-1.56,1.32,1.32,0,0,0-1.11-.56,1.3,1.3,0,0,0-1.1.56A2.58,2.58,0,0,0,53,24a2.69,2.69,0,0,0,.42,1.58A1.28,1.28,0,0,0,54.52,26.19Z"/><path d="M60.51,27.09a2.16,2.16,0,0,1-1.63-.62,2.91,2.91,0,0,1-.6-2.07V21.1h1v3.38a2,2,0,0,0,.33,1.33,1.09,1.09,0,0,0,.86.38,1.14,1.14,0,0,0,.88-.38,2,2,0,0,0,.34-1.33V21.1h1v3.3a2.91,2.91,0,0,1-.6,2.07A2.13,2.13,0,0,1,60.51,27.09Z"/><path d="M65.24,27h-1V21.1h2a3,3,0,0,1,1.54.38,1.48,1.48,0,0,1,.62,1.37A1.76,1.76,0,0,1,68,23.94a1.84,1.84,0,0,1-.85.59L68.58,27H67.41l-1.27-2.31h-.9Zm0-3.14h.84c.83,0,1.24-.33,1.24-1a.78.78,0,0,0-.32-.71,1.77,1.77,0,0,0-.92-.2h-.84Z"/><path d="M71.87,27.09A2.54,2.54,0,0,1,70,26.31a3.08,3.08,0,0,1-.77-2.25,3.53,3.53,0,0,1,.36-1.65,2.62,2.62,0,0,1,1-1.05A2.54,2.54,0,0,1,71.91,21a2.13,2.13,0,0,1,1,.23,2.46,2.46,0,0,1,.71.52l-.56.67a1.8,1.8,0,0,0-.5-.37,1.34,1.34,0,0,0-.61-.14,1.47,1.47,0,0,0-1.19.57A2.46,2.46,0,0,0,70.29,24a2.54,2.54,0,0,0,.44,1.58,1.41,1.41,0,0,0,1.18.58,1.45,1.45,0,0,0,.7-.17,2.13,2.13,0,0,0,.56-.44l.56.66A2.37,2.37,0,0,1,71.87,27.09Z"/><path d="M74.71,27V21.1h3.55V22H75.75v1.51h2.12v.88H75.75V26.1h2.6V27Z"/><path d="M40.26,37.79V31.9h1v2.37h2.39V31.9h1v5.89h-1V35.18H41.3v2.61Z"/><path d="M46.22,37.79V31.9h3.55v.88h-2.5v1.51h2.11v.88H47.27v1.74h2.59v.88Z"/><path d="M52.11,37.79h-1V31.9h2a3,3,0,0,1,1.54.38,1.48,1.48,0,0,1,.62,1.37,1.76,1.76,0,0,1-.32,1.09,1.84,1.84,0,0,1-.85.59l1.4,2.46H54.28L53,35.48h-.9Zm0-3.13H53c.83,0,1.24-.34,1.24-1a.78.78,0,0,0-.32-.71,1.77,1.77,0,0,0-.92-.2h-.84Z"/><path d="M56.39,37.79V31.9h3.55v.88h-2.5v1.51h2.11v.88H57.44v1.74H60v.88Z"/></svg>