<svg id="Layer_1" data-name="Layer 1" xmlns="http://www.w3.org/2000/svg" viewBox="0 0 100 100"><defs><style>.cls-1{fill:none;stroke:#000;stroke-width:0.25px;}</style></defs><rect class="cls-1" x="91.54" y="44.02" width="3.19" height="11.96"/><rect class="cls-1" x="5.03" y="44.02" width="3.19" height="11.96"/><polygon class="cls-1" points="88.75 40.15 11.11 40.15 11.11 42.03 8.22 42.03 8.22 57.97 11.11 57.97 11.11 59.85 88.75 59.85 88.75 57.97 91.54 57.97 91.54 42.03 88.75 42.03 88.75 40.15"/><path d="M12.51,52.35V47.92h.71v3.84h1.87v.59Z"/><path d="M15.87,52.35V47.92h.71v4.43Z"/><path d="M19.55,52.43a2,2,0,0,1-1.47-.59,2.75,2.75,0,0,1,0-3.39,2,2,0,0,1,1.48-.61,1.59,1.59,0,0,1,.79.17,2,2,0,0,1,.53.38l-.38.46a1.62,1.62,0,0,0-.39-.28,1.19,1.19,0,0,0-.53-.11,1.23,1.23,0,0,0-1,.45,1.83,1.83,0,0,0-.37,1.22,1.92,1.92,0,0,0,.36,1.23,1.22,1.22,0,0,0,1,.46,1,1,0,0,0,.69-.23v-1h-.87V50H21v1.92a1.61,1.61,0,0,1-.58.37A2.1,2.1,0,0,1,19.55,52.43Z"/><path d="M22,52.35V47.92h.71v1.81h1.89V47.92h.71v4.43h-.71v-2H22.67v2Z"/><path d="M27.32,52.35V48.52H26v-.6h3.31v.6H28v3.83Z"/><path d="M32.72,52.43a2.1,2.1,0,0,1-.86-.17,2.07,2.07,0,0,1-.72-.48l.42-.48a1.85,1.85,0,0,0,.54.37,1.45,1.45,0,0,0,.63.15,1,1,0,0,0,.62-.18.54.54,0,0,0,.21-.44.47.47,0,0,0-.2-.43,3.22,3.22,0,0,0-.5-.27l-.62-.27a2.11,2.11,0,0,1-.61-.41,1,1,0,0,1-.29-.76,1.11,1.11,0,0,1,.41-.87,1.55,1.55,0,0,1,1-.35,1.88,1.88,0,0,1,.74.15,1.94,1.94,0,0,1,.6.41l-.36.45a1.82,1.82,0,0,0-.45-.29,1.29,1.29,0,0,0-.53-.1.91.91,0,0,0-.54.15.5.5,0,0,0-.2.41.45.45,0,0,0,.22.42,4.47,4.47,0,0,0,.49.25l.61.25a2,2,0,0,1,.65.44,1,1,0,0,1,.25.75,1.17,1.17,0,0,1-.41.92A1.61,1.61,0,0,1,32.72,52.43Z"/><path d="M36.8,52.43a1.73,1.73,0,0,1-1.39-.62,2.49,2.49,0,0,1-.54-1.69,2.46,2.46,0,0,1,.54-1.68,1.78,1.78,0,0,1,1.39-.6,1.8,1.8,0,0,1,1.4.6,2.46,2.46,0,0,1,.54,1.68,2.49,2.49,0,0,1-.54,1.69A1.75,1.75,0,0,1,36.8,52.43Zm0-.61a1,1,0,0,0,.88-.46A2.09,2.09,0,0,0,38,50.12a2,2,0,0,0-.33-1.22,1.09,1.09,0,0,0-1.75,0,2,2,0,0,0-.33,1.22,2.09,2.09,0,0,0,.33,1.24A1,1,0,0,0,36.8,51.82Z"/><path d="M41.28,52.43A1.61,1.61,0,0,1,40.09,52a2.07,2.07,0,0,1-.46-1.53V47.92h.71v2.57a1.53,1.53,0,0,0,.27,1,.87.87,0,0,0,.67.29,1,1,0,0,0,.7-.29,1.53,1.53,0,0,0,.27-1V47.92h.68v2.53A2.12,2.12,0,0,1,42.48,52,1.62,1.62,0,0,1,41.28,52.43Z"/><path d="M44.78,52.35h-.71V47.92h1.46a2.14,2.14,0,0,1,1.14.28,1.09,1.09,0,0,1,.46,1,1.25,1.25,0,0,1-.25.82,1.41,1.41,0,0,1-.68.45l1.09,1.87h-.8l-1-1.78h-.72Zm0-2.35h.67c.65,0,1-.26,1-.79a.64.64,0,0,0-.25-.56,1.34,1.34,0,0,0-.73-.16h-.67Z"/><path d="M49.76,52.43a1.86,1.86,0,0,1-1.41-.59,2.79,2.79,0,0,1,0-3.39,1.89,1.89,0,0,1,1.42-.61,1.47,1.47,0,0,1,.74.17,1.94,1.94,0,0,1,.52.38l-.38.46a1.49,1.49,0,0,0-.38-.28,1.06,1.06,0,0,0-.48-.11,1.14,1.14,0,0,0-.93.45,1.89,1.89,0,0,0-.36,1.22,2,2,0,0,0,.35,1.23,1.09,1.09,0,0,0,.92.46,1.2,1.2,0,0,0,.54-.13,1.62,1.62,0,0,0,.44-.35l.38.45a2,2,0,0,1-.61.48A1.77,1.77,0,0,1,49.76,52.43Z"/><path d="M51.9,52.35V47.92h2.64v.6H52.61v1.22h1.63v.6H52.61v1.42h2v.59Z"/><path d="M58.61,52.43a1.86,1.86,0,0,1-1.41-.59,2.81,2.81,0,0,1,0-3.39,1.88,1.88,0,0,1,1.42-.61,1.5,1.5,0,0,1,.74.17,2.12,2.12,0,0,1,.52.38l-.38.46a1.75,1.75,0,0,0-.39-.28,1,1,0,0,0-.47-.11,1.12,1.12,0,0,0-.93.45,1.89,1.89,0,0,0-.36,1.22,2,2,0,0,0,.34,1.23,1.09,1.09,0,0,0,.93.46,1.2,1.2,0,0,0,.54-.13,1.58,1.58,0,0,0,.43-.35l.38.45a1.85,1.85,0,0,1-.61.48A1.74,1.74,0,0,1,58.61,52.43Z"/><path d="M62.24,52.43a1.73,1.73,0,0,1-1.39-.62,2.49,2.49,0,0,1-.54-1.69,2.46,2.46,0,0,1,.54-1.68,1.78,1.78,0,0,1,1.39-.6,1.8,1.8,0,0,1,1.4.6,2.46,2.46,0,0,1,.54,1.68,2.49,2.49,0,0,1-.54,1.69A1.75,1.75,0,0,1,62.24,52.43Zm0-.61a1,1,0,0,0,.88-.46,2.09,2.09,0,0,0,.33-1.24,2,2,0,0,0-.33-1.22,1.09,1.09,0,0,0-1.75,0A2,2,0,0,0,61,50.12a2.09,2.09,0,0,0,.33,1.24A1,1,0,0,0,62.24,51.82Z"/><path d="M66.72,52.43A1.61,1.61,0,0,1,65.53,52a2.07,2.07,0,0,1-.46-1.53V47.92h.71v2.57a1.59,1.59,0,0,0,.26,1,.91.91,0,0,0,.68.29,1,1,0,0,0,.7-.29,1.53,1.53,0,0,0,.27-1V47.92h.68v2.53A2.12,2.12,0,0,1,67.92,52,1.62,1.62,0,0,1,66.72,52.43Z"/><path d="M69.5,52.35V47.92h1.36a2.37,2.37,0,0,1,1.22.29,1.15,1.15,0,0,1,.48,1.06,1.24,1.24,0,0,1-.48,1.07,2,2,0,0,1-1.2.34h-.67v1.67Zm.71-2.24h.61c.69,0,1-.28,1-.84a.69.69,0,0,0-.26-.61,1.47,1.47,0,0,0-.8-.17h-.58Z"/><path d="M73.4,52.35V47.92h.71v3.84H76v.59Z"/><path d="M76.76,52.35V47.92h.71v4.43Z"/><path d="M78.63,52.35V47.92h.73l1.45,2.59.47.94h0c0-.22,0-.47-.06-.73s0-.51,0-.75v-2h.67v4.43h-.72l-1.47-2.6-.46-.92h0c0,.23,0,.47,0,.72s0,.49,0,.73v2.07Z"/><path d="M84.87,52.43a2,2,0,0,1-1.48-.59,2.73,2.73,0,0,1,0-3.39,2,2,0,0,1,1.47-.61,1.63,1.63,0,0,1,.8.17,1.94,1.94,0,0,1,.52.38l-.38.46a1.78,1.78,0,0,0-.38-.28,1.33,1.33,0,0,0-1.53.34,1.89,1.89,0,0,0-.37,1.22,1.92,1.92,0,0,0,.36,1.23,1.24,1.24,0,0,0,1,.46,1,1,0,0,0,.69-.23v-1h-.88V50h1.51v1.92a1.45,1.45,0,0,1-.58.37A2.09,2.09,0,0,1,84.87,52.43Z"/><path d="M37.11,35.91V29.37h2.06a3.35,3.35,0,0,1,1.81.44,1.7,1.7,0,0,1,.72,1.58A1.83,1.83,0,0,1,41,33a2.88,2.88,0,0,1-1.77.52h-.94v2.4Zm1.16-3.33h.85c1,0,1.44-.4,1.44-1.19a.94.94,0,0,0-.38-.86,2.15,2.15,0,0,0-1.1-.23h-.81Z"/><path d="M42.93,35.91V29.37h1.16v5.56h2.72v1Z"/><path d="M51.48,35.91,51,34.14h-2.2l-.51,1.77H47.08l2.13-6.54h1.36l2.13,6.54Zm-2.21-3.48-.23.8h1.67l-.23-.8c-.11-.35-.21-.71-.31-1.07s-.19-.73-.28-1.09h0c-.09.36-.18.73-.28,1.09S49.38,32.08,49.27,32.43Z"/><path d="M56,36a2.83,2.83,0,0,1-2.1-.87,3.43,3.43,0,0,1-.85-2.5,3.88,3.88,0,0,1,.4-1.84,2.94,2.94,0,0,1,1.09-1.17,2.86,2.86,0,0,1,1.5-.4,2.32,2.32,0,0,1,1.1.25,2.84,2.84,0,0,1,.79.58l-.62.75a2.06,2.06,0,0,0-.56-.42,1.51,1.51,0,0,0-.68-.15,1.65,1.65,0,0,0-1.32.63,2.71,2.71,0,0,0-.51,1.74,2.78,2.78,0,0,0,.49,1.75,1.67,1.67,0,0,0,2.09.45,2.35,2.35,0,0,0,.62-.48l.62.73A2.63,2.63,0,0,1,56,36Z"/><path d="M59.17,35.91V29.37h3.94v1H60.33V32h2.35v1H60.33v1.93h2.88v1Z"/><path d="M39.17,71.91V65.37h1.16V68H43V65.37h1.16v6.54H43V69H40.33v2.9Z"/><path d="M45.8,71.91V65.37h3.94v1H47V68h2.35v1H47v1.93h2.88v1Z"/><path d="M52.34,71.91H51.18V65.37h2.21a3.23,3.23,0,0,1,1.71.42,1.63,1.63,0,0,1,.69,1.52,1.91,1.91,0,0,1-.35,1.21,2,2,0,0,1-.95.66l1.56,2.73h-1.3l-1.41-2.56h-1Zm0-3.48h.93c.92,0,1.38-.38,1.38-1.12a.85.85,0,0,0-.35-.79,2,2,0,0,0-1-.22h-.93Z"/><path d="M57.1,71.91V65.37H61v1H58.26V68h2.35v1H58.26v1.93h2.88v1Z"/></svg>