<svg id="Layer_1" data-name="Layer 1" xmlns="http://www.w3.org/2000/svg" viewBox="0 0 100 100"><path d="M63,5.32V7.57h3.22A2.44,2.44,0,0,1,68.66,10v3.53a2.43,2.43,0,0,1-2.17,2.41l-.26,0v4.28h3.1v4.19H70.9v2.24h2.26v1.13H85V26.68h1.64V72.19H85V71.06H83.22l0,.24a3.94,3.94,0,0,1-7.7,0l0-.24H73.16v1.13H70.9v2.25H69.33v4.19h-3.1v3l.26,0A2.42,2.42,0,0,1,68.66,84v3.54A2.44,2.44,0,0,1,66.22,90H63l-.08.17-2,4.51H13.19l-2-4.51L11.11,90H7.84a2.43,2.43,0,0,1-2.43-2.43V84a2.42,2.42,0,0,1,2.16-2.4l.26,0V16l-.26,0a2.43,2.43,0,0,1-2.16-2.41V10A2.43,2.43,0,0,1,7.84,7.57h3.23V5.32H63M94.59,22.09v.09q0,25-.08,50H87.24V25l3.81-1.48,3.54-1.38M63.3,5H10.77V7.27H7.84A2.73,2.73,0,0,0,5.11,10v3.53a2.74,2.74,0,0,0,2.42,2.71V81.33A2.73,2.73,0,0,0,5.11,84v3.54A2.74,2.74,0,0,0,7.84,90.3h3.07L13,95H61.06l2.09-4.68h3.07A2.74,2.74,0,0,0,69,87.57V84a2.73,2.73,0,0,0-2.43-2.7v-2.4h3.1V74.74H71.2V72.49h2.26V71.36h1.72a4.24,4.24,0,0,0,8.28,0H84.7v1.13H94.81q0-25.42.08-50.84l-8,3.1v1.63H84.7v1.13H73.46V26.38H71.2V24.14H69.63V20h-3.1V16.24A2.74,2.74,0,0,0,69,13.53V10a2.74,2.74,0,0,0-2.74-2.73H63.3V5Z"/><path d="M26.11,41.2V35.31H28a3.38,3.38,0,0,1,1.71.39,1.48,1.48,0,0,1,.68,1.4,1.62,1.62,0,0,1-.67,1.42,2.85,2.85,0,0,1-1.68.46h-.94V41.2Zm1-3H28c1,0,1.45-.37,1.45-1.12a.86.86,0,0,0-.38-.8,2.09,2.09,0,0,0-1.11-.23h-.81Z"/><path d="M31.58,41.2V35.31h1v5.1h2.63v.79Z"/><path d="M39.7,41.2l-.52-1.66H37L36.5,41.2h-1l2-5.89h1.15l2.06,5.89ZM37.5,38l-.24.77H39L38.7,38l-.3-1c-.1-.33-.19-.66-.28-1h0c-.09.33-.18.66-.28,1Z"/><path d="M43.9,41.31a2.72,2.72,0,0,1-2-.79,3.53,3.53,0,0,1,0-4.5,2.75,2.75,0,0,1,2-.82,2.26,2.26,0,0,1,1,.23,2.77,2.77,0,0,1,.73.51l-.53.61a2.29,2.29,0,0,0-.54-.38A1.6,1.6,0,0,0,44,36a1.67,1.67,0,0,0-1.31.59,2.47,2.47,0,0,0-.5,1.62,2.57,2.57,0,0,0,.48,1.65,1.6,1.6,0,0,0,1.31.6,1.69,1.69,0,0,0,.75-.17,2.09,2.09,0,0,0,.61-.46l.54.59a2.76,2.76,0,0,1-.86.64A2.67,2.67,0,0,1,43.9,41.31Z"/><path d="M46.91,41.2V35.31h3.7v.8h-2.7v1.62h2.28v.8H47.91v1.88H50.7v.79Z"/><path d="M28.07,62.77V56.89h1v2.4h2.65v-2.4h1v5.88h-1V60.11H29.07v2.66Z"/><path d="M34.33,62.77V56.89H38v.8h-2.7V59.3h2.28v.8H35.33V62h2.79v.79Z"/><path d="M40.4,62.77h-1V56.89h2.06a3.13,3.13,0,0,1,1.6.37,1.42,1.42,0,0,1,.65,1.34,1.59,1.59,0,0,1-.36,1.09,1.88,1.88,0,0,1-.94.59l1.52,2.49H42.81l-1.39-2.36h-1Zm0-3.12h.94q1.38,0,1.38-1a.8.8,0,0,0-.35-.74,2,2,0,0,0-1-.22H40.4Z"/><path d="M45,62.77V56.89h3.7v.8H46V59.3h2.28v.8H46V62h2.79v.79Z"/><path d="M18.28,52.2V46.12H20a3.2,3.2,0,0,1,2.29.77,3,3,0,0,1,.81,2.25,2.77,2.77,0,0,1-3,3.06Zm1-.79h.58c1.41,0,2.11-.75,2.11-2.27s-.7-2.23-2.11-2.23h-.58Z"/><path d="M24.39,52.2V46.12H28.2V47H25.42v1.67h2.35v.83H25.42v1.94H28.3v.81Z"/><path d="M30.94,52.2V47H29.06v-.83h4.8V47H32V52.2Z"/><path d="M35,52.2V46.12h3.81V47H36v1.67h2.35v.83H36v1.94h2.88v.81Z"/><path d="M42.72,52.31a2.8,2.8,0,0,1-2-.81,3.64,3.64,0,0,1,0-4.65A2.81,2.81,0,0,1,42.76,46a2.44,2.44,0,0,1,1.07.23,2.93,2.93,0,0,1,.75.53L44,47.4a2.17,2.17,0,0,0-.56-.39,1.51,1.51,0,0,0-.68-.15,1.7,1.7,0,0,0-1.36.62,2.53,2.53,0,0,0-.52,1.67,2.67,2.67,0,0,0,.5,1.7,1.66,1.66,0,0,0,1.35.62,1.72,1.72,0,0,0,.78-.18,2.16,2.16,0,0,0,.63-.47l.55.61a2.68,2.68,0,0,1-.89.66A2.65,2.65,0,0,1,42.72,52.31Z"/><path d="M47,52.2V47H45.1v-.83h4.8V47H48V52.2Z"/><path d="M53.21,52.31a2.6,2.6,0,0,1-2-.85,3.31,3.31,0,0,1-.78-2.32,3.24,3.24,0,0,1,.78-2.3,2.87,2.87,0,0,1,4,0,3.24,3.24,0,0,1,.78,2.3,3.31,3.31,0,0,1-.78,2.32A2.6,2.6,0,0,1,53.21,52.31Zm0-.84a1.51,1.51,0,0,0,1.27-.63,2.74,2.74,0,0,0,.47-1.7,2.63,2.63,0,0,0-.47-1.67,1.55,1.55,0,0,0-1.27-.61,1.52,1.52,0,0,0-1.26.61,2.63,2.63,0,0,0-.48,1.67,2.74,2.74,0,0,0,.48,1.7A1.48,1.48,0,0,0,53.21,51.47Z"/><path d="M58.37,52.2h-1V46.12h2.12a3.26,3.26,0,0,1,1.66.39,1.47,1.47,0,0,1,.66,1.39A1.67,1.67,0,0,1,61.42,49a2,2,0,0,1-1,.61L62,52.2H60.85l-1.43-2.44H58.37Zm0-3.22h1c.95,0,1.42-.36,1.42-1.08a.82.82,0,0,0-.36-.77,2,2,0,0,0-1.06-.23h-1Z"/></svg>