<svg id="Layer_1" data-name="Layer 1" xmlns="http://www.w3.org/2000/svg" viewBox="0 0 100 100"><defs><style>.cls-1,.cls-9{fill:#61657a;}.cls-13,.cls-2,.cls-4,.cls-5,.cls-6{fill:#fff;}.cls-10,.cls-2,.cls-3,.cls-4,.cls-5,.cls-6,.cls-7,.cls-8,.cls-9{stroke:#61657a;stroke-miterlimit:10;}.cls-10,.cls-2,.cls-3,.cls-7,.cls-8{stroke-width:0.5px;}.cls-10,.cls-12,.cls-3{fill:#d1d8e8;}.cls-16,.cls-17,.cls-18,.cls-19,.cls-20,.cls-4,.cls-9{stroke-width:0.25px;}.cls-5,.cls-6{stroke-width:2px;}.cls-10,.cls-6,.cls-8{stroke-linecap:round;}.cls-7{fill:#aab0c1;}.cls-8{fill:none;}.cls-11{opacity:0.32;}.cls-14{isolation:isolate;}.cls-15{opacity:0.42;}.cls-16{fill:#ccc;}.cls-16,.cls-17,.cls-18{stroke:#1a1a1a;}.cls-16,.cls-17,.cls-18,.cls-19,.cls-20{stroke-linejoin:round;}.cls-17{fill:#666;}.cls-18{fill:#1a1a1a;}.cls-19{fill:gray;stroke:#b3b3b3;}.cls-20{fill:#b3b3b3;stroke:#999;}</style></defs><path class="cls-1" d="M46.71,8.43s0,0,0,0c-.72-.72-3.82,1.09-6.92,4.05s-5,5.94-4.3,6.66l0,0a0,0,0,0,1,0,0h0l0,0h0s0,0,0,0l0,0v0l0,0a0,0,0,0,0,0,0h0l0,0h0s0,0,0,0,0,0,0,0a0,0,0,0,1,0,0h0a0,0,0,0,0,0,0h0l0,0s0,0,0,0l0,0,0,0a0,0,0,0,1,0,0h0a0,0,0,0,0,0,0h0l0,0,0,0s0,0,0,0,0,0,0,0v0h0a0,0,0,0,0,0,0h0l0,0s0,0,0,0,0,0,0,0h0s0,0,0,0h0s0,0,0,0,0,0,0,0,0,0,0,0l0,0s0,0,0,0h0s0,0,0,0,0,0,0,0,0,0,0,0,0,0,0,0l0,0s0,0,0,0,0,0,0,0h0v0l0,0s0,0,0,0l0,0s0,0,0,0,0,0,0,0a0,0,0,0,1,0,0h0s0,0,0,0l0,0,0,0,0,0s0,0,0,0h0s0,0,0,0h0s0,0,0,0,0,0,0,0,0,0,0,0,0,0,0,0l0,0h0v0l0,0s0,0,0,0l0,0s0,0,0,0,0,0,0,0l0,0h0a0,0,0,0,0,0,0l0,0a0,0,0,0,0,0,0s0,0,0,0l0,0h0v0l0,0v0l0,0v0h0l0,0h0a0,0,0,0,1,0,0c.73.72,3.83-1.09,6.92-4.05s5-5.94,4.3-6.66l0,0v0h0s0,0,0,0l0,0,0,0,0,0,0,0h0v0h0s0,0,0,0l0,0,0,0,0,0,0,0h0s0,0,0,0h0s0,0,0,0l0,0s0,0,0,0h0a0,0,0,0,1,0,0h0v0l0,0,0,0,0,0s0,0,0,0,0,0,0,0a0,0,0,0,1,0,0h0v0s0,0,0,0l0,0,0,0,0,0h0a0,0,0,0,1,0,0h0v0l0,0,0,0h0l0,0h0v0l0,0v0l0,0,0,0h0l0,0h0v0l0,0a0,0,0,0,0,0,0h0l0,0h0l0,0,0,0v0l0,0V9h0l0,0h0l0,0,0,0v0l0,0v0h0l0,0h0v0l0,0v0h0l0,0h0l0,0s0,0,0,0v0l0,0v0h0l0,0h0l0,0,0,0s0,0,0,0l0,0v0h0s0,0,0,0Z"/><path class="cls-2" d="M33.88,27.55c-12.5,14.68-17.68,20.72-19.64,23l-.31.37a23,23,0,0,0-4.36,9,71.81,71.81,0,0,1-3.7,9.54,2.67,2.67,0,0,0,1,2.73,2.86,2.86,0,0,0,2.94.47,50.55,50.55,0,0,1,9-5.26,21.22,21.22,0,0,0,7.81-5.23c.21-.23.37-.43.48-.57L47,38.23Z"/><path class="cls-3" d="M40.61,45.68,26.28,62.46a21,21,0,0,1-7.81,5.22,51.18,51.18,0,0,0-8.95,5.26,2.85,2.85,0,0,1-2.94-.46,2.7,2.7,0,0,1-1-2.74,69.89,69.89,0,0,0,3.7-9.53,23.05,23.05,0,0,1,4.36-9l.31-.36c1.24-1.42,2.48-2.85,3.72-4.31s2.25-2.66,3.36-4A18.77,18.77,0,0,0,24,43.64a21.5,21.5,0,0,0,6.73.63A32,32,0,0,1,40.61,45.68Z"/><path class="cls-3" d="M40.42,45.66c-.06.39-4.45.06-9.8-.75-5.12-.77-9.27-1.69-9.56-2.11v-.11c.42-.31,4.66,0,9.77.79C36.19,44.29,40.48,45.26,40.42,45.66Z"/><path class="cls-4" d="M47.06,38.14c-.67.78-4.15-1-7.78-3.92-3.46-2.82-5.8-5.71-5.41-6.64l.17-.21c.87-.54,4.21,1.19,7.68,4C45.34,34.33,47.74,37.35,47.06,38.14Z"/><path class="cls-5" d="M47.2,38.17c-.67.78-4.16-1-7.78-3.92S33.61,28.53,34,27.6l.17-.2c.87-.54,4.21,1.19,7.68,4S47.87,37.38,47.2,38.17Z"/><path class="cls-6" d="M33.64,27.41a6.78,6.78,0,0,0-2-1.39c-.57-.25-.83-.32-1-.55-.25-.42,0-1.32,2-3.45"/><path class="cls-7" d="M47.42,5.66v0c-.76-.77-4.95,1.91-9.36,6s-7.37,8-6.61,8.81h0l0,0h0a0,0,0,0,1,0,0h0a0,0,0,0,1,0,0h0a0,0,0,0,1,0,0h0s0,0,0,0h0a0,0,0,0,0,0,0h0a0,0,0,0,0,0,0h0a0,0,0,0,0,0,0h0l0,0h0l0,0h0l0,0h0l0,0h0a0,0,0,0,1,0,0h0a0,0,0,0,1,0,0h0a0,0,0,0,1,0,0h0v0h0a0,0,0,0,0,0,0h0a0,0,0,0,0,0,0h0a0,0,0,0,0,0,0h0l0,0h0l0,0h0l0,0h0l0,0h0a0,0,0,0,1,0,0h0a0,0,0,0,1,0,0h0a0,0,0,0,1,0,0h0s0,0,0,0h0a0,0,0,0,0,0,0h0a0,0,0,0,0,0,0h0a0,0,0,0,0,0,0h0l0,0h0l0,0s0,0,0,0l0,0h0l0,0h0l0,0s0,0,0,0a0,0,0,0,1,0,0h0a0,0,0,0,1,0,0h0s0,0,0,0h0a0,0,0,0,0,0,0h0a0,0,0,0,0,0,0h0a0,0,0,0,0,0,0h0l0,0h0l0,0s0,0,0,0l0,0s0,0,0,0l0,0s0,0,0,0l0,0h0a0,0,0,0,1,0,0l0,0s0,0,0,0l0,0v0l0,0v0c.76.78,5-1.91,9.36-6s7.37-8,6.61-8.8l0,0s0,0,0,0l0,0s0,0,0,0l0,0s0,0,0,0l0,0s0,0,0,0l0,0s0,0,0,0l0,0v0l0,0s0,0,0,0l0,0s0,0,0,0l0,0s0,0,0,0l0,0s0,0,0,0,0,0,0,0,0,0,0,0,0,0,0,0l0,0,0,0,0,0,0,0s0,0,0,0l0,0V7l0,0V7l0,0a0,0,0,0,0,0,0l0,0s0,0,0,0l0,0s0,0,0,0l0,0s0,0,0,0l0,0,0,0,0,0,0,0,0,0s0,0,0,0l0,0,0,0,0,0a0,0,0,0,1,0,0l0,0a0,0,0,0,1,0,0l0,0a0,0,0,0,1,0,0l0,0v0l0,0s0,0,0,0l0,0s0,0,0,0l0,0s0,0,0,0l0,0,0,0,0,0,0,0h0l0,0h0l0,0h0a0,0,0,0,1,0,0h0a0,0,0,0,1,0,0h0a0,0,0,0,1,0,0h0v0h0a0,0,0,0,0,0,0h0a0,0,0,0,0,0,0h0a0,0,0,0,0,0,0h0l0,0h0l0,0h0l0,0h0l0,0h0a0,0,0,0,1,0,0h0a0,0,0,0,1,0,0h0a0,0,0,0,1,0,0Z"/><path class="cls-8" d="M33.64,20.22c-.67.37-1.45.7-2,.42"/><path class="cls-8" d="M47.6,5.83c.73,1.43-2.54,4.66-3.61,5.82a48.82,48.82,0,0,1-9.05,7.81"/><path class="cls-8" d="M46.71,8.82l.82.77"/><path class="cls-8" d="M45.92,9.62l1.22,1.15"/><ellipse class="cls-9" cx="30.77" cy="24.88" rx="1.69" ry="1.86" transform="translate(2.45 52.53) rotate(-83.26)"/><path class="cls-10" d="M50.48,54.66c.89,2,1.84,4.13,2.84,6.46,1.84,4.31,2.22,5.47,1.75,6.82a4.81,4.81,0,0,1-9.17,0c-.52-1.49.07-2.7,1.9-7C49.05,58.1,50,55.83,50.48,54.66Z"/><g class="cls-11"><path class="cls-12" d="M47.43,66.29a3.41,3.41,0,0,0,2.17,4.18"/><path class="cls-13" d="M48.39,66.55a2.9,2.9,0,0,0-.26,1,2.78,2.78,0,0,0,.1,1,4,4,0,0,0,.47,1,3.32,3.32,0,0,0,.9.89,3.7,3.7,0,0,1-1.33-.4,3,3,0,0,1-1.14-1,4.15,4.15,0,0,1-.61-1.45A4.6,4.6,0,0,1,46.46,66l0-.09a1,1,0,1,1,2,.29A1,1,0,0,1,48.39,66.55Z"/></g><g class="cls-14"><g class="cls-15"><path class="cls-16" d="M83.5,75l11,9.85-79.84,8L5.78,83.18Z"/></g><g class="cls-15"><polygon class="cls-17" points="94.5 84.87 94.49 86.83 14.65 94.79 14.66 92.83 94.5 84.87"/></g><g class="cls-15"><polygon class="cls-18" points="14.66 92.83 14.65 94.79 5.77 85.14 5.78 83.18 14.66 92.83"/></g><path class="cls-19" d="M61.79,84a.75.75,0,0,1-.25.53c-1.14-1.19-5.95-2.06-11.74-2.06s-10.59.87-11.73,2.06a.76.76,0,0,1-.26-.53c0-1.43,5.37-2.57,12-2.57S61.79,82.59,61.79,84Z"/><path class="cls-20" d="M61.54,84.55c-1.14,1.15-5.95,2-11.74,2s-10.59-.88-11.73-2c1.14-1.19,6-2.06,11.73-2.06S60.4,83.36,61.54,84.55Z"/></g></svg>