<svg id="Layer_1" data-name="Layer 1" xmlns="http://www.w3.org/2000/svg" xmlns:xlink="http://www.w3.org/1999/xlink" width="219" height="11" viewBox="0 0 219 11"><defs><style>.cls-1{fill:url(#linear-gradient);}.cls-2{fill:url(#linear-gradient-2);}.cls-3{fill:url(#linear-gradient-3);}</style><linearGradient id="linear-gradient" x1="-2003.03" y1="1599.22" x2="-2003.03" y2="1401.22" gradientTransform="translate(1599.22 2008.44) rotate(90)" gradientUnits="userSpaceOnUse"><stop offset="0.02" stop-color="#666"/><stop offset="0.02" stop-color="#6e6e6e"/><stop offset="0.05" stop-color="#999899"/><stop offset="0.07" stop-color="#b8b7b8"/><stop offset="0.09" stop-color="#cbcacb"/><stop offset="0.11" stop-color="#d2d1d2"/><stop offset="0.18" stop-color="#c5c4c5"/><stop offset="0.29" stop-color="#979696"/><stop offset="0.33" stop-color="#919090"/><stop offset="0.5" stop-color="#f2f2f2"/><stop offset="0.78" stop-color="#c9c8c8"/><stop offset="0.85" stop-color="#fff"/><stop offset="0.97" stop-color="#4d4d4d"/><stop offset="1" stop-color="#4d4d4d"/></linearGradient><linearGradient id="linear-gradient-2" x1="204" y1="7.83" x2="204" y2="5.83" gradientUnits="userSpaceOnUse"><stop offset="0"/><stop offset="0.21" stop-color="#585656"/><stop offset="0.4" stop-color="#2e2a2b"/><stop offset="0.55" stop-color="#b3b2b2"/><stop offset="0.7" stop-color="#423e3f"/><stop offset="0.86" stop-color="#8b898a"/><stop offset="1"/></linearGradient><linearGradient id="linear-gradient-3" x1="213" y1="9.83" x2="213" y2="3.83" gradientUnits="userSpaceOnUse"><stop offset="0"/><stop offset="0.21" stop-color="#585656"/><stop offset="0.4" stop-color="#2e2a2b"/><stop offset="0.55" stop-color="#b3b2b2"/><stop offset="1"/></linearGradient></defs><title>Magnification_Optovar copy</title><path class="cls-1" d="M198,3.33v7.5H0V3.33S99-4.17,198,3.33Z"/><path d="M86.74,8.14a2.07,2.07,0,0,1-1.59-.66,2.58,2.58,0,0,1-.61-1.82,2.5,2.5,0,0,1,.61-1.79,2.32,2.32,0,0,1,3.18,0,2.5,2.5,0,0,1,.6,1.79,2.58,2.58,0,0,1-.6,1.82A2.07,2.07,0,0,1,86.74,8.14Zm0-1.08a.78.78,0,0,0,.67-.38,1.87,1.87,0,0,0,.25-1,1.77,1.77,0,0,0-.25-1,.8.8,0,0,0-1.34,0,1.77,1.77,0,0,0-.25,1,1.87,1.87,0,0,0,.25,1A.78.78,0,0,0,86.74,7.06Z"/><path d="M89.78,8.05V3.32h1.73a2.91,2.91,0,0,1,.95.15,1.47,1.47,0,0,1,.7.49,1.45,1.45,0,0,1,.27.93,1.55,1.55,0,0,1-.27,1,1.64,1.64,0,0,1-.7.54,2.55,2.55,0,0,1-.92.17H91v1.5ZM91,5.56h.45c.48,0,.73-.22.73-.67a.51.51,0,0,0-.2-.45,1.08,1.08,0,0,0-.56-.13H91Z"/><path d="M95,8.05V4.37H93.77V3.32h3.76V4.37H96.28V8.05Z"/><path d="M100,8.14a2,2,0,0,1-1.59-.66,2.54,2.54,0,0,1-.61-1.82,2.46,2.46,0,0,1,.61-1.79,2.31,2.31,0,0,1,3.17,0,2.46,2.46,0,0,1,.61,1.79,2.54,2.54,0,0,1-.61,1.82A2,2,0,0,1,100,8.14Zm0-1.08a.78.78,0,0,0,.67-.38,1.88,1.88,0,0,0,.24-1,1.77,1.77,0,0,0-.24-1,.78.78,0,0,0-.67-.36.77.77,0,0,0-.67.36,1.69,1.69,0,0,0-.25,1,1.79,1.79,0,0,0,.25,1A.77.77,0,0,0,100,7.06Z"/><path d="M103.76,8.05l-1.39-4.73h1.32l.49,2.07q.1.38.18.75c0,.24.1.49.17.75h0q.1-.39.18-.75c.05-.25.11-.5.17-.75l.48-2.07h1.28l-1.4,4.73Z"/><path d="M109.44,8.05l-.23-1h-1.32l-.23,1h-1.28l1.44-4.73h1.51l1.44,4.73Zm-1.25-2.3-.08.33H109l-.08-.33c-.06-.22-.12-.47-.18-.74s-.11-.52-.17-.76h0c0,.25-.1.5-.16.77S108.25,5.53,108.19,5.75Z"/><path d="M112.47,8.05h-1.25V3.32H113a3,3,0,0,1,.93.14,1.36,1.36,0,0,1,.69.47,1.42,1.42,0,0,1,.27.92,1.54,1.54,0,0,1-.21.84,1.58,1.58,0,0,1-.56.53l1,1.83h-1.4L113,6.46h-.48Zm0-2.57h.45q.75,0,.75-.63a.45.45,0,0,0-.19-.42,1.06,1.06,0,0,0-.56-.12h-.45Z"/><rect class="cls-2" x="198" y="5.83" width="12" height="2"/><rect class="cls-3" x="207" y="3.83" width="12" height="6" rx="1.67"/></svg>