<svg id="Layer_1" data-name="Layer 1" xmlns="http://www.w3.org/2000/svg" xmlns:xlink="http://www.w3.org/1999/xlink" viewBox="0 0 38.11 83.03"><defs><style>.cls-1{fill:url(#linear-gradient);}.cls-2{fill:url(#linear-gradient-2);}.cls-3{fill:url(#linear-gradient-3);}.cls-4{fill:url(#linear-gradient-4);}.cls-5{fill:url(#linear-gradient-5);}.cls-6{fill:url(#linear-gradient-6);}.cls-7{fill:url(#linear-gradient-7);}.cls-8{fill:url(#linear-gradient-8);}.cls-9{fill:url(#linear-gradient-9);}.cls-10{fill:url(#linear-gradient-10);}.cls-11{fill:url(#linear-gradient-11);}.cls-12{fill:#fff;}</style><linearGradient id="linear-gradient" x1="-1556.38" y1="-169.31" x2="-1540.18" y2="-169.31" gradientTransform="translate(1567.15 250.84)" gradientUnits="userSpaceOnUse"><stop offset="0" stop-color="#aa6d00"/><stop offset="0.11" stop-color="#b78e00"/><stop offset="0.24" stop-color="#bd9a17"/><stop offset="0.51" stop-color="#c7b244"/><stop offset="0.58" stop-color="#c5ae30"/><stop offset="0.72" stop-color="#c1a80d"/><stop offset="0.8" stop-color="#bfa500"/><stop offset="0.8" stop-color="#bea400"/><stop offset="0.89" stop-color="#9c7b00"/><stop offset="0.96" stop-color="#876100"/><stop offset="1" stop-color="#7f5800"/></linearGradient><linearGradient id="linear-gradient-2" x1="-1566.05" y1="-173.39" x2="-1530.04" y2="-173.39" xlink:href="#linear-gradient"/><linearGradient id="linear-gradient-3" x1="-1566.56" y1="-171.11" x2="-1530.55" y2="-171.11" gradientTransform="translate(1567.15 250.84)" gradientUnits="userSpaceOnUse"><stop offset="0" stop-color="#885800"/><stop offset="0.49" stop-color="#b78e00"/><stop offset="0.8" stop-color="#bfa500"/><stop offset="0.8" stop-color="#bea400"/><stop offset="0.89" stop-color="#9c7b00"/><stop offset="0.96" stop-color="#876100"/><stop offset="1" stop-color="#7f5800"/></linearGradient><linearGradient id="linear-gradient-4" x1="-2383.4" y1="2784.63" x2="-2374.39" y2="2784.63" gradientTransform="translate(-2359.76 2785.63) rotate(180)" xlink:href="#linear-gradient"/><linearGradient id="linear-gradient-5" x1="-2388.77" y1="2777.4" x2="-2368.77" y2="2777.4" gradientTransform="translate(-2359.76 2785.63) rotate(180)" gradientUnits="userSpaceOnUse"><stop offset="0" stop-color="#1a1a1a"/><stop offset="0.06" stop-color="#424041"/><stop offset="0.11" stop-color="#615e5f"/><stop offset="0.16" stop-color="#747071"/><stop offset="0.19" stop-color="#7b7778"/><stop offset="0.5" stop-color="#666"/><stop offset="0.78" stop-color="#ccc"/><stop offset="1" stop-color="#1a1a1a"/></linearGradient><linearGradient id="linear-gradient-6" x1="-2389.05" y1="2782.65" x2="-2369.05" y2="2782.65" gradientTransform="translate(-2359.76 2785.63) rotate(180)" gradientUnits="userSpaceOnUse"><stop offset="0" stop-color="#1a1a1a"/><stop offset="0.02" stop-color="#1d1d1d"/><stop offset="0.35" stop-color="#404040"/><stop offset="0.52" stop-color="#4d4d4d"/><stop offset="0.64" stop-color="#3d3d3d"/><stop offset="0.87" stop-color="#232323"/><stop offset="1" stop-color="#1a1a1a"/></linearGradient><linearGradient id="linear-gradient-7" x1="-2397.77" y1="2774.12" x2="-2359.76" y2="2774.12" gradientTransform="translate(-2359.76 2785.63) rotate(180)" gradientUnits="userSpaceOnUse"><stop offset="0"/><stop offset="0.14" stop-color="#080808"/><stop offset="0.36" stop-color="#1f1e1e"/><stop offset="0.55" stop-color="#363535"/><stop offset="0.61" stop-color="#282727"/><stop offset="0.75" stop-color="#121212"/><stop offset="0.88" stop-color="#050404"/><stop offset="1"/></linearGradient><linearGradient id="linear-gradient-8" x1="-2397.77" y1="2740.11" x2="-2359.76" y2="2740.11" gradientTransform="translate(-2359.76 2785.63) rotate(180)" gradientUnits="userSpaceOnUse"><stop offset="0" stop-color="#1a1a1a"/><stop offset="0.09" stop-color="#2c2c2c"/><stop offset="0.15" stop-color="#333"/><stop offset="0.4" stop-color="#4d4d4d"/><stop offset="0.78" stop-color="#333"/><stop offset="1" stop-color="#1a1a1a"/></linearGradient><linearGradient id="linear-gradient-9" x1="-2397.87" y1="2767.11" x2="-2392.87" y2="2767.11" gradientTransform="translate(-2359.76 2785.63) rotate(180)" gradientUnits="userSpaceOnUse"><stop offset="0" stop-color="#07324d"/><stop offset="1" stop-color="#1e9cd7"/></linearGradient><linearGradient id="linear-gradient-10" x1="-2359.86" y1="2767.11" x2="-2364.86" y2="2767.11" xlink:href="#linear-gradient-9"/><linearGradient id="linear-gradient-11" x1="-2391.87" y1="2767.63" x2="-2365.86" y2="2767.63" gradientTransform="translate(2397.97 -2749.63)" gradientUnits="userSpaceOnUse"><stop offset="0.25" stop-color="#1e9cd7"/><stop offset="0.48" stop-color="#32bbcf"/><stop offset="1" stop-color="#0075be"/></linearGradient></defs><path class="cls-1" d="M11,80H27.21v1.49A22.08,22.08,0,0,1,20,83a22.43,22.43,0,0,1-9-1.5Z"/><rect class="cls-2" x="1.1" y="76.03" width="36.01" height="2.85"/><path class="cls-3" d="M37.11,78.88l-5.4,1.37c-2.86.16-7.44.36-13.15.34-5.16,0-9.32-.19-12.06-.34L1.1,78.88Z"/><path class="cls-4" d="M23.51,2h-9V1a10.53,10.53,0,0,1,9,0Z"/><rect class="cls-5" x="9" y="4.95" width="20.01" height="6.56"/><path class="cls-6" d="M9,5l3-3.14A30.93,30.93,0,0,1,19.31,1a30.56,30.56,0,0,1,6.7.8L29,5Z"/><path class="cls-7" d="M0,14l4-4A108.08,108.08,0,0,1,18,9a107.13,107.13,0,0,1,15,1l5,4a177.44,177.44,0,0,0-20-1A178.49,178.49,0,0,0,0,14Z"/><path class="cls-8" d="M0,76.07v-62A169.42,169.42,0,0,1,18,13a170,170,0,0,1,20,1.05v62A93.79,93.79,0,0,1,18.1,78,93.32,93.32,0,0,1,0,76.07Z"/><path class="cls-9" d="M33.11,17h5v3l-2.25-.47L33.11,19Z"/><path class="cls-10" d="M.1,17h5V19L.1,20Z"/><rect class="cls-11" x="6.1" y="17.04" width="26.01" height="1.93" transform="translate(38.21 36.01) rotate(180)"/><path class="cls-12" d="M4.29,73.06a2,2,0,0,1-1.52-.63A2.46,2.46,0,0,1,2.2,70.7,2.39,2.39,0,0,1,2.77,69a2,2,0,0,1,1.52-.61A2,2,0,0,1,5.8,69a2.35,2.35,0,0,1,.58,1.71,2.41,2.41,0,0,1-.58,1.73A2,2,0,0,1,4.29,73.06Zm0-1a.73.73,0,0,0,.64-.36,1.81,1.81,0,0,0,.23-1,1.71,1.71,0,0,0-.23-1,.77.77,0,0,0-1.28,0,1.63,1.63,0,0,0-.23,1,1.72,1.72,0,0,0,.23,1A.73.73,0,0,0,4.29,72Z"/><path class="cls-12" d="M7.19,73v-4.5H8.81a2.73,2.73,0,0,1,1.2.23.87.87,0,0,1,.5.89,1.25,1.25,0,0,1-.15.58.81.81,0,0,1-.41.39v0a1.13,1.13,0,0,1,.54.35,1,1,0,0,1,.23.7,1.09,1.09,0,0,1-.52,1A2.3,2.3,0,0,1,9,73Zm1.19-2.74h.4c.38,0,.57-.15.57-.46s-.19-.39-.57-.39h-.4Zm0,1.83h.48c.46,0,.7-.17.7-.5s-.24-.46-.7-.46H8.38Z"/><path class="cls-12" d="M12.4,73.06a1.72,1.72,0,0,1-.92-.22,1.66,1.66,0,0,1-.62-.64l.8-.6a.92.92,0,0,0,.27.33.51.51,0,0,0,.3.1.47.47,0,0,0,.37-.15.85.85,0,0,0,.13-.57V68.47h1.19v2.94a1.83,1.83,0,0,1-.37,1.16A1.37,1.37,0,0,1,12.4,73.06Z"/><path class="cls-12" d="M14.89,73v-4.5H17.8v1H16.09v.7h1.46v1H16.09V72h1.78v1Z"/><path class="cls-12" d="M20.7,73.06a2.25,2.25,0,0,1-1.06-.26,2,2,0,0,1-.79-.77,2.46,2.46,0,0,1-.3-1.27,2.56,2.56,0,0,1,.31-1.29,2.12,2.12,0,0,1,1.87-1.09,1.77,1.77,0,0,1,.8.18,2.54,2.54,0,0,1,.6.42l-.62.76a3.64,3.64,0,0,0-.35-.24.88.88,0,0,0-1.09.26,1.41,1.41,0,0,0-.3.95,1.55,1.55,0,0,0,.27,1,.84.84,0,0,0,.7.34.91.91,0,0,0,.47-.12,1.62,1.62,0,0,0,.35-.27l.62.75A1.85,1.85,0,0,1,20.7,73.06Z"/><path class="cls-12" d="M23.6,73v-3.5H22.41v-1H26v1H24.79V73Z"/><path class="cls-12" d="M26.65,73v-4.5h1.19V73Z"/><path class="cls-12" d="M29.6,73l-1.33-4.5h1.26l.47,2c.07.24.12.47.17.71a6.09,6.09,0,0,0,.17.71h0c.07-.24.12-.47.17-.71s.11-.47.17-.71l.45-2h1.22L31,73Z"/><path class="cls-12" d="M32.8,73v-4.5h2.91v1H34v.7h1.47v1H34V72h1.79v1Z"/></svg>