<svg id="Layer_1" data-name="Layer 1" xmlns="http://www.w3.org/2000/svg" xmlns:xlink="http://www.w3.org/1999/xlink" viewBox="0 0 15.07 70.7"><defs><style>.cls-1{fill:url(#linear-gradient);}.cls-2{fill:url(#linear-gradient-2);}.cls-3{fill:url(#linear-gradient-3);}</style><linearGradient id="linear-gradient" x1="-1964.22" y1="378.7" x2="-1964.22" y2="315.7" gradientTransform="translate(-1956.05 386.4) rotate(180)" gradientUnits="userSpaceOnUse"><stop offset="0.02" stop-color="#666"/><stop offset="0.02" stop-color="#6e6e6e"/><stop offset="0.05" stop-color="#999899"/><stop offset="0.07" stop-color="#b8b7b8"/><stop offset="0.09" stop-color="#cbcacb"/><stop offset="0.11" stop-color="#d2d1d2"/><stop offset="0.18" stop-color="#c5c4c5"/><stop offset="0.29" stop-color="#979696"/><stop offset="0.33" stop-color="#919090"/><stop offset="0.5" stop-color="#f2f2f2"/><stop offset="0.78" stop-color="#c9c8c8"/><stop offset="0.85" stop-color="#fff"/><stop offset="0.97" stop-color="#4d4d4d"/><stop offset="1" stop-color="#4d4d4d"/></linearGradient><linearGradient id="linear-gradient-2" x1="-2694.84" y1="1763.62" x2="-2694.84" y2="1761.62" gradientTransform="matrix(1, 0, 0, -1, 2701.07, 1768.67)" gradientUnits="userSpaceOnUse"><stop offset="0"/><stop offset="0.21" stop-color="#585656"/><stop offset="0.4" stop-color="#2e2a2b"/><stop offset="0.55" stop-color="#b3b2b2"/><stop offset="0.7" stop-color="#423e3f"/><stop offset="0.86" stop-color="#8b898a"/><stop offset="1"/></linearGradient><linearGradient id="linear-gradient-3" x1="-2691.78" y1="1764.62" x2="-2691.78" y2="1760.62" gradientTransform="matrix(1, 0, 0, -1, 2698.02, 1765.62)" gradientUnits="userSpaceOnUse"><stop offset="0"/><stop offset="0.21" stop-color="#585656"/><stop offset="0.4" stop-color="#2e2a2b"/><stop offset="0.55" stop-color="#b3b2b2"/><stop offset="1"/></linearGradient></defs><path class="cls-1" d="M10.83,70.7H1.28V7.7h9.55S20.38,39.2,10.83,70.7Z"/><path d="M8.44,18.51h3.9v1.11l-1.59.59-.34.1-.35.1v0l.35.11.34.1,1.59.56v1.11H8.44v-.94H9.6a6.21,6.21,0,0,1,.69.05l.7.08v0l-.94-.32-1.29-.49v-.55l1.29-.48.94-.31v0l-.7.08a6.21,6.21,0,0,1-.69.05H8.44Z"/><path d="M8.44,25.21,9.27,25V23.93l-.83-.19V22.68l3.9,1.19v1.25L8.44,26.3Zm1.9-1-.27-.07v.72l.27-.06.61-.15.63-.14v0L11,24.32C10.73,24.28,10.52,24.23,10.34,24.18Z"/><path d="M8.37,28.42a2.33,2.33,0,0,1,.22-1,1.69,1.69,0,0,1,.67-.71,2.06,2.06,0,0,1,1.1-.26,2.19,2.19,0,0,1,1.12.27,1.84,1.84,0,0,1,.7.71,2,2,0,0,1,.24,1,1.73,1.73,0,0,1-.16.75,1.71,1.71,0,0,1-.36.52l-.66-.54a1.61,1.61,0,0,0,.21-.3.93.93,0,0,0,.08-.39.83.83,0,0,0-.3-.66,1.2,1.2,0,0,0-.83-.27,1.32,1.32,0,0,0-.85.25,1,1,0,0,0-.29.77.51.51,0,0,0,.07.3h.54v-.57h.84v1.48H8.85a1.79,1.79,0,0,1-.34-.55A2.1,2.1,0,0,1,8.37,28.42Z"/><path d="M8.44,30.49h3.9v1.06l-1.74.86-.87.37v0l.72-.09a7.09,7.09,0,0,1,.77,0h1.12v1H8.44V32.6l1.75-.86.87-.37v0l-.73.09a6.8,6.8,0,0,1-.76,0H8.44Z"/><path d="M8.44,34.52h3.9v1H8.44Z"/><path d="M8.44,36.42h3.9V39h-.86V37.45h-.74v1.3H9.87v-1.3H8.44Z"/><path d="M8.44,39.63h3.9v1H8.44Z"/><path d="M8.37,43.22a2,2,0,0,1,.22-.92,1.68,1.68,0,0,1,.67-.68,2.16,2.16,0,0,1,1.1-.26,2.19,2.19,0,0,1,1.12.27,1.88,1.88,0,0,1,.7.7,1.83,1.83,0,0,1,.24.92,1.59,1.59,0,0,1-.16.69,1.84,1.84,0,0,1-.36.52l-.66-.54a2.73,2.73,0,0,0,.21-.3.78.78,0,0,0,.08-.35.77.77,0,0,0-.3-.6,1.25,1.25,0,0,0-.83-.25,1.39,1.39,0,0,0-.85.23.81.81,0,0,0-.19,1A1.5,1.5,0,0,0,9.6,44L9,44.51A1.61,1.61,0,0,1,8.37,43.22Z"/><path d="M8.44,47.09l.83-.19V45.8l-.83-.19v-1l3.9,1.18V47l-3.9,1.19Zm1.9-1L10.07,46v.72l.27-.07L11,46.5l.63-.14v0L11,46.2Z"/><path d="M8.44,48.81h3v-1h.86v3.1h-.86v-1h-3Z"/><path d="M8.44,51.45h3.9v1H8.44Z"/><path d="M8.37,55a1.73,1.73,0,0,1,.54-1.32,2.14,2.14,0,0,1,1.5-.5,2.05,2.05,0,0,1,1.48.5A1.76,1.76,0,0,1,12.42,55a1.74,1.74,0,0,1-.53,1.31,2.05,2.05,0,0,1-1.48.5,2.14,2.14,0,0,1-1.5-.5A1.71,1.71,0,0,1,8.37,55Zm.89,0a.63.63,0,0,0,.31.55,1.58,1.58,0,0,0,.84.2,1.46,1.46,0,0,0,.82-.2.66.66,0,0,0,0-1.11,1.46,1.46,0,0,0-.82-.2,1.58,1.58,0,0,0-.84.2A.63.63,0,0,0,9.26,55Z"/><path d="M8.44,57.5h3.9v1.06l-1.74.86-.87.37v0l.72-.09a7,7,0,0,1,.77,0h1.12v1H8.44V59.61l1.75-.86.87-.37v0l-.73.09a6.91,6.91,0,0,1-.76.05H8.44Z"/><path d="M2.37,29.25a2,2,0,0,1,.22-.92,1.63,1.63,0,0,1,.67-.68,2.06,2.06,0,0,1,1.1-.26,2.19,2.19,0,0,1,1.12.27,1.82,1.82,0,0,1,.94,1.61,1.6,1.6,0,0,1-.16.7,1.66,1.66,0,0,1-.36.51l-.66-.54a1.94,1.94,0,0,0,.21-.29.82.82,0,0,0,.08-.35.77.77,0,0,0-.3-.6,1.25,1.25,0,0,0-.83-.26,1.39,1.39,0,0,0-.85.23.76.76,0,0,0-.29.61.78.78,0,0,0,.1.41,1.22,1.22,0,0,0,.24.3L3,30.53A1.59,1.59,0,0,1,2.37,29.25Z"/><path d="M2.44,31.07h3.9v1H4.89v1.17H6.34v1H2.44v-1H4V32.1H2.44Z"/><path d="M2.44,37.2,3.27,37V35.92l-.83-.19V34.67l3.9,1.19v1.25L2.44,38.3Zm1.9-1-.27-.06v.72l.27-.07c.18,0,.39-.1.61-.14l.63-.15v0L5,36.32Z"/><path d="M2.44,38.67h3.9v1l-1.74.87L3.73,41v0l.72-.08a7.09,7.09,0,0,1,.77,0H6.34v1H2.44V40.78l1.75-.86.87-.38v0l-.73.08a5.1,5.1,0,0,1-.76,0H2.44Z"/><path d="M2.37,44.5a2.28,2.28,0,0,1,.22-1,1.64,1.64,0,0,1,.67-.71,2.06,2.06,0,0,1,1.1-.27,2.19,2.19,0,0,1,1.12.27,1.91,1.91,0,0,1,.7.71,2,2,0,0,1,.24,1,1.8,1.8,0,0,1-.16.75,1.84,1.84,0,0,1-.36.52l-.66-.54a2.11,2.11,0,0,0,.21-.31.87.87,0,0,0,.08-.39.85.85,0,0,0-.3-.66,1.25,1.25,0,0,0-.83-.26,1.27,1.27,0,0,0-.85.25,1,1,0,0,0-.29.77.51.51,0,0,0,.07.3h.54v-.58h.84v1.49H2.85a1.85,1.85,0,0,1-.34-.56A2.06,2.06,0,0,1,2.37,44.5Z"/><path d="M2.44,46.58h3.9V49.1H5.48V47.61H4.87v1.27H4V47.61H3.31v1.55H2.44Z"/><path d="M2.44,50.94v-1h3.9v1.48a2.35,2.35,0,0,1-.11.77,1.17,1.17,0,0,1-.39.57,1.15,1.15,0,0,1-.76.22,1.22,1.22,0,0,1-.69-.18A1.1,1.1,0,0,1,4,52.32l-1.52.84V52l1.31-.67v-.4Zm2.13,0v.38c0,.41.17.62.51.62a.36.36,0,0,0,.35-.16.85.85,0,0,0,.1-.46v-.38Z"/><rect class="cls-2" x="4.29" y="5.05" width="3.89" height="2" transform="translate(0.18 12.29) rotate(-90)"/><rect class="cls-3" x="3.24" y="1" width="6" height="4" rx="0.76" transform="translate(3.24 9.24) rotate(-90)"/></svg>