<svg id="Layer_1" data-name="Layer 1" xmlns="http://www.w3.org/2000/svg" xmlns:xlink="http://www.w3.org/1999/xlink" viewBox="0 0 1227 28.94"><defs><style>.cls-1{fill:url(#linear-gradient);}.cls-2{fill:url(#linear-gradient-2);}.cls-3,.cls-4{stroke-miterlimit:10;}.cls-3{fill:url(#linear-gradient-3);stroke:url(#linear-gradient-4);}.cls-4{fill:url(#linear-gradient-5);stroke:url(#linear-gradient-6);}.cls-5{fill:url(#linear-gradient-7);}.cls-6,.cls-7{font-size:10px;font-family:Mada-Black, Mada;font-weight:800;}.cls-10,.cls-6{fill:#fff;}.cls-8{letter-spacing:-0.04em;}.cls-9{letter-spacing:-0.04em;}.cls-10{letter-spacing:0em;}</style><linearGradient id="linear-gradient" x1="1217.14" y1="12.04" x2="1202.34" y2="26.83" gradientUnits="userSpaceOnUse"><stop offset="0" stop-color="#534741"/><stop offset="0.95"/></linearGradient><linearGradient id="linear-gradient-2" x1="21.13" y1="12.04" x2="6.33" y2="26.83" xlink:href="#linear-gradient"/><linearGradient id="linear-gradient-3" x1="458.23" y1="281.31" x2="768.49" y2="-256.07" gradientUnits="userSpaceOnUse"><stop offset="0" stop-color="#2a2728"/><stop offset="0.04"/><stop offset="0.13" stop-color="#090909"/><stop offset="0.39" stop-color="#1f1e21"/><stop offset="0.89" stop-color="#292627"/></linearGradient><linearGradient id="linear-gradient-4" y1="13.15" x2="1227" y2="13.15" gradientUnits="userSpaceOnUse"><stop offset="0" stop-color="#2a2728"/><stop offset="0.04"/><stop offset="0.13" stop-color="#090909"/><stop offset="0.39" stop-color="#1f1e21"/><stop offset="0.42" stop-color="#27211f"/><stop offset="0.64" stop-color="#603813"/><stop offset="0.78" stop-color="#3f2d1f"/><stop offset="0.89" stop-color="#292627"/><stop offset="1" stop-color="#534741"/></linearGradient><linearGradient id="linear-gradient-5" x1="922.15" y1="314.65" x2="304.85" y2="-302.66" xlink:href="#linear-gradient-3"/><linearGradient id="linear-gradient-6" x1="0" y1="5.4" x2="1227" y2="5.4" xlink:href="#linear-gradient-4"/><linearGradient id="linear-gradient-7" x1="613.5" y1="1.94" x2="613.5" y2="16.94" gradientUnits="userSpaceOnUse"><stop offset="0" stop-color="#736357"/><stop offset="0.3" stop-color="#998675"/><stop offset="0.54" stop-color="#998675"/><stop offset="0.83" stop-color="#8f7d6d"/><stop offset="1" stop-color="#736357"/></linearGradient></defs><rect class="cls-1" x="1201.8" y="9.94" width="15.88" height="19" rx="4.5"/><rect class="cls-2" x="5.79" y="9.94" width="15.88" height="19" rx="4.5"/><path class="cls-3" d="M.5,8.36h1226a0,0,0,0,1,0,0v7.47a2.11,2.11,0,0,1-2.11,2.11H2.61A2.11,2.11,0,0,1,.5,15.83V8.36a0,0,0,0,1,0,0Z"/><path class="cls-4" d="M2.52.5h1222a2,2,0,0,1,2,2v7.78a0,0,0,0,1,0,0H.5a0,0,0,0,1,0,0V2.52A2,2,0,0,1,2.52.5Z"/><rect class="cls-5" x="1.47" y="1.94" width="1224.05" height="15" rx="2.25"/><text class="cls-6" transform="translate(523.51 12.97) scale(1.76 1)"> </text><text class="cls-7" transform="translate(571.88 14.97) scale(0.97 1)">MICROS<tspan class="cls-8" x="35.64" y="0">C</tspan><tspan x="41.1" y="0">OPE </tspan><tspan class="cls-9" x="61.66" y="0">T</tspan><tspan x="66.9" y="0">ABLE</tspan><tspan class="cls-10" x="89.72" y="0"> </tspan></text></svg>