<svg id="Layer_1" data-name="Layer 1" xmlns="http://www.w3.org/2000/svg" xmlns:xlink="http://www.w3.org/1999/xlink" viewBox="0 0 1840.5 43.4"><defs><style>.cls-1{stroke:#000;stroke-miterlimit:10;stroke-width:0.38px;}.cls-2{fill:url(#linear-gradient);}</style><linearGradient id="linear-gradient" x1="919.91" y1="1.3" x2="919.91" y2="24.76" gradientUnits="userSpaceOnUse"><stop offset="0" stop-color="#736357"/><stop offset="0.3" stop-color="#998675"/><stop offset="0.54" stop-color="#998675"/><stop offset="0.83" stop-color="#8f7d6d"/><stop offset="1" stop-color="#736357"/></linearGradient></defs><path class="cls-1" d="M1836.38.19H3.45a3,3,0,0,0-3,3v20a3.17,3.17,0,0,0,3.16,3.16H8.35v9.75a6.77,6.77,0,0,0,6.75,6.75H25.41a6.77,6.77,0,0,0,6.75-6.75V26.34H1802.37v9.75a6.77,6.77,0,0,0,6.75,6.75h10.31a6.77,6.77,0,0,0,6.75-6.75V26.34h10.07a3.17,3.17,0,0,0,3.16-3.16v-20A3,3,0,0,0,1836.38.19Z"/><rect class="cls-2" x="1.87" y="1.3" width="1836.08" height="23.47" rx="2.25"/><path d="M853.22,18V8.23H856l1.47,4c.1.27.18.55.26.85s.17.58.26.86h0c.09-.28.18-.57.26-.86s.16-.58.25-.85l1.41-4h2.76V18h-2.34V15.1a15,15,0,0,1,.12-1.75c.08-.66.16-1.24.21-1.73h-.05L859.82,14l-1.19,3.22h-1.39L856.05,14l-.79-2.34h-.06l.21,1.73a15,15,0,0,1,.12,1.75V18Z"/><path d="M864.86,18V8.23h2.58V18Z"/><path d="M873.83,18.16a4.89,4.89,0,0,1-2.3-.56,4.27,4.27,0,0,1-1.7-1.65,5.43,5.43,0,0,1-.65-2.77,5.47,5.47,0,0,1,.67-2.78,4.6,4.6,0,0,1,4-2.35,3.91,3.91,0,0,1,1.75.39,5.27,5.27,0,0,1,1.29.9L875.57,11a4,4,0,0,0-.74-.52,1.9,1.9,0,0,0-.88-.2,1.93,1.93,0,0,0-1.49.75,3.12,3.12,0,0,0-.64,2.07,3.38,3.38,0,0,0,.58,2.11,1.85,1.85,0,0,0,1.53.74,2,2,0,0,0,1-.26,3.4,3.4,0,0,0,.75-.58L877,16.72A4,4,0,0,1,873.83,18.16Z"/><path d="M881,18h-2.58V8.23h3.69a6.32,6.32,0,0,1,1.94.28,2.93,2.93,0,0,1,1.42,1,3,3,0,0,1,.54,1.9,3.21,3.21,0,0,1-.43,1.74,3.11,3.11,0,0,1-1.14,1.08L886.52,18h-2.88L882,14.71h-1Zm0-5.31h.93c1,0,1.57-.43,1.57-1.29a.94.94,0,0,0-.4-.87,2.32,2.32,0,0,0-1.17-.24H881Z"/><path d="M892,18.16a4.24,4.24,0,0,1-3.27-1.35,5.28,5.28,0,0,1-1.26-3.75,5.13,5.13,0,0,1,1.26-3.71,4.78,4.78,0,0,1,6.55,0,5.13,5.13,0,0,1,1.25,3.71,5.28,5.28,0,0,1-1.25,3.75A4.26,4.26,0,0,1,892,18.16Zm0-2.22a1.57,1.57,0,0,0,1.38-.78,3.79,3.79,0,0,0,.51-2.1,3.58,3.58,0,0,0-.51-2.06,1.67,1.67,0,0,0-2.76,0,3.58,3.58,0,0,0-.51,2.06,3.79,3.79,0,0,0,.51,2.1A1.57,1.57,0,0,0,892,15.94Z"/><path d="M901.31,18.16a5.83,5.83,0,0,1-1.92-.35,5.13,5.13,0,0,1-1.77-1L899.09,15a4.82,4.82,0,0,0,1.13.69,3,3,0,0,0,1.15.26q1.11,0,1.11-.69a.55.55,0,0,0-.35-.52c-.23-.11-.56-.26-1-.43L900,13.79a3.53,3.53,0,0,1-1.38-1,2.53,2.53,0,0,1-.59-1.72,2.76,2.76,0,0,1,1-2.14,3.84,3.84,0,0,1,2.61-.89,5,5,0,0,1,1.71.32,4.45,4.45,0,0,1,1.53,1L903.56,11a4.51,4.51,0,0,0-.95-.52,2.7,2.7,0,0,0-1-.18q-1,0-1,.66a.57.57,0,0,0,.39.53c.26.13.61.27,1,.44l1.19.47a3.19,3.19,0,0,1,1.41,1,2.67,2.67,0,0,1,.49,1.67,2.92,2.92,0,0,1-1,2.17A3.93,3.93,0,0,1,901.31,18.16Z"/><path d="M910.91,18.16a4.89,4.89,0,0,1-2.3-.56,4.27,4.27,0,0,1-1.7-1.65,5.43,5.43,0,0,1-.65-2.77,5.47,5.47,0,0,1,.67-2.78,4.6,4.6,0,0,1,4-2.35,3.84,3.84,0,0,1,1.74.39,4.91,4.91,0,0,1,1.29.9L912.65,11a4,4,0,0,0-.74-.52,1.91,1.91,0,0,0-2.37.55,3.12,3.12,0,0,0-.64,2.07,3.38,3.38,0,0,0,.58,2.11,1.85,1.85,0,0,0,1.52.74,2,2,0,0,0,1-.26,3.4,3.4,0,0,0,.75-.58l1.35,1.62A4,4,0,0,1,910.91,18.16Z"/><path d="M919,18.16a4.24,4.24,0,0,1-3.27-1.35,5.28,5.28,0,0,1-1.26-3.75,5.13,5.13,0,0,1,1.26-3.71,4.78,4.78,0,0,1,6.55,0,5.13,5.13,0,0,1,1.25,3.71,5.28,5.28,0,0,1-1.25,3.75A4.26,4.26,0,0,1,919,18.16Zm0-2.22a1.57,1.57,0,0,0,1.38-.78,3.79,3.79,0,0,0,.51-2.1,3.58,3.58,0,0,0-.51-2.06,1.67,1.67,0,0,0-2.76,0,3.58,3.58,0,0,0-.51,2.06,3.79,3.79,0,0,0,.51,2.1A1.57,1.57,0,0,0,919,15.94Z"/><path d="M925.25,18V8.23h3.57a6.21,6.21,0,0,1,2,.3,3,3,0,0,1,1.45,1,3.13,3.13,0,0,1,.54,1.94,3.26,3.26,0,0,1-.54,1.95,3.3,3.3,0,0,1-1.44,1.11,5.12,5.12,0,0,1-1.92.36h-1V18Zm2.58-5.13h.93q1.5,0,1.5-1.38a1,1,0,0,0-.4-.93,2.09,2.09,0,0,0-1.16-.27h-.87Z"/><path d="M934.37,18V8.23h6.3v2.16H937v1.53h3.18v2.16H937v1.74h3.87V18Z"/><path d="M947.57,18V10.39H945V8.23h7.74v2.16h-2.58V18Z"/><path d="M958.67,18l-.48-2.07h-2.73L955,18h-2.64l3-9.75h3.12l3,9.75Zm-2.58-4.74-.16.67h1.8l-.17-.67c-.12-.46-.24-1-.36-1.52s-.24-1.08-.36-1.57h-.06c-.1.5-.21,1-.33,1.57S956.21,12.78,956.09,13.24Z"/><path d="M962.33,18V8.23h3.51a6.24,6.24,0,0,1,2.61.49,1.93,1.93,0,0,1,1.08,1.94,2.63,2.63,0,0,1-.33,1.25,1.72,1.72,0,0,1-.9.85v.06a2.57,2.57,0,0,1,1.19.76A2.21,2.21,0,0,1,970,15.1a2.36,2.36,0,0,1-1.13,2.19,5.1,5.1,0,0,1-2.71.69ZM964.91,12h.87q1.23,0,1.23-1t-1.23-.84h-.87Zm0,4H966q1.5,0,1.5-1.08t-1.5-1h-1.05Z"/><path d="M971.51,18V8.23h2.58v7.59h3.69V18Z"/><path d="M979.46,18V8.23h6.3v2.16H982v1.53h3.18v2.16H982v1.74h3.87V18Z"/></svg>