<svg id="Layer_1" data-name="Layer 1" xmlns="http://www.w3.org/2000/svg" xmlns:xlink="http://www.w3.org/1999/xlink" width="1840.5" height="43.4" viewBox="0 0 1840.5 43.4"><defs><style>.cls-1{fill:url(#linear-gradient);}.cls-2{fill:url(#linear-gradient-2);}.cls-3,.cls-4{stroke-miterlimit:10;stroke-width:1.5px;}.cls-3{fill:url(#linear-gradient-3);stroke:url(#linear-gradient-4);}.cls-4{fill:url(#linear-gradient-5);stroke:url(#linear-gradient-6);}.cls-5{fill:url(#linear-gradient-7);}</style><linearGradient id="linear-gradient" x1="1826.37" y1="17.4" x2="1802.86" y2="40.91" gradientUnits="userSpaceOnUse"><stop offset="0" stop-color="#534741"/><stop offset="0.95"/></linearGradient><linearGradient id="linear-gradient-2" x1="32.35" y1="17.4" x2="8.84" y2="40.91" xlink:href="#linear-gradient"/><linearGradient id="linear-gradient-3" x1="687.32" y1="422.4" x2="1152.9" y2="-384.02" gradientUnits="userSpaceOnUse"><stop offset="0" stop-color="#2a2728"/><stop offset="0.04"/><stop offset="0.13" stop-color="#090909"/><stop offset="0.39" stop-color="#1f1e21"/><stop offset="0.89" stop-color="#292627"/></linearGradient><linearGradient id="linear-gradient-4" y1="19.72" x2="1840.5" y2="19.72" gradientUnits="userSpaceOnUse"><stop offset="0" stop-color="#2a2728"/><stop offset="0.04"/><stop offset="0.13" stop-color="#090909"/><stop offset="0.39" stop-color="#1f1e21"/><stop offset="0.42" stop-color="#27211f"/><stop offset="0.64" stop-color="#603813"/><stop offset="0.78" stop-color="#3f2d1f"/><stop offset="0.89" stop-color="#292627"/><stop offset="1" stop-color="#534741"/></linearGradient><linearGradient id="linear-gradient-5" x1="1383.38" y1="471.83" x2="457.12" y2="-454.43" xlink:href="#linear-gradient-3"/><linearGradient id="linear-gradient-6" x1="0" y1="8.11" x2="1840.5" y2="8.11" xlink:href="#linear-gradient-4"/><linearGradient id="linear-gradient-7" x1="920.25" y1="2.9" x2="920.25" y2="25.4" gradientUnits="userSpaceOnUse"><stop offset="0" stop-color="#736357"/><stop offset="0.3" stop-color="#998675"/><stop offset="0.54" stop-color="#998675"/><stop offset="0.83" stop-color="#8f7d6d"/><stop offset="1" stop-color="#736357"/></linearGradient></defs><title>MicroscopyBasics_MicroscopeTable 2</title><rect class="cls-1" x="1802.71" y="14.9" width="23.81" height="28.5" rx="4.5"/><rect class="cls-2" x="8.69" y="14.9" width="23.81" height="28.5" rx="4.5"/><path class="cls-3" d="M.75,12.54h1839a0,0,0,0,1,0,0V24.8a2.11,2.11,0,0,1-2.11,2.11H2.86A2.11,2.11,0,0,1,.75,24.8V12.54a0,0,0,0,1,0,0Z"/><path class="cls-4" d="M2.77.75h1835a2,2,0,0,1,2,2V15.46a0,0,0,0,1,0,0H.75a0,0,0,0,1,0,0V2.77a2,2,0,0,1,2-2Z"/><rect class="cls-5" x="2.21" y="2.9" width="1836.08" height="22.5" rx="2.25"/><path d="M858.87,22.45V12.7h2.68l1.43,4c.09.27.17.55.25.85s.16.58.25.86h.06c.09-.28.17-.57.25-.86s.16-.58.24-.85l1.38-4h2.68v9.75h-2.28V19.57a15,15,0,0,1,.12-1.75l.21-1.73h-.06l-.79,2.34-1.17,3.22h-1.34l-1.17-3.22-.76-2.34h-.06l.21,1.73a15,15,0,0,1,.12,1.75v2.88Z"/><path d="M870.19,22.45V12.7h2.51v9.75Z"/><path d="M878.92,22.63a4.65,4.65,0,0,1-2.24-.56A4.18,4.18,0,0,1,875,20.42a5.65,5.65,0,0,1-.62-2.77,5.47,5.47,0,0,1,.65-2.78,4.45,4.45,0,0,1,1.69-1.75,4.4,4.4,0,0,1,2.24-.6,3.63,3.63,0,0,1,1.69.39,4.73,4.73,0,0,1,1.26.9l-1.32,1.65a3.85,3.85,0,0,0-.72-.52,1.82,1.82,0,0,0-2.3.55,3.12,3.12,0,0,0-.62,2.07,3.38,3.38,0,0,0,.56,2.11,1.78,1.78,0,0,0,1.48.74,1.86,1.86,0,0,0,1-.26,3.12,3.12,0,0,0,.74-.58L882,21.19A3.84,3.84,0,0,1,878.92,22.63Z"/><path d="M885.87,22.45h-2.51V12.7H887a5.93,5.93,0,0,1,1.88.28,2.89,2.89,0,0,1,1.39,1,3.06,3.06,0,0,1,.52,1.9,3.3,3.3,0,0,1-.42,1.74,3,3,0,0,1-1.11,1.08l2.06,3.78h-2.8l-1.64-3.27h-1Zm0-5.31h.9c1,0,1.52-.43,1.52-1.29a.94.94,0,0,0-.39-.87,2.13,2.13,0,0,0-1.13-.24h-.9Z"/><path d="M896.55,22.63a4.11,4.11,0,0,1-3.19-1.35,5.41,5.41,0,0,1-1.22-3.75,5.25,5.25,0,0,1,1.22-3.71,4.56,4.56,0,0,1,6.38,0A5.25,5.25,0,0,1,901,17.53a5.41,5.41,0,0,1-1.22,3.75A4.08,4.08,0,0,1,896.55,22.63Zm0-2.22a1.51,1.51,0,0,0,1.34-.78,3.8,3.8,0,0,0,.5-2.1,3.59,3.59,0,0,0-.5-2.06,1.59,1.59,0,0,0-2.68,0,3.67,3.67,0,0,0-.5,2.06,3.88,3.88,0,0,0,.5,2.1A1.52,1.52,0,0,0,896.55,20.41Z"/><path d="M905.66,22.63a5.55,5.55,0,0,1-1.87-.35,4.92,4.92,0,0,1-1.72-1.05l1.43-1.77a4.57,4.57,0,0,0,1.09.69,2.92,2.92,0,0,0,1.13.26q1.08,0,1.08-.69a.57.57,0,0,0-.35-.52c-.22-.11-.54-.26-.94-.43l-1.18-.51a3.47,3.47,0,0,1-1.34-1,2.57,2.57,0,0,1-.57-1.72,2.79,2.79,0,0,1,1-2.14,3.68,3.68,0,0,1,2.54-.89,4.7,4.7,0,0,1,1.66.32,4.2,4.2,0,0,1,1.49,1l-1.25,1.62a4.39,4.39,0,0,0-.93-.52,2.54,2.54,0,0,0-1-.18q-1,0-1,.66a.58.58,0,0,0,.38.53c.25.13.59.27,1,.44l1.15.47a3.15,3.15,0,0,1,1.38,1,2.73,2.73,0,0,1,.48,1.67,2.93,2.93,0,0,1-1,2.17A3.74,3.74,0,0,1,905.66,22.63Z"/><path d="M915,22.63a4.65,4.65,0,0,1-2.24-.56,4.18,4.18,0,0,1-1.66-1.65,5.54,5.54,0,0,1-.62-2.77,5.47,5.47,0,0,1,.65-2.78,4.45,4.45,0,0,1,1.69-1.75,4.4,4.4,0,0,1,2.24-.6,3.63,3.63,0,0,1,1.69.39,4.73,4.73,0,0,1,1.26.9l-1.32,1.65a3.85,3.85,0,0,0-.72-.52,1.81,1.81,0,0,0-.85-.2,1.86,1.86,0,0,0-1.46.75,3.17,3.17,0,0,0-.62,2.07,3.38,3.38,0,0,0,.57,2.11,1.76,1.76,0,0,0,1.48.74,1.86,1.86,0,0,0,1-.26,3.12,3.12,0,0,0,.74-.58l1.31,1.62A3.86,3.86,0,0,1,915,22.63Z"/><path d="M922.85,22.63a4.11,4.11,0,0,1-3.19-1.35,5.4,5.4,0,0,1-1.21-3.75,5.25,5.25,0,0,1,1.21-3.71,4.56,4.56,0,0,1,6.38,0,5.25,5.25,0,0,1,1.22,3.71A5.41,5.41,0,0,1,926,21.28,4.08,4.08,0,0,1,922.85,22.63Zm0-2.22a1.54,1.54,0,0,0,1.35-.78,3.89,3.89,0,0,0,.49-2.1,3.67,3.67,0,0,0-.49-2.06,1.55,1.55,0,0,0-1.35-.73,1.54,1.54,0,0,0-1.34.73,3.67,3.67,0,0,0-.5,2.06,3.88,3.88,0,0,0,.5,2.1A1.52,1.52,0,0,0,922.85,20.41Z"/><path d="M929,22.45V12.7h3.48a5.84,5.84,0,0,1,1.91.3,2.93,2.93,0,0,1,1.41,1,3.19,3.19,0,0,1,.53,1.94,3.33,3.33,0,0,1-.53,2,3.19,3.19,0,0,1-1.4,1.11,4.82,4.82,0,0,1-1.86.36h-1v3.09Zm2.51-5.13h.91c1,0,1.46-.46,1.46-1.38a1,1,0,0,0-.4-.93,2,2,0,0,0-1.12-.27h-.85Z"/><path d="M937.83,22.45V12.7H944v2.16h-3.62v1.53h3.09v2.16h-3.09v1.74h3.76v2.16Z"/><path d="M950.67,22.45V14.86h-2.51V12.7h7.53v2.16h-2.51v7.59Z"/><path d="M961.47,22.45,961,20.38h-2.65l-.47,2.07h-2.57l2.89-9.75h3l2.89,9.75ZM959,17.71l-.16.67h1.75l-.16-.67c-.12-.46-.23-1-.35-1.52s-.23-1.08-.35-1.57h-.06c-.09.5-.2,1-.32,1.57S959.08,17.25,959,17.71Z"/><path d="M965,22.45V12.7h3.42a5.93,5.93,0,0,1,2.54.49,1.94,1.94,0,0,1,1,1.94,2.73,2.73,0,0,1-.32,1.25,1.72,1.72,0,0,1-.88.85v.06a2.45,2.45,0,0,1,1.15.76,2.21,2.21,0,0,1,.49,1.52,2.39,2.39,0,0,1-1.11,2.19,4.84,4.84,0,0,1-2.63.69Zm2.51-5.94h.85q1.2,0,1.2-1,0-.84-1.2-.84h-.85Zm0,4h1c1,0,1.46-.36,1.46-1.08s-.48-1-1.46-1h-1Z"/><path d="M974,22.45V12.7h2.51v7.59h3.59v2.16Z"/><path d="M981.7,22.45V12.7h6.13v2.16h-3.62v1.53h3.09v2.16h-3.09v1.74H988v2.16Z"/></svg>