<svg xmlns="http://www.w3.org/2000/svg" xmlns:xlink="http://www.w3.org/1999/xlink" width="731" height="725" viewBox="0 0 731 725">
  <defs>
    <clipPath id="clip-Microscope_Icon_-_White">
      <rect width="731" height="725"/>
    </clipPath>
  </defs>
  <g id="Microscope_Icon_-_White" data-name="Microscope Icon - White" clip-path="url(#clip-Microscope_Icon_-_White)">
    <path id="microscope-solid" d="M226,451.993h16.95v22.6a22.593,22.593,0,0,0,22.6,22.6h56.5a22.593,22.593,0,0,0,22.6-22.6v-22.6h16.95a45.2,45.2,0,0,0,45.2-45.2V90.4a45.2,45.2,0,0,0-45.2-45.2V22.6A22.593,22.593,0,0,0,338.995,0H248.6A22.593,22.593,0,0,0,226,22.6V45.2a45.2,45.2,0,0,0-45.2,45.2v316.4A45.2,45.2,0,0,0,226,451.993ZM655.39,632.79h-1.822c43.123-48.038,69.621-111.3,69.621-180.8,0-149.553-121.643-271.2-271.2-271.2v90.4c99.693,0,180.8,81.1,180.8,180.8s-81.1,180.8-180.8,180.8H67.8A67.8,67.8,0,0,0,0,700.589a22.593,22.593,0,0,0,22.6,22.6h677.99a22.593,22.593,0,0,0,22.6-22.6A67.8,67.8,0,0,0,655.39,632.79ZM146.9,587.591h293.8a11.3,11.3,0,0,0,11.3-11.3v-22.6a11.3,11.3,0,0,0-11.3-11.3H146.9a11.3,11.3,0,0,0-11.3,11.3v22.6A11.3,11.3,0,0,0,146.9,587.591Z" transform="translate(3.811 -0.189)" fill="#fff"/>
  </g>
</svg>
