<svg id="Layer_1" data-name="Layer 1" xmlns="http://www.w3.org/2000/svg" xmlns:xlink="http://www.w3.org/1999/xlink" viewBox="0 0 110.97 50.78"><defs><style>.cls-1{fill:url(#linear-gradient);}.cls-2{fill:url(#linear-gradient-2);}.cls-3{stroke:#000;opacity:0.54;}.cls-3,.cls-5,.cls-6,.cls-7,.cls-8{stroke-linejoin:round;}.cls-3,.cls-6{stroke-width:0.75px;}.cls-4{opacity:0.19;}.cls-5,.cls-7,.cls-8{stroke-width:1.13px;}.cls-5{fill:url(#radial-gradient);stroke:url(#radial-gradient-2);}.cls-6{stroke:#666;}.cls-7{fill:url(#radial-gradient-3);stroke:url(#radial-gradient-4);}.cls-8{fill:url(#radial-gradient-5);stroke:url(#radial-gradient-6);}</style><linearGradient id="linear-gradient" x1="3.21" y1="25.39" x2="107.76" y2="25.39" gradientUnits="userSpaceOnUse"><stop offset="0"/><stop offset="0.36" stop-color="#29334a"/><stop offset="0.69" stop-color="#354361"/><stop offset="1"/></linearGradient><linearGradient id="linear-gradient-2" y1="25.39" x2="110.97" y2="25.39" gradientUnits="userSpaceOnUse"><stop offset="0" stop-color="#999"/><stop offset="0.59" stop-color="#e6e6e6"/><stop offset="1" stop-color="#b1b1b1"/></linearGradient><radialGradient id="radial-gradient" cx="358.72" cy="9.77" r="2.24" gradientTransform="translate(-542.34 25.21) scale(1.53 1.56)" gradientUnits="userSpaceOnUse"><stop offset="0" stop-color="#bccbdf"/><stop offset="0.08" stop-color="#333"/><stop offset="0.39" stop-color="#bdcde0"/><stop offset="0.53" stop-color="#bdccd4"/><stop offset="0.75" stop-color="gray"/><stop offset="0.99" stop-color="#4d4d4d"/></radialGradient><radialGradient id="radial-gradient-2" cx="7.08" cy="40.42" r="4.02" gradientUnits="userSpaceOnUse"><stop offset="0.08" stop-color="#9cc0f3"/><stop offset="0.72" stop-color="#0b0d11"/><stop offset="0.87"/><stop offset="0.89" stop-color="gray"/><stop offset="1"/></radialGradient><radialGradient id="radial-gradient-3" cx="365.04" cy="9.77" r="2.24" xlink:href="#radial-gradient"/><radialGradient id="radial-gradient-4" cx="16.77" cy="40.42" r="4.02" xlink:href="#radial-gradient-2"/><radialGradient id="radial-gradient-5" cx="371.37" cy="9.77" r="2.24" xlink:href="#radial-gradient"/><radialGradient id="radial-gradient-6" cx="26.46" cy="40.42" r="4.02" xlink:href="#radial-gradient-2"/></defs><path class="cls-1" d="M107.76,47.76c0,1.84-2.39,3.25-5.06,3-11.22-1.1-37.64-3.86-47.22-3.88-12.67,0-36.62,2.65-47.14,3.8-2.7.3-5.13-1.12-5.13-3V3.87C3.21,2.27,5,.94,7.4.86Q29.51.06,53.65,0q26.12,0,49.92.86c2.36.08,4.19,1.41,4.19,3Z"/><rect class="cls-2" y="2.89" width="110.97" height="45" rx="2.07"/><path class="cls-3" d="M95.41,23.88l3.14-2.29h5.22l3.13,2.29Z"/><rect class="cls-3" x="95.33" y="25.02" width="11.49" height="1.12"/><rect class="cls-3" x="95.33" y="27.25" width="11.49" height="1.12"/><rect class="cls-3" x="95.33" y="25.02" width="11.49" height="0.01"/><rect class="cls-3" x="95.33" y="27.24" width="11.49" height="0.01"/><rect class="cls-4" x="1.62" y="6.24" width="108" height="11.67"/><path d="M6.07,15V9.74H9.43v1H7.28v1H9.11v1H7.28V14H9.51v1Z"/><path d="M10.58,15V9.74h1.25l1.4,2.59.52,1.16h0q0-.42-.09-.93c0-.34,0-.67,0-1V9.74h1.15V15H13.55l-1.4-2.6-.53-1.14h0c0,.29.06.6.09.93a8,8,0,0,1,.06,1V15Z"/><path d="M17,15,15.36,9.74h1.29l.64,2.43c.08.29.16.56.22.84s.14.55.22.84h0q.12-.43.21-.84c.07-.28.14-.55.22-.84l.63-2.43h1.24L18.44,15Z"/><path d="M20.63,15V9.74h1.21V15Z"/><path d="M24.32,15H23.11V9.74H25a2.89,2.89,0,0,1,1.46.35,1.34,1.34,0,0,1,.61,1.28,1.61,1.61,0,0,1-.26.94,1.68,1.68,0,0,1-.7.56L27.37,15H26l-1-1.88h-.66Zm0-2.82h.62c.66,0,1-.26,1-.77a.57.57,0,0,0-.25-.54,1.42,1.42,0,0,0-.73-.15h-.62Z"/><path d="M30.33,15.05a2.31,2.31,0,0,1-1.76-.72,2.81,2.81,0,0,1-.67-2,2.71,2.71,0,0,1,.67-2,2.58,2.58,0,0,1,3.53,0,2.75,2.75,0,0,1,.67,2,2.81,2.81,0,0,1-.67,2A2.31,2.31,0,0,1,30.33,15.05Zm0-1a1,1,0,0,0,.88-.47,2.17,2.17,0,0,0,.32-1.24,2.06,2.06,0,0,0-.32-1.22,1.08,1.08,0,0,0-1.75,0,2.06,2.06,0,0,0-.32,1.22,2.17,2.17,0,0,0,.32,1.24A1,1,0,0,0,30.33,14Z"/><path d="M33.78,15V9.74H35l1.4,2.59L37,13.49h0q0-.42-.09-.93a8.36,8.36,0,0,1,0-1V9.74H38V15H36.74l-1.39-2.6-.53-1.14h0c0,.29.06.6.09.93a7.92,7.92,0,0,1,0,1V15Z"/><path d="M39.26,15V9.74h1.32l.86,2.32c.06.15.11.31.16.47s.1.33.16.49h0c.05-.16.11-.32.15-.49l.15-.47.85-2.32h1.32V15h-1.1V13.05c0-.26,0-.56.05-.9s.07-.63.1-.88h0l-.44,1.24-.76,2h-.67l-.76-2-.43-1.24h0c0,.25.06.55.09.88a7.81,7.81,0,0,1,.06.9V15Z"/><path d="M45.53,15V9.74h3.35v1H46.73v1h1.83v1H46.73V14H49v1Z"/><path d="M50,15V9.74h1.24l1.4,2.59.52,1.16h0q0-.42-.09-.93a8.44,8.44,0,0,1-.06-1V9.74h1.15V15H53l-1.4-2.6-.53-1.14h0q0,.43.09.93a8,8,0,0,1,.06,1V15Z"/><path d="M56.55,15V10.73H55.08v-1h4.16v1H57.77V15Z"/><path d="M62.6,15l-.33-1.24H60.64L60.31,15H59.07l1.68-5.22h1.46L63.89,15ZM61,12.32l-.13.48H62l-.13-.48c-.07-.26-.15-.54-.22-.83s-.14-.58-.21-.85h0c-.06.28-.13.56-.2.85S61.09,12.06,61,12.32Z"/><path d="M64.47,15V9.74h1.21V14H67.8v1Z"/><path d="M72.62,15.05a2.62,2.62,0,0,1-1.25-.3,2.17,2.17,0,0,1-.9-.9,2.86,2.86,0,0,1-.35-1.47,2.93,2.93,0,0,1,.35-1.47A2.54,2.54,0,0,1,71.4,10a2.51,2.51,0,0,1,1.26-.32,2,2,0,0,1,.93.2,2.5,2.5,0,0,1,.68.48l-.64.75a2.38,2.38,0,0,0-.43-.3,1.11,1.11,0,0,0-.52-.12,1.16,1.16,0,0,0-.93.45,1.81,1.81,0,0,0-.38,1.23,1.92,1.92,0,0,0,.35,1.25,1.15,1.15,0,0,0,1,.45,1.21,1.21,0,0,0,.58-.14,1.8,1.8,0,0,0,.46-.35l.64.74A2.2,2.2,0,0,1,72.62,15.05Z"/><path d="M77,15.05a2.31,2.31,0,0,1-1.76-.72,2.81,2.81,0,0,1-.67-2,2.71,2.71,0,0,1,.67-2,2.58,2.58,0,0,1,3.53,0,2.75,2.75,0,0,1,.67,2,2.81,2.81,0,0,1-.67,2A2.31,2.31,0,0,1,77,15.05Zm0-1a1,1,0,0,0,.88-.47,2.17,2.17,0,0,0,.32-1.24,2.06,2.06,0,0,0-.32-1.22,1.08,1.08,0,0,0-1.75,0,2.06,2.06,0,0,0-.32,1.22,2.17,2.17,0,0,0,.32,1.24A1,1,0,0,0,77,14Z"/><path d="M80.49,15V9.74h1.25l1.39,2.59.53,1.16h0q0-.42-.09-.93a8.36,8.36,0,0,1,0-1V9.74H84.7V15H83.46l-1.4-2.6-.53-1.14h0c0,.29.06.6.09.93a8,8,0,0,1,.06,1V15Z"/><path d="M87,15V10.73H85.54v-1H89.7v1H88.23V15Z"/><path d="M91.75,15H90.54V9.74h1.94a2.92,2.92,0,0,1,1.46.35,1.35,1.35,0,0,1,.6,1.28,1.61,1.61,0,0,1-.26.94,1.71,1.71,0,0,1-.69.56L94.8,15H93.45l-1-1.88h-.67Zm0-2.82h.63c.65,0,1-.26,1-.77a.58.58,0,0,0-.26-.54,1.4,1.4,0,0,0-.72-.15h-.63Z"/><path d="M97.77,15.05A2.28,2.28,0,0,1,96,14.33a2.82,2.82,0,0,1-.68-2,2.72,2.72,0,0,1,.68-2,2.3,2.3,0,0,1,1.76-.7,2.33,2.33,0,0,1,1.76.7,2.75,2.75,0,0,1,.67,2,2.81,2.81,0,0,1-.67,2A2.31,2.31,0,0,1,97.77,15.05Zm0-1a1,1,0,0,0,.87-.47A2.17,2.17,0,0,0,99,12.33a2.06,2.06,0,0,0-.32-1.22,1.08,1.08,0,0,0-1.75,0,2.06,2.06,0,0,0-.32,1.22,2.17,2.17,0,0,0,.32,1.24A1,1,0,0,0,97.77,14Z"/><path d="M101.21,15V9.74h1.21V14h2.13v1Z"/><path class="cls-3" d="M81.3,23.88l3.13-2.29h5.22l3.13,2.29Z"/><rect class="cls-3" x="81.21" y="25.02" width="11.49" height="1.12"/><rect class="cls-3" x="81.21" y="27.25" width="11.49" height="1.12"/><rect class="cls-3" x="81.21" y="25.02" width="11.49" height="0.01"/><rect class="cls-3" x="81.21" y="27.24" width="11.49" height="0.01"/><ellipse class="cls-5" cx="7.08" cy="40.42" rx="3.39" ry="3.53"/><ellipse class="cls-6" cx="7.08" cy="40.42" rx="2.22" ry="2.31"/><ellipse class="cls-7" cx="16.77" cy="40.42" rx="3.39" ry="3.53"/><ellipse class="cls-6" cx="16.77" cy="40.42" rx="2.22" ry="2.31"/><ellipse class="cls-8" cx="26.46" cy="40.42" rx="3.39" ry="3.53"/><ellipse class="cls-6" cx="26.46" cy="40.42" rx="2.22" ry="2.31"/></svg>