<svg id="Layer_1" data-name="Layer 1" xmlns="http://www.w3.org/2000/svg" xmlns:xlink="http://www.w3.org/1999/xlink" viewBox="0 0 3118.29 43.03"><defs><style>.cls-1,.cls-4{fill:none;}.cls-2{clip-path:url(#clip-path);}.cls-3{clip-path:url(#clip-path-2);}.cls-4{stroke:#000;stroke-miterlimit:10;stroke-width:0.38px;}.cls-5{clip-path:url(#clip-path-3);}.cls-6{fill:url(#linear-gradient);}</style><clipPath id="clip-path"><rect class="cls-1" width="3118.29" height="43.03"/></clipPath><clipPath id="clip-path-2"><rect class="cls-1" width="3118.29" height="43.03"/></clipPath><clipPath id="clip-path-3"><path class="cls-1" d="M4.91,1.3H3113.38a2.25,2.25,0,0,1,2.25,2.25v19a2.24,2.24,0,0,1-2.24,2.24H4.91a2.24,2.24,0,0,1-2.24-2.24v-19A2.25,2.25,0,0,1,4.91,1.3Z"/></clipPath><linearGradient id="linear-gradient" x1="1559.14" y1="24.76" x2="1559.14" y2="1.3" gradientUnits="userSpaceOnUse"><stop offset="0" stop-color="#555"/><stop offset="0.32" stop-color="#a5a5a5"/><stop offset="0.65" stop-color="#b6b6b6"/><stop offset="1" stop-color="#727272"/></linearGradient></defs><g class="cls-2"><g class="cls-3"><path d="M3113,.19H5.33C2.5.19.19,1.55.19,3.22v20c0,1.74,2.41,3.16,5.36,3.16h8.1v9.75c0,3.71,5.15,6.75,11.44,6.75H42.58c6.29,0,11.44-3,11.44-6.75V26.34H3055.29v9.75c0,3.71,5.15,6.75,11.45,6.75h17.49c6.29,0,11.44-3,11.44-6.75V26.34h17.07c3,0,5.36-1.42,5.36-3.16v-20c0-1.67-2.32-3-5.14-3"/><path class="cls-4" d="M3113,.19H5.33C2.5.19.19,1.55.19,3.22v20c0,1.74,2.41,3.16,5.36,3.16h8.1v9.75c0,3.71,5.15,6.75,11.44,6.75H42.58c6.29,0,11.44-3,11.44-6.75V26.34H3055.29v9.75c0,3.71,5.15,6.75,11.45,6.75h17.49c6.29,0,11.44-3,11.44-6.75V26.34h17.07c3,0,5.36-1.42,5.36-3.16v-20C3118.1,1.55,3115.78.19,3113,.19Z"/></g><g class="cls-5"><rect class="cls-6" x="2.66" y="1.3" width="3112.96" height="23.46"/></g><g class="cls-3"><path d="M1541.1,18V8.23h2.7l1.44,4c.09.27.17.55.25.85s.17.58.25.86h.06c.09-.28.17-.57.25-.86s.16-.58.25-.85l1.38-4h2.7V18h-2.29V15.1a15,15,0,0,1,.12-1.75l.21-1.73h-.06l-.8,2.34-1.17,3.23H1545L1543.86,14l-.76-2.34H1543l.21,1.73a17.23,17.23,0,0,1,.11,1.75V18Z"/><rect x="1552.5" y="8.23" width="2.53" height="9.75"/><path d="M1561.28,18.16a4.68,4.68,0,0,1-2.25-.55,4.23,4.23,0,0,1-1.67-1.66,5.54,5.54,0,0,1-.63-2.77,5.58,5.58,0,0,1,.65-2.78,4.57,4.57,0,0,1,1.71-1.75,4.46,4.46,0,0,1,2.25-.6,3.71,3.71,0,0,1,1.71.39,4.73,4.73,0,0,1,1.26.9L1563,11a4.27,4.27,0,0,0-.73-.52,1.84,1.84,0,0,0-2.32.55,3.12,3.12,0,0,0-.62,2.07,3.41,3.41,0,0,0,.56,2.12,1.8,1.8,0,0,0,1.49.73,1.87,1.87,0,0,0,1-.25,3.43,3.43,0,0,0,.75-.59l1.32,1.62a3.9,3.9,0,0,1-3.15,1.44"/><path d="M1568.28,18h-2.53V8.23h3.61a6.06,6.06,0,0,1,1.9.29,2.82,2.82,0,0,1,1.39,1,3,3,0,0,1,.53,1.9,3.3,3.3,0,0,1-.42,1.74,3.13,3.13,0,0,1-1.12,1.08l2.07,3.78h-2.82l-1.64-3.27h-1Zm0-5.31h.91q1.53,0,1.53-1.29a.94.94,0,0,0-.39-.87,2.2,2.2,0,0,0-1.14-.24h-.91Z"/><path d="M1579,18.16a4.14,4.14,0,0,1-3.21-1.35,5.36,5.36,0,0,1-1.23-3.75,5.18,5.18,0,0,1,1.23-3.7,4.59,4.59,0,0,1,6.42,0,5.18,5.18,0,0,1,1.23,3.7,5.36,5.36,0,0,1-1.23,3.75,4.14,4.14,0,0,1-3.21,1.35m0-2.22a1.53,1.53,0,0,0,1.35-.78,3.88,3.88,0,0,0,.5-2.1,3.63,3.63,0,0,0-.5-2.05,1.6,1.6,0,0,0-2.7,0,3.55,3.55,0,0,0-.5,2.05,3.8,3.8,0,0,0,.5,2.1,1.53,1.53,0,0,0,1.35.78"/><path d="M1588.2,18.16a5.54,5.54,0,0,1-1.88-.34,5,5,0,0,1-1.74-1.05L1586,15a4.6,4.6,0,0,0,1.1.68,2.93,2.93,0,0,0,1.14.26q1.08,0,1.08-.69a.56.56,0,0,0-.34-.52l-1-.42-1.19-.51a3.43,3.43,0,0,1-1.35-1,2.6,2.6,0,0,1-.58-1.73,2.8,2.8,0,0,1,1-2.14,3.73,3.73,0,0,1,2.56-.89,4.79,4.79,0,0,1,1.67.32,4.36,4.36,0,0,1,1.5,1L1590.4,11a4.73,4.73,0,0,0-.93-.53,2.63,2.63,0,0,0-1-.18c-.67,0-1,.22-1,.66a.58.58,0,0,0,.38.53c.26.13.6.28,1,.45l1.16.46a3.11,3.11,0,0,1,1.38,1,2.64,2.64,0,0,1,.49,1.66,3,3,0,0,1-1,2.18,3.8,3.8,0,0,1-2.76.94"/><path d="M1597.6,18.16a4.69,4.69,0,0,1-2.26-.55,4.23,4.23,0,0,1-1.67-1.66,5.54,5.54,0,0,1-.63-2.77,5.47,5.47,0,0,1,.66-2.78,4.48,4.48,0,0,1,4-2.35,3.7,3.7,0,0,1,1.7.39,4.73,4.73,0,0,1,1.26.9L1599.3,11a3.91,3.91,0,0,0-.73-.52,1.82,1.82,0,0,0-.86-.2,1.87,1.87,0,0,0-1.46.75,3.17,3.17,0,0,0-.62,2.07,3.48,3.48,0,0,0,.56,2.12,1.8,1.8,0,0,0,1.5.73,1.92,1.92,0,0,0,1-.25,3.62,3.62,0,0,0,.74-.59l1.32,1.62a3.9,3.9,0,0,1-3.14,1.44"/><path d="M1605.5,18.16a4.14,4.14,0,0,1-3.21-1.35,5.36,5.36,0,0,1-1.23-3.75,5.18,5.18,0,0,1,1.23-3.7,4.59,4.59,0,0,1,6.42,0,5.18,5.18,0,0,1,1.23,3.7,5.36,5.36,0,0,1-1.23,3.75,4.14,4.14,0,0,1-3.21,1.35m0-2.22a1.53,1.53,0,0,0,1.35-.78,3.88,3.88,0,0,0,.5-2.1,3.63,3.63,0,0,0-.5-2.05,1.6,1.6,0,0,0-2.7,0,3.55,3.55,0,0,0-.5,2.05,3.8,3.8,0,0,0,.5,2.1,1.53,1.53,0,0,0,1.35.78"/><path d="M1611.64,18V8.23h3.5a5.94,5.94,0,0,1,1.92.3,2.93,2.93,0,0,1,1.42,1,3.1,3.1,0,0,1,.54,1.93,3.26,3.26,0,0,1-.54,1.95,3.22,3.22,0,0,1-1.41,1.11,4.92,4.92,0,0,1-1.88.36h-1V18Zm2.53-5.13h.91q1.47,0,1.47-1.38a1.06,1.06,0,0,0-.4-.93,2,2,0,0,0-1.13-.27h-.85Z"/><polygon points="1620.57 17.98 1620.57 8.23 1626.74 8.23 1626.74 10.39 1623.1 10.39 1623.1 11.92 1626.21 11.92 1626.21 14.08 1623.1 14.08 1623.1 15.82 1626.89 15.82 1626.89 17.98 1620.57 17.98"/><polygon points="1633.5 17.98 1633.5 10.39 1630.97 10.39 1630.97 8.23 1638.55 8.23 1638.55 10.39 1636.03 10.39 1636.03 17.98 1633.5 17.98"/><path d="M1644.37,18l-.47-2.07h-2.68l-.46,2.07h-2.59l2.91-9.75h3.05L1647,18Zm-2.53-4.74-.16.67h1.76l-.16-.67c-.12-.46-.23-1-.35-1.52s-.24-1.08-.35-1.57h-.06l-.32,1.57c-.12.55-.24,1.06-.36,1.52"/><path d="M1648,18V8.23h3.44a6,6,0,0,1,2.56.5,1.93,1.93,0,0,1,1.06,1.93,2.63,2.63,0,0,1-.33,1.25,1.69,1.69,0,0,1-.88.85v.06a2.5,2.5,0,0,1,1.16.77,2.18,2.18,0,0,1,.49,1.51,2.39,2.39,0,0,1-1.11,2.19,5,5,0,0,1-2.66.69Zm2.53-5.94h.85c.81,0,1.21-.33,1.21-1s-.4-.84-1.21-.84h-.85Zm0,4h1q1.47,0,1.47-1.08t-1.47-1h-1Z"/><polygon points="1656.94 17.98 1656.94 8.23 1659.47 8.23 1659.47 15.82 1663.08 15.82 1663.08 17.98 1656.94 17.98"/><polygon points="1664.73 17.98 1664.73 8.23 1670.9 8.23 1670.9 10.39 1667.26 10.39 1667.26 11.92 1670.37 11.92 1670.37 14.08 1667.26 14.08 1667.26 15.82 1671.05 15.82 1671.05 17.98 1664.73 17.98"/></g></g></svg>