<svg id="Layer_1" data-name="Layer 1" xmlns="http://www.w3.org/2000/svg" xmlns:xlink="http://www.w3.org/1999/xlink" width="46.5" height="72.27" viewBox="0 0 46.5 72.27"><defs><style>.cls-1{opacity:0.61;fill:url(#linear-gradient);}.cls-2{opacity:0.51;fill:url(#linear-gradient-2);}.cls-3{fill:url(#linear-gradient-3);}.cls-4{fill:url(#linear-gradient-4);}.cls-5{fill:url(#linear-gradient-5);}</style><linearGradient id="linear-gradient" x1="40.57" y1="40.73" x2="3.3" y2="19.21" gradientUnits="userSpaceOnUse"><stop offset="0.02" stop-color="#666"/><stop offset="0.02" stop-color="#6e6e6e"/><stop offset="0.05" stop-color="#999899"/><stop offset="0.07" stop-color="#b8b7b8"/><stop offset="0.09" stop-color="#cbcacb"/><stop offset="0.11" stop-color="#d2d1d2"/><stop offset="0.18" stop-color="#c5c4c5"/><stop offset="0.29" stop-color="#979696"/><stop offset="0.33" stop-color="#919090"/><stop offset="0.5" stop-color="#f2f2f2"/><stop offset="0.78" stop-color="#c9c8c8"/><stop offset="0.85" stop-color="#fff"/><stop offset="1" stop-color="#4d4d4d"/></linearGradient><linearGradient id="linear-gradient-2" x1="24.56" y1="56.22" x2="24.56" y2="3.72" gradientUnits="userSpaceOnUse"><stop offset="0.11" stop-color="#d2d1d2"/><stop offset="0.18" stop-color="#c5c4c5"/><stop offset="0.59" stop-color="#c9c8c8"/><stop offset="0.85" stop-color="#f2f2f2"/></linearGradient><linearGradient id="linear-gradient-3" x1="43.99" y1="30.35" x2="0.39" y2="30.35" gradientUnits="userSpaceOnUse"><stop offset="0.02" stop-color="#666"/><stop offset="0.02" stop-color="#646464"/><stop offset="0.2" stop-color="#393939"/><stop offset="0.36" stop-color="#1a1a1a"/><stop offset="0.5" stop-color="#070707"/><stop offset="0.59"/><stop offset="1" stop-color="#4d4d4d"/></linearGradient><linearGradient id="linear-gradient-4" x1="42.81" y1="42.52" x2="0.79" y2="18.26" xlink:href="#linear-gradient-3"/><linearGradient id="linear-gradient-5" x1="46.5" y1="30.35" x2="2.91" y2="30.35" xlink:href="#linear-gradient-3"/></defs><title>Mirror_Reflector copy</title><path d="M6,69.32H4.73V64.59H6.52a3.14,3.14,0,0,1,.94.14,1.45,1.45,0,0,1,.69.47,1.48,1.48,0,0,1,.26.92A1.54,1.54,0,0,1,8.2,67a1.47,1.47,0,0,1-.56.52l1,1.84H7.27l-.81-1.59H6Zm0-2.58h.45c.5,0,.76-.21.76-.62A.44.44,0,0,0,7,65.7a1,1,0,0,0-.56-.12H6Z"/><path d="M9.31,69.32V64.59h3v1h-1.8v.74H12.1v1.05H10.56v.84h1.87v1Z"/><path d="M13.35,69.32V64.59h3.08v1H14.6v.9h1.57v1H14.6v1.73Z"/><path d="M17.25,69.32V64.59H18.5v3.68h1.78v1Z"/><path d="M21.1,69.32V64.59h3v1h-1.8v.74h1.54v1.05H22.35v.84h1.87v1Z"/><path d="M27.19,69.4a2.38,2.38,0,0,1-1.12-.27,2,2,0,0,1-.82-.8,2.95,2.95,0,0,1,0-2.69,2.21,2.21,0,0,1,.84-.85,2.31,2.31,0,0,1,1.12-.29,1.92,1.92,0,0,1,.84.19,2.51,2.51,0,0,1,.63.44l-.66.8a2,2,0,0,0-.36-.25.82.82,0,0,0-.42-.1.94.94,0,0,0-.73.36,1.56,1.56,0,0,0-.31,1,1.67,1.67,0,0,0,.28,1,.9.9,0,0,0,.74.36.88.88,0,0,0,.49-.13,1.34,1.34,0,0,0,.37-.28l.65.79A1.94,1.94,0,0,1,27.19,69.4Z"/><path d="M30.23,69.32V65.64H29v-1h3.75v1H31.48v3.68Z"/><path d="M35.2,69.4a2.07,2.07,0,0,1-1.59-.65A2.6,2.6,0,0,1,33,66.93a2.5,2.5,0,0,1,.61-1.79,2.07,2.07,0,0,1,1.59-.64,2.09,2.09,0,0,1,1.59.64,2.5,2.5,0,0,1,.6,1.79,2.59,2.59,0,0,1-.6,1.82A2.1,2.1,0,0,1,35.2,69.4Zm0-1.07a.78.78,0,0,0,.67-.38,1.88,1.88,0,0,0,.24-1,1.75,1.75,0,0,0-.24-1,.78.78,0,0,0-.67-.36.77.77,0,0,0-.67.36,1.74,1.74,0,0,0-.25,1,1.87,1.87,0,0,0,.25,1A.77.77,0,0,0,35.2,68.33Z"/><path d="M39.49,69.32H38.24V64.59H40a3.09,3.09,0,0,1,.94.14,1.36,1.36,0,0,1,.69.47,1.42,1.42,0,0,1,.26.92,1.54,1.54,0,0,1-.21.84,1.45,1.45,0,0,1-.55.52l1,1.84h-1.4L40,67.73h-.48Zm0-2.58h.45c.5,0,.75-.21.75-.62a.43.43,0,0,0-.19-.42,1.08,1.08,0,0,0-.56-.12h-.45Z"/><ellipse class="cls-1" cx="21.94" cy="29.97" rx="19.69" ry="26.25"/><ellipse class="cls-2" cx="24.56" cy="29.97" rx="19.69" ry="26.25"/><path class="cls-3" d="M21.93,0C9.89.15.25,13.86.39,30.62s10,30.23,22.06,30.08S44.13,46.84,44,30.08,34-.15,21.93,0Zm.29,56.2c-10.07.13-18.33-11.52-18.45-26s7.93-26.35,18-26.47,18.33,11.52,18.45,26S32.28,56.08,22.22,56.2Z"/><path class="cls-4" d="M21.53,0C9.5.19-.14,13.89,0,30.66S10,60.89,22.06,60.74a15.73,15.73,0,0,0,2.75-.28c10.72-2,18.92-14.88,18.78-30.34C43.45,13.36,33.57-.11,21.53,0Zm3.2,56.18c-10.06.12-18.32-11.53-18.44-26s7.93-26.35,18-26.48,18.32,11.53,18.45,26S34.8,56.09,24.73,56.22Z"/><path class="cls-5" d="M24.44,0C12.4.15,2.76,13.86,2.91,30.62S12.93,60.85,25,60.7,46.64,46.84,46.5,30.08,36.48-.15,24.44,0Zm.29,56.2c-10.06.13-18.32-11.52-18.45-26s7.93-26.35,18-26.47,18.32,11.52,18.45,26S34.79,56.08,24.73,56.2Z"/></svg>