<svg id="Layer_1" data-name="Layer 1" xmlns="http://www.w3.org/2000/svg" xmlns:xlink="http://www.w3.org/1999/xlink" viewBox="0 0 33.26 60.73"><defs><style>.cls-1{fill:#8e8e8e;}.cls-2{opacity:0.65;}.cls-3{opacity:0.61;fill:url(#linear-gradient);}.cls-4{opacity:0.51;fill:url(#linear-gradient-2);}.cls-5{fill:url(#linear-gradient-3);}.cls-6,.cls-9{stroke-miterlimit:10;stroke-width:0.38px;}.cls-6{opacity:0.43;fill:url(#linear-gradient-4);stroke:url(#linear-gradient-5);}.cls-7{fill:url(#linear-gradient-6);}.cls-8{fill:url(#linear-gradient-7);}.cls-9{opacity:0.42;fill:url(#linear-gradient-8);stroke:url(#linear-gradient-9);}</style><linearGradient id="linear-gradient" x1="26.23" y1="26.16" x2="5.81" y2="14.37" gradientUnits="userSpaceOnUse"><stop offset="0.02" stop-color="#666"/><stop offset="0.02" stop-color="#6e6e6e"/><stop offset="0.05" stop-color="#999899"/><stop offset="0.07" stop-color="#b8b7b8"/><stop offset="0.09" stop-color="#cbcacb"/><stop offset="0.11" stop-color="#d2d1d2"/><stop offset="0.18" stop-color="#c5c4c5"/><stop offset="0.29" stop-color="#979696"/><stop offset="0.33" stop-color="#919090"/><stop offset="0.5" stop-color="#f2f2f2"/><stop offset="0.78" stop-color="#c9c8c8"/><stop offset="0.85" stop-color="#fff"/><stop offset="1" stop-color="#4d4d4d"/></linearGradient><linearGradient id="linear-gradient-2" x1="17.09" y1="39.28" x2="17.09" y2="1.25" gradientUnits="userSpaceOnUse"><stop offset="0.02" stop-color="#666"/><stop offset="0.02" stop-color="#6e6e6e"/><stop offset="0.05" stop-color="#999899"/><stop offset="0.07" stop-color="#b8b7b8"/><stop offset="0.09" stop-color="#cbcacb"/><stop offset="0.11" stop-color="#d2d1d2"/><stop offset="0.18" stop-color="#c5c4c5"/><stop offset="0.29" stop-color="#979696"/><stop offset="0.36" stop-color="#919090"/><stop offset="0.59" stop-color="#c9c8c8"/><stop offset="0.85" stop-color="#f2f2f2"/><stop offset="1" stop-color="#4d4d4d"/></linearGradient><linearGradient id="linear-gradient-3" x1="25.1" y1="21.99" x2="7.29" y2="21.99" gradientUnits="userSpaceOnUse"><stop offset="0.02" stop-color="#666"/><stop offset="0.02" stop-color="#646464"/><stop offset="0.2" stop-color="#393939"/><stop offset="0.36" stop-color="#1a1a1a"/><stop offset="0.5" stop-color="#070707"/><stop offset="0.59"/><stop offset="1" stop-color="#4d4d4d"/></linearGradient><linearGradient id="linear-gradient-4" x1="8.43" y1="36.37" x2="25.35" y2="7.06" gradientUnits="userSpaceOnUse"><stop offset="0.02" stop-color="#666"/><stop offset="0.06" stop-color="#8c8c8c"/><stop offset="0.11" stop-color="#abaaab"/><stop offset="0.15" stop-color="#bebdbe"/><stop offset="0.18" stop-color="#c5c4c5"/><stop offset="0.5" stop-color="#f2f2f2"/><stop offset="0.78" stop-color="#c9c8c8"/><stop offset="1" stop-color="#4d4d4d"/></linearGradient><linearGradient id="linear-gradient-5" x1="9" y1="21.71" x2="24.78" y2="21.71" gradientUnits="userSpaceOnUse"><stop offset="0" stop-color="#a6a5a5"/><stop offset="0.11" stop-color="#d2d1d2"/><stop offset="0.18" stop-color="#c5c4c5"/><stop offset="0.29" stop-color="#979696"/><stop offset="0.33" stop-color="#919090"/><stop offset="0.78" stop-color="#c9c8c8"/><stop offset="0.85" stop-color="#fff"/><stop offset="1" stop-color="#797979"/></linearGradient><linearGradient id="linear-gradient-6" x1="27.69" y1="28.74" x2="4.39" y2="15.29" xlink:href="#linear-gradient-3"/><linearGradient id="linear-gradient-7" x1="26.13" y1="21.99" x2="8.32" y2="21.99" xlink:href="#linear-gradient-3"/><linearGradient id="linear-gradient-8" x1="27.38" y1="31.87" x2="7.07" y2="11.56" gradientUnits="userSpaceOnUse"><stop offset="0" stop-color="#4d4d4d"/><stop offset="0.22" stop-color="#c9c8c8"/><stop offset="0.5" stop-color="#f2f2f2"/><stop offset="0.67" stop-color="#919090"/><stop offset="0.71" stop-color="#979696"/><stop offset="0.82" stop-color="#c5c4c5"/><stop offset="0.85" stop-color="#bebdbe"/><stop offset="0.89" stop-color="#abaaab"/><stop offset="0.94" stop-color="#8c8c8c"/><stop offset="0.98" stop-color="#666"/></linearGradient><linearGradient id="linear-gradient-9" x1="9.51" y1="21.71" x2="24.78" y2="21.71" xlink:href="#linear-gradient-5"/></defs><path class="cls-1" d="M6,52.28v-3.9h1.1L7.73,50a3.37,3.37,0,0,1,.1.34,3.38,3.38,0,0,0,.11.34H8a3.37,3.37,0,0,0,.1-.34c0-.12.07-.23.1-.34l.57-1.6h1.1v3.9H8.9V51.13a6.28,6.28,0,0,1,0-.7c0-.26.06-.5.09-.69H9l-.32.94L8.2,52H7.65l-.48-1.29-.32-.94h0c0,.19,0,.43.09.69a6.28,6.28,0,0,1,0,.7v1.15Z"/><path class="cls-1" d="M10.69,52.28v-3.9h1v3.9Z"/><path class="cls-1" d="M13.62,52.28h-1v-3.9h1.48a2.39,2.39,0,0,1,.77.12,1.09,1.09,0,0,1,.57.38,1.18,1.18,0,0,1,.22.76,1.25,1.25,0,0,1-.18.7,1.16,1.16,0,0,1-.45.43l.84,1.51H14.69L14,51h-.4Zm0-2.12H14c.41,0,.62-.17.62-.52a.36.36,0,0,0-.16-.34.85.85,0,0,0-.46-.1h-.38Z"/><path class="cls-1" d="M17.4,52.28h-1v-3.9h1.48a2.35,2.35,0,0,1,.77.12,1.09,1.09,0,0,1,.57.38,1.18,1.18,0,0,1,.22.76,1.25,1.25,0,0,1-.18.7,1.16,1.16,0,0,1-.45.43l.84,1.51H18.47L17.8,51h-.4Zm0-2.12h.37c.42,0,.63-.17.63-.52a.36.36,0,0,0-.16-.34.86.86,0,0,0-.47-.1H17.4Z"/><path class="cls-1" d="M21.79,52.35a1.72,1.72,0,0,1-1.31-.53,2.17,2.17,0,0,1-.5-1.5,2.1,2.1,0,0,1,.5-1.49,1.79,1.79,0,0,1,1.31-.52,1.74,1.74,0,0,1,1.31.52,2.06,2.06,0,0,1,.51,1.49,2.13,2.13,0,0,1-.51,1.5A1.68,1.68,0,0,1,21.79,52.35Zm0-.88a.65.65,0,0,0,.56-.31,1.58,1.58,0,0,0,.2-.84,1.5,1.5,0,0,0-.2-.83.68.68,0,0,0-1.11,0,1.5,1.5,0,0,0-.2.83,1.58,1.58,0,0,0,.2.84A.65.65,0,0,0,21.79,51.47Z"/><path class="cls-1" d="M25.34,52.28h-1v-3.9h1.48a2.35,2.35,0,0,1,.77.12,1.09,1.09,0,0,1,.57.38,1.18,1.18,0,0,1,.22.76,1.34,1.34,0,0,1-.17.7,1.26,1.26,0,0,1-.46.43l.84,1.51H26.4L25.73,51h-.39Zm0-2.12h.37c.41,0,.62-.17.62-.52a.36.36,0,0,0-.16-.34.83.83,0,0,0-.46-.1h-.37Z"/><g class="cls-2"><ellipse class="cls-3" cx="16.02" cy="20.27" rx="8.04" ry="19.02"/><ellipse class="cls-4" cx="17.09" cy="20.27" rx="8.04" ry="19.02"/></g><path class="cls-5" d="M16.09,0c-4.92.11-8.86,10-8.8,22.19s4.1,21.9,9,21.79,8.86-10,8.8-22.18S21-.11,16.09,0Zm.12,40.72c-4.11.09-7.49-8.35-7.54-18.85S11.91,2.78,16,2.69,23.51,11,23.56,21.54,20.32,40.63,16.21,40.72Z"/><ellipse class="cls-6" cx="16.89" cy="21.71" rx="7.7" ry="19.02"/><path class="cls-7" d="M15.93,0c-4.92.1-8.86,10-8.8,22.18s4.09,21.9,9,21.8a4,4,0,0,0,1.13-.2c4.38-1.46,7.73-10.78,7.67-22C24.88,9.68,20.85-.08,15.93,0Zm1.31,40.7c-4.12.09-7.49-8.35-7.54-18.85S12.94,2.79,17.05,2.7s7.49,8.35,7.54,18.85S21.35,40.64,17.24,40.73Z"/><path class="cls-8" d="M17.12,0C12.2.11,8.26,10,8.32,22.19s4.09,21.9,9,21.79,8.86-10,8.8-22.18S22-.11,17.12,0Zm.11,40.72c-4.11.09-7.48-8.35-7.53-18.85S12.94,2.78,17.05,2.69,24.54,11,24.59,21.54,21.35,40.63,17.23,40.72Z"/><path class="cls-9" d="M24.59,22.26c-.1,8.49-3.06,18.21-7.19,18.47-4.29.28-7.7-9.81-7.7-19s3.41-19.28,7.7-19S24.7,13.32,24.59,22.26Z"/></svg>