<svg xmlns="http://www.w3.org/2000/svg" xmlns:xlink="http://www.w3.org/1999/xlink" viewBox="0 0 33.26 60.73"><defs><style>.cls-1{isolation:isolate;}.cls-2{fill:#8e8e8e;}.cls-3{opacity:0.65;}.cls-4{opacity:0.61;fill:url(#linear-gradient);}.cls-5{opacity:0.51;fill:url(#linear-gradient-2);}.cls-6{fill:url(#linear-gradient-3);}.cls-7{stroke-miterlimit:10;stroke-width:0.38px;opacity:0.25;fill:url(#linear-gradient-4);stroke:url(#linear-gradient-5);}.cls-8{fill:url(#linear-gradient-6);}.cls-9{fill:url(#linear-gradient-7);}.cls-10{mix-blend-mode:soft-light;fill:url(#linear-gradient-8);}</style><linearGradient id="linear-gradient" x1="26.23" y1="26.16" x2="5.81" y2="14.37" gradientUnits="userSpaceOnUse"><stop offset="0.02" stop-color="#666"/><stop offset="0.02" stop-color="#6e6e6e"/><stop offset="0.05" stop-color="#999899"/><stop offset="0.07" stop-color="#b8b7b8"/><stop offset="0.09" stop-color="#cbcacb"/><stop offset="0.11" stop-color="#d2d1d2"/><stop offset="0.18" stop-color="#c5c4c5"/><stop offset="0.29" stop-color="#979696"/><stop offset="0.33" stop-color="#919090"/><stop offset="0.5" stop-color="#f2f2f2"/><stop offset="0.78" stop-color="#c9c8c8"/><stop offset="0.85" stop-color="#fff"/><stop offset="1" stop-color="#4d4d4d"/></linearGradient><linearGradient id="linear-gradient-2" x1="17.09" y1="39.28" x2="17.09" y2="1.25" gradientUnits="userSpaceOnUse"><stop offset="0.02" stop-color="#666"/><stop offset="0.02" stop-color="#6e6e6e"/><stop offset="0.05" stop-color="#999899"/><stop offset="0.07" stop-color="#b8b7b8"/><stop offset="0.09" stop-color="#cbcacb"/><stop offset="0.11" stop-color="#d2d1d2"/><stop offset="0.18" stop-color="#c5c4c5"/><stop offset="0.29" stop-color="#979696"/><stop offset="0.36" stop-color="#919090"/><stop offset="0.59" stop-color="#c9c8c8"/><stop offset="0.85" stop-color="#f2f2f2"/><stop offset="1" stop-color="#4d4d4d"/></linearGradient><linearGradient id="linear-gradient-3" x1="25.1" y1="21.99" x2="7.29" y2="21.99" gradientUnits="userSpaceOnUse"><stop offset="0.02" stop-color="#666"/><stop offset="0.02" stop-color="#646464"/><stop offset="0.2" stop-color="#393939"/><stop offset="0.36" stop-color="#1a1a1a"/><stop offset="0.5" stop-color="#070707"/><stop offset="0.59"/><stop offset="1" stop-color="#4d4d4d"/></linearGradient><linearGradient id="linear-gradient-4" x1="8.43" y1="36.37" x2="25.35" y2="7.06" gradientUnits="userSpaceOnUse"><stop offset="0.02" stop-color="#666"/><stop offset="0.06" stop-color="#8c8c8c"/><stop offset="0.11" stop-color="#abaaab"/><stop offset="0.15" stop-color="#bebdbe"/><stop offset="0.18" stop-color="#c5c4c5"/><stop offset="0.5" stop-color="#f2f2f2"/><stop offset="0.78" stop-color="#c9c8c8"/><stop offset="1" stop-color="#4d4d4d"/></linearGradient><linearGradient id="linear-gradient-5" x1="9" y1="21.71" x2="24.78" y2="21.71" gradientUnits="userSpaceOnUse"><stop offset="0" stop-color="#a6a5a5"/><stop offset="0.11" stop-color="#d2d1d2"/><stop offset="0.18" stop-color="#c5c4c5"/><stop offset="0.29" stop-color="#979696"/><stop offset="0.33" stop-color="#919090"/><stop offset="0.78" stop-color="#c9c8c8"/><stop offset="0.85" stop-color="#fff"/><stop offset="1" stop-color="#797979"/></linearGradient><linearGradient id="linear-gradient-6" x1="27.69" y1="28.74" x2="4.39" y2="15.29" xlink:href="#linear-gradient-3"/><linearGradient id="linear-gradient-7" x1="26.13" y1="21.99" x2="8.32" y2="21.99" xlink:href="#linear-gradient-3"/><linearGradient id="linear-gradient-8" x1="27.38" y1="31.87" x2="7.07" y2="11.56" gradientUnits="userSpaceOnUse"><stop offset="0" stop-color="#921d00"/><stop offset="0.5" stop-color="#d42300"/><stop offset="1" stop-color="#ffa49d"/></linearGradient></defs><g class="cls-1"><g id="Layer_1" data-name="Layer 1"><path class="cls-2" d="M7,52.35a2.19,2.19,0,0,1-1-.22,1.73,1.73,0,0,1-.71-.66,2.46,2.46,0,0,1,0-2.22,1.83,1.83,0,0,1,.71-.7,2,2,0,0,1,1-.24,1.6,1.6,0,0,1,.75.16,1.71,1.71,0,0,1,.52.36l-.54.66a1,1,0,0,0-.3-.21A.9.9,0,0,0,7,49.2a.83.83,0,0,0-.66.3,1.2,1.2,0,0,0-.27.83,1.28,1.28,0,0,0,.25.84,1,1,0,0,0,.77.3.51.51,0,0,0,.3-.08v-.54H6.81V50H8.3v1.85a1.52,1.52,0,0,1-.56.34A1.9,1.9,0,0,1,7,52.35Z"/><path class="cls-2" d="M9.05,52.28v-3.9h2.52v.87H10.08v.61h1.28v.86H10.08v.7h1.55v.86Z"/><path class="cls-2" d="M12.39,52.28v-3.9h1l.87,1.74.37.88h0c0-.21,0-.45-.08-.72a7.09,7.09,0,0,1,0-.77V48.38h1v3.9H14.5l-.86-1.74-.38-.87h0c0,.22,0,.47.08.73a4.93,4.93,0,0,1,0,.76v1.12Z"/><path class="cls-2" d="M16.42,52.28v-3.9h2.52v.87H17.45v.61h1.27v.86H17.45v.7H19v.86Z"/><path class="cls-2" d="M20.79,52.28h-1v-3.9h1.47a2.45,2.45,0,0,1,.78.12,1.18,1.18,0,0,1,.57.38,1.25,1.25,0,0,1,.21.76,1.34,1.34,0,0,1-.17.7,1.26,1.26,0,0,1-.46.43L23,52.28H21.86L21.18,51h-.39Zm0-2.12h.37c.42,0,.62-.17.62-.52a.36.36,0,0,0-.16-.34.83.83,0,0,0-.46-.1h-.37Z"/><path class="cls-2" d="M23.54,52.28v-3.9h1v3.9Z"/><path class="cls-2" d="M27.12,52.35a2,2,0,0,1-.92-.22,1.66,1.66,0,0,1-.68-.66,2.46,2.46,0,0,1,0-2.22,1.81,1.81,0,0,1,.7-.7,1.83,1.83,0,0,1,.92-.24,1.43,1.43,0,0,1,.69.16,1.84,1.84,0,0,1,.52.36l-.54.66a1.37,1.37,0,0,0-.3-.21.78.78,0,0,0-.35-.08.75.75,0,0,0-.59.3,1.25,1.25,0,0,0-.26.83,1.33,1.33,0,0,0,.23.84.74.74,0,0,0,.61.3.92.92,0,0,0,.41-.1,1.76,1.76,0,0,0,.3-.24l.54.65A1.63,1.63,0,0,1,27.12,52.35Z"/><path class="cls-2" d="M3.71,58.28v-3.9H4.86a2.22,2.22,0,0,1,1.45.45,1.82,1.82,0,0,1,.56,1.49,1.88,1.88,0,0,1-.55,1.5,2.09,2.09,0,0,1-1.4.46Zm1-.83H4.8a1.16,1.16,0,0,0,.72-.22,1.14,1.14,0,0,0,.29-.91,1.08,1.08,0,0,0-.29-.9,1.22,1.22,0,0,0-.72-.21H4.74Z"/><path class="cls-2" d="M7.56,58.28v-3.9h1v3.9Z"/><path class="cls-2" d="M11.15,58.35a1.92,1.92,0,0,1-.92-.22,1.66,1.66,0,0,1-.68-.66,2.46,2.46,0,0,1,0-2.22,1.86,1.86,0,0,1,.69-.7,1.9,1.9,0,0,1,.93-.24,1.46,1.46,0,0,1,.69.16,1.84,1.84,0,0,1,.52.36l-.54.66a1.37,1.37,0,0,0-.3-.21.78.78,0,0,0-.35-.08.77.77,0,0,0-.6.3,1.25,1.25,0,0,0-.25.83,1.28,1.28,0,0,0,.23.84.73.73,0,0,0,.61.3.88.88,0,0,0,.4-.1,1.5,1.5,0,0,0,.31-.24l.54.65A1.63,1.63,0,0,1,11.15,58.35Z"/><path class="cls-2" d="M13,58.28v-3.9h1v1.45h1.16V54.38h1v3.9h-1V56.74H14v1.54Z"/><path class="cls-2" d="M18.1,58.28h-1v-3.9h1.47a2.45,2.45,0,0,1,.78.12,1.18,1.18,0,0,1,.57.38,1.25,1.25,0,0,1,.21.76,1.34,1.34,0,0,1-.17.7,1.26,1.26,0,0,1-.46.43l.85,1.51H19.17L18.5,57h-.4Zm0-2.12h.37c.42,0,.62-.17.62-.52a.37.37,0,0,0-.15-.34.89.89,0,0,0-.47-.1H18.1Z"/><path class="cls-2" d="M22.49,58.35a1.69,1.69,0,0,1-1.31-.53,2.17,2.17,0,0,1-.5-1.5,2.1,2.1,0,0,1,.5-1.49,1.91,1.91,0,0,1,2.62,0,2.05,2.05,0,0,1,.5,1.49,2.13,2.13,0,0,1-.5,1.5A1.69,1.69,0,0,1,22.49,58.35Zm0-.88a.64.64,0,0,0,.55-.31,1.49,1.49,0,0,0,.21-.84,1.41,1.41,0,0,0-.21-.83.64.64,0,0,0-.55-.29.65.65,0,0,0-.55.29,1.42,1.42,0,0,0-.2.83,1.49,1.49,0,0,0,.2.84A.65.65,0,0,0,22.49,57.47Z"/><path class="cls-2" d="M25,58.28v-3.9h1v3.9Z"/><path class="cls-2" d="M28.59,58.35a1.9,1.9,0,0,1-.92-.22,1.6,1.6,0,0,1-.68-.66,2.07,2.07,0,0,1-.26-1.11A2.28,2.28,0,0,1,27,55.25a1.81,1.81,0,0,1,.7-.7,1.86,1.86,0,0,1,.92-.24,1.47,1.47,0,0,1,.7.16,1.79,1.79,0,0,1,.51.36l-.54.66a1.12,1.12,0,0,0-.29-.21.83.83,0,0,0-.36-.08.76.76,0,0,0-.59.3,1.25,1.25,0,0,0-.26.83,1.33,1.33,0,0,0,.23.84.74.74,0,0,0,.61.3.92.92,0,0,0,.41-.1,1.22,1.22,0,0,0,.3-.24l.54.65A1.61,1.61,0,0,1,28.59,58.35Z"/><g class="cls-3"><ellipse class="cls-4" cx="16.02" cy="20.27" rx="8.04" ry="19.02"/><ellipse class="cls-5" cx="17.09" cy="20.27" rx="8.04" ry="19.02"/></g><path class="cls-6" d="M16.09,0c-4.92.11-8.86,10-8.8,22.19s4.1,21.9,9,21.79,8.86-10,8.8-22.18S21-.11,16.09,0Zm.12,40.72c-4.11.09-7.49-8.35-7.54-18.85S11.91,2.78,16,2.69,23.51,11,23.56,21.54,20.32,40.63,16.21,40.72Z"/><ellipse class="cls-7" cx="16.89" cy="21.71" rx="7.7" ry="19.02"/><path class="cls-8" d="M15.93,0c-4.92.1-8.86,10-8.8,22.18s4.09,21.9,9,21.8a4,4,0,0,0,1.13-.2c4.38-1.46,7.73-10.78,7.67-22C24.88,9.68,20.85-.08,15.93,0Zm1.31,40.7c-4.12.09-7.49-8.35-7.54-18.85S12.94,2.79,17.05,2.7s7.49,8.35,7.54,18.85S21.35,40.64,17.24,40.73Z"/><path class="cls-9" d="M17.12,0C12.2.11,8.26,10,8.32,22.19s4.09,21.9,9,21.79,8.86-10,8.8-22.18S22-.11,17.12,0Zm.11,40.72c-4.11.09-7.48-8.35-7.53-18.85S12.94,2.78,17.05,2.69,24.54,11,24.59,21.54,21.35,40.63,17.23,40.72Z"/><path class="cls-10" d="M24.59,22.26c-.1,8.49-3.06,18.21-7.19,18.47-4.29.28-7.7-9.81-7.7-19s3.41-19.28,7.7-19S24.7,13.32,24.59,22.26Z"/></g></g></svg>