<svg xmlns="http://www.w3.org/2000/svg" xmlns:xlink="http://www.w3.org/1999/xlink" width="82.86" height="69.14" viewBox="0 0 82.86 69.14"><defs><style>.cls-1{isolation:isolate;}.cls-2,.cls-5{fill:none;}.cls-2{stroke:#e6e6e6;}.cls-2,.cls-3,.cls-6,.cls-7{stroke-linejoin:round;}.cls-2,.cls-3,.cls-4,.cls-6,.cls-7{stroke-width:0.36px;}.cls-3,.cls-4,.cls-6,.cls-7{stroke:#ccc;mix-blend-mode:lighten;}.cls-3{fill:url(#linear-gradient);}.cls-4{stroke-linejoin:bevel;fill:url(#linear-gradient-2);}.cls-5{mix-blend-mode:multiply;}.cls-6{fill:url(#linear-gradient-3);}.cls-7{fill:url(#linear-gradient-4);}</style><linearGradient id="linear-gradient" x1="54.46" y1="25.33" x2="76.56" y2="63.61" gradientUnits="userSpaceOnUse"><stop offset="0" stop-color="#fff"/><stop offset="0.53" stop-color="#e6e6e6"/></linearGradient><linearGradient id="linear-gradient-2" x1="41.43" y1="1.18" x2="41.43" y2="14.95" gradientUnits="userSpaceOnUse"><stop offset="0" stop-color="#fff"/><stop offset="0" stop-color="#e6e6e6"/></linearGradient><linearGradient id="linear-gradient-3" x1="3.27" y1="7.28" x2="39.07" y2="69.27" gradientUnits="userSpaceOnUse"><stop offset="0" stop-color="#fff"/><stop offset="0.53" stop-color="#ccc"/></linearGradient><linearGradient id="linear-gradient-4" x1="46.87" y1="11.81" x2="69.46" y2="50.93" xlink:href="#linear-gradient"/></defs><title>Mirror_BeamSplitter copy</title><g class="cls-1"><g id="Layer_1" data-name="Layer 1"><line class="cls-2" x1="0.18" y1="59.5" x2="40.68" y2="52.63"/><line class="cls-2" x1="82.68" y1="59.5" x2="40.68" y2="52.63"/><path class="cls-3" d="M82.68,9.05v51Q62.07,64,41.43,67.92v-.81L82.65,9.05Z"/><path class="cls-4" d="M42,1.18,82.68,9.06,41.43,15,.18,9.06Z"/><line class="cls-5" x1="41.43" y1="67.11" x2="82.68" y2="8.99"/><path class="cls-6" d="M.18,9.06,41.43,15v53L.18,60.34Z"/><path d="M62.59,55.94l-.85-4.71,1.67-.32a2.93,2.93,0,0,1,1.29,0,.94.94,0,0,1,.68.84,1.24,1.24,0,0,1,0,.63.81.81,0,0,1-.36.49v0a1.27,1.27,0,0,1,.63.27,1.1,1.1,0,0,1,.37.69A1.2,1.2,0,0,1,65.64,55a2.43,2.43,0,0,1-1.23.57Zm.71-3.1.42-.08c.39-.07.56-.27.5-.59s-.27-.37-.66-.29l-.42.07Zm.35,1.91.5-.09c.48-.09.68-.31.62-.66s-.33-.43-.8-.34l-.5.09Z"/><path d="M67,55.12l-.85-4.71,3-.56.19,1-1.78.33.14.74,1.51-.28.19,1L67.86,53l.15.84,1.84-.35.19,1Z"/><path d="M73.37,53.93,73,53l-1.3.24,0,1-1.25.23.56-5,1.49-.28,2.26,4.45Zm-1.64-2.07,0,.34.86-.16-.14-.31c-.1-.21-.2-.44-.3-.7l-.31-.73h0c0,.25,0,.51,0,.79S71.75,51.63,71.73,51.86Z"/><path d="M75.12,53.6l-.85-4.71,1.31-.25,1,1.8c.07.12.13.25.2.39l.19.39h0c0-.14,0-.29,0-.43s0-.3.05-.44l.32-2.05L78.78,48l.86,4.72L78.52,53l-.25-1.4a8,8,0,0,1-.1-.85c0-.33,0-.62,0-.86h0l-.18,1.2-.29,1.67-.66.12-.85-1.45-.58-1.07h0l.25.82c.09.31.16.59.21.83l.25,1.39Z"/><path d="M52.4,64.9a3,3,0,0,1-.95,0,2.39,2.39,0,0,1-.93-.35l.54-1a2.57,2.57,0,0,0,.6.23,1.59,1.59,0,0,0,.57,0c.35-.07.51-.21.47-.43a.27.27,0,0,0-.21-.22,4.13,4.13,0,0,0-.5-.12l-.62-.14a1.69,1.69,0,0,1-.75-.36,1.25,1.25,0,0,1-.43-.78,1.37,1.37,0,0,1,.3-1.12A1.86,1.86,0,0,1,51.66,60a2.34,2.34,0,0,1,1.66.34l-.48.9a2.11,2.11,0,0,0-.5-.17,1.16,1.16,0,0,0-.49,0c-.32.06-.46.19-.43.41s.1.18.24.22a4.88,4.88,0,0,0,.53.12l.61.12a1.54,1.54,0,0,1,.76.36,1.34,1.34,0,0,1,.38.76,1.45,1.45,0,0,1-.28,1.14A1.92,1.92,0,0,1,52.4,64.9Z"/><path d="M54.94,64.33l-.85-4.71,1.7-.32a3.19,3.19,0,0,1,1,0,1.35,1.35,0,0,1,.77.36,1.47,1.47,0,0,1,.43.88,1.5,1.5,0,0,1-.68,1.66,2.54,2.54,0,0,1-.88.35l-.5.09.27,1.49Zm.78-2.71.45-.08c.47-.09.67-.36.59-.8a.51.51,0,0,0-.27-.41.92.92,0,0,0-.58,0l-.41.07Z"/><path d="M59.29,63.52l-.85-4.71,1.23-.23.66,3.67,1.76-.33.19,1Z"/><path d="M63.08,62.81l-.85-4.71,1.23-.23.85,4.71Z"/><path d="M66.22,62.23l-.66-3.67-1.23.22-.19-1,3.69-.69L68,58.1l-1.23.23L67.45,62Z"/><path d="M70.26,61.47l-.67-3.67L68.36,58l-.19-1,3.69-.69.19,1-1.23.23.66,3.67Z"/><path d="M73.4,60.88l-.85-4.71,3-.56.19,1L74,57l.13.74,1.52-.29.19,1.05-1.52.28.15.84,1.85-.34.18,1Z"/><path d="M78.6,59.91l-1.22.23-.85-4.71,1.75-.33a3.43,3.43,0,0,1,1,0,1.36,1.36,0,0,1,1.19,1.21,1.5,1.5,0,0,1-.51,1.51l1.34,1.64-1.37.26-1.09-1.44-.47.09Zm-.46-2.57.45-.08c.49-.09.7-.34.63-.76a.49.49,0,0,0-.27-.39,1.18,1.18,0,0,0-.57,0l-.45.08Z"/><path class="cls-7" d="M82.65,9.05,41.43,67.11V15Q62,12,82.65,9.05Z"/></g></g></svg>