<svg xmlns="http://www.w3.org/2000/svg" xmlns:xlink="http://www.w3.org/1999/xlink" viewBox="0 0 33.26 60.73"><defs><style>.cls-1{isolation:isolate;}.cls-2{fill:#fff;}.cls-3{opacity:0.65;}.cls-4{opacity:0.61;fill:url(#linear-gradient);}.cls-5{opacity:0.51;fill:url(#linear-gradient-2);}.cls-6{fill:url(#linear-gradient-3);}.cls-7{stroke-miterlimit:10;stroke-width:0.38px;opacity:0.25;fill:url(#linear-gradient-4);stroke:url(#linear-gradient-5);}.cls-8{fill:url(#linear-gradient-6);}.cls-9{fill:url(#linear-gradient-7);}.cls-10{mix-blend-mode:soft-light;fill:url(#linear-gradient-8);}</style><linearGradient id="linear-gradient" x1="26.23" y1="26.16" x2="5.81" y2="14.37" gradientUnits="userSpaceOnUse"><stop offset="0.02" stop-color="#666"/><stop offset="0.02" stop-color="#6e6e6e"/><stop offset="0.05" stop-color="#999899"/><stop offset="0.07" stop-color="#b8b7b8"/><stop offset="0.09" stop-color="#cbcacb"/><stop offset="0.11" stop-color="#d2d1d2"/><stop offset="0.18" stop-color="#c5c4c5"/><stop offset="0.29" stop-color="#979696"/><stop offset="0.33" stop-color="#919090"/><stop offset="0.5" stop-color="#f2f2f2"/><stop offset="0.78" stop-color="#c9c8c8"/><stop offset="0.85" stop-color="#fff"/><stop offset="1" stop-color="#4d4d4d"/></linearGradient><linearGradient id="linear-gradient-2" x1="17.09" y1="39.28" x2="17.09" y2="1.25" gradientUnits="userSpaceOnUse"><stop offset="0.02" stop-color="#666"/><stop offset="0.02" stop-color="#6e6e6e"/><stop offset="0.05" stop-color="#999899"/><stop offset="0.07" stop-color="#b8b7b8"/><stop offset="0.09" stop-color="#cbcacb"/><stop offset="0.11" stop-color="#d2d1d2"/><stop offset="0.18" stop-color="#c5c4c5"/><stop offset="0.29" stop-color="#979696"/><stop offset="0.36" stop-color="#919090"/><stop offset="0.59" stop-color="#c9c8c8"/><stop offset="0.85" stop-color="#f2f2f2"/><stop offset="1" stop-color="#4d4d4d"/></linearGradient><linearGradient id="linear-gradient-3" x1="25.1" y1="21.99" x2="7.29" y2="21.99" gradientUnits="userSpaceOnUse"><stop offset="0.02" stop-color="#666"/><stop offset="0.02" stop-color="#646464"/><stop offset="0.2" stop-color="#393939"/><stop offset="0.36" stop-color="#1a1a1a"/><stop offset="0.5" stop-color="#070707"/><stop offset="0.59"/><stop offset="1" stop-color="#4d4d4d"/></linearGradient><linearGradient id="linear-gradient-4" x1="8.43" y1="36.37" x2="25.35" y2="7.06" gradientUnits="userSpaceOnUse"><stop offset="0.02" stop-color="#666"/><stop offset="0.06" stop-color="#8c8c8c"/><stop offset="0.11" stop-color="#abaaab"/><stop offset="0.15" stop-color="#bebdbe"/><stop offset="0.18" stop-color="#c5c4c5"/><stop offset="0.5" stop-color="#f2f2f2"/><stop offset="0.78" stop-color="#c9c8c8"/><stop offset="1" stop-color="#4d4d4d"/></linearGradient><linearGradient id="linear-gradient-5" x1="9" y1="21.71" x2="24.78" y2="21.71" gradientUnits="userSpaceOnUse"><stop offset="0" stop-color="#a6a5a5"/><stop offset="0.11" stop-color="#d2d1d2"/><stop offset="0.18" stop-color="#c5c4c5"/><stop offset="0.29" stop-color="#979696"/><stop offset="0.33" stop-color="#919090"/><stop offset="0.78" stop-color="#c9c8c8"/><stop offset="0.85" stop-color="#fff"/><stop offset="1" stop-color="#797979"/></linearGradient><linearGradient id="linear-gradient-6" x1="27.69" y1="28.74" x2="4.39" y2="15.29" xlink:href="#linear-gradient-3"/><linearGradient id="linear-gradient-7" x1="26.13" y1="21.99" x2="8.32" y2="21.99" xlink:href="#linear-gradient-3"/><linearGradient id="linear-gradient-8" x1="27.38" y1="31.87" x2="7.07" y2="11.56" gradientUnits="userSpaceOnUse"><stop offset="0" stop-color="#921d00"/><stop offset="0.5" stop-color="#d42300"/><stop offset="1" stop-color="#ffa49d"/></linearGradient></defs><g class="cls-1"><g id="Layer_1" data-name="Layer 1"><path d="M7,52.45a2.24,2.24,0,0,1-1-.23,1.69,1.69,0,0,1-.75-.7,2.19,2.19,0,0,1-.28-1.16,2.24,2.24,0,0,1,.28-1.16,2,2,0,0,1,.75-.74,2.19,2.19,0,0,1,1-.25,1.84,1.84,0,0,1,1.34.55l.07.06-.66.81-.08-.07a1.54,1.54,0,0,0-.28-.19A.73.73,0,0,0,7,49.3a.77.77,0,0,0-.59.26,1.4,1.4,0,0,0,0,1.55.88.88,0,0,0,.69.26.44.44,0,0,0,.25-.06l0-.36H6.71v-1H8.4v2a1.48,1.48,0,0,1-.62.44A2.14,2.14,0,0,1,7,52.45Z"/><path class="cls-2" d="M7,48.31a1.6,1.6,0,0,1,.75.16,1.71,1.71,0,0,1,.52.36l-.54.66a1,1,0,0,0-.3-.21A.9.9,0,0,0,7,49.2a.83.83,0,0,0-.66.3,1.2,1.2,0,0,0-.27.83,1.28,1.28,0,0,0,.25.84,1,1,0,0,0,.77.3.51.51,0,0,0,.3-.08v-.54H6.81V50H8.3v1.85a1.52,1.52,0,0,1-.56.34,1.9,1.9,0,0,1-.76.14,2.19,2.19,0,0,1-1-.22,1.73,1.73,0,0,1-.71-.66,2.46,2.46,0,0,1,0-2.22,1.83,1.83,0,0,1,.71-.7,2,2,0,0,1,1-.24m0-.2a2.17,2.17,0,0,0-1.06.27,1.93,1.93,0,0,0-.78.77,2.31,2.31,0,0,0-.3,1.21,2.36,2.36,0,0,0,.29,1.21,1.87,1.87,0,0,0,.79.74A2.45,2.45,0,0,0,7,52.55a2.32,2.32,0,0,0,.84-.15A2,2,0,0,0,8.44,52L8.5,52V49.82H6.61v1.23h.57v.21h-.1A.75.75,0,0,1,6.47,51a1.26,1.26,0,0,1,0-1.41.71.71,0,0,1,.81-.17.87.87,0,0,1,.26.18l.16.13.13-.16L8.38,49l.11-.14-.12-.12a2.06,2.06,0,0,0-.58-.4A1.86,1.86,0,0,0,7,48.11Z"/><polygon points="8.95 52.38 8.95 48.28 11.67 48.28 11.67 49.35 10.18 49.35 10.18 49.76 11.46 49.76 11.46 50.82 10.18 50.82 10.18 51.32 11.73 51.32 11.73 52.38 8.95 52.38"/><path class="cls-2" d="M11.57,48.38v.87H10.08v.61h1.28v.86H10.08v.7h1.55v.86H9.05v-3.9h2.52m.2-.2H8.85v4.3h3V51.22H10.28v-.3h1.28V49.66H10.28v-.21h1.49V48.18Z"/><path d="M14.44,52.38l-.89-1.8-.14-.32s0,.08,0,.13a5.14,5.14,0,0,1,.05.77v1.22H12.29v-4.1h1.22l.89,1.8.13.32v-.11a7.27,7.27,0,0,1,0-.78V48.28h1.19v4.1Z"/><path class="cls-2" d="M15.56,48.38v3.9H14.5l-.86-1.74-.38-.87h0c0,.22,0,.47.08.73a4.93,4.93,0,0,1,0,.76v1.12h-1v-3.9h1l.87,1.74.37.88h0c0-.21,0-.45-.08-.72a7.09,7.09,0,0,1,0-.77V48.38h1m.2-.2H14.37v1.33c0,.1,0,.2,0,.31l-.76-1.53,0-.11H12.19v4.3h1.38V51.16c0-.11,0-.21,0-.32l.76,1.53.06.11h1.38v-4.3Z"/><polygon points="16.32 52.38 16.32 48.28 19.04 48.28 19.04 49.35 17.55 49.35 17.55 49.76 18.82 49.76 18.82 50.82 17.55 50.82 17.55 51.32 19.1 51.32 19.1 52.38 16.32 52.38"/><path class="cls-2" d="M18.94,48.38v.87H17.45v.61h1.27v.86H17.45v.7H19v.86H16.42v-3.9h2.52m.2-.2H16.22v4.3h3V51.22H17.65v-.3h1.27V49.66H17.65v-.21h1.49V48.18Z"/><path d="M21.79,52.38l-.67-1.3h-.23v1.3H19.66v-4.1h1.57a2.64,2.64,0,0,1,.81.12,1.27,1.27,0,0,1,.61.42,1.29,1.29,0,0,1,.24.82,1.34,1.34,0,0,1-.59,1.17l.88,1.57Zm-.63-2.32c.46,0,.52-.22.52-.42s-.08-.24-.11-.26a.87.87,0,0,0-.41-.08h-.27v.76Z"/><path class="cls-2" d="M21.23,48.38a2.45,2.45,0,0,1,.78.12,1.18,1.18,0,0,1,.57.38,1.25,1.25,0,0,1,.21.76,1.34,1.34,0,0,1-.17.7,1.26,1.26,0,0,1-.46.43L23,52.28H21.86L21.18,51h-.39v1.3h-1v-3.9h1.47m-.44,1.78h.37c.42,0,.62-.17.62-.52a.36.36,0,0,0-.16-.34.83.83,0,0,0-.46-.1h-.37v1m.44-2H19.56v4.3H21v-1.3h.07l.62,1.19.05.11h1.62l-.17-.29-.75-1.35a1.67,1.67,0,0,0,.36-.39,1.57,1.57,0,0,0,.2-.81,1.4,1.4,0,0,0-.26-.88,1.35,1.35,0,0,0-.66-.45,2.55,2.55,0,0,0-.84-.13ZM21,49.4h.17a.69.69,0,0,1,.36.07s.06,0,.06.17,0,.32-.42.32H21V49.4Z"/><rect x="23.44" y="48.28" width="1.23" height="4.1"/><path class="cls-2" d="M24.57,48.38v3.9h-1v-3.9h1m.2-.2H23.34v4.3h1.43v-4.3Z"/><path d="M27.12,52.45a2,2,0,0,1-1-.23,1.73,1.73,0,0,1-.72-.7,2.29,2.29,0,0,1-.28-1.16,2.24,2.24,0,0,1,.29-1.16,1.92,1.92,0,0,1,.73-.74,2,2,0,0,1,1-.25,1.64,1.64,0,0,1,.74.17,2,2,0,0,1,.54.38l.07.06-.67.81-.08-.07a1.48,1.48,0,0,0-.27-.19.62.62,0,0,0-.31-.07.68.68,0,0,0-.52.26,1.18,1.18,0,0,0-.23.77,1.25,1.25,0,0,0,.21.78.64.64,0,0,0,.53.26.74.74,0,0,0,.36-.09,1.51,1.51,0,0,0,.28-.22l.07-.08.67.8-.06.06A1.68,1.68,0,0,1,27.12,52.45Z"/><path class="cls-2" d="M27.15,48.31a1.43,1.43,0,0,1,.69.16,1.84,1.84,0,0,1,.52.36l-.54.66a1.37,1.37,0,0,0-.3-.21.78.78,0,0,0-.35-.08.75.75,0,0,0-.59.3,1.25,1.25,0,0,0-.26.83,1.33,1.33,0,0,0,.23.84.74.74,0,0,0,.61.3.92.92,0,0,0,.41-.1,1.76,1.76,0,0,0,.3-.24l.54.65a1.63,1.63,0,0,1-1.29.57,2,2,0,0,1-.92-.22,1.66,1.66,0,0,1-.68-.66,2.46,2.46,0,0,1,0-2.22,1.81,1.81,0,0,1,.7-.7,1.83,1.83,0,0,1,.92-.24m0-.2a2,2,0,0,0-1,.27,1.9,1.9,0,0,0-.77.77,2.31,2.31,0,0,0-.3,1.21,2.36,2.36,0,0,0,.29,1.21,1.86,1.86,0,0,0,.76.74,2.18,2.18,0,0,0,1,.24,1.81,1.81,0,0,0,1.44-.64l.11-.13-.11-.13L28,51l-.14-.17-.16.16a1,1,0,0,1-.25.2.62.62,0,0,1-.31.08.52.52,0,0,1-.45-.22,1.13,1.13,0,0,1-.19-.72,1,1,0,0,1,.21-.7.54.54,0,0,1,.44-.23.53.53,0,0,1,.26.06,1,1,0,0,1,.26.18l.15.13.14-.16.54-.66.11-.14-.13-.12a1.87,1.87,0,0,0-.57-.4,1.69,1.69,0,0,0-.78-.18Z"/><path d="M3.61,58.38v-4.1H4.86a2.3,2.3,0,0,1,1.51.48A1.87,1.87,0,0,1,7,56.32a2,2,0,0,1-.59,1.57,2.15,2.15,0,0,1-1.46.49Zm1.23-1a1,1,0,0,0,.62-.2,1,1,0,0,0,.25-.83c0-.42-.08-.7-.25-.82a1.14,1.14,0,0,0-.62-.19Z"/><path class="cls-2" d="M4.86,54.38a2.22,2.22,0,0,1,1.45.45,1.82,1.82,0,0,1,.56,1.49,1.88,1.88,0,0,1-.55,1.5,2.09,2.09,0,0,1-1.4.46H3.71v-3.9H4.86m-.12,3.07H4.8a1.16,1.16,0,0,0,.72-.22,1.14,1.14,0,0,0,.29-.91,1.08,1.08,0,0,0-.29-.9,1.22,1.22,0,0,0-.72-.21H4.74v2.24m.12-3.27H3.51v4.3H4.92A2.3,2.3,0,0,0,6.45,58a2.07,2.07,0,0,0,.62-1.65,2,2,0,0,0-.63-1.64,2.45,2.45,0,0,0-1.58-.5Zm.08,3.07V55.42a1,1,0,0,1,.46.16c.14.1.21.36.21.74a1,1,0,0,1-.21.75.89.89,0,0,1-.46.18Z"/><rect x="7.46" y="54.28" width="1.23" height="4.1"/><path class="cls-2" d="M8.6,54.38v3.9h-1v-3.9h1m.2-.2H7.36v4.3H8.8v-4.3Z"/><path d="M11.15,58.45a2,2,0,0,1-1-.23,1.79,1.79,0,0,1-.72-.7,2.29,2.29,0,0,1-.27-1.16,2.34,2.34,0,0,1,.28-1.16,2,2,0,0,1,.74-.74,2,2,0,0,1,1-.25,1.68,1.68,0,0,1,.74.17,2.17,2.17,0,0,1,.54.38l.06.06-.66.81-.08-.07a1.26,1.26,0,0,0-.28-.19.58.58,0,0,0-.3-.07.68.68,0,0,0-.52.26,1.18,1.18,0,0,0-.23.77,1.25,1.25,0,0,0,.21.78.64.64,0,0,0,.53.26.68.68,0,0,0,.35-.09,1.05,1.05,0,0,0,.28-.22L11.9,57l.67.8-.06.06A1.68,1.68,0,0,1,11.15,58.45Z"/><path class="cls-2" d="M11.18,54.31a1.46,1.46,0,0,1,.69.16,1.84,1.84,0,0,1,.52.36l-.54.66a1.37,1.37,0,0,0-.3-.21.78.78,0,0,0-.35-.08.77.77,0,0,0-.6.3,1.25,1.25,0,0,0-.25.83,1.28,1.28,0,0,0,.23.84.73.73,0,0,0,.61.3.88.88,0,0,0,.4-.1,1.5,1.5,0,0,0,.31-.24l.54.65a1.63,1.63,0,0,1-1.29.57,1.92,1.92,0,0,1-.92-.22,1.66,1.66,0,0,1-.68-.66,2.46,2.46,0,0,1,0-2.22,1.86,1.86,0,0,1,.69-.7,1.9,1.9,0,0,1,.93-.24m0-.2a2,2,0,0,0-1,.27,1.9,1.9,0,0,0-.77.77,2.31,2.31,0,0,0-.3,1.21,2.36,2.36,0,0,0,.29,1.21,1.8,1.8,0,0,0,.76.74,2.18,2.18,0,0,0,1,.24,1.81,1.81,0,0,0,1.44-.64l.11-.13-.11-.13L12.05,57l-.14-.17-.16.16a1.06,1.06,0,0,1-.26.2.58.58,0,0,1-.3.08.52.52,0,0,1-.45-.22,1.13,1.13,0,0,1-.19-.72,1,1,0,0,1,.21-.7.54.54,0,0,1,.44-.23.55.55,0,0,1,.26.06,1.22,1.22,0,0,1,.26.18l.15.13.13-.16.54-.66.12-.14-.13-.12a1.87,1.87,0,0,0-.57-.4,1.69,1.69,0,0,0-.78-.18Z"/><polygon points="15.07 58.38 15.07 56.84 14.11 56.84 14.11 58.38 12.88 58.38 12.88 54.28 14.11 54.28 14.11 55.73 15.07 55.73 15.07 54.28 16.3 54.28 16.3 58.38 15.07 58.38"/><path class="cls-2" d="M16.2,54.38v3.9h-1V56.74H14v1.54H13v-3.9h1v1.45h1.16V54.38h1m.2-.2H15v1.45h-.76V54.18H12.77v4.3h1.44V56.94H15v1.54H16.4v-4.3Z"/><path d="M19.11,58.38l-.68-1.3H18.2v1.3H17v-4.1h1.57a2.64,2.64,0,0,1,.81.12,1.27,1.27,0,0,1,.61.42,1.29,1.29,0,0,1,.24.82,1.34,1.34,0,0,1-.59,1.17l.88,1.57Zm-.64-2.32c.47,0,.53-.22.53-.42a.26.26,0,0,0-.12-.26.84.84,0,0,0-.41-.08H18.2v.76Z"/><path class="cls-2" d="M18.54,54.38a2.45,2.45,0,0,1,.78.12,1.18,1.18,0,0,1,.57.38,1.25,1.25,0,0,1,.21.76,1.34,1.34,0,0,1-.17.7,1.26,1.26,0,0,1-.46.43l.85,1.51H19.17L18.5,57h-.4v1.3h-1v-3.9h1.47m-.44,1.78h.37c.42,0,.62-.17.62-.52a.37.37,0,0,0-.15-.34.89.89,0,0,0-.47-.1H18.1v1m.44-2H16.87v4.3H18.3v-1.3h.07L19,58.37l.05.11h1.62l-.17-.29-.75-1.35a1.67,1.67,0,0,0,.36-.39,1.57,1.57,0,0,0,.2-.81,1.28,1.28,0,0,0-.92-1.33,2.55,2.55,0,0,0-.84-.13ZM18.3,55.4h.17a.69.69,0,0,1,.36.07s.06,0,.06.17,0,.32-.42.32H18.3V55.4Z"/><path d="M22.49,58.45a1.79,1.79,0,0,1-1.38-.57,2.56,2.56,0,0,1,0-3.12,2,2,0,0,1,2.76,0,2.18,2.18,0,0,1,.53,1.56,2.16,2.16,0,0,1-.53,1.56A1.79,1.79,0,0,1,22.49,58.45Zm0-3.15a.54.54,0,0,0-.47.25,1.36,1.36,0,0,0-.19.77,1.45,1.45,0,0,0,.19.78.54.54,0,0,0,.94,0,1.45,1.45,0,0,0,.19-.78,1.39,1.39,0,0,0-.19-.77A.54.54,0,0,0,22.49,55.3Z"/><path class="cls-2" d="M22.49,54.31a1.75,1.75,0,0,1,1.31.52,2.05,2.05,0,0,1,.5,1.49,2.13,2.13,0,0,1-.5,1.5,1.88,1.88,0,0,1-2.62,0,2.17,2.17,0,0,1-.5-1.5,2.1,2.1,0,0,1,.5-1.49,1.75,1.75,0,0,1,1.31-.52m0,3.16a.64.64,0,0,0,.55-.31,1.49,1.49,0,0,0,.21-.84,1.41,1.41,0,0,0-.21-.83.64.64,0,0,0-.55-.29.65.65,0,0,0-.55.29,1.42,1.42,0,0,0-.2.83,1.49,1.49,0,0,0,.2.84.65.65,0,0,0,.55.31m0-3.36a2,2,0,0,0-1.45.58,2.27,2.27,0,0,0-.56,1.63A2.36,2.36,0,0,0,21,58,2.08,2.08,0,0,0,24,58a2.32,2.32,0,0,0,.55-1.63A2.27,2.27,0,0,0,24,54.69a2,2,0,0,0-1.46-.58Zm0,3.16a.43.43,0,0,1-.38-.22,1.29,1.29,0,0,1-.17-.73,1.27,1.27,0,0,1,.16-.71.46.46,0,0,1,.39-.21.45.45,0,0,1,.39.21,1.26,1.26,0,0,1,.17.71,1.38,1.38,0,0,1-.17.73.45.45,0,0,1-.39.22Z"/><rect x="24.9" y="54.28" width="1.23" height="4.1"/><path class="cls-2" d="M26,54.38v3.9H25v-3.9h1m.2-.2H24.8v4.3h1.43v-4.3Z"/><path d="M28.59,58.45a2,2,0,0,1-1-.23,1.73,1.73,0,0,1-.72-.7,2.29,2.29,0,0,1-.27-1.16,2.24,2.24,0,0,1,.28-1.16,1.92,1.92,0,0,1,.73-.74,2.06,2.06,0,0,1,1-.25,1.64,1.64,0,0,1,.74.17,1.86,1.86,0,0,1,.54.38l.07.06-.67.81-.07-.07a1.54,1.54,0,0,0-.28-.19.62.62,0,0,0-.31-.07.71.71,0,0,0-.52.26,1.18,1.18,0,0,0-.23.77,1.25,1.25,0,0,0,.21.78.65.65,0,0,0,.53.26.69.69,0,0,0,.36-.09,1.24,1.24,0,0,0,.28-.22l.08-.08.66.8-.05.06A1.71,1.71,0,0,1,28.59,58.45Z"/><path class="cls-2" d="M28.61,54.31a1.47,1.47,0,0,1,.7.16,1.79,1.79,0,0,1,.51.36l-.54.66a1.12,1.12,0,0,0-.29-.21.83.83,0,0,0-.36-.08.76.76,0,0,0-.59.3,1.25,1.25,0,0,0-.26.83,1.33,1.33,0,0,0,.23.84.74.74,0,0,0,.61.3.92.92,0,0,0,.41-.1,1.22,1.22,0,0,0,.3-.24l.54.65a1.61,1.61,0,0,1-1.28.57,1.9,1.9,0,0,1-.92-.22,1.6,1.6,0,0,1-.68-.66,2.07,2.07,0,0,1-.26-1.11A2.28,2.28,0,0,1,27,55.25a1.81,1.81,0,0,1,.7-.7,1.86,1.86,0,0,1,.92-.24m0-.2a2.06,2.06,0,0,0-1.79,1,2.41,2.41,0,0,0-.29,1.21,2.36,2.36,0,0,0,.28,1.21,1.86,1.86,0,0,0,.76.74,2.19,2.19,0,0,0,1,.24A1.79,1.79,0,0,0,30,57.91l.11-.13L30,57.65,29.48,57l-.14-.17-.15.16a1.06,1.06,0,0,1-.26.2.62.62,0,0,1-.31.08.54.54,0,0,1-.45-.22,1.19,1.19,0,0,1-.19-.72,1,1,0,0,1,.21-.7.55.55,0,0,1,.44-.23.53.53,0,0,1,.26.06.87.87,0,0,1,.26.18l.16.13.13-.16L30,55l.11-.14L30,54.69a2,2,0,0,0-.56-.4,1.73,1.73,0,0,0-.79-.18Z"/><g class="cls-3"><ellipse class="cls-4" cx="16.02" cy="20.27" rx="8.04" ry="19.02"/><ellipse class="cls-5" cx="17.09" cy="20.27" rx="8.04" ry="19.02"/></g><path class="cls-6" d="M16.09,0c-4.92.11-8.86,10-8.8,22.19s4.1,21.9,9,21.79,8.86-10,8.8-22.18S21-.11,16.09,0Zm.12,40.72c-4.11.09-7.49-8.35-7.54-18.85S11.91,2.78,16,2.69,23.51,11,23.56,21.54,20.32,40.63,16.21,40.72Z"/><ellipse class="cls-7" cx="16.89" cy="21.71" rx="7.7" ry="19.02"/><path class="cls-8" d="M15.93,0c-4.92.1-8.86,10-8.8,22.18s4.09,21.9,9,21.8a4,4,0,0,0,1.13-.2c4.38-1.46,7.73-10.78,7.67-22C24.88,9.68,20.85-.08,15.93,0Zm1.31,40.7c-4.12.09-7.49-8.35-7.54-18.85S12.94,2.79,17.05,2.7s7.49,8.35,7.54,18.85S21.35,40.64,17.24,40.73Z"/><path class="cls-9" d="M17.12,0C12.2.11,8.26,10,8.32,22.19s4.09,21.9,9,21.79,8.86-10,8.8-22.18S22-.11,17.12,0Zm.11,40.72c-4.11.09-7.48-8.35-7.53-18.85S12.94,2.78,17.05,2.69,24.54,11,24.59,21.54,21.35,40.63,17.23,40.72Z"/><path class="cls-10" d="M24.59,22.26c-.1,8.49-3.06,18.21-7.19,18.47-4.29.28-7.7-9.81-7.7-19s3.41-19.28,7.7-19S24.7,13.32,24.59,22.26Z"/></g></g></svg>