<svg xmlns="http://www.w3.org/2000/svg" xmlns:xlink="http://www.w3.org/1999/xlink" viewBox="0 0 70.22 57.32"><defs><style>.cls-1{isolation:isolate;}.cls-2,.cls-5{fill:none;}.cls-2{stroke:#e6e6e6;}.cls-2,.cls-3,.cls-6,.cls-7{stroke-linejoin:round;}.cls-2,.cls-3,.cls-4,.cls-6,.cls-7{stroke-width:0.36px;}.cls-3,.cls-4,.cls-6,.cls-7{stroke:#ccc;mix-blend-mode:lighten;}.cls-3{fill:url(#linear-gradient);}.cls-4{stroke-linejoin:bevel;fill:url(#linear-gradient-2);}.cls-5{mix-blend-mode:multiply;}.cls-6{fill:url(#linear-gradient-3);}.cls-7{fill:url(#linear-gradient-4);}</style><linearGradient id="linear-gradient" x1="46.14" y1="20.62" x2="64.86" y2="53.04" gradientUnits="userSpaceOnUse"><stop offset="0" stop-color="#fff"/><stop offset="0.53" stop-color="#e6e6e6"/></linearGradient><linearGradient id="linear-gradient-2" x1="35.11" y1="0.18" x2="35.11" y2="11.84" gradientUnits="userSpaceOnUse"><stop offset="0" stop-color="#fff"/><stop offset="0" stop-color="#e6e6e6"/></linearGradient><linearGradient id="linear-gradient-3" x1="2.8" y1="5.34" x2="33.11" y2="57.84" gradientUnits="userSpaceOnUse"><stop offset="0" stop-color="#fff"/><stop offset="0.53" stop-color="#ccc"/></linearGradient><linearGradient id="linear-gradient-4" x1="39.72" y1="9.18" x2="58.84" y2="42.3" xlink:href="#linear-gradient"/></defs><g class="cls-1"><g id="Layer_1" data-name="Layer 1"><line class="cls-2" x1="0.18" y1="49.56" x2="34.48" y2="43.75"/><line class="cls-2" x1="70.04" y1="49.56" x2="34.48" y2="43.75"/><path class="cls-3" d="M70,6.84V50.05c-11.63,2.22-23.3,4.41-34.93,6.65V56L70,6.84Z"/><path class="cls-4" d="M35.55.18,70,6.85l-34.93,5L.18,6.85Z"/><line class="cls-5" x1="35.11" y1="56.01" x2="70.04" y2="6.79"/><path class="cls-6" d="M.18,6.85l34.93,5V56.68L.18,50.27Z"/><path d="M52.54,46.27,51.77,42l1.51-.29a2.69,2.69,0,0,1,1.17,0,.86.86,0,0,1,.62.76,1.28,1.28,0,0,1,0,.58.76.76,0,0,1-.33.44v0a1,1,0,0,1,.57.24,1,1,0,0,1,.33.62,1.06,1.06,0,0,1-.31,1,2.13,2.13,0,0,1-1.12.52Zm.64-2.81.38-.07c.35-.07.5-.24.45-.53s-.24-.34-.6-.27l-.37.07Zm.31,1.74.46-.09c.43-.08.62-.28.56-.59s-.29-.4-.73-.32l-.45.09Z"/><path d="M56.5,45.53l-.77-4.27,2.72-.51.17.94L57,42l.12.67,1.37-.26.17,1-1.37.25.14.77,1.67-.32.17.95Z"/><path d="M62.31,44.45l-.37-.87-1.18.22,0,.94L59.58,45l.51-4.52,1.35-.25,2.05,4Zm-1.49-1.87,0,.31.78-.15-.12-.28c-.09-.19-.18-.41-.28-.64l-.28-.66h0c0,.22,0,.46,0,.71S60.84,42.37,60.82,42.58Z"/><path d="M63.89,44.15l-.77-4.27,1.19-.23,1,1.63.18.36.18.35h0c0-.13,0-.26,0-.4s0-.27,0-.39l.3-1.87,1.19-.22L68,43.39l-1,.18-.23-1.26a7.13,7.13,0,0,1-.09-.77c0-.3,0-.56,0-.78h0l-.16,1.1-.27,1.51-.59.11-.78-1.32-.52-1h0c.07.21.15.46.23.75a5.89,5.89,0,0,1,.19.75L64.89,44Z"/><path d="M43.3,54.39a2.74,2.74,0,0,1-.86,0,2.37,2.37,0,0,1-.85-.32l.5-.9a1.78,1.78,0,0,0,.54.21,1.16,1.16,0,0,0,.52,0q.48-.09.42-.39a.24.24,0,0,0-.19-.2l-.45-.11-.57-.12a1.6,1.6,0,0,1-.67-.32,1.12,1.12,0,0,1-.39-.71,1.2,1.2,0,0,1,.27-1,1.64,1.64,0,0,1,1.06-.6,1.94,1.94,0,0,1,.76,0,1.92,1.92,0,0,1,.74.31l-.43.81a1.83,1.83,0,0,0-.45-.15,1.14,1.14,0,0,0-.45,0c-.29.05-.42.18-.39.37a.26.26,0,0,0,.21.2c.13,0,.29.07.49.11l.55.11a1.48,1.48,0,0,1,.69.33,1.13,1.13,0,0,1,.34.69,1.31,1.31,0,0,1-.25,1A1.74,1.74,0,0,1,43.3,54.39Z"/><path d="M45.6,53.88l-.77-4.27,1.54-.29a2.58,2.58,0,0,1,.87,0,1.33,1.33,0,0,1,.71.32,1.35,1.35,0,0,1,.39.81,1.48,1.48,0,0,1-.08.9,1.42,1.42,0,0,1-.54.6,2.11,2.11,0,0,1-.79.31l-.46.09.25,1.35Zm.71-2.46.4-.07a.57.57,0,0,0,.54-.73.44.44,0,0,0-.25-.37.87.87,0,0,0-.52,0l-.37.07Z"/><path d="M49.54,53.14l-.77-4.27,1.11-.21.6,3.33,1.6-.3.17,1Z"/><path d="M53,52.5l-.78-4.27L53.32,48l.77,4.27Z"/><path d="M55.83,52l-.6-3.33-1.12.21-.17-1,3.34-.62.18.95-1.12.2.6,3.33Z"/><path d="M59.48,51.29,58.88,48l-1.11.21-.17-1,3.34-.62.17.94L60,47.75l.6,3.33Z"/><path d="M62.33,50.75l-.77-4.27L64.28,46l.17,1-1.6.3.12.67,1.37-.26.17.95-1.37.26.14.76L65,49.29l.17.94Z"/><path d="M67.05,49.87l-1.12.21-.77-4.27,1.6-.3a2.51,2.51,0,0,1,.86,0,1.29,1.29,0,0,1,.69.31,1.31,1.31,0,0,1,.38.79,1.37,1.37,0,0,1,0,.79,1.31,1.31,0,0,1-.41.57l1.22,1.49-1.25.23-1-1.3-.43.08Zm-.42-2.32.4-.08q.68-.12.57-.69a.4.4,0,0,0-.24-.35,1,1,0,0,0-.52,0l-.4.07Z"/><path class="cls-7" d="M70,6.84,35.11,56V11.84Q52.56,9.36,70,6.84Z"/></g></g></svg>