<svg id="Layer_1" data-name="Layer 1" xmlns="http://www.w3.org/2000/svg" xmlns:xlink="http://www.w3.org/1999/xlink" viewBox="0 0 75.8 152.37"><defs><style>.cls-1{fill:url(#linear-gradient);}.cls-2{fill:url(#linear-gradient-2);}.cls-3{fill:url(#linear-gradient-3);}.cls-4{fill:url(#linear-gradient-4);}.cls-5{fill:url(#linear-gradient-5);}.cls-6{fill:url(#linear-gradient-6);}.cls-7{fill:#fff;}.cls-8{fill:#140000;}.cls-9{fill:url(#linear-gradient-7);}.cls-10{fill:url(#linear-gradient-8);}.cls-11{fill:url(#linear-gradient-9);}.cls-12{fill:url(#linear-gradient-10);}.cls-13{fill:url(#linear-gradient-11);}.cls-14{fill:#f2f2f2;}</style><linearGradient id="linear-gradient" x1="19.5" y1="149.73" x2="55.3" y2="149.73" gradientUnits="userSpaceOnUse"><stop offset="0" stop-color="#1a1a1a"/><stop offset="0.06" stop-color="#424041"/><stop offset="0.11" stop-color="#615e5f"/><stop offset="0.16" stop-color="#747071"/><stop offset="0.19" stop-color="#7b7778"/><stop offset="0.5" stop-color="#666"/><stop offset="0.78" stop-color="#ccc"/><stop offset="1" stop-color="#1a1a1a"/></linearGradient><linearGradient id="linear-gradient-2" x1="19.5" y1="147.08" x2="55.3" y2="147.08" gradientUnits="userSpaceOnUse"><stop offset="0" stop-color="#1a1a1a"/><stop offset="0.02" stop-color="#1d1d1d"/><stop offset="0.35" stop-color="#404040"/><stop offset="0.52" stop-color="#4d4d4d"/><stop offset="0.64" stop-color="#3d3d3d"/><stop offset="0.87" stop-color="#232323"/><stop offset="1" stop-color="#1a1a1a"/></linearGradient><linearGradient id="linear-gradient-3" x1="2502.07" y1="2652.88" x2="2510.71" y2="2652.88" gradientTransform="translate(-2468.49 -2515.22)" xlink:href="#linear-gradient"/><linearGradient id="linear-gradient-4" x1="37.68" y1="130.76" x2="37.68" gradientUnits="userSpaceOnUse"><stop offset="0.06" stop-color="#1a1a1a"/><stop offset="0.51" stop-color="#4d4d4d"/><stop offset="1" stop-color="#525252"/></linearGradient><linearGradient id="linear-gradient-5" x1="79.29" y1="88.18" x2="0.32" y2="42.58" xlink:href="#linear-gradient"/><linearGradient id="linear-gradient-6" x1="-4904.81" y1="849.85" x2="-4904.81" y2="804.67" gradientTransform="matrix(-1, 0, 0, 1, -4875.13, -786.7)" gradientUnits="userSpaceOnUse"><stop offset="0.02" stop-color="#666"/><stop offset="0.02" stop-color="#6e6e6e"/><stop offset="0.05" stop-color="#999899"/><stop offset="0.07" stop-color="#b8b7b8"/><stop offset="0.09" stop-color="#cbcacb"/><stop offset="0.11" stop-color="#d2d1d2"/><stop offset="0.18" stop-color="#c5c4c5"/><stop offset="0.29" stop-color="#979696"/><stop offset="0.33" stop-color="#919090"/><stop offset="0.5" stop-color="#f2f2f2"/><stop offset="0.78" stop-color="#c9c8c8"/><stop offset="0.85" stop-color="#fff"/><stop offset="1" stop-color="#4d4d4d"/></linearGradient><linearGradient id="linear-gradient-7" x1="-4916.31" y1="849.85" x2="-4916.31" y2="804.67" xlink:href="#linear-gradient-6"/><linearGradient id="linear-gradient-8" x1="-4927.81" y1="849.85" x2="-4927.81" y2="804.67" xlink:href="#linear-gradient-6"/><linearGradient id="linear-gradient-9" x1="-4904.81" y1="899.85" x2="-4904.81" y2="854.67" xlink:href="#linear-gradient-6"/><linearGradient id="linear-gradient-10" x1="-4916.31" y1="899.85" x2="-4916.31" y2="854.67" xlink:href="#linear-gradient-6"/><linearGradient id="linear-gradient-11" x1="-4927.81" y1="899.85" x2="-4927.81" y2="854.67" xlink:href="#linear-gradient-6"/></defs><path class="cls-1" d="M20,147.08v4a121.27,121.27,0,0,0,19.23,1.32A122.1,122.1,0,0,0,55.8,151v-4a116,116,0,0,1-16.91,1.32h-.33A127.24,127.24,0,0,1,20,147.08Z"/><ellipse class="cls-2" cx="37.9" cy="147.08" rx="17.9" ry="1.63"/><path class="cls-3" d="M42.22,127.86v18.92a14.18,14.18,0,0,1-8.64,0V127.86Z"/><ellipse class="cls-4" cx="37.68" cy="65.38" rx="37.68" ry="65.38"/><ellipse class="cls-5" cx="39.81" cy="65.38" rx="36" ry="65.38"/><ellipse cx="39.59" cy="65.38" rx="30.59" ry="60.77"/><path class="cls-6" d="M31.28,18H25.52a111,111,0,0,1,2.31,21.4,111.09,111.09,0,0,1-2.31,23.78h5.76S37,40.56,31.28,18Z"/><path class="cls-7" d="M31.28,18H25.52a111,111,0,0,1,2.31,21.4,111.09,111.09,0,0,1-2.31,23.78h5.76S37,40.56,31.28,18Z"/><path class="cls-8" d="M32.47,53.62h-3.9V51.1h.87v1.49h.61V51.32h.86v1.27h.7V51h.86Z"/><path class="cls-8" d="M32.47,50.66l-2-1.06-1.9,1V49.45l.64-.27.29-.12.36-.15v0l-.36-.12-.29-.12-.64-.22V47.31l1.95,1,1.95-1.06V48.4l-.69.32-.32.13-.33.14v0l.33.13.32.13.69.29Z"/><path class="cls-8" d="M31.31,47.17h-.72V45.65h.72Z"/><path class="cls-8" d="M32.47,45h-3.9V42.42h.87v1.51h.74v-1.3H31v1.3h1.43Z"/><path class="cls-8" d="M32.47,41.74h-3.9v-1h3.9Z"/><path class="cls-8" d="M32.47,39.85h-3.9v-1h3V37.34h.86Z"/><path class="cls-8" d="M32.47,36.64h-3v1h-.87v-3.1h.87v1h3Z"/><path class="cls-8" d="M32.47,34h-3.9V31.48h.87V33h.61V31.7h.86V33h.7V31.42h.86Z"/><path class="cls-8" d="M32.47,29.64v1h-3.9V29.19a2.35,2.35,0,0,1,.12-.77,1.09,1.09,0,0,1,.38-.57,1.18,1.18,0,0,1,.76-.22,1.28,1.28,0,0,1,.7.18,1.16,1.16,0,0,1,.43.45l1.51-.84v1.15l-1.31.67v.4Zm-2.12,0v-.38c0-.41-.17-.62-.52-.62a.37.37,0,0,0-.35.16.94.94,0,0,0-.09.46v.38Z"/><path class="cls-9" d="M42.78,18H37a111,111,0,0,1,2.31,21.4A111.09,111.09,0,0,1,37,63.15h5.76S48.54,40.56,42.78,18Z"/><path class="cls-7" d="M42.78,18H37a111,111,0,0,1,2.31,21.4A111.09,111.09,0,0,1,37,63.15h5.76S48.54,40.56,42.78,18Z"/><path class="cls-8" d="M44,53.62h-3.9V51.1h.87v1.49h.61V51.32h.86v1.27h.7V51H44Z"/><path class="cls-8" d="M44,50.66,42,49.6l-1.9,1V49.45l.64-.27.29-.12.36-.15v0L41,48.76l-.29-.12-.64-.22V47.31l2,1L44,47.25V48.4l-.69.32-.32.13-.33.14v0l.33.13.32.13.69.29Z"/><path class="cls-8" d="M42.81,47.17h-.72V45.65h.72Z"/><path class="cls-8" d="M44,45h-3.9V42.42h.87v1.51h.74v-1.3h.86v1.3H44Z"/><path class="cls-8" d="M44,41.74h-3.9v-1H44Z"/><path class="cls-8" d="M44,39.85h-3.9v-1h3V37.34H44Z"/><path class="cls-8" d="M44,36.64h-3v1h-.87v-3.1h.87v1h3Z"/><path class="cls-8" d="M44,34h-3.9V31.48h.87V33h.61V31.7h.86V33h.7V31.42H44Z"/><path class="cls-8" d="M44,29.64v1h-3.9V29.19a2.35,2.35,0,0,1,.12-.77,1.09,1.09,0,0,1,.38-.57,1.18,1.18,0,0,1,.76-.22,1.28,1.28,0,0,1,.7.18,1.16,1.16,0,0,1,.43.45L44,27.42v1.15l-1.31.67v.4Zm-2.12,0v-.38c0-.41-.17-.62-.52-.62a.37.37,0,0,0-.35.16.94.94,0,0,0-.09.46v.38Z"/><path class="cls-10" d="M54.28,18H48.52a111,111,0,0,1,2.31,21.4,111.09,111.09,0,0,1-2.31,23.78h5.76S60,40.56,54.28,18Z"/><path class="cls-7" d="M54.28,18H48.52a111,111,0,0,1,2.31,21.4,111.09,111.09,0,0,1-2.31,23.78h5.76S60,40.56,54.28,18Z"/><path class="cls-8" d="M55.47,53.62h-3.9V51.1h.87v1.49h.61V51.32h.86v1.27h.7V51h.86Z"/><path class="cls-8" d="M55.47,50.66l-2-1.06-1.9,1V49.45l.64-.27.29-.12.36-.15v0l-.36-.12-.29-.12-.64-.22V47.31l2,1,1.95-1.06V48.4l-.69.32-.32.13-.33.14v0l.33.13.32.13.69.29Z"/><path class="cls-8" d="M54.31,47.17h-.72V45.65h.72Z"/><path class="cls-8" d="M55.47,45h-3.9V42.42h.87v1.51h.74v-1.3H54v1.3h1.43Z"/><path class="cls-8" d="M55.47,41.74h-3.9v-1h3.9Z"/><path class="cls-8" d="M55.47,39.85h-3.9v-1h3V37.34h.86Z"/><path class="cls-8" d="M55.47,36.64h-3v1h-.87v-3.1h.87v1h3Z"/><path class="cls-8" d="M55.47,34h-3.9V31.48h.87V33h.61V31.7h.86V33h.7V31.42h.86Z"/><path class="cls-8" d="M55.47,29.64v1h-3.9V29.19a2.35,2.35,0,0,1,.12-.77,1.09,1.09,0,0,1,.38-.57,1.18,1.18,0,0,1,.76-.22,1.28,1.28,0,0,1,.7.18,1.16,1.16,0,0,1,.43.45l1.51-.84v1.15l-1.31.67v.4Zm-2.12,0v-.38c0-.41-.17-.62-.52-.62a.37.37,0,0,0-.35.16.94.94,0,0,0-.09.46v.38Z"/><path class="cls-11" d="M31.28,68H25.52a111,111,0,0,1,2.31,21.4,111.09,111.09,0,0,1-2.31,23.78h5.76S37,90.56,31.28,68Z"/><path class="cls-7" d="M31.28,68H25.52a111,111,0,0,1,2.31,21.4,111.09,111.09,0,0,1-2.31,23.78h5.76S37,90.56,31.28,68Z"/><path class="cls-8" d="M32.47,103.62h-3.9V101.1h.87v1.49h.61v-1.27h.86v1.27h.7V101h.86Z"/><path class="cls-8" d="M32.47,100.66l-2-1.06-1.9,1V99.45l.64-.27.29-.12.36-.15v0l-.36-.12-.29-.12-.64-.22V97.31l1.95,1,1.95-1.06V98.4l-.69.32-.32.13-.33.14v0l.33.13.32.13.69.29Z"/><path class="cls-8" d="M31.31,97.17h-.72V95.65h.72Z"/><path class="cls-8" d="M32.47,95h-3.9V92.42h.87v1.51h.74v-1.3H31v1.3h1.43Z"/><path class="cls-8" d="M32.47,91.74h-3.9v-1h3.9Z"/><path class="cls-8" d="M32.47,89.85h-3.9v-1h3V87.34h.86Z"/><path class="cls-8" d="M32.47,86.64h-3v1h-.87v-3.1h.87v1h3Z"/><path class="cls-8" d="M32.47,84h-3.9V81.48h.87V83h.61V81.7h.86V83h.7V81.42h.86Z"/><path class="cls-8" d="M32.47,79.64v1h-3.9V79.19a2.35,2.35,0,0,1,.12-.77,1.09,1.09,0,0,1,.38-.57,1.18,1.18,0,0,1,.76-.22,1.28,1.28,0,0,1,.7.18,1.16,1.16,0,0,1,.43.45l1.51-.84v1.15l-1.31.67v.4Zm-2.12,0v-.38c0-.41-.17-.62-.52-.62a.37.37,0,0,0-.35.16.94.94,0,0,0-.09.46v.38Z"/><path class="cls-12" d="M42.78,68H37a111,111,0,0,1,2.31,21.4A111.09,111.09,0,0,1,37,113.15h5.76S48.54,90.56,42.78,68Z"/><path class="cls-7" d="M42.78,68H37a111,111,0,0,1,2.31,21.4A111.09,111.09,0,0,1,37,113.15h5.76S48.54,90.56,42.78,68Z"/><path class="cls-8" d="M44,103.62h-3.9V101.1h.87v1.49h.61v-1.27h.86v1.27h.7V101H44Z"/><path class="cls-8" d="M44,100.66,42,99.6l-1.9,1V99.45l.64-.27.29-.12.36-.15v0L41,98.76l-.29-.12-.64-.22V97.31l2,1L44,97.25V98.4l-.69.32-.32.13-.33.14v0l.33.13.32.13.69.29Z"/><path class="cls-8" d="M42.81,97.17h-.72V95.65h.72Z"/><path class="cls-8" d="M44,95h-3.9V92.42h.87v1.51h.74v-1.3h.86v1.3H44Z"/><path class="cls-8" d="M44,91.74h-3.9v-1H44Z"/><path class="cls-8" d="M44,89.85h-3.9v-1h3V87.34H44Z"/><path class="cls-8" d="M44,86.64h-3v1h-.87v-3.1h.87v1h3Z"/><path class="cls-8" d="M44,84h-3.9V81.48h.87V83h.61V81.7h.86V83h.7V81.42H44Z"/><path class="cls-8" d="M44,79.64v1h-3.9V79.19a2.35,2.35,0,0,1,.12-.77,1.09,1.09,0,0,1,.38-.57,1.18,1.18,0,0,1,.76-.22,1.28,1.28,0,0,1,.7.18,1.16,1.16,0,0,1,.43.45L44,77.42v1.15l-1.31.67v.4Zm-2.12,0v-.38c0-.41-.17-.62-.52-.62a.37.37,0,0,0-.35.16.94.94,0,0,0-.09.46v.38Z"/><path class="cls-13" d="M54.28,68H48.52a111,111,0,0,1,2.31,21.4,111.09,111.09,0,0,1-2.31,23.78h5.76S60,90.56,54.28,68Z"/><path class="cls-7" d="M54.28,68H48.52a111,111,0,0,1,2.31,21.4,111.09,111.09,0,0,1-2.31,23.78h5.76S60,90.56,54.28,68Z"/><path class="cls-8" d="M55.47,103.62h-3.9V101.1h.87v1.49h.61v-1.27h.86v1.27h.7V101h.86Z"/><path class="cls-8" d="M55.47,100.66l-2-1.06-1.9,1V99.45l.64-.27.29-.12.36-.15v0l-.36-.12-.29-.12-.64-.22V97.31l2,1,1.95-1.06V98.4l-.69.32-.32.13-.33.14v0l.33.13.32.13.69.29Z"/><path class="cls-8" d="M54.31,97.17h-.72V95.65h.72Z"/><path class="cls-8" d="M55.47,95h-3.9V92.42h.87v1.51h.74v-1.3H54v1.3h1.43Z"/><path class="cls-8" d="M55.47,91.74h-3.9v-1h3.9Z"/><path class="cls-8" d="M55.47,89.85h-3.9v-1h3V87.34h.86Z"/><path class="cls-8" d="M55.47,86.64h-3v1h-.87v-3.1h.87v1h3Z"/><path class="cls-8" d="M55.47,84h-3.9V81.48h.87V83h.61V81.7h.86V83h.7V81.42h.86Z"/><path class="cls-8" d="M55.47,79.64v1h-3.9V79.19a2.35,2.35,0,0,1,.12-.77,1.09,1.09,0,0,1,.38-.57,1.18,1.18,0,0,1,.76-.22,1.28,1.28,0,0,1,.7.18,1.16,1.16,0,0,1,.43.45l1.51-.84v1.15l-1.31.67v.4Zm-2.12,0v-.38c0-.41-.17-.62-.52-.62a.37.37,0,0,0-.35.16.94.94,0,0,0-.09.46v.38Z"/><path class="cls-14" d="M20.93,121l2.82-2.84a19.57,19.57,0,0,0,1.83,2l-.55.71c-.47-.46-.7-.7-1.15-1.2l-.52.57c.4.44.61.66,1,1.07l-.56.7c-.43-.43-.64-.65-1.05-1.11l-1,1.1C21.43,121.65,21.26,121.45,20.93,121Z"/><path class="cls-14" d="M23.68,124c1-1.31,1.45-2,2.41-3.28.31.29.47.43.79.69-.9,1.37-1.35,2-2.26,3.41C24.24,124.47,24.06,124.3,23.68,124Z"/><path class="cls-14" d="M25.43,125.43c.85-1.4,1.28-2.11,2.14-3.51.33.25.49.38.83.61l-1.55,2.82c.55.38.83.56,1.39.89-.16.34-.24.5-.39.84A22.48,22.48,0,0,1,25.43,125.43Z"/><path class="cls-14" d="M28.54,127.47c.52-1.19.78-1.78,1.29-3-.36-.2-.54-.31-.9-.53l.41-.82A17,17,0,0,0,32,124.53l-.3.88c-.37-.16-.56-.25-.93-.43-.47,1.21-.71,1.82-1.17,3C29.16,127.81,29,127.7,28.54,127.47Z"/><path class="cls-14" d="M31.22,128.75c.51-1.61.76-2.41,1.26-4a17.26,17.26,0,0,0,2.24.74c-.07.37-.11.55-.19.92-.55-.15-.83-.23-1.38-.42l-.17.64c.48.16.72.24,1.21.37l-.2.92c-.5-.14-.75-.22-1.25-.39l-.2.73c.63.21.94.3,1.58.47-.08.37-.12.55-.19.92A19.08,19.08,0,0,1,31.22,128.75Z"/><path class="cls-14" d="M35.84,130.05c-.45-.08-.67-.12-1.11-.22.29-1.67.44-2.5.73-4.17.53.11.8.16,1.34.24a2.21,2.21,0,0,1,.7.22,1.11,1.11,0,0,1,.49.47,1.42,1.42,0,0,1,.16.84,1.47,1.47,0,0,1-.22.74,1.07,1.07,0,0,1-.49.43c.29.7.45,1,.79,1.72-.5,0-.75,0-1.25-.11-.23-.6-.35-.9-.55-1.51l-.41-.06C36,129.2,35.91,129.48,35.84,130.05Zm.3-2.29.37,0c.41.07.63-.1.66-.47a.45.45,0,0,0-.11-.4.78.78,0,0,0-.43-.16l-.35-.06C36.22,127.13,36.2,127.34,36.14,127.76Z"/><path class="cls-14" d="M40.43,130.34c-.35-1.69-.5-2.54-.76-4.24.38,0,.58,0,1,0l.3,1.84c0,.22.07.44.11.66s.07.45.1.67h0c0-.22,0-.45.07-.67l.06-.68c.1-.75.14-1.13.21-1.88l.79-.11c.22.72.34,1.08.58,1.79.07.21.13.42.2.63s.13.44.2.65h0c0-.23,0-.46,0-.68l0-.66c0-.75,0-1.13-.08-1.88.36-.07.54-.11.89-.2.1,1.72.12,2.59.13,4.32-.56.12-.84.17-1.4.26-.21-.65-.31-1-.5-1.64,0-.16-.1-.32-.14-.49s-.08-.32-.11-.48h0c0,.16,0,.32,0,.49a4.36,4.36,0,0,1,0,.51c0,.69-.08,1-.15,1.72C41.26,130.3,41,130.32,40.43,130.34Z"/><path class="cls-14" d="M45.4,129.56c-.36-1.65-.54-2.48-.89-4.13.37-.1.55-.16.92-.28.16.61.24.91.39,1.52.45-.14.67-.22,1.1-.39-.18-.6-.28-.9-.46-1.5.36-.14.54-.22.9-.38l1.4,3.95c-.42.19-.63.28-1.06.45-.2-.64-.3-1-.49-1.6-.46.18-.68.26-1.14.41l.42,1.63C46.05,129.38,45.84,129.44,45.4,129.56Z"/><path class="cls-14" d="M49.64,127.93,48.11,124a18.1,18.1,0,0,0,2.12-1.22l.42.81c-.51.34-.77.49-1.29.79l.27.6c.45-.26.68-.4,1.13-.69l.42.82c-.47.3-.7.44-1.18.71l.3.68c.6-.34.89-.52,1.47-.9l.43.81A20,20,0,0,1,49.64,127.93Z"/><path class="cls-14" d="M52.93,125.94l-2-3.58a18.69,18.69,0,0,0,2-1.61l.53.73c-.48.43-.72.64-1.21,1l.35.55c.43-.34.64-.52,1.05-.89l.53.74c-.43.38-.65.57-1.1.92l.39.62c.56-.44.83-.68,1.37-1.17l.53.73A21.37,21.37,0,0,1,52.93,125.94Z"/><path class="cls-14" d="M56,123.37l-2.5-3.2c.31-.3.46-.46.76-.78l2.06,2.38c.48-.52.72-.79,1.19-1.36l.62.63A23.86,23.86,0,0,1,56,123.37Z"/></svg>