<svg id="Layer_1" data-name="Layer 1" xmlns="http://www.w3.org/2000/svg" xmlns:xlink="http://www.w3.org/1999/xlink" viewBox="0 0 165.49 60"><defs><style>.cls-1{fill:url(#linear-gradient);}.cls-2{fill:url(#linear-gradient-2);}.cls-3{fill:url(#linear-gradient-3);}.cls-4{fill:url(#linear-gradient-4);}.cls-5{fill:url(#linear-gradient-5);}.cls-6{fill:url(#radial-gradient);}.cls-7{fill:url(#radial-gradient-2);}.cls-8{fill:url(#radial-gradient-3);}.cls-9{fill:url(#radial-gradient-4);}.cls-10{fill:url(#linear-gradient-6);}.cls-11,.cls-19{fill:#fff;}.cls-12{fill:#140000;}.cls-13{fill:url(#linear-gradient-7);}.cls-14{fill:url(#linear-gradient-8);}.cls-15{fill:url(#radial-gradient-5);}.cls-16{fill:url(#radial-gradient-6);}.cls-17{fill:url(#radial-gradient-7);}.cls-18{fill:url(#radial-gradient-8);}.cls-19{font-size:8px;font-family:Mada-Bold, Mada;font-weight:700;}.cls-20{letter-spacing:-0.12em;}</style><linearGradient id="linear-gradient" x1="0.03" y1="30.8" x2="164.94" y2="30.8" gradientUnits="userSpaceOnUse"><stop offset="0" stop-color="#1a1a1a"/><stop offset="1" stop-color="#1a1a1a"/></linearGradient><linearGradient id="linear-gradient-2" x1="0.75" y1="29.64" x2="165.65" y2="29.64" gradientUnits="userSpaceOnUse"><stop offset="0" stop-color="#1a1a1a"/><stop offset="0.17" stop-color="#424041"/><stop offset="0.34" stop-color="#615e5f"/><stop offset="0.48" stop-color="#747071"/><stop offset="0.58" stop-color="#7b7778"/><stop offset="1" stop-color="#1a1a1a"/></linearGradient><linearGradient id="linear-gradient-3" x1="2158.37" y1="-3832.33" x2="2065.72" y2="-3924.97" gradientTransform="matrix(1, 0, 0, -1, -2028.85, -3849.46)" gradientUnits="userSpaceOnUse"><stop offset="0"/><stop offset="0.87"/></linearGradient><linearGradient id="linear-gradient-4" x1="5.83" y1="34.13" x2="5.83" y2="23.92" gradientUnits="userSpaceOnUse"><stop offset="0" stop-color="#1a1a1a"/><stop offset="0.06" stop-color="#424041"/><stop offset="0.11" stop-color="#615e5f"/><stop offset="0.16" stop-color="#747071"/><stop offset="0.19" stop-color="#7b7778"/><stop offset="0.38" stop-color="#b3b3b3"/><stop offset="0.53" stop-color="#adadad"/><stop offset="0.77" stop-color="#666"/><stop offset="1" stop-color="#1a1a1a"/></linearGradient><linearGradient id="linear-gradient-5" x1="-9777.34" y1="1318.98" x2="-9777.34" y2="1308.76" gradientTransform="translate(9938.03 -1284.85)" xlink:href="#linear-gradient-4"/><radialGradient id="radial-gradient" cx="146.17" cy="9.42" r="2.3" gradientTransform="translate(0.29 -0.22) rotate(-0.02)" gradientUnits="userSpaceOnUse"><stop offset="0.02" stop-color="#666"/><stop offset="0.55" stop-color="#333"/><stop offset="0.97" stop-color="#1a1a1a"/></radialGradient><radialGradient id="radial-gradient-2" cx="146.56" cy="9.42" r="2.3" gradientTransform="translate(0.29 -0.22) rotate(-0.02)" gradientUnits="userSpaceOnUse"><stop offset="0.02" stop-color="#666"/><stop offset="0.17" stop-color="#b8b8b8"/><stop offset="0.41" stop-color="#e6e6e6"/><stop offset="0.42" stop-color="#e1e1e1"/><stop offset="0.43" stop-color="#d3d3d3"/><stop offset="0.45" stop-color="#bbb"/><stop offset="0.46" stop-color="#9a9a9a"/><stop offset="0.47" stop-color="#707070"/><stop offset="0.48" stop-color="#4d4d4d"/><stop offset="0.49" stop-color="#5b5b5b"/><stop offset="0.51" stop-color="#818181"/><stop offset="0.53" stop-color="#bdbdbd"/><stop offset="0.54" stop-color="#d2d2d2"/><stop offset="0.69" stop-color="#979797"/><stop offset="0.88" stop-color="#4d4d4d"/><stop offset="0.95" stop-color="#333"/><stop offset="1" stop-color="#b3b3b3"/></radialGradient><radialGradient id="radial-gradient-3" cx="146.16" cy="50.62" r="2.3" xlink:href="#radial-gradient"/><radialGradient id="radial-gradient-4" cx="146.54" cy="50.62" r="2.3" xlink:href="#radial-gradient-2"/><linearGradient id="linear-gradient-6" x1="-2121.93" y1="-1927.12" x2="-2121.93" y2="-1970.1" gradientTransform="matrix(-0.47, 0.47, -0.81, -0.81, -2445.08, -539.82)" gradientUnits="userSpaceOnUse"><stop offset="0.02" stop-color="#666"/><stop offset="0.02" stop-color="#6e6e6e"/><stop offset="0.05" stop-color="#999899"/><stop offset="0.07" stop-color="#b8b7b8"/><stop offset="0.09" stop-color="#cbcacb"/><stop offset="0.11" stop-color="#d2d1d2"/><stop offset="0.18" stop-color="#c5c4c5"/><stop offset="0.29" stop-color="#979696"/><stop offset="0.33" stop-color="#919090"/><stop offset="0.5" stop-color="#f2f2f2"/><stop offset="0.78" stop-color="#c9c8c8"/><stop offset="0.85" stop-color="#fff"/><stop offset="1" stop-color="#4d4d4d"/></linearGradient><linearGradient id="linear-gradient-7" x1="-2103.55" y1="-1916.36" x2="-2103.55" y2="-1959.34" xlink:href="#linear-gradient-6"/><linearGradient id="linear-gradient-8" x1="-2085.16" y1="-1905.6" x2="-2085.16" y2="-1948.58" xlink:href="#linear-gradient-6"/><radialGradient id="radial-gradient-5" cx="18.18" cy="9.08" r="2.3" xlink:href="#radial-gradient"/><radialGradient id="radial-gradient-6" cx="18.56" cy="9.08" r="2.3" xlink:href="#radial-gradient-2"/><radialGradient id="radial-gradient-7" cx="18.16" cy="50.27" r="2.3" xlink:href="#radial-gradient"/><radialGradient id="radial-gradient-8" cx="18.55" cy="50.27" r="2.3" xlink:href="#radial-gradient-2"/></defs><path class="cls-1" d="M162.57,25.26h-7.79V3.06a1.62,1.62,0,0,0-1.7-1.5H11.88a1.61,1.61,0,0,0-1.69,1.5v22.2H2.39A2.24,2.24,0,0,0,0,27.35v6a2.24,2.24,0,0,0,2.36,2.09h7.8V58.55A1.6,1.6,0,0,0,11.88,60h141.2a1.61,1.61,0,0,0,1.7-1.49V35.47h7.79a2.25,2.25,0,0,0,2.37-2.09v-6A2.25,2.25,0,0,0,162.57,25.26Z"/><path class="cls-2" d="M163.29,24h-7.8V1.56A1.61,1.61,0,0,0,153.8,0H12.6a1.61,1.61,0,0,0-1.69,1.52V24H3.11A2.25,2.25,0,0,0,.75,26.15v6.1a2.25,2.25,0,0,0,2.36,2.12h7.8V57.73a1.61,1.61,0,0,0,1.69,1.51H153.8a1.61,1.61,0,0,0,1.69-1.51V34.37h7.8a2.25,2.25,0,0,0,2.36-2.12v-6.1A2.25,2.25,0,0,0,163.29,24Z"/><rect class="cls-3" x="58.29" y="-39.66" width="49.83" height="137.71" rx="1.91" transform="translate(54.01 112.39) rotate(-90)"/><path class="cls-4" d="M3.45,23.92h7.44a0,0,0,0,1,0,0V34.13a0,0,0,0,1,0,0H3.45A2.68,2.68,0,0,1,.77,31.45V26.6a2.68,2.68,0,0,1,2.68-2.68Z"/><path class="cls-5" d="M158,23.92h8a0,0,0,0,1,0,0V34.13a0,0,0,0,1,0,0h-8a2.68,2.68,0,0,1-2.68-2.68V26.6A2.68,2.68,0,0,1,158,23.92Z" transform="translate(321.38 58.05) rotate(180)"/><circle class="cls-6" cx="146.47" cy="9.14" r="2.3"/><circle class="cls-7" cx="146.86" cy="9.14" r="2.3"/><circle class="cls-8" cx="146.47" cy="50.34" r="2.3"/><circle class="cls-9" cx="146.86" cy="50.34" r="2.3"/><path class="cls-10" d="M144,46l-3.18,3.25c-5.52-4.86-11.41-10.41-17.49-16.68C117.11,26.1,111.61,19.87,106.8,14L110,10.79A192.64,192.64,0,0,1,127.74,26.9,194.19,194.19,0,0,1,144,46Z"/><path class="cls-11" d="M144,46l-3.18,3.25c-5.52-4.86-11.41-10.4-17.5-16.67-6.24-6.43-11.75-12.66-16.56-18.48L110,10.8a191,191,0,0,1,17.77,16.1A193.25,193.25,0,0,1,144,46Z"/><path class="cls-12" d="M114.49,21.76,117.27,19l.8.82a2.22,2.22,0,0,1,.7,1.35,1.77,1.77,0,0,1-.66,1.43,1.87,1.87,0,0,1-1.46.67,2.08,2.08,0,0,1-1.31-.67Zm1.31.15,0,0a1.13,1.13,0,0,0,.67.35c.24,0,.53-.11.85-.43s.47-.6.43-.84a1.14,1.14,0,0,0-.35-.65l0,0Z"/><path class="cls-12" d="M117.19,24.5,120,21.76l.73.74-2.78,2.74Z"/><path class="cls-12" d="M119.66,27.11a2.09,2.09,0,0,1-.49-.82,1.7,1.7,0,0,1,0-.95,2.19,2.19,0,0,1,.6-1,2.26,2.26,0,0,1,1-.59,1.85,1.85,0,0,1,1,0,2,2,0,0,1,.82.49,1.64,1.64,0,0,1,.38.61,2.05,2.05,0,0,1,.1.62l-.85.08a1.36,1.36,0,0,0-.06-.36.69.69,0,0,0-.19-.31.76.76,0,0,0-.63-.21,1.23,1.23,0,0,0-.77.4,1.35,1.35,0,0,0-.44.76.74.74,0,0,0,.22.64.86.86,0,0,0,.36.22,1.65,1.65,0,0,0,.38.05l-.08.83A1.61,1.61,0,0,1,119.66,27.11Z"/><path class="cls-12" d="M121,28.35l2.77-2.74.73.74-1,1,.82.83,1-1,.72.73-2.78,2.74-.72-.73,1.1-1.09-.82-.83-1.1,1.09Z"/><path class="cls-12" d="M124.59,32l-.72-.73,2.78-2.74,1,1a2.41,2.41,0,0,1,.46.63,1.1,1.1,0,0,1,.13.68,1.17,1.17,0,0,1-.39.68,1.27,1.27,0,0,1-.62.37,1.3,1.3,0,0,1-.62,0l-.49,1.66-.81-.82.46-1.4-.27-.28Zm1.52-1.49.26.26c.29.3.56.33.8.09a.38.38,0,0,0,.14-.36,1,1,0,0,0-.26-.4l-.26-.26Z"/><path class="cls-12" d="M127.63,35.18a1.72,1.72,0,0,1-.54-1.32,2.5,2.5,0,0,1,2.12-2.09,1.91,1.91,0,0,1,1.85,1.87,2.09,2.09,0,0,1-.71,1.4,2.12,2.12,0,0,1-1.42.69A1.69,1.69,0,0,1,127.63,35.18Zm.63-.63a.62.62,0,0,0,.61.18,1.53,1.53,0,0,0,.74-.45,1.38,1.38,0,0,0,.44-.72.66.66,0,0,0-.77-.78,1.38,1.38,0,0,0-.73.43,1.56,1.56,0,0,0-.46.73A.63.63,0,0,0,128.26,34.55Z"/><path class="cls-12" d="M129.44,36.91l2.78-2.74.72.74-2.77,2.74Z"/><path class="cls-12" d="M131.91,39.52a2,2,0,0,1-.49-.81,1.84,1.84,0,0,1,0-1A2.49,2.49,0,0,1,133,36.2a1.86,1.86,0,0,1,1.8.49,1.59,1.59,0,0,1,.38.61,2.08,2.08,0,0,1,.11.62l-.85.08a1.93,1.93,0,0,0-.06-.36.79.79,0,0,0-.19-.31.76.76,0,0,0-.63-.21,1.23,1.23,0,0,0-.77.4,1.35,1.35,0,0,0-.44.76.73.73,0,0,0,.22.64.77.77,0,0,0,.35.22,1.81,1.81,0,0,0,.38,0l-.08.84A1.65,1.65,0,0,1,131.91,39.52Z"/><path class="cls-13" d="M126.69,46l-3.18,3.25C118,44.35,112.1,38.8,106,32.53,99.78,26.1,94.28,19.87,89.47,14l3.17-3.25A190.08,190.08,0,0,1,110.4,26.9,194.42,194.42,0,0,1,126.69,46Z"/><path class="cls-11" d="M126.69,46l-3.17,3.25C118,44.34,112.1,38.8,106,32.53,99.78,26.1,94.27,19.87,89.46,14.05l3.17-3.25A189.7,189.7,0,0,1,110.4,26.9,191.9,191.9,0,0,1,126.69,46Z"/><path class="cls-12" d="M97.16,21.76,99.93,19l.81.82a2.16,2.16,0,0,1,.69,1.35,1.77,1.77,0,0,1-.66,1.43,1.85,1.85,0,0,1-1.45.67A2.06,2.06,0,0,1,98,22.62Zm1.31.15,0,0a1.13,1.13,0,0,0,.66.35c.25,0,.53-.11.86-.43s.47-.6.43-.84a1.2,1.2,0,0,0-.35-.65l0,0Z"/><path class="cls-12" d="M99.86,24.5l2.78-2.74.72.74-2.78,2.74Z"/><path class="cls-12" d="M102.33,27.11a2,2,0,0,1-.49-.82,1.7,1.7,0,0,1,0-.95,2.13,2.13,0,0,1,.61-1,2.26,2.26,0,0,1,1-.59,1.85,1.85,0,0,1,1,0,2,2,0,0,1,.81.49,1.52,1.52,0,0,1,.38.61,2.08,2.08,0,0,1,.11.62l-.85.08a1.93,1.93,0,0,0-.06-.36.93.93,0,0,0-.19-.31.76.76,0,0,0-.63-.21,1.21,1.21,0,0,0-.77.4,1.35,1.35,0,0,0-.44.76.74.74,0,0,0,.22.64.77.77,0,0,0,.35.22,1.81,1.81,0,0,0,.38.05l-.08.83A1.61,1.61,0,0,1,102.33,27.11Z"/><path class="cls-12" d="M103.66,28.35l2.78-2.74.72.74-1,1,.82.83,1-1,.73.73-2.78,2.74-.73-.73,1.11-1.09-.82-.83-1.1,1.09Z"/><path class="cls-12" d="M107.26,32l-.72-.73,2.77-2.74,1,1a2.41,2.41,0,0,1,.46.63,1.26,1.26,0,0,1,.13.68,1.17,1.17,0,0,1-.39.68,1.32,1.32,0,0,1-.62.37,1.34,1.34,0,0,1-.63,0l-.48,1.66-.81-.82.46-1.4-.28-.28Zm1.51-1.49.26.26c.3.3.56.33.81.09a.4.4,0,0,0,.14-.36,1,1,0,0,0-.26-.4l-.26-.26Z"/><path class="cls-12" d="M110.29,35.18a1.71,1.71,0,0,1-.53-1.32,2.47,2.47,0,0,1,2.12-2.09,1.92,1.92,0,0,1,1.84,1.87A2,2,0,0,1,113,35a2.14,2.14,0,0,1-1.42.69A1.71,1.71,0,0,1,110.29,35.18Zm.64-.63a.61.61,0,0,0,.61.18,1.53,1.53,0,0,0,.74-.45,1.45,1.45,0,0,0,.44-.72.67.67,0,0,0-.18-.6.63.63,0,0,0-.6-.18,1.39,1.39,0,0,0-.72.43,1.49,1.49,0,0,0-.46.73A.61.61,0,0,0,110.93,34.55Z"/><path class="cls-12" d="M112.11,36.91l2.77-2.74.73.74-2.78,2.74Z"/><path class="cls-12" d="M114.57,39.52a2,2,0,0,1-.48-.81,1.65,1.65,0,0,1,0-1,2.24,2.24,0,0,1,.61-1,2.21,2.21,0,0,1,1-.59,1.81,1.81,0,0,1,1,0,1.84,1.84,0,0,1,.82.48,1.59,1.59,0,0,1,.38.61,2.08,2.08,0,0,1,.11.62l-.85.08a1.35,1.35,0,0,0-.07-.36.76.76,0,0,0-.18-.31.77.77,0,0,0-.64-.21,1.26,1.26,0,0,0-.77.4,1.41,1.41,0,0,0-.44.76.76.76,0,0,0,.22.64.86.86,0,0,0,.36.22,1.73,1.73,0,0,0,.38,0l-.08.84A1.67,1.67,0,0,1,114.57,39.52Z"/><path class="cls-14" d="M109.35,46l-3.17,3.25c-5.52-4.86-11.42-10.41-17.5-16.68C82.44,26.1,76.94,19.87,72.13,14l3.18-3.25A192.64,192.64,0,0,1,93.07,26.9,192.83,192.83,0,0,1,109.35,46Z"/><path class="cls-11" d="M109.36,46l-3.17,3.25c-5.53-4.86-11.42-10.4-17.51-16.67C82.44,26.1,76.94,19.87,72.12,14.05L75.3,10.8A191,191,0,0,1,93.07,26.9,193.25,193.25,0,0,1,109.36,46Z"/><path class="cls-12" d="M79.82,21.76,82.6,19l.81.82a2.26,2.26,0,0,1,.69,1.35,1.77,1.77,0,0,1-.66,1.43,1.87,1.87,0,0,1-1.45.67,2.11,2.11,0,0,1-1.32-.67Zm1.31.15.05,0a1.1,1.1,0,0,0,.66.35c.25,0,.53-.11.86-.43a1.1,1.1,0,0,0,.43-.84,1.22,1.22,0,0,0-.36-.65l0,0Z"/><path class="cls-12" d="M82.53,24.5l2.77-2.74.73.74-2.78,2.74Z"/><path class="cls-12" d="M85,27.11a2,2,0,0,1-.48-.82,1.62,1.62,0,0,1,0-.95,2.13,2.13,0,0,1,.61-1,2.21,2.21,0,0,1,1-.59,1.81,1.81,0,0,1,1,0,2,2,0,0,1,.82.49,1.52,1.52,0,0,1,.38.61,1.78,1.78,0,0,1,.1.62l-.85.08a1,1,0,0,0-.06-.36.69.69,0,0,0-.19-.31.76.76,0,0,0-.63-.21,1.23,1.23,0,0,0-.77.4,1.35,1.35,0,0,0-.44.76.77.77,0,0,0,.22.64.86.86,0,0,0,.36.22,1.73,1.73,0,0,0,.38.05l-.08.83A1.63,1.63,0,0,1,85,27.11Z"/><path class="cls-12" d="M86.33,28.35l2.77-2.74.73.74-1,1,.82.83,1-1,.72.73-2.78,2.74-.72-.73L89,28.83,88.15,28l-1.1,1.09Z"/><path class="cls-12" d="M89.93,32l-.73-.73L92,28.53l1,1a2.46,2.46,0,0,1,.47.63,1.08,1.08,0,0,1-.27,1.36,1.29,1.29,0,0,1-.61.37,1.33,1.33,0,0,1-.63,0l-.48,1.66-.81-.82.46-1.4-.28-.28Zm1.51-1.49.26.26c.29.3.56.33.8.09a.38.38,0,0,0,.14-.36.9.9,0,0,0-.26-.4l-.26-.26Z"/><path class="cls-12" d="M93,35.18a1.72,1.72,0,0,1-.54-1.32,2.1,2.1,0,0,1,.72-1.4,2.08,2.08,0,0,1,1.41-.69,1.71,1.71,0,0,1,1.29.57,1.73,1.73,0,0,1,.55,1.3,2.47,2.47,0,0,1-2.12,2.09A1.71,1.71,0,0,1,93,35.18Zm.63-.63a.63.63,0,0,0,.61.18,1.48,1.48,0,0,0,.74-.45,1.38,1.38,0,0,0,.44-.72.65.65,0,0,0-.77-.78,1.38,1.38,0,0,0-.73.43,1.46,1.46,0,0,0-.45.73A.61.61,0,0,0,93.59,34.55Z"/><path class="cls-12" d="M94.77,36.91l2.78-2.74.72.74L95.5,37.65Z"/><path class="cls-12" d="M97.24,39.52a2.13,2.13,0,0,1-.49-.81,1.74,1.74,0,0,1,0-1,2.21,2.21,0,0,1,.6-1,2.26,2.26,0,0,1,1-.59,1.85,1.85,0,0,1,1,0,1.9,1.9,0,0,1,.82.48,1.57,1.57,0,0,1,.37.61,1.81,1.81,0,0,1,.11.62l-.85.08a1.93,1.93,0,0,0-.06-.36.79.79,0,0,0-.19-.31.76.76,0,0,0-.63-.21,1.23,1.23,0,0,0-.77.4,1.35,1.35,0,0,0-.44.76.73.73,0,0,0,.22.64.8.8,0,0,0,.36.22,1.65,1.65,0,0,0,.38,0l-.09.84A1.65,1.65,0,0,1,97.24,39.52Z"/><path class="cls-11" d="M92,46l-3.18,3.25C83.32,44.35,77.43,38.8,71.35,32.53,65.11,26.1,59.61,19.87,54.8,14L58,10.79A190.08,190.08,0,0,1,75.73,26.9,194.42,194.42,0,0,1,92,46Z"/><path class="cls-12" d="M62.49,21.76,65.26,19l.81.82a2.16,2.16,0,0,1,.69,1.35,1.77,1.77,0,0,1-.66,1.43,1.85,1.85,0,0,1-1.45.67,2.06,2.06,0,0,1-1.31-.67Zm1.31.15,0,0a1.13,1.13,0,0,0,.66.35c.25,0,.53-.11.86-.43s.47-.6.43-.84a1.2,1.2,0,0,0-.35-.65l0,0Z"/><path class="cls-12" d="M65.19,24.5,68,21.76l.72.74-2.78,2.74Z"/><path class="cls-12" d="M67.66,27.11a2,2,0,0,1-.49-.82,1.7,1.7,0,0,1,0-.95,2.13,2.13,0,0,1,.61-1,2.26,2.26,0,0,1,1-.59,1.85,1.85,0,0,1,1,0,2,2,0,0,1,.81.49,1.52,1.52,0,0,1,.38.61,2.08,2.08,0,0,1,.11.62l-.85.08a1.93,1.93,0,0,0-.06-.36.93.93,0,0,0-.19-.31.76.76,0,0,0-.63-.21,1.21,1.21,0,0,0-.77.4,1.35,1.35,0,0,0-.44.76.74.74,0,0,0,.22.64.77.77,0,0,0,.35.22,1.81,1.81,0,0,0,.38.05l-.08.83A1.61,1.61,0,0,1,67.66,27.11Z"/><path class="cls-12" d="M69,28.35l2.78-2.74.72.74-1,1,.82.83,1-1,.73.73-2.78,2.74-.73-.73,1.11-1.09L70.82,28l-1.1,1.09Z"/><path class="cls-12" d="M72.59,32l-.72-.73,2.77-2.74,1,1a2.41,2.41,0,0,1,.46.63,1.26,1.26,0,0,1,.13.68,1.17,1.17,0,0,1-.39.68,1.32,1.32,0,0,1-.62.37,1.34,1.34,0,0,1-.63,0l-.48,1.66-.81-.82.46-1.4-.28-.28Zm1.51-1.49.26.26c.3.3.56.33.81.09a.4.4,0,0,0,.14-.36,1,1,0,0,0-.26-.4l-.26-.26Z"/><path class="cls-12" d="M75.62,35.18a1.71,1.71,0,0,1-.53-1.32,2.47,2.47,0,0,1,2.12-2.09,1.92,1.92,0,0,1,1.84,1.87,2,2,0,0,1-.7,1.4,2.14,2.14,0,0,1-1.42.69A1.71,1.71,0,0,1,75.62,35.18Zm.64-.63a.61.61,0,0,0,.61.18,1.53,1.53,0,0,0,.74-.45,1.45,1.45,0,0,0,.44-.72.67.67,0,0,0-.18-.6.63.63,0,0,0-.6-.18,1.39,1.39,0,0,0-.72.43,1.49,1.49,0,0,0-.46.73A.61.61,0,0,0,76.26,34.55Z"/><path class="cls-12" d="M77.44,36.91l2.77-2.74.73.74-2.78,2.74Z"/><path class="cls-12" d="M79.91,39.52a1.9,1.9,0,0,1-.49-.81,1.65,1.65,0,0,1,0-1,2.24,2.24,0,0,1,.61-1,2.21,2.21,0,0,1,1-.59,1.81,1.81,0,0,1,1,0,1.84,1.84,0,0,1,.82.48,1.59,1.59,0,0,1,.38.61,2.08,2.08,0,0,1,.11.62l-.85.08a1.35,1.35,0,0,0-.07-.36.76.76,0,0,0-.18-.31.77.77,0,0,0-.64-.21,1.26,1.26,0,0,0-.77.4,1.41,1.41,0,0,0-.44.76.76.76,0,0,0,.22.64.86.86,0,0,0,.36.22,1.73,1.73,0,0,0,.38,0l-.08.84A1.63,1.63,0,0,1,79.91,39.52Z"/><path class="cls-11" d="M74.68,46l-3.17,3.25C66,44.35,60.09,38.8,54,32.53,47.77,26.1,42.27,19.87,37.46,14l3.18-3.25A192.64,192.64,0,0,1,58.4,26.9,192.83,192.83,0,0,1,74.68,46Z"/><path class="cls-12" d="M45.15,21.76,47.93,19l.81.82a2.21,2.21,0,0,1,.69,1.35,1.77,1.77,0,0,1-.66,1.43,1.85,1.85,0,0,1-1.45.67A2.11,2.11,0,0,1,46,22.62Zm1.32.15,0,0a1.13,1.13,0,0,0,.66.35c.25,0,.53-.11.86-.43a1.1,1.1,0,0,0,.43-.84,1.27,1.27,0,0,0-.35-.65l0,0Z"/><path class="cls-12" d="M47.86,24.5l2.77-2.74.73.74-2.78,2.74Z"/><path class="cls-12" d="M50.33,27.11a1.88,1.88,0,0,1-.49-.82,1.62,1.62,0,0,1,0-.95,2.13,2.13,0,0,1,.61-1,2.21,2.21,0,0,1,1-.59,1.85,1.85,0,0,1,1,0,2,2,0,0,1,.81.49,1.52,1.52,0,0,1,.38.61,2.08,2.08,0,0,1,.11.62l-.85.08a1.93,1.93,0,0,0-.06-.36.93.93,0,0,0-.19-.31.77.77,0,0,0-.64-.21,1.21,1.21,0,0,0-.76.4,1.29,1.29,0,0,0-.44.76.74.74,0,0,0,.22.64.77.77,0,0,0,.35.22,1.73,1.73,0,0,0,.38.05l-.08.83A1.61,1.61,0,0,1,50.33,27.11Z"/><path class="cls-12" d="M51.66,28.35l2.78-2.74.72.74-1,1,.81.83,1-1,.72.73-2.77,2.74-.73-.73,1.1-1.09L53.49,28l-1.11,1.09Z"/><path class="cls-12" d="M55.26,32l-.73-.73,2.78-2.74,1,1a2.67,2.67,0,0,1,.46.63,1.16,1.16,0,0,1,.12.68,1.1,1.1,0,0,1-.38.68,1.32,1.32,0,0,1-.62.37,1.34,1.34,0,0,1-.63,0l-.48,1.66L56,32.76l.46-1.4-.28-.28Zm1.51-1.49.26.26q.44.45.81.09A.37.37,0,0,0,58,30.5a.9.9,0,0,0-.26-.4l-.26-.26Z"/><path class="cls-12" d="M58.29,35.18a1.71,1.71,0,0,1-.53-1.32,2.47,2.47,0,0,1,2.12-2.09,1.71,1.71,0,0,1,1.29.57,1.73,1.73,0,0,1,.55,1.3A2.07,2.07,0,0,1,61,35a2.14,2.14,0,0,1-1.42.69A1.71,1.71,0,0,1,58.29,35.18Zm.63-.63a.63.63,0,0,0,.61.18,1.51,1.51,0,0,0,.75-.45,1.45,1.45,0,0,0,.44-.72.67.67,0,0,0-.18-.6.63.63,0,0,0-.6-.18,1.42,1.42,0,0,0-.73.43,1.46,1.46,0,0,0-.45.73A.63.63,0,0,0,58.92,34.55Z"/><path class="cls-12" d="M60.11,36.91l2.77-2.74.73.74-2.78,2.74Z"/><path class="cls-12" d="M62.57,39.52a2.13,2.13,0,0,1-.49-.81,1.74,1.74,0,0,1,0-1,2.24,2.24,0,0,1,.61-1,2.18,2.18,0,0,1,1-.59,1.89,1.89,0,0,1,1.81.49,1.59,1.59,0,0,1,.38.61,2.05,2.05,0,0,1,.1.62L65.1,38a1,1,0,0,0-.06-.36.69.69,0,0,0-.19-.31.76.76,0,0,0-.63-.21,1.23,1.23,0,0,0-.77.4,1.35,1.35,0,0,0-.44.76.73.73,0,0,0,.22.64.86.86,0,0,0,.36.22,1.73,1.73,0,0,0,.38,0l-.08.84A1.66,1.66,0,0,1,62.57,39.52Z"/><path class="cls-11" d="M57.35,46l-3.18,3.25C48.65,44.35,42.76,38.8,36.68,32.53,30.44,26.1,24.94,19.87,20.13,14l3.17-3.25A190.08,190.08,0,0,1,41.06,26.9,193.05,193.05,0,0,1,57.35,46Z"/><path class="cls-12" d="M27.82,21.76,30.59,19l.81.82a2.22,2.22,0,0,1,.7,1.35,1.79,1.79,0,0,1-.67,1.43,1.85,1.85,0,0,1-1.45.67,2.06,2.06,0,0,1-1.31-.67Zm1.31.15,0,0a1.13,1.13,0,0,0,.67.35c.24,0,.53-.11.85-.43s.47-.6.43-.84a1.2,1.2,0,0,0-.35-.65l0,0Z"/><path class="cls-12" d="M30.52,24.5l2.78-2.74.72.74-2.77,2.74Z"/><path class="cls-12" d="M33,27.11a2,2,0,0,1-.49-.82,1.7,1.7,0,0,1,0-.95,2.11,2.11,0,0,1,.6-1,2.26,2.26,0,0,1,1-.59,1.85,1.85,0,0,1,1,0,2,2,0,0,1,.82.49,1.5,1.5,0,0,1,.37.61,1.81,1.81,0,0,1,.11.62l-.85.08a1.93,1.93,0,0,0-.06-.36.79.79,0,0,0-.19-.31.76.76,0,0,0-.63-.21,1.23,1.23,0,0,0-.77.4,1.35,1.35,0,0,0-.44.76.74.74,0,0,0,.22.64.8.8,0,0,0,.36.22,1.65,1.65,0,0,0,.38.05l-.09.83A1.61,1.61,0,0,1,33,27.11Z"/><path class="cls-12" d="M34.32,28.35l2.78-2.74.72.74-1,1,.82.83,1-1,.73.73-2.78,2.74-.72-.73L37,28.83,36.15,28l-1.1,1.09Z"/><path class="cls-12" d="M37.92,32l-.72-.73L40,28.53l1,1a2.41,2.41,0,0,1,.46.63,1.06,1.06,0,0,1-.26,1.36,1.32,1.32,0,0,1-.62.37,1.34,1.34,0,0,1-.63,0l-.48,1.66-.81-.82.46-1.4-.28-.28Zm1.51-1.49.27.26c.29.3.56.33.8.09a.38.38,0,0,0,.14-.36,1,1,0,0,0-.26-.4l-.26-.26Z"/><path class="cls-12" d="M41,35.18a1.72,1.72,0,0,1-.54-1.32,2.5,2.5,0,0,1,2.12-2.09,1.92,1.92,0,0,1,1.84,1.87,2,2,0,0,1-.7,1.4,2.12,2.12,0,0,1-1.42.69A1.68,1.68,0,0,1,41,35.18Zm.63-.63a.61.61,0,0,0,.61.18,1.53,1.53,0,0,0,.74-.45,1.38,1.38,0,0,0,.44-.72.64.64,0,0,0-.18-.6.61.61,0,0,0-.59-.18,1.38,1.38,0,0,0-.73.43,1.56,1.56,0,0,0-.46.73A.63.63,0,0,0,41.59,34.55Z"/><path class="cls-12" d="M42.77,36.91l2.78-2.74.72.74-2.78,2.74Z"/><path class="cls-12" d="M45.24,39.52a1.9,1.9,0,0,1-.49-.81,1.74,1.74,0,0,1,0-1,2.49,2.49,0,0,1,1.59-1.55,1.86,1.86,0,0,1,1.8.49,1.59,1.59,0,0,1,.38.61,2.08,2.08,0,0,1,.11.62l-.85.08a1.93,1.93,0,0,0-.06-.36.93.93,0,0,0-.19-.31.76.76,0,0,0-.63-.21,1.21,1.21,0,0,0-.77.4,1.29,1.29,0,0,0-.44.76.73.73,0,0,0,.22.64.77.77,0,0,0,.35.22,1.73,1.73,0,0,0,.38,0l-.08.84A1.65,1.65,0,0,1,45.24,39.52Z"/><circle class="cls-15" cx="18.47" cy="8.85" r="2.3"/><circle class="cls-16" cx="18.86" cy="8.85" r="2.3"/><circle class="cls-17" cx="18.47" cy="50.05" r="2.3"/><circle class="cls-18" cx="18.86" cy="50.05" r="2.3"/><text class="cls-19" transform="translate(39.99 59.39)">DICHROIC FI<tspan class="cls-20" x="43.18" y="0">L</tspan><tspan x="46.36" y="0">TER SLIDER</tspan></text></svg>