<svg id="Layer_1" data-name="Layer 1" xmlns="http://www.w3.org/2000/svg" xmlns:xlink="http://www.w3.org/1999/xlink" viewBox="0 0 75.8 152.37"><defs><style>.cls-1{fill:url(#linear-gradient);}.cls-2{fill:url(#linear-gradient-2);}.cls-3{fill:url(#linear-gradient-3);}.cls-4{fill:url(#linear-gradient-4);}.cls-5{fill:url(#linear-gradient-5);}.cls-6{fill:url(#linear-gradient-6);}.cls-7{fill:#fff;}.cls-8{fill:#140000;}.cls-9{fill:url(#linear-gradient-7);}.cls-10{fill:url(#linear-gradient-8);}.cls-11{fill:url(#linear-gradient-9);}.cls-12{fill:url(#linear-gradient-10);}.cls-13{fill:url(#linear-gradient-11);}.cls-14{font-size:4.63px;fill:#b3b3b3;font-family:Mada-Black, Mada;font-weight:800;}.cls-15{letter-spacing:-0.12em;}</style><linearGradient id="linear-gradient" x1="19.5" y1="149.73" x2="55.3" y2="149.73" gradientUnits="userSpaceOnUse"><stop offset="0" stop-color="#1a1a1a"/><stop offset="0.06" stop-color="#424041"/><stop offset="0.11" stop-color="#615e5f"/><stop offset="0.16" stop-color="#747071"/><stop offset="0.19" stop-color="#7b7778"/><stop offset="0.5" stop-color="#666"/><stop offset="0.78" stop-color="#ccc"/><stop offset="1" stop-color="#1a1a1a"/></linearGradient><linearGradient id="linear-gradient-2" x1="19.5" y1="147.08" x2="55.3" y2="147.08" gradientUnits="userSpaceOnUse"><stop offset="0" stop-color="#1a1a1a"/><stop offset="0.02" stop-color="#1d1d1d"/><stop offset="0.35" stop-color="#404040"/><stop offset="0.52" stop-color="#4d4d4d"/><stop offset="0.64" stop-color="#3d3d3d"/><stop offset="0.87" stop-color="#232323"/><stop offset="1" stop-color="#1a1a1a"/></linearGradient><linearGradient id="linear-gradient-3" x1="2502.07" y1="2652.88" x2="2510.71" y2="2652.88" gradientTransform="translate(-2468.49 -2515.22)" xlink:href="#linear-gradient"/><linearGradient id="linear-gradient-4" x1="37.68" y1="130.76" x2="37.68" gradientUnits="userSpaceOnUse"><stop offset="0.06" stop-color="#1a1a1a"/><stop offset="0.51" stop-color="#4d4d4d"/><stop offset="1" stop-color="#525252"/></linearGradient><linearGradient id="linear-gradient-5" x1="79.29" y1="88.18" x2="0.32" y2="42.58" xlink:href="#linear-gradient"/><linearGradient id="linear-gradient-6" x1="-4904.81" y1="849.85" x2="-4904.81" y2="804.67" gradientTransform="matrix(-1, 0, 0, 1, -4875.13, -786.7)" gradientUnits="userSpaceOnUse"><stop offset="0.02" stop-color="#666"/><stop offset="0.02" stop-color="#6e6e6e"/><stop offset="0.05" stop-color="#999899"/><stop offset="0.07" stop-color="#b8b7b8"/><stop offset="0.09" stop-color="#cbcacb"/><stop offset="0.11" stop-color="#d2d1d2"/><stop offset="0.18" stop-color="#c5c4c5"/><stop offset="0.29" stop-color="#979696"/><stop offset="0.33" stop-color="#919090"/><stop offset="0.5" stop-color="#f2f2f2"/><stop offset="0.78" stop-color="#c9c8c8"/><stop offset="0.85" stop-color="#fff"/><stop offset="1" stop-color="#4d4d4d"/></linearGradient><linearGradient id="linear-gradient-7" x1="-4916.31" y1="849.85" x2="-4916.31" y2="804.67" xlink:href="#linear-gradient-6"/><linearGradient id="linear-gradient-8" x1="-4927.81" y1="849.85" x2="-4927.81" y2="804.67" xlink:href="#linear-gradient-6"/><linearGradient id="linear-gradient-9" x1="-4904.81" y1="899.85" x2="-4904.81" y2="854.67" xlink:href="#linear-gradient-6"/><linearGradient id="linear-gradient-10" x1="-4916.31" y1="899.85" x2="-4916.31" y2="854.67" xlink:href="#linear-gradient-6"/><linearGradient id="linear-gradient-11" x1="-4927.81" y1="899.85" x2="-4927.81" y2="854.67" xlink:href="#linear-gradient-6"/></defs><path class="cls-1" d="M20,147.08v4a121.27,121.27,0,0,0,19.23,1.32A122.1,122.1,0,0,0,55.8,151v-4a116,116,0,0,1-16.91,1.32h-.33A127.24,127.24,0,0,1,20,147.08Z"/><ellipse class="cls-2" cx="37.9" cy="147.08" rx="17.9" ry="1.63"/><path class="cls-3" d="M42.22,127.86v18.92a14.18,14.18,0,0,1-8.64,0V127.86Z"/><ellipse class="cls-4" cx="37.68" cy="65.38" rx="37.68" ry="65.38"/><ellipse class="cls-5" cx="39.81" cy="65.38" rx="36" ry="65.38"/><ellipse cx="39.59" cy="65.38" rx="30.59" ry="60.77"/><path class="cls-6" d="M31.28,18H25.52a111,111,0,0,1,2.31,21.4,111.09,111.09,0,0,1-2.31,23.78h5.76S37,40.56,31.28,18Z"/><path class="cls-7" d="M31.28,18H25.52a111,111,0,0,1,2.31,21.4,111.09,111.09,0,0,1-2.31,23.78h5.76S37,40.56,31.28,18Z"/><path class="cls-8" d="M32.47,53.62h-3.9V51.1h.87v1.49h.61V51.32h.86v1.27h.7V51h.86Z"/><path class="cls-8" d="M32.47,50.66l-2-1.06-1.9,1V49.45l.64-.27.29-.12.36-.15v0l-.36-.12-.29-.12-.64-.22V47.31l1.95,1,1.95-1.06V48.4l-.69.32-.32.13-.33.14v0l.33.13.32.13.69.29Z"/><path class="cls-8" d="M31.31,47.17h-.72V45.65h.72Z"/><path class="cls-8" d="M32.47,45h-3.9V42.42h.87v1.51h.74v-1.3H31v1.3h1.43Z"/><path class="cls-8" d="M32.47,41.74h-3.9v-1h3.9Z"/><path class="cls-8" d="M32.47,39.85h-3.9v-1h3V37.34h.86Z"/><path class="cls-8" d="M32.47,36.64h-3v1h-.87v-3.1h.87v1h3Z"/><path class="cls-8" d="M32.47,34h-3.9V31.48h.87V33h.61V31.7h.86V33h.7V31.42h.86Z"/><path class="cls-8" d="M32.47,29.64v1h-3.9V29.19a2.35,2.35,0,0,1,.12-.77,1.09,1.09,0,0,1,.38-.57,1.18,1.18,0,0,1,.76-.22,1.28,1.28,0,0,1,.7.18,1.16,1.16,0,0,1,.43.45l1.51-.84v1.15l-1.31.67v.4Zm-2.12,0v-.38c0-.41-.17-.62-.52-.62a.37.37,0,0,0-.35.16.94.94,0,0,0-.09.46v.38Z"/><path class="cls-9" d="M42.78,18H37a111,111,0,0,1,2.31,21.4A111.09,111.09,0,0,1,37,63.15h5.76S48.54,40.56,42.78,18Z"/><path class="cls-7" d="M42.78,18H37a111,111,0,0,1,2.31,21.4A111.09,111.09,0,0,1,37,63.15h5.76S48.54,40.56,42.78,18Z"/><path class="cls-8" d="M44,53.62h-3.9V51.1h.87v1.49h.61V51.32h.86v1.27h.7V51H44Z"/><path class="cls-8" d="M44,50.66,42,49.6l-1.9,1V49.45l.64-.27.29-.12.36-.15v0L41,48.76l-.29-.12-.64-.22V47.31l2,1L44,47.25V48.4l-.69.32-.32.13-.33.14v0l.33.13.32.13.69.29Z"/><path class="cls-8" d="M42.81,47.17h-.72V45.65h.72Z"/><path class="cls-8" d="M44,45h-3.9V42.42h.87v1.51h.74v-1.3h.86v1.3H44Z"/><path class="cls-8" d="M44,41.74h-3.9v-1H44Z"/><path class="cls-8" d="M44,39.85h-3.9v-1h3V37.34H44Z"/><path class="cls-8" d="M44,36.64h-3v1h-.87v-3.1h.87v1h3Z"/><path class="cls-8" d="M44,34h-3.9V31.48h.87V33h.61V31.7h.86V33h.7V31.42H44Z"/><path class="cls-8" d="M44,29.64v1h-3.9V29.19a2.35,2.35,0,0,1,.12-.77,1.09,1.09,0,0,1,.38-.57,1.18,1.18,0,0,1,.76-.22,1.28,1.28,0,0,1,.7.18,1.16,1.16,0,0,1,.43.45L44,27.42v1.15l-1.31.67v.4Zm-2.12,0v-.38c0-.41-.17-.62-.52-.62a.37.37,0,0,0-.35.16.94.94,0,0,0-.09.46v.38Z"/><path class="cls-10" d="M54.28,18H48.52a111,111,0,0,1,2.31,21.4,111.09,111.09,0,0,1-2.31,23.78h5.76S60,40.56,54.28,18Z"/><path class="cls-7" d="M54.28,18H48.52a111,111,0,0,1,2.31,21.4,111.09,111.09,0,0,1-2.31,23.78h5.76S60,40.56,54.28,18Z"/><path class="cls-8" d="M55.47,53.62h-3.9V51.1h.87v1.49h.61V51.32h.86v1.27h.7V51h.86Z"/><path class="cls-8" d="M55.47,50.66l-2-1.06-1.9,1V49.45l.64-.27.29-.12.36-.15v0l-.36-.12-.29-.12-.64-.22V47.31l2,1,1.95-1.06V48.4l-.69.32-.32.13-.33.14v0l.33.13.32.13.69.29Z"/><path class="cls-8" d="M54.31,47.17h-.72V45.65h.72Z"/><path class="cls-8" d="M55.47,45h-3.9V42.42h.87v1.51h.74v-1.3H54v1.3h1.43Z"/><path class="cls-8" d="M55.47,41.74h-3.9v-1h3.9Z"/><path class="cls-8" d="M55.47,39.85h-3.9v-1h3V37.34h.86Z"/><path class="cls-8" d="M55.47,36.64h-3v1h-.87v-3.1h.87v1h3Z"/><path class="cls-8" d="M55.47,34h-3.9V31.48h.87V33h.61V31.7h.86V33h.7V31.42h.86Z"/><path class="cls-8" d="M55.47,29.64v1h-3.9V29.19a2.35,2.35,0,0,1,.12-.77,1.09,1.09,0,0,1,.38-.57,1.18,1.18,0,0,1,.76-.22,1.28,1.28,0,0,1,.7.18,1.16,1.16,0,0,1,.43.45l1.51-.84v1.15l-1.31.67v.4Zm-2.12,0v-.38c0-.41-.17-.62-.52-.62a.37.37,0,0,0-.35.16.94.94,0,0,0-.09.46v.38Z"/><path class="cls-11" d="M31.28,68H25.52a111,111,0,0,1,2.31,21.4,111.09,111.09,0,0,1-2.31,23.78h5.76S37,90.56,31.28,68Z"/><path class="cls-7" d="M31.28,68H25.52a111,111,0,0,1,2.31,21.4,111.09,111.09,0,0,1-2.31,23.78h5.76S37,90.56,31.28,68Z"/><path class="cls-8" d="M32.47,103.62h-3.9V101.1h.87v1.49h.61v-1.27h.86v1.27h.7V101h.86Z"/><path class="cls-8" d="M32.47,100.66l-2-1.06-1.9,1V99.45l.64-.27.29-.12.36-.15v0l-.36-.12-.29-.12-.64-.22V97.31l1.95,1,1.95-1.06V98.4l-.69.32-.32.13-.33.14v0l.33.13.32.13.69.29Z"/><path class="cls-8" d="M31.31,97.17h-.72V95.65h.72Z"/><path class="cls-8" d="M32.47,95h-3.9V92.42h.87v1.51h.74v-1.3H31v1.3h1.43Z"/><path class="cls-8" d="M32.47,91.74h-3.9v-1h3.9Z"/><path class="cls-8" d="M32.47,89.85h-3.9v-1h3V87.34h.86Z"/><path class="cls-8" d="M32.47,86.64h-3v1h-.87v-3.1h.87v1h3Z"/><path class="cls-8" d="M32.47,84h-3.9V81.48h.87V83h.61V81.7h.86V83h.7V81.42h.86Z"/><path class="cls-8" d="M32.47,79.64v1h-3.9V79.19a2.35,2.35,0,0,1,.12-.77,1.09,1.09,0,0,1,.38-.57,1.18,1.18,0,0,1,.76-.22,1.28,1.28,0,0,1,.7.18,1.16,1.16,0,0,1,.43.45l1.51-.84v1.15l-1.31.67v.4Zm-2.12,0v-.38c0-.41-.17-.62-.52-.62a.37.37,0,0,0-.35.16.94.94,0,0,0-.09.46v.38Z"/><path class="cls-12" d="M42.78,68H37a111,111,0,0,1,2.31,21.4A111.09,111.09,0,0,1,37,113.15h5.76S48.54,90.56,42.78,68Z"/><path class="cls-7" d="M42.78,68H37a111,111,0,0,1,2.31,21.4A111.09,111.09,0,0,1,37,113.15h5.76S48.54,90.56,42.78,68Z"/><path class="cls-8" d="M44,103.62h-3.9V101.1h.87v1.49h.61v-1.27h.86v1.27h.7V101H44Z"/><path class="cls-8" d="M44,100.66,42,99.6l-1.9,1V99.45l.64-.27.29-.12.36-.15v0L41,98.76l-.29-.12-.64-.22V97.31l2,1L44,97.25V98.4l-.69.32-.32.13-.33.14v0l.33.13.32.13.69.29Z"/><path class="cls-8" d="M42.81,97.17h-.72V95.65h.72Z"/><path class="cls-8" d="M44,95h-3.9V92.42h.87v1.51h.74v-1.3h.86v1.3H44Z"/><path class="cls-8" d="M44,91.74h-3.9v-1H44Z"/><path class="cls-8" d="M44,89.85h-3.9v-1h3V87.34H44Z"/><path class="cls-8" d="M44,86.64h-3v1h-.87v-3.1h.87v1h3Z"/><path class="cls-8" d="M44,84h-3.9V81.48h.87V83h.61V81.7h.86V83h.7V81.42H44Z"/><path class="cls-8" d="M44,79.64v1h-3.9V79.19a2.35,2.35,0,0,1,.12-.77,1.09,1.09,0,0,1,.38-.57,1.18,1.18,0,0,1,.76-.22,1.28,1.28,0,0,1,.7.18,1.16,1.16,0,0,1,.43.45L44,77.42v1.15l-1.31.67v.4Zm-2.12,0v-.38c0-.41-.17-.62-.52-.62a.37.37,0,0,0-.35.16.94.94,0,0,0-.09.46v.38Z"/><path class="cls-13" d="M54.28,68H48.52a111,111,0,0,1,2.31,21.4,111.09,111.09,0,0,1-2.31,23.78h5.76S60,90.56,54.28,68Z"/><path class="cls-7" d="M54.28,68H48.52a111,111,0,0,1,2.31,21.4,111.09,111.09,0,0,1-2.31,23.78h5.76S60,90.56,54.28,68Z"/><path class="cls-8" d="M55.47,103.62h-3.9V101.1h.87v1.49h.61v-1.27h.86v1.27h.7V101h.86Z"/><path class="cls-8" d="M55.47,100.66l-2-1.06-1.9,1V99.45l.64-.27.29-.12.36-.15v0l-.36-.12-.29-.12-.64-.22V97.31l2,1,1.95-1.06V98.4l-.69.32-.32.13-.33.14v0l.33.13.32.13.69.29Z"/><path class="cls-8" d="M54.31,97.17h-.72V95.65h.72Z"/><path class="cls-8" d="M55.47,95h-3.9V92.42h.87v1.51h.74v-1.3H54v1.3h1.43Z"/><path class="cls-8" d="M55.47,91.74h-3.9v-1h3.9Z"/><path class="cls-8" d="M55.47,89.85h-3.9v-1h3V87.34h.86Z"/><path class="cls-8" d="M55.47,86.64h-3v1h-.87v-3.1h.87v1h3Z"/><path class="cls-8" d="M55.47,84h-3.9V81.48h.87V83h.61V81.7h.86V83h.7V81.42h.86Z"/><path class="cls-8" d="M55.47,79.64v1h-3.9V79.19a2.35,2.35,0,0,1,.12-.77,1.09,1.09,0,0,1,.38-.57,1.18,1.18,0,0,1,.76-.22,1.28,1.28,0,0,1,.7.18,1.16,1.16,0,0,1,.43.45l1.51-.84v1.15l-1.31.67v.4Zm-2.12,0v-.38c0-.41-.17-.62-.52-.62a.37.37,0,0,0-.35.16.94.94,0,0,0-.09.46v.38Z"/><text class="cls-14" transform="translate(31.99 119.66)">FI<tspan class="cls-15" x="3.94" y="0">L</tspan><tspan x="5.84" y="0">TER </tspan><tspan x="0.15" y="4">WHEEL</tspan></text></svg>