<svg id="Layer_1" data-name="Layer 1" xmlns="http://www.w3.org/2000/svg" xmlns:xlink="http://www.w3.org/1999/xlink" viewBox="0 0 75.8 170.44"><defs><style>.cls-1{fill:url(#linear-gradient);}.cls-2{fill:url(#linear-gradient-2);}.cls-3{fill:url(#linear-gradient-3);}.cls-4{fill:url(#linear-gradient-4);}.cls-5{fill:url(#linear-gradient-5);}.cls-6{fill:#fff;}.cls-7{fill:#140000;}.cls-8{font-size:8px;font-family:Mada-Black, Mada;font-weight:800;}.cls-9{letter-spacing:-0.12em;}</style><linearGradient id="linear-gradient" x1="19.5" y1="149.81" x2="55.3" y2="149.81" gradientUnits="userSpaceOnUse"><stop offset="0" stop-color="#1a1a1a"/><stop offset="0.06" stop-color="#424041"/><stop offset="0.11" stop-color="#615e5f"/><stop offset="0.16" stop-color="#747071"/><stop offset="0.19" stop-color="#7b7778"/><stop offset="0.5" stop-color="#666"/><stop offset="0.78" stop-color="#ccc"/><stop offset="1" stop-color="#1a1a1a"/></linearGradient><linearGradient id="linear-gradient-2" x1="19.5" y1="147.16" x2="55.3" y2="147.16" gradientUnits="userSpaceOnUse"><stop offset="0" stop-color="#1a1a1a"/><stop offset="0.02" stop-color="#1d1d1d"/><stop offset="0.35" stop-color="#404040"/><stop offset="0.52" stop-color="#4d4d4d"/><stop offset="0.64" stop-color="#3d3d3d"/><stop offset="0.87" stop-color="#232323"/><stop offset="1" stop-color="#1a1a1a"/></linearGradient><linearGradient id="linear-gradient-3" x1="2502.07" y1="2652.96" x2="2510.71" y2="2652.96" gradientTransform="translate(-2468.49 -2515.22)" xlink:href="#linear-gradient"/><linearGradient id="linear-gradient-4" x1="37.68" y1="130.84" x2="37.68" y2="0.08" gradientUnits="userSpaceOnUse"><stop offset="0.06" stop-color="#1a1a1a"/><stop offset="0.51" stop-color="#4d4d4d"/><stop offset="1" stop-color="#525252"/></linearGradient><linearGradient id="linear-gradient-5" x1="79.29" y1="88.26" x2="0.32" y2="42.66" xlink:href="#linear-gradient"/></defs><path class="cls-1" d="M20,147.16v4a121.27,121.27,0,0,0,19.23,1.32,122.1,122.1,0,0,0,16.57-1.32v-4a116,116,0,0,1-16.91,1.32h-.33A127.24,127.24,0,0,1,20,147.16Z"/><ellipse class="cls-2" cx="37.9" cy="147.16" rx="17.9" ry="1.63"/><path class="cls-3" d="M42.22,127.94v18.92a14.18,14.18,0,0,1-8.64,0V127.94Z"/><ellipse class="cls-4" cx="37.68" cy="65.46" rx="37.68" ry="65.38"/><ellipse class="cls-5" cx="39.81" cy="65.46" rx="36" ry="65.38"/><ellipse cx="39.59" cy="65.46" rx="30.59" ry="60.77"/><path class="cls-6" d="M61.28,61.18l-3.17,3.25C52.59,59.57,46.69,54,40.61,47.75c-6.24-6.43-11.74-12.66-16.55-18.49L27.24,26A192.64,192.64,0,0,1,45,42.12,192.83,192.83,0,0,1,61.28,61.18Z"/><path class="cls-7" d="M31.75,37l2.78-2.74.81.82A2.26,2.26,0,0,1,36,36.4a1.78,1.78,0,0,1-.66,1.44,1.87,1.87,0,0,1-1.46.67,2.08,2.08,0,0,1-1.31-.67Zm1.31.15,0,0a1.08,1.08,0,0,0,.66.35c.25,0,.53-.11.85-.43a1.08,1.08,0,0,0,.44-.84,1.22,1.22,0,0,0-.36-.65l0,0Z"/><path class="cls-7" d="M34.45,39.72,37.23,37l.73.74-2.78,2.74Z"/><path class="cls-7" d="M36.92,42.33a2,2,0,0,1-.48-.82,1.62,1.62,0,0,1,0-.95,2.19,2.19,0,0,1,.6-1A2.26,2.26,0,0,1,38,39a1.85,1.85,0,0,1,1,0,2,2,0,0,1,.82.49,1.64,1.64,0,0,1,.38.61,2.05,2.05,0,0,1,.1.62l-.85.08a1,1,0,0,0-.06-.36.69.69,0,0,0-.19-.31.76.76,0,0,0-.63-.21,1.23,1.23,0,0,0-.77.4,1.35,1.35,0,0,0-.44.76.79.79,0,0,0,.58.85,1,1,0,0,0,.38.05l-.08.84A1.61,1.61,0,0,1,36.92,42.33Z"/><path class="cls-7" d="M38.26,43.57,41,40.83l.73.74-1,1,.82.83,1-1,.72.73-2.78,2.74-.72-.73,1.1-1.09-.82-.83L39,44.31Z"/><path class="cls-7" d="M41.86,47.22l-.73-.73,2.78-2.74,1,1a2.72,2.72,0,0,1,.47.63,1.08,1.08,0,0,1-.27,1.36,1.29,1.29,0,0,1-.61.37,1.33,1.33,0,0,1-.63,0l-.49,1.66-.8-.82.45-1.4-.27-.28Zm1.51-1.49.26.26c.29.3.56.33.8.09a.38.38,0,0,0,.14-.36,1,1,0,0,0-.26-.4l-.26-.26Z"/><path class="cls-7" d="M44.89,50.4a1.72,1.72,0,0,1-.54-1.32A2.5,2.5,0,0,1,46.47,47a1.91,1.91,0,0,1,1.85,1.87A2.47,2.47,0,0,1,46.19,51,1.69,1.69,0,0,1,44.89,50.4Zm.63-.63a.62.62,0,0,0,.61.18,1.53,1.53,0,0,0,.74-.45,1.38,1.38,0,0,0,.44-.72.62.62,0,0,0-.18-.6.64.64,0,0,0-.59-.19,1.4,1.4,0,0,0-.73.44,1.46,1.46,0,0,0-.45.73A.61.61,0,0,0,45.52,49.77Z"/><path class="cls-7" d="M46.7,52.13l2.78-2.74.72.74-2.77,2.74Z"/><path class="cls-7" d="M49.17,54.74a2,2,0,0,1-.49-.81,1.74,1.74,0,0,1,0-1,2.21,2.21,0,0,1,.6-1,2.26,2.26,0,0,1,1-.59,1.85,1.85,0,0,1,1,0,2,2,0,0,1,.82.48,1.7,1.7,0,0,1,.37.61,1.81,1.81,0,0,1,.11.62l-.85.08a1.93,1.93,0,0,0-.06-.36.79.79,0,0,0-.19-.31.76.76,0,0,0-.63-.21,1.23,1.23,0,0,0-.77.4,1.35,1.35,0,0,0-.44.76.73.73,0,0,0,.22.64.8.8,0,0,0,.36.22,1.64,1.64,0,0,0,.37,0l-.08.84A1.65,1.65,0,0,1,49.17,54.74Z"/><path class="cls-6" d="M59.28,74.58l-3.17,3.25C50.59,73,44.69,67.42,38.61,61.15c-6.24-6.43-11.74-12.66-16.55-18.49l3.18-3.25A192.64,192.64,0,0,1,43,55.52,192.83,192.83,0,0,1,59.28,74.58Z"/><path class="cls-7" d="M29.75,50.38l2.78-2.74.81.82A2.26,2.26,0,0,1,34,49.81a1.77,1.77,0,0,1-.66,1.43,1.87,1.87,0,0,1-1.46.67,2.08,2.08,0,0,1-1.31-.67Zm1.31.15.05,0a1.08,1.08,0,0,0,.66.35c.25,0,.53-.11.85-.43a1.08,1.08,0,0,0,.44-.84A1.22,1.22,0,0,0,32.7,49l0,0Z"/><path class="cls-7" d="M32.45,53.12l2.78-2.74.73.74-2.78,2.74Z"/><path class="cls-7" d="M34.92,55.73a2,2,0,0,1-.48-.82,1.62,1.62,0,0,1,0-.95A2.44,2.44,0,0,1,36,52.41a1.85,1.85,0,0,1,1,0,2,2,0,0,1,.82.49,1.64,1.64,0,0,1,.38.61,2.05,2.05,0,0,1,.1.62l-.85.08a1,1,0,0,0-.06-.36.69.69,0,0,0-.19-.31.76.76,0,0,0-.63-.21,1.23,1.23,0,0,0-.77.4,1.35,1.35,0,0,0-.44.76.74.74,0,0,0,.22.64.86.86,0,0,0,.36.22,1.73,1.73,0,0,0,.38,0l-.08.83A1.61,1.61,0,0,1,34.92,55.73Z"/><path class="cls-7" d="M36.26,57,39,54.23l.73.74-1,1,.82.83,1-1,.72.73-2.78,2.74-.72-.73,1.1-1.09-.82-.83L37,57.71Z"/><path class="cls-7" d="M39.86,60.62l-.73-.73,2.78-2.74,1,1.05a2.72,2.72,0,0,1,.47.63,1.08,1.08,0,0,1-.27,1.36,1.29,1.29,0,0,1-.61.37,1.22,1.22,0,0,1-.63,0l-.49,1.66-.8-.82.45-1.4-.27-.28Zm1.51-1.49.26.26c.29.3.56.33.8.09a.38.38,0,0,0,.14-.36,1,1,0,0,0-.26-.4l-.26-.26Z"/><path class="cls-7" d="M42.89,63.8a1.72,1.72,0,0,1-.54-1.32,2.5,2.5,0,0,1,2.12-2.09,1.91,1.91,0,0,1,1.85,1.87,2.09,2.09,0,0,1-.71,1.4,2.06,2.06,0,0,1-1.42.69A1.69,1.69,0,0,1,42.89,63.8Zm.63-.63a.62.62,0,0,0,.61.18,1.53,1.53,0,0,0,.74-.45,1.38,1.38,0,0,0,.44-.72.66.66,0,0,0-.77-.78,1.38,1.38,0,0,0-.73.43,1.46,1.46,0,0,0-.45.73A.61.61,0,0,0,43.52,63.17Z"/><path class="cls-7" d="M44.7,65.53l2.78-2.74.72.74-2.77,2.74Z"/><path class="cls-7" d="M47.17,68.14a2,2,0,0,1-.49-.81,1.74,1.74,0,0,1,0-1,2.21,2.21,0,0,1,.6-1,2.26,2.26,0,0,1,1-.59,1.85,1.85,0,0,1,1,0,2,2,0,0,1,.82.48,1.7,1.7,0,0,1,.37.61,1.81,1.81,0,0,1,.11.62l-.85.08a1.93,1.93,0,0,0-.06-.36.79.79,0,0,0-.19-.31.76.76,0,0,0-.63-.21,1.23,1.23,0,0,0-.77.4,1.35,1.35,0,0,0-.44.76.73.73,0,0,0,.22.64.8.8,0,0,0,.36.22,1.64,1.64,0,0,0,.37,0l-.08.84A1.65,1.65,0,0,1,47.17,68.14Z"/><path class="cls-6" d="M57.28,88l-3.17,3.25c-5.52-4.86-11.42-10.41-17.5-16.68-6.24-6.43-11.74-12.66-16.55-18.49l3.18-3.25A192.64,192.64,0,0,1,41,68.92,192.83,192.83,0,0,1,57.28,88Z"/><path class="cls-7" d="M27.75,63.78,30.53,61l.81.82A2.26,2.26,0,0,1,32,63.21a1.77,1.77,0,0,1-.66,1.43,1.87,1.87,0,0,1-1.46.67,2.08,2.08,0,0,1-1.31-.67Zm1.31.15.05,0a1.08,1.08,0,0,0,.66.35c.25,0,.53-.11.85-.43a1.08,1.08,0,0,0,.44-.84,1.22,1.22,0,0,0-.36-.65l0,0Z"/><path class="cls-7" d="M30.45,66.52l2.78-2.74.73.74-2.78,2.74Z"/><path class="cls-7" d="M32.92,69.13a2,2,0,0,1-.48-.82,1.62,1.62,0,0,1,0-1,2.19,2.19,0,0,1,.6-1,2.26,2.26,0,0,1,1-.59,1.85,1.85,0,0,1,1,0,2,2,0,0,1,.82.49,1.64,1.64,0,0,1,.38.61,2.05,2.05,0,0,1,.1.62l-.85.08a1,1,0,0,0-.06-.36.69.69,0,0,0-.19-.31.76.76,0,0,0-.63-.21,1.23,1.23,0,0,0-.77.4,1.35,1.35,0,0,0-.44.76.74.74,0,0,0,.22.64.86.86,0,0,0,.36.22,1.73,1.73,0,0,0,.38,0l-.08.83A1.61,1.61,0,0,1,32.92,69.13Z"/><path class="cls-7" d="M34.26,70.37,37,67.63l.73.74-1,1,.82.83,1-1,.72.73-2.78,2.74-.72-.73,1.1-1.09L36.08,70,35,71.11Z"/><path class="cls-7" d="M37.86,74l-.73-.73,2.78-2.74,1,1a2.72,2.72,0,0,1,.47.63,1.08,1.08,0,0,1-.27,1.36,1.29,1.29,0,0,1-.61.37,1.33,1.33,0,0,1-.63,0l-.49,1.66-.8-.82.45-1.4-.27-.28Zm1.51-1.49.26.26c.29.3.56.33.8.09a.38.38,0,0,0,.14-.36,1,1,0,0,0-.26-.4l-.26-.26Z"/><path class="cls-7" d="M40.89,77.2a1.72,1.72,0,0,1-.54-1.32,2.5,2.5,0,0,1,2.12-2.09,1.91,1.91,0,0,1,1.85,1.87,2.47,2.47,0,0,1-2.13,2.09A1.69,1.69,0,0,1,40.89,77.2Zm.63-.63a.62.62,0,0,0,.61.18,1.53,1.53,0,0,0,.74-.45,1.38,1.38,0,0,0,.44-.72.66.66,0,0,0-.77-.78,1.38,1.38,0,0,0-.73.43,1.46,1.46,0,0,0-.45.73A.61.61,0,0,0,41.52,76.57Z"/><path class="cls-7" d="M42.7,78.93l2.78-2.74.72.74-2.77,2.74Z"/><path class="cls-7" d="M45.17,81.54a2,2,0,0,1-.49-.81,1.74,1.74,0,0,1,0-1,2.21,2.21,0,0,1,.6-1,2.26,2.26,0,0,1,1-.59,1.85,1.85,0,0,1,1,0,2,2,0,0,1,.82.48,1.7,1.7,0,0,1,.37.61,1.81,1.81,0,0,1,.11.62L47.7,80a1.93,1.93,0,0,0-.06-.36.79.79,0,0,0-.19-.31.76.76,0,0,0-.63-.21,1.23,1.23,0,0,0-.77.4,1.35,1.35,0,0,0-.44.76.73.73,0,0,0,.22.64.8.8,0,0,0,.36.22,1.64,1.64,0,0,0,.37,0l-.08.84A1.65,1.65,0,0,1,45.17,81.54Z"/><path class="cls-6" d="M55.28,101.38l-3.17,3.25C46.59,99.77,40.69,94.22,34.61,88c-6.24-6.43-11.74-12.66-16.55-18.49l3.18-3.25A192.64,192.64,0,0,1,39,82.32,192.83,192.83,0,0,1,55.28,101.38Z"/><path class="cls-7" d="M25.75,77.18l2.78-2.74.81.82A2.26,2.26,0,0,1,30,76.61,1.77,1.77,0,0,1,29.37,78a1.87,1.87,0,0,1-1.46.67A2.08,2.08,0,0,1,26.6,78Zm1.31.15.05,0a1.08,1.08,0,0,0,.66.35c.25,0,.53-.11.85-.43a1.08,1.08,0,0,0,.44-.84,1.22,1.22,0,0,0-.36-.65l0,0Z"/><path class="cls-7" d="M28.45,79.92l2.78-2.74.73.74-2.78,2.74Z"/><path class="cls-7" d="M30.92,82.53a2,2,0,0,1-.48-.82,1.62,1.62,0,0,1,0-.95,2.19,2.19,0,0,1,.6-1,2.26,2.26,0,0,1,1-.59,1.85,1.85,0,0,1,1,0,2,2,0,0,1,.82.49,1.64,1.64,0,0,1,.38.61,2.05,2.05,0,0,1,.1.62l-.85.08a1,1,0,0,0-.06-.36.69.69,0,0,0-.19-.31.76.76,0,0,0-.63-.21,1.23,1.23,0,0,0-.77.4,1.35,1.35,0,0,0-.44.76.74.74,0,0,0,.22.64.86.86,0,0,0,.36.22,1.26,1.26,0,0,0,.38,0l-.08.84A1.61,1.61,0,0,1,30.92,82.53Z"/><path class="cls-7" d="M32.26,83.77,35,81l.73.74-1,1,.82.83,1-1,.72.73-2.78,2.74-.72-.73,1.1-1.09-.82-.83L33,84.51Z"/><path class="cls-7" d="M35.86,87.42l-.73-.73L37.91,84l1,1a2.72,2.72,0,0,1,.47.63A1.08,1.08,0,0,1,39.14,87a1.29,1.29,0,0,1-.61.37,1.33,1.33,0,0,1-.63,0L37.41,89l-.8-.82.45-1.4-.27-.28Zm1.51-1.49.26.26c.29.3.56.33.8.09a.38.38,0,0,0,.14-.36,1,1,0,0,0-.26-.4l-.26-.26Z"/><path class="cls-7" d="M38.89,90.6a1.72,1.72,0,0,1-.54-1.32,2.5,2.5,0,0,1,2.12-2.09,1.91,1.91,0,0,1,1.85,1.87,2.47,2.47,0,0,1-2.13,2.09A1.69,1.69,0,0,1,38.89,90.6Zm.63-.63a.62.62,0,0,0,.61.18,1.53,1.53,0,0,0,.74-.45,1.38,1.38,0,0,0,.44-.72.62.62,0,0,0-.18-.6.64.64,0,0,0-.59-.19,1.4,1.4,0,0,0-.73.44,1.46,1.46,0,0,0-.45.73A.61.61,0,0,0,39.52,90Z"/><path class="cls-7" d="M40.7,92.33l2.78-2.74.72.74-2.77,2.74Z"/><path class="cls-7" d="M43.17,94.94a2,2,0,0,1-.49-.81,1.74,1.74,0,0,1,0-1,2.21,2.21,0,0,1,.6-1,2.26,2.26,0,0,1,1-.59,1.85,1.85,0,0,1,1,0,2,2,0,0,1,.82.48,1.7,1.7,0,0,1,.37.61,1.81,1.81,0,0,1,.11.62l-.85.08a1.93,1.93,0,0,0-.06-.36.79.79,0,0,0-.19-.31.76.76,0,0,0-.63-.21,1.23,1.23,0,0,0-.77.4,1.35,1.35,0,0,0-.44.76.73.73,0,0,0,.22.64.8.8,0,0,0,.36.22,1.64,1.64,0,0,0,.37,0l-.08.84A1.65,1.65,0,0,1,43.17,94.94Z"/><path class="cls-6" d="M53.28,114.78,50.11,118c-5.52-4.86-11.42-10.41-17.5-16.68-6.24-6.43-11.74-12.66-16.55-18.49l3.18-3.25A192.64,192.64,0,0,1,37,95.72,192.83,192.83,0,0,1,53.28,114.78Z"/><path class="cls-7" d="M23.75,90.58l2.78-2.74.81.82A2.26,2.26,0,0,1,28,90a1.77,1.77,0,0,1-.66,1.43,1.87,1.87,0,0,1-1.46.67,2.08,2.08,0,0,1-1.31-.67Zm1.31.15.05,0a1.08,1.08,0,0,0,.66.35c.25,0,.53-.11.85-.43s.47-.6.44-.83a1.21,1.21,0,0,0-.36-.66l0,0Z"/><path class="cls-7" d="M26.45,93.32l2.78-2.74.73.74-2.78,2.74Z"/><path class="cls-7" d="M28.92,95.93a2,2,0,0,1-.48-.82,1.62,1.62,0,0,1,0-1A2.44,2.44,0,0,1,30,92.61a1.85,1.85,0,0,1,1,0,2,2,0,0,1,.82.49,1.64,1.64,0,0,1,.38.61,2.05,2.05,0,0,1,.1.62l-.85.08a1,1,0,0,0-.06-.36.69.69,0,0,0-.19-.31.76.76,0,0,0-.63-.21,1.23,1.23,0,0,0-.77.4,1.35,1.35,0,0,0-.44.76.73.73,0,0,0,.22.64.86.86,0,0,0,.36.22,1.73,1.73,0,0,0,.38,0l-.08.84A1.66,1.66,0,0,1,28.92,95.93Z"/><path class="cls-7" d="M30.26,97.17,33,94.44l.73.73-1,1,.82.83,1-1,.72.73-2.78,2.74-.72-.73,1.1-1.09-.82-.83L31,97.91Z"/><path class="cls-7" d="M33.86,100.82l-.73-.73,2.78-2.74,1,1.05a2.72,2.72,0,0,1,.47.63,1.08,1.08,0,0,1-.27,1.36,1.29,1.29,0,0,1-.61.37,1.22,1.22,0,0,1-.63,0l-.49,1.66-.8-.82.45-1.4-.27-.28Zm1.51-1.49.26.26c.29.3.56.33.8.09a.38.38,0,0,0,.14-.36,1,1,0,0,0-.26-.4l-.26-.26Z"/><path class="cls-7" d="M36.89,104a1.72,1.72,0,0,1-.54-1.31,2.08,2.08,0,0,1,.72-1.41,2.06,2.06,0,0,1,1.4-.69,1.71,1.71,0,0,1,1.3.57,1.74,1.74,0,0,1,.55,1.3,2.09,2.09,0,0,1-.71,1.4,2.06,2.06,0,0,1-1.42.69A1.69,1.69,0,0,1,36.89,104Zm.63-.63a.62.62,0,0,0,.61.18,1.53,1.53,0,0,0,.74-.45,1.38,1.38,0,0,0,.44-.72.66.66,0,0,0-.77-.78,1.38,1.38,0,0,0-.73.43,1.46,1.46,0,0,0-.45.73A.61.61,0,0,0,37.52,103.37Z"/><path class="cls-7" d="M38.7,105.73,41.48,103l.72.74-2.77,2.74Z"/><path class="cls-7" d="M41.17,108.34a2,2,0,0,1-.49-.81,1.74,1.74,0,0,1,0-1,2.21,2.21,0,0,1,.6-1,2.26,2.26,0,0,1,1-.59,1.85,1.85,0,0,1,1,0,2,2,0,0,1,.82.48,1.7,1.7,0,0,1,.37.61,1.81,1.81,0,0,1,.11.62l-.85.08a1.93,1.93,0,0,0-.06-.36.79.79,0,0,0-.19-.31.76.76,0,0,0-.63-.21,1.23,1.23,0,0,0-.77.4,1.35,1.35,0,0,0-.44.76.73.73,0,0,0,.22.64.8.8,0,0,0,.36.22,1.64,1.64,0,0,0,.37.05l-.08.84A1.65,1.65,0,0,1,41.17,108.34Z"/><path class="cls-6" d="M63.28,47.78,60.11,51c-5.52-4.86-11.42-10.41-17.5-16.68-6.24-6.43-11.74-12.66-16.55-18.49l3.18-3.25A192.64,192.64,0,0,1,47,28.72,192.83,192.83,0,0,1,63.28,47.78Z"/><path class="cls-7" d="M33.75,23.58l2.78-2.74.81.82A2.26,2.26,0,0,1,38,23a1.77,1.77,0,0,1-.66,1.43,1.87,1.87,0,0,1-1.46.67,2.08,2.08,0,0,1-1.31-.67Zm1.31.15,0,0a1.08,1.08,0,0,0,.66.35c.25,0,.53-.11.85-.43s.47-.6.44-.83a1.21,1.21,0,0,0-.36-.66l0,0Z"/><path class="cls-7" d="M36.45,26.32l2.78-2.74.73.74-2.78,2.74Z"/><path class="cls-7" d="M38.92,28.93a2,2,0,0,1-.48-.82,1.62,1.62,0,0,1,0-.95A2.44,2.44,0,0,1,40,25.61a1.85,1.85,0,0,1,1,0,2,2,0,0,1,.82.49,1.64,1.64,0,0,1,.38.61,2.05,2.05,0,0,1,.1.62l-.85.08a1,1,0,0,0-.06-.36.69.69,0,0,0-.19-.31.76.76,0,0,0-.63-.21,1.23,1.23,0,0,0-.77.4,1.35,1.35,0,0,0-.44.76.73.73,0,0,0,.22.64.86.86,0,0,0,.36.22,1.73,1.73,0,0,0,.38.05l-.08.84A1.66,1.66,0,0,1,38.92,28.93Z"/><path class="cls-7" d="M40.26,30.17,43,27.44l.73.73-1,1,.82.83,1-1,.72.73-2.78,2.74-.72-.73,1.1-1.09-.82-.83L41,30.91Z"/><path class="cls-7" d="M43.86,33.82l-.73-.73,2.78-2.74,1,1a2.72,2.72,0,0,1,.47.63,1.08,1.08,0,0,1-.27,1.36,1.29,1.29,0,0,1-.61.37,1.22,1.22,0,0,1-.63,0l-.49,1.66-.8-.82.45-1.4-.27-.28Zm1.51-1.49.26.26c.29.3.56.33.8.09a.38.38,0,0,0,.14-.36,1,1,0,0,0-.26-.4l-.26-.26Z"/><path class="cls-7" d="M46.89,37a1.72,1.72,0,0,1-.54-1.31,2.08,2.08,0,0,1,.72-1.41,2.06,2.06,0,0,1,1.4-.69,1.71,1.71,0,0,1,1.3.57,1.74,1.74,0,0,1,.55,1.3,2.09,2.09,0,0,1-.71,1.4,2.06,2.06,0,0,1-1.42.69A1.69,1.69,0,0,1,46.89,37Zm.63-.63a.62.62,0,0,0,.61.18,1.53,1.53,0,0,0,.74-.45,1.38,1.38,0,0,0,.44-.72.66.66,0,0,0-.77-.78,1.38,1.38,0,0,0-.73.43,1.46,1.46,0,0,0-.45.73A.61.61,0,0,0,47.52,36.37Z"/><path class="cls-7" d="M48.7,38.73,51.48,36l.72.74-2.77,2.74Z"/><path class="cls-7" d="M51.17,41.34a2,2,0,0,1-.49-.81,1.74,1.74,0,0,1,0-1,2.21,2.21,0,0,1,.6-1,2.26,2.26,0,0,1,1-.59,1.85,1.85,0,0,1,1,0,2,2,0,0,1,.82.48,1.7,1.7,0,0,1,.37.61,1.81,1.81,0,0,1,.11.62l-.85.08a1.93,1.93,0,0,0-.06-.36.79.79,0,0,0-.19-.31.76.76,0,0,0-.63-.21,1.23,1.23,0,0,0-.77.4,1.35,1.35,0,0,0-.44.76.73.73,0,0,0,.22.64.8.8,0,0,0,.36.22,1.64,1.64,0,0,0,.37,0l-.08.84A1.65,1.65,0,0,1,51.17,41.34Z"/><text class="cls-8" transform="translate(19.9 162.66)">DICHROIC <tspan x="-6.84" y="7.5">FI</tspan><tspan class="cls-9" x="-0.02" y="7.5">L</tspan><tspan x="3.26" y="7.5">TER WHEEL</tspan></text></svg>