<svg xmlns="http://www.w3.org/2000/svg" xmlns:xlink="http://www.w3.org/1999/xlink" viewBox="0 0 510.17 131.26"><defs><style>.cls-1{isolation:isolate;}.cls-10,.cls-11,.cls-12,.cls-13,.cls-14,.cls-15,.cls-16,.cls-17,.cls-18,.cls-19,.cls-2,.cls-20,.cls-21,.cls-22,.cls-23,.cls-24,.cls-25,.cls-26,.cls-3,.cls-31,.cls-32,.cls-4,.cls-5,.cls-6{stroke-linejoin:round;}.cls-10,.cls-11,.cls-12,.cls-13,.cls-14,.cls-15,.cls-16,.cls-17,.cls-18,.cls-19,.cls-2,.cls-20,.cls-21,.cls-22,.cls-23,.cls-24,.cls-25,.cls-26,.cls-28,.cls-3,.cls-31,.cls-4,.cls-5,.cls-6{stroke-width:0.38px;}.cls-2{fill:url(#linear-gradient);stroke:url(#linear-gradient-2);}.cls-3{fill:url(#linear-gradient-3);stroke:url(#linear-gradient-4);}.cls-4{fill:url(#linear-gradient-5);stroke:url(#linear-gradient-6);}.cls-5{fill:url(#linear-gradient-7);stroke:url(#linear-gradient-8);}.cls-6{fill:url(#linear-gradient-9);stroke:url(#linear-gradient-10);}.cls-7{fill:url(#linear-gradient-11);}.cls-8{fill:url(#linear-gradient-12);}.cls-9{fill:url(#linear-gradient-13);}.cls-10{fill:url(#linear-gradient-14);stroke:url(#linear-gradient-15);}.cls-11{fill:url(#linear-gradient-16);stroke:url(#linear-gradient-17);}.cls-12{fill:url(#linear-gradient-18);stroke:url(#linear-gradient-19);}.cls-13{fill:url(#linear-gradient-20);stroke:url(#linear-gradient-21);}.cls-14{fill:url(#linear-gradient-22);stroke:url(#linear-gradient-23);}.cls-15{fill:url(#linear-gradient-24);stroke:url(#linear-gradient-25);}.cls-16{fill:url(#linear-gradient-26);stroke:url(#linear-gradient-27);}.cls-17{fill:url(#linear-gradient-28);stroke:url(#linear-gradient-29);}.cls-18{fill:url(#linear-gradient-30);stroke:url(#linear-gradient-31);}.cls-19{fill:url(#linear-gradient-32);stroke:url(#linear-gradient-33);}.cls-20{fill:url(#linear-gradient-34);stroke:url(#linear-gradient-35);}.cls-21{fill:url(#linear-gradient-36);stroke:url(#linear-gradient-37);}.cls-22{fill:url(#linear-gradient-38);stroke:url(#linear-gradient-39);}.cls-23{fill:url(#linear-gradient-40);stroke:url(#linear-gradient-41);}.cls-24{fill:url(#linear-gradient-42);stroke:url(#linear-gradient-43);}.cls-25{fill:url(#linear-gradient-44);stroke:url(#linear-gradient-45);}.cls-26{fill:url(#linear-gradient-46);stroke:url(#linear-gradient-47);}.cls-27{fill:#fff;}.cls-28,.cls-29,.cls-31,.cls-32,.cls-33,.cls-34{fill:none;}.cls-28,.cls-29,.cls-31{stroke:#fff;}.cls-28,.cls-29{stroke-miterlimit:10;}.cls-29{stroke-width:0.5px;}.cls-30,.cls-32,.cls-33{mix-blend-mode:lighten;}.cls-32,.cls-33{stroke:#ccc;stroke-width:0.36px;}.cls-33{stroke-linejoin:bevel;}.cls-34{mix-blend-mode:multiply;}</style><linearGradient id="linear-gradient" x1="0.96" y1="65.26" x2="13.78" y2="65.26" gradientUnits="userSpaceOnUse"><stop offset="0" stop-color="#1a1a1a"/><stop offset="0.22" stop-color="#333"/><stop offset="0.6" stop-color="#4d4d4d"/><stop offset="0.85" stop-color="#333"/><stop offset="0.91" stop-color="#2c2c2c"/><stop offset="1" stop-color="#1a1a1a"/></linearGradient><linearGradient id="linear-gradient-2" x1="0.77" y1="65.26" x2="13.97" y2="65.26" gradientUnits="userSpaceOnUse"><stop offset="0" stop-color="#1a1a1a"/><stop offset="0.09" stop-color="#2c2c2c"/><stop offset="0.15" stop-color="#333"/><stop offset="0.4" stop-color="#4d4d4d"/><stop offset="0.78" stop-color="#333"/><stop offset="1" stop-color="#1a1a1a"/></linearGradient><linearGradient id="linear-gradient-3" x1="-2307.94" y1="39.79" x2="-2304.44" y2="39.79" gradientTransform="matrix(0, 1, 1, 0, -37.88, 2345.98)" xlink:href="#linear-gradient-2"/><linearGradient id="linear-gradient-4" x1="-2308.12" y1="39.79" x2="-2304.25" y2="39.79" gradientTransform="matrix(0, 1, 1, 0, -37.88, 2345.98)" xlink:href="#linear-gradient-2"/><linearGradient id="linear-gradient-5" x1="-390.93" y1="2293.61" x2="-387.43" y2="2293.61" gradientTransform="matrix(0, 1, 1, 0, -2291.69, 479.8)" xlink:href="#linear-gradient-2"/><linearGradient id="linear-gradient-6" x1="-391.12" y1="2293.61" x2="-387.24" y2="2293.61" gradientTransform="matrix(0, 1, 1, 0, -2291.69, 479.8)" xlink:href="#linear-gradient-2"/><linearGradient id="linear-gradient-7" x1="-2800.94" y1="64.6" x2="-2792.12" y2="64.6" gradientTransform="matrix(0, 1, 1, 0, 427.66, 2861.14)" xlink:href="#linear-gradient-2"/><linearGradient id="linear-gradient-8" x1="-2801.13" y1="64.6" x2="-2791.94" y2="64.6" gradientTransform="matrix(0, 1, 1, 0, 427.66, 2861.14)" xlink:href="#linear-gradient-2"/><linearGradient id="linear-gradient-9" x1="-2324.77" y1="66.03" x2="-2315.95" y2="66.03" gradientTransform="matrix(0, 1, 1, 0, -49.94, 2386.38)" xlink:href="#linear-gradient-2"/><linearGradient id="linear-gradient-10" x1="-2324.95" y1="66.03" x2="-2315.76" y2="66.03" gradientTransform="matrix(0, 1, 1, 0, -49.94, 2386.38)" xlink:href="#linear-gradient-2"/><linearGradient id="linear-gradient-11" x1="-2792.43" y1="65.1" x2="-2323.22" y2="65.1" gradientTransform="matrix(1, 0, 0, -1, 2811.38, 130.2)" gradientUnits="userSpaceOnUse"><stop offset="0" stop-color="#4d4d4d"/><stop offset="0.54" stop-color="#222"/><stop offset="0.65" stop-color="#2c2c2c"/><stop offset="0.78" stop-color="#333"/><stop offset="0.93" stop-color="#454545"/><stop offset="1" stop-color="#1a1a1a"/></linearGradient><linearGradient id="linear-gradient-12" x1="-2557.68" y1="120.45" x2="-2557.68" y2="9.75" gradientTransform="matrix(1, 0, 0, -1, 2811.09, 130.2)" gradientUnits="userSpaceOnUse"><stop offset="0.06" stop-color="#1a1a1a"/><stop offset="0.29" stop-color="#353535"/><stop offset="0.51" stop-color="#4d4d4d"/><stop offset="0.87" stop-color="#1a1a1a"/></linearGradient><linearGradient id="linear-gradient-13" x1="-2420.74" y1="195.7" x2="-2683.43" y2="-66.99" gradientTransform="matrix(1, 0, 0, -1, 2804, 128.71)" gradientUnits="userSpaceOnUse"><stop offset="0" stop-color="#393939"/><stop offset="0.47" stop-color="#181818"/><stop offset="0.87"/></linearGradient><linearGradient id="linear-gradient-14" x1="1533.95" y1="1688.69" x2="1565.23" y2="1688.69" gradientTransform="matrix(1, 0, 0, -1, -1485.27, 1693.66)" xlink:href="#linear-gradient-2"/><linearGradient id="linear-gradient-15" x1="1533.77" y1="1688.69" x2="1565.42" y2="1688.69" gradientTransform="matrix(1, 0, 0, -1, -1485.27, 1693.66)" xlink:href="#linear-gradient-2"/><linearGradient id="linear-gradient-16" x1="1721.16" y1="1691.39" x2="1732.56" y2="1691.39" gradientTransform="matrix(1, 0, 0, -1, -1486.33, 1695.44)" xlink:href="#linear-gradient-2"/><linearGradient id="linear-gradient-17" x1="1720.97" y1="1691.39" x2="1732.75" y2="1691.39" gradientTransform="matrix(1, 0, 0, -1, -1486.33, 1695.44)" xlink:href="#linear-gradient-2"/><linearGradient id="linear-gradient-18" x1="1735.92" y1="1691.39" x2="1747.33" y2="1691.39" gradientTransform="matrix(1, 0, 0, -1, -1486.33, 1695.44)" xlink:href="#linear-gradient-2"/><linearGradient id="linear-gradient-19" x1="1735.74" y1="1691.39" x2="1747.51" y2="1691.39" gradientTransform="matrix(1, 0, 0, -1, -1486.33, 1695.44)" xlink:href="#linear-gradient-2"/><linearGradient id="linear-gradient-20" x1="1749.9" y1="1691.39" x2="1761.3" y2="1691.39" gradientTransform="matrix(1, 0, 0, -1, -1486.33, 1695.44)" xlink:href="#linear-gradient-2"/><linearGradient id="linear-gradient-21" x1="1749.71" y1="1691.39" x2="1761.49" y2="1691.39" gradientTransform="matrix(1, 0, 0, -1, -1486.33, 1695.44)" xlink:href="#linear-gradient-2"/><linearGradient id="linear-gradient-22" x1="1513.33" y1="1789.98" x2="1524.73" y2="1789.98" gradientTransform="matrix(1, 0.01, 0.01, -0.9, -1490.25, 1608.46)" xlink:href="#linear-gradient-2"/><linearGradient id="linear-gradient-23" x1="1513.14" y1="1789.98" x2="1524.91" y2="1789.98" gradientTransform="matrix(1, 0.01, 0.01, -0.9, -1490.25, 1608.46)" xlink:href="#linear-gradient-2"/><linearGradient id="linear-gradient-24" x1="1722.24" y1="90.53" x2="1733.64" y2="90.53" gradientTransform="translate(-1485.27 33.57)" xlink:href="#linear-gradient-2"/><linearGradient id="linear-gradient-25" x1="1722.06" y1="90.53" x2="1733.83" y2="90.53" gradientTransform="translate(-1485.27 33.57)" xlink:href="#linear-gradient-2"/><linearGradient id="linear-gradient-26" x1="1737.01" y1="90.53" x2="1748.41" y2="90.53" gradientTransform="translate(-1485.27 33.57)" xlink:href="#linear-gradient-2"/><linearGradient id="linear-gradient-27" x1="1736.82" y1="90.53" x2="1748.6" y2="90.53" gradientTransform="translate(-1485.27 33.57)" xlink:href="#linear-gradient-2"/><linearGradient id="linear-gradient-28" x1="1750.99" y1="90.53" x2="1762.39" y2="90.53" gradientTransform="translate(-1485.27 33.57)" xlink:href="#linear-gradient-2"/><linearGradient id="linear-gradient-29" x1="1750.8" y1="90.53" x2="1762.58" y2="90.53" gradientTransform="translate(-1485.27 33.57)" xlink:href="#linear-gradient-2"/><linearGradient id="linear-gradient-30" x1="1522.79" y1="52.45" x2="1534.19" y2="52.45" gradientTransform="matrix(1, -0.01, 0.01, 0.93, -1490.44, 84.89)" xlink:href="#linear-gradient-2"/><linearGradient id="linear-gradient-31" x1="1522.6" y1="52.45" x2="1534.38" y2="52.45" gradientTransform="matrix(1, -0.01, 0.01, 0.93, -1490.44, 84.89)" xlink:href="#linear-gradient-2"/><linearGradient id="linear-gradient-32" x1="1533.95" y1="151.49" x2="1565.23" y2="151.49" gradientTransform="translate(-1485.27 -25.93)" xlink:href="#linear-gradient-2"/><linearGradient id="linear-gradient-33" x1="1533.77" y1="151.49" x2="1565.42" y2="151.49" gradientTransform="translate(-1485.27 -25.93)" xlink:href="#linear-gradient-2"/><linearGradient id="linear-gradient-34" x1="1911.82" y1="1688.25" x2="1943.1" y2="1688.25" gradientTransform="matrix(1, 0, 0, -1, -1485.27, 1693.66)" xlink:href="#linear-gradient-2"/><linearGradient id="linear-gradient-35" x1="1911.63" y1="1688.25" x2="1943.29" y2="1688.25" gradientTransform="matrix(1, 0, 0, -1, -1485.27, 1693.66)" xlink:href="#linear-gradient-2"/><linearGradient id="linear-gradient-36" x1="1911.82" y1="150.91" x2="1943.1" y2="150.91" gradientTransform="translate(-1485.27 -25.93)" xlink:href="#linear-gradient-2"/><linearGradient id="linear-gradient-37" x1="1911.63" y1="150.91" x2="1943.29" y2="150.91" gradientTransform="translate(-1485.27 -25.93)" xlink:href="#linear-gradient-2"/><linearGradient id="linear-gradient-38" x1="1942.56" y1="1792.63" x2="1953.96" y2="1792.63" gradientTransform="matrix(1, 0.01, 0.01, -0.9, -1490.25, 1608.46)" xlink:href="#linear-gradient-2"/><linearGradient id="linear-gradient-39" x1="1942.37" y1="1792.63" x2="1954.15" y2="1792.63" gradientTransform="matrix(1, 0.01, 0.01, -0.9, -1490.25, 1608.46)" xlink:href="#linear-gradient-2"/><linearGradient id="linear-gradient-40" x1="1952.03" y1="55.22" x2="1963.43" y2="55.22" gradientTransform="matrix(1, -0.01, 0.01, 0.93, -1490.44, 84.89)" xlink:href="#linear-gradient-2"/><linearGradient id="linear-gradient-41" x1="1951.84" y1="55.22" x2="1963.62" y2="55.22" gradientTransform="matrix(1, -0.01, 0.01, 0.93, -1490.44, 84.89)" xlink:href="#linear-gradient-2"/><linearGradient id="linear-gradient-42" x1="-3755.04" y1="1760.17" x2="-3742.22" y2="1760.17" gradientTransform="translate(-3246.41 1825.64) rotate(180)" xlink:href="#linear-gradient"/><linearGradient id="linear-gradient-43" x1="-3755.23" y1="1760.17" x2="-3742.03" y2="1760.17" gradientTransform="translate(-3246.41 1825.64) rotate(180)" xlink:href="#linear-gradient-2"/><linearGradient id="linear-gradient-44" x1="-2814.23" y1="39.59" x2="-2810.73" y2="39.59" gradientTransform="matrix(0, 1, 1, 0, 468.62, 2852.08)" xlink:href="#linear-gradient-2"/><linearGradient id="linear-gradient-45" x1="-2814.42" y1="39.59" x2="-2810.55" y2="39.59" gradientTransform="matrix(0, 1, 1, 0, 468.62, 2852.08)" xlink:href="#linear-gradient-2"/><linearGradient id="linear-gradient-46" x1="115.37" y1="2293.81" x2="118.87" y2="2293.81" gradientTransform="matrix(0, 1, 1, 0, -1785.59, -26.7)" xlink:href="#linear-gradient-2"/><linearGradient id="linear-gradient-47" x1="115.18" y1="2293.81" x2="119.05" y2="2293.81" gradientTransform="matrix(0, 1, 1, 0, -1785.59, -26.7)" xlink:href="#linear-gradient-2"/></defs><g class="cls-1"><g id="Layer_1" data-name="Layer 1"><path class="cls-2" d="M2,26.17V25.8c0-.9-.2-1.64-.44-1.64H1.4c-.24,0-.44.74-.44,1.64V52.39h.33V54.8h1V75.35h-1v2.41H1v27c0,.9.2,1.63.44,1.63h.2c.24,0,.44-.73.44-1.63v-.37l11.74.42V26.28Z"/><path class="cls-3" d="M-12.71,38H17.55a0,0,0,0,1,0,0v3.5a0,0,0,0,1,0,0H-12.71a1,1,0,0,1-1-1V39a1,1,0,0,1,1-1Z" transform="translate(41.71 37.88) rotate(90)"/><path class="cls-4" d="M-12.78,88.87h30.4a0,0,0,0,1,0,0v3.5a0,0,0,0,1,0,0h-30.4a1,1,0,0,1-1-1v-1.5a1,1,0,0,1,1-1Z" transform="translate(-88.7 92.53) rotate(-90)"/><rect class="cls-5" x="436.34" y="60.2" width="111.84" height="8.82" rx="1.94" transform="translate(556.87 -427.66) rotate(90)"/><rect class="cls-6" x="-39.83" y="61.62" width="111.84" height="8.82" rx="1.94" transform="translate(82.11 49.94) rotate(90)"/><rect class="cls-7" x="18.95" y="4.57" width="469.21" height="121.07" rx="6" transform="translate(507.11 130.2) rotate(-180)"/><rect class="cls-8" x="24.03" y="9.75" width="458.76" height="110.69" rx="3.65" transform="translate(506.82 130.2) rotate(-180)"/><path class="cls-9" d="M32,24.47H474.73a0,0,0,0,1,0,0v79.76a0,0,0,0,1,0,0H32a7,7,0,0,1-7-7V31.47a7,7,0,0,1,7-7Z" transform="translate(499.73 128.71) rotate(-180)"/><path class="cls-10" d="M49.86,2.67a4.6,4.6,0,0,0-1,2.39,19.93,19.93,0,0,0-.08,5l3.76,0H76.18l3.62,0a19.4,19.4,0,0,0,0-5,4.87,4.87,0,0,0-.91-2.4C76.1-.58,68.06-.28,62.11,0,56.69.16,52,.34,49.86,2.67Z"/><path class="cls-11" d="M237.07,4.12a7.52,7.52,0,0,0,0,4.51c0,.79.45,1.43,1,1.43h8.71c.55,0,1-.64,1-1.43a7.29,7.29,0,0,0,0-4.51c-1-2.59-4-2.35-6.18-2.17C239.59,2.12,237.84,2.27,237.07,4.12Z"/><path class="cls-12" d="M251.84,4.14a7.53,7.53,0,0,0,0,4.51c0,.79.45,1.43,1,1.43h8.7c.56,0,1-.64,1-1.43a7.28,7.28,0,0,0,0-4.51c-1-2.59-4-2.35-6.19-2.17C254.36,2.14,252.61,2.28,251.84,4.14Z"/><path class="cls-13" d="M265.81,4.15a7.59,7.59,0,0,0,0,4.51c0,.79.44,1.43,1,1.43h8.7c.55,0,1-.64,1-1.43a7.24,7.24,0,0,0,0-4.51c-1-2.59-4-2.35-6.19-2.17C268.34,2.15,266.59,2.3,265.81,4.15Z"/><path class="cls-14" d="M32.71,3.37a9.45,9.45,0,0,0,0,5.08c0,.89.43,1.61,1,1.61l8.7,0c.55,0,1-.72,1-1.6a9.12,9.12,0,0,0,0-5.08C42.4.5,39.43.76,37.24,1,35.24,1.13,33.49,1.28,32.71,3.37Z"/><path class="cls-15" d="M237.34,125.88a7,7,0,0,1,0-4.37c0-.76.44-1.38,1-1.38H247c.55,0,1,.62,1,1.38a6.76,6.76,0,0,1,0,4.37c-1,2.51-4,2.27-6.19,2.09C239.86,127.82,238.11,127.68,237.34,125.88Z"/><path class="cls-16" d="M252.1,125.88a7.13,7.13,0,0,1,0-4.37c0-.76.45-1.38,1-1.38h8.71c.55,0,1,.62,1,1.38a6.85,6.85,0,0,1,0,4.37c-1,2.51-4,2.27-6.19,2.09C254.62,127.82,252.88,127.68,252.1,125.88Z"/><path class="cls-17" d="M266.08,125.88a7.13,7.13,0,0,1,0-4.37c0-.76.45-1.38,1-1.38h8.71c.55,0,1,.62,1,1.38a6.85,6.85,0,0,1,0,4.37c-1,2.51-4,2.27-6.19,2.09C268.6,127.82,266.86,127.68,266.08,125.88Z"/><path class="cls-18" d="M33,126.77a10,10,0,0,1,0-5.22c0-.91.43-1.65,1-1.66l8.7,0c.55,0,1,.74,1,1.65a9.61,9.61,0,0,1,0,5.22c-1,3-4,2.74-6.17,2.54C35.51,129.07,33.76,128.91,33,126.77Z"/><path class="cls-19" d="M49.86,127.86a4.6,4.6,0,0,1-1-2.4,19.93,19.93,0,0,1-.08-5l3.76,0H76.18l3.62,0a19.48,19.48,0,0,1,0,5,4.92,4.92,0,0,1-.91,2.4c-2.79,3.25-10.83,2.94-16.78,2.71C56.69,130.37,52,130.19,49.86,127.86Z"/><path class="cls-20" d="M427.73,3.11a4.6,4.6,0,0,0-1,2.39,19.47,19.47,0,0,0-.08,5l3.76,0h23.61l3.62,0a19.4,19.4,0,0,0,0-5,4.92,4.92,0,0,0-.91-2.4C454-.14,445.93.17,440,.39,434.56.6,429.83.78,427.73,3.11Z"/><path class="cls-21" d="M427.73,127.28a4.65,4.65,0,0,1-1-2.4,19.46,19.46,0,0,1-.08-5l3.76,0h23.61l3.62,0a19.48,19.48,0,0,1,0,5,5,5,0,0,1-.91,2.4C454,130.53,445.93,130.22,440,130,434.56,129.79,429.83,129.6,427.73,127.28Z"/><path class="cls-22" d="M462,3.46a9.55,9.55,0,0,0,0,5.08c0,.89.44,1.61,1,1.61l8.71,0c.55,0,1-.71,1-1.6a9.22,9.22,0,0,0,0-5.08c-1-2.93-4-2.67-6.18-2.48C464.48,1.22,462.74,1.37,462,3.46Z"/><path class="cls-23" d="M462.22,126.86a10.07,10.07,0,0,1,0-5.22c0-.91.44-1.65,1-1.66l8.71,0c.55,0,1,.74,1,1.65a9.72,9.72,0,0,1,0,5.22c-1,3-4,2.74-6.18,2.54C464.76,129.16,463,129,462.22,126.86Z"/><path class="cls-24" d="M507.54,104.56v.37c0,.9.2,1.63.45,1.63h.2c.24,0,.44-.73.44-1.63V78.34h-.33V75.93h-1V55.38h1V53h.33V26c0-.9-.2-1.63-.44-1.63H508c-.25,0-.45.73-.45,1.63v.37L495.81,26v78.49Z"/><path class="cls-25" d="M493.58,37.84h30.26a0,0,0,0,1,0,0v3.5a0,0,0,0,1,0,0H493.58a1,1,0,0,1-1-1v-1.5A1,1,0,0,1,493.58,37.84Z" transform="translate(547.81 -468.62) rotate(90)"/><path class="cls-26" d="M493.52,88.67h30.4a0,0,0,0,1,0,0v3.5a0,0,0,0,1,0,0h-30.4a1,1,0,0,1-1-1v-1.5A1,1,0,0,1,493.52,88.67Z" transform="translate(417.8 598.63) rotate(-90)"/><path class="cls-27" d="M210.4,114.73V108h1.24l1.22,3.4.23.66.22.68h0c.08-.22.15-.45.22-.68l.21-.66L215,108h1.24v6.72h-1v-3.29c0-.3,0-.65,0-1s.06-.74.08-1.05h0l-.54,1.55-1.16,3.18H213l-1.16-3.18-.53-1.55h0q0,.47.09,1.05c0,.39,0,.74,0,1v3.29Z"/><path class="cls-27" d="M218,114.73V108h1.08v6.72Z"/><path class="cls-27" d="M223.45,114.85a2.82,2.82,0,0,1-2.13-.9,4.18,4.18,0,0,1,0-5.13,2.83,2.83,0,0,1,2.15-.93,2.34,2.34,0,0,1,1.12.25,3.32,3.32,0,0,1,.79.59l-.58.7a2.19,2.19,0,0,0-.58-.43,1.53,1.53,0,0,0-.72-.17,1.72,1.72,0,0,0-1.41.68,2.83,2.83,0,0,0-.55,1.85,3,3,0,0,0,.53,1.87,1.65,1.65,0,0,0,1.4.69,1.74,1.74,0,0,0,.82-.19,2.52,2.52,0,0,0,.66-.53l.57.68a2.78,2.78,0,0,1-.93.72A2.57,2.57,0,0,1,223.45,114.85Z"/><path class="cls-27" d="M227.78,114.73H226.7V108h2.22a3.19,3.19,0,0,1,1.73.43,1.65,1.65,0,0,1,.7,1.53,2,2,0,0,1-.38,1.25,2.11,2.11,0,0,1-1,.67l1.65,2.84h-1.21l-1.5-2.7h-1.1Zm0-3.56h1c1,0,1.48-.4,1.48-1.2a.92.92,0,0,0-.38-.85,2,2,0,0,0-1.1-.25h-1Z"/><path class="cls-27" d="M235.26,114.85a2.65,2.65,0,0,1-2.11-.94,3.8,3.8,0,0,1-.81-2.56,3.69,3.69,0,0,1,.81-2.54,2.89,2.89,0,0,1,4.23,0,3.69,3.69,0,0,1,.81,2.54,3.8,3.8,0,0,1-.81,2.56A2.67,2.67,0,0,1,235.26,114.85Zm0-.93a1.55,1.55,0,0,0,1.33-.7,3.16,3.16,0,0,0,.5-1.87,3.08,3.08,0,0,0-.5-1.85,1.6,1.6,0,0,0-1.33-.67,1.58,1.58,0,0,0-1.32.67,3.08,3.08,0,0,0-.5,1.85,3.16,3.16,0,0,0,.5,1.87A1.53,1.53,0,0,0,235.26,113.92Z"/><path class="cls-27" d="M241.51,114.85a3.23,3.23,0,0,1-1.31-.26,3.3,3.3,0,0,1-1.08-.72l.62-.74a3.22,3.22,0,0,0,.83.57,2.24,2.24,0,0,0,1,.22,1.49,1.49,0,0,0,.93-.26.85.85,0,0,0,.32-.68.75.75,0,0,0-.3-.66,6,6,0,0,0-.77-.4l-.93-.41a3.11,3.11,0,0,1-.92-.62,1.46,1.46,0,0,1-.44-1.15,1.67,1.67,0,0,1,.62-1.32,2.4,2.4,0,0,1,1.59-.53,2.71,2.71,0,0,1,1.12.23,2.77,2.77,0,0,1,.91.62l-.55.69a2.4,2.4,0,0,0-.68-.44,1.87,1.87,0,0,0-.8-.16,1.34,1.34,0,0,0-.81.23.73.73,0,0,0-.32.62.69.69,0,0,0,.34.63,5.26,5.26,0,0,0,.75.38l.92.39a2.71,2.71,0,0,1,1,.67,1.57,1.57,0,0,1,.39,1.13,1.82,1.82,0,0,1-.63,1.4A2.5,2.5,0,0,1,241.51,114.85Z"/><path class="cls-27" d="M247.77,114.85a2.85,2.85,0,0,1-2.14-.9,4.22,4.22,0,0,1,0-5.13,2.87,2.87,0,0,1,2.16-.93,2.4,2.4,0,0,1,1.12.25,3.32,3.32,0,0,1,.79.59l-.58.7a2.36,2.36,0,0,0-.58-.43,1.56,1.56,0,0,0-.72-.17,1.74,1.74,0,0,0-1.42.68,2.89,2.89,0,0,0-.54,1.85,3,3,0,0,0,.52,1.87,1.8,1.8,0,0,0,2.22.5,2.24,2.24,0,0,0,.66-.53l.58.68a2.78,2.78,0,0,1-.93.72A2.57,2.57,0,0,1,247.77,114.85Z"/><path class="cls-27" d="M253.27,114.85a2.64,2.64,0,0,1-2.11-.94,3.75,3.75,0,0,1-.82-2.56,3.64,3.64,0,0,1,.82-2.54,2.65,2.65,0,0,1,2.11-.92,2.7,2.7,0,0,1,2.12.92,3.69,3.69,0,0,1,.81,2.54,3.8,3.8,0,0,1-.81,2.56A2.69,2.69,0,0,1,253.27,114.85Zm0-.93a1.56,1.56,0,0,0,1.33-.7,3.16,3.16,0,0,0,.49-1.87,3.08,3.08,0,0,0-.49-1.85,1.61,1.61,0,0,0-1.33-.67,1.58,1.58,0,0,0-1.32.67,3.08,3.08,0,0,0-.5,1.85,3.16,3.16,0,0,0,.5,1.87A1.53,1.53,0,0,0,253.27,113.92Z"/><path class="cls-27" d="M257.59,114.73V108h2.05a3.44,3.44,0,0,1,1.84.45,1.7,1.7,0,0,1,.73,1.59,1.89,1.89,0,0,1-.71,1.62,3,3,0,0,1-1.82.53h-1v2.53Zm1.07-3.39h.92c1,0,1.57-.43,1.57-1.29a1,1,0,0,0-.41-.92,2.27,2.27,0,0,0-1.2-.26h-.88Z"/><path class="cls-27" d="M263.5,114.73V108h4v.91h-2.92v1.85H267v.91h-2.47v2.15h3v.9Z"/><path class="cls-27" d="M272.4,114.73v-5.81h-2V108h5v.91h-2v5.81Z"/><path class="cls-27" d="M279.07,114.85a2.45,2.45,0,0,1-1.81-.68,3.18,3.18,0,0,1-.69-2.32V108h1.07v3.9a2.37,2.37,0,0,0,.4,1.57,1.31,1.31,0,0,0,1,.44,1.34,1.34,0,0,0,1.05-.44,2.25,2.25,0,0,0,.42-1.57V108h1v3.84a3.19,3.19,0,0,1-.68,2.32A2.42,2.42,0,0,1,279.07,114.85Z"/><path class="cls-27" d="M283.29,114.73V108h2.1a3.52,3.52,0,0,1,1.69.37,1.34,1.34,0,0,1,.67,1.28,1.78,1.78,0,0,1-.24.9,1.29,1.29,0,0,1-.7.56v0a1.75,1.75,0,0,1,.94.52,1.49,1.49,0,0,1,.37,1.08,1.67,1.67,0,0,1-.72,1.49,3.29,3.29,0,0,1-1.84.48Zm1.07-3.92h.91a1.87,1.87,0,0,0,1.1-.26.9.9,0,0,0,.33-.73.83.83,0,0,0-.35-.75,2.11,2.11,0,0,0-1.05-.22h-.94Zm0,3.08h1.07a2.19,2.19,0,0,0,1.21-.29,1,1,0,0,0,.42-.89c0-.72-.54-1.09-1.63-1.09h-1.07Z"/><path class="cls-27" d="M289.38,114.73V108h4v.91h-2.91v1.85h2.46v.91h-2.46v2.15h3v.9Z"/><path class="cls-28" d="M460.77,100.14h-7.29v-69h7.29S468.06,65.64,460.77,100.14Z"/><path class="cls-27" d="M455,47.83h4.23V46.39h1v4h-1V49H455Z"/><path class="cls-27" d="M454.86,53.31a2,2,0,0,1,.6-1.55,2.81,2.81,0,0,1,1.91-.53h2.8v1.18h-2.92a1.86,1.86,0,0,0-1.07.23.89.89,0,0,0,0,1.35,1.77,1.77,0,0,0,1.07.24h2.92v1.14h-2.8a2.93,2.93,0,0,1-1.91-.52A1.93,1.93,0,0,1,454.86,53.31Z"/><path class="cls-27" d="M455,56.58h5.22v1.78a3.16,3.16,0,0,1-.27,1.37,1,1,0,0,1-1,.55,1.41,1.41,0,0,1-.68-.18,1,1,0,0,1-.44-.5h0a1.33,1.33,0,0,1-.4.67,1.18,1.18,0,0,1-.82.27,1.29,1.29,0,0,1-1.17-.59,2.7,2.7,0,0,1-.37-1.44Zm.92,1.17v.67c0,.64.23,1,.7,1s.64-.33.64-1v-.67Zm2.21,0v.56a1,1,0,0,0,.17.62.56.56,0,0,0,.45.2c.37,0,.56-.27.56-.82v-.56Z"/><path class="cls-27" d="M455,61.42h5.22v3.26h-1V62.59h-1.05v1.78h-1V62.59H456v2.17h-1Z"/><path class="cls-27" d="M455,67.4h5.22v1.18H456v2.06h-1Z"/><path class="cls-27" d="M455,71.55h5.22v3.26h-1V72.72h-1.05V74.5h-1V72.72H456v2.17h-1Z"/><path class="cls-27" d="M455,75.93h5.22v1.21l-2.59,1.36-1.15.51v0l.92-.09c.35,0,.67,0,1,0h1.84V80H455V78.81l2.6-1.36,1.14-.51v0l-.93.1c-.33,0-.65,0-1,0H455Z"/><path class="cls-27" d="M454.86,82.84a2.83,2.83,0,0,1,.19-1,2.67,2.67,0,0,1,.56-.91l.81.67a2.55,2.55,0,0,0-.39.63,1.68,1.68,0,0,0-.16.66c0,.49.17.73.51.73a.39.39,0,0,0,.36-.2,4.15,4.15,0,0,0,.26-.55l.29-.68a2.1,2.1,0,0,1,.51-.73,1.31,1.31,0,0,1,.91-.32,1.38,1.38,0,0,1,1.1.52,1.93,1.93,0,0,1,.46,1.34,2.36,2.36,0,0,1-.18.89,2.44,2.44,0,0,1-.51.79l-.75-.6a1.88,1.88,0,0,0,.31-.52,1.47,1.47,0,0,0,.11-.56.87.87,0,0,0-.12-.49.41.41,0,0,0-.35-.18.39.39,0,0,0-.36.23c-.08.15-.17.34-.26.56l-.27.68a1.89,1.89,0,0,1-.53.75,1.32,1.32,0,0,1-.89.28,1.5,1.5,0,0,1-1.13-.52A2,2,0,0,1,454.86,82.84Z"/><path class="cls-29" d="M44.28,38.64a3.4,3.4,0,0,0-.45,0,3.63,3.63,0,0,0-.57,0,2.6,2.6,0,0,0-.56.06C38,39.31,34.24,49,34.3,60.85c.06,12.14,4.09,21.9,9,21.79a3.8,3.8,0,0,0,.59-.06h0a3.76,3.76,0,0,0,.58,0c4.92-.1,8.86-10,8.8-22.18S49.2,38.53,44.28,38.64Z"/><path class="cls-29" d="M431.66,38.64a3.4,3.4,0,0,0-.45,0,3.76,3.76,0,0,0-.58,0,2.67,2.67,0,0,0-.56.06c-4.73.61-8.46,10.33-8.4,22.15.06,12.14,4.1,21.9,9,21.79a4.07,4.07,0,0,0,.59-.06h0a3.63,3.63,0,0,0,.57,0c4.92-.1,8.86-10,8.8-22.18S436.58,38.53,431.66,38.64Z"/><path class="cls-27" d="M152.08,38.29c8.9,29.63.8,59.58,0,62.4h-9V38.29h9m.23-.3h-9.55v63h9.55s9.54-31.5,0-63Z"/><path class="cls-27" d="M149.91,47.82h3.9v1.1l-1.59.59-.34.1-.35.1v0l.35.1.34.1,1.59.57v1.1h-3.9v-.94h1.15a6.21,6.21,0,0,1,.7,0l.7.09v0l-.94-.32L150.23,50v-.55l1.29-.48.94-.32v0l-.7.08a4.51,4.51,0,0,1-.7.05h-1.15Z"/><path class="cls-27" d="M149.91,54.51l.83-.19V53.23l-.83-.19V52l3.9,1.19v1.25l-3.9,1.19Zm1.9-1-.27-.06v.72l.27-.07c.18,0,.39-.1.61-.14l.62-.15v0l-.63-.13Z"/><path class="cls-27" d="M149.84,57.72a2.12,2.12,0,0,1,.22-1,1.64,1.64,0,0,1,.67-.71,2.06,2.06,0,0,1,1.1-.27A2.19,2.19,0,0,1,153,56a1.88,1.88,0,0,1,.69.71,2,2,0,0,1,.24,1,1.73,1.73,0,0,1-.15.75,2.23,2.23,0,0,1-.36.53l-.66-.54a2.11,2.11,0,0,0,.21-.31.87.87,0,0,0,.08-.39.85.85,0,0,0-.3-.66,1.2,1.2,0,0,0-.83-.26,1.27,1.27,0,0,0-.85.25,1,1,0,0,0-.29.77.53.53,0,0,0,.07.3h.54v-.58h.84V59h-1.86a1.85,1.85,0,0,1-.34-.56A2.1,2.1,0,0,1,149.84,57.72Z"/><path class="cls-27" d="M149.91,59.79h3.9v1.06l-1.74.86-.87.38v0l.72-.08a5.14,5.14,0,0,1,.77-.05h1.12v1h-3.9V61.91l1.75-.87.87-.37v0l-.73.08a6.91,6.91,0,0,1-.76.05h-1.13Z"/><path class="cls-27" d="M149.91,63.83h3.9v1h-3.9Z"/><path class="cls-27" d="M149.91,65.72h3.9v2.55H153V66.75h-.75v1.3h-.86v-1.3h-1.43Z"/><path class="cls-27" d="M149.91,68.94h3.9v1h-3.9Z"/><path class="cls-27" d="M149.84,72.53a2,2,0,0,1,.22-.93,1.75,1.75,0,0,1,.67-.68,2.16,2.16,0,0,1,1.1-.25,2.18,2.18,0,0,1,1.12.26,1.85,1.85,0,0,1,.69.7,1.83,1.83,0,0,1,.24.92,1.6,1.6,0,0,1-.15.7,2.29,2.29,0,0,1-.36.51l-.66-.54a1.94,1.94,0,0,0,.21-.29.83.83,0,0,0,.08-.36.76.76,0,0,0-.3-.59,1.25,1.25,0,0,0-.83-.26A1.39,1.39,0,0,0,151,72a.76.76,0,0,0-.29.61.8.8,0,0,0,.1.41,1.82,1.82,0,0,0,.23.3l-.64.54A1.6,1.6,0,0,1,149.84,72.53Z"/><path class="cls-27" d="M149.91,76.39l.83-.19V75.11l-.83-.2v-1l3.9,1.19v1.24l-3.9,1.19Zm1.9-1-.27-.07V76l.27-.06.61-.15.62-.14v0l-.63-.13Z"/><path class="cls-27" d="M149.91,78.12h3v-1h.86v3.1H153v-1h-3Z"/><path class="cls-27" d="M149.91,80.76h3.9v1h-3.9Z"/><path class="cls-27" d="M149.84,84.3a1.73,1.73,0,0,1,.54-1.32,2.14,2.14,0,0,1,1.5-.5,2.05,2.05,0,0,1,1.48.5,1.76,1.76,0,0,1,.52,1.32,1.73,1.73,0,0,1-.52,1.31,2.05,2.05,0,0,1-1.48.5,2.14,2.14,0,0,1-1.5-.5A1.71,1.71,0,0,1,149.84,84.3Zm.89,0a.63.63,0,0,0,.31.55,1.58,1.58,0,0,0,.84.2,1.46,1.46,0,0,0,.82-.2.66.66,0,0,0,0-1.11,1.46,1.46,0,0,0-.82-.2,1.58,1.58,0,0,0-.84.2A.63.63,0,0,0,150.73,84.3Z"/><path class="cls-27" d="M149.91,86.8h3.9v1.06l-1.74.86-.87.38v0l.72-.08a5.14,5.14,0,0,1,.77-.05h1.12v1h-3.9v-1l1.75-.87.87-.37v0l-.73.08a6.91,6.91,0,0,1-.76.05h-1.13Z"/><path class="cls-27" d="M143.84,58.55a1.92,1.92,0,0,1,.22-.92,1.68,1.68,0,0,1,.67-.68,2.16,2.16,0,0,1,1.1-.26A2.19,2.19,0,0,1,147,57a1.84,1.84,0,0,1,.93,1.62,1.58,1.58,0,0,1-.15.69,2.37,2.37,0,0,1-.36.52l-.66-.54a2.73,2.73,0,0,0,.21-.3.78.78,0,0,0,.08-.35.77.77,0,0,0-.3-.6,1.25,1.25,0,0,0-.83-.25A1.32,1.32,0,0,0,145,58a.75.75,0,0,0-.29.61.77.77,0,0,0,.1.4,1.92,1.92,0,0,0,.23.31l-.64.54A1.61,1.61,0,0,1,143.84,58.55Z"/><path class="cls-27" d="M143.91,60.37h3.9v1h-1.45v1.16h1.45v1h-3.9v-1h1.55V61.41h-1.55Z"/><path class="cls-27" d="M143.91,66.51l.83-.2V65.22l-.83-.19V64l3.9,1.18v1.25l-3.9,1.19Zm1.9-1-.27-.07v.72l.27-.07.61-.14.62-.15v0l-.63-.13Z"/><path class="cls-27" d="M143.91,68h3.9V69l-1.74.86-.87.37v0l.72-.09a6.93,6.93,0,0,1,.77,0h1.12v1h-3.9V70.08l1.75-.86.87-.37v0l-.73.09a6.8,6.8,0,0,1-.76,0h-1.13Z"/><path class="cls-27" d="M143.84,73.8a2.18,2.18,0,0,1,.22-1,1.64,1.64,0,0,1,.67-.71,2.06,2.06,0,0,1,1.1-.27,2.19,2.19,0,0,1,1.12.27,1.84,1.84,0,0,1,.69.72,2,2,0,0,1,.24,1,1.73,1.73,0,0,1-.15.75,2.37,2.37,0,0,1-.36.52l-.66-.54a2.73,2.73,0,0,0,.21-.3,1,1,0,0,0,.08-.4.85.85,0,0,0-.3-.66,1.25,1.25,0,0,0-.83-.26,1.27,1.27,0,0,0-.85.25,1,1,0,0,0-.29.77.51.51,0,0,0,.07.3h.54v-.57h.84v1.48h-1.86a1.79,1.79,0,0,1-.34-.55A2.15,2.15,0,0,1,143.84,73.8Z"/><path class="cls-27" d="M143.91,75.88h3.9V78.4H147V76.91h-.61v1.27h-.87V76.91h-.69v1.55h-.87Z"/><path class="cls-27" d="M143.91,80.25v-1h3.9v1.48a2.65,2.65,0,0,1-.11.77,1.17,1.17,0,0,1-.39.57,1.15,1.15,0,0,1-.76.22,1.31,1.31,0,0,1-.69-.17,1.19,1.19,0,0,1-.43-.46l-1.52.85V81.31l1.31-.67v-.39Zm2.13,0v.37c0,.41.17.62.51.62a.36.36,0,0,0,.35-.16.92.92,0,0,0,.1-.46v-.37Z"/><path class="cls-27" d="M149,30.59a.45.45,0,0,1,.46.46v4.48A.46.46,0,0,1,149,36h-.54v2H147V36h-.54a.47.47,0,0,1-.46-.46V31.05a.46.46,0,0,1,.46-.46H149m0-.3h-2.48a.76.76,0,0,0-.76.76v4.48a.76.76,0,0,0,.76.76h.24v2h2v-2H149a.76.76,0,0,0,.76-.76V31.05a.76.76,0,0,0-.76-.76Z"/><path class="cls-27" d="M429.37,47.38l1.09-.28V45.7l-1.09-.28V44.37l4.57,1.43V47l-4.57,1.43ZM431.69,46l-.42-.12v1l.42-.11.72-.19.74-.18v0l-.74-.17Z"/><path class="cls-27" d="M429.37,49h4.57v1.56a2.45,2.45,0,0,1-.32,1.28,1.23,1.23,0,0,1-1.15.54,1.33,1.33,0,0,1-1.18-.54,2.17,2.17,0,0,1-.37-1.25V50h-1.55Zm2.37,1v.51c0,.56.24.84.73.84a.55.55,0,0,0,.5-.23,1.12,1.12,0,0,0,.15-.64V50Z"/><path class="cls-27" d="M429.37,53.14h4.57V56h-.87V54.17h-.92v1.55h-.86V54.17h-1.05v1.89h-.87Z"/><path class="cls-27" d="M429.37,58V57h4.57v1.65a2.33,2.33,0,0,1-.31,1.24,1.18,1.18,0,0,1-1.11.52,1.36,1.36,0,0,1-1.32-.82l-1.83,1V59.44l1.65-.87V58Zm2.47,0v.53c0,.56.23.84.68.84a.5.5,0,0,0,.47-.22,1.15,1.15,0,0,0,.13-.62V58Z"/><path class="cls-27" d="M429.37,62h3.7V60.77h.87v3.55h-.87V63.06h-3.7Z"/><path class="cls-27" d="M429.29,66.83a1.73,1.73,0,0,1,.53-1.36,2.47,2.47,0,0,1,1.67-.47h2.45v1h-2.56a1.62,1.62,0,0,0-.93.2.7.7,0,0,0-.27.59.73.73,0,0,0,.27.6,1.61,1.61,0,0,0,.93.21h2.56v1h-2.45a2.47,2.47,0,0,1-1.67-.46A1.69,1.69,0,0,1,429.29,66.83Z"/><path class="cls-27" d="M429.37,70.71v-1h4.57v1.64a2.31,2.31,0,0,1-.31,1.24,1.16,1.16,0,0,1-1.11.52,1.43,1.43,0,0,1-.83-.23,1.45,1.45,0,0,1-.49-.58l-1.83,1V72.16l1.65-.88v-.57Zm2.47,0v.54c0,.55.23.83.68.83a.52.52,0,0,0,.47-.21,1.19,1.19,0,0,0,.13-.62v-.54Z"/><path class="cls-27" d="M429.37,74h4.57v2.85h-.87V75h-.92v1.55h-.86V75h-1.05V76.9h-.87Z"/><path class="cls-29" d="M174.91,38.64a3.4,3.4,0,0,0-.45,0,3.76,3.76,0,0,0-.58,0,2.67,2.67,0,0,0-.56.06c-4.73.61-8.46,10.33-8.4,22.15.06,12.14,4.1,21.9,9,21.79a4.07,4.07,0,0,0,.59-.06h0a3.63,3.63,0,0,0,.57,0c4.92-.1,8.86-10,8.8-22.18S179.83,38.53,174.91,38.64Z"/><path class="cls-27" d="M172.52,48.45h4.56v1.13l-2,.73-.41.14-.43.13v0l.43.13.41.13,2,.72v1.12h-4.56v-.94h1.67a5.72,5.72,0,0,1,.78,0l.77.08v0l-1.08-.37-1.74-.65v-.57l1.74-.65,1.08-.36v0l-.77.09a7.68,7.68,0,0,1-.78,0h-1.67Z"/><path class="cls-27" d="M172.52,53.78h4.56v1h-4.56Z"/><path class="cls-27" d="M172.52,56.92v-1h4.56v1.65a2.42,2.42,0,0,1-.3,1.24,1.21,1.21,0,0,1-1.12.51,1.43,1.43,0,0,1-.83-.22,1.46,1.46,0,0,1-.48-.59l-1.83,1V58.36l1.64-.87v-.57Zm2.46,0v.53c0,.56.23.84.68.84a.52.52,0,0,0,.47-.22,1.17,1.17,0,0,0,.13-.62v-.53Z"/><path class="cls-27" d="M172.52,61.21v-1h4.56v1.65a2.42,2.42,0,0,1-.3,1.24,1.21,1.21,0,0,1-1.12.51,1.43,1.43,0,0,1-.83-.22,1.46,1.46,0,0,1-.48-.59l-1.83,1V62.65l1.64-.87v-.57Zm2.46,0v.53c0,.56.23.84.68.84a.52.52,0,0,0,.47-.22,1.17,1.17,0,0,0,.13-.62v-.53Z"/><path class="cls-27" d="M172.43,66.33a1.9,1.9,0,0,1,.64-1.5,2.51,2.51,0,0,1,1.75-.57,2.44,2.44,0,0,1,1.73.57,2,2,0,0,1,.62,1.5,2,2,0,0,1-.62,1.5,2.46,2.46,0,0,1-1.73.57,2.51,2.51,0,0,1-1.75-.57A1.93,1.93,0,0,1,172.43,66.33Zm.89,0a.85.85,0,0,0,.41.74,1.93,1.93,0,0,0,1.09.27,1.86,1.86,0,0,0,1.07-.27.9.9,0,0,0,0-1.48,1.79,1.79,0,0,0-1.07-.28,1.85,1.85,0,0,0-1.09.28A.85.85,0,0,0,173.32,66.33Z"/><path class="cls-27" d="M172.52,70.29v-1h4.56v1.65a2.42,2.42,0,0,1-.3,1.24,1.21,1.21,0,0,1-1.12.51,1.43,1.43,0,0,1-.83-.22,1.46,1.46,0,0,1-.48-.59l-1.83,1V71.73l1.64-.87v-.57Zm2.46,0v.53c0,.56.23.84.68.84a.52.52,0,0,0,.47-.22,1.17,1.17,0,0,0,.13-.62v-.53Z"/><path class="cls-27" d="M41.45,48.42H46v1.13l-2,.73-.42.13-.42.14v0l.42.13c.15,0,.28.08.42.12l2,.73v1.12H41.45v-.94h1.67a5.63,5.63,0,0,1,.78,0l.78.08v0l-1.09-.37-1.74-.65v-.57l1.74-.65,1.09-.36v0l-.78.08a5.63,5.63,0,0,1-.78.05H41.45Z"/><path class="cls-27" d="M41.45,53.75H46v1H41.45Z"/><path class="cls-27" d="M41.45,56.89v-1H46v1.65a2.45,2.45,0,0,1-.31,1.24,1.18,1.18,0,0,1-1.12.51,1.33,1.33,0,0,1-1.31-.81l-1.83,1V58.33l1.65-.87v-.57Zm2.47,0v.53c0,.56.22.83.67.83a.51.51,0,0,0,.47-.21,1.16,1.16,0,0,0,.14-.62v-.53Z"/><path class="cls-27" d="M41.45,61.18v-1H46V61.8A2.43,2.43,0,0,1,45.71,63a1.18,1.18,0,0,1-1.12.51,1.33,1.33,0,0,1-1.31-.81l-1.83,1V62.62l1.65-.87v-.57Zm2.47,0v.53c0,.56.22.84.67.84a.51.51,0,0,0,.47-.22,1.16,1.16,0,0,0,.14-.62v-.53Z"/><path class="cls-27" d="M41.37,66.3A1.93,1.93,0,0,1,42,64.8a2.53,2.53,0,0,1,1.75-.57,2.47,2.47,0,0,1,1.74.57,2,2,0,0,1,.61,1.5,2,2,0,0,1-.62,1.5,2.44,2.44,0,0,1-1.73.57A2.53,2.53,0,0,1,42,67.8,2,2,0,0,1,41.37,66.3Zm.89,0a.84.84,0,0,0,.4.74,2,2,0,0,0,1.09.27A1.84,1.84,0,0,0,44.82,67a.86.86,0,0,0,.39-.74.85.85,0,0,0-.39-.74,1.77,1.77,0,0,0-1.07-.28,1.88,1.88,0,0,0-1.09.28A.83.83,0,0,0,42.26,66.3Z"/><path class="cls-27" d="M41.45,70.26v-1H46v1.65a2.45,2.45,0,0,1-.31,1.24,1.18,1.18,0,0,1-1.12.51,1.33,1.33,0,0,1-1.31-.81l-1.83,1V71.7l1.65-.87v-.57Zm2.47,0v.53c0,.56.22.83.67.83a.51.51,0,0,0,.47-.21,1.16,1.16,0,0,0,.14-.62v-.53Z"/><g class="cls-30"><polyline class="cls-31" points="306.29 74.06 306.29 93.32 267.77 83.69"/><polyline class="cls-31" points="344.81 83.69 306.29 93.32 306.29 74.06"/><polyline class="cls-31" points="267.77 83.69 306.29 37.95 306.29 73.93"/><polyline class="cls-31" points="306.29 74.06 306.29 37.95 344.81 83.69"/></g><path class="cls-27" d="M317.83,88.93l-1.18-4.6,1.68-.43a3,3,0,0,1,1-.1,1.43,1.43,0,0,1,.81.3,1.5,1.5,0,0,1,.49.85,1.55,1.55,0,0,1,0,1,1.6,1.6,0,0,1-.54.7,2.61,2.61,0,0,1-.86.4l-.5.13.38,1.46Zm.6-2.73.43-.12c.48-.12.66-.4.54-.83a.49.49,0,0,0-.3-.39,1,1,0,0,0-.58,0l-.41.11Z"/><path class="cls-27" d="M323.35,87.51l-1.22.31L321,83.22l1.74-.44a2.85,2.85,0,0,1,.95-.1,1.32,1.32,0,0,1,.78.28,1.45,1.45,0,0,1,.49.83,1.5,1.5,0,0,1-.4,1.52L326,86.83l-1.36.35-1.19-1.33L323,86ZM322.7,85l.44-.11c.49-.12.69-.39.58-.8a.46.46,0,0,0-.29-.36,1.18,1.18,0,0,0-.58,0l-.44.11Z"/><path class="cls-27" d="M326.59,86.67l-1.19-4.59,1.22-.32,1.18,4.6Z"/><path class="cls-27" d="M330.3,85.81a2.94,2.94,0,0,1-.95.07,2.53,2.53,0,0,1-1-.28l.48-1a2.16,2.16,0,0,0,.61.19,1.38,1.38,0,0,0,.58,0c.35-.09.5-.24.44-.46a.27.27,0,0,0-.23-.2l-.51-.08-.63-.09a1.78,1.78,0,0,1-.77-.3,1.29,1.29,0,0,1-.49-.75,1.33,1.33,0,0,1,.22-1.13,1.88,1.88,0,0,1,1.12-.74,2.65,2.65,0,0,1,.85,0,2,2,0,0,1,.84.28l-.41.92A2.18,2.18,0,0,0,330,82a1.43,1.43,0,0,0-.5,0c-.32.08-.45.23-.4.44a.3.3,0,0,0,.25.2l.55.08.62.08a1.51,1.51,0,0,1,.78.3,1.25,1.25,0,0,1,.44.72,1.45,1.45,0,0,1-.2,1.15A1.92,1.92,0,0,1,330.3,85.81Z"/><path class="cls-27" d="M332.81,85.07l-1.18-4.6,1.3-.33,1.18,1.7.22.37c.07.13.15.25.22.37h0c0-.15,0-.29,0-.44a3,3,0,0,1,0-.43l.17-2,1.31-.34,1.18,4.6-1.1.28-.35-1.36c-.06-.23-.11-.51-.16-.83s-.08-.61-.11-.85h0l-.1,1.2L335.26,84l-.65.17-1-1.38-.65-1h0l.31.79a7.64,7.64,0,0,1,.27.81l.35,1.36Z"/><path class="cls-32" d="M133.89,44v43.4C122.21,89.57,110.5,91.77,98.81,94v-.69L133.87,44Z"/><path class="cls-33" d="M99.26,37.26,133.89,44,98.81,49,63.73,44Z"/><line class="cls-34" x1="98.81" y1="93.33" x2="133.89" y2="43.9"/><path class="cls-32" d="M63.73,44l35.08,5V94L63.73,87.57Z"/><path class="cls-27" d="M116.82,83.83l-.72-4,1.42-.27a2.64,2.64,0,0,1,1.09,0,.8.8,0,0,1,.59.71,1.24,1.24,0,0,1,0,.54.71.71,0,0,1-.31.42v0a1,1,0,0,1,.54.22.94.94,0,0,1,.31.59,1,1,0,0,1-.3,1,2.06,2.06,0,0,1-1,.49Zm.61-2.64.35-.07c.33-.06.47-.22.42-.49s-.22-.32-.56-.26l-.35.07Zm.29,1.63.43-.08c.4-.08.58-.26.52-.56s-.27-.37-.68-.29l-.42.08Z"/><path class="cls-27" d="M120.54,83.13l-.72-4,2.55-.47.16.89-1.51.28.12.63,1.29-.24.16.88-1.29.24.13.72,1.57-.29.16.89Z"/><path class="cls-27" d="M126,82.12l-.35-.82-1.1.21-.05.89-1.07.2.48-4.24,1.27-.23,1.93,3.78Zm-1.4-1.76v.29l.73-.13-.12-.27c-.08-.18-.17-.38-.26-.6l-.26-.62h0c0,.21,0,.44,0,.67S124.61,80.16,124.59,80.36Z"/><path class="cls-27" d="M127.47,81.84l-.72-4,1.12-.21.89,1.53c.06.1.11.21.17.33a3.41,3.41,0,0,0,.17.33h0c0-.12,0-.25,0-.37s0-.25,0-.37l.28-1.75,1.11-.21.73,4-.95.18-.22-1.19c0-.2-.06-.44-.08-.72s0-.53,0-.73h0l-.16,1-.25,1.41-.55.11L128.32,80l-.49-.9h0c.06.2.14.43.22.7s.14.51.18.71l.21,1.19Z"/><path class="cls-27" d="M108.15,91.45a2.39,2.39,0,0,1-.8,0,2,2,0,0,1-.8-.3l.47-.84a1.81,1.81,0,0,0,.5.2,1.18,1.18,0,0,0,.49,0c.3-.06.43-.18.4-.37a.22.22,0,0,0-.18-.18l-.43-.11-.53-.11a1.43,1.43,0,0,1-.63-.31,1,1,0,0,1-.36-.66,1.18,1.18,0,0,1,.25-1,1.58,1.58,0,0,1,1-.56,1.94,1.94,0,0,1,.72,0,1.75,1.75,0,0,1,.69.29l-.4.76a1.59,1.59,0,0,0-.42-.14,1,1,0,0,0-.42,0c-.28,0-.4.17-.37.35a.26.26,0,0,0,.2.19l.46.1.51.1a1.32,1.32,0,0,1,.65.31,1.09,1.09,0,0,1,.32.65,1.21,1.21,0,0,1-.23,1A1.67,1.67,0,0,1,108.15,91.45Z"/><path class="cls-27" d="M110.31,91l-.72-4,1.45-.27a2.29,2.29,0,0,1,.82,0,1.26,1.26,0,0,1,.66.3,1.32,1.32,0,0,1,.36.76,1.36,1.36,0,0,1-.07.84,1.45,1.45,0,0,1-.5.57,2.21,2.21,0,0,1-.75.29l-.43.08.23,1.27Zm.67-2.31.38-.07a.53.53,0,0,0,.5-.68.42.42,0,0,0-.23-.35.79.79,0,0,0-.49,0l-.35.06Z"/><path class="cls-27" d="M114,90.28l-.72-4,1-.2.57,3.12,1.49-.28.16.89Z"/><path class="cls-27" d="M117.23,89.67l-.72-4,1-.19.72,4Z"/><path class="cls-27" d="M119.91,89.17l-.56-3.12-1,.2-.16-.89,3.14-.59.16.89-1,.2L121,89Z"/><path class="cls-27" d="M123.34,88.53l-.57-3.12-1,.2-.16-.89,3.14-.59.16.89-1.05.2.56,3.12Z"/><path class="cls-27" d="M126,88l-.72-4,2.55-.47.16.89-1.51.28.12.63,1.29-.24.16.88-1.29.25.13.71,1.57-.29.16.89Z"/><path class="cls-27" d="M130.44,87.21l-1.05.19-.72-4,1.5-.28a2.72,2.72,0,0,1,.8,0,1.25,1.25,0,0,1,.65.29,1.26,1.26,0,0,1,.36.74,1.32,1.32,0,0,1,0,.75,1.27,1.27,0,0,1-.38.53l1.14,1.4-1.17.21-.92-1.21-.4.07ZM130,85l.38-.07c.42-.08.6-.29.54-.65a.37.37,0,0,0-.23-.32.87.87,0,0,0-.49,0l-.37.07Z"/><path class="cls-32" d="M133.87,44,98.81,93.33V49Q116.35,46.48,133.87,44Z"/><path class="cls-32" d="M264.1,44v43.4C252.41,89.57,240.7,91.77,229,94v-.69l35-49.38Z"/><path class="cls-33" d="M229.46,37.26,264.1,44,229,49l-35.08-5Z"/><line class="cls-34" x1="229.02" y1="93.33" x2="264.1" y2="43.9"/><path class="cls-32" d="M193.94,44,229,49V94l-35.08-6.44Z"/><path class="cls-27" d="M247,83.83l-.72-4,1.42-.27a2.69,2.69,0,0,1,1.1,0,.8.8,0,0,1,.58.71,1.11,1.11,0,0,1,0,.54.74.74,0,0,1-.3.42v0a1,1,0,0,1,.54.22.94.94,0,0,1,.31.59,1,1,0,0,1-.29,1,2.14,2.14,0,0,1-1.05.49Zm.61-2.64.35-.06c.33-.07.48-.23.43-.5s-.23-.32-.56-.26l-.36.07Zm.29,1.63.43-.08c.4-.08.58-.26.53-.56s-.28-.37-.69-.29l-.42.08Z"/><path class="cls-27" d="M250.74,83.13l-.72-4,2.55-.47.16.89-1.5.28.11.63,1.29-.24.16.88-1.29.24.13.72,1.57-.29.16.89Z"/><path class="cls-27" d="M256.19,82.12l-.34-.82-1.11.21,0,.89-1.07.2.48-4.24,1.26-.23,1.93,3.78Zm-1.39-1.76,0,.29.73-.13-.12-.27c-.08-.18-.17-.38-.26-.6s-.17-.42-.26-.62h0c0,.21,0,.44,0,.67S254.81,80.16,254.8,80.36Z"/><path class="cls-27" d="M257.68,81.84l-.73-4,1.12-.21.89,1.53a2.55,2.55,0,0,1,.17.33c.06.11.11.23.17.33h0c0-.12,0-.25,0-.37s0-.25,0-.37l.28-1.75,1.12-.21.72,4-.95.18-.21-1.19a4.51,4.51,0,0,1-.08-.72c0-.28,0-.53,0-.73h0l-.16,1-.24,1.41-.56.11L258.52,80l-.49-.9h0l.21.7c.08.27.14.51.18.71l.21,1.19Z"/><path class="cls-27" d="M238.35,91.45a2.39,2.39,0,0,1-.8,0,1.91,1.91,0,0,1-.79-.3l.46-.84a1.87,1.87,0,0,0,.51.2,1.13,1.13,0,0,0,.48,0c.31-.06.44-.18.4-.37a.2.2,0,0,0-.18-.18l-.42-.11-.53-.11a1.43,1.43,0,0,1-.63-.31,1,1,0,0,1-.37-.66,1.18,1.18,0,0,1,.25-1,1.64,1.64,0,0,1,1-.56,1.88,1.88,0,0,1,.71,0,1.86,1.86,0,0,1,.7.29l-.41.76a1.59,1.59,0,0,0-.42-.14,1,1,0,0,0-.42,0c-.28,0-.4.17-.36.35a.23.23,0,0,0,.19.19l.46.1.52.1a1.28,1.28,0,0,1,.64.31,1.1,1.1,0,0,1,.33.65,1.22,1.22,0,0,1-.24,1A1.65,1.65,0,0,1,238.35,91.45Z"/><path class="cls-27" d="M240.52,91l-.73-4,1.45-.27a2.54,2.54,0,0,1,.82,0,1.26,1.26,0,0,1,.66.3,1.33,1.33,0,0,1,.37.76,1.35,1.35,0,0,1-.08.84,1.38,1.38,0,0,1-.5.57,2.13,2.13,0,0,1-.75.29l-.43.08.23,1.27Zm.66-2.31.38-.07a.54.54,0,0,0,.51-.68.43.43,0,0,0-.24-.35.78.78,0,0,0-.49,0l-.35.06Z"/><path class="cls-27" d="M244.21,90.28l-.72-4,1-.2.56,3.12,1.5-.28.16.89Z"/><path class="cls-27" d="M247.44,89.67l-.73-4,1-.19.72,4Z"/><path class="cls-27" d="M250.11,89.17l-.56-3.12-1.05.2-.16-.89,3.14-.59.16.89-1,.2.57,3.12Z"/><path class="cls-27" d="M253.54,88.53,253,85.41l-1,.2-.16-.89,3.14-.59.16.89-1,.2.57,3.12Z"/><path class="cls-27" d="M256.22,88l-.73-4,2.56-.47.16.89-1.51.28.11.63,1.29-.24.16.88-1.29.25.13.71,1.57-.29.16.89Z"/><path class="cls-27" d="M260.64,87.21l-1,.19-.73-4,1.5-.28a2.78,2.78,0,0,1,.81,0,1.18,1.18,0,0,1,.64.29,1.26,1.26,0,0,1,.36.74,1.42,1.42,0,0,1,0,.75,1.29,1.29,0,0,1-.39.53l1.14,1.4-1.16.21-.93-1.21-.4.07ZM260.25,85l.38-.07c.42-.08.6-.29.53-.65a.36.36,0,0,0-.22-.32.88.88,0,0,0-.49,0l-.38.07Z"/><path class="cls-32" d="M264.07,44,229,93.33V49Q246.54,46.48,264.07,44Z"/><path class="cls-29" d="M397.4,38.64l-.45,0a3.63,3.63,0,0,0-.57,0,2.6,2.6,0,0,0-.56.06c-4.73.61-8.46,10.33-8.4,22.15.06,12.14,4.09,21.9,9,21.79a3.8,3.8,0,0,0,.59-.06h0a3.69,3.69,0,0,0,.58,0c4.92-.1,8.86-10,8.8-22.18S402.32,38.53,397.4,38.64Z"/><path class="cls-27" d="M396.71,43.34h3.54v1.22a1.82,1.82,0,0,1-.25,1,1,1,0,0,1-.89.42,1,1,0,0,1-.91-.42,1.64,1.64,0,0,1-.29-1v-.44h-1.2Zm1.83.8v.39q0,.66.57.66a.43.43,0,0,0,.39-.18.86.86,0,0,0,.11-.5v-.37Z"/><path class="cls-27" d="M396.64,48a1.48,1.48,0,0,1,.5-1.16,1.92,1.92,0,0,1,1.36-.45,1.89,1.89,0,0,1,1.34.45,1.67,1.67,0,0,1,0,2.32,1.89,1.89,0,0,1-1.34.45,1.92,1.92,0,0,1-1.36-.45A1.49,1.49,0,0,1,396.64,48Zm.69,0a.69.69,0,0,0,.32.58,1.51,1.51,0,0,0,.85.21,1.4,1.4,0,0,0,.82-.21.7.7,0,0,0,0-1.16,1.4,1.4,0,0,0-.82-.21,1.51,1.51,0,0,0-.85.21A.69.69,0,0,0,397.33,48Z"/><path class="cls-27" d="M396.71,50.29h3.54v.8h-2.87v1.4h-.67Z"/><path class="cls-27" d="M396.71,55l.84-.21V53.66l-.84-.22v-.82l3.54,1.11v1l-3.54,1.11Zm1.79-1-.32-.09v.75l.32-.08.57-.14.57-.15v0l-.58-.13Z"/><path class="cls-27" d="M396.71,57v-.79h3.54v1.27a1.86,1.86,0,0,1-.24,1,.91.91,0,0,1-.86.39,1.05,1.05,0,0,1-.64-.17,1,1,0,0,1-.38-.46l-1.42.81v-.9l1.28-.68V57Zm1.91,0v.42c0,.43.18.64.53.64a.39.39,0,0,0,.36-.16.9.9,0,0,0,.1-.48V57Z"/><path class="cls-27" d="M396.71,59.51h3.54v.8h-3.54Z"/><path class="cls-27" d="M396.71,60.93h.48l2.39,1.56V61.07h.67v2.4h-.48l-2.39-1.56v1.58h-.67Z"/><path class="cls-27" d="M396.71,66l.84-.21V64.66l-.84-.22v-.82l3.54,1.11v1l-3.54,1.11Zm1.79-1-.32-.09v.75l.32-.08.57-.14.57-.15v0l-.58-.13Z"/><path class="cls-27" d="M396.71,67.48h2.87v-1h.67v2.75h-.67v-1h-2.87Z"/><path class="cls-27" d="M396.71,69.81h3.54v.8h-3.54Z"/><path class="cls-27" d="M396.64,72.88a1.49,1.49,0,0,1,.5-1.16,1.92,1.92,0,0,1,1.36-.44,1.88,1.88,0,0,1,1.34.44,1.67,1.67,0,0,1,0,2.32,1.89,1.89,0,0,1-1.34.45,1.92,1.92,0,0,1-1.36-.45A1.48,1.48,0,0,1,396.64,72.88Zm.69,0a.66.66,0,0,0,.32.58,1.51,1.51,0,0,0,.85.21,1.4,1.4,0,0,0,.82-.21.69.69,0,0,0,0-1.15,1.4,1.4,0,0,0-.82-.21,1.51,1.51,0,0,0-.85.21A.66.66,0,0,0,397.33,72.88Z"/><path class="cls-27" d="M396.71,75.16h3.54V76l-1.76.92-.78.35v0l.63-.06a5.07,5.07,0,0,1,.66,0h1.25v.76h-3.54v-.82l1.76-.92.78-.35v0l-.63.06a5.07,5.07,0,0,1-.66,0h-1.25Z"/><path class="cls-27" d="M390.44,53.72a1.47,1.47,0,0,1,.49-1.16,1.94,1.94,0,0,1,1.36-.45,1.86,1.86,0,0,1,1.34.45,1.64,1.64,0,0,1,0,2.32,1.87,1.87,0,0,1-1.34.45,1.94,1.94,0,0,1-1.36-.45A1.48,1.48,0,0,1,390.44,53.72Zm.69,0a.65.65,0,0,0,.31.57,1.45,1.45,0,0,0,.85.22,1.36,1.36,0,0,0,.83-.22.66.66,0,0,0,.3-.57.68.68,0,0,0-.3-.58,1.44,1.44,0,0,0-.83-.21,1.53,1.53,0,0,0-.85.21A.66.66,0,0,0,391.13,53.72Z"/><path class="cls-27" d="M390.5,56H394v1.22a1.82,1.82,0,0,1-.25,1,.94.94,0,0,1-.89.42,1,1,0,0,1-.91-.42,1.66,1.66,0,0,1-.29-1v-.44h-1.2Zm1.84.8v.39c0,.44.19.65.56.65a.41.41,0,0,0,.39-.17.88.88,0,0,0,.12-.5v-.37Z"/><path class="cls-27" d="M390.5,59.84h2.87v-1H394v2.75h-.67v-1H390.5Z"/><path class="cls-27" d="M390.5,62.17H394V63H390.5Z"/><path class="cls-27" d="M390.44,65.28a1.64,1.64,0,0,1,.21-.82,1.45,1.45,0,0,1,.6-.6,2,2,0,0,1,1-.22,2.05,2.05,0,0,1,1,.23,1.64,1.64,0,0,1,.64.61,1.61,1.61,0,0,1,.22.83,1.34,1.34,0,0,1-.14.61,1.63,1.63,0,0,1-.32.46l-.51-.43a1.31,1.31,0,0,0,.2-.28.78.78,0,0,0-.22-1,1.29,1.29,0,0,0-.84-.25,1.39,1.39,0,0,0-.85.23.77.77,0,0,0-.3.63.79.79,0,0,0,.09.38,1.23,1.23,0,0,0,.24.31l-.5.42A1.44,1.44,0,0,1,390.44,65.28Z"/><path class="cls-27" d="M390.44,67.9a1.89,1.89,0,0,1,.13-.7,1.75,1.75,0,0,1,.38-.61l.55.45a1.73,1.73,0,0,0-.27.43,1,1,0,0,0-.1.45c0,.33.11.49.34.49a.27.27,0,0,0,.25-.14,2.71,2.71,0,0,0,.17-.37l.2-.46a1.36,1.36,0,0,1,.34-.49.88.88,0,0,1,.63-.22,1,1,0,0,1,.74.35,1.32,1.32,0,0,1,.31.91,1.7,1.7,0,0,1-.12.61,1.58,1.58,0,0,1-.35.53l-.5-.41a1.62,1.62,0,0,0,.21-.35.92.92,0,0,0,.07-.38.62.62,0,0,0-.08-.33.29.29,0,0,0-.24-.12.27.27,0,0,0-.25.15c-.05.11-.11.23-.17.38l-.18.46a1.38,1.38,0,0,1-.36.51.91.91,0,0,1-.61.19,1,1,0,0,1-.76-.35A1.37,1.37,0,0,1,390.44,67.9Z"/><path class="cls-29" d="M362.11,38.64a3.4,3.4,0,0,0-.45,0,3.63,3.63,0,0,0-.57,0,2.6,2.6,0,0,0-.56.06c-4.73.61-8.46,10.33-8.4,22.15.06,12.14,4.09,21.9,9,21.79a3.8,3.8,0,0,0,.59-.06h0a3.76,3.76,0,0,0,.58,0c4.92-.1,8.86-10,8.8-22.18S367,38.53,362.11,38.64Z"/><path class="cls-27" d="M359.83,50.68h4.56v2.88h-.86V51.71h-1.06v1.58h-.87V51.71h-1.77Z"/><path class="cls-27" d="M359.83,54.35h4.56v1h-4.56Z"/><path class="cls-27" d="M359.83,56.46h4.56v1H360.7v1.81h-.87Z"/><path class="cls-27" d="M359.83,60.13h3.7V58.88h.86v3.54h-.86V61.17h-3.7Z"/><path class="cls-27" d="M359.83,63.13h4.56V66h-.86V64.16h-.92v1.56h-.86V64.16H360.7v1.9h-.87Z"/><path class="cls-27" d="M359.83,68V67h4.56v1.64a2.46,2.46,0,0,1-.3,1.25,1.2,1.2,0,0,1-1.12.51,1.33,1.33,0,0,1-1.31-.81l-1.83,1V69.44l1.65-.87V68Zm2.46,0v.53c0,.56.23.83.68.83a.51.51,0,0,0,.47-.21,1.16,1.16,0,0,0,.14-.62V68Z"/></g></g></svg>