<svg id="Layer_1" data-name="Layer 1" xmlns="http://www.w3.org/2000/svg" xmlns:xlink="http://www.w3.org/1999/xlink" viewBox="0 0 174.6 130.6"><defs><style>.cls-1{fill:url(#linear-gradient);}.cls-2{fill:url(#linear-gradient-2);}.cls-3{fill:url(#linear-gradient-3);}.cls-4{fill:url(#linear-gradient-4);}.cls-5{fill:url(#linear-gradient-5);}.cls-6{fill:url(#linear-gradient-6);}.cls-7{fill:url(#linear-gradient-7);}.cls-8{fill:url(#linear-gradient-8);}.cls-9{fill:url(#linear-gradient-9);}.cls-10{fill:url(#linear-gradient-10);}.cls-11{fill:url(#linear-gradient-11);}.cls-12{fill:url(#linear-gradient-12);}.cls-13{fill:url(#linear-gradient-13);}.cls-14{fill:url(#linear-gradient-14);}.cls-15{fill:url(#linear-gradient-15);}.cls-16{fill:url(#linear-gradient-16);}.cls-17{fill:url(#linear-gradient-17);}.cls-18{fill:url(#linear-gradient-18);}.cls-19{fill:#fff;}.cls-20{fill:none;stroke:#fff;stroke-miterlimit:10;stroke-width:0.38px;opacity:0.42;}</style><linearGradient id="linear-gradient" x1="149.76" y1="9.93" x2="31.51" y2="9.67" gradientUnits="userSpaceOnUse"><stop offset="0" stop-color="#1a1a1a"/><stop offset="0.09" stop-color="#2c2c2c"/><stop offset="0.15" stop-color="#333"/><stop offset="0.4" stop-color="#4d4d4d"/><stop offset="0.78" stop-color="#333"/><stop offset="1" stop-color="#1a1a1a"/></linearGradient><linearGradient id="linear-gradient-2" x1="-7636.45" y1="-528.94" x2="-7471.04" y2="-528.94" gradientTransform="translate(-7466.91 -505) rotate(180)" gradientUnits="userSpaceOnUse"><stop offset="0" stop-color="#1a1a1a"/><stop offset="0.06" stop-color="#424041"/><stop offset="0.11" stop-color="#615e5f"/><stop offset="0.16" stop-color="#747071"/><stop offset="0.19" stop-color="#7b7778"/><stop offset="0.5" stop-color="#666"/><stop offset="1" stop-color="#1a1a1a"/></linearGradient><linearGradient id="linear-gradient-3" x1="-7638.77" y1="-521.86" x2="-7473.37" y2="-521.86" gradientTransform="translate(-7466.91 -505) rotate(180)" gradientUnits="userSpaceOnUse"><stop offset="0"/><stop offset="0.14" stop-color="#080808"/><stop offset="0.36" stop-color="#1f1e1e"/><stop offset="0.55" stop-color="#363535"/><stop offset="0.61" stop-color="#282727"/><stop offset="0.75" stop-color="#121212"/><stop offset="0.88" stop-color="#050404"/><stop offset="1"/></linearGradient><linearGradient id="linear-gradient-4" x1="2526.49" y1="2643.78" x2="2583.79" y2="2643.78" gradientTransform="translate(-2468.49 -2515.22)" gradientUnits="userSpaceOnUse"><stop offset="0" stop-color="#1a1a1a"/><stop offset="0.06" stop-color="#424041"/><stop offset="0.11" stop-color="#615e5f"/><stop offset="0.16" stop-color="#747071"/><stop offset="0.19" stop-color="#7b7778"/><stop offset="0.5" stop-color="#666"/><stop offset="0.78" stop-color="#ccc"/><stop offset="1" stop-color="#1a1a1a"/></linearGradient><linearGradient id="linear-gradient-5" x1="2492.28" y1="2632.44" x2="2619.61" y2="2632.44" xlink:href="#linear-gradient-4"/><linearGradient id="linear-gradient-6" x1="2490.49" y1="2640.28" x2="2617.82" y2="2640.28" gradientTransform="translate(-2468.49 -2515.22)" gradientUnits="userSpaceOnUse"><stop offset="0" stop-color="#1a1a1a"/><stop offset="0.02" stop-color="#1d1d1d"/><stop offset="0.35" stop-color="#404040"/><stop offset="0.52" stop-color="#4d4d4d"/><stop offset="0.64" stop-color="#3d3d3d"/><stop offset="0.87" stop-color="#232323"/><stop offset="1" stop-color="#1a1a1a"/></linearGradient><linearGradient id="linear-gradient-7" x1="2468.49" y1="2627.53" x2="2643.08" y2="2627.53" gradientTransform="translate(-2468.49 -2515.22)" xlink:href="#linear-gradient-3"/><linearGradient id="linear-gradient-8" x1="2468.49" y1="2583.51" x2="2643.08" y2="2583.51" gradientTransform="translate(-2468.49 -2515.22)" xlink:href="#linear-gradient"/><linearGradient id="linear-gradient-9" x1="2469.33" y1="2618.28" x2="2491" y2="2618.28" gradientTransform="translate(-2468.49 -2515.22)" gradientUnits="userSpaceOnUse"><stop offset="0" stop-color="#7b7778"/><stop offset="0.53" stop-color="#ccc"/><stop offset="1" stop-color="#666"/></linearGradient><linearGradient id="linear-gradient-10" x1="2619.65" y1="2618.28" x2="2642.63" y2="2618.28" xlink:href="#linear-gradient-9"/><linearGradient id="linear-gradient-11" x1="2492.28" y1="2618.95" x2="2494.68" y2="2618.95" xlink:href="#linear-gradient-9"/><linearGradient id="linear-gradient-12" x1="2499.34" y1="2618.95" x2="2506.35" y2="2618.95" xlink:href="#linear-gradient-9"/><linearGradient id="linear-gradient-13" x1="2511" y1="2618.95" x2="2518.01" y2="2618.95" xlink:href="#linear-gradient-9"/><linearGradient id="linear-gradient-14" x1="2592.64" y1="2618.95" x2="2599.65" y2="2618.95" xlink:href="#linear-gradient-9"/><linearGradient id="linear-gradient-15" x1="2604.31" y1="2618.95" x2="2611.32" y2="2618.95" xlink:href="#linear-gradient-9"/><linearGradient id="linear-gradient-16" x1="2615.97" y1="2618.95" x2="2618.09" y2="2618.95" xlink:href="#linear-gradient-9"/><linearGradient id="linear-gradient-17" x1="149.75" y1="2.28" x2="31.52" y2="2.02" gradientTransform="matrix(1, 0, 0, 1, 0, 0)" xlink:href="#linear-gradient-3"/><linearGradient id="linear-gradient-18" x1="149.75" y1="5.03" x2="31.52" y2="4.77" gradientTransform="matrix(1, 0, 0, 1, 0, 0)" xlink:href="#linear-gradient-2"/></defs><rect class="cls-1" x="29.86" width="118.23" height="19.59" rx="3.94"/><rect class="cls-2" x="4.13" y="19.59" width="165.41" height="8.71"/><path class="cls-3" d="M4.13,19.59l25.73-4.35c19.27-.71,39.51-1.11,60.63-1.09q30,0,57.6,1.09l21.45,4.35Z"/><path class="cls-4" d="M58.81,126.51h57.3v2a191.38,191.38,0,0,1-25.47,2,195.69,195.69,0,0,1-31.83-2Z"/><rect class="cls-5" x="23.79" y="112.31" width="127.33" height="9.81"/><path class="cls-6" d="M151.12,122.12,132,126.81c-10.12.56-26.3,1.24-46.49,1.19-18.25,0-33-.66-42.64-1.19l-19.1-4.69Z"/><path class="cls-7" d="M174.6,109.14l-18.38,5.07c-18.84.72-40.45,1.23-64.33,1.26-25.75,0-48.92-.5-68.92-1.26L0,109.14c27.61.81,58.41,1.32,91.89,1.27C121.79,110.36,149.48,109.88,174.6,109.14Z"/><path class="cls-8" d="M174.6,28.67v80.42c-25.12.78-52.81,1.31-82.71,1.36-33.48,0-64.28-.5-91.89-1.36V28.67c25.48-1.5,56.36-2.64,91.43-2.54C123,26.21,151,27.28,174.6,28.67Z"/><path class="cls-9" d="M22.51,105H.84v-3.77l9.77.59,11.9.73Z"/><path class="cls-10" d="M174.14,105h-23V102.5l23-1.32Z"/><rect class="cls-11" x="23.79" y="102.5" width="2.4" height="2.45"/><rect class="cls-12" x="30.85" y="102.5" width="7.01" height="2.45"/><rect class="cls-13" x="42.51" y="102.5" width="7.01" height="2.45"/><rect class="cls-14" x="124.16" y="102.5" width="7.01" height="2.45"/><rect class="cls-15" x="135.82" y="102.5" width="7.01" height="2.45"/><rect class="cls-16" x="147.48" y="102.5" width="2.12" height="2.45"/><path class="cls-17" d="M29.86,4.28C29.86,1.92,32.49,0,35.75,0H142.2c3.25,0,5.89,1.92,5.89,4.28Z"/><rect class="cls-18" x="29.86" y="4.35" width="118.23" height="1.09"/><path class="cls-19" d="M64.12,107.05a3.09,3.09,0,0,1-1.5-.37,2.78,2.78,0,0,1-1.1-1.08,4.13,4.13,0,0,1,0-3.65,3,3,0,0,1,1.13-1.14,2.93,2.93,0,0,1,1.5-.4,2.5,2.5,0,0,1,1.13.26,3.39,3.39,0,0,1,.84.59l-.88,1.08a2.83,2.83,0,0,0-.48-.34,1.2,1.2,0,0,0-.57-.13,1.22,1.22,0,0,0-1,.49,2,2,0,0,0-.42,1.36,2.23,2.23,0,0,0,.38,1.39,1.19,1.19,0,0,0,1,.48,1.29,1.29,0,0,0,.65-.17,2.19,2.19,0,0,0,.5-.38l.87,1.06A2.59,2.59,0,0,1,64.12,107.05Z"/><path class="cls-19" d="M69.36,107.05a2.75,2.75,0,0,1-2.13-.89,3.51,3.51,0,0,1-.81-2.46,3.4,3.4,0,0,1,.81-2.43,3.07,3.07,0,0,1,4.26,0,3.4,3.4,0,0,1,.81,2.43,3.51,3.51,0,0,1-.81,2.46A2.75,2.75,0,0,1,69.36,107.05Zm0-1.46a1,1,0,0,0,.9-.51,2.52,2.52,0,0,0,.33-1.38,2.36,2.36,0,0,0-.33-1.35,1.08,1.08,0,0,0-1.8,0,2.36,2.36,0,0,0-.33,1.35,2.52,2.52,0,0,0,.33,1.38A1,1,0,0,0,69.36,105.59Z"/><path class="cls-19" d="M73.43,106.93v-6.4h1.72l1.4,2.85.61,1.44h0c0-.34-.08-.73-.13-1.18a11.52,11.52,0,0,1-.08-1.26v-1.85h1.6v6.4H76.86l-1.4-2.87-.6-1.42h0c0,.36.08.76.13,1.2a8.89,8.89,0,0,1,.08,1.24v1.85Z"/><path class="cls-19" d="M80,106.93v-6.4h1.87a3.61,3.61,0,0,1,2.35.74,3,3,0,0,1,.91,2.43,3.09,3.09,0,0,1-.89,2.46,3.37,3.37,0,0,1-2.27.77Zm1.68-1.36h.09a1.79,1.79,0,0,0,1.16-.37,1.84,1.84,0,0,0,.48-1.5,1.74,1.74,0,0,0-.48-1.47,1.9,1.9,0,0,0-1.16-.34h-.09Z"/><path class="cls-19" d="M86.24,106.93v-6.4h4.09V102H87.91v1H90v1.42H87.91v1.14h2.52v1.42Z"/><path class="cls-19" d="M91.65,106.93v-6.4h1.72l1.4,2.85.61,1.44h0c0-.34-.08-.73-.13-1.18a11.52,11.52,0,0,1-.08-1.26v-1.85h1.6v6.4H95.08l-1.4-2.87-.6-1.42h0c0,.36.08.76.13,1.2a10.73,10.73,0,0,1,.08,1.24v1.85Z"/><path class="cls-19" d="M100.21,107.05a3.81,3.81,0,0,1-1.25-.23,3.3,3.3,0,0,1-1.15-.69l1-1.16a3.18,3.18,0,0,0,.73.45,1.93,1.93,0,0,0,.75.17q.72,0,.72-.45a.36.36,0,0,0-.23-.34c-.15-.08-.36-.17-.63-.28l-.79-.34a2.25,2.25,0,0,1-.89-.65,1.63,1.63,0,0,1-.38-1.13,1.81,1.81,0,0,1,.66-1.4,2.45,2.45,0,0,1,1.69-.59,3.12,3.12,0,0,1,1.11.21,2.83,2.83,0,0,1,1,.65l-.84,1.06a3,3,0,0,0-.62-.34,1.71,1.71,0,0,0-.65-.12c-.44,0-.66.14-.66.43a.38.38,0,0,0,.25.35c.17.08.4.18.69.29l.77.31a2,2,0,0,1,.91.66,1.7,1.7,0,0,1,.32,1.09,1.93,1.93,0,0,1-.64,1.43A2.55,2.55,0,0,1,100.21,107.05Z"/><path class="cls-19" d="M103.7,106.93v-6.4h4.09V102h-2.42v1h2.07v1.42h-2.07v1.14h2.52v1.42Z"/><path class="cls-19" d="M110.79,106.93h-1.68v-6.4h2.4a4,4,0,0,1,1.26.19,1.82,1.82,0,0,1,.92.63,2,2,0,0,1,.35,1.25,2.09,2.09,0,0,1-.28,1.14,2,2,0,0,1-.74.71l1.37,2.48h-1.87l-1.09-2.15h-.64Zm0-3.49h.6q1,0,1-.84a.61.61,0,0,0-.26-.57,1.43,1.43,0,0,0-.76-.16h-.6Z"/><path class="cls-19" d="M16.79,45.29l1.29-.39V43.31l-1.29-.38v-.74l4.58,1.51v.84l-4.58,1.52Zm2.48-1.62-.61-.18v1.24l.61-.18.75-.22.77-.21v0L20,43.89Z"/><path class="cls-19" d="M16.79,46.65h4.58v1.4a2.4,2.4,0,0,1-.3,1.26,1.18,1.18,0,0,1-1.09.5,1.28,1.28,0,0,1-1.11-.49,2.11,2.11,0,0,1-.35-1.24v-.69H16.79Zm2.32.74V48c0,.71.29,1.07.87,1.07a.68.68,0,0,0,.63-.28,1.49,1.49,0,0,0,.18-.82v-.59Z"/><path class="cls-19" d="M16.79,50.68h4.58v2.73h-.62v-2H19.49V53.1h-.62V51.42H17.4v2.06h-.61Z"/><path class="cls-19" d="M16.79,55.16v-.74h4.58v1.51a2.21,2.21,0,0,1-.29,1.19,1.14,1.14,0,0,1-1,.47,1.27,1.27,0,0,1-.85-.26,1.37,1.37,0,0,1-.46-.7l-1.94,1.12v-.82l1.84-1v-.75Zm2.43,0v.69c0,.68.27,1,.82,1a.64.64,0,0,0,.58-.25,1.45,1.45,0,0,0,.17-.76v-.69Z"/><path class="cls-19" d="M16.79,59.34h4V58h.62v3.42h-.62V60.08h-4Z"/><path class="cls-19" d="M16.7,63.89a1.67,1.67,0,0,1,.47-1.23,2.16,2.16,0,0,1,1.59-.48h2.61v.74H18.71a1.62,1.62,0,0,0-1.07.27.91.91,0,0,0-.3.7,1,1,0,0,0,.3.72,1.56,1.56,0,0,0,1.07.28h2.66v.7H18.76a2.21,2.21,0,0,1-1.59-.46A1.67,1.67,0,0,1,16.7,63.89Z"/><path class="cls-19" d="M16.79,67.5v-.73h4.58v1.51a2.15,2.15,0,0,1-.29,1.18,1.12,1.12,0,0,1-1,.48,1.33,1.33,0,0,1-.85-.26,1.41,1.41,0,0,1-.46-.7L16.79,70.1v-.82l1.84-1V67.5Zm2.43,0v.7c0,.67.27,1,.82,1a.63.63,0,0,0,.58-.26,1.39,1.39,0,0,0,.17-.75v-.7Z"/><path class="cls-19" d="M16.79,70.86h4.58v2.72h-.62v-2H19.49v1.68h-.62V71.59H17.4v2.06h-.61Z"/><path class="cls-19" d="M50.89,45.29l1.29-.39V43.31l-1.29-.38v-.74l4.58,1.51v.84l-4.58,1.52Zm2.48-1.62-.6-.18v1.24l.6-.18.75-.22.77-.21v0l-.77-.21Z"/><path class="cls-19" d="M50.89,46.65h4.58v1.4a2.4,2.4,0,0,1-.3,1.26,1.18,1.18,0,0,1-1.09.5,1.25,1.25,0,0,1-1.1-.49,2,2,0,0,1-.36-1.24v-.69H50.89Zm2.32.74V48c0,.71.29,1.07.87,1.07a.68.68,0,0,0,.63-.28,1.49,1.49,0,0,0,.18-.82v-.59Z"/><path class="cls-19" d="M50.89,50.68h4.58v2.73h-.62v-2H53.59V53.1H53V51.42H51.51v2.06h-.62Z"/><path class="cls-19" d="M50.89,55.16v-.74h4.58v1.51a2.21,2.21,0,0,1-.29,1.19,1.14,1.14,0,0,1-1,.47,1.27,1.27,0,0,1-.85-.26,1.37,1.37,0,0,1-.46-.7l-1.94,1.12v-.82l1.84-1v-.75Zm2.43,0v.69c0,.68.27,1,.82,1a.64.64,0,0,0,.58-.25,1.45,1.45,0,0,0,.17-.76v-.69Z"/><path class="cls-19" d="M50.89,59.34h4V58h.62v3.42h-.62V60.08h-4Z"/><path class="cls-19" d="M50.81,63.89a1.66,1.66,0,0,1,.46-1.23,2.16,2.16,0,0,1,1.59-.48h2.61v.74H52.81a1.62,1.62,0,0,0-1.07.27.91.91,0,0,0-.3.7,1,1,0,0,0,.3.72,1.56,1.56,0,0,0,1.07.28h2.66v.7H52.86a2.21,2.21,0,0,1-1.59-.46A1.67,1.67,0,0,1,50.81,63.89Z"/><path class="cls-19" d="M50.89,67.5v-.73h4.58v1.51a2.15,2.15,0,0,1-.29,1.18,1.12,1.12,0,0,1-1,.48,1.33,1.33,0,0,1-.85-.26,1.41,1.41,0,0,1-.46-.7L50.89,70.1v-.82l1.84-1V67.5Zm2.43,0v.7c0,.67.27,1,.82,1a.63.63,0,0,0,.58-.26,1.39,1.39,0,0,0,.17-.75v-.7Z"/><path class="cls-19" d="M50.89,70.86h4.58v2.72h-.62v-2H53.59v1.68H53V71.59H51.51v2.06h-.62Z"/><path class="cls-19" d="M85,45.29l1.3-.39V43.31L85,42.93v-.74l4.59,1.51v.84L85,46.06Zm2.48-1.62-.6-.18v1.24l.6-.18.76-.22.77-.21v0l-.78-.21Z"/><path class="cls-19" d="M85,46.65h4.59v1.4a2.31,2.31,0,0,1-.31,1.26,1.16,1.16,0,0,1-1.08.5,1.28,1.28,0,0,1-1.11-.49,2,2,0,0,1-.36-1.24v-.69H85Zm2.32.74V48c0,.71.29,1.07.88,1.07a.68.68,0,0,0,.62-.28A1.49,1.49,0,0,0,89,48v-.59Z"/><path class="cls-19" d="M85,50.68h4.59v2.73H89v-2H87.7V53.1h-.63V51.42H85.61v2.06H85Z"/><path class="cls-19" d="M85,55.16v-.74h4.59v1.51a2.21,2.21,0,0,1-.3,1.19,1.13,1.13,0,0,1-1,.47,1.29,1.29,0,0,1-.85-.26,1.37,1.37,0,0,1-.46-.7L85,57.75v-.82l1.84-1v-.75Zm2.43,0v.69c0,.68.28,1,.82,1a.63.63,0,0,0,.58-.25,1.45,1.45,0,0,0,.17-.76v-.69Z"/><path class="cls-19" d="M85,59.34h4V58h.62v3.42H89V60.08H85Z"/><path class="cls-19" d="M84.91,63.89a1.63,1.63,0,0,1,.47-1.23A2.13,2.13,0,0,1,87,62.18h2.62v.74H86.92a1.64,1.64,0,0,0-1.08.27.9.9,0,0,0-.29.7.94.94,0,0,0,.29.72,1.57,1.57,0,0,0,1.08.28h2.66v.7H87a2.18,2.18,0,0,1-1.58-.46A1.64,1.64,0,0,1,84.91,63.89Z"/><path class="cls-19" d="M85,67.5v-.73h4.59v1.51a2.15,2.15,0,0,1-.3,1.18,1.11,1.11,0,0,1-1,.48,1.35,1.35,0,0,1-.85-.26,1.41,1.41,0,0,1-.46-.7L85,70.1v-.82l1.84-1V67.5Zm2.43,0v.7c0,.67.28,1,.82,1a.62.62,0,0,0,.58-.26A1.39,1.39,0,0,0,89,68.2v-.7Z"/><path class="cls-19" d="M85,70.86h4.59v2.72H89v-2H87.7v1.68h-.63V71.59H85.61v2.06H85Z"/><path class="cls-19" d="M119.1,45.29l1.29-.39V43.31l-1.29-.38v-.74l4.58,1.51v.84l-4.58,1.52Zm2.47-1.62-.6-.18v1.24l.6-.18.76-.22.77-.21v0l-.77-.21Z"/><path class="cls-19" d="M119.1,46.65h4.58v1.4a2.4,2.4,0,0,1-.3,1.26,1.19,1.19,0,0,1-1.09.5,1.28,1.28,0,0,1-1.11-.49,2.11,2.11,0,0,1-.35-1.24v-.69H119.1Zm2.31.74V48c0,.71.3,1.07.88,1.07a.68.68,0,0,0,.63-.28,1.59,1.59,0,0,0,.17-.82v-.59Z"/><path class="cls-19" d="M119.1,50.68h4.58v2.73h-.62v-2H121.8V53.1h-.62V51.42h-1.47v2.06h-.61Z"/><path class="cls-19" d="M119.1,55.16v-.74h4.58v1.51a2.3,2.3,0,0,1-.29,1.19,1.15,1.15,0,0,1-1,.47,1.3,1.3,0,0,1-.86-.26,1.42,1.42,0,0,1-.45-.7l-1.94,1.12v-.82l1.84-1v-.75Zm2.43,0v.69c0,.68.27,1,.82,1a.65.65,0,0,0,.58-.25,1.46,1.46,0,0,0,.16-.76v-.69Z"/><path class="cls-19" d="M119.1,59.34h4V58h.62v3.42h-.62V60.08h-4Z"/><path class="cls-19" d="M119,63.89a1.67,1.67,0,0,1,.47-1.23,2.15,2.15,0,0,1,1.58-.48h2.62v.74H121a1.6,1.6,0,0,0-1.07.27.91.91,0,0,0-.3.7,1,1,0,0,0,.3.72,1.54,1.54,0,0,0,1.07.28h2.66v.7h-2.62a2.19,2.19,0,0,1-1.58-.46A1.67,1.67,0,0,1,119,63.89Z"/><path class="cls-19" d="M119.1,67.5v-.73h4.58v1.51a2.24,2.24,0,0,1-.29,1.18,1.13,1.13,0,0,1-1,.48,1.36,1.36,0,0,1-.86-.26A1.47,1.47,0,0,1,121,69L119.1,70.1v-.82l1.84-1V67.5Zm2.43,0v.7c0,.67.27,1,.82,1a.64.64,0,0,0,.58-.26,1.39,1.39,0,0,0,.16-.75v-.7Z"/><path class="cls-19" d="M119.1,70.86h4.58v2.72h-.62v-2H121.8v1.68h-.62V71.59h-1.47v2.06h-.61Z"/><path class="cls-19" d="M155,44.14a1.68,1.68,0,0,1,.52-1.25,2.14,2.14,0,0,1,1.5-.5,2.1,2.1,0,0,1,1.51.52,1.66,1.66,0,0,1,.54,1.26,1.38,1.38,0,0,1-.15.65,1.67,1.67,0,0,1-.34.46l-.41-.33a1.4,1.4,0,0,0,.25-.35.82.82,0,0,0,.1-.42,1,1,0,0,0-.4-.82A1.62,1.62,0,0,0,157,43a1.82,1.82,0,0,0-1.1.3,1,1,0,0,0-.4.83.94.94,0,0,0,.12.47,1.36,1.36,0,0,0,.3.39l-.39.34a1.72,1.72,0,0,1-.43-.55A1.65,1.65,0,0,1,155,44.14Z"/><path class="cls-19" d="M155,47.36a1.55,1.55,0,0,1,.55-1.24,2.26,2.26,0,0,1,1.5-.47,2.19,2.19,0,0,1,1.48.47,1.69,1.69,0,0,1,0,2.48,2.19,2.19,0,0,1-1.48.47,2.26,2.26,0,0,1-1.5-.47A1.55,1.55,0,0,1,155,47.36Zm.54,0a.9.9,0,0,0,.41.77,1.82,1.82,0,0,0,1.1.3,1.77,1.77,0,0,0,1.08-.3,1,1,0,0,0,0-1.54,1.77,1.77,0,0,0-1.08-.29,1.82,1.82,0,0,0-1.1.29A.9.9,0,0,0,155.54,47.36Z"/><path class="cls-19" d="M155.07,49.88H159v.65l-2.3,1.29-.83.41v0l.64,0,.67,0H159v.59h-3.93v-.64l2.3-1.29.82-.41v0l-.63.05-.66,0h-1.83Z"/><path class="cls-19" d="M155.07,53.8H159v1a1.9,1.9,0,0,1-.5,1.4,2,2,0,0,1-1.45.49,2,2,0,0,1-1.47-.49,1.81,1.81,0,0,1-.51-1.37Zm.51.63v.36q0,1.29,1.47,1.29t1.44-1.29v-.36Z"/><path class="cls-19" d="M155.07,57.53H159v2.34h-.54V58.16h-1.08V59.6h-.53V58.16H155.6v1.77h-.53Z"/><path class="cls-19" d="M155.07,60.74H159v.65l-2.3,1.29-.83.41v0l.64,0c.23,0,.45,0,.67,0H159v.59h-3.93V63l2.3-1.3.82-.41v0l-.63.05-.66,0h-1.83Z"/><path class="cls-19" d="M155,65.78a2,2,0,0,1,.15-.76,1.83,1.83,0,0,1,.42-.63l.43.36a1.91,1.91,0,0,0-.33.49,1.23,1.23,0,0,0-.13.55.88.88,0,0,0,.15.55.53.53,0,0,0,.4.19.41.41,0,0,0,.38-.18,3.06,3.06,0,0,0,.24-.45l.24-.54a1.82,1.82,0,0,1,.36-.54.89.89,0,0,1,.67-.26,1,1,0,0,1,.78.36,1.39,1.39,0,0,1,.31.93,1.66,1.66,0,0,1-.14.66,1.55,1.55,0,0,1-.36.53l-.4-.32a1.45,1.45,0,0,0,.26-.4,1.16,1.16,0,0,0,.09-.47.84.84,0,0,0-.13-.47.44.44,0,0,0-.37-.19.42.42,0,0,0-.37.2,3.61,3.61,0,0,0-.22.44l-.23.54a1.69,1.69,0,0,1-.39.57.93.93,0,0,1-.66.23,1.07,1.07,0,0,1-.82-.37A1.49,1.49,0,0,1,155,65.78Z"/><path class="cls-19" d="M155.07,67.9H159v2.34h-.54V68.53h-1.08V70h-.53V68.53H155.6v1.76h-.53Z"/><path class="cls-19" d="M155.07,71.74V71.1H159v1.3a2,2,0,0,1-.25,1,1,1,0,0,1-.9.4,1.13,1.13,0,0,1-.73-.22,1.26,1.26,0,0,1-.39-.6l-1.66,1v-.71l1.58-.87v-.64Zm2.08,0v.59c0,.58.23.87.7.87a.57.57,0,0,0,.5-.22,1.18,1.18,0,0,0,.14-.65v-.59Z"/><path class="cls-19" d="M147.87,51.93h3.93v.63h-3.41v1.66h-.52Z"/><path class="cls-19" d="M147.87,54.91h3.93v2.33h-.54v-1.7h-1.08V57h-.53V55.54h-1.26V57.3h-.52Z"/><path class="cls-19" d="M147.87,58.11h3.93v.65l-2.3,1.29-.83.41v0l.64-.05.67,0h1.82V61h-3.93v-.64l2.3-1.29.82-.41v0l-.64.06-.65,0h-1.83Z"/><path class="cls-19" d="M147.8,63.16a2,2,0,0,1,.15-.77,1.93,1.93,0,0,1,.42-.63l.43.37a2,2,0,0,0-.33.48,1.43,1.43,0,0,0-.13.56.83.83,0,0,0,.15.54.5.5,0,0,0,.4.19.42.42,0,0,0,.38-.17,3.06,3.06,0,0,0,.24-.45l.24-.55a1.82,1.82,0,0,1,.36-.54.89.89,0,0,1,.67-.26,1,1,0,0,1,.78.37,1.36,1.36,0,0,1,.31.93,1.58,1.58,0,0,1-.14.65,1.7,1.7,0,0,1-.36.54l-.4-.33a1.4,1.4,0,0,0,.26-.39,1.19,1.19,0,0,0,.09-.47.88.88,0,0,0-.13-.48.45.45,0,0,0-.37-.18.42.42,0,0,0-.37.2,3.61,3.61,0,0,0-.22.44l-.23.54a1.69,1.69,0,0,1-.39.57.92.92,0,0,1-.66.22,1.09,1.09,0,0,1-.82-.36A1.49,1.49,0,0,1,147.8,63.16Z"/><path class="cls-20" d="M19.4,36.09a3.42,3.42,0,0,0-.45,0,3.69,3.69,0,0,0-.58,0,4.87,4.87,0,0,0-.55.06c-4.74.62-8.46,10.34-8.41,22.15.06,12.15,4.1,21.9,9,21.8A4,4,0,0,0,19,80h0a3.64,3.64,0,0,0,.57,0c4.92-.11,8.86-10,8.8-22.18S24.32,36,19.4,36.09Z"/><path class="cls-20" d="M154.85,36.09a3.42,3.42,0,0,0-.45,0,3.64,3.64,0,0,0-.57,0,5,5,0,0,0-.56.06c-4.73.62-8.46,10.34-8.4,22.15.06,12.15,4.09,21.9,9,21.8a3.81,3.81,0,0,0,.59-.07h0a3.77,3.77,0,0,0,.58,0c4.92-.11,8.86-10,8.8-22.18S159.77,36,154.85,36.09Z"/><path class="cls-20" d="M53.41,36.09a3.42,3.42,0,0,0-.45,0,3.64,3.64,0,0,0-.57,0,5,5,0,0,0-.56.06c-4.73.62-8.46,10.34-8.4,22.15.06,12.15,4.09,21.9,9,21.8A3.81,3.81,0,0,0,53,80h0a3.77,3.77,0,0,0,.58,0c4.92-.11,8.86-10,8.8-22.18S58.33,36,53.41,36.09Z"/><path class="cls-20" d="M88.09,36.09a3.42,3.42,0,0,0-.46,0,3.64,3.64,0,0,0-.57,0,5.32,5.32,0,0,0-.56.06c-4.73.62-8.46,10.34-8.4,22.15.06,12.15,4.09,21.9,9,21.8A3.81,3.81,0,0,0,87.7,80h0a3.86,3.86,0,0,0,.58,0c4.92-.11,8.86-10,8.8-22.18S93,36,88.09,36.09Z"/><path class="cls-20" d="M122.59,36.09a3.42,3.42,0,0,0-.45,0,3.69,3.69,0,0,0-.58,0,5.14,5.14,0,0,0-.55.06c-4.74.62-8.46,10.34-8.41,22.15.06,12.15,4.1,21.9,9,21.8a4,4,0,0,0,.59-.07h0a3.69,3.69,0,0,0,.58,0c4.91-.11,8.85-10,8.79-22.18S127.51,36,122.59,36.09Z"/></svg>