<svg id="Layer_1" data-name="Layer 1" xmlns="http://www.w3.org/2000/svg" xmlns:xlink="http://www.w3.org/1999/xlink" viewBox="0 0 75.8 170.44"><defs><style>.cls-1{fill:url(#linear-gradient);}.cls-2{fill:url(#linear-gradient-2);}.cls-3{fill:url(#linear-gradient-3);}.cls-4{fill:url(#linear-gradient-4);}.cls-5{fill:url(#linear-gradient-5);}.cls-6{fill:url(#linear-gradient-6);}.cls-7{fill:#fff;}.cls-8{fill:#140000;}.cls-9{fill:url(#linear-gradient-7);}.cls-10{fill:url(#linear-gradient-8);}.cls-11{fill:url(#linear-gradient-9);}.cls-12{fill:url(#linear-gradient-10);}.cls-13{fill:url(#linear-gradient-11);}.cls-14{font-size:8px;font-family:Mada-Black, Mada;font-weight:800;}.cls-15{letter-spacing:-0.02em;}.cls-16{letter-spacing:-0.12em;}</style><linearGradient id="linear-gradient" x1="19.5" y1="149.73" x2="55.3" y2="149.73" gradientUnits="userSpaceOnUse"><stop offset="0" stop-color="#1a1a1a"/><stop offset="0.06" stop-color="#424041"/><stop offset="0.11" stop-color="#615e5f"/><stop offset="0.16" stop-color="#747071"/><stop offset="0.19" stop-color="#7b7778"/><stop offset="0.5" stop-color="#666"/><stop offset="0.78" stop-color="#ccc"/><stop offset="1" stop-color="#1a1a1a"/></linearGradient><linearGradient id="linear-gradient-2" x1="19.5" y1="147.08" x2="55.3" y2="147.08" gradientUnits="userSpaceOnUse"><stop offset="0" stop-color="#1a1a1a"/><stop offset="0.02" stop-color="#1d1d1d"/><stop offset="0.35" stop-color="#404040"/><stop offset="0.52" stop-color="#4d4d4d"/><stop offset="0.64" stop-color="#3d3d3d"/><stop offset="0.87" stop-color="#232323"/><stop offset="1" stop-color="#1a1a1a"/></linearGradient><linearGradient id="linear-gradient-3" x1="2502.07" y1="2652.88" x2="2510.71" y2="2652.88" gradientTransform="translate(-2468.49 -2515.22)" xlink:href="#linear-gradient"/><linearGradient id="linear-gradient-4" x1="37.68" y1="130.76" x2="37.68" gradientUnits="userSpaceOnUse"><stop offset="0.06" stop-color="#1a1a1a"/><stop offset="0.51" stop-color="#4d4d4d"/><stop offset="1" stop-color="#525252"/></linearGradient><linearGradient id="linear-gradient-5" x1="79.29" y1="88.18" x2="0.32" y2="42.58" xlink:href="#linear-gradient"/><linearGradient id="linear-gradient-6" x1="-5181.07" y1="-1133.1" x2="-5181.07" y2="-1178.28" gradientTransform="matrix(0, -1, -1, 0, -1116.25, -5084.52)" gradientUnits="userSpaceOnUse"><stop offset="0.02" stop-color="#666"/><stop offset="0.02" stop-color="#6e6e6e"/><stop offset="0.05" stop-color="#999899"/><stop offset="0.07" stop-color="#b8b7b8"/><stop offset="0.09" stop-color="#cbcacb"/><stop offset="0.11" stop-color="#d2d1d2"/><stop offset="0.18" stop-color="#c5c4c5"/><stop offset="0.29" stop-color="#979696"/><stop offset="0.33" stop-color="#919090"/><stop offset="0.5" stop-color="#f2f2f2"/><stop offset="0.78" stop-color="#c9c8c8"/><stop offset="0.85" stop-color="#fff"/><stop offset="1" stop-color="#4d4d4d"/></linearGradient><linearGradient id="linear-gradient-7" x1="-5169.24" y1="-1133.1" x2="-5169.24" y2="-1178.28" xlink:href="#linear-gradient-6"/><linearGradient id="linear-gradient-8" x1="-5157.4" y1="-1133.1" x2="-5157.4" y2="-1178.28" xlink:href="#linear-gradient-6"/><linearGradient id="linear-gradient-9" x1="-5145.57" y1="-1133.1" x2="-5145.57" y2="-1178.28" xlink:href="#linear-gradient-6"/><linearGradient id="linear-gradient-10" x1="-5133.73" y1="-1133.1" x2="-5133.73" y2="-1178.28" xlink:href="#linear-gradient-6"/><linearGradient id="linear-gradient-11" x1="-5121.9" y1="-1133.1" x2="-5121.9" y2="-1178.28" xlink:href="#linear-gradient-6"/></defs><path class="cls-1" d="M20,147.08v4a121.27,121.27,0,0,0,19.23,1.32A122.1,122.1,0,0,0,55.8,151v-4a116,116,0,0,1-16.91,1.32h-.33A127.24,127.24,0,0,1,20,147.08Z"/><ellipse class="cls-2" cx="37.9" cy="147.08" rx="17.9" ry="1.63"/><path class="cls-3" d="M42.22,127.86v18.92a14.18,14.18,0,0,1-8.64,0V127.86Z"/><ellipse class="cls-4" cx="37.68" cy="65.38" rx="37.68" ry="65.38"/><ellipse class="cls-5" cx="39.81" cy="65.38" rx="36" ry="65.38"/><ellipse cx="39.59" cy="65.38" rx="30.59" ry="60.77"/><path class="cls-6" d="M62,98.15V92.39a111.18,111.18,0,0,1-21.41,2.3,112,112,0,0,1-23.78-2.3v5.76S39.45,103.91,62,98.15Z"/><path class="cls-7" d="M62,98.15V92.39a111.18,111.18,0,0,1-21.41,2.3,112,112,0,0,1-23.78-2.3v5.76S39.45,103.91,62,98.15Z"/><path class="cls-8" d="M26.37,99.34v-3.9H28.9v.86H27.41v.62h1.27v.86H27.41v.7H29v.86Z"/><path class="cls-8" d="M29.71,99.34v-3.9h1.11L31.4,97a2.75,2.75,0,0,1,.1.34c0,.11.07.23.11.34h0c0-.11.07-.23.1-.34s.07-.24.1-.34l.57-1.6h1.1v3.9h-.93V98.19a6.28,6.28,0,0,1,0-.7q.06-.4.09-.69h0l-.33.93L31.87,99h-.55l-.48-1.29-.31-.93h0q0,.28.09.69a6.55,6.55,0,0,1,.05.7v1.15Z"/><path class="cls-8" d="M34.2,98.18v-.72h1.51v.72Z"/><path class="cls-8" d="M36.41,99.34v-3.9H39v.86H37.44v.75h1.3v.86h-1.3v1.43Z"/><path class="cls-8" d="M39.62,99.34v-3.9h1v3.9Z"/><path class="cls-8" d="M41.52,99.34v-3.9h1v3H44v.86Z"/><path class="cls-8" d="M44.72,99.34v-3h-1v-.86h3.1v.86h-1v3Z"/><path class="cls-8" d="M47.36,99.34v-3.9h2.52v.86H48.39v.62h1.28v.86H48.39v.7h1.55v.86Z"/><path class="cls-8" d="M51.73,99.34h-1v-3.9h1.47a2.77,2.77,0,0,1,.78.11,1.27,1.27,0,0,1,.57.39,1.23,1.23,0,0,1,.21.76,1.28,1.28,0,0,1-.17.7,1.35,1.35,0,0,1-.46.43L54,99.34H52.8L52.13,98h-.4Zm0-2.12h.37c.42,0,.63-.18.63-.52a.39.39,0,0,0-.16-.35,1,1,0,0,0-.47-.09h-.37Z"/><path class="cls-9" d="M62,86.31V80.55a111.1,111.1,0,0,1-21.41,2.31,111.23,111.23,0,0,1-23.78-2.31v5.76S39.45,92.07,62,86.31Z"/><path class="cls-7" d="M62,86.31V80.55a111.1,111.1,0,0,1-21.41,2.31,111.23,111.23,0,0,1-23.78-2.31v5.76S39.45,92.07,62,86.31Z"/><path class="cls-8" d="M26.37,87.5V83.6H28.9v.87H27.41v.61h1.27v.86H27.41v.7H29v.86Z"/><path class="cls-8" d="M29.71,87.5V83.6h1.11l.58,1.6a3.37,3.37,0,0,1,.1.34c0,.12.07.23.11.34h0a3.37,3.37,0,0,0,.1-.34c0-.12.07-.23.1-.34l.57-1.6h1.1v3.9h-.93V86.35a6.28,6.28,0,0,1,0-.7q.06-.39.09-.69h0l-.33.94-.48,1.29h-.55l-.48-1.29L30.53,85h0q0,.3.09.69a6.55,6.55,0,0,1,.05.7V87.5Z"/><path class="cls-8" d="M34.2,86.34v-.72h1.51v.72Z"/><path class="cls-8" d="M36.41,87.5V83.6H39v.87H37.44v.74h1.3v.87h-1.3V87.5Z"/><path class="cls-8" d="M39.62,87.5V83.6h1v3.9Z"/><path class="cls-8" d="M41.52,87.5V83.6h1v3H44v.86Z"/><path class="cls-8" d="M44.72,87.5v-3h-1V83.6h3.1v.87h-1v3Z"/><path class="cls-8" d="M47.36,87.5V83.6h2.52v.87H48.39v.61h1.28v.86H48.39v.7h1.55v.86Z"/><path class="cls-8" d="M51.73,87.5h-1V83.6h1.47a2.45,2.45,0,0,1,.78.12,1.13,1.13,0,0,1,.57.39,1.19,1.19,0,0,1,.21.75A1.18,1.18,0,0,1,53.1,86L54,87.5H52.8l-.67-1.3h-.4Zm0-2.12h.37c.42,0,.63-.17.63-.52a.38.38,0,0,0-.16-.34.86.86,0,0,0-.47-.1h-.37Z"/><path class="cls-10" d="M62,74.48V68.72A112,112,0,0,1,40.63,71a112,112,0,0,1-23.78-2.3v5.76S39.45,80.24,62,74.48Z"/><path class="cls-7" d="M62,74.48V68.72A112,112,0,0,1,40.63,71a112,112,0,0,1-23.78-2.3v5.76S39.45,80.24,62,74.48Z"/><path class="cls-8" d="M26.37,75.67v-3.9H28.9v.86H27.41v.62h1.27v.86H27.41v.7H29v.86Z"/><path class="cls-8" d="M29.71,75.67v-3.9h1.11l.58,1.6a3.18,3.18,0,0,1,.1.33c0,.12.07.24.11.35h0a3.57,3.57,0,0,0,.1-.35c0-.11.07-.23.1-.33l.57-1.6h1.1v3.9h-.93V74.52a6.16,6.16,0,0,1,0-.7q.06-.41.09-.69h0l-.33.93-.48,1.29h-.55l-.48-1.29-.31-.93h0q0,.28.09.69a6.38,6.38,0,0,1,.05.7v1.15Z"/><path class="cls-8" d="M34.2,74.51v-.72h1.51v.72Z"/><path class="cls-8" d="M36.41,75.67v-3.9H39v.86H37.44v.75h1.3v.86h-1.3v1.43Z"/><path class="cls-8" d="M39.62,75.67v-3.9h1v3.9Z"/><path class="cls-8" d="M41.52,75.67v-3.9h1v3H44v.86Z"/><path class="cls-8" d="M44.72,75.67v-3h-1v-.86h3.1v.86h-1v3Z"/><path class="cls-8" d="M47.36,75.67v-3.9h2.52v.86H48.39v.62h1.28v.86H48.39v.7h1.55v.86Z"/><path class="cls-8" d="M51.73,75.67h-1v-3.9h1.47a2.77,2.77,0,0,1,.78.11,1.27,1.27,0,0,1,.57.39,1.23,1.23,0,0,1,.21.76,1.28,1.28,0,0,1-.17.7,1.35,1.35,0,0,1-.46.43L54,75.67H52.8l-.67-1.31h-.4Zm0-2.12h.37c.42,0,.63-.18.63-.52a.39.39,0,0,0-.16-.35,1,1,0,0,0-.47-.09h-.37Z"/><path class="cls-11" d="M62,62.64V56.88a111.1,111.1,0,0,1-21.41,2.31,111.23,111.23,0,0,1-23.78-2.31v5.76S39.45,68.4,62,62.64Z"/><path class="cls-7" d="M62,62.64V56.88a111.1,111.1,0,0,1-21.41,2.31,111.23,111.23,0,0,1-23.78-2.31v5.76S39.45,68.4,62,62.64Z"/><path class="cls-8" d="M26.37,63.83v-3.9H28.9v.87H27.41v.61h1.27v.86H27.41V63H29v.86Z"/><path class="cls-8" d="M29.71,63.83v-3.9h1.11l.58,1.6a3.37,3.37,0,0,1,.1.34c0,.12.07.23.11.34h0a3.37,3.37,0,0,0,.1-.34c0-.12.07-.23.1-.34l.57-1.6h1.1v3.9h-.93V62.68a6.28,6.28,0,0,1,0-.7q.06-.39.09-.69h0l-.33.94-.48,1.29h-.55l-.48-1.29-.31-.94h0q0,.3.09.69a6.55,6.55,0,0,1,.05.7v1.15Z"/><path class="cls-8" d="M34.2,62.67V62h1.51v.72Z"/><path class="cls-8" d="M36.41,63.83v-3.9H39v.87H37.44v.74h1.3v.87h-1.3v1.42Z"/><path class="cls-8" d="M39.62,63.83v-3.9h1v3.9Z"/><path class="cls-8" d="M41.52,63.83v-3.9h1v3H44v.86Z"/><path class="cls-8" d="M44.72,63.83v-3h-1v-.87h3.1v.87h-1v3Z"/><path class="cls-8" d="M47.36,63.83v-3.9h2.52v.87H48.39v.61h1.28v.86H48.39V63h1.55v.86Z"/><path class="cls-8" d="M51.73,63.83h-1v-3.9h1.47a2.45,2.45,0,0,1,.78.12,1.18,1.18,0,0,1,.57.38,1.5,1.5,0,0,1,0,1.46,1.26,1.26,0,0,1-.46.43L54,63.83H52.8l-.67-1.3h-.4Zm0-2.12h.37c.42,0,.63-.17.63-.52a.38.38,0,0,0-.16-.34.86.86,0,0,0-.47-.1h-.37Z"/><path class="cls-12" d="M62,50.81V45.05a112,112,0,0,1-21.41,2.3,112,112,0,0,1-23.78-2.3v5.76S39.45,56.57,62,50.81Z"/><path class="cls-7" d="M62,50.81V45.05a112,112,0,0,1-21.41,2.3,112,112,0,0,1-23.78-2.3v5.76S39.45,56.57,62,50.81Z"/><path class="cls-8" d="M26.37,52V48.1H28.9V49H27.41v.61h1.27v.87H27.41v.69H29V52Z"/><path class="cls-8" d="M29.71,52V48.1h1.11l.58,1.59a3.37,3.37,0,0,1,.1.34c0,.12.07.24.11.35h0a3.57,3.57,0,0,0,.1-.35c0-.12.07-.23.1-.34l.57-1.59h1.1V52h-.93V50.85a6.16,6.16,0,0,1,0-.7c0-.27.07-.5.09-.7h0l-.33.94-.48,1.29h-.55l-.48-1.29-.31-.94h0c0,.2.06.43.09.7a6.38,6.38,0,0,1,.05.7V52Z"/><path class="cls-8" d="M34.2,50.83v-.72h1.51v.72Z"/><path class="cls-8" d="M36.41,52V48.1H39V49H37.44v.75h1.3v.86h-1.3V52Z"/><path class="cls-8" d="M39.62,52V48.1h1V52Z"/><path class="cls-8" d="M41.52,52V48.1h1v3H44V52Z"/><path class="cls-8" d="M44.72,52V49h-1V48.1h3.1V49h-1v3Z"/><path class="cls-8" d="M47.36,52V48.1h2.52V49H48.39v.61h1.28v.87H48.39v.69h1.55V52Z"/><path class="cls-8" d="M51.73,52h-1V48.1h1.47a2.77,2.77,0,0,1,.78.11,1.27,1.27,0,0,1,.57.39,1.21,1.21,0,0,1,.21.76,1.22,1.22,0,0,1-.17.69,1.29,1.29,0,0,1-.46.44L54,52H52.8l-.67-1.31h-.4Zm0-2.13h.37q.63,0,.63-.51a.38.38,0,0,0-.16-.35,1,1,0,0,0-.47-.1h-.37Z"/><path class="cls-13" d="M62,39V33.21a111.9,111.9,0,0,1-21.41,2.31,111.88,111.88,0,0,1-23.78-2.31V39S39.45,44.73,62,39Z"/><path class="cls-7" d="M62,39V33.21a111.9,111.9,0,0,1-21.41,2.31,111.88,111.88,0,0,1-23.78-2.31V39S39.45,44.73,62,39Z"/><path class="cls-8" d="M26.37,40.16v-3.9H28.9v.87H27.41v.61h1.27v.86H27.41v.7H29v.86Z"/><path class="cls-8" d="M29.71,40.16v-3.9h1.11l.58,1.6a3.37,3.37,0,0,1,.1.34c0,.11.07.23.11.34h0c0-.11.07-.23.1-.34s.07-.23.1-.34l.57-1.6h1.1v3.9h-.93V39a6.28,6.28,0,0,1,0-.7q.06-.41.09-.69h0l-.33.93-.48,1.29h-.55l-.48-1.29-.31-.93h0q0,.29.09.69a6.55,6.55,0,0,1,.05.7v1.15Z"/><path class="cls-8" d="M34.2,39v-.72h1.51V39Z"/><path class="cls-8" d="M36.41,40.16v-3.9H39v.87H37.44v.74h1.3v.86h-1.3v1.43Z"/><path class="cls-8" d="M39.62,40.16v-3.9h1v3.9Z"/><path class="cls-8" d="M41.52,40.16v-3.9h1v3H44v.86Z"/><path class="cls-8" d="M44.72,40.16v-3h-1v-.87h3.1v.87h-1v3Z"/><path class="cls-8" d="M47.36,40.16v-3.9h2.52v.87H48.39v.61h1.28v.86H48.39v.7h1.55v.86Z"/><path class="cls-8" d="M51.73,40.16h-1v-3.9h1.47a2.45,2.45,0,0,1,.78.12,1.18,1.18,0,0,1,.57.38,1.25,1.25,0,0,1,.21.76,1.18,1.18,0,0,1-.63,1.13L54,40.16H52.8l-.67-1.31h-.4Zm0-2.12h.37c.42,0,.63-.17.63-.52a.39.39,0,0,0-.16-.35,1,1,0,0,0-.47-.09h-.37Z"/><text class="cls-14" transform="translate(20.35 162.69)">EMI<tspan class="cls-15" x="13.18" y="0">S</tspan><tspan x="17.54" y="0">SION </tspan><tspan x="-6.9" y="7.5">FI</tspan><tspan class="cls-16" x="-0.08" y="7.5">L</tspan><tspan x="3.2" y="7.5">TER WHEEL</tspan></text></svg>