<svg id="Layer_1" data-name="Layer 1" xmlns="http://www.w3.org/2000/svg" xmlns:xlink="http://www.w3.org/1999/xlink" viewBox="0 0 75.8 152.37"><defs><style>.cls-1{fill:url(#linear-gradient);}.cls-2{fill:url(#linear-gradient-2);}.cls-3{fill:url(#linear-gradient-3);}.cls-4{fill:url(#linear-gradient-4);}.cls-5{fill:url(#linear-gradient-5);}.cls-6{fill:#fff;}.cls-7{fill:#140000;}.cls-8{font-size:4.63px;fill:#b3b3b3;font-family:Mada-Black, Mada;font-weight:800;}.cls-9{letter-spacing:-0.12em;}</style><linearGradient id="linear-gradient" x1="19.5" y1="149.73" x2="55.3" y2="149.73" gradientUnits="userSpaceOnUse"><stop offset="0" stop-color="#1a1a1a"/><stop offset="0.06" stop-color="#424041"/><stop offset="0.11" stop-color="#615e5f"/><stop offset="0.16" stop-color="#747071"/><stop offset="0.19" stop-color="#7b7778"/><stop offset="0.5" stop-color="#666"/><stop offset="0.78" stop-color="#ccc"/><stop offset="1" stop-color="#1a1a1a"/></linearGradient><linearGradient id="linear-gradient-2" x1="19.5" y1="147.08" x2="55.3" y2="147.08" gradientUnits="userSpaceOnUse"><stop offset="0" stop-color="#1a1a1a"/><stop offset="0.02" stop-color="#1d1d1d"/><stop offset="0.35" stop-color="#404040"/><stop offset="0.52" stop-color="#4d4d4d"/><stop offset="0.64" stop-color="#3d3d3d"/><stop offset="0.87" stop-color="#232323"/><stop offset="1" stop-color="#1a1a1a"/></linearGradient><linearGradient id="linear-gradient-3" x1="2502.07" y1="2652.88" x2="2510.71" y2="2652.88" gradientTransform="translate(-2468.49 -2515.22)" xlink:href="#linear-gradient"/><linearGradient id="linear-gradient-4" x1="37.68" y1="130.76" x2="37.68" gradientUnits="userSpaceOnUse"><stop offset="0.06" stop-color="#1a1a1a"/><stop offset="0.51" stop-color="#4d4d4d"/><stop offset="1" stop-color="#525252"/></linearGradient><linearGradient id="linear-gradient-5" x1="79.29" y1="88.18" x2="0.32" y2="42.58" xlink:href="#linear-gradient"/></defs><path class="cls-1" d="M20,147.08v4a121.27,121.27,0,0,0,19.23,1.32A122.1,122.1,0,0,0,55.8,151v-4a116,116,0,0,1-16.91,1.32h-.33A127.24,127.24,0,0,1,20,147.08Z"/><ellipse class="cls-2" cx="37.9" cy="147.08" rx="17.9" ry="1.63"/><path class="cls-3" d="M42.22,127.86v18.92a14.18,14.18,0,0,1-8.64,0V127.86Z"/><ellipse class="cls-4" cx="37.68" cy="65.38" rx="37.68" ry="65.38"/><ellipse class="cls-5" cx="39.81" cy="65.38" rx="36" ry="65.38"/><ellipse cx="39.59" cy="65.38" rx="30.59" ry="60.77"/><path class="cls-6" d="M61.28,61.1l-3.17,3.25c-5.52-4.86-11.42-10.41-17.5-16.68C34.37,41.24,28.87,35,24.06,29.18l3.18-3.25A192.64,192.64,0,0,1,45,42,192.83,192.83,0,0,1,61.28,61.1Z"/><path class="cls-7" d="M31.75,36.9l2.78-2.74.81.82A2.26,2.26,0,0,1,36,36.32a1.78,1.78,0,0,1-.66,1.44,1.87,1.87,0,0,1-1.46.67,2.13,2.13,0,0,1-1.31-.67Zm1.31.15,0,0a1.08,1.08,0,0,0,.66.35,1.1,1.1,0,0,0,.85-.43,1.08,1.08,0,0,0,.44-.84,1.22,1.22,0,0,0-.36-.65l0-.05Z"/><path class="cls-7" d="M34.45,39.64l2.78-2.74.73.74-2.78,2.73Z"/><path class="cls-7" d="M36.92,42.24a1.86,1.86,0,0,1-.48-.81,1.62,1.62,0,0,1,0-1,2.19,2.19,0,0,1,.6-1,2.26,2.26,0,0,1,1-.59,1.85,1.85,0,0,1,1,0,2,2,0,0,1,.82.49,1.64,1.64,0,0,1,.38.61,2,2,0,0,1,.1.62l-.85.08a1,1,0,0,0-.06-.36.69.69,0,0,0-.19-.31.76.76,0,0,0-.63-.21,1.23,1.23,0,0,0-.77.4,1.35,1.35,0,0,0-.44.76.74.74,0,0,0,.22.64.83.83,0,0,0,.36.21,1,1,0,0,0,.38,0l-.08.84A1.59,1.59,0,0,1,36.92,42.24Z"/><path class="cls-7" d="M38.26,43.49,41,40.75l.73.74-1,1,.82.83,1-1,.72.73-2.78,2.74-.72-.73L40.9,44l-.82-.83L39,44.23Z"/><path class="cls-7" d="M41.86,47.14l-.73-.74,2.78-2.73,1,1a2.72,2.72,0,0,1,.47.63,1.13,1.13,0,0,1,.12.67,1.2,1.2,0,0,1-.39.69,1.29,1.29,0,0,1-.61.37,1.33,1.33,0,0,1-.63,0l-.49,1.66-.8-.82.45-1.4-.27-.28Zm1.51-1.49.26.26c.29.3.56.33.8.08a.36.36,0,0,0,.14-.35.93.93,0,0,0-.26-.4L44.05,45Z"/><path class="cls-7" d="M44.89,50.32A1.74,1.74,0,0,1,44.35,49a2.1,2.1,0,0,1,.72-1.41,2,2,0,0,1,1.4-.68,1.91,1.91,0,0,1,1.85,1.86,2.07,2.07,0,0,1-.71,1.4,2.12,2.12,0,0,1-1.42.7A1.69,1.69,0,0,1,44.89,50.32Zm.63-.63a.62.62,0,0,0,.61.18,1.53,1.53,0,0,0,.74-.45,1.42,1.42,0,0,0,.44-.72.6.6,0,0,0-.18-.6.62.62,0,0,0-.59-.19,1.4,1.4,0,0,0-.73.44,1.46,1.46,0,0,0-.45.73A.61.61,0,0,0,45.52,49.69Z"/><path class="cls-7" d="M46.7,52.05l2.78-2.74.72.74-2.77,2.74Z"/><path class="cls-7" d="M49.17,54.66a2,2,0,0,1-.49-.82,1.7,1.7,0,0,1,0-1,2.11,2.11,0,0,1,.6-1,2.26,2.26,0,0,1,1-.59,1.85,1.85,0,0,1,1,0,2.09,2.09,0,0,1,.82.49,1.62,1.62,0,0,1,.37.61,1.81,1.81,0,0,1,.11.62l-.85.08a1.93,1.93,0,0,0-.06-.36.79.79,0,0,0-.19-.31.76.76,0,0,0-.63-.21,1.23,1.23,0,0,0-.77.4,1.35,1.35,0,0,0-.44.76.74.74,0,0,0,.22.64.7.7,0,0,0,.36.21,1,1,0,0,0,.37,0l-.08.84A1.61,1.61,0,0,1,49.17,54.66Z"/><path class="cls-6" d="M59.28,74.5l-3.17,3.25c-5.52-4.86-11.42-10.41-17.5-16.68C32.37,54.64,26.87,48.4,22.06,42.58l3.18-3.25A192.64,192.64,0,0,1,43,55.44,192.83,192.83,0,0,1,59.28,74.5Z"/><path class="cls-7" d="M29.75,50.3l2.78-2.74.81.82A2.26,2.26,0,0,1,34,49.72a1.78,1.78,0,0,1-.66,1.44,1.87,1.87,0,0,1-1.46.67,2.13,2.13,0,0,1-1.31-.67Zm1.31.15.05,0a1.08,1.08,0,0,0,.66.35,1.1,1.1,0,0,0,.85-.43,1.08,1.08,0,0,0,.44-.84,1.22,1.22,0,0,0-.36-.65l0,0Z"/><path class="cls-7" d="M32.45,53l2.78-2.74L36,51l-2.78,2.73Z"/><path class="cls-7" d="M34.92,55.64a1.86,1.86,0,0,1-.48-.81,1.62,1.62,0,0,1,0-.95,2.19,2.19,0,0,1,.6-1,2.26,2.26,0,0,1,1-.59,1.85,1.85,0,0,1,1,0,2,2,0,0,1,.82.49,1.64,1.64,0,0,1,.38.61,2,2,0,0,1,.1.62l-.85.08a1,1,0,0,0-.06-.36.69.69,0,0,0-.19-.31.76.76,0,0,0-.63-.21,1.23,1.23,0,0,0-.77.4,1.35,1.35,0,0,0-.44.76.74.74,0,0,0,.22.64.83.83,0,0,0,.36.21,1,1,0,0,0,.38.05l-.08.84A1.59,1.59,0,0,1,34.92,55.64Z"/><path class="cls-7" d="M36.26,56.89,39,54.15l.73.74-1,1,.82.83,1-1,.72.73-2.78,2.74-.72-.73,1.1-1.09-.82-.83L37,57.63Z"/><path class="cls-7" d="M39.86,60.54l-.73-.73,2.78-2.74,1,1a2.72,2.72,0,0,1,.47.63,1.15,1.15,0,0,1,.12.68,1.2,1.2,0,0,1-.39.68,1.29,1.29,0,0,1-.61.37,1.33,1.33,0,0,1-.63,0l-.49,1.66-.8-.82.45-1.4-.27-.28Zm1.51-1.49.26.26c.29.3.56.33.8.08a.36.36,0,0,0,.14-.35.93.93,0,0,0-.26-.4l-.26-.27Z"/><path class="cls-7" d="M42.89,63.72a1.74,1.74,0,0,1-.54-1.32A2.1,2.1,0,0,1,43.07,61a2,2,0,0,1,1.4-.68,1.91,1.91,0,0,1,1.85,1.87,2.5,2.5,0,0,1-2.13,2.09A1.69,1.69,0,0,1,42.89,63.72Zm.63-.63a.62.62,0,0,0,.61.18,1.53,1.53,0,0,0,.74-.45,1.42,1.42,0,0,0,.44-.72.61.61,0,0,0-.18-.6.64.64,0,0,0-.59-.19,1.4,1.4,0,0,0-.73.44,1.46,1.46,0,0,0-.45.73A.61.61,0,0,0,43.52,63.09Z"/><path class="cls-7" d="M44.7,65.45l2.78-2.74.72.74-2.77,2.74Z"/><path class="cls-7" d="M47.17,68.06a2,2,0,0,1-.49-.82,1.7,1.7,0,0,1,0-.95,2.11,2.11,0,0,1,.6-1,2.26,2.26,0,0,1,1-.59,1.85,1.85,0,0,1,1,0,2.09,2.09,0,0,1,.82.49,1.62,1.62,0,0,1,.37.61,1.81,1.81,0,0,1,.11.62l-.85.08a1.93,1.93,0,0,0-.06-.36.79.79,0,0,0-.19-.31.76.76,0,0,0-.63-.21,1.23,1.23,0,0,0-.77.4,1.35,1.35,0,0,0-.44.76.74.74,0,0,0,.22.64.8.8,0,0,0,.36.22,1.2,1.2,0,0,0,.37,0l-.08.84A1.61,1.61,0,0,1,47.17,68.06Z"/><path class="cls-6" d="M57.28,87.9l-3.17,3.25c-5.52-4.86-11.42-10.41-17.5-16.68C30.37,68,24.87,61.8,20.06,56l3.18-3.25A192.64,192.64,0,0,1,41,68.84,192.83,192.83,0,0,1,57.28,87.9Z"/><path class="cls-7" d="M27.75,63.7,30.53,61l.81.82A2.26,2.26,0,0,1,32,63.12a1.78,1.78,0,0,1-.66,1.44,1.87,1.87,0,0,1-1.46.67,2.13,2.13,0,0,1-1.31-.67Zm1.31.15.05,0a1.08,1.08,0,0,0,.66.35,1.1,1.1,0,0,0,.85-.43,1.08,1.08,0,0,0,.44-.84,1.22,1.22,0,0,0-.36-.65l0,0Z"/><path class="cls-7" d="M30.45,66.44l2.78-2.74.73.74-2.78,2.73Z"/><path class="cls-7" d="M32.92,69a1.86,1.86,0,0,1-.48-.81,1.62,1.62,0,0,1,0-1,2.19,2.19,0,0,1,.6-1,2.26,2.26,0,0,1,1-.59,1.85,1.85,0,0,1,1,0,2,2,0,0,1,.82.49,1.64,1.64,0,0,1,.38.61,2,2,0,0,1,.1.62l-.85.08a1,1,0,0,0-.06-.36.69.69,0,0,0-.19-.31.76.76,0,0,0-.63-.21,1.23,1.23,0,0,0-.77.4,1.35,1.35,0,0,0-.44.76.74.74,0,0,0,.22.64.83.83,0,0,0,.36.21,1,1,0,0,0,.38,0l-.08.84A1.59,1.59,0,0,1,32.92,69Z"/><path class="cls-7" d="M34.26,70.29,37,67.55l.73.74-1,1,.82.83,1-1,.72.73-2.78,2.74-.72-.73,1.1-1.09-.82-.83L35,71Z"/><path class="cls-7" d="M37.86,73.94l-.73-.74,2.78-2.73,1,1a2.72,2.72,0,0,1,.47.63,1.15,1.15,0,0,1,.12.68,1.2,1.2,0,0,1-.39.68,1.29,1.29,0,0,1-.61.37,1.33,1.33,0,0,1-.63,0l-.49,1.66-.8-.82.45-1.4L38.79,73Zm1.51-1.49.26.26c.29.3.56.33.8.08a.36.36,0,0,0,.14-.35.93.93,0,0,0-.26-.4l-.26-.27Z"/><path class="cls-7" d="M40.89,77.12a1.74,1.74,0,0,1-.54-1.32,2.1,2.1,0,0,1,.72-1.41,2,2,0,0,1,1.4-.68,1.91,1.91,0,0,1,1.85,1.87,2.5,2.5,0,0,1-2.13,2.09A1.69,1.69,0,0,1,40.89,77.12Zm.63-.63a.62.62,0,0,0,.61.18,1.53,1.53,0,0,0,.74-.45,1.42,1.42,0,0,0,.44-.72.61.61,0,0,0-.18-.6.64.64,0,0,0-.59-.19,1.4,1.4,0,0,0-.73.44,1.46,1.46,0,0,0-.45.73A.61.61,0,0,0,41.52,76.49Z"/><path class="cls-7" d="M42.7,78.85l2.78-2.74.72.74-2.77,2.74Z"/><path class="cls-7" d="M45.17,81.46a2,2,0,0,1-.49-.82,1.7,1.7,0,0,1,0-1,2.11,2.11,0,0,1,.6-1,2.26,2.26,0,0,1,1-.59,1.85,1.85,0,0,1,1,0,2.09,2.09,0,0,1,.82.49,1.62,1.62,0,0,1,.37.61,1.81,1.81,0,0,1,.11.62l-.85.08a1.93,1.93,0,0,0-.06-.36.79.79,0,0,0-.19-.31.76.76,0,0,0-.63-.21,1.23,1.23,0,0,0-.77.4,1.35,1.35,0,0,0-.44.76.74.74,0,0,0,.22.64.8.8,0,0,0,.36.22,1.2,1.2,0,0,0,.37,0l-.08.84A1.61,1.61,0,0,1,45.17,81.46Z"/><path class="cls-6" d="M55.28,101.3l-3.17,3.25c-5.52-4.86-11.42-10.41-17.5-16.68C28.37,81.44,22.87,75.2,18.06,69.38l3.18-3.25A192.64,192.64,0,0,1,39,82.24,192.83,192.83,0,0,1,55.28,101.3Z"/><path class="cls-7" d="M25.75,77.1l2.78-2.74.81.82A2.26,2.26,0,0,1,30,76.52,1.78,1.78,0,0,1,29.37,78a1.87,1.87,0,0,1-1.46.67A2.13,2.13,0,0,1,26.6,78Zm1.31.15.05,0a1.08,1.08,0,0,0,.66.35,1.1,1.1,0,0,0,.85-.43,1.08,1.08,0,0,0,.44-.84,1.22,1.22,0,0,0-.36-.65l0,0Z"/><path class="cls-7" d="M28.45,79.84l2.78-2.74.73.74-2.78,2.73Z"/><path class="cls-7" d="M30.92,82.44a1.86,1.86,0,0,1-.48-.81,1.62,1.62,0,0,1,0-.95,2.19,2.19,0,0,1,.6-1,2.26,2.26,0,0,1,1-.59,1.85,1.85,0,0,1,1,0,2,2,0,0,1,.82.49,1.64,1.64,0,0,1,.38.61,2,2,0,0,1,.1.62l-.85.08a1,1,0,0,0-.06-.36.69.69,0,0,0-.19-.31.76.76,0,0,0-.63-.21,1.23,1.23,0,0,0-.77.4,1.35,1.35,0,0,0-.44.76.74.74,0,0,0,.22.64.83.83,0,0,0,.36.21,1,1,0,0,0,.38,0l-.08.84A1.59,1.59,0,0,1,30.92,82.44Z"/><path class="cls-7" d="M32.26,83.69,35,81l.73.74-1,1,.82.83,1-1,.72.73L34.52,86l-.72-.73,1.1-1.09-.82-.83L33,84.43Z"/><path class="cls-7" d="M35.86,87.34l-.73-.74,2.78-2.73,1,1a2.72,2.72,0,0,1,.47.63,1.13,1.13,0,0,1,.12.67,1.2,1.2,0,0,1-.39.69,1.29,1.29,0,0,1-.61.37,1.33,1.33,0,0,1-.63,0l-.49,1.66-.8-.82.45-1.4-.27-.28Zm1.51-1.49.26.26c.29.3.56.33.8.08a.36.36,0,0,0,.14-.35.93.93,0,0,0-.26-.4l-.26-.27Z"/><path class="cls-7" d="M38.89,90.52a1.74,1.74,0,0,1-.54-1.32,2.1,2.1,0,0,1,.72-1.41,2,2,0,0,1,1.4-.68A1.91,1.91,0,0,1,42.32,89a2.49,2.49,0,0,1-2.13,2.1A1.69,1.69,0,0,1,38.89,90.52Zm.63-.63a.62.62,0,0,0,.61.18,1.53,1.53,0,0,0,.74-.45,1.42,1.42,0,0,0,.44-.72.61.61,0,0,0-.18-.6.64.64,0,0,0-.59-.19,1.4,1.4,0,0,0-.73.44,1.46,1.46,0,0,0-.45.73A.61.61,0,0,0,39.52,89.89Z"/><path class="cls-7" d="M40.7,92.25l2.78-2.74.72.74L41.43,93Z"/><path class="cls-7" d="M43.17,94.86a2,2,0,0,1-.49-.82,1.7,1.7,0,0,1,0-1,2.11,2.11,0,0,1,.6-1,2.26,2.26,0,0,1,1-.59,1.85,1.85,0,0,1,1,0,2.09,2.09,0,0,1,.82.49,1.62,1.62,0,0,1,.37.61,1.81,1.81,0,0,1,.11.62l-.85.08a1.93,1.93,0,0,0-.06-.36.79.79,0,0,0-.19-.31.76.76,0,0,0-.63-.21,1.23,1.23,0,0,0-.77.4,1.35,1.35,0,0,0-.44.76.74.74,0,0,0,.22.64.7.7,0,0,0,.36.21,1,1,0,0,0,.37,0l-.08.84A1.61,1.61,0,0,1,43.17,94.86Z"/><path class="cls-6" d="M53.28,114.7,50.11,118c-5.52-4.86-11.42-10.41-17.5-16.68C26.37,94.84,20.87,88.6,16.06,82.78l3.18-3.25A192.64,192.64,0,0,1,37,95.64,192.83,192.83,0,0,1,53.28,114.7Z"/><path class="cls-7" d="M23.75,90.5l2.78-2.74.81.82A2.26,2.26,0,0,1,28,89.92a1.78,1.78,0,0,1-.66,1.44,1.87,1.87,0,0,1-1.46.67,2.13,2.13,0,0,1-1.31-.67Zm1.31.15.05,0a1.08,1.08,0,0,0,.66.35,1.1,1.1,0,0,0,.85-.43,1.08,1.08,0,0,0,.44-.84,1.22,1.22,0,0,0-.36-.65l0,0Z"/><path class="cls-7" d="M26.45,93.24l2.78-2.74.73.74L27.18,94Z"/><path class="cls-7" d="M28.92,95.85a2,2,0,0,1-.48-.82,1.62,1.62,0,0,1,0-1,2.19,2.19,0,0,1,.6-1,2.26,2.26,0,0,1,1-.59,1.85,1.85,0,0,1,1,0,2,2,0,0,1,.82.49,1.64,1.64,0,0,1,.38.61,2.05,2.05,0,0,1,.1.62l-.85.08a1,1,0,0,0-.06-.36.69.69,0,0,0-.19-.31.76.76,0,0,0-.63-.21,1.23,1.23,0,0,0-.77.4,1.35,1.35,0,0,0-.44.76.74.74,0,0,0,.22.64.83.83,0,0,0,.36.21,1,1,0,0,0,.38.05l-.08.84A1.61,1.61,0,0,1,28.92,95.85Z"/><path class="cls-7" d="M30.26,97.09,33,94.35l.73.74-1,1,.82.83,1-1,.72.73-2.78,2.74-.72-.73,1.1-1.09-.82-.83L31,97.83Z"/><path class="cls-7" d="M33.86,100.74l-.73-.73,2.78-2.74,1,1a2.72,2.72,0,0,1,.47.63,1.15,1.15,0,0,1,.12.68,1.2,1.2,0,0,1-.39.68,1.29,1.29,0,0,1-.61.37,1.33,1.33,0,0,1-.63,0l-.49,1.66-.8-.82.45-1.4-.27-.28Zm1.51-1.49.26.26c.29.3.56.33.8.09a.38.38,0,0,0,.14-.36.93.93,0,0,0-.26-.4l-.26-.27Z"/><path class="cls-7" d="M36.89,103.92a1.72,1.72,0,0,1-.54-1.32,2.1,2.1,0,0,1,.72-1.41,2,2,0,0,1,1.4-.68,1.91,1.91,0,0,1,1.85,1.87,2.5,2.5,0,0,1-2.13,2.09A1.69,1.69,0,0,1,36.89,103.92Zm.63-.63a.62.62,0,0,0,.61.18,1.53,1.53,0,0,0,.74-.45,1.42,1.42,0,0,0,.44-.72.61.61,0,0,0-.18-.6.64.64,0,0,0-.59-.19,1.4,1.4,0,0,0-.73.44,1.46,1.46,0,0,0-.45.73A.61.61,0,0,0,37.52,103.29Z"/><path class="cls-7" d="M38.7,105.65l2.78-2.74.72.74-2.77,2.74Z"/><path class="cls-7" d="M41.17,108.26a2,2,0,0,1-.49-.82,1.7,1.7,0,0,1,0-1,2.16,2.16,0,0,1,.6-1,2.26,2.26,0,0,1,1-.59,1.85,1.85,0,0,1,1,0,2.09,2.09,0,0,1,.82.49,1.62,1.62,0,0,1,.37.61,1.81,1.81,0,0,1,.11.62l-.85.08a1.93,1.93,0,0,0-.06-.36.79.79,0,0,0-.19-.31.76.76,0,0,0-.63-.21,1.23,1.23,0,0,0-.77.4,1.35,1.35,0,0,0-.44.76.74.74,0,0,0,.22.64.8.8,0,0,0,.36.22,1.64,1.64,0,0,0,.37.05l-.08.83A1.61,1.61,0,0,1,41.17,108.26Z"/><path class="cls-6" d="M63.28,47.7,60.11,51c-5.52-4.86-11.42-10.41-17.5-16.68C36.37,27.84,30.87,21.6,26.06,15.78l3.18-3.25A192.64,192.64,0,0,1,47,28.64,192.83,192.83,0,0,1,63.28,47.7Z"/><path class="cls-7" d="M33.75,23.5l2.78-2.74.81.82A2.26,2.26,0,0,1,38,22.92a1.78,1.78,0,0,1-.66,1.44,1.87,1.87,0,0,1-1.46.67,2.13,2.13,0,0,1-1.31-.67Zm1.31.15,0,0a1.08,1.08,0,0,0,.66.35,1.1,1.1,0,0,0,.85-.43,1.08,1.08,0,0,0,.44-.84,1.22,1.22,0,0,0-.36-.65l0,0Z"/><path class="cls-7" d="M36.45,26.24l2.78-2.74.73.74L37.18,27Z"/><path class="cls-7" d="M38.92,28.85a2,2,0,0,1-.48-.82,1.62,1.62,0,0,1,0-1,2.19,2.19,0,0,1,.6-1,2.26,2.26,0,0,1,1-.59,1.85,1.85,0,0,1,1,0,2,2,0,0,1,.82.49,1.64,1.64,0,0,1,.38.61,2.05,2.05,0,0,1,.1.62l-.85.08a1,1,0,0,0-.06-.36.69.69,0,0,0-.19-.31.76.76,0,0,0-.63-.21,1.23,1.23,0,0,0-.77.4,1.35,1.35,0,0,0-.44.76.74.74,0,0,0,.22.64.83.83,0,0,0,.36.21,1,1,0,0,0,.38.05l-.08.84A1.61,1.61,0,0,1,38.92,28.85Z"/><path class="cls-7" d="M40.26,30.09,43,27.35l.73.74-1,1,.82.83,1-1,.72.73-2.78,2.74-.72-.73,1.1-1.09-.82-.83L41,30.83Z"/><path class="cls-7" d="M43.86,33.74,43.13,33l2.78-2.74,1,1.05a2.72,2.72,0,0,1,.47.63,1.15,1.15,0,0,1,.12.68,1.2,1.2,0,0,1-.39.68,1.29,1.29,0,0,1-.61.37,1.33,1.33,0,0,1-.63,0l-.49,1.66-.8-.82.45-1.4-.27-.28Zm1.51-1.49.26.26c.29.3.56.33.8.09a.38.38,0,0,0,.14-.36.93.93,0,0,0-.26-.4l-.26-.27Z"/><path class="cls-7" d="M46.89,36.92a1.72,1.72,0,0,1-.54-1.32,2.1,2.1,0,0,1,.72-1.41,2,2,0,0,1,1.4-.68,1.91,1.91,0,0,1,1.85,1.87,2.5,2.5,0,0,1-2.13,2.09A1.69,1.69,0,0,1,46.89,36.92Zm.63-.63a.62.62,0,0,0,.61.18,1.53,1.53,0,0,0,.74-.45,1.42,1.42,0,0,0,.44-.72.61.61,0,0,0-.18-.6.64.64,0,0,0-.59-.19,1.4,1.4,0,0,0-.73.44,1.46,1.46,0,0,0-.45.73A.61.61,0,0,0,47.52,36.29Z"/><path class="cls-7" d="M48.7,38.65l2.78-2.74.72.74-2.77,2.74Z"/><path class="cls-7" d="M51.17,41.26a2,2,0,0,1-.49-.82,1.7,1.7,0,0,1,0-.95,2.16,2.16,0,0,1,.6-1,2.26,2.26,0,0,1,1-.59,1.85,1.85,0,0,1,1,0,2.09,2.09,0,0,1,.82.49,1.62,1.62,0,0,1,.37.61,1.81,1.81,0,0,1,.11.62l-.85.08a1.93,1.93,0,0,0-.06-.36.79.79,0,0,0-.19-.31.76.76,0,0,0-.63-.21,1.23,1.23,0,0,0-.77.4,1.35,1.35,0,0,0-.44.76.74.74,0,0,0,.22.64.8.8,0,0,0,.36.22,1.64,1.64,0,0,0,.37,0l-.08.83A1.61,1.61,0,0,1,51.17,41.26Z"/><text class="cls-8" transform="translate(32.06 119.66)">FI<tspan class="cls-9" x="3.94" y="0">L</tspan><tspan x="5.84" y="0">TER </tspan><tspan x="0.15" y="4">WHEEL</tspan></text></svg>