<svg id="Layer_1" data-name="Layer 1" xmlns="http://www.w3.org/2000/svg" xmlns:xlink="http://www.w3.org/1999/xlink" viewBox="0 0 75.8 170.44"><defs><style>.cls-1{fill:url(#linear-gradient);}.cls-2{fill:url(#linear-gradient-2);}.cls-3{fill:url(#linear-gradient-3);}.cls-4{fill:url(#linear-gradient-4);}.cls-5{fill:url(#linear-gradient-5);}.cls-6{fill:url(#linear-gradient-6);}.cls-7{fill:#fff;}.cls-8{fill:#140000;}.cls-9{fill:url(#linear-gradient-7);}.cls-10{fill:url(#linear-gradient-8);}.cls-11{fill:url(#linear-gradient-9);}.cls-12{fill:url(#linear-gradient-10);}.cls-13{fill:url(#linear-gradient-11);}.cls-14{font-size:8px;font-family:Mada-Black, Mada;font-weight:800;}.cls-15{letter-spacing:-0.03em;}.cls-16{letter-spacing:0em;}.cls-17{letter-spacing:-0.04em;}.cls-18{letter-spacing:-0.08em;}.cls-19{letter-spacing:-0.12em;}</style><linearGradient id="linear-gradient" x1="19.5" y1="149.82" x2="55.3" y2="149.82" gradientUnits="userSpaceOnUse"><stop offset="0" stop-color="#1a1a1a"/><stop offset="0.06" stop-color="#424041"/><stop offset="0.11" stop-color="#615e5f"/><stop offset="0.16" stop-color="#747071"/><stop offset="0.19" stop-color="#7b7778"/><stop offset="0.5" stop-color="#666"/><stop offset="0.78" stop-color="#ccc"/><stop offset="1" stop-color="#1a1a1a"/></linearGradient><linearGradient id="linear-gradient-2" x1="19.5" y1="147.17" x2="55.3" y2="147.17" gradientUnits="userSpaceOnUse"><stop offset="0" stop-color="#1a1a1a"/><stop offset="0.02" stop-color="#1d1d1d"/><stop offset="0.35" stop-color="#404040"/><stop offset="0.52" stop-color="#4d4d4d"/><stop offset="0.64" stop-color="#3d3d3d"/><stop offset="0.87" stop-color="#232323"/><stop offset="1" stop-color="#1a1a1a"/></linearGradient><linearGradient id="linear-gradient-3" x1="2502.07" y1="2652.97" x2="2510.71" y2="2652.97" gradientTransform="translate(-2468.49 -2515.22)" xlink:href="#linear-gradient"/><linearGradient id="linear-gradient-4" x1="37.68" y1="130.85" x2="37.68" y2="0.09" gradientUnits="userSpaceOnUse"><stop offset="0.06" stop-color="#1a1a1a"/><stop offset="0.51" stop-color="#4d4d4d"/><stop offset="1" stop-color="#525252"/></linearGradient><linearGradient id="linear-gradient-5" x1="79.29" y1="88.27" x2="0.32" y2="42.67" xlink:href="#linear-gradient"/><linearGradient id="linear-gradient-6" x1="-4904.81" y1="849.95" x2="-4904.81" y2="804.76" gradientTransform="matrix(-1, 0, 0, 1, -4875.13, -786.7)" gradientUnits="userSpaceOnUse"><stop offset="0.02" stop-color="#666"/><stop offset="0.02" stop-color="#6e6e6e"/><stop offset="0.05" stop-color="#999899"/><stop offset="0.07" stop-color="#b8b7b8"/><stop offset="0.09" stop-color="#cbcacb"/><stop offset="0.11" stop-color="#d2d1d2"/><stop offset="0.18" stop-color="#c5c4c5"/><stop offset="0.29" stop-color="#979696"/><stop offset="0.33" stop-color="#919090"/><stop offset="0.5" stop-color="#f2f2f2"/><stop offset="0.78" stop-color="#c9c8c8"/><stop offset="0.85" stop-color="#fff"/><stop offset="1" stop-color="#4d4d4d"/></linearGradient><linearGradient id="linear-gradient-7" x1="-4916.31" y1="849.95" x2="-4916.31" y2="804.76" xlink:href="#linear-gradient-6"/><linearGradient id="linear-gradient-8" x1="-4927.81" y1="849.95" x2="-4927.81" y2="804.76" xlink:href="#linear-gradient-6"/><linearGradient id="linear-gradient-9" x1="-4904.81" y1="899.95" x2="-4904.81" y2="854.76" xlink:href="#linear-gradient-6"/><linearGradient id="linear-gradient-10" x1="-4916.31" y1="899.95" x2="-4916.31" y2="854.76" xlink:href="#linear-gradient-6"/><linearGradient id="linear-gradient-11" x1="-4927.81" y1="899.95" x2="-4927.81" y2="854.76" xlink:href="#linear-gradient-6"/></defs><path class="cls-1" d="M20,147.17v4a121.27,121.27,0,0,0,19.23,1.32,122.1,122.1,0,0,0,16.57-1.32v-4a116,116,0,0,1-16.91,1.32h-.33A127.24,127.24,0,0,1,20,147.17Z"/><ellipse class="cls-2" cx="37.9" cy="147.17" rx="17.9" ry="1.63"/><path class="cls-3" d="M42.22,128v18.92a14.18,14.18,0,0,1-8.64,0V128Z"/><ellipse class="cls-4" cx="37.68" cy="65.47" rx="37.68" ry="65.38"/><ellipse class="cls-5" cx="39.81" cy="65.47" rx="36" ry="65.38"/><ellipse cx="39.59" cy="65.47" rx="30.59" ry="60.77"/><path class="cls-6" d="M31.28,18.06H25.52a111,111,0,0,1,2.31,21.4,111.09,111.09,0,0,1-2.31,23.78h5.76S37,40.65,31.28,18.06Z"/><path class="cls-7" d="M31.28,18.06H25.52a111,111,0,0,1,2.31,21.4,111.09,111.09,0,0,1-2.31,23.78h5.76S37,40.65,31.28,18.06Z"/><path class="cls-8" d="M32.47,53.71h-3.9V51.19h.87v1.49h.61V51.41h.86v1.27h.7V51.13h.86Z"/><path class="cls-8" d="M32.47,50.75l-2-1.06-1.9,1V49.54l.64-.27.29-.12.36-.15v0l-.36-.12-.29-.12-.64-.22V47.4l1.95,1,1.95-1.06v1.15l-.69.32-.32.13-.33.14v0l.33.12.32.13.69.29Z"/><path class="cls-8" d="M31.31,47.26h-.72V45.75h.72Z"/><path class="cls-8" d="M32.47,45.05h-3.9V42.51h.87V44h.74v-1.3H31V44h1.43Z"/><path class="cls-8" d="M32.47,41.83h-3.9v-1h3.9Z"/><path class="cls-8" d="M32.47,39.94h-3.9v-1h3V37.43h.86Z"/><path class="cls-8" d="M32.47,36.73h-3v1h-.87v-3.1h.87v1h3Z"/><path class="cls-8" d="M32.47,34.1h-3.9V31.57h.87v1.49h.61V31.79h.86v1.27h.7V31.51h.86Z"/><path class="cls-8" d="M32.47,29.73v1h-3.9V29.28a2.35,2.35,0,0,1,.12-.77,1.09,1.09,0,0,1,.38-.57,1.18,1.18,0,0,1,.76-.22,1.28,1.28,0,0,1,.7.18,1.16,1.16,0,0,1,.43.45l1.51-.84v1.15l-1.31.67v.4Zm-2.12,0v-.38c0-.41-.17-.62-.52-.62a.37.37,0,0,0-.35.16,1,1,0,0,0-.09.46v.38Z"/><path class="cls-9" d="M42.78,18.06H37a111,111,0,0,1,2.31,21.4A111.09,111.09,0,0,1,37,63.24h5.76S48.54,40.65,42.78,18.06Z"/><path class="cls-7" d="M42.78,18.06H37a111,111,0,0,1,2.31,21.4A111.09,111.09,0,0,1,37,63.24h5.76S48.54,40.65,42.78,18.06Z"/><path class="cls-8" d="M44,53.71h-3.9V51.19h.87v1.49h.61V51.41h.86v1.27h.7V51.13H44Z"/><path class="cls-8" d="M44,50.75l-2-1.06-1.9,1V49.54l.64-.27.29-.12.36-.15v0L41,48.85l-.29-.12-.64-.22V47.4l2,1L44,47.34v1.15l-.69.32-.32.13-.33.14v0l.33.12.32.13.69.29Z"/><path class="cls-8" d="M42.81,47.26h-.72V45.75h.72Z"/><path class="cls-8" d="M44,45.05h-3.9V42.51h.87V44h.74v-1.3h.86V44H44Z"/><path class="cls-8" d="M44,41.83h-3.9v-1H44Z"/><path class="cls-8" d="M44,39.94h-3.9v-1h3V37.43H44Z"/><path class="cls-8" d="M44,36.73h-3v1h-.87v-3.1h.87v1h3Z"/><path class="cls-8" d="M44,34.1h-3.9V31.57h.87v1.49h.61V31.79h.86v1.27h.7V31.51H44Z"/><path class="cls-8" d="M44,29.73v1h-3.9V29.28a2.35,2.35,0,0,1,.12-.77,1.09,1.09,0,0,1,.38-.57,1.18,1.18,0,0,1,.76-.22,1.28,1.28,0,0,1,.7.18,1.16,1.16,0,0,1,.43.45L44,27.51v1.15l-1.31.67v.4Zm-2.12,0v-.38c0-.41-.17-.62-.52-.62a.37.37,0,0,0-.35.16,1,1,0,0,0-.09.46v.38Z"/><path class="cls-10" d="M54.28,18.06H48.52a111,111,0,0,1,2.31,21.4,111.09,111.09,0,0,1-2.31,23.78h5.76S60,40.65,54.28,18.06Z"/><path class="cls-7" d="M54.28,18.06H48.52a111,111,0,0,1,2.31,21.4,111.09,111.09,0,0,1-2.31,23.78h5.76S60,40.65,54.28,18.06Z"/><path class="cls-8" d="M55.47,53.71h-3.9V51.19h.87v1.49h.61V51.41h.86v1.27h.7V51.13h.86Z"/><path class="cls-8" d="M55.47,50.75l-2-1.06-1.9,1V49.54l.64-.27.29-.12.36-.15v0l-.36-.12-.29-.12-.64-.22V47.4l2,1,1.95-1.06v1.15l-.69.32-.32.13-.33.14v0l.33.12.32.13.69.29Z"/><path class="cls-8" d="M54.31,47.26h-.72V45.75h.72Z"/><path class="cls-8" d="M55.47,45.05h-3.9V42.51h.87V44h.74v-1.3H54V44h1.43Z"/><path class="cls-8" d="M55.47,41.83h-3.9v-1h3.9Z"/><path class="cls-8" d="M55.47,39.94h-3.9v-1h3V37.43h.86Z"/><path class="cls-8" d="M55.47,36.73h-3v1h-.87v-3.1h.87v1h3Z"/><path class="cls-8" d="M55.47,34.1h-3.9V31.57h.87v1.49h.61V31.79h.86v1.27h.7V31.51h.86Z"/><path class="cls-8" d="M55.47,29.73v1h-3.9V29.28a2.35,2.35,0,0,1,.12-.77,1.09,1.09,0,0,1,.38-.57,1.18,1.18,0,0,1,.76-.22,1.28,1.28,0,0,1,.7.18,1.16,1.16,0,0,1,.43.45l1.51-.84v1.15l-1.31.67v.4Zm-2.12,0v-.38c0-.41-.17-.62-.52-.62a.37.37,0,0,0-.35.16,1,1,0,0,0-.09.46v.38Z"/><path class="cls-11" d="M31.28,68.06H25.52a111,111,0,0,1,2.31,21.4,111.09,111.09,0,0,1-2.31,23.78h5.76S37,90.65,31.28,68.06Z"/><path class="cls-7" d="M31.28,68.06H25.52a111,111,0,0,1,2.31,21.4,111.09,111.09,0,0,1-2.31,23.78h5.76S37,90.65,31.28,68.06Z"/><path class="cls-8" d="M32.47,103.71h-3.9v-2.52h.87v1.49h.61v-1.27h.86v1.27h.7v-1.55h.86Z"/><path class="cls-8" d="M32.47,100.75l-2-1.06-1.9,1V99.54l.64-.27.29-.12.36-.15v0l-.36-.12-.29-.12-.64-.22V97.4l1.95,1,1.95-1.06v1.15l-.69.32-.32.13-.33.14v0l.33.12.32.13.69.29Z"/><path class="cls-8" d="M31.31,97.26h-.72V95.75h.72Z"/><path class="cls-8" d="M32.47,95.05h-3.9V92.51h.87V94h.74v-1.3H31V94h1.43Z"/><path class="cls-8" d="M32.47,91.83h-3.9v-1h3.9Z"/><path class="cls-8" d="M32.47,89.94h-3.9v-1h3V87.43h.86Z"/><path class="cls-8" d="M32.47,86.73h-3v1h-.87v-3.1h.87v1h3Z"/><path class="cls-8" d="M32.47,84.1h-3.9V81.57h.87v1.49h.61V81.79h.86v1.27h.7V81.51h.86Z"/><path class="cls-8" d="M32.47,79.73v1h-3.9V79.28a2.35,2.35,0,0,1,.12-.77,1.09,1.09,0,0,1,.38-.57,1.18,1.18,0,0,1,.76-.22,1.28,1.28,0,0,1,.7.18,1.16,1.16,0,0,1,.43.45l1.51-.84v1.15l-1.31.67v.4Zm-2.12,0v-.38c0-.41-.17-.62-.52-.62a.37.37,0,0,0-.35.16,1,1,0,0,0-.09.46v.38Z"/><path class="cls-12" d="M42.78,68.06H37a111,111,0,0,1,2.31,21.4A111.09,111.09,0,0,1,37,113.24h5.76S48.54,90.65,42.78,68.06Z"/><path class="cls-7" d="M42.78,68.06H37a111,111,0,0,1,2.31,21.4A111.09,111.09,0,0,1,37,113.24h5.76S48.54,90.65,42.78,68.06Z"/><path class="cls-8" d="M44,103.71h-3.9v-2.52h.87v1.49h.61v-1.27h.86v1.27h.7v-1.55H44Z"/><path class="cls-8" d="M44,100.75l-2-1.06-1.9,1V99.54l.64-.27.29-.12.36-.15v0L41,98.85l-.29-.12-.64-.22V97.4l2,1L44,97.34v1.15l-.69.32-.32.13-.33.14v0l.33.12.32.13.69.29Z"/><path class="cls-8" d="M42.81,97.26h-.72V95.75h.72Z"/><path class="cls-8" d="M44,95.05h-3.9V92.51h.87V94h.74v-1.3h.86V94H44Z"/><path class="cls-8" d="M44,91.83h-3.9v-1H44Z"/><path class="cls-8" d="M44,89.94h-3.9v-1h3V87.43H44Z"/><path class="cls-8" d="M44,86.73h-3v1h-.87v-3.1h.87v1h3Z"/><path class="cls-8" d="M44,84.1h-3.9V81.57h.87v1.49h.61V81.79h.86v1.27h.7V81.51H44Z"/><path class="cls-8" d="M44,79.73v1h-3.9V79.28a2.35,2.35,0,0,1,.12-.77,1.09,1.09,0,0,1,.38-.57,1.18,1.18,0,0,1,.76-.22,1.28,1.28,0,0,1,.7.18,1.16,1.16,0,0,1,.43.45L44,77.51v1.15l-1.31.67v.4Zm-2.12,0v-.38c0-.41-.17-.62-.52-.62a.37.37,0,0,0-.35.16,1,1,0,0,0-.09.46v.38Z"/><path class="cls-13" d="M54.28,68.06H48.52a111,111,0,0,1,2.31,21.4,111.09,111.09,0,0,1-2.31,23.78h5.76S60,90.65,54.28,68.06Z"/><path class="cls-7" d="M54.28,68.06H48.52a111,111,0,0,1,2.31,21.4,111.09,111.09,0,0,1-2.31,23.78h5.76S60,90.65,54.28,68.06Z"/><path class="cls-8" d="M55.47,103.71h-3.9v-2.52h.87v1.49h.61v-1.27h.86v1.27h.7v-1.55h.86Z"/><path class="cls-8" d="M55.47,100.75l-2-1.06-1.9,1V99.54l.64-.27.29-.12.36-.15v0l-.36-.12-.29-.12-.64-.22V97.4l2,1,1.95-1.06v1.15l-.69.32-.32.13-.33.14v0l.33.12.32.13.69.29Z"/><path class="cls-8" d="M54.31,97.26h-.72V95.75h.72Z"/><path class="cls-8" d="M55.47,95.05h-3.9V92.51h.87V94h.74v-1.3H54V94h1.43Z"/><path class="cls-8" d="M55.47,91.83h-3.9v-1h3.9Z"/><path class="cls-8" d="M55.47,89.94h-3.9v-1h3V87.43h.86Z"/><path class="cls-8" d="M55.47,86.73h-3v1h-.87v-3.1h.87v1h3Z"/><path class="cls-8" d="M55.47,84.1h-3.9V81.57h.87v1.49h.61V81.79h.86v1.27h.7V81.51h.86Z"/><path class="cls-8" d="M55.47,79.73v1h-3.9V79.28a2.35,2.35,0,0,1,.12-.77,1.09,1.09,0,0,1,.38-.57,1.18,1.18,0,0,1,.76-.22,1.28,1.28,0,0,1,.7.18,1.16,1.16,0,0,1,.43.45l1.51-.84v1.15l-1.31.67v.4Zm-2.12,0v-.38c0-.41-.17-.62-.52-.62a.37.37,0,0,0-.35.16,1,1,0,0,0-.09.46v.38Z"/><text class="cls-14" transform="translate(16.19 162.67)">E<tspan class="cls-15" x="4.45" y="0">X</tspan><tspan class="cls-16" x="8.91" y="0">CI</tspan><tspan class="cls-17" x="16.13" y="0">T</tspan><tspan class="cls-18" x="20.32" y="0">A</tspan><tspan x="24.35" y="0">TION </tspan><tspan x="-3.49" y="7.5">FI</tspan><tspan class="cls-19" x="3.33" y="7.5">L</tspan><tspan x="6.61" y="7.5">TER WHEEL</tspan></text></svg>