<svg id="Layer_1" data-name="Layer 1" xmlns="http://www.w3.org/2000/svg" xmlns:xlink="http://www.w3.org/1999/xlink" viewBox="0 0 191.35 73"><defs><style>.cls-1{fill:url(#linear-gradient);}.cls-2{fill:url(#linear-gradient-2);}.cls-3{fill:url(#linear-gradient-3);}.cls-4{fill:url(#linear-gradient-4);}.cls-5{fill:url(#linear-gradient-5);}.cls-6{fill:url(#linear-gradient-6);}.cls-7{fill:url(#linear-gradient-7);}.cls-8{fill:url(#linear-gradient-8);}.cls-9{fill:url(#linear-gradient-9);}.cls-10{fill:url(#linear-gradient-10);}.cls-11{fill:url(#linear-gradient-11);}.cls-12{fill:#fff;}.cls-13{fill:none;stroke:#fff;stroke-miterlimit:10;stroke-width:0.4px;opacity:0.67;}</style><linearGradient id="linear-gradient" x1="-3686.59" y1="6666.59" x2="-3735.96" y2="6666.48" gradientTransform="translate(-6646.61 -3676.26) rotate(-90)" gradientUnits="userSpaceOnUse"><stop offset="0"/><stop offset="0.14" stop-color="#080808"/><stop offset="0.36" stop-color="#1f1e1e"/><stop offset="0.55" stop-color="#363535"/><stop offset="0.61" stop-color="#282727"/><stop offset="0.75" stop-color="#121212"/><stop offset="0.88" stop-color="#050404"/><stop offset="1"/></linearGradient><linearGradient id="linear-gradient-2" x1="-4158.96" y1="-7293.18" x2="-4086.22" y2="-7293.18" gradientTransform="translate(-7258.06 4159.22) rotate(90)" xlink:href="#linear-gradient"/><linearGradient id="linear-gradient-3" x1="-4159.99" y1="-7285.97" x2="-4087.25" y2="-7285.97" gradientTransform="translate(-7258.06 4159.22) rotate(90)" gradientUnits="userSpaceOnUse"><stop offset="0" stop-color="#1a1a1a"/><stop offset="0.09" stop-color="#2c2c2c"/><stop offset="0.15" stop-color="#333"/><stop offset="0.4" stop-color="#4d4d4d"/><stop offset="0.78" stop-color="#333"/><stop offset="1" stop-color="#1a1a1a"/></linearGradient><linearGradient id="linear-gradient-4" x1="-1270.66" y1="9349.29" x2="-1217.56" y2="9349.29" gradientTransform="translate(-9161.83 -1207.77) rotate(-90)" xlink:href="#linear-gradient-3"/><linearGradient id="linear-gradient-5" x1="-1271.4" y1="9352.12" x2="-1218.31" y2="9352.12" gradientTransform="translate(-9161.83 -1207.77) rotate(-90)" xlink:href="#linear-gradient"/><linearGradient id="linear-gradient-6" x1="-1280.58" y1="9346.02" x2="-1207.77" y2="9346.02" gradientTransform="translate(-9161.83 -1207.77) rotate(-90)" xlink:href="#linear-gradient"/><linearGradient id="linear-gradient-7" x1="-1280.58" y1="9271.17" x2="-1207.77" y2="9271.17" gradientTransform="translate(-9161.83 -1207.77) rotate(-90)" gradientUnits="userSpaceOnUse"><stop offset="0" stop-color="#1a1a1a"/><stop offset="0.01" stop-color="#1c1c1c"/><stop offset="0.11" stop-color="#3b3b3b"/><stop offset="0.21" stop-color="#4e4e4e"/><stop offset="0.27" stop-color="#555"/><stop offset="0.78" stop-color="#333"/><stop offset="1" stop-color="#1a1a1a"/></linearGradient><linearGradient id="linear-gradient-8" x1="-3686.62" y1="6656.97" x2="-3735.93" y2="6656.86" gradientTransform="translate(-6646.61 -3676.26) rotate(-90)" gradientUnits="userSpaceOnUse"><stop offset="0" stop-color="#1a1a1a"/><stop offset="0.06" stop-color="#424041"/><stop offset="0.11" stop-color="#615e5f"/><stop offset="0.16" stop-color="#747071"/><stop offset="0.19" stop-color="#7b7778"/><stop offset="0.5" stop-color="#666"/><stop offset="1" stop-color="#1a1a1a"/></linearGradient><linearGradient id="linear-gradient-9" x1="-3675.61" y1="6815.02" x2="-3746.95" y2="6814.86" gradientTransform="translate(-6646.61 -3676.26) rotate(-90)" gradientUnits="userSpaceOnUse"><stop offset="0" stop-color="#1a1a1a"/><stop offset="0.06" stop-color="#1d1d1d"/><stop offset="0.51" stop-color="#333"/><stop offset="0.79" stop-color="#212121"/><stop offset="1" stop-color="#1a1a1a"/></linearGradient><linearGradient id="linear-gradient-10" x1="-3675.52" y1="6817.16" x2="-3746.84" y2="6817" gradientTransform="translate(-6646.61 -3676.26) rotate(-90)" gradientUnits="userSpaceOnUse"><stop offset="0" stop-color="#1a1a1a"/><stop offset="0.06" stop-color="#424041"/><stop offset="0.11" stop-color="#615e5f"/><stop offset="0.16" stop-color="#747071"/><stop offset="0.19" stop-color="#7b7778"/><stop offset="0.32" stop-color="#b3b3b3"/><stop offset="0.5" stop-color="#666"/><stop offset="1" stop-color="#1a1a1a"/></linearGradient><linearGradient id="linear-gradient-11" x1="-3675.52" y1="6812.26" x2="-3746.84" y2="6812.26" gradientTransform="translate(-6646.61 -3676.26) rotate(-90)" gradientUnits="userSpaceOnUse"><stop offset="0" stop-color="#1a1a1a"/><stop offset="0.06" stop-color="#424041"/><stop offset="0.11" stop-color="#615e5f"/><stop offset="0.16" stop-color="#747071"/><stop offset="0.19" stop-color="#7b7778"/><stop offset="0.37" stop-color="#ccc"/><stop offset="0.5" stop-color="#666"/><stop offset="1" stop-color="#1a1a1a"/></linearGradient></defs><path class="cls-1" d="M39.81,16.26V55.15c0,2.88-2,5.21-4.54,5.21H5a4.22,4.22,0,0,1-3.2-1.53A6.46,6.46,0,0,1,.47,55.15c-.71-7.61-.53-33.21,0-38.89A6.56,6.56,0,0,1,1.8,12.58,4.24,4.24,0,0,1,5,11.06H35.27C37.78,11.06,39.81,13.39,39.81,16.26Z"/><rect class="cls-2" x="30.21" y="0.26" width="9.81" height="72.74"/><path class="cls-3" d="M30.21,73,26.53,61.69c-.6-8.48-.94-17.38-.92-26.67,0-8.8.34-17.25.92-25.33L30.21.26Z"/><rect class="cls-4" x="185.7" y="9.79" width="3.53" height="53.1"/><path class="cls-5" d="M189.23,9.79l1.69,8c.2,4.22.45,11,.43,19.39,0,7.61-.24,13.75-.43,17.78l-1.69,8Z"/><path class="cls-6" d="M180.49,0l5.92,7.66a259.47,259.47,0,0,1,1.49,26.83,258.94,258.94,0,0,1-1.49,28.74l-5.92,9.58c.94-11.52,1.54-24.36,1.48-38.32C181.92,22,181.35,10.48,180.49,0Z"/><path class="cls-7" d="M40.1,0H180.65A277.65,277.65,0,0,1,183,34.49a279.12,279.12,0,0,1-2.38,38.32H40.1A151.14,151.14,0,0,1,40.1,0Z"/><rect class="cls-8" x="9.21" y="11.06" width="2.19" height="49.3"/><rect class="cls-9" x="162.58" y="0.36" width="11.51" height="71.32"/><rect class="cls-10" x="168.85" y="0.26" width="3.25" height="71.32"/><rect class="cls-11" x="164.13" y="0.26" width="3.05" height="71.32"/><path class="cls-12" d="M97.33,15.41h5.87v1.32H98.44v2.32H97.33Z"/><path class="cls-12" d="M97.33,20.07h5.87v3.67h-1.12V21.39H100.9v2H99.79v-2H98.44v2.44H97.33Z"/><path class="cls-12" d="M97.33,25h5.87v1.36l-2.92,1.53-1.3.58v0c.32,0,.66-.05,1-.1a10.56,10.56,0,0,1,1.1-.06h2.07V29.6H97.33V28.24l2.92-1.53,1.28-.57v0l-1,.1a10,10,0,0,1-1.08.06H97.33Z"/><path class="cls-12" d="M97.22,32.78a3.09,3.09,0,0,1,.22-1.15,2.82,2.82,0,0,1,.63-1l.91.76a3,3,0,0,0-.45.7,1.89,1.89,0,0,0-.17.74c0,.55.19.82.57.82a.43.43,0,0,0,.41-.23,6,6,0,0,0,.29-.61L100,32a2.22,2.22,0,0,1,.57-.81,1.42,1.42,0,0,1,1-.37,1.6,1.6,0,0,1,1.24.59,2.24,2.24,0,0,1,.5,1.5,2.78,2.78,0,0,1-.19,1,2.65,2.65,0,0,1-.58.88l-.84-.67a2.8,2.8,0,0,0,.35-.58,1.62,1.62,0,0,0,.12-.64.94.94,0,0,0-.14-.54.45.45,0,0,0-.79,0,4.4,4.4,0,0,0-.29.64l-.31.75a2.06,2.06,0,0,1-.59.85A1.51,1.51,0,0,1,99,35a1.7,1.7,0,0,1-1.28-.58A2.31,2.31,0,0,1,97.22,32.78Z"/><path class="cls-12" d="M55.33,15.41H61.2v1.32H56.44v2.32H55.33Z"/><path class="cls-12" d="M55.33,20.07H61.2v3.67H60.08V21.39H58.9v2H57.79v-2H56.44v2.44H55.33Z"/><path class="cls-12" d="M55.33,25H61.2v1.36l-2.92,1.53-1.3.58v0c.32,0,.66-.05,1.05-.1a10.56,10.56,0,0,1,1.1-.06H61.2V29.6H55.33V28.24l2.92-1.53,1.28-.57v0l-1,.1a10,10,0,0,1-1.08.06H55.33Z"/><path class="cls-12" d="M55.22,32.78a3.09,3.09,0,0,1,.22-1.15,2.82,2.82,0,0,1,.63-1l.91.76a3,3,0,0,0-.45.7,1.89,1.89,0,0,0-.17.74c0,.55.19.82.57.82a.43.43,0,0,0,.41-.23,6,6,0,0,0,.29-.61L58,32a2.22,2.22,0,0,1,.57-.81,1.42,1.42,0,0,1,1-.37,1.6,1.6,0,0,1,1.24.59,2.24,2.24,0,0,1,.5,1.5,2.78,2.78,0,0,1-.19,1,2.65,2.65,0,0,1-.58.88l-.84-.67a2.8,2.8,0,0,0,.35-.58,1.62,1.62,0,0,0,.12-.64.94.94,0,0,0-.14-.54.45.45,0,0,0-.79,0,4.4,4.4,0,0,0-.29.64l-.31.75a2.06,2.06,0,0,1-.59.85A1.51,1.51,0,0,1,57,35a1.7,1.7,0,0,1-1.28-.58A2.31,2.31,0,0,1,55.22,32.78Z"/><path class="cls-12" d="M139.33,15.48h5.87v1.33h-4.75v2.32h-1.12Z"/><path class="cls-12" d="M139.33,20.14h5.87v3.68h-1.11V21.47h-1.18v2H141.8v-2h-1.35v2.44h-1.12Z"/><path class="cls-12" d="M139.33,25.08h5.87v1.36L142.29,28l-1.3.57v0l1-.1a10.71,10.71,0,0,1,1.1-.06h2.07v1.26h-5.87V28.32l2.93-1.53,1.28-.58v0l-1,.11a10,10,0,0,1-1.08.06h-2.08Z"/><path class="cls-12" d="M139.23,32.85a3.2,3.2,0,0,1,.84-2.17l.91.76a2.67,2.67,0,0,0-.44.7,1.93,1.93,0,0,0-.17.75c0,.54.19.82.57.82a.45.45,0,0,0,.41-.23c.08-.15.18-.36.29-.62l.32-.76a2.34,2.34,0,0,1,.57-.82,1.49,1.49,0,0,1,1-.36,1.58,1.58,0,0,1,1.24.58,2.21,2.21,0,0,1,.51,1.51,2.74,2.74,0,0,1-.2,1,2.61,2.61,0,0,1-.57.89l-.84-.68a2.36,2.36,0,0,0,.35-.58,1.61,1.61,0,0,0,.12-.63,1,1,0,0,0-.14-.55.47.47,0,0,0-.39-.2.44.44,0,0,0-.41.25c-.09.18-.18.39-.29.64l-.3.76a2.11,2.11,0,0,1-.6.84,1.5,1.5,0,0,1-1,.32,1.72,1.72,0,0,1-1.27-.58A2.33,2.33,0,0,1,139.23,32.85Z"/><path class="cls-12" d="M68.36,69.59V63.72h2a3.41,3.41,0,0,1,1.54.31,1.16,1.16,0,0,1,.62,1.15,1.6,1.6,0,0,1-.2.76,1.06,1.06,0,0,1-.56.51v0a1.48,1.48,0,0,1,.74.46,1.28,1.28,0,0,1,.31.92,1.42,1.42,0,0,1-.66,1.31,3,3,0,0,1-1.62.42Zm1.33-3.52h.62a1,1,0,0,0,.7-.19.63.63,0,0,0,.23-.5c0-.42-.31-.63-.92-.63h-.63Zm0,2.49h.74c.73,0,1.09-.26,1.09-.79s-.36-.72-1.09-.72h-.74Z"/><path class="cls-12" d="M73.81,69.59V63.72h3.67v1.12H75.13V66h2v1.11h-2v1.35h2.44v1.12Z"/><path class="cls-12" d="M81.85,69.59l-.35-1.4H79.7l-.36,1.4H78l1.84-5.87h1.59l1.84,5.87Zm-1.73-3-.15.54h1.25l-.13-.54c-.08-.3-.16-.61-.24-.94s-.16-.65-.24-1h0c-.07.31-.15.63-.22,1S80.2,66.32,80.12,66.62Z"/><path class="cls-12" d="M83.9,69.59V63.72h1.45l.94,2.61c.06.17.12.34.17.53s.11.37.17.55h0c.06-.18.12-.36.17-.55s.1-.36.16-.53l.93-2.61h1.44v5.87H88.16V67.44a7.8,7.8,0,0,1,.07-1c0-.38.08-.71.11-1h0l-.48,1.39L87,69.08h-.73l-.84-2.25L85,65.44h0c0,.28.06.61.1,1a7.8,7.8,0,0,1,.07,1v2.15Z"/><path class="cls-12" d="M92.56,69.59V63.72h3.67v1.12H93.88V66h2v1.11h-2v1.35h2.44v1.12Z"/><path class="cls-12" d="M96.89,69.59l1.63-3L97,63.72h1.48L99,64.83c.07.13.13.28.2.43s.14.33.23.51h0l.19-.51.19-.43.47-1.11h1.41l-1.52,2.92,1.62,3h-1.48l-.58-1.2c-.07-.15-.15-.3-.21-.46l-.23-.5h0c-.07.18-.13.35-.2.5s-.13.31-.2.46l-.54,1.2Z"/><path class="cls-12" d="M102.59,69.59V63.72h2a3.14,3.14,0,0,1,1.64.41,1.59,1.59,0,0,1,.69,1.48,1.71,1.71,0,0,1-.69,1.51,2.71,2.71,0,0,1-1.61.48h-.73v2Zm1.32-3h.65c.72,0,1.08-.32,1.08-.94a.7.7,0,0,0-.29-.65,1.53,1.53,0,0,0-.82-.19h-.62Z"/><path class="cls-12" d="M110.62,69.59l-.36-1.4h-1.79l-.36,1.4h-1.35l1.83-5.87h1.6L112,69.59Zm-1.74-3-.14.54H110l-.14-.54c-.08-.3-.16-.61-.24-.94s-.15-.65-.23-1h0c-.07.31-.14.63-.22,1S109,66.32,108.88,66.62Z"/><path class="cls-12" d="M112.66,69.59V63.72H114l1.53,2.92.58,1.29h0c0-.31,0-.66-.1-1a10.71,10.71,0,0,1-.06-1.1V63.72h1.26v5.87H115.9l-1.53-2.93-.57-1.28h0c0,.33.07.68.1,1.05a10,10,0,0,1,.06,1.08v2.08Z"/><path class="cls-12" d="M118.65,69.59V63.72h1.65a3.14,3.14,0,0,1,2.15.7,2.79,2.79,0,0,1,.8,2.21,2.88,2.88,0,0,1-.8,2.23,2.91,2.91,0,0,1-2.07.73ZM120,68.52h.25a1.73,1.73,0,0,0,1.21-.42,2,2,0,0,0,.46-1.47,1.86,1.86,0,0,0-.46-1.45,1.81,1.81,0,0,0-1.21-.39H120Z"/><path class="cls-12" d="M124.36,69.59V63.72H128v1.12h-2.35V66h2v1.11h-2v1.35h2.44v1.12Z"/><path class="cls-12" d="M130.62,69.59h-1.33V63.72h2.12a3.11,3.11,0,0,1,1.6.39,1.53,1.53,0,0,1,.66,1.44,1.84,1.84,0,0,1-.29,1.06,1.88,1.88,0,0,1-.76.63L134,69.59h-1.49l-1.12-2.12h-.73Zm0-3.17h.68c.71,0,1.07-.29,1.07-.87a.67.67,0,0,0-.27-.61,1.56,1.56,0,0,0-.8-.17h-.68Z"/><path class="cls-13" d="M142.94,3l-.45,0a3.69,3.69,0,0,0-.58,0,5.14,5.14,0,0,0-.55.06c-4.73.62-8.46,10.34-8.4,22.15,0,12.15,4.09,21.9,9,21.8a4,4,0,0,0,.59-.07h0a2.78,2.78,0,0,0,.58,0c4.91-.11,8.85-10,8.79-22.18S147.86,2.89,142.94,3Z"/><path class="cls-13" d="M101.05,2.81a2.28,2.28,0,0,0-.45,0,2.83,2.83,0,0,0-.58,0,3.55,3.55,0,0,0-.56.06C94.73,3.48,91,13.2,91.06,25c.06,12.14,4.1,21.9,9,21.79a2.88,2.88,0,0,0,.59-.06h0a3.64,3.64,0,0,0,.57,0c4.92-.11,8.86-10,8.8-22.19S106,2.7,101.05,2.81Z"/><path class="cls-13" d="M59,3a3.4,3.4,0,0,0-.45,0A3.76,3.76,0,0,0,58,3a3.53,3.53,0,0,0-.56,0c-4.73.62-8.46,10.34-8.4,22.16.06,12.14,4.1,21.9,9,21.79A4.07,4.07,0,0,0,58.6,47h0a3.63,3.63,0,0,0,.57,0c4.92-.1,8.86-10,8.8-22.18S63.9,2.91,59,3Z"/></svg>