<svg id="Layer_1" data-name="Layer 1" xmlns="http://www.w3.org/2000/svg" xmlns:xlink="http://www.w3.org/1999/xlink" viewBox="0 0 165.99 60"><defs><style>.cls-1{fill:url(#linear-gradient);}.cls-2{fill:url(#linear-gradient-2);}.cls-3{fill:url(#linear-gradient-3);}.cls-4{fill:url(#linear-gradient-4);}.cls-5{fill:url(#linear-gradient-5);}.cls-6{fill:url(#radial-gradient);}.cls-7{fill:url(#radial-gradient-2);}.cls-8{fill:url(#radial-gradient-3);}.cls-9{fill:url(#radial-gradient-4);}.cls-10{fill:url(#radial-gradient-5);}.cls-11{fill:url(#radial-gradient-6);}.cls-12{fill:url(#radial-gradient-7);}.cls-13{fill:url(#radial-gradient-8);}.cls-14{fill:url(#linear-gradient-6);}.cls-15,.cls-22{fill:#fff;}.cls-16{fill:#140000;}.cls-17{fill:url(#linear-gradient-7);}.cls-18{fill:url(#linear-gradient-8);}.cls-19{fill:url(#linear-gradient-9);}.cls-20{fill:url(#linear-gradient-10);}.cls-21{fill:url(#linear-gradient-11);}.cls-22{font-size:8px;font-family:Mada-Bold, Mada;font-weight:700;}.cls-23{letter-spacing:-0.03em;}.cls-24{letter-spacing:-0.04em;}.cls-25{letter-spacing:-0.07em;}.cls-26{letter-spacing:-0.12em;}</style><linearGradient id="linear-gradient" y1="30.76" x2="164.91" y2="30.76" gradientUnits="userSpaceOnUse"><stop offset="0" stop-color="#1a1a1a"/><stop offset="1" stop-color="#1a1a1a"/></linearGradient><linearGradient id="linear-gradient-2" x1="0.72" y1="29.6" x2="165.63" y2="29.6" gradientUnits="userSpaceOnUse"><stop offset="0" stop-color="#1a1a1a"/><stop offset="0.17" stop-color="#424041"/><stop offset="0.34" stop-color="#615e5f"/><stop offset="0.48" stop-color="#747071"/><stop offset="0.58" stop-color="#7b7778"/><stop offset="1" stop-color="#1a1a1a"/></linearGradient><linearGradient id="linear-gradient-3" x1="2339.44" y1="-3651.25" x2="2246.77" y2="-3743.92" gradientTransform="matrix(1, 0, 0, -1, -2209.93, -3668.42)" gradientUnits="userSpaceOnUse"><stop offset="0"/><stop offset="0.87"/></linearGradient><linearGradient id="linear-gradient-4" x1="5.81" y1="34.09" x2="5.81" y2="23.87" gradientUnits="userSpaceOnUse"><stop offset="0" stop-color="#1a1a1a"/><stop offset="0.06" stop-color="#424041"/><stop offset="0.11" stop-color="#615e5f"/><stop offset="0.16" stop-color="#747071"/><stop offset="0.19" stop-color="#7b7778"/><stop offset="0.38" stop-color="#b3b3b3"/><stop offset="0.53" stop-color="#adadad"/><stop offset="0.77" stop-color="#666"/><stop offset="1" stop-color="#1a1a1a"/></linearGradient><linearGradient id="linear-gradient-5" x1="-9415.19" y1="1318.97" x2="-9415.19" y2="1308.75" gradientTransform="translate(9575.85 -1284.88)" xlink:href="#linear-gradient-4"/><radialGradient id="radial-gradient" cx="146.68" cy="9.35" r="2.3" gradientTransform="translate(0.29 -0.15) rotate(-0.02)" gradientUnits="userSpaceOnUse"><stop offset="0.02" stop-color="#666"/><stop offset="0.55" stop-color="#333"/><stop offset="0.97" stop-color="#1a1a1a"/></radialGradient><radialGradient id="radial-gradient-2" cx="147.06" cy="9.35" r="2.3" gradientTransform="translate(0.29 -0.15) rotate(-0.02)" gradientUnits="userSpaceOnUse"><stop offset="0.02" stop-color="#666"/><stop offset="0.17" stop-color="#b8b8b8"/><stop offset="0.41" stop-color="#e6e6e6"/><stop offset="0.42" stop-color="#e1e1e1"/><stop offset="0.43" stop-color="#d3d3d3"/><stop offset="0.45" stop-color="#bbb"/><stop offset="0.46" stop-color="#9a9a9a"/><stop offset="0.47" stop-color="#707070"/><stop offset="0.48" stop-color="#4d4d4d"/><stop offset="0.49" stop-color="#5b5b5b"/><stop offset="0.51" stop-color="#818181"/><stop offset="0.53" stop-color="#bdbdbd"/><stop offset="0.54" stop-color="#d2d2d2"/><stop offset="0.69" stop-color="#979797"/><stop offset="0.88" stop-color="#4d4d4d"/><stop offset="0.95" stop-color="#333"/><stop offset="1" stop-color="#b3b3b3"/></radialGradient><radialGradient id="radial-gradient-3" cx="146.66" cy="50.55" r="2.3" xlink:href="#radial-gradient"/><radialGradient id="radial-gradient-4" cx="147.05" cy="50.55" r="2.3" xlink:href="#radial-gradient-2"/><radialGradient id="radial-gradient-5" cx="18.68" cy="9.01" r="2.3" xlink:href="#radial-gradient"/><radialGradient id="radial-gradient-6" cx="19.07" cy="9.01" r="2.3" xlink:href="#radial-gradient-2"/><radialGradient id="radial-gradient-7" cx="18.67" cy="50.2" r="2.3" xlink:href="#radial-gradient"/><radialGradient id="radial-gradient-8" cx="19.05" cy="50.2" r="2.3" xlink:href="#radial-gradient-2"/><linearGradient id="linear-gradient-6" x1="-3826.6" y1="839.06" x2="-3826.6" y2="793.87" gradientTransform="matrix(-1, 0, 0, 1, -3794.14, -786.7)" gradientUnits="userSpaceOnUse"><stop offset="0.02" stop-color="#666"/><stop offset="0.02" stop-color="#6e6e6e"/><stop offset="0.05" stop-color="#999899"/><stop offset="0.07" stop-color="#b8b7b8"/><stop offset="0.09" stop-color="#cbcacb"/><stop offset="0.11" stop-color="#d2d1d2"/><stop offset="0.18" stop-color="#c5c4c5"/><stop offset="0.29" stop-color="#979696"/><stop offset="0.33" stop-color="#919090"/><stop offset="0.5" stop-color="#f2f2f2"/><stop offset="0.78" stop-color="#c9c8c8"/><stop offset="0.85" stop-color="#fff"/><stop offset="1" stop-color="#4d4d4d"/></linearGradient><linearGradient id="linear-gradient-7" x1="-3846.6" y1="839.06" x2="-3846.6" y2="793.87" xlink:href="#linear-gradient-6"/><linearGradient id="linear-gradient-8" x1="-3866.6" y1="839.06" x2="-3866.6" y2="793.87" xlink:href="#linear-gradient-6"/><linearGradient id="linear-gradient-9" x1="-3886.6" y1="839.06" x2="-3886.6" y2="793.87" xlink:href="#linear-gradient-6"/><linearGradient id="linear-gradient-10" x1="-3906.6" y1="839.06" x2="-3906.6" y2="793.87" xlink:href="#linear-gradient-6"/><linearGradient id="linear-gradient-11" x1="-3926.6" y1="839.06" x2="-3926.6" y2="793.87" xlink:href="#linear-gradient-6"/></defs><path class="cls-1" d="M162.54,25.22h-7.79V3a1.6,1.6,0,0,0-1.69-1.5H11.85A1.6,1.6,0,0,0,10.16,3v22.2H2.37A2.25,2.25,0,0,0,0,27.31v6a2.25,2.25,0,0,0,2.37,2.09h7.79V58.5A1.6,1.6,0,0,0,11.85,60H153.06a1.6,1.6,0,0,0,1.69-1.5V35.43h7.79a2.25,2.25,0,0,0,2.37-2.09v-6A2.25,2.25,0,0,0,162.54,25.22Z"/><path class="cls-2" d="M163.26,24h-7.79V1.51A1.62,1.62,0,0,0,153.77,0H12.57a1.61,1.61,0,0,0-1.69,1.51V24H3.08A2.25,2.25,0,0,0,.72,26.11v6.1a2.26,2.26,0,0,0,2.36,2.12h7.8V57.68a1.61,1.61,0,0,0,1.69,1.52h141.2a1.62,1.62,0,0,0,1.7-1.52V34.33h7.79a2.27,2.27,0,0,0,2.37-2.12v-6.1A2.26,2.26,0,0,0,163.26,24Z"/><rect class="cls-3" x="58.24" y="-39.69" width="49.87" height="137.71" rx="1.91" transform="translate(54 112.34) rotate(-90)"/><path class="cls-4" d="M3.43,23.87h7.44a0,0,0,0,1,0,0V34.09a0,0,0,0,1,0,0H3.43A2.68,2.68,0,0,1,.75,31.41V26.55a2.68,2.68,0,0,1,2.68-2.68Z"/><path class="cls-5" d="M158,23.87h8a0,0,0,0,1,0,0V34.09a0,0,0,0,1,0,0h-8a2.68,2.68,0,0,1-2.68-2.68V26.55A2.68,2.68,0,0,1,158,23.87Z" transform="translate(321.32 57.96) rotate(180)"/><circle class="cls-6" cx="146.98" cy="9.14" r="2.3"/><circle class="cls-7" cx="147.36" cy="9.14" r="2.3"/><circle class="cls-8" cx="146.98" cy="50.34" r="2.3"/><circle class="cls-9" cx="147.36" cy="50.34" r="2.3"/><circle class="cls-10" cx="18.98" cy="8.85" r="2.3"/><circle class="cls-11" cx="19.36" cy="8.85" r="2.3"/><circle class="cls-12" cx="18.98" cy="50.05" r="2.3"/><circle class="cls-13" cx="19.36" cy="50.05" r="2.3"/><path class="cls-14" d="M34.06,7.17H28.3a111.86,111.86,0,0,1,2.3,21.4,111.81,111.81,0,0,1-2.3,23.78h5.76S39.82,29.76,34.06,7.17Z"/><path class="cls-15" d="M34.06,7.17H28.3a111.86,111.86,0,0,1,2.3,21.4,111.81,111.81,0,0,1-2.3,23.78h5.76S39.82,29.76,34.06,7.17Z"/><path class="cls-16" d="M35.25,42.83h-3.9V40.31h.86V41.8h.61V40.53h.87V41.8h.69V40.25h.87Z"/><path class="cls-16" d="M35.25,39.87l-2-1.06-1.89,1V38.65l.63-.26.3-.13.35-.15v0L32.28,38l-.3-.12-.63-.23v-1.1l1.94,1,2-1v1.15l-.7.31-.31.14-.34.14v0a2.68,2.68,0,0,1,.34.13l.31.12.7.29Z"/><path class="cls-16" d="M34.08,36.37h-.72V34.86h.72Z"/><path class="cls-16" d="M35.25,34.17h-3.9V31.62h.86v1.51H33V31.84h.86v1.29h1.43Z"/><path class="cls-16" d="M35.25,31h-3.9v-1h3.9Z"/><path class="cls-16" d="M35.25,29.06h-3.9V28h3V26.55h.87Z"/><path class="cls-16" d="M35.25,25.85h-3v1h-.86V23.79h.86v1h3Z"/><path class="cls-16" d="M35.25,23.21h-3.9V20.69h.86v1.49h.61V20.91h.87v1.27h.69V20.63h.87Z"/><path class="cls-16" d="M35.25,18.84v1h-3.9V18.4a2.65,2.65,0,0,1,.11-.77,1.17,1.17,0,0,1,.39-.57,1.15,1.15,0,0,1,.76-.22,1.31,1.31,0,0,1,.69.17,1.19,1.19,0,0,1,.43.46l1.52-.85v1.15l-1.31.68v.39Zm-2.13,0v-.37c0-.41-.17-.62-.51-.62a.36.36,0,0,0-.35.16.92.92,0,0,0-.1.46v.37Z"/><path class="cls-17" d="M54.06,7.17H48.3a111.86,111.86,0,0,1,2.3,21.4,111.81,111.81,0,0,1-2.3,23.78h5.76S59.82,29.76,54.06,7.17Z"/><path class="cls-15" d="M54.06,7.17H48.3a111.86,111.86,0,0,1,2.3,21.4,111.81,111.81,0,0,1-2.3,23.78h5.76S59.82,29.76,54.06,7.17Z"/><path class="cls-16" d="M55.25,42.83h-3.9V40.31h.86V41.8h.61V40.53h.87V41.8h.69V40.25h.87Z"/><path class="cls-16" d="M55.25,39.87l-2-1.06-1.89,1V38.65l.63-.26.3-.13.35-.15v0L52.28,38l-.3-.12-.63-.23v-1.1l1.94,1,2-1v1.15l-.7.31-.31.14-.34.14v0a2.68,2.68,0,0,1,.34.13l.31.12.7.29Z"/><path class="cls-16" d="M54.08,36.37h-.72V34.86h.72Z"/><path class="cls-16" d="M55.25,34.17h-3.9V31.62h.86v1.51H53V31.84h.86v1.29h1.43Z"/><path class="cls-16" d="M55.25,31h-3.9v-1h3.9Z"/><path class="cls-16" d="M55.25,29.06h-3.9V28h3V26.55h.87Z"/><path class="cls-16" d="M55.25,25.85h-3v1h-.86V23.79h.86v1h3Z"/><path class="cls-16" d="M55.25,23.21h-3.9V20.69h.86v1.49h.61V20.91h.87v1.27h.69V20.63h.87Z"/><path class="cls-16" d="M55.25,18.84v1h-3.9V18.4a2.65,2.65,0,0,1,.11-.77,1.17,1.17,0,0,1,.39-.57,1.15,1.15,0,0,1,.76-.22,1.31,1.31,0,0,1,.69.17,1.19,1.19,0,0,1,.43.46l1.52-.85v1.15l-1.31.68v.39Zm-2.13,0v-.37c0-.41-.17-.62-.51-.62a.36.36,0,0,0-.35.16.92.92,0,0,0-.1.46v.37Z"/><path class="cls-18" d="M74.06,7.17H68.3a111.86,111.86,0,0,1,2.3,21.4,111.81,111.81,0,0,1-2.3,23.78h5.76S79.82,29.76,74.06,7.17Z"/><path class="cls-15" d="M74.06,7.17H68.3a111.86,111.86,0,0,1,2.3,21.4,111.81,111.81,0,0,1-2.3,23.78h5.76S79.82,29.76,74.06,7.17Z"/><path class="cls-16" d="M75.25,42.83h-3.9V40.31h.86V41.8h.61V40.53h.87V41.8h.69V40.25h.87Z"/><path class="cls-16" d="M75.25,39.87l-2-1.06-1.89,1V38.65l.63-.26.3-.13.35-.15v0L72.28,38l-.3-.12-.63-.23v-1.1l1.94,1,2-1v1.15l-.7.31-.31.14-.34.14v0a2.68,2.68,0,0,1,.34.13l.31.12.7.29Z"/><path class="cls-16" d="M74.08,36.37h-.72V34.86h.72Z"/><path class="cls-16" d="M75.25,34.17h-3.9V31.62h.86v1.51H73V31.84h.86v1.29h1.43Z"/><path class="cls-16" d="M75.25,31h-3.9v-1h3.9Z"/><path class="cls-16" d="M75.25,29.06h-3.9V28h3V26.55h.87Z"/><path class="cls-16" d="M75.25,25.85h-3v1h-.86V23.79h.86v1h3Z"/><path class="cls-16" d="M75.25,23.21h-3.9V20.69h.86v1.49h.61V20.91h.87v1.27h.69V20.63h.87Z"/><path class="cls-16" d="M75.25,18.84v1h-3.9V18.4a2.65,2.65,0,0,1,.11-.77,1.17,1.17,0,0,1,.39-.57,1.15,1.15,0,0,1,.76-.22,1.31,1.31,0,0,1,.69.17,1.19,1.19,0,0,1,.43.46l1.52-.85v1.15l-1.31.68v.39Zm-2.13,0v-.37c0-.41-.17-.62-.51-.62a.36.36,0,0,0-.35.16.92.92,0,0,0-.1.46v.37Z"/><path class="cls-19" d="M94.06,7.17H88.3a111.86,111.86,0,0,1,2.3,21.4,111.81,111.81,0,0,1-2.3,23.78h5.76S99.82,29.76,94.06,7.17Z"/><path class="cls-15" d="M94.06,7.17H88.3a111.86,111.86,0,0,1,2.3,21.4,111.81,111.81,0,0,1-2.3,23.78h5.76S99.82,29.76,94.06,7.17Z"/><path class="cls-16" d="M95.25,42.83h-3.9V40.31h.86V41.8h.61V40.53h.87V41.8h.69V40.25h.87Z"/><path class="cls-16" d="M95.25,39.87l-2-1.06-1.89,1V38.65l.63-.26.3-.13.35-.15v0L92.28,38l-.3-.12-.63-.23v-1.1l1.94,1,2-1v1.15l-.7.31-.31.14-.34.14v0a2.68,2.68,0,0,1,.34.13l.31.12.7.29Z"/><path class="cls-16" d="M94.08,36.37h-.72V34.86h.72Z"/><path class="cls-16" d="M95.25,34.17h-3.9V31.62h.86v1.51H93V31.84h.86v1.29h1.43Z"/><path class="cls-16" d="M95.25,31h-3.9v-1h3.9Z"/><path class="cls-16" d="M95.25,29.06h-3.9V28h3V26.55h.87Z"/><path class="cls-16" d="M95.25,25.85h-3v1h-.86V23.79h.86v1h3Z"/><path class="cls-16" d="M95.25,23.21h-3.9V20.69h.86v1.49h.61V20.91h.87v1.27h.69V20.63h.87Z"/><path class="cls-16" d="M95.25,18.84v1h-3.9V18.4a2.65,2.65,0,0,1,.11-.77,1.17,1.17,0,0,1,.39-.57,1.15,1.15,0,0,1,.76-.22,1.31,1.31,0,0,1,.69.17,1.19,1.19,0,0,1,.43.46l1.52-.85v1.15l-1.31.68v.39Zm-2.13,0v-.37c0-.41-.17-.62-.51-.62a.36.36,0,0,0-.35.16.92.92,0,0,0-.1.46v.37Z"/><path class="cls-20" d="M114.06,7.17H108.3a111.86,111.86,0,0,1,2.3,21.4,111.81,111.81,0,0,1-2.3,23.78h5.76S119.82,29.76,114.06,7.17Z"/><path class="cls-15" d="M114.06,7.17H108.3a111.86,111.86,0,0,1,2.3,21.4,111.81,111.81,0,0,1-2.3,23.78h5.76S119.82,29.76,114.06,7.17Z"/><path class="cls-16" d="M115.25,42.83h-3.9V40.31h.86V41.8h.61V40.53h.87V41.8h.69V40.25h.87Z"/><path class="cls-16" d="M115.25,39.87l-2-1.06-1.89,1V38.65l.63-.26.3-.13.35-.15v0l-.35-.12-.3-.12-.63-.23v-1.1l1.94,1,2-1v1.15l-.7.31-.31.14-.34.14v0a2.68,2.68,0,0,1,.34.13l.31.12.7.29Z"/><path class="cls-16" d="M114.08,36.37h-.72V34.86h.72Z"/><path class="cls-16" d="M115.25,34.17h-3.9V31.62h.86v1.51H113V31.84h.86v1.29h1.43Z"/><path class="cls-16" d="M115.25,31h-3.9v-1h3.9Z"/><path class="cls-16" d="M115.25,29.06h-3.9V28h3V26.55h.87Z"/><path class="cls-16" d="M115.25,25.85h-3v1h-.86V23.79h.86v1h3Z"/><path class="cls-16" d="M115.25,23.21h-3.9V20.69h.86v1.49h.61V20.91h.87v1.27h.69V20.63h.87Z"/><path class="cls-16" d="M115.25,18.84v1h-3.9V18.4a2.65,2.65,0,0,1,.11-.77,1.17,1.17,0,0,1,.39-.57,1.15,1.15,0,0,1,.76-.22,1.31,1.31,0,0,1,.69.17,1.19,1.19,0,0,1,.43.46l1.52-.85v1.15l-1.31.68v.39Zm-2.13,0v-.37c0-.41-.17-.62-.51-.62a.36.36,0,0,0-.35.16.92.92,0,0,0-.1.46v.37Z"/><path class="cls-21" d="M134.06,7.17H128.3a111.79,111.79,0,0,1,0,45.18h5.76S139.82,29.76,134.06,7.17Z"/><path class="cls-15" d="M134.06,7.17H128.3a111.79,111.79,0,0,1,0,45.18h5.76S139.82,29.76,134.06,7.17Z"/><path class="cls-16" d="M135.25,42.83h-3.9V40.31h.86V41.8h.61V40.53h.87V41.8h.69V40.25h.87Z"/><path class="cls-16" d="M135.25,39.87l-2-1.06-1.89,1V38.65l.63-.26.3-.13.35-.15v0l-.35-.12-.3-.12-.63-.23v-1.1l1.94,1,2-1v1.15l-.7.31-.31.14-.34.14v0a2.68,2.68,0,0,1,.34.13l.31.12.7.29Z"/><path class="cls-16" d="M134.08,36.37h-.72V34.86h.72Z"/><path class="cls-16" d="M135.25,34.17h-3.9V31.62h.86v1.51H133V31.84h.86v1.29h1.43Z"/><path class="cls-16" d="M135.25,31h-3.9v-1h3.9Z"/><path class="cls-16" d="M135.25,29.06h-3.9V28h3V26.55h.87Z"/><path class="cls-16" d="M135.25,25.85h-3v1h-.86V23.79h.86v1h3Z"/><path class="cls-16" d="M135.25,23.21h-3.9V20.69h.86v1.49h.61V20.91h.87v1.27h.69V20.63h.87Z"/><path class="cls-16" d="M135.25,18.84v1h-3.9V18.4a2.65,2.65,0,0,1,.11-.77,1.17,1.17,0,0,1,.39-.57,1.15,1.15,0,0,1,.76-.22,1.31,1.31,0,0,1,.69.17,1.19,1.19,0,0,1,.43.46l1.52-.85v1.15l-1.31.68v.39Zm-2.13,0v-.37c0-.41-.17-.62-.51-.62a.36.36,0,0,0-.35.16.92.92,0,0,0-.1.46v.37Z"/><text class="cls-22" transform="translate(34.99 59.36)">E<tspan class="cls-23" x="4.38" y="0">X</tspan><tspan x="8.71" y="0">CI</tspan><tspan class="cls-24" x="15.78" y="0">T</tspan><tspan class="cls-25" x="19.9" y="0">A</tspan><tspan x="23.9" y="0">TION FI</tspan><tspan class="cls-26" x="49.75" y="0">L</tspan><tspan x="52.94" y="0">TER SLIDER</tspan></text></svg>