<svg id="Layer_1" data-name="Layer 1" xmlns="http://www.w3.org/2000/svg" xmlns:xlink="http://www.w3.org/1999/xlink" viewBox="0 0 527.37 18.43"><defs><style>.cls-1{fill:#b7b7b7;}.cls-2{fill:url(#linear-gradient);}.cls-3{fill:url(#linear-gradient-2);}.cls-4{fill:#fff;}</style><linearGradient id="linear-gradient" x1="263.65" y1="13.21" x2="263.65" gradientUnits="userSpaceOnUse"><stop offset="0" stop-color="#1a1a1a"/><stop offset="0.08" stop-color="#424041"/><stop offset="0.16" stop-color="#615e5f"/><stop offset="0.22" stop-color="#747071"/><stop offset="0.27" stop-color="#7b7778"/><stop offset="0.4" stop-color="#666"/><stop offset="0.43" stop-color="#5f5f5f"/><stop offset="0.58" stop-color="#414141"/><stop offset="0.72" stop-color="#2b2b2b"/><stop offset="0.87" stop-color="#1e1e1e"/><stop offset="1" stop-color="#1a1a1a"/></linearGradient><linearGradient id="linear-gradient-2" x1="0.06" y1="16.67" x2="527.37" y2="16.67" gradientTransform="translate(527.43 33.35) rotate(-180)" gradientUnits="userSpaceOnUse"><stop offset="0"/><stop offset="0.14" stop-color="#080808"/><stop offset="0.36" stop-color="#1f1e1e"/><stop offset="0.55" stop-color="#363535"/><stop offset="0.61" stop-color="#282727"/><stop offset="0.75" stop-color="#121212"/><stop offset="0.88" stop-color="#050404"/><stop offset="1"/></linearGradient></defs><rect class="cls-1" x="0.06" y="10.66" width="527.3" height="4.26"/><path class="cls-2" d="M523,.43H507.62V2.23H494.49V3.42h-43V2.23h-13V.31l-15.31,0V2.47H410.09V3.66h-43V2.47h-13V.18l-15.32,0V2.47H325.7V3.66h-43V2.47h-13V.08l-15.32,0V2.47H241.3V3.66h-43V2.47h-13V0H170V2.47H156.91V3.66h-43V2.47H101V0H85.64V2.47H72.51V3.66h-43V2.47h-13V.21C9,.27,4.72.35,4.28.43c-3,.6-3.86,2-3.86,2A3,3,0,0,0,0,4v9.26H527.3V4C527.3,2,525.39.43,523,.43Z"/><path class="cls-3" d="M3.58,14.91H523.85a3.52,3.52,0,0,1,3.52,3.52v0a0,0,0,0,1,0,0H.06a0,0,0,0,1,0,0v0A3.52,3.52,0,0,1,3.58,14.91Z" transform="translate(527.43 33.35) rotate(180)"/><path class="cls-4" d="M230.41,11.48v-5h3.1v1h-2V8.59h1.7v.95h-1.7v1.94Z"/><path class="cls-4" d="M234.36,11.48v-5h1.11v5Z"/><path class="cls-4" d="M236.62,11.48v-5h1.11v4h2v1Z"/><path class="cls-4" d="M240.58,11.48v-4h-1.35v-1H243v1h-1.35v4Z"/><path class="cls-4" d="M243.81,11.48v-5h3.07v1h-2v1h1.67v.94h-1.67v1.15h2v1Z"/><path class="cls-4" d="M249.05,11.48h-1.11v-5h1.77a2.59,2.59,0,0,1,1.34.33A1.3,1.3,0,0,1,251.6,8a1.6,1.6,0,0,1-.24.91,1.55,1.55,0,0,1-.63.53l1.11,2H250.6l-.94-1.8h-.61Zm0-2.69h.57c.6,0,.89-.25.89-.75a.56.56,0,0,0-.22-.51,1.26,1.26,0,0,0-.67-.15h-.57Z"/><path class="cls-4" d="M256.11,11.58a2.3,2.3,0,0,1-1.14-.29,2.22,2.22,0,0,1-.83-.86A2.88,2.88,0,0,1,253.83,9a3,3,0,0,1,.32-1.42,2.23,2.23,0,0,1,2-1.21,1.81,1.81,0,0,1,.85.2,2.33,2.33,0,0,1,.63.46l-.59.72a1.76,1.76,0,0,0-.4-.29.91.91,0,0,0-.47-.11,1,1,0,0,0-.85.43A1.77,1.77,0,0,0,255,9a1.94,1.94,0,0,0,.32,1.2,1,1,0,0,0,.87.42,1,1,0,0,0,.53-.13,1.7,1.7,0,0,0,.42-.33l.59.7A2,2,0,0,1,256.11,11.58Z"/><path class="cls-4" d="M260.25,11.58a1.81,1.81,0,0,1-1.46-.58,2.7,2.7,0,0,1-.51-1.83V6.49h1.12V9.28a1.84,1.84,0,0,0,.21,1,.74.74,0,0,0,.64.29.75.75,0,0,0,.64-.29,1.75,1.75,0,0,0,.22-1V6.49h1.07V9.17a2.76,2.76,0,0,1-.49,1.83A1.78,1.78,0,0,1,260.25,11.58Z"/><path class="cls-4" d="M263.32,11.48v-5H265a2.76,2.76,0,0,1,1.28.26,1,1,0,0,1,.53,1,1.4,1.4,0,0,1-.17.65.93.93,0,0,1-.47.43v0a1.31,1.31,0,0,1,.62.39,1.13,1.13,0,0,1,.26.78,1.24,1.24,0,0,1-.55,1.12,2.46,2.46,0,0,1-1.36.35Zm1.11-3H265a.92.92,0,0,0,.59-.16.55.55,0,0,0,.18-.43c0-.36-.25-.54-.77-.54h-.52Zm0,2.12h.62c.61,0,.91-.22.91-.67s-.3-.62-.91-.62h-.62Z"/><path class="cls-4" d="M267.88,11.48v-5H271v1h-2v1h1.68v.94H269v1.15h2v1Z"/><path class="cls-4" d="M274.47,11.48v-4h-1.35v-1h3.81v1h-1.35v4Z"/><path class="cls-4" d="M279.64,11.58a1.84,1.84,0,0,1-1.47-.58,2.76,2.76,0,0,1-.5-1.83V6.49h1.11V9.28a1.83,1.83,0,0,0,.22,1,.74.74,0,0,0,.64.29.77.77,0,0,0,.64-.29,1.75,1.75,0,0,0,.22-1V6.49h1.07V9.17a2.76,2.76,0,0,1-.49,1.83A1.78,1.78,0,0,1,279.64,11.58Z"/><path class="cls-4" d="M283.82,11.48h-1.11v-5h1.77a2.59,2.59,0,0,1,1.34.33A1.32,1.32,0,0,1,286.37,8a1.6,1.6,0,0,1-.24.91,1.55,1.55,0,0,1-.63.53l1.11,2h-1.24l-.94-1.8h-.61Zm0-2.69h.57c.6,0,.89-.25.89-.75a.55.55,0,0,0-.23-.51,1.19,1.19,0,0,0-.66-.15h-.57Z"/><path class="cls-4" d="M288.43,11.48h-1.1v-5h1.77a2.55,2.55,0,0,1,1.33.33A1.31,1.31,0,0,1,291,8a1.6,1.6,0,0,1-.24.91,1.65,1.65,0,0,1-.64.53l1.12,2H290L289,9.68h-.61Zm0-2.69H289q.9,0,.9-.75a.55.55,0,0,0-.23-.51,1.21,1.21,0,0,0-.67-.15h-.57Z"/><path class="cls-4" d="M291.94,11.48v-5H295v1h-2v1h1.67v.94h-1.67v1.15h2v1Z"/><path class="cls-4" d="M297,11.48v-4h-1.35v-1h3.81v1h-1.35v4Z"/></svg>