<svg id="Layer_1" data-name="Layer 1" xmlns="http://www.w3.org/2000/svg" xmlns:xlink="http://www.w3.org/1999/xlink" viewBox="0 0 165.99 60"><defs><style>.cls-1{fill:url(#linear-gradient);}.cls-2{fill:url(#linear-gradient-2);}.cls-3{fill:url(#linear-gradient-3);}.cls-4{fill:url(#linear-gradient-4);}.cls-5{fill:url(#linear-gradient-5);}.cls-6{fill:url(#radial-gradient);}.cls-7{fill:url(#radial-gradient-2);}.cls-8{fill:url(#radial-gradient-3);}.cls-9{fill:url(#radial-gradient-4);}.cls-10{fill:url(#radial-gradient-5);}.cls-11{fill:url(#radial-gradient-6);}.cls-12{fill:url(#radial-gradient-7);}.cls-13{fill:url(#radial-gradient-8);}.cls-14{fill:url(#linear-gradient-6);}.cls-15,.cls-22{fill:#fff;}.cls-16{fill:#140000;}.cls-17{fill:url(#linear-gradient-7);}.cls-18{fill:url(#linear-gradient-8);}.cls-19{fill:url(#linear-gradient-9);}.cls-20{fill:url(#linear-gradient-10);}.cls-21{fill:url(#linear-gradient-11);}.cls-22{font-size:8px;font-family:Mada-Bold, Mada;font-weight:700;}.cls-23{letter-spacing:-0.02em;}.cls-24{letter-spacing:0em;}.cls-25{letter-spacing:-0.12em;}</style><linearGradient id="linear-gradient" x1="0.02" y1="30.77" x2="164.92" y2="30.77" gradientUnits="userSpaceOnUse"><stop offset="0" stop-color="#1a1a1a"/><stop offset="1" stop-color="#1a1a1a"/></linearGradient><linearGradient id="linear-gradient-2" x1="0.74" y1="29.61" x2="165.64" y2="29.61" gradientUnits="userSpaceOnUse"><stop offset="0" stop-color="#1a1a1a"/><stop offset="0.17" stop-color="#424041"/><stop offset="0.34" stop-color="#615e5f"/><stop offset="0.48" stop-color="#747071"/><stop offset="0.58" stop-color="#7b7778"/><stop offset="1" stop-color="#1a1a1a"/></linearGradient><linearGradient id="linear-gradient-3" x1="1976.39" y1="-4014.25" x2="1883.66" y2="-4106.98" gradientTransform="matrix(1, 0, 0, -1, -1846.83, -4031.38)" gradientUnits="userSpaceOnUse"><stop offset="0"/><stop offset="0.87"/></linearGradient><linearGradient id="linear-gradient-4" x1="5.82" y1="34.1" x2="5.82" y2="23.88" gradientUnits="userSpaceOnUse"><stop offset="0" stop-color="#1a1a1a"/><stop offset="0.06" stop-color="#424041"/><stop offset="0.11" stop-color="#615e5f"/><stop offset="0.16" stop-color="#747071"/><stop offset="0.19" stop-color="#7b7778"/><stop offset="0.38" stop-color="#b3b3b3"/><stop offset="0.53" stop-color="#adadad"/><stop offset="0.77" stop-color="#666"/><stop offset="1" stop-color="#1a1a1a"/></linearGradient><linearGradient id="linear-gradient-5" x1="-10141.22" y1="1318.96" x2="-10141.22" y2="1308.74" gradientTransform="translate(10301.9 -1284.86)" xlink:href="#linear-gradient-4"/><radialGradient id="radial-gradient" cx="146.68" cy="9.49" r="2.3" gradientTransform="translate(0.29 -0.29) rotate(-0.02)" gradientUnits="userSpaceOnUse"><stop offset="0.02" stop-color="#666"/><stop offset="0.55" stop-color="#333"/><stop offset="0.97" stop-color="#1a1a1a"/></radialGradient><radialGradient id="radial-gradient-2" cx="147.06" cy="9.49" r="2.3" gradientTransform="translate(0.29 -0.29) rotate(-0.02)" gradientUnits="userSpaceOnUse"><stop offset="0.02" stop-color="#666"/><stop offset="0.17" stop-color="#b8b8b8"/><stop offset="0.41" stop-color="#e6e6e6"/><stop offset="0.42" stop-color="#e1e1e1"/><stop offset="0.43" stop-color="#d3d3d3"/><stop offset="0.45" stop-color="#bbb"/><stop offset="0.46" stop-color="#9a9a9a"/><stop offset="0.47" stop-color="#707070"/><stop offset="0.48" stop-color="#4d4d4d"/><stop offset="0.49" stop-color="#5b5b5b"/><stop offset="0.51" stop-color="#818181"/><stop offset="0.53" stop-color="#bdbdbd"/><stop offset="0.54" stop-color="#d2d2d2"/><stop offset="0.69" stop-color="#979797"/><stop offset="0.88" stop-color="#4d4d4d"/><stop offset="0.95" stop-color="#333"/><stop offset="1" stop-color="#b3b3b3"/></radialGradient><radialGradient id="radial-gradient-3" cx="146.66" cy="50.69" r="2.3" xlink:href="#radial-gradient"/><radialGradient id="radial-gradient-4" cx="147.05" cy="50.69" r="2.3" xlink:href="#radial-gradient-2"/><radialGradient id="radial-gradient-5" cx="18.68" cy="9.15" r="2.3" xlink:href="#radial-gradient"/><radialGradient id="radial-gradient-6" cx="19.07" cy="9.15" r="2.3" xlink:href="#radial-gradient-2"/><radialGradient id="radial-gradient-7" cx="18.67" cy="50.34" r="2.3" xlink:href="#radial-gradient"/><radialGradient id="radial-gradient-8" cx="19.05" cy="50.34" r="2.3" xlink:href="#radial-gradient-2"/><linearGradient id="linear-gradient-6" x1="-4868.28" y1="-946.39" x2="-4868.28" y2="-991.57" gradientTransform="matrix(0, -1, -1, 0, -856.1, -4824.38)" gradientUnits="userSpaceOnUse"><stop offset="0.02" stop-color="#666"/><stop offset="0.02" stop-color="#6e6e6e"/><stop offset="0.05" stop-color="#999899"/><stop offset="0.07" stop-color="#b8b7b8"/><stop offset="0.09" stop-color="#cbcacb"/><stop offset="0.11" stop-color="#d2d1d2"/><stop offset="0.18" stop-color="#c5c4c5"/><stop offset="0.29" stop-color="#979696"/><stop offset="0.33" stop-color="#919090"/><stop offset="0.5" stop-color="#f2f2f2"/><stop offset="0.78" stop-color="#c9c8c8"/><stop offset="0.85" stop-color="#fff"/><stop offset="1" stop-color="#4d4d4d"/></linearGradient><linearGradient id="linear-gradient-7" x1="-4854.45" y1="-946.39" x2="-4854.45" y2="-991.57" xlink:href="#linear-gradient-6"/><linearGradient id="linear-gradient-8" x1="-4840.61" y1="-946.39" x2="-4840.61" y2="-991.57" xlink:href="#linear-gradient-6"/><linearGradient id="linear-gradient-9" x1="-4868.28" y1="-885.39" x2="-4868.28" y2="-930.57" xlink:href="#linear-gradient-6"/><linearGradient id="linear-gradient-10" x1="-4854.45" y1="-885.39" x2="-4854.45" y2="-930.57" xlink:href="#linear-gradient-6"/><linearGradient id="linear-gradient-11" x1="-4840.61" y1="-885.39" x2="-4840.61" y2="-930.57" xlink:href="#linear-gradient-6"/></defs><path class="cls-1" d="M162.56,25.23h-7.79V3a1.61,1.61,0,0,0-1.7-1.49H11.87A1.6,1.6,0,0,0,10.18,3V25.23H2.38A2.24,2.24,0,0,0,0,27.32v6a2.24,2.24,0,0,0,2.36,2.09h7.8V58.51A1.6,1.6,0,0,0,11.87,60h141.2a1.61,1.61,0,0,0,1.7-1.5V35.44h7.79a2.24,2.24,0,0,0,2.36-2.09v-6A2.24,2.24,0,0,0,162.56,25.23Z"/><path class="cls-2" d="M163.28,24h-7.8V1.52A1.61,1.61,0,0,0,153.79,0H12.59A1.61,1.61,0,0,0,10.9,1.52V24H3.1A2.25,2.25,0,0,0,.74,26.11v6.11A2.26,2.26,0,0,0,3.1,34.34h7.8V57.69a1.62,1.62,0,0,0,1.69,1.52h141.2a1.62,1.62,0,0,0,1.69-1.52V34.34h7.8a2.26,2.26,0,0,0,2.36-2.12V26.11A2.25,2.25,0,0,0,163.28,24Z"/><rect class="cls-3" x="58.19" y="-39.62" width="49.99" height="137.71" rx="1.91" transform="translate(53.95 112.43) rotate(-90)"/><path class="cls-4" d="M3.44,23.88h7.44a0,0,0,0,1,0,0V34.1a0,0,0,0,1,0,0H3.44A2.68,2.68,0,0,1,.76,31.42V26.56a2.68,2.68,0,0,1,2.68-2.68Z"/><path class="cls-5" d="M158,23.88h8a0,0,0,0,1,0,0V34.1a0,0,0,0,1,0,0h-8a2.68,2.68,0,0,1-2.68-2.68V26.56A2.68,2.68,0,0,1,158,23.88Z" transform="translate(321.36 57.98) rotate(180)"/><circle class="cls-6" cx="146.98" cy="9.14" r="2.3"/><circle class="cls-7" cx="147.36" cy="9.14" r="2.3"/><circle class="cls-8" cx="146.98" cy="50.34" r="2.3"/><circle class="cls-9" cx="147.36" cy="50.34" r="2.3"/><circle class="cls-10" cx="18.98" cy="8.85" r="2.3"/><circle class="cls-11" cx="19.36" cy="8.85" r="2.3"/><circle class="cls-12" cx="18.98" cy="50.05" r="2.3"/><circle class="cls-13" cx="19.36" cy="50.05" r="2.3"/><path class="cls-14" d="M135.47,45.51V39.75a111.77,111.77,0,0,1-21.4,2.3,111.81,111.81,0,0,1-23.78-2.3v5.76S112.88,51.27,135.47,45.51Z"/><path class="cls-15" d="M135.47,45.51V39.75a111.77,111.77,0,0,1-21.4,2.3,111.81,111.81,0,0,1-23.78-2.3v5.76S112.88,51.27,135.47,45.51Z"/><path class="cls-16" d="M99.81,46.7V42.8h2.52v.86h-1.49v.61h1.28v.87h-1.28v.69h1.55v.87Z"/><path class="cls-16" d="M103.15,46.7V42.8h1.1l.59,1.59a3.37,3.37,0,0,1,.1.34c0,.12.07.24.1.35h0c0-.11.07-.23.1-.35s.07-.23.1-.34l.57-1.59h1.1v3.9H106V45.55a6.38,6.38,0,0,1,0-.7c0-.27.06-.5.09-.7h0l-.32.94-.48,1.29h-.55l-.48-1.29-.32-.94h0c0,.2,0,.43.08.7a4.59,4.59,0,0,1,0,.7V46.7Z"/><path class="cls-16" d="M107.64,45.53v-.72h1.51v.72Z"/><path class="cls-16" d="M109.84,46.7V42.8h2.55v.86h-1.51v.75h1.29v.86h-1.29V46.7Z"/><path class="cls-16" d="M113.06,46.7V42.8h1v3.9Z"/><path class="cls-16" d="M115,46.7V42.8h1v3h1.47v.87Z"/><path class="cls-16" d="M118.16,46.7v-3h-1V42.8h3.09v.86h-1v3Z"/><path class="cls-16" d="M120.8,46.7V42.8h2.52v.86h-1.49v.61h1.27v.87h-1.27v.69h1.55v.87Z"/><path class="cls-16" d="M125.17,46.7h-1V42.8h1.48a2.65,2.65,0,0,1,.77.11,1.25,1.25,0,0,1,.58.39,1.21,1.21,0,0,1,.21.76,1.31,1.31,0,0,1-.17.69,1.29,1.29,0,0,1-.46.44l.85,1.51h-1.15l-.68-1.31h-.39Zm0-2.13h.37c.42,0,.62-.17.62-.51a.36.36,0,0,0-.16-.35.92.92,0,0,0-.46-.1h-.37Z"/><path class="cls-17" d="M135.47,31.67V25.91a111.69,111.69,0,0,1-21.4,2.31,111.74,111.74,0,0,1-23.78-2.31v5.76S112.88,37.43,135.47,31.67Z"/><path class="cls-15" d="M135.47,31.67V25.91a111.69,111.69,0,0,1-21.4,2.31,111.74,111.74,0,0,1-23.78-2.31v5.76S112.88,37.43,135.47,31.67Z"/><path class="cls-16" d="M99.81,32.86V29h2.52v.87h-1.49v.61h1.28v.86h-1.28V32h1.55v.86Z"/><path class="cls-16" d="M103.15,32.86V29h1.1l.59,1.6a3.37,3.37,0,0,1,.1.34l.1.34h0l.1-.34c0-.12.07-.23.1-.34l.57-1.6h1.1v3.9H106V31.71a6.55,6.55,0,0,1,0-.7q0-.41.09-.69h0l-.32.93-.48,1.29h-.55l-.48-1.29-.32-.93h0c0,.19,0,.42.08.69a4.68,4.68,0,0,1,0,.7v1.15Z"/><path class="cls-16" d="M107.64,31.7V31h1.51v.72Z"/><path class="cls-16" d="M109.84,32.86V29h2.55v.87h-1.51v.74h1.29v.86h-1.29v1.43Z"/><path class="cls-16" d="M113.06,32.86V29h1v3.9Z"/><path class="cls-16" d="M115,32.86V29h1v3h1.47v.86Z"/><path class="cls-16" d="M118.16,32.86v-3h-1V29h3.09v.87h-1v3Z"/><path class="cls-16" d="M120.8,32.86V29h2.52v.87h-1.49v.61h1.27v.86h-1.27V32h1.55v.86Z"/><path class="cls-16" d="M125.17,32.86h-1V29h1.48a2.35,2.35,0,0,1,.77.12,1.16,1.16,0,0,1,.58.38,1.23,1.23,0,0,1,.21.76,1.37,1.37,0,0,1-.17.7,1.26,1.26,0,0,1-.46.43l.85,1.51h-1.15l-.68-1.31h-.39Zm0-2.12h.37c.42,0,.62-.17.62-.52a.37.37,0,0,0-.16-.35.94.94,0,0,0-.46-.09h-.37Z"/><path class="cls-18" d="M135.47,17.84V12.08a111.77,111.77,0,0,1-21.4,2.3,111.81,111.81,0,0,1-23.78-2.3v5.76S112.88,23.59,135.47,17.84Z"/><path class="cls-15" d="M135.47,17.84V12.08a111.77,111.77,0,0,1-21.4,2.3,111.81,111.81,0,0,1-23.78-2.3v5.76S112.88,23.59,135.47,17.84Z"/><path class="cls-16" d="M99.81,19v-3.9h2.52V16h-1.49v.61h1.28v.87h-1.28v.69h1.55V19Z"/><path class="cls-16" d="M103.15,19v-3.9h1.1l.59,1.59a3.37,3.37,0,0,1,.1.34c0,.12.07.23.1.35h0c0-.12.07-.23.1-.35s.07-.23.1-.34l.57-1.59h1.1V19H106V17.87a6.21,6.21,0,0,1,0-.69c0-.27.06-.5.09-.7h0l-.32.94-.48,1.29h-.55l-.48-1.29-.32-.94h0c0,.2,0,.43.08.7a4.47,4.47,0,0,1,0,.69V19Z"/><path class="cls-16" d="M107.64,17.86v-.72h1.51v.72Z"/><path class="cls-16" d="M109.84,19v-3.9h2.55V16h-1.51v.74h1.29v.87h-1.29V19Z"/><path class="cls-16" d="M113.06,19v-3.9h1V19Z"/><path class="cls-16" d="M115,19v-3.9h1v3h1.47V19Z"/><path class="cls-16" d="M118.16,19V16h-1v-.86h3.09V16h-1v3Z"/><path class="cls-16" d="M120.8,19v-3.9h2.52V16h-1.49v.61h1.27v.87h-1.27v.69h1.55V19Z"/><path class="cls-16" d="M125.17,19h-1v-3.9h1.48a2.35,2.35,0,0,1,.77.11,1.25,1.25,0,0,1,.58.39,1.21,1.21,0,0,1,.21.76,1.31,1.31,0,0,1-.17.69,1.19,1.19,0,0,1-.46.43l.85,1.52h-1.15l-.68-1.31h-.39Zm0-2.13h.37c.42,0,.62-.17.62-.51A.36.36,0,0,0,126,16a.83.83,0,0,0-.46-.1h-.37Z"/><path class="cls-19" d="M74.47,45.51V39.75a111.77,111.77,0,0,1-21.4,2.3,111.81,111.81,0,0,1-23.78-2.3v5.76S51.88,51.27,74.47,45.51Z"/><path class="cls-15" d="M74.47,45.51V39.75a111.77,111.77,0,0,1-21.4,2.3,111.81,111.81,0,0,1-23.78-2.3v5.76S51.88,51.27,74.47,45.51Z"/><path class="cls-16" d="M38.81,46.7V42.8h2.52v.86H39.84v.61h1.28v.87H39.84v.69h1.55v.87Z"/><path class="cls-16" d="M42.15,46.7V42.8h1.1l.59,1.59a3.37,3.37,0,0,1,.1.34c0,.12.07.24.1.35h0c0-.11.07-.23.1-.35s.07-.23.1-.34l.57-1.59h1.1v3.9H45V45.55a6.38,6.38,0,0,1,0-.7c0-.27.06-.5.09-.7h0l-.32.94-.48,1.29h-.55l-.48-1.29L43,44.15h0c0,.2.05.43.08.7a4.59,4.59,0,0,1,0,.7V46.7Z"/><path class="cls-16" d="M46.64,45.53v-.72h1.51v.72Z"/><path class="cls-16" d="M48.84,46.7V42.8h2.55v.86H49.88v.75h1.29v.86H49.88V46.7Z"/><path class="cls-16" d="M52.06,46.7V42.8h1v3.9Z"/><path class="cls-16" d="M54,46.7V42.8h1v3h1.47v.87Z"/><path class="cls-16" d="M57.16,46.7v-3h-1V42.8h3.09v.86h-1v3Z"/><path class="cls-16" d="M59.8,46.7V42.8h2.52v.86H60.83v.61H62.1v.87H60.83v.69h1.55v.87Z"/><path class="cls-16" d="M64.17,46.7h-1V42.8h1.48a2.65,2.65,0,0,1,.77.11,1.25,1.25,0,0,1,.58.39,1.21,1.21,0,0,1,.21.76,1.31,1.31,0,0,1-.17.69,1.29,1.29,0,0,1-.46.44l.85,1.51H65.24l-.68-1.31h-.39Zm0-2.13h.37c.42,0,.62-.17.62-.51a.36.36,0,0,0-.16-.35.92.92,0,0,0-.46-.1h-.37Z"/><path class="cls-20" d="M74.47,31.67V25.91a111.69,111.69,0,0,1-21.4,2.31,111.74,111.74,0,0,1-23.78-2.31v5.76S51.88,37.43,74.47,31.67Z"/><path class="cls-15" d="M74.47,31.67V25.91a111.69,111.69,0,0,1-21.4,2.31,111.74,111.74,0,0,1-23.78-2.31v5.76S51.88,37.43,74.47,31.67Z"/><path class="cls-16" d="M38.81,32.86V29h2.52v.87H39.84v.61h1.28v.86H39.84V32h1.55v.86Z"/><path class="cls-16" d="M42.15,32.86V29h1.1l.59,1.6a3.37,3.37,0,0,1,.1.34l.1.34h0l.1-.34c0-.12.07-.23.1-.34l.57-1.6h1.1v3.9H45V31.71a6.55,6.55,0,0,1,0-.7q0-.41.09-.69h0l-.32.93-.48,1.29h-.55l-.48-1.29L43,30.32h0c0,.19.05.42.08.69a4.68,4.68,0,0,1,0,.7v1.15Z"/><path class="cls-16" d="M46.64,31.7V31h1.51v.72Z"/><path class="cls-16" d="M48.84,32.86V29h2.55v.87H49.88v.74h1.29v.86H49.88v1.43Z"/><path class="cls-16" d="M52.06,32.86V29h1v3.9Z"/><path class="cls-16" d="M54,32.86V29h1v3h1.47v.86Z"/><path class="cls-16" d="M57.16,32.86v-3h-1V29h3.09v.87h-1v3Z"/><path class="cls-16" d="M59.8,32.86V29h2.52v.87H60.83v.61H62.1v.86H60.83V32h1.55v.86Z"/><path class="cls-16" d="M64.17,32.86h-1V29h1.48a2.35,2.35,0,0,1,.77.12,1.16,1.16,0,0,1,.58.38,1.23,1.23,0,0,1,.21.76,1.37,1.37,0,0,1-.17.7,1.26,1.26,0,0,1-.46.43l.85,1.51H65.24l-.68-1.31h-.39Zm0-2.12h.37c.42,0,.62-.17.62-.52a.37.37,0,0,0-.16-.35.94.94,0,0,0-.46-.09h-.37Z"/><path class="cls-21" d="M74.47,17.84V12.08a111.77,111.77,0,0,1-21.4,2.3,111.81,111.81,0,0,1-23.78-2.3v5.76S51.88,23.59,74.47,17.84Z"/><path class="cls-15" d="M74.47,17.84V12.08a111.77,111.77,0,0,1-21.4,2.3,111.81,111.81,0,0,1-23.78-2.3v5.76S51.88,23.59,74.47,17.84Z"/><path class="cls-16" d="M38.81,19v-3.9h2.52V16H39.84v.61h1.28v.87H39.84v.69h1.55V19Z"/><path class="cls-16" d="M42.15,19v-3.9h1.1l.59,1.59a3.37,3.37,0,0,1,.1.34c0,.12.07.23.1.35h0c0-.12.07-.23.1-.35s.07-.23.1-.34l.57-1.59h1.1V19H45V17.87a6.21,6.21,0,0,1,0-.69c0-.27.06-.5.09-.7h0l-.32.94-.48,1.29h-.55l-.48-1.29L43,16.48h0c0,.2.05.43.08.7a4.47,4.47,0,0,1,0,.69V19Z"/><path class="cls-16" d="M46.64,17.86v-.72h1.51v.72Z"/><path class="cls-16" d="M48.84,19v-3.9h2.55V16H49.88v.74h1.29v.87H49.88V19Z"/><path class="cls-16" d="M52.06,19v-3.9h1V19Z"/><path class="cls-16" d="M54,19v-3.9h1v3h1.47V19Z"/><path class="cls-16" d="M57.16,19V16h-1v-.86h3.09V16h-1v3Z"/><path class="cls-16" d="M59.8,19v-3.9h2.52V16H60.83v.61H62.1v.87H60.83v.69h1.55V19Z"/><path class="cls-16" d="M64.17,19h-1v-3.9h1.48a2.35,2.35,0,0,1,.77.11,1.25,1.25,0,0,1,.58.39,1.21,1.21,0,0,1,.21.76,1.31,1.31,0,0,1-.17.69,1.19,1.19,0,0,1-.46.43L66.39,19H65.24l-.68-1.31h-.39Zm0-2.13h.37c.42,0,.62-.17.62-.51A.36.36,0,0,0,65,16a.83.83,0,0,0-.46-.1h-.37Z"/><text class="cls-22" transform="translate(39.39 59.36)">EMI<tspan class="cls-23" x="12.89" y="0">S</tspan><tspan class="cls-24" x="17.19" y="0">SION FI</tspan><tspan class="cls-25" x="43.04" y="0">L</tspan><tspan x="46.22" y="0">TER SLIDER</tspan></text></svg>