<svg id="Layer_1" data-name="Layer 1" xmlns="http://www.w3.org/2000/svg" xmlns:xlink="http://www.w3.org/1999/xlink" viewBox="0 0 226.31 20.27"><defs><style>.cls-1{fill:#b7b7b7;}.cls-2{fill:url(#linear-gradient);}.cls-3{fill:url(#linear-gradient-2);}.cls-4{fill:#fff;}</style><linearGradient id="linear-gradient" x1="0.01" y1="18.21" x2="226.3" y2="18.21" gradientTransform="translate(226.31 36.42) rotate(-180)" gradientUnits="userSpaceOnUse"><stop offset="0"/><stop offset="0.14" stop-color="#080808"/><stop offset="0.36" stop-color="#1f1e1e"/><stop offset="0.55" stop-color="#363535"/><stop offset="0.61" stop-color="#282727"/><stop offset="0.75" stop-color="#121212"/><stop offset="0.88" stop-color="#050404"/><stop offset="1"/></linearGradient><linearGradient id="linear-gradient-2" x1="113.15" x2="113.15" y2="14" gradientUnits="userSpaceOnUse"><stop offset="0" stop-color="#1d1d1d"/><stop offset="0.15" stop-color="#2b2b2b"/><stop offset="0.42" stop-color="#505050"/><stop offset="0.49" stop-color="#5b5b5b"/><stop offset="0.62" stop-color="#6f6f6f"/><stop offset="0.72" stop-color="gray"/><stop offset="0.87" stop-color="#727272"/><stop offset="1" stop-color="#414141"/></linearGradient></defs><rect class="cls-1" y="11.14" width="226.31" height="5"/><path class="cls-2" d="M4.14,16.14h218a4.13,4.13,0,0,1,4.13,4.13v0a0,0,0,0,1,0,0H0a0,0,0,0,1,0,0v0A4.13,4.13,0,0,1,4.14,16.14Z" transform="translate(226.31 36.42) rotate(180)"/><path class="cls-3" d="M223.11,0H208.24c-1.54,3.27-3.53,5.26-5.72,5.31a3.64,3.64,0,0,1-.57,0h0a3.05,3.05,0,0,1-.6.06c-2.25,0-4.31-2-5.89-5.33H172.82c-1.53,3.27-3.53,5.26-5.71,5.31a3.69,3.69,0,0,1-.58,0h0a3,3,0,0,1-.59.06c-2.25,0-4.32-2-5.9-5.33H137.4c-1.53,3.27-3.52,5.26-5.71,5.31a3.69,3.69,0,0,1-.58,0h0a2.88,2.88,0,0,1-.59.06c-2.25,0-4.31-2-5.9-5.33H102c-1.54,3.27-3.53,5.26-5.72,5.31a3.64,3.64,0,0,1-.57,0h0a2.88,2.88,0,0,1-.59.06c-2.25,0-4.31-2-5.89-5.33H66.57C65,3.27,63,5.26,60.85,5.31a3.64,3.64,0,0,1-.57,0h0a3,3,0,0,1-.59.06c-2.25,0-4.32-2-5.9-5.33H31.15c-1.53,3.27-3.52,5.26-5.71,5.31a3.69,3.69,0,0,1-.58,0h0a2.88,2.88,0,0,1-.59.06c-2.25,0-4.31-2-5.9-5.33H3.2C1.43,0,0,1.85,0,4.13V14H226.31V4.13C226.31,1.85,224.88,0,223.11,0Z"/><path class="cls-4" d="M83.9,12.4A2.47,2.47,0,0,1,82,11.59a3.27,3.27,0,0,1-.74-2.26A3.16,3.16,0,0,1,82,7.1a2.75,2.75,0,0,1,3.85,0,3.13,3.13,0,0,1,.74,2.22,3.27,3.27,0,0,1-.74,2.26A2.48,2.48,0,0,1,83.9,12.4Zm0-1.14a1.1,1.1,0,0,0,1-.53,2.48,2.48,0,0,0,.35-1.4A2.37,2.37,0,0,0,84.86,8a1.12,1.12,0,0,0-1-.5A1.1,1.1,0,0,0,83,8a2.37,2.37,0,0,0-.35,1.37,2.48,2.48,0,0,0,.35,1.4A1.09,1.09,0,0,0,83.9,11.26Z"/><path class="cls-4" d="M87.67,12.29V6.42h2a3.11,3.11,0,0,1,1.65.42A1.58,1.58,0,0,1,92,8.31a1.74,1.74,0,0,1-.68,1.52,2.82,2.82,0,0,1-1.61.47H89v2Zm1.33-3h.65c.72,0,1.08-.31,1.08-.94a.71.71,0,0,0-.29-.64,1.48,1.48,0,0,0-.83-.19H89Z"/><path class="cls-4" d="M94.06,12.29V7.54H92.44V6.42H97V7.54H95.39v4.75Z"/><path class="cls-4" d="M97.92,12.29V6.42h1.32v5.87Z"/><path class="cls-4" d="M103.07,12.4a2.75,2.75,0,0,1-1.36-.34,2.6,2.6,0,0,1-1-1,3.34,3.34,0,0,1-.37-1.66,3.34,3.34,0,0,1,.38-1.66,2.58,2.58,0,0,1,1-1.05,2.72,2.72,0,0,1,1.37-.36,2.25,2.25,0,0,1,1,.22,3.08,3.08,0,0,1,.74.54l-.7.85a2.43,2.43,0,0,0-.47-.34,1.17,1.17,0,0,0-.57-.13,1.3,1.3,0,0,0-1,.5,2.17,2.17,0,0,0-.41,1.39,2.27,2.27,0,0,0,.38,1.41,1.27,1.27,0,0,0,1,.5,1.35,1.35,0,0,0,.64-.16,2.16,2.16,0,0,0,.5-.39l.7.83A2.39,2.39,0,0,1,103.07,12.4Z"/><path class="cls-4" d="M107.4,12.4a3.13,3.13,0,0,1-1.15-.22,3,3,0,0,1-1-.63l.76-.91a3,3,0,0,0,.7.45,1.93,1.93,0,0,0,.75.17c.54,0,.82-.19.82-.57a.44.44,0,0,0-.23-.41,4.11,4.11,0,0,0-.62-.29l-.76-.33a2.25,2.25,0,0,1-.82-.57,1.45,1.45,0,0,1-.36-1,1.59,1.59,0,0,1,.58-1.24,2.2,2.2,0,0,1,1.51-.5,2.73,2.73,0,0,1,1,.19,2.79,2.79,0,0,1,.89.58l-.68.84a2.36,2.36,0,0,0-.58-.35,1.61,1.61,0,0,0-.63-.12.92.92,0,0,0-.55.14.45.45,0,0,0-.2.39.42.42,0,0,0,.25.4c.18.09.39.19.64.29l.76.31a2.09,2.09,0,0,1,.84.59,1.52,1.52,0,0,1,.32,1,1.7,1.7,0,0,1-.58,1.27A2.29,2.29,0,0,1,107.4,12.4Z"/><path class="cls-4" d="M113.56,12.29V7.54H112V6.42h4.55V7.54h-1.61v4.75Z"/><path class="cls-4" d="M119.73,12.4a2.21,2.21,0,0,1-1.74-.68,3.12,3.12,0,0,1-.61-2.15V6.42h1.34V9.71a2,2,0,0,0,.26,1.2.88.88,0,0,0,.75.35.93.93,0,0,0,.77-.35,2,2,0,0,0,.27-1.2V6.42h1.28V9.57a3.23,3.23,0,0,1-.59,2.15A2.19,2.19,0,0,1,119.73,12.4Z"/><path class="cls-4" d="M124.73,12.29H123.4V6.42h2.12a3.11,3.11,0,0,1,1.6.39,1.54,1.54,0,0,1,.66,1.44,1.82,1.82,0,0,1-.29,1.06,1.74,1.74,0,0,1-.76.63l1.34,2.35h-1.49l-1.12-2.11h-.73Zm0-3.17h.68c.72,0,1.07-.29,1.07-.87a.65.65,0,0,0-.27-.6,1.49,1.49,0,0,0-.8-.17h-.68Z"/><path class="cls-4" d="M130.24,12.29h-1.32V6.42H131a3.07,3.07,0,0,1,1.59.39,1.55,1.55,0,0,1,.67,1.44A1.82,1.82,0,0,1,133,9.31a1.86,1.86,0,0,1-.76.63l1.33,2.35H132.1L131,10.18h-.73Zm0-3.17h.69c.71,0,1.07-.29,1.07-.87a.65.65,0,0,0-.27-.6,1.49,1.49,0,0,0-.8-.17h-.69Z"/><path class="cls-4" d="M134.44,12.29V6.42h3.67V7.54h-2.35V8.72h2V9.83h-2v1.34h2.44v1.12Z"/><path class="cls-4" d="M140.51,12.29V7.54H138.9V6.42h4.56V7.54h-1.61v4.75Z"/></svg>