<svg id="Layer_1" data-name="Layer 1" xmlns="http://www.w3.org/2000/svg" xmlns:xlink="http://www.w3.org/1999/xlink" viewBox="0 0 191.35 73"><defs><style>.cls-1{fill:url(#linear-gradient);}.cls-2{fill:url(#linear-gradient-2);}.cls-3{fill:url(#linear-gradient-3);}.cls-4{fill:url(#linear-gradient-4);}.cls-5{fill:url(#linear-gradient-5);}.cls-6{fill:url(#linear-gradient-6);}.cls-7{fill:url(#linear-gradient-7);}.cls-8{fill:url(#linear-gradient-8);}.cls-9{fill:url(#linear-gradient-9);}.cls-10{fill:url(#linear-gradient-10);}.cls-11{fill:url(#linear-gradient-11);}.cls-12{fill:#fff;}.cls-13{fill:none;stroke:#fff;stroke-miterlimit:10;stroke-width:0.5px;opacity:0.67;}</style><linearGradient id="linear-gradient" x1="-3594.08" y1="6759.36" x2="-3643.45" y2="6759.25" gradientTransform="translate(-6739.38 -3583.76) rotate(-90)" gradientUnits="userSpaceOnUse"><stop offset="0"/><stop offset="0.14" stop-color="#080808"/><stop offset="0.36" stop-color="#1f1e1e"/><stop offset="0.55" stop-color="#363535"/><stop offset="0.61" stop-color="#282727"/><stop offset="0.75" stop-color="#121212"/><stop offset="0.88" stop-color="#050404"/><stop offset="1"/></linearGradient><linearGradient id="linear-gradient-2" x1="-4251.74" y1="-7200.67" x2="-4179" y2="-7200.67" gradientTransform="translate(-7165.56 4252) rotate(90)" xlink:href="#linear-gradient"/><linearGradient id="linear-gradient-3" x1="-4252.76" y1="-7193.46" x2="-4180.02" y2="-7193.46" gradientTransform="translate(-7165.56 4252) rotate(90)" gradientUnits="userSpaceOnUse"><stop offset="0" stop-color="#1a1a1a"/><stop offset="0.09" stop-color="#2c2c2c"/><stop offset="0.15" stop-color="#333"/><stop offset="0.4" stop-color="#4d4d4d"/><stop offset="0.78" stop-color="#333"/><stop offset="1" stop-color="#1a1a1a"/></linearGradient><linearGradient id="linear-gradient-4" x1="-1178.15" y1="9442.07" x2="-1125.05" y2="9442.07" gradientTransform="translate(-9254.6 -1115.27) rotate(-90)" xlink:href="#linear-gradient-3"/><linearGradient id="linear-gradient-5" x1="-1178.9" y1="9444.89" x2="-1125.8" y2="9444.89" gradientTransform="translate(-9254.6 -1115.27) rotate(-90)" xlink:href="#linear-gradient"/><linearGradient id="linear-gradient-6" x1="-1188.08" y1="9438.8" x2="-1115.27" y2="9438.8" gradientTransform="translate(-9254.6 -1115.27) rotate(-90)" xlink:href="#linear-gradient"/><linearGradient id="linear-gradient-7" x1="-1188.08" y1="9363.95" x2="-1115.27" y2="9363.95" gradientTransform="translate(-9254.6 -1115.27) rotate(-90)" gradientUnits="userSpaceOnUse"><stop offset="0" stop-color="#1a1a1a"/><stop offset="0.01" stop-color="#1c1c1c"/><stop offset="0.11" stop-color="#3b3b3b"/><stop offset="0.21" stop-color="#4e4e4e"/><stop offset="0.27" stop-color="#555"/><stop offset="0.78" stop-color="#333"/><stop offset="1" stop-color="#1a1a1a"/></linearGradient><linearGradient id="linear-gradient-8" x1="-3594.12" y1="6749.74" x2="-3643.42" y2="6749.63" gradientTransform="translate(-6739.38 -3583.76) rotate(-90)" gradientUnits="userSpaceOnUse"><stop offset="0" stop-color="#1a1a1a"/><stop offset="0.06" stop-color="#424041"/><stop offset="0.11" stop-color="#615e5f"/><stop offset="0.16" stop-color="#747071"/><stop offset="0.19" stop-color="#7b7778"/><stop offset="0.5" stop-color="#666"/><stop offset="1" stop-color="#1a1a1a"/></linearGradient><linearGradient id="linear-gradient-9" x1="-3583.1" y1="6907.79" x2="-3654.44" y2="6907.63" gradientTransform="translate(-6739.38 -3583.76) rotate(-90)" gradientUnits="userSpaceOnUse"><stop offset="0" stop-color="#1a1a1a"/><stop offset="0.06" stop-color="#1d1d1d"/><stop offset="0.51" stop-color="#333"/><stop offset="0.79" stop-color="#212121"/><stop offset="1" stop-color="#1a1a1a"/></linearGradient><linearGradient id="linear-gradient-10" x1="-3583.01" y1="6909.94" x2="-3654.34" y2="6909.78" gradientTransform="translate(-6739.38 -3583.76) rotate(-90)" gradientUnits="userSpaceOnUse"><stop offset="0" stop-color="#1a1a1a"/><stop offset="0.06" stop-color="#424041"/><stop offset="0.11" stop-color="#615e5f"/><stop offset="0.16" stop-color="#747071"/><stop offset="0.19" stop-color="#7b7778"/><stop offset="0.32" stop-color="#b3b3b3"/><stop offset="0.5" stop-color="#666"/><stop offset="1" stop-color="#1a1a1a"/></linearGradient><linearGradient id="linear-gradient-11" x1="-3583.02" y1="6905.04" x2="-3654.33" y2="6905.04" gradientTransform="translate(-6739.38 -3583.76) rotate(-90)" gradientUnits="userSpaceOnUse"><stop offset="0" stop-color="#1a1a1a"/><stop offset="0.06" stop-color="#424041"/><stop offset="0.11" stop-color="#615e5f"/><stop offset="0.16" stop-color="#747071"/><stop offset="0.19" stop-color="#7b7778"/><stop offset="0.37" stop-color="#ccc"/><stop offset="0.5" stop-color="#666"/><stop offset="1" stop-color="#1a1a1a"/></linearGradient></defs><path class="cls-1" d="M39.81,16.26V55.15c0,2.88-2,5.21-4.54,5.21H5a4.22,4.22,0,0,1-3.2-1.53A6.46,6.46,0,0,1,.47,55.15c-.71-7.61-.53-33.21,0-38.89A6.56,6.56,0,0,1,1.8,12.58,4.24,4.24,0,0,1,5,11.06H35.27C37.78,11.06,39.81,13.39,39.81,16.26Z"/><rect class="cls-2" x="30.21" y="0.26" width="9.81" height="72.74"/><path class="cls-3" d="M30.21,73,26.53,61.69c-.6-8.48-.94-17.38-.92-26.67,0-8.8.34-17.25.92-25.33L30.21.26Z"/><rect class="cls-4" x="185.7" y="9.79" width="3.53" height="53.1"/><path class="cls-5" d="M189.23,9.79l1.69,8c.2,4.22.45,11,.43,19.39,0,7.61-.24,13.75-.43,17.78l-1.69,8Z"/><path class="cls-6" d="M180.49,0l5.92,7.66a259.47,259.47,0,0,1,1.49,26.83,258.94,258.94,0,0,1-1.49,28.74l-5.92,9.58c.94-11.52,1.54-24.36,1.48-38.32C181.92,22,181.35,10.48,180.49,0Z"/><path class="cls-7" d="M40.1,0H180.65A277.65,277.65,0,0,1,183,34.49a279.12,279.12,0,0,1-2.38,38.32H40.1A151.14,151.14,0,0,1,40.1,0Z"/><rect class="cls-8" x="9.21" y="11.06" width="2.19" height="49.3"/><rect class="cls-9" x="162.58" y="0.36" width="11.51" height="71.32"/><rect class="cls-10" x="168.85" y="0.26" width="3.25" height="71.32"/><rect class="cls-11" x="164.13" y="0.26" width="3.05" height="71.32"/><path class="cls-12" d="M97.33,15.41h5.87v1.32H98.44v2.32H97.33Z"/><path class="cls-12" d="M97.33,20.07h5.87v3.67h-1.12V21.39H100.9v2H99.79v-2H98.44v2.44H97.33Z"/><path class="cls-12" d="M97.33,25h5.87v1.36l-2.92,1.53-1.3.58v0c.32,0,.66-.05,1-.1a10.56,10.56,0,0,1,1.1-.06h2.07V29.6H97.33V28.24l2.92-1.53,1.28-.57v0l-1,.1a10.19,10.19,0,0,1-1.08.06H97.33Z"/><path class="cls-12" d="M97.22,32.78a3.09,3.09,0,0,1,.22-1.15,2.82,2.82,0,0,1,.63-1l.91.76a2.54,2.54,0,0,0-.45.7,1.85,1.85,0,0,0-.17.74c0,.55.19.82.57.82a.43.43,0,0,0,.41-.23,6,6,0,0,0,.29-.61L100,32a2.22,2.22,0,0,1,.57-.81,1.42,1.42,0,0,1,1-.37,1.6,1.6,0,0,1,1.24.59,2.24,2.24,0,0,1,.5,1.5,2.78,2.78,0,0,1-.19,1,2.65,2.65,0,0,1-.58.88l-.84-.67a2.8,2.8,0,0,0,.35-.58,1.66,1.66,0,0,0,.12-.64.94.94,0,0,0-.14-.54.45.45,0,0,0-.79,0,4.77,4.77,0,0,0-.29.63l-.31.76a2.06,2.06,0,0,1-.59.85A1.53,1.53,0,0,1,99,35a1.7,1.7,0,0,1-1.28-.58A2.31,2.31,0,0,1,97.22,32.78Z"/><path class="cls-12" d="M55.33,15.41H61.2v1.32H56.44v2.32H55.33Z"/><path class="cls-12" d="M55.33,20.07H61.2v3.67H60.08V21.39H58.9v2H57.79v-2H56.44v2.44H55.33Z"/><path class="cls-12" d="M55.33,25H61.2v1.36l-2.92,1.53-1.3.58v0c.32,0,.66-.05,1.05-.1a10.56,10.56,0,0,1,1.1-.06H61.2V29.6H55.33V28.24l2.92-1.53,1.28-.57v0l-1,.1a10.19,10.19,0,0,1-1.08.06H55.33Z"/><path class="cls-12" d="M55.22,32.78a3.09,3.09,0,0,1,.22-1.15,2.82,2.82,0,0,1,.63-1l.91.76a2.54,2.54,0,0,0-.45.7,1.85,1.85,0,0,0-.17.74c0,.55.19.82.57.82a.43.43,0,0,0,.41-.23,6,6,0,0,0,.29-.61L58,32a2.22,2.22,0,0,1,.57-.81,1.42,1.42,0,0,1,1-.37,1.6,1.6,0,0,1,1.24.59,2.24,2.24,0,0,1,.5,1.5,2.78,2.78,0,0,1-.19,1,2.65,2.65,0,0,1-.58.88l-.84-.67a2.8,2.8,0,0,0,.35-.58,1.66,1.66,0,0,0,.12-.64.94.94,0,0,0-.14-.54.45.45,0,0,0-.79,0,4.77,4.77,0,0,0-.29.63l-.31.76a2.06,2.06,0,0,1-.59.85A1.53,1.53,0,0,1,57,35a1.7,1.7,0,0,1-1.28-.58A2.31,2.31,0,0,1,55.22,32.78Z"/><path class="cls-12" d="M139.34,15.48h5.86v1.33h-4.75v2.32h-1.11Z"/><path class="cls-12" d="M139.34,20.14h5.86v3.68h-1.11V21.47h-1.18v2H141.8v-2h-1.35v2.44h-1.11Z"/><path class="cls-12" d="M139.34,25.08h5.86v1.36L142.29,28l-1.3.57v0l1-.1a10.52,10.52,0,0,1,1.09-.06h2.07v1.26h-5.86V28.32l2.92-1.53,1.28-.58v0l-1,.11a10,10,0,0,1-1.08.06h-2.07Z"/><path class="cls-12" d="M139.23,32.85a3.2,3.2,0,0,1,.84-2.17l.91.76a3,3,0,0,0-.44.7,1.93,1.93,0,0,0-.17.75c0,.54.19.82.57.82a.45.45,0,0,0,.41-.23c.08-.16.18-.36.29-.62l.32-.76a2.34,2.34,0,0,1,.57-.82,1.5,1.5,0,0,1,1-.36,1.57,1.57,0,0,1,1.23.58,2.21,2.21,0,0,1,.51,1.51,2.55,2.55,0,0,1-.2,1,2.61,2.61,0,0,1-.57.89l-.84-.68a2.36,2.36,0,0,0,.35-.58,1.61,1.61,0,0,0,.12-.63,1,1,0,0,0-.14-.55.45.45,0,0,0-.39-.2.44.44,0,0,0-.41.25c-.09.18-.18.39-.28.64l-.31.76a2.11,2.11,0,0,1-.6.84,1.49,1.49,0,0,1-1,.32,1.74,1.74,0,0,1-1.28-.58A2.33,2.33,0,0,1,139.23,32.85Z"/><path class="cls-12" d="M66.36,69.59V63.72h2a3.41,3.41,0,0,1,1.54.31,1.16,1.16,0,0,1,.62,1.15,1.6,1.6,0,0,1-.2.76,1.06,1.06,0,0,1-.56.51v0a1.48,1.48,0,0,1,.74.46,1.28,1.28,0,0,1,.31.92,1.42,1.42,0,0,1-.66,1.31,3,3,0,0,1-1.62.42Zm1.33-3.52h.62a1,1,0,0,0,.7-.19.63.63,0,0,0,.23-.5c0-.42-.31-.63-.92-.63h-.63Zm0,2.49h.74c.73,0,1.09-.26,1.09-.79s-.36-.72-1.09-.72h-.74Z"/><path class="cls-12" d="M71.81,69.59V63.72h3.67v1.12H73.13V66h2v1.11h-2v1.35h2.44v1.12Z"/><path class="cls-12" d="M79.86,69.59l-.37-1.4H77.7l-.36,1.4H76l1.84-5.87h1.59l1.84,5.87Zm-1.74-3-.15.54h1.26l-.14-.54c-.08-.3-.17-.61-.24-.94s-.16-.65-.24-1h0c-.08.31-.15.63-.22,1S78.2,66.32,78.12,66.62Z"/><path class="cls-12" d="M81.9,69.59V63.72h1.45l.94,2.61c.06.17.12.34.17.53s.11.37.17.55h0c.06-.18.12-.36.17-.55s.1-.36.16-.53l.93-2.61h1.44v5.87H86.16V67.44a7.8,7.8,0,0,1,.07-1c0-.38.08-.71.1-1h0l-.48,1.39L85,69.07h-.73l-.84-2.24L83,65.44h0c0,.28.07.61.11,1a7.8,7.8,0,0,1,.07,1v2.15Z"/><path class="cls-12" d="M93,69.7a2.75,2.75,0,0,1-1.36-.35,2.51,2.51,0,0,1-1-1,3.37,3.37,0,0,1-.37-1.66A3.42,3.42,0,0,1,90.66,65a2.58,2.58,0,0,1,1-1.05,2.63,2.63,0,0,1,1.37-.37,2.25,2.25,0,0,1,1,.23,2.49,2.49,0,0,1,.74.54l-.7.84a2,2,0,0,0-.47-.33,1.16,1.16,0,0,0-.56-.14,1.28,1.28,0,0,0-1,.51,2.14,2.14,0,0,0-.41,1.38A2.23,2.23,0,0,0,92,68.05a1.24,1.24,0,0,0,1,.5,1.34,1.34,0,0,0,.64-.15,2,2,0,0,0,.5-.4l.7.83A2.37,2.37,0,0,1,93,69.7Z"/><path class="cls-12" d="M97.85,69.7a2.49,2.49,0,0,1-1.93-.82,3.23,3.23,0,0,1-.74-2.25,3.14,3.14,0,0,1,.74-2.23,2.5,2.5,0,0,1,1.93-.79,2.52,2.52,0,0,1,1.92.79,3.16,3.16,0,0,1,.74,2.23,3.23,3.23,0,0,1-.74,2.25A2.48,2.48,0,0,1,97.85,69.7Zm0-1.15a1.08,1.08,0,0,0,1-.52,2.52,2.52,0,0,0,.35-1.4,2.41,2.41,0,0,0-.35-1.38,1.1,1.1,0,0,0-1-.5,1.12,1.12,0,0,0-1,.5,2.41,2.41,0,0,0-.35,1.38,2.52,2.52,0,0,0,.35,1.4A1.09,1.09,0,0,0,97.85,68.55Z"/><path class="cls-12" d="M101.62,69.59V63.72h1.32v4.75h2.32v1.12Z"/><path class="cls-12" d="M106.28,69.59V63.72h1.32v4.75h2.32v1.12Z"/><path class="cls-12" d="M110.94,69.59V63.72h1.32v5.87Z"/><path class="cls-12" d="M113.65,69.59V63.72h1.45l.94,2.61c.06.17.12.34.17.53l.18.55h0c.06-.18.12-.36.17-.55s.1-.36.16-.53l.93-2.61h1.44v5.87h-1.2V67.44a9.82,9.82,0,0,1,.06-1c0-.38.08-.71.11-1h0l-.48,1.39-.83,2.24H116l-.84-2.24-.47-1.39h0c0,.28.06.61.1,1a7.8,7.8,0,0,1,.07,1v2.15Z"/><path class="cls-12" d="M123.62,69.59l-.36-1.4h-1.79l-.36,1.4h-1.35l1.84-5.87h1.59L125,69.59Zm-1.74-3-.14.54H123l-.13-.54c-.09-.3-.17-.61-.25-.94s-.15-.65-.23-1h0c-.07.31-.14.63-.22,1S122,66.32,121.88,66.62Z"/><path class="cls-12" d="M126.15,69.59V64.84h-1.61V63.72h4.55v1.12h-1.61v4.75Z"/><path class="cls-12" d="M132.15,69.7a2.49,2.49,0,0,1-1.93-.82,3.23,3.23,0,0,1-.74-2.25,3.14,3.14,0,0,1,.74-2.23,2.5,2.5,0,0,1,1.93-.79,2.52,2.52,0,0,1,1.92.79,3.16,3.16,0,0,1,.74,2.23,3.23,3.23,0,0,1-.74,2.25A2.48,2.48,0,0,1,132.15,69.7Zm0-1.15a1.09,1.09,0,0,0,.95-.52,2.52,2.52,0,0,0,.35-1.4,2.41,2.41,0,0,0-.35-1.38,1.16,1.16,0,0,0-1.91,0,2.41,2.41,0,0,0-.35,1.38,2.52,2.52,0,0,0,.35,1.4A1.08,1.08,0,0,0,132.15,68.55Z"/><path class="cls-12" d="M137.24,69.59h-1.33V63.72H138a3.08,3.08,0,0,1,1.6.39,1.53,1.53,0,0,1,.66,1.44,1.84,1.84,0,0,1-.29,1.06,1.88,1.88,0,0,1-.76.63l1.34,2.35h-1.49L138,67.47h-.73Zm0-3.17h.68c.72,0,1.07-.29,1.07-.87a.67.67,0,0,0-.27-.61,1.56,1.56,0,0,0-.8-.17h-.68Z"/><path class="cls-13" d="M142.94,2.94l-.45,0a3.69,3.69,0,0,0-.58,0,5.14,5.14,0,0,0-.55.06c-4.73.62-8.46,10.34-8.4,22.15,0,12.15,4.09,21.9,9,21.8a4,4,0,0,0,.59-.07h0a2.78,2.78,0,0,0,.58,0c4.91-.11,8.85-10,8.79-22.18S147.86,2.83,142.94,2.94Z"/><path class="cls-13" d="M101.05,2.94l-.45,0a3.77,3.77,0,0,0-.58,0,5.32,5.32,0,0,0-.56.06c-4.73.62-8.46,10.34-8.4,22.15.06,12.15,4.1,21.9,9,21.8a3.81,3.81,0,0,0,.59-.07h0a2.73,2.73,0,0,0,.57,0c4.92-.11,8.86-10,8.8-22.18S106,2.83,101.05,2.94Z"/><path class="cls-13" d="M59,2.94l-.45,0a3.77,3.77,0,0,0-.58,0,5.32,5.32,0,0,0-.56.06c-4.73.62-8.46,10.34-8.4,22.15.06,12.15,4.1,21.9,9,21.8a4.12,4.12,0,0,0,.59-.07h0a2.73,2.73,0,0,0,.57,0c4.92-.11,8.86-10,8.8-22.18S63.9,2.83,59,2.94Z"/></svg>