<?xml version="1.0" encoding="utf-8"?>
<!-- Generator: Adobe Illustrator 25.2.3, SVG Export Plug-In . SVG Version: 6.00 Build 0)  -->
<svg version="1.1" id="Layer_1" xmlns="http://www.w3.org/2000/svg" xmlns:xlink="http://www.w3.org/1999/xlink" x="0px" y="0px"
	 viewBox="0 0 512 512" style="enable-background:new 0 0 512 512;" xml:space="preserve">
<style type="text/css">
	.st0{fill:#FFFFFF;}
</style>
<path class="st0" d="M502.6,198.6l-61.2-61.2c-6-6-14.1-9.4-22.6-9.4H256c-35.3,0-64.9,28.7-64,64l0,255.1c0,36.2,28.7,64.9,64,64.9
	h192c35.2,0,64-28.8,64-64l0-226.7C512,212.8,508.6,204.6,502.6,198.6z M464,448c0,8.8-7.2,16-16,16H256c-8.8,0-16-7.2-16-16V192.1
	c0-8.8,7.2-16,16-16h128V224c0,17.7,14.3,32,32,32h48L464,448L464,448z M317.7,96c-7.1-27.6-31.9-48-61.7-48h-40.8
	C211.3,20.9,188.1,0,160,0s-51.3,20.9-55.2,48H64C28.7,48,0,76.7,0,112v272c0,35.3,28.6,64,64,64h96v-48H64c-8.8,0-16-7.2-16-16V112
	c0-8.8,7.2-16,16-16h16v16c0,17.7,14.3,32,32,32h61.4c16.6-28.6,47.2-48,82.6-48H317.7z M160,72c-8.8,0-16-7.2-16-16s7.2-16,16-16
	s16,7.2,16,16S168.8,72,160,72z"/>
</svg>
