<svg xmlns="http://www.w3.org/2000/svg" xmlns:xlink="http://www.w3.org/1999/xlink" width="21" height="21" viewBox="0 0 21 21">
  <defs>
    <clipPath id="clip-Question_Mark_Icon_-_Small">
      <rect width="21" height="21"/>
    </clipPath>
  </defs>
  <g id="Question_Mark_Icon_-_Small" data-name="Question Mark Icon - Small" clip-path="url(#clip-Question_Mark_Icon_-_Small)">
    <path id="question-circle-regular" d="M18.491,8A10.491,10.491,0,1,0,28.981,18.491,10.492,10.492,0,0,0,18.491,8Zm0,18.951a8.46,8.46,0,1,1,8.46-8.46A8.455,8.455,0,0,1,18.491,26.951Zm4.537-10.8c0,2.836-3.063,2.88-3.063,3.928v.268a.508.508,0,0,1-.508.508H17.525a.508.508,0,0,1-.508-.508v-.366c0-1.512,1.146-2.116,2.013-2.6.743-.416,1.2-.7,1.2-1.251,0-.73-.931-1.214-1.683-1.214-.981,0-1.434.464-2.07,1.268a.508.508,0,0,1-.7.09l-1.177-.892a.509.509,0,0,1-.112-.692A4.755,4.755,0,0,1,18.736,12.4C20.811,12.4,23.027,14.02,23.027,16.156Zm-2.76,7.073a1.777,1.777,0,1,1-1.777-1.777A1.779,1.779,0,0,1,20.267,23.228Z" transform="translate(-8 -8)" fill="#fff"/>
  </g>
</svg>
