<svg id="Layer_1" data-name="Layer 1" xmlns="http://www.w3.org/2000/svg" xmlns:xlink="http://www.w3.org/1999/xlink" viewBox="0 0 307.5 29.41"><defs><style>.cls-1{fill:url(#linear-gradient);}.cls-2{fill:url(#linear-gradient-2);}.cls-3{fill:url(#linear-gradient-3);}.cls-4{fill:url(#linear-gradient-4);}.cls-5{fill:url(#linear-gradient-5);}.cls-6{fill:url(#linear-gradient-6);}.cls-7{fill:url(#linear-gradient-7);}.cls-8,.cls-9{fill:#fff;}.cls-9{stroke:#000;stroke-width:0.22px;}</style><linearGradient id="linear-gradient" x1="306.73" y1="12.53" x2="0.09" y2="12.53" gradientUnits="userSpaceOnUse"><stop offset="0" stop-color="#666"/><stop offset="0.05" stop-color="#999"/><stop offset="0.14" stop-color="#333"/><stop offset="0.45" stop-color="#999"/><stop offset="0.77" stop-color="#1a1a1a"/><stop offset="0.94" stop-color="#b3b3b3"/><stop offset="1" stop-color="#5a5a5a"/></linearGradient><linearGradient id="linear-gradient-2" x1="153.75" x2="153.75" y2="9" gradientUnits="userSpaceOnUse"><stop offset="0" stop-color="#999"/><stop offset="0.22" stop-color="#b3b3b3"/><stop offset="0.41" stop-color="#acacac"/><stop offset="0.53" stop-color="#7d7d7d"/><stop offset="0.62" stop-color="#6a6a6a"/><stop offset="1" stop-color="#333"/></linearGradient><linearGradient id="linear-gradient-3" x1="80.47" y1="3" x2="117.97" y2="3" gradientUnits="userSpaceOnUse"><stop offset="0" stop-color="#885800"/><stop offset="0.49" stop-color="#b78e00"/><stop offset="0.8" stop-color="#bfa500"/><stop offset="0.8" stop-color="#bea400"/><stop offset="0.89" stop-color="#9c7b00"/><stop offset="0.96" stop-color="#876100"/><stop offset="1" stop-color="#7f5800"/></linearGradient><linearGradient id="linear-gradient-4" x1="122.47" y1="3" x2="159.97" y2="3" xlink:href="#linear-gradient-3"/><linearGradient id="linear-gradient-5" x1="164.47" y1="3" x2="201.97" y2="3" xlink:href="#linear-gradient-3"/><linearGradient id="linear-gradient-6" x1="206.47" y1="3" x2="243.97" y2="3" xlink:href="#linear-gradient-3"/><linearGradient id="linear-gradient-7" x1="248.47" y1="3" x2="285.97" y2="3" xlink:href="#linear-gradient-3"/></defs><path class="cls-1" d="M301.44,14.29H5.38L.09,10.76H306.73Z"/><path class="cls-2" d="M297,0h-11V.88l-5.4,1.37c-1.2.06-2.73.14-4.5.2V3.52A22.07,22.07,0,0,1,269,5a22.39,22.39,0,0,1-9-1.5V2.45c-1.76-.06-3.28-.13-4.5-.2L250,.88V0h-6V.88l-5.4,1.37c-1.2.06-2.73.14-4.5.2V3.52A22.07,22.07,0,0,1,227,5a22.39,22.39,0,0,1-9-1.5V2.45c-1.76-.06-3.28-.13-4.5-.2L208,.88V0h-6V.88l-5.4,1.37c-1.2.06-2.73.14-4.5.2V3.52A22.07,22.07,0,0,1,185,5a22.39,22.39,0,0,1-9-1.5V2.45c-1.76-.06-3.28-.13-4.5-.2L166,.88V0h-6V.88l-5.4,1.37c-1.2.06-2.73.14-4.5.2V3.52A22.07,22.07,0,0,1,143,5a22.39,22.39,0,0,1-9-1.5V2.45c-1.76-.06-3.28-.13-4.5-.2L124,.88V0h-6V.88l-5.4,1.37c-1.2.06-2.73.14-4.5.2V3.52A22.07,22.07,0,0,1,101,5a22.39,22.39,0,0,1-9-1.5V2.45c-1.76-.06-3.28-.13-4.5-.2L82,.88V0h-8.8V4H53.32a1.84,1.84,0,0,1-.25,0,3.87,3.87,0,0,1-.49,0H15.09a4.58,4.58,0,0,1-4.53-4h0C9.41.3,1.07,2.59.09,7.2A4.53,4.53,0,0,0,.09,9H306.73a3.23,3.23,0,0,0,.76-1.8C307.68,4.46,303.45,1.61,297,0Z"/><path class="cls-3" d="M117.33,0V.19l-5.28,1.52c-1.17.07-2.66.15-4.39.22v1.2a19.58,19.58,0,0,1-7,1.65,19.56,19.56,0,0,1-8.79-1.65V1.93c-1.71-.06-3.2-.15-4.39-.22L82.17.19V0H81V1l5.62,1.63c1.28.09,2.86.18,4.69.25V4.19A20.64,20.64,0,0,0,100.69,6a20.47,20.47,0,0,0,7.5-1.79V2.91c1.84-.08,3.43-.16,4.68-.25L118.5,1V0Z"/><path class="cls-4" d="M159.33,0V.19l-5.28,1.52c-1.17.07-2.66.15-4.39.22v1.2a19.58,19.58,0,0,1-7,1.65,19.56,19.56,0,0,1-8.79-1.65V1.93c-1.71-.06-3.2-.15-4.39-.22L124.17.19V0H123V1l5.62,1.63c1.28.09,2.86.18,4.69.25V4.19A20.64,20.64,0,0,0,142.69,6a20.47,20.47,0,0,0,7.5-1.79V2.91c1.84-.08,3.43-.16,4.68-.25L160.5,1V0Z"/><path class="cls-5" d="M201.33,0V.19l-5.28,1.52c-1.17.07-2.66.15-4.39.22v1.2a19.58,19.58,0,0,1-7,1.65,19.56,19.56,0,0,1-8.79-1.65V1.93c-1.71-.06-3.2-.15-4.39-.22L166.17.19V0H165V1l5.62,1.63c1.28.09,2.86.18,4.69.25V4.19A20.64,20.64,0,0,0,184.69,6a20.47,20.47,0,0,0,7.5-1.79V2.91c1.84-.08,3.43-.16,4.68-.25L202.5,1V0Z"/><path class="cls-6" d="M243.33,0V.19l-5.28,1.52c-1.17.07-2.66.15-4.39.22v1.2a19.58,19.58,0,0,1-7,1.65,19.56,19.56,0,0,1-8.79-1.65V1.93c-1.71-.06-3.2-.15-4.39-.22L208.17.19V0H207V1l5.62,1.63c1.28.09,2.86.18,4.69.25V4.19A20.64,20.64,0,0,0,226.69,6a20.47,20.47,0,0,0,7.5-1.79V2.91c1.84-.08,3.43-.16,4.68-.25L244.5,1V0Z"/><path class="cls-7" d="M285.33,0V.19l-5.28,1.52c-1.17.07-2.66.15-4.39.22v1.2a19.58,19.58,0,0,1-7,1.65,19.56,19.56,0,0,1-8.79-1.65V1.93c-1.71-.06-3.2-.15-4.39-.22L250.17.19V0H249V1l5.62,1.63c1.28.09,2.86.18,4.69.25V4.19A20.64,20.64,0,0,0,268.69,6a20.47,20.47,0,0,0,7.5-1.79V2.91c1.84-.08,3.43-.16,4.68-.25L286.5,1V0Z"/><rect class="cls-8" x="0.09" y="9" width="306.63" height="1.76"/><path class="cls-9" d="M95.73,25.34V20.41H94.05V19h5v1.41H97.4v4.93Z"/><path class="cls-9" d="M102.61,25.46a2.45,2.45,0,0,1-2-.78,3.72,3.72,0,0,1-.65-2.4V19h1.68v3.47a2.22,2.22,0,0,0,.23,1.2.79.79,0,0,0,.72.34.84.84,0,0,0,.74-.34,2.2,2.2,0,0,0,.24-1.2V19h1.61v3.28a3.78,3.78,0,0,1-.63,2.4A2.37,2.37,0,0,1,102.61,25.46Z"/><path class="cls-9" d="M108.25,25.34h-1.68V19H109a4,4,0,0,1,1.26.19,1.82,1.82,0,0,1,.92.63,1.88,1.88,0,0,1,.35,1.23,1.94,1.94,0,0,1-1,1.83l1.37,2.46H110l-1.09-2.13h-.64Zm0-3.45h.6c.68,0,1-.28,1-.84a.62.62,0,0,0-.25-.57,1.55,1.55,0,0,0-.76-.15h-.6Z"/><path class="cls-9" d="M114.39,25.34h-1.68V19h2.4a3.92,3.92,0,0,1,1.26.19,1.82,1.82,0,0,1,.92.63,1.88,1.88,0,0,1,.36,1.23,2.08,2.08,0,0,1-.29,1.13,2,2,0,0,1-.74.7L118,25.34h-1.88L115,23.21h-.64Zm0-3.45h.6q1,0,1-.84a.63.63,0,0,0-.26-.57,1.52,1.52,0,0,0-.76-.15h-.6Z"/><path class="cls-9" d="M118.86,25.34V19H123v1.41h-2.42v1h2.07v1.4h-2.07v1.14h2.52v1.4Z"/><path class="cls-9" d="M125.48,25.34V20.41h-1.67V19h5v1.41h-1.68v4.93Z"/><path class="cls-9" d="M134.4,25.46a2.78,2.78,0,0,1-2.13-.88,3.43,3.43,0,0,1-.82-2.44,3.32,3.32,0,0,1,.82-2.41,2.83,2.83,0,0,1,2.13-.85,2.86,2.86,0,0,1,2.13.85,3.36,3.36,0,0,1,.81,2.41,3.47,3.47,0,0,1-.81,2.44A2.81,2.81,0,0,1,134.4,25.46Zm0-1.45a1,1,0,0,0,.89-.5,2.5,2.5,0,0,0,.33-1.37,2.29,2.29,0,0,0-.33-1.33,1.07,1.07,0,0,0-1.79,0,2.29,2.29,0,0,0-.33,1.33,2.5,2.5,0,0,0,.33,1.37A1,1,0,0,0,134.4,24Z"/><path class="cls-9" d="M138.47,25.34V19h2.28a4.13,4.13,0,0,1,1.7.32,1.25,1.25,0,0,1,.7,1.26,1.78,1.78,0,0,1-.21.82,1.16,1.16,0,0,1-.59.55v0a1.62,1.62,0,0,1,.77.49,1.41,1.41,0,0,1,.32,1,1.54,1.54,0,0,1-.73,1.42,3.31,3.31,0,0,1-1.76.45Zm1.68-3.86h.56c.54,0,.8-.22.8-.65s-.26-.54-.8-.54h-.56Zm0,2.57h.68c.65,0,1-.23,1-.7s-.33-.64-1-.64h-.68Z"/><path class="cls-9" d="M145.8,25.46a2.51,2.51,0,0,1-1.29-.3,2.36,2.36,0,0,1-.87-.9l1.13-.85a1.11,1.11,0,0,0,.38.46.78.78,0,0,0,.42.14.66.66,0,0,0,.52-.2,1.3,1.3,0,0,0,.18-.81V19H148v4.14a2.59,2.59,0,0,1-.53,1.63A1.91,1.91,0,0,1,145.8,25.46Z"/><path class="cls-9" d="M149.31,25.34V19h4.1v1.41H151v1h2.07v1.4H151v1.14h2.52v1.4Z"/><path class="cls-9" d="M157.48,25.46A3.15,3.15,0,0,1,156,25.1,2.81,2.81,0,0,1,154.88,24a3.53,3.53,0,0,1-.42-1.8,3.54,3.54,0,0,1,.44-1.81A3,3,0,0,1,156,19.27a3.09,3.09,0,0,1,1.49-.39,2.44,2.44,0,0,1,1.13.26,3.19,3.19,0,0,1,.84.58l-.88,1.08a2.21,2.21,0,0,0-.48-.34,1.14,1.14,0,0,0-.57-.13,1.24,1.24,0,0,0-1,.49,2,2,0,0,0-.41,1.34,2.2,2.2,0,0,0,.37,1.38,1.21,1.21,0,0,0,1,.47,1.29,1.29,0,0,0,.66-.16,2.13,2.13,0,0,0,.49-.38l.88,1.05A2.63,2.63,0,0,1,157.48,25.46Z"/><path class="cls-9" d="M161.56,25.34V20.41h-1.68V19h5v1.41h-1.67v4.93Z"/><path class="cls-9" d="M165.85,25.34V19h1.68v6.34Z"/><path class="cls-9" d="M170,25.34,168.13,19h1.78l.66,2.77c.09.34.17.67.23,1s.14.67.24,1h0c.09-.34.17-.67.23-1s.15-.66.23-1l.65-2.77h1.71L172,25.34Z"/><path class="cls-9" d="M174.51,25.34V19h4.09v1.41h-2.41v1h2.06v1.4h-2.06v1.14h2.51v1.4Z"/><path class="cls-9" d="M181.88,25.34V19H186v1.41h-2.45v1.2h2.1V23h-2.1v2.32Z"/><path class="cls-9" d="M189.68,25.46a2.78,2.78,0,0,1-2.13-.88,3.48,3.48,0,0,1-.82-2.44,3.37,3.37,0,0,1,.82-2.41,3.09,3.09,0,0,1,4.26,0,3.36,3.36,0,0,1,.81,2.41,3.47,3.47,0,0,1-.81,2.44A2.78,2.78,0,0,1,189.68,25.46Zm0-1.45a1,1,0,0,0,.9-.5,2.5,2.5,0,0,0,.33-1.37,2.29,2.29,0,0,0-.33-1.33,1.08,1.08,0,0,0-1.8,0,2.29,2.29,0,0,0-.33,1.33,2.5,2.5,0,0,0,.33,1.37A1,1,0,0,0,189.68,24Z"/><path class="cls-9" d="M196.5,25.46A3.15,3.15,0,0,1,195,25.1,2.81,2.81,0,0,1,193.9,24a3.53,3.53,0,0,1-.42-1.8,3.54,3.54,0,0,1,.44-1.81,2.88,2.88,0,0,1,1.13-1.14,3.09,3.09,0,0,1,1.49-.39,2.44,2.44,0,0,1,1.13.26,3.19,3.19,0,0,1,.84.58l-.87,1.08a2.54,2.54,0,0,0-.49-.34,1.14,1.14,0,0,0-.57-.13,1.24,1.24,0,0,0-1,.49,2,2,0,0,0-.41,1.34,2.2,2.2,0,0,0,.37,1.38,1.21,1.21,0,0,0,1,.47,1.29,1.29,0,0,0,.66-.16,2.13,2.13,0,0,0,.49-.38l.88,1.05A2.63,2.63,0,0,1,196.5,25.46Z"/><path class="cls-9" d="M201.87,25.46a2.42,2.42,0,0,1-2-.78,3.66,3.66,0,0,1-.66-2.4V19h1.68v3.47a2.31,2.31,0,0,0,.23,1.2.8.8,0,0,0,.73.34.82.82,0,0,0,.73-.34,2.2,2.2,0,0,0,.24-1.2V19h1.62v3.28a3.78,3.78,0,0,1-.63,2.4A2.39,2.39,0,0,1,201.87,25.46Z"/><path class="cls-9" d="M207.74,25.46a3.77,3.77,0,0,1-1.25-.23,3.43,3.43,0,0,1-1.15-.68l.95-1.15a3,3,0,0,0,.73.44,1.84,1.84,0,0,0,.75.17c.49,0,.73-.15.73-.45a.36.36,0,0,0-.23-.33l-.63-.28-.79-.33A2.29,2.29,0,0,1,206,22a1.7,1.7,0,0,1-.38-1.13,1.79,1.79,0,0,1,.66-1.39,2.54,2.54,0,0,1,1.7-.58,3.2,3.2,0,0,1,1.11.21,3,3,0,0,1,1,.64l-.84,1.06a3.3,3.3,0,0,0-.62-.35,1.93,1.93,0,0,0-.65-.11c-.44,0-.66.14-.66.43a.36.36,0,0,0,.25.34l.68.29.77.3a2.08,2.08,0,0,1,.92.66,1.69,1.69,0,0,1,.32,1.08,1.89,1.89,0,0,1-.64,1.41A2.55,2.55,0,0,1,207.74,25.46Z"/><path class="cls-9" d="M211.23,25.34V19h1.67v6.34Z"/><path class="cls-9" d="M214.31,25.34V19H216l1.41,2.83.6,1.42h0c0-.33-.08-.73-.13-1.17a9.13,9.13,0,0,1-.08-1.25V19h1.6v6.34h-1.72l-1.4-2.84-.61-1.41h0c0,.36.09.76.14,1.19a10.71,10.71,0,0,1,.08,1.23v1.83Z"/><path class="cls-9" d="M223.78,25.46a3.56,3.56,0,0,1-1.61-.36A2.78,2.78,0,0,1,221,24a3.43,3.43,0,0,1-.43-1.8,3.54,3.54,0,0,1,.43-1.81,3,3,0,0,1,1.16-1.14,3.35,3.35,0,0,1,1.57-.39,2.7,2.7,0,0,1,1.21.26,3.09,3.09,0,0,1,.85.58l-.87,1.08a2.6,2.6,0,0,0-.5-.34,1.48,1.48,0,0,0-1.71.36,1.93,1.93,0,0,0-.43,1.34,2.08,2.08,0,0,0,.41,1.38A1.56,1.56,0,0,0,224,24a1,1,0,0,0,.49-.11V23h-.94V21.65h2.42v3a3,3,0,0,1-.9.55A3.39,3.39,0,0,1,223.78,25.46Z"/></svg>