<svg xmlns="http://www.w3.org/2000/svg" xmlns:xlink="http://www.w3.org/1999/xlink" viewBox="0 0 307.51 76.16"><defs><style>.cls-1{isolation:isolate;}.cls-2{fill:url(#linear-gradient);}.cls-3{fill:url(#linear-gradient-2);}.cls-4{fill:url(#linear-gradient-3);}.cls-13,.cls-5{fill:#fff;}.cls-6{fill:url(#linear-gradient-4);}.cls-7{fill:url(#linear-gradient-5);}.cls-8{fill:url(#linear-gradient-6);}.cls-9{fill:url(#linear-gradient-7);}.cls-10{fill:url(#linear-gradient-8);}.cls-11{fill:url(#linear-gradient-9);}.cls-12{fill:url(#linear-gradient-10);}.cls-13{stroke-miterlimit:10;stroke-width:0.75px;stroke:url(#linear-gradient-11);}.cls-14{mix-blend-mode:hard-light;fill:url(#linear-gradient-12);}.cls-15{fill:url(#linear-gradient-13);}</style><linearGradient id="linear-gradient" x1="356.69" y1="107.35" x2="438.97" y2="-35.16" gradientTransform="translate(-221.18 7.44) scale(0.91 1)" gradientUnits="userSpaceOnUse"><stop offset="0" stop-color="#393939"/><stop offset="0.04"/><stop offset="0.06" stop-color="#1d1d1d"/><stop offset="0.11" stop-color="#595959"/><stop offset="0.14" stop-color="#717171"/><stop offset="0.39"/><stop offset="0.43" stop-color="#1a1a1a"/><stop offset="0.53" stop-color="#515151"/><stop offset="0.57" stop-color="#676767"/><stop offset="0.63" stop-color="#4f4f4f"/><stop offset="0.67" stop-color="#464646"/><stop offset="0.7" stop-color="#393939"/><stop offset="0.8" stop-color="#1a1a1a"/><stop offset="0.88" stop-color="#070707"/><stop offset="0.94"/><stop offset="1" stop-color="#404040"/></linearGradient><linearGradient id="linear-gradient-2" x1="317.97" y1="106.4" x2="477.97" y2="-53.59" gradientTransform="translate(-221.15 7.44) scale(0.91 1)" xlink:href="#linear-gradient"/><linearGradient id="linear-gradient-3" x1="245.58" y1="31.02" x2="550.36" y2="31.02" gradientTransform="translate(-221.16 7.44) scale(0.91 1)" gradientUnits="userSpaceOnUse"><stop offset="0"/><stop offset="1"/></linearGradient><linearGradient id="linear-gradient-4" x1="268.34" y1="34.6" x2="286.61" y2="34.66" gradientUnits="userSpaceOnUse"><stop offset="0" stop-color="#5a5a5a"/><stop offset="0.12" stop-color="#999"/><stop offset="0.33" stop-color="#909090"/><stop offset="0.41" stop-color="#b3b3b3"/><stop offset="0.46" stop-color="#b3b3b3"/><stop offset="0.46" stop-color="#adadad"/><stop offset="0.47" stop-color="#979797"/><stop offset="0.49" stop-color="#868686"/><stop offset="0.51" stop-color="#7b7b7b"/><stop offset="0.53" stop-color="#747474"/><stop offset="0.6" stop-color="#727272"/><stop offset="0.63" stop-color="#767676"/><stop offset="0.65" stop-color="#838383"/><stop offset="0.67" stop-color="#999"/><stop offset="0.7" stop-color="#b3b3b3"/><stop offset="0.78" stop-color="#999"/><stop offset="0.87" stop-color="#818181"/><stop offset="1" stop-color="#636363"/></linearGradient><linearGradient id="linear-gradient-5" x1="274.78" y1="11.3" x2="281.22" y2="0.15" gradientUnits="userSpaceOnUse"><stop offset="0" stop-color="#5a5a5a"/><stop offset="0.23" stop-color="#999"/><stop offset="0.33" stop-color="#909090"/><stop offset="0.41" stop-color="#b3b3b3"/><stop offset="0.49" stop-color="#b3b3b3"/><stop offset="0.61" stop-color="#727272"/><stop offset="0.66" stop-color="#9b9b9b"/><stop offset="0.7" stop-color="#b3b3b3"/><stop offset="0.78" stop-color="#999"/><stop offset="0.87" stop-color="#818181"/><stop offset="1" stop-color="#636363"/></linearGradient><linearGradient id="linear-gradient-6" x1="32.69" y1="17.85" x2="307.24" y2="18.66" xlink:href="#linear-gradient-5"/><linearGradient id="linear-gradient-7" x1="277.49" y1="21.76" x2="277.49" y2="7.25" xlink:href="#linear-gradient-5"/><linearGradient id="linear-gradient-8" x1="112.48" y1="140.19" x2="194.78" y2="-2.36" gradientTransform="matrix(1, 0, 0, 1, 0, 0)" xlink:href="#linear-gradient"/><linearGradient id="linear-gradient-9" x1="73.76" y1="139.18" x2="233.79" y2="-20.85" gradientTransform="matrix(1, 0, 0, 1, 0, 0)" xlink:href="#linear-gradient"/><linearGradient id="linear-gradient-10" x1="1.38" y1="63.81" x2="306.16" y2="63.81" gradientTransform="matrix(1, 0, 0, 1, 0, 0)" xlink:href="#linear-gradient-3"/><linearGradient id="linear-gradient-11" x1="144.73" y1="63.47" x2="163.62" y2="63.47" gradientTransform="matrix(1, 0, 0, 1, 0, 0)" xlink:href="#linear-gradient"/><linearGradient id="linear-gradient-12" x1="257.54" y1="14.51" x2="297.44" y2="14.51" xlink:href="#linear-gradient-5"/><linearGradient id="linear-gradient-13" x1="94.09" y1="38.14" x2="213.09" y2="38.14" gradientTransform="matrix(1, 0, 0, 1, 0, 0)" xlink:href="#linear-gradient-3"/></defs><g class="cls-1"><g id="Layer_1" data-name="Layer 1"><path class="cls-2" d="M0,37.37H278.48a0,0,0,0,1,0,0V48.71a2.11,2.11,0,0,1-2.11,2.11H2.12A2.11,2.11,0,0,1,0,48.71V37.37a0,0,0,0,1,0,0Z" transform="translate(0.13 -0.41) rotate(0.17)"/><path class="cls-3" d="M2.07,26.34H276.49a2,2,0,0,1,2,2V40.11a0,0,0,0,1,0,0H0a0,0,0,0,1,0,0V28.37A2,2,0,0,1,2.07,26.34Z" transform="translate(0.1 -0.41) rotate(0.17)"/><rect class="cls-4" x="1.25" y="31.32" width="276.03" height="14.28" rx="0.59" transform="translate(0.11 -0.41) rotate(0.17)"/><path class="cls-5" d="M99.72,43a5.54,5.54,0,0,1-1.83-.33,4.81,4.81,0,0,1-1.68-1L97.61,40a4.54,4.54,0,0,0,1.07.66,2.94,2.94,0,0,0,1.1.25c.7,0,1.06-.22,1.06-.65a.53.53,0,0,0-.34-.5c-.22-.11-.53-.24-.91-.41l-1.16-.49a3.35,3.35,0,0,1-1.31-.94,2.43,2.43,0,0,1-.55-1.64,2.63,2.63,0,0,1,1-2,3.63,3.63,0,0,1,2.48-.84,4.74,4.74,0,0,1,1.62.31,4.21,4.21,0,0,1,1.46.94l-1.23,1.54a4.39,4.39,0,0,0-.91-.5,2.42,2.42,0,0,0-.94-.17c-.65,0-1,.2-1,.62a.55.55,0,0,0,.37.51c.25.12.58.26,1,.42l1.13.45a3,3,0,0,1,1.33,1,2.49,2.49,0,0,1,.47,1.58,2.79,2.79,0,0,1-.95,2.07A3.68,3.68,0,0,1,99.72,43Z"/><path class="cls-5" d="M109.68,42.87l-.45-2h-2.6l-.46,2h-2.51l2.85-9.27h3l2.8,9.29Zm-2.44-4.52-.16.64h1.71l-.15-.64c-.12-.44-.23-.92-.34-1.45s-.23-1-.34-1.5h-.06c-.09.48-.2,1-.31,1.5S107.35,37.92,107.24,38.35Z"/><path class="cls-5" d="M113.16,42.88l0-9.28h2.63l1.38,3.8q.14.39.24.81l.24.82h.06c.09-.27.17-.54.25-.82s.15-.55.24-.81l1.35-3.79h2.63l0,9.28H120V40.16a15.33,15.33,0,0,1,.11-1.66c.08-.64.15-1.18.21-1.65h-.06l-.78,2.22-1.15,3.07H117l-1.13-3.08-.74-2.23h-.06c.06.47.13,1,.2,1.65a15.66,15.66,0,0,1,.11,1.67v2.74Z"/><path class="cls-5" d="M124.24,42.91l0-9.27h3.39a5.6,5.6,0,0,1,1.87.29,2.84,2.84,0,0,1,1.38,1,3,3,0,0,1,.51,1.84,2.94,2.94,0,0,1-1.9,2.91,5,5,0,0,1-1.82.33h-1v2.94ZM126.71,38h.88c.95,0,1.43-.43,1.43-1.31a.94.94,0,0,0-.38-.88,1.9,1.9,0,0,0-1.1-.26h-.82Z"/><path class="cls-5" d="M132.92,42.94l0-9.28h2.46l0,7.22h3.51V43Z"/><path class="cls-5" d="M140.48,43l0-9.28,6,0v2.06H143V37.2h3v2.06h-3v1.65h3.69V43Z"/><path class="cls-5" d="M151.27,43l0-9.28h2.45v3.46h2.77V33.73H159L159,43H156.5V39.33h-2.77V43Z"/><path class="cls-5" d="M164.92,43.2a4,4,0,0,1-3.12-1.29,5.08,5.08,0,0,1-1.18-3.57,4.93,4.93,0,0,1,1.2-3.52,4.53,4.53,0,0,1,6.24,0,4.88,4.88,0,0,1,1.18,3.53,5,5,0,0,1-1.2,3.57A4.05,4.05,0,0,1,164.92,43.2Zm0-2.11a1.51,1.51,0,0,0,1.32-.74,3.62,3.62,0,0,0,.49-2,3.44,3.44,0,0,0-.48-2,1.5,1.5,0,0,0-1.31-.7,1.52,1.52,0,0,0-1.32.69,3.44,3.44,0,0,0-.49,2,3.68,3.68,0,0,0,.48,2A1.5,1.5,0,0,0,164.92,41.09Z"/><path class="cls-5" d="M170.88,43.05l0-9.28h2.46l0,7.22h3.52v2.06Z"/><path class="cls-5" d="M178.45,43.07l0-9.28h2.75a5.37,5.37,0,0,1,3.43,1.08A4.28,4.28,0,0,1,186,38.41,4.42,4.42,0,0,1,184.65,42a5,5,0,0,1-3.32,1.1Zm2.46-2h.14a2.7,2.7,0,0,0,1.7-.54,2.65,2.65,0,0,0,.71-2.16c0-1.09-.23-1.8-.7-2.13a2.78,2.78,0,0,0-1.69-.51h-.15Z"/><path class="cls-5" d="M187.61,43.1l0-9.28,6,0v2h-3.54v1.46h3v2h-3v1.65h3.69v2.06Z"/><path class="cls-5" d="M198,43.13h-2.45l0-9.27h3.52a6,6,0,0,1,1.84.27,2.71,2.71,0,0,1,1.35.93,2.83,2.83,0,0,1,.51,1.8,3,3,0,0,1-.42,1.66,2.88,2.88,0,0,1-1.09,1l2,3.61h-2.74L199,40H198Zm0-5.05h.88c1,0,1.49-.41,1.49-1.22A.87.87,0,0,0,200,36a2.07,2.07,0,0,0-1.1-.23H198Z"/><path class="cls-6" d="M286.56,7.63V54a7.66,7.66,0,0,1-7.63,7.63h-2.88A7.66,7.66,0,0,1,268.42,54V7.63"/><path class="cls-7" d="M268.42,7.63A7.65,7.65,0,0,1,276.05,0h2.88a7.65,7.65,0,0,1,7.63,7.63"/><path class="cls-8" d="M304.16,17.17a5,5,0,0,0,3.09-2.5c-35.24-4-63.13-4.51-77.53-3-10.52,1.09-15.35,2-21,4.07-9.15,3.28-11.08,7-22.79,7H32.68v2.76h150a44,44,0,0,0,4.71.24c13,0,20.71-5.49,29.16-8.53,9.27-3.33,17.86-3.14,35-2.76,6,.13,40.35,1.21,48.17,2.76A9.37,9.37,0,0,0,304.16,17.17Z"/><rect class="cls-9" x="257.54" y="7.25" width="39.9" height="14.51" rx="1.36"/><path class="cls-10" d="M0,62.72H307.51a0,0,0,0,1,0,0V74.06a2.11,2.11,0,0,1-2.11,2.11H2.14A2.11,2.11,0,0,1,0,74.06V62.72a0,0,0,0,1,0,0Z"/><path class="cls-11" d="M2.06,51.69H305.49a2,2,0,0,1,2,2V65.46a0,0,0,0,1,0,0H0a0,0,0,0,1,0,0V53.71A2,2,0,0,1,2.06,51.69Z"/><rect class="cls-12" x="1.38" y="56.67" width="304.78" height="14.28" rx="0.59"/><circle class="cls-13" cx="154.18" cy="63.47" r="9.07"/><rect class="cls-14" x="257.54" y="7.25" width="39.9" height="14.51" rx="1.36"/><rect class="cls-15" x="94.09" y="32.14" width="119" height="12"/><path class="cls-5" d="M114.81,43.37a5.34,5.34,0,0,1-1.79-.32,4.79,4.79,0,0,1-1.65-1l1.37-1.65a4.68,4.68,0,0,0,1.05.64,2.83,2.83,0,0,0,1.08.24c.69,0,1-.21,1-.64a.5.5,0,0,0-.33-.48c-.22-.11-.52-.24-.91-.4l-1.13-.48a3.41,3.41,0,0,1-1.29-.92,2.39,2.39,0,0,1-.54-1.61,2.55,2.55,0,0,1,1-2,3.58,3.58,0,0,1,2.43-.83,4.48,4.48,0,0,1,1.59.3,4.07,4.07,0,0,1,1.44.92l-1.21,1.51a3.92,3.92,0,0,0-.88-.49,2.62,2.62,0,0,0-.94-.17c-.63,0-1,.21-1,.62a.53.53,0,0,0,.37.49c.24.12.57.26,1,.42l1.1.43a3,3,0,0,1,1.32.94,2.46,2.46,0,0,1,.46,1.55,2.73,2.73,0,0,1-.92,2A3.68,3.68,0,0,1,114.81,43.37Z"/><path class="cls-5" d="M121.28,43.21V36.12h-2.4v-2h7.22v2h-2.41v7.09Z"/><path class="cls-5" d="M131.64,43.21l-.45-1.94h-2.54l-.45,1.94h-2.47l2.78-9.1h2.91l2.77,9.1Zm-2.41-4.43-.15.63h1.68l-.15-.63c-.12-.43-.23-.9-.34-1.42s-.22-1-.34-1.46h-.05c-.09.47-.2,1-.31,1.47S129.35,38.35,129.23,38.78Z"/><path class="cls-5" d="M139.12,43.37a5.23,5.23,0,0,1-2.32-.51,4,4,0,0,1-1.66-1.55,5,5,0,0,1-.61-2.58,5,5,0,0,1,.63-2.6,4.26,4.26,0,0,1,1.66-1.63,4.62,4.62,0,0,1,2.24-.56,4,4,0,0,1,1.75.36,4.84,4.84,0,0,1,1.22.84l-1.26,1.54a3.69,3.69,0,0,0-.71-.48,1.92,1.92,0,0,0-.91-.19,2,2,0,0,0-1.54.7,2.83,2.83,0,0,0-.62,1.93,3,3,0,0,0,.58,2,2.26,2.26,0,0,0,1.8.68,1.27,1.27,0,0,0,.7-.16V39.87h-1.34V37.92h3.47v4.33a4,4,0,0,1-1.3.8A4.7,4.7,0,0,1,139.12,43.37Z"/><path class="cls-5" d="M144,43.21v-9.1h5.88v2h-3.47v1.43h3v2h-3v1.62H150v2Z"/><path class="cls-5" d="M154.55,43.21v-9.1H157v9.1Z"/><path class="cls-5" d="M159,43.21v-9.1h2.46l2,4.06.87,2h.06c-.06-.48-.13-1-.2-1.68a14.19,14.19,0,0,1-.11-1.79V34.11h2.29v9.1H163.9l-2-4.08-.87-2h0c0,.53.12,1.09.19,1.71a13.85,13.85,0,0,1,.12,1.77v2.63Z"/><path class="cls-5" d="M171.26,43.37a5.29,5.29,0,0,1-1.79-.32,4.61,4.61,0,0,1-1.65-1l1.37-1.65a4.68,4.68,0,0,0,1.05.64,2.79,2.79,0,0,0,1.08.24c.69,0,1-.21,1-.64a.5.5,0,0,0-.32-.48c-.22-.11-.52-.24-.91-.4L170,39.3a3.26,3.26,0,0,1-1.29-.92,2.4,2.4,0,0,1-.55-1.61,2.57,2.57,0,0,1,1-2,3.56,3.56,0,0,1,2.43-.83,4.56,4.56,0,0,1,1.59.3,4.07,4.07,0,0,1,1.44.92l-1.21,1.51a4,4,0,0,0-.89-.49,2.52,2.52,0,0,0-.93-.17c-.63,0-.95.21-.95.62a.53.53,0,0,0,.36.49c.25.12.57.26,1,.42L173,38a3,3,0,0,1,1.32.94,2.53,2.53,0,0,1,.46,1.55,2.7,2.7,0,0,1-.93,2A3.64,3.64,0,0,1,171.26,43.37Z"/><path class="cls-5" d="M176.27,43.21v-9.1h5.88v2h-3.47v1.43h3v2h-3v1.62h3.61v2Z"/><path class="cls-5" d="M186.47,43.21h-2.41v-9.1h3.44a6.09,6.09,0,0,1,1.81.26,2.72,2.72,0,0,1,1.33.91,2.8,2.8,0,0,1,.5,1.77,3,3,0,0,1-.4,1.62,2.88,2.88,0,0,1-1.07,1l2,3.53H189l-1.57-3.05h-.92Zm0-5h.86c1,0,1.46-.4,1.46-1.2a.88.88,0,0,0-.37-.82,2.25,2.25,0,0,0-1.09-.22h-.86Z"/><path class="cls-5" d="M194.33,43.21V36.12h-2.4v-2h7.22v2h-2.41v7.09Z"/></g></g></svg>