<svg id="Layer_1" data-name="Layer 1" xmlns="http://www.w3.org/2000/svg" xmlns:xlink="http://www.w3.org/1999/xlink" width="309" height="24.6" viewBox="0 0 309 24.6"><defs><style>.cls-1{fill:url(#linear-gradient);}.cls-2{fill:url(#linear-gradient-2);}.cls-3{fill:url(#linear-gradient-3);}.cls-4{fill:#fff;}</style><linearGradient id="linear-gradient" x1="113" y1="88.95" x2="195.72" y2="-54.32" gradientUnits="userSpaceOnUse"><stop offset="0" stop-color="#393939"/><stop offset="0.04"/><stop offset="0.06" stop-color="#1d1d1d"/><stop offset="0.11" stop-color="#595959"/><stop offset="0.14" stop-color="#717171"/><stop offset="0.39"/><stop offset="0.43" stop-color="#1a1a1a"/><stop offset="0.53" stop-color="#515151"/><stop offset="0.57" stop-color="#676767"/><stop offset="0.63" stop-color="#4f4f4f"/><stop offset="0.67" stop-color="#464646"/><stop offset="0.7" stop-color="#393939"/><stop offset="0.8" stop-color="#1a1a1a"/><stop offset="0.88" stop-color="#070707"/><stop offset="0.94"/><stop offset="1" stop-color="#404040"/></linearGradient><linearGradient id="linear-gradient-2" x1="74.09" y1="87.92" x2="234.91" y2="-72.9" xlink:href="#linear-gradient"/><linearGradient id="linear-gradient-3" x1="1.36" y1="12.18" x2="307.64" y2="12.18" gradientUnits="userSpaceOnUse"><stop offset="0"/><stop offset="1"/></linearGradient></defs><title>SamplePositioning_Stage_MechanicalStage copy</title><path class="cls-1" d="M0,11.09H309a0,0,0,0,1,0,0v11.4a2.11,2.11,0,0,1-2.11,2.11H2.11A2.11,2.11,0,0,1,0,22.49V11.09a0,0,0,0,1,0,0Z"/><path class="cls-2" d="M2,0H307a2,2,0,0,1,2,2V13.84a0,0,0,0,1,0,0H0a0,0,0,0,1,0,0V2A2,2,0,0,1,2,0Z"/><rect class="cls-3" x="1.36" y="5" width="306.29" height="14.35" rx="0.59"/><path class="cls-4" d="M91.5,16.52V7.19h2.64L95.55,11q.14.39.24.81c.08.28.16.56.25.82h0c.09-.26.17-.54.25-.82s.16-.55.24-.81l1.35-3.82h2.64v9.33H98.33V13.76a13.75,13.75,0,0,1,.12-1.67c.07-.63.14-1.19.2-1.65h-.06l-.77,2.23-1.15,3.09H95.35L94.2,12.67l-.75-2.23h0c0,.46.12,1,.2,1.65a15.83,15.83,0,0,1,.11,1.67v2.76Z"/><path class="cls-4" d="M102.63,16.52V7.19h6V9.26H105.1v1.46h3v2.07h-3v1.66h3.7v2.07Z"/><path class="cls-4" d="M114.65,16.69a4.73,4.73,0,0,1-2.2-.53,4.06,4.06,0,0,1-1.62-1.59,5.06,5.06,0,0,1-.62-2.64,5.14,5.14,0,0,1,.64-2.66,4.3,4.3,0,0,1,1.66-1.67,4.36,4.36,0,0,1,2.2-.58,3.82,3.82,0,0,1,1.67.37,5.06,5.06,0,0,1,1.23.86l-1.29,1.58a3.93,3.93,0,0,0-.71-.49,1.8,1.8,0,0,0-.84-.2,1.83,1.83,0,0,0-1.43.72,3,3,0,0,0-.61,2,3.2,3.2,0,0,0,.56,2,1.75,1.75,0,0,0,1.45.71,1.85,1.85,0,0,0,1-.25,3.15,3.15,0,0,0,.72-.56l1.29,1.55A3.83,3.83,0,0,1,114.65,16.69Z"/><path class="cls-4" d="M119,16.52V7.19h2.46v3.48h2.79V7.19h2.46v9.33h-2.46v-3.7h-2.79v3.7Z"/><path class="cls-4" d="M133.67,16.52l-.45-2H130.6l-.45,2h-2.53l2.84-9.33h3l2.84,9.33ZM131.21,12l-.16.65h1.72l-.16-.65c-.11-.44-.23-.92-.34-1.45s-.23-1-.35-1.5h0c-.1.48-.2,1-.32,1.51S131.32,11.54,131.21,12Z"/><path class="cls-4" d="M137.17,16.52V7.19h2.53l2.06,4.16.89,2.1h.06c-.06-.5-.12-1.07-.2-1.72a15.08,15.08,0,0,1-.11-1.84V7.19h2.35v9.33h-2.53l-2.06-4.18-.89-2.08h-.06c.06.54.13,1.12.2,1.75a14.46,14.46,0,0,1,.12,1.81v2.7Z"/><path class="cls-4" d="M146.81,16.52V7.19h2.47v9.33Z"/><path class="cls-4" d="M155.39,16.69a4.7,4.7,0,0,1-2.2-.53,4.08,4.08,0,0,1-1.63-1.59,5.16,5.16,0,0,1-.62-2.64,5.24,5.24,0,0,1,.64-2.66A4.45,4.45,0,0,1,155.45,7a3.75,3.75,0,0,1,1.66.37,4.93,4.93,0,0,1,1.24.86l-1.29,1.58a3.93,3.93,0,0,0-.71-.49,1.81,1.81,0,0,0-2.27.52,3,3,0,0,0-.61,2,3.2,3.2,0,0,0,.55,2,1.76,1.76,0,0,0,1.46.71,1.87,1.87,0,0,0,1-.25,3.15,3.15,0,0,0,.72-.56l1.29,1.55A3.84,3.84,0,0,1,155.39,16.69Z"/><path class="cls-4" d="M164.63,16.52l-.46-2h-2.61l-.46,2h-2.52l2.84-9.33h3l2.84,9.33ZM162.16,12l-.16.65h1.72l-.15-.65c-.12-.44-.23-.92-.35-1.45s-.23-1-.34-1.5h-.06c-.09.48-.2,1-.31,1.51S162.28,11.54,162.16,12Z"/><path class="cls-4" d="M168.13,16.52V7.19h2.47v7.26h3.52v2.07Z"/><path class="cls-4" d="M181.55,16.69a5.54,5.54,0,0,1-1.83-.33,5,5,0,0,1-1.69-1l1.4-1.7a4.41,4.41,0,0,0,1.08.66,2.94,2.94,0,0,0,1.1.25c.71,0,1.06-.22,1.06-.66a.54.54,0,0,0-.33-.5l-.93-.41-1.16-.48a3.44,3.44,0,0,1-1.32-.95,2.44,2.44,0,0,1-.56-1.65,2.62,2.62,0,0,1,1-2A3.68,3.68,0,0,1,181.84,7a4.52,4.52,0,0,1,1.63.31,4.25,4.25,0,0,1,1.47.94l-1.23,1.55a4.2,4.2,0,0,0-.92-.5,2.47,2.47,0,0,0-.95-.18c-.65,0-1,.21-1,.64a.53.53,0,0,0,.37.5c.25.12.58.27,1,.43l1.14.44a3,3,0,0,1,1.34,1,2.54,2.54,0,0,1,.48,1.6,2.83,2.83,0,0,1-.95,2.08A3.76,3.76,0,0,1,181.55,16.69Z"/><path class="cls-4" d="M188.18,16.52V9.26h-2.47V7.19h7.41V9.26h-2.47v7.26Z"/><path class="cls-4" d="M198.8,16.52l-.46-2h-2.61l-.46,2h-2.53l2.84-9.33h3l2.84,9.33ZM196.33,12l-.16.65h1.72l-.16-.65c-.11-.44-.23-.92-.34-1.45s-.23-1-.34-1.5H197c-.1.48-.2,1-.32,1.51S196.44,11.54,196.33,12Z"/><path class="cls-4" d="M206.45,16.69a5.29,5.29,0,0,1-2.37-.53,4.07,4.07,0,0,1-1.7-1.59,5.06,5.06,0,0,1-.63-2.64,5.14,5.14,0,0,1,.65-2.66,4.26,4.26,0,0,1,1.7-1.67A4.65,4.65,0,0,1,206.4,7a4.14,4.14,0,0,1,1.79.37,4.82,4.82,0,0,1,1.25.86l-1.29,1.58a3.46,3.46,0,0,0-.73-.49,2.15,2.15,0,0,0-2.51.52,2.86,2.86,0,0,0-.64,2,3,3,0,0,0,.6,2,2.28,2.28,0,0,0,1.84.71,1.24,1.24,0,0,0,.72-.18V13.1h-1.38v-2h3.56v4.44a3.86,3.86,0,0,1-1.33.81A4.77,4.77,0,0,1,206.45,16.69Z"/><path class="cls-4" d="M211.42,16.52V7.19h6V9.26h-3.56v1.46h3.05v2.07h-3.05v1.66h3.71v2.07Z"/></svg>