<svg id="Layer_1" data-name="Layer 1" xmlns="http://www.w3.org/2000/svg" xmlns:xlink="http://www.w3.org/1999/xlink" viewBox="0 0 62.74 50.5"><defs><style>.cls-1{fill:url(#linear-gradient);}.cls-2{fill:url(#linear-gradient-2);}.cls-3{fill:url(#linear-gradient-3);}.cls-4{fill:url(#linear-gradient-4);}.cls-5{fill:url(#linear-gradient-5);}.cls-6{fill:url(#linear-gradient-6);}.cls-7{fill:url(#linear-gradient-7);}.cls-8{fill:url(#linear-gradient-8);}.cls-9{fill:#fff;}</style><linearGradient id="linear-gradient" x1="-5099.56" y1="931.78" x2="-5072.02" y2="931.78" gradientTransform="translate(-908.77 -5049.38) rotate(-90)" gradientUnits="userSpaceOnUse"><stop offset="0" stop-color="#aa6d00"/><stop offset="0.11" stop-color="#b78e00"/><stop offset="0.24" stop-color="#bd9a17"/><stop offset="0.51" stop-color="#c7b244"/><stop offset="0.58" stop-color="#c5ae30"/><stop offset="0.72" stop-color="#c1a80d"/><stop offset="0.8" stop-color="#bfa500"/><stop offset="0.8" stop-color="#bea400"/><stop offset="0.89" stop-color="#9c7b00"/><stop offset="0.96" stop-color="#876100"/><stop offset="1" stop-color="#7f5800"/></linearGradient><linearGradient id="linear-gradient-2" x1="-5099.95" y1="933.53" x2="-5072.41" y2="933.53" gradientTransform="translate(-5069.59 930.18) rotate(-179.57)" gradientUnits="userSpaceOnUse"><stop offset="0" stop-color="#885800"/><stop offset="0.49" stop-color="#b78e00"/><stop offset="0.8" stop-color="#bfa500"/><stop offset="0.8" stop-color="#bea400"/><stop offset="0.89" stop-color="#9c7b00"/><stop offset="0.96" stop-color="#876100"/><stop offset="1" stop-color="#7f5800"/></linearGradient><linearGradient id="linear-gradient-3" y1="47.05" x2="46.67" y2="47.05" gradientUnits="userSpaceOnUse"><stop offset="0" stop-color="#393939"/><stop offset="0.3" stop-color="#484848"/><stop offset="0.72"/><stop offset="0.74" stop-color="#070707"/><stop offset="0.82" stop-color="#262626"/><stop offset="0.89" stop-color="#393939"/><stop offset="0.94" stop-color="#404040"/></linearGradient><linearGradient id="linear-gradient-4" y1="39.4" x2="46.67" y2="39.4" gradientUnits="userSpaceOnUse"><stop offset="0" stop-color="#393939"/><stop offset="0.13" stop-color="#484848"/><stop offset="0.39"/><stop offset="0.43" stop-color="#070707"/><stop offset="0.64" stop-color="#262626"/><stop offset="0.82" stop-color="#393939"/><stop offset="0.94" stop-color="#404040"/></linearGradient><linearGradient id="linear-gradient-5" x1="2.3" y1="43.23" x2="44.38" y2="43.23" gradientUnits="userSpaceOnUse"><stop offset="0" stop-color="#393939"/><stop offset="0.19" stop-color="#5f5f5f"/><stop offset="0.53" stop-color="#9b9b9b"/><stop offset="0.69" stop-color="#b3b3b3"/><stop offset="0.74" stop-color="#9f9f9f"/><stop offset="0.83" stop-color="gray"/><stop offset="0.9" stop-color="#6d6d6d"/><stop offset="0.95" stop-color="#666"/></linearGradient><linearGradient id="linear-gradient-6" x1="-2112.69" y1="3044.83" x2="-2112.69" y2="3039.48" gradientTransform="translate(2156.68 -3016.52)" xlink:href="#linear-gradient-4"/><linearGradient id="linear-gradient-7" x1="-2112.3" y1="3045.6" x2="-2112.3" y2="3060.9" gradientTransform="translate(2167.39 -3028)" gradientUnits="userSpaceOnUse"><stop offset="0" stop-color="#393939"/><stop offset="0.06" stop-color="#484848"/><stop offset="0.23"/><stop offset="0.28" stop-color="#070707"/><stop offset="0.55" stop-color="#262626"/><stop offset="0.78" stop-color="#393939"/><stop offset="0.94" stop-color="#404040"/></linearGradient><linearGradient id="linear-gradient-8" x1="-2218.55" y1="3074.22" x2="-2168.06" y2="3074.22" gradientTransform="translate(2240.36 -3048.97)" gradientUnits="userSpaceOnUse"><stop offset="0.25" stop-color="#696969"/><stop offset="0.53" stop-color="#9b9b9b"/><stop offset="0.69" stop-color="#b3b3b3"/><stop offset="0.74" stop-color="#9f9f9f"/><stop offset="0.83" stop-color="gray"/><stop offset="0.9" stop-color="#6d6d6d"/><stop offset="0.95" stop-color="#666"/></linearGradient></defs><rect class="cls-1" x="21.93" y="22.64" width="2.18" height="27.54" transform="translate(-13.56 59.15) rotate(-89.57)"/><path class="cls-2" d="M9.25,35.22l4.14-1c2.19-.1,5.69-.23,10.06-.19,3.95,0,7.13.2,9.22.34l4.13,1.07Z"/><path class="cls-3" d="M1.53,43.61H45.14a1.53,1.53,0,0,1,1.53,1.53v2.3a3.06,3.06,0,0,1-3.06,3.06H3.06A3.06,3.06,0,0,1,0,47.44v-2.3a1.53,1.53,0,0,1,1.53-1.53Z"/><path class="cls-4" d="M3.06,36H43.61A3.06,3.06,0,0,1,46.67,39v2.3a1.53,1.53,0,0,1-1.53,1.53H1.53A1.53,1.53,0,0,1,0,41.32V39A3.06,3.06,0,0,1,3.06,36Z"/><rect class="cls-5" x="2.3" y="42.85" width="42.08" height="0.77"/><path class="cls-6" d="M20.13,23H68.86a0,0,0,0,1,0,0v5.36a0,0,0,0,1,0,0H19.13a0,0,0,0,1,0,0V24A1,1,0,0,1,20.13,23Z" transform="translate(18.36 69.63) rotate(-90)"/><rect class="cls-7" x="29.84" y="17.6" width="50.5" height="15.3" transform="translate(29.84 80.34) rotate(-90)"/><rect class="cls-8" x="21.81" y="24.87" width="50.5" height="0.77" transform="translate(21.81 72.3) rotate(-90)"/><path class="cls-9" d="M54.4,44.52H50.47v-.69H54.4Z"/><path class="cls-9" d="M54.4,42.83H50.47v-.71l2.21-1.23.83-.4v0l-.65.06-.68,0H50.47v-.67H54.4v.72l-2.21,1.22-.84.4v0L52,42.2l.67,0H54.4Z"/><path class="cls-9" d="M54.4,38.9H50.47v-1a1.73,1.73,0,0,1,2-1.91,2,2,0,0,1,1.48.5,1.86,1.86,0,0,1,.5,1.37Zm-.57-.7v-.31a1.18,1.18,0,0,0-.34-.91,1.51,1.51,0,0,0-1.07-.33,1.44,1.44,0,0,0-1.05.33,1.21,1.21,0,0,0-.33.91v.31Z"/><path class="cls-9" d="M54.4,35.15H50.47v-.7H54.4Z"/><path class="cls-9" d="M54.4,32.75,50.47,34v-.74l2-.55c.22-.07.43-.12.63-.17l.64-.18v0l-.64-.17L52.45,32l-2-.54v-.72l3.93,1.22Z"/><path class="cls-9" d="M54.4,30.24H50.47v-.7H54.4Z"/><path class="cls-9" d="M54.4,28.55H50.47V27.5a1.73,1.73,0,0,1,2-1.91,2,2,0,0,1,1.48.5,1.86,1.86,0,0,1,.5,1.37Zm-.57-.7v-.3a1.19,1.19,0,0,0-.34-.92,1.51,1.51,0,0,0-1.07-.33,1.44,1.44,0,0,0-1.05.33,1.22,1.22,0,0,0-.33.92v.3Z"/><path class="cls-9" d="M54.47,23.33a1.43,1.43,0,0,1-.42,1.08,1.91,1.91,0,0,1-1.38.41h-2.2v-.7h2.26a1.31,1.31,0,0,0,.88-.22.72.72,0,0,0,.25-.57.75.75,0,0,0-.25-.59,1.31,1.31,0,0,0-.88-.23H50.47v-.66h2.2a2,2,0,0,1,1.38.39A1.44,1.44,0,0,1,54.47,23.33Z"/><path class="cls-9" d="M54.4,18.82l-1.07.31v1.32l1.07.3v.71l-3.93-1.28v-.81l3.93-1.28Zm-2.09,1.33.48.14v-1l-.48.14c-.21.07-.42.13-.64.18l-.66.18v0l.66.16Z"/><path class="cls-9" d="M54.4,17.6H50.47v-.69h3.34V15.27h.59Z"/><path class="cls-9" d="M54.47,11.87a1.6,1.6,0,0,1-.55,1.24,2.21,2.21,0,0,1-1.5.48,2.15,2.15,0,0,1-1.49-.48,1.73,1.73,0,0,1,0-2.49,2.11,2.11,0,0,1,1.49-.49,2.17,2.17,0,0,1,1.5.49A1.59,1.59,0,0,1,54.47,11.87Zm-.61,0a.86.86,0,0,0-.39-.74,1.74,1.74,0,0,0-1-.28,1.69,1.69,0,0,0-1,.28.92.92,0,0,0,0,1.47,1.69,1.69,0,0,0,1,.28,1.74,1.74,0,0,0,1-.28A.85.85,0,0,0,53.86,11.87Z"/><path class="cls-9" d="M54.4,9.35H50.47V8.09a2,2,0,0,1,.22-1,.77.77,0,0,1,.75-.4,1,1,0,0,1,.52.14.76.76,0,0,1,.33.4h0a1,1,0,0,1,.31-.53.88.88,0,0,1,.62-.22,1,1,0,0,1,.87.43A1.93,1.93,0,0,1,54.4,8Zm-2.31-.7v-.5a.93.93,0,0,0-.15-.59.47.47,0,0,0-.4-.19.47.47,0,0,0-.41.19,1.12,1.12,0,0,0-.12.58v.51Zm1.77,0V8.06c0-.6-.22-.9-.65-.9s-.6.3-.6.9v.59Z"/><path class="cls-9" d="M54.47,5.06a1.24,1.24,0,0,1-.67,1.17l-.35-.48a.7.7,0,0,0,.41-.62.48.48,0,0,0-.17-.41.93.93,0,0,0-.58-.14H50.47V3.89h2.7a1.53,1.53,0,0,1,.91.27A1,1,0,0,1,54.47,5.06Z"/><path class="cls-9" d="M54.47,2.73a.49.49,0,0,1-.13.33.54.54,0,0,1-.68,0,.49.49,0,0,1-.13-.33.44.44,0,0,1,.13-.31.51.51,0,0,1,.68,0A.44.44,0,0,1,54.47,2.73Z"/><path class="cls-9" d="M60.71,28.35H56.78V26h.59v1.68h1.11V26.23h.59v1.43h1.64Z"/><path class="cls-9" d="M60.78,23.83a1.59,1.59,0,0,1-.55,1.25,2.2,2.2,0,0,1-1.5.48,2.13,2.13,0,0,1-1.48-.48,1.72,1.72,0,0,1,0-2.5,2.13,2.13,0,0,1,1.48-.48,2.2,2.2,0,0,1,1.5.48A1.57,1.57,0,0,1,60.78,23.83Zm-.61,0a.87.87,0,0,0-.39-.74,1.82,1.82,0,0,0-1.05-.27,1.76,1.76,0,0,0-1,.27.87.87,0,0,0-.37.74.86.86,0,0,0,.37.74,1.76,1.76,0,0,0,1,.28,1.81,1.81,0,0,0,1.05-.28A.86.86,0,0,0,60.17,23.83Z"/><path class="cls-9" d="M60.78,19.75A1.68,1.68,0,0,1,60.26,21a2.07,2.07,0,0,1-1.5.52,2.32,2.32,0,0,1-1.1-.25,1.7,1.7,0,0,1-.7-.65,1.65,1.65,0,0,1-.25-.9,1.4,1.4,0,0,1,.15-.66,1.75,1.75,0,0,1,.35-.47l.45.37a1.31,1.31,0,0,0-.25.33.91.91,0,0,0-.09.41,1,1,0,0,0,.38.79,1.57,1.57,0,0,0,1,.31,1.7,1.7,0,0,0,1-.29.94.94,0,0,0,.38-.79.91.91,0,0,0-.11-.47,1.43,1.43,0,0,0-.29-.37l.44-.37A1.57,1.57,0,0,1,60.78,19.75Z"/><path class="cls-9" d="M60.78,16.48a1.46,1.46,0,0,1-.41,1.08A1.94,1.94,0,0,1,59,18H56.78v-.7H59a1.36,1.36,0,0,0,.89-.22.72.72,0,0,0,.24-.57.78.78,0,0,0-.24-.59,1.36,1.36,0,0,0-.89-.23H56.78V15H59a2,2,0,0,1,1.38.4A1.43,1.43,0,0,1,60.78,16.48Z"/><path class="cls-9" d="M60.78,12.93a1.92,1.92,0,0,1-.58,1.42l-.47-.41a1.75,1.75,0,0,0,.32-.48,1.32,1.32,0,0,0,.12-.54.84.84,0,0,0-.13-.51.48.48,0,0,0-.37-.17.39.39,0,0,0-.35.17,2.79,2.79,0,0,0-.23.43l-.23.54a1.49,1.49,0,0,1-.37.54.87.87,0,0,1-.67.26A1,1,0,0,1,57,13.8a1.39,1.39,0,0,1-.32-.94,1.66,1.66,0,0,1,.14-.66,1.64,1.64,0,0,1,.36-.55l.44.35a1.85,1.85,0,0,0-.24.4,1.14,1.14,0,0,0-.09.46.79.79,0,0,0,.12.45.4.4,0,0,0,.34.16.36.36,0,0,0,.34-.19,2.46,2.46,0,0,0,.21-.43l.22-.53a1.53,1.53,0,0,1,.4-.57.94.94,0,0,1,.67-.23,1.08,1.08,0,0,1,.82.38A1.46,1.46,0,0,1,60.78,12.93Z"/><path class="cls-9" d="M60.71,10.81H56.78v-.7h3.93Z"/><path class="cls-9" d="M60.71,9.12H56.78V8.4L59,7.18l.84-.4v0l-.66.06-.68,0H56.78V6.18h3.93v.71L58.5,8.12l-.83.4v0l.65,0a5.12,5.12,0,0,1,.67,0h1.72Z"/><path class="cls-9" d="M60.78,3.54a1.79,1.79,0,0,1-.52,1.32,2.38,2.38,0,0,1-3,0,1.8,1.8,0,0,1-.54-1.32,1.43,1.43,0,0,1,.16-.71,2.27,2.27,0,0,1,.34-.48l.45.38a1.27,1.27,0,0,0-.24.33.9.9,0,0,0-.1.46,1,1,0,0,0,.38.84,1.52,1.52,0,0,0,1,.32,1.64,1.64,0,0,0,1-.3,1.08,1.08,0,0,0,.38-.9A.78.78,0,0,0,60,2.91h-.85v.74h-.57V2.28h1.73a1.73,1.73,0,0,1,.34.53A1.9,1.9,0,0,1,60.78,3.54Z"/></svg>