<svg id="Layer_1" data-name="Layer 1" xmlns="http://www.w3.org/2000/svg" xmlns:xlink="http://www.w3.org/1999/xlink" width="309" height="24.6" viewBox="0 0 309 24.6"><defs><style>.cls-1{fill:url(#linear-gradient);}.cls-2{fill:url(#linear-gradient-2);}.cls-3{fill:url(#linear-gradient-3);}.cls-4{fill:#fff;}</style><linearGradient id="linear-gradient" x1="113" y1="88.95" x2="195.72" y2="-54.32" gradientUnits="userSpaceOnUse"><stop offset="0" stop-color="#393939"/><stop offset="0.04"/><stop offset="0.06" stop-color="#1d1d1d"/><stop offset="0.11" stop-color="#595959"/><stop offset="0.14" stop-color="#717171"/><stop offset="0.39"/><stop offset="0.43" stop-color="#1a1a1a"/><stop offset="0.53" stop-color="#515151"/><stop offset="0.57" stop-color="#676767"/><stop offset="0.63" stop-color="#4f4f4f"/><stop offset="0.67" stop-color="#464646"/><stop offset="0.7" stop-color="#393939"/><stop offset="0.8" stop-color="#1a1a1a"/><stop offset="0.88" stop-color="#070707"/><stop offset="0.94"/><stop offset="1" stop-color="#404040"/></linearGradient><linearGradient id="linear-gradient-2" x1="74.09" y1="87.92" x2="234.91" y2="-72.9" xlink:href="#linear-gradient"/><linearGradient id="linear-gradient-3" x1="1.36" y1="12.18" x2="307.64" y2="12.18" gradientUnits="userSpaceOnUse"><stop offset="0"/><stop offset="1"/></linearGradient></defs><title>SamplePositioning_Stage_PiezoElectricStage copy</title><path class="cls-1" d="M0,11.09H309a0,0,0,0,1,0,0v11.4a2.11,2.11,0,0,1-2.11,2.11H2.11A2.11,2.11,0,0,1,0,22.49V11.09a0,0,0,0,1,0,0Z"/><path class="cls-2" d="M2,0H307a2,2,0,0,1,2,2V13.84a0,0,0,0,1,0,0H0a0,0,0,0,1,0,0V2A2,2,0,0,1,2,0Z"/><rect class="cls-3" x="1.36" y="5" width="306.29" height="14.35" rx="0.59"/><path class="cls-4" d="M82.5,16.52V7.19h3.42a6,6,0,0,1,1.88.29,2.84,2.84,0,0,1,1.38,1,3,3,0,0,1,.52,1.85,3.09,3.09,0,0,1-.52,1.87,3.17,3.17,0,0,1-1.38,1.06,4.75,4.75,0,0,1-1.82.34H85v3ZM85,11.61h.89q1.44,0,1.44-1.32a1,1,0,0,0-.39-.89,2,2,0,0,0-1.11-.26H85Z"/><path class="cls-4" d="M91.23,16.52V7.19h2.46v9.33Z"/><path class="cls-4" d="M95.76,16.52V7.19h6V9.26H98.23v1.46h3v2.07h-3v1.66h3.7v2.07Z"/><path class="cls-4" d="M103.16,16.52V15L107,9.26h-3.44V7.19H110v1.5l-3.82,5.76H110v2.07Z"/><path class="cls-4" d="M115.15,16.69A4.06,4.06,0,0,1,112,15.4a5.07,5.07,0,0,1-1.2-3.59A4.9,4.9,0,0,1,112,8.27a4.54,4.54,0,0,1,6.26,0,4.9,4.9,0,0,1,1.2,3.54,5.07,5.07,0,0,1-1.2,3.59A4.06,4.06,0,0,1,115.15,16.69Zm0-2.12a1.51,1.51,0,0,0,1.32-.75,3.69,3.69,0,0,0,.49-2,3.44,3.44,0,0,0-.49-2,1.58,1.58,0,0,0-2.64,0,3.44,3.44,0,0,0-.49,2,3.69,3.69,0,0,0,.49,2A1.51,1.51,0,0,0,115.15,14.57Z"/><path class="cls-4" d="M121.15,16.52V7.19h6V9.26h-3.56v1.46h3v2.07h-3v1.66h3.7v2.07Z"/><path class="cls-4" d="M129.12,16.52V7.19h2.47v7.26h3.53v2.07Z"/><path class="cls-4" d="M136.72,16.52V7.19h6V9.26h-3.56v1.46h3v2.07h-3v1.66h3.7v2.07Z"/><path class="cls-4" d="M148.74,16.69a4.73,4.73,0,0,1-2.2-.53,4.08,4.08,0,0,1-1.63-1.59,5.16,5.16,0,0,1-.61-2.64,5.24,5.24,0,0,1,.63-2.66A4.45,4.45,0,0,1,148.8,7a3.75,3.75,0,0,1,1.66.37,4.93,4.93,0,0,1,1.24.86l-1.29,1.58a3.93,3.93,0,0,0-.71-.49,1.8,1.8,0,0,0-.84-.2,1.83,1.83,0,0,0-1.43.72,3,3,0,0,0-.61,2,3.26,3.26,0,0,0,.55,2,1.78,1.78,0,0,0,1.46.71,1.85,1.85,0,0,0,1-.25,3.15,3.15,0,0,0,.72-.56l1.29,1.55A3.83,3.83,0,0,1,148.74,16.69Z"/><path class="cls-4" d="M154.74,16.52V9.26h-2.47V7.19h7.4V9.26h-2.46v7.26Z"/><path class="cls-4" d="M163.52,16.52h-2.47V7.19h3.53a5.79,5.79,0,0,1,1.85.28,2.78,2.78,0,0,1,1.36.92,2.84,2.84,0,0,1,.52,1.82,3,3,0,0,1-.42,1.66,3,3,0,0,1-1.09,1l2,3.62h-2.75l-1.61-3.13h-.94Zm0-5.08h.89c1,0,1.49-.41,1.49-1.23a.91.91,0,0,0-.38-.84,2.21,2.21,0,0,0-1.11-.23h-.89Z"/><path class="cls-4" d="M170.09,16.52V7.19h2.46v9.33Z"/><path class="cls-4" d="M178.66,16.69a4.73,4.73,0,0,1-2.2-.53,4.14,4.14,0,0,1-1.63-1.59,5.16,5.16,0,0,1-.61-2.64,5.14,5.14,0,0,1,.64-2.66,4.3,4.3,0,0,1,1.66-1.67,4.36,4.36,0,0,1,2.2-.58,3.82,3.82,0,0,1,1.67.37,5.06,5.06,0,0,1,1.23.86l-1.29,1.58a3.93,3.93,0,0,0-.71-.49,1.8,1.8,0,0,0-.84-.2,1.83,1.83,0,0,0-1.43.72,3,3,0,0,0-.61,2,3.26,3.26,0,0,0,.55,2,1.78,1.78,0,0,0,1.46.71,1.85,1.85,0,0,0,1-.25,3.15,3.15,0,0,0,.72-.56l1.29,1.55A3.83,3.83,0,0,1,178.66,16.69Z"/><path class="cls-4" d="M188.85,16.69a5.59,5.59,0,0,1-1.84-.33,5.08,5.08,0,0,1-1.69-1l1.41-1.7a4.35,4.35,0,0,0,1.07.66,3,3,0,0,0,1.11.25c.7,0,1.06-.22,1.06-.66a.54.54,0,0,0-.34-.5c-.22-.11-.53-.24-.93-.41l-1.16-.48a3.59,3.59,0,0,1-1.32-.95,2.44,2.44,0,0,1-.56-1.65,2.65,2.65,0,0,1,1-2,3.69,3.69,0,0,1,2.5-.85,4.51,4.51,0,0,1,1.62.31,4.25,4.25,0,0,1,1.47.94L191,9.82a4.39,4.39,0,0,0-.91-.5,2.47,2.47,0,0,0-1-.18c-.66,0-1,.21-1,.64a.53.53,0,0,0,.37.5c.25.12.59.27,1,.43l1.13.44a3.12,3.12,0,0,1,1.35,1,2.6,2.6,0,0,1,.47,1.6,2.79,2.79,0,0,1-1,2.08A3.74,3.74,0,0,1,188.85,16.69Z"/><path class="cls-4" d="M195.48,16.52V9.26H193V7.19h7.4V9.26h-2.47v7.26Z"/><path class="cls-4" d="M206.09,16.52l-.46-2H203l-.46,2H200l2.84-9.33h3l2.84,9.33ZM203.62,12l-.16.65h1.73L205,12c-.12-.44-.23-.92-.35-1.45s-.23-1-.34-1.5h-.06c-.09.48-.2,1-.31,1.51S203.74,11.54,203.62,12Z"/><path class="cls-4" d="M213.75,16.69a5.29,5.29,0,0,1-2.37-.53,4,4,0,0,1-1.7-1.59,5,5,0,0,1-.64-2.64,5.14,5.14,0,0,1,.65-2.66,4.33,4.33,0,0,1,1.7-1.67,4.65,4.65,0,0,1,2.3-.58,4.11,4.11,0,0,1,1.79.37,4.66,4.66,0,0,1,1.25.86l-1.29,1.58a3.67,3.67,0,0,0-.72-.49,2.07,2.07,0,0,0-.94-.2,2,2,0,0,0-1.58.72,2.9,2.9,0,0,0-.63,2,3.08,3.08,0,0,0,.59,2,2.3,2.3,0,0,0,1.85.71,1.22,1.22,0,0,0,.71-.18V13.1h-1.37v-2h3.56v4.44a4,4,0,0,1-1.33.81A4.77,4.77,0,0,1,213.75,16.69Z"/><path class="cls-4" d="M218.71,16.52V7.19h6V9.26h-3.56v1.46h3v2.07h-3v1.66h3.7v2.07Z"/></svg>