<svg id="Layer_1" data-name="Layer 1" xmlns="http://www.w3.org/2000/svg" xmlns:xlink="http://www.w3.org/1999/xlink" width="62.74" height="50.5" viewBox="0 0 62.74 50.5"><defs><style>.cls-1{fill:url(#linear-gradient);}.cls-2{fill:url(#linear-gradient-2);}.cls-3{fill:url(#linear-gradient-3);}.cls-4{fill:url(#linear-gradient-4);}.cls-5{fill:url(#linear-gradient-5);}.cls-6{fill:url(#linear-gradient-6);}.cls-7{fill:url(#linear-gradient-7);}.cls-8{fill:url(#linear-gradient-8);}.cls-9{fill:#fff;}</style><linearGradient id="linear-gradient" x1="-422.17" y1="2260.49" x2="-394.63" y2="2260.49" gradientTransform="translate(-2237.47 -371.99) rotate(-90)" gradientUnits="userSpaceOnUse"><stop offset="0" stop-color="#aa6d00"/><stop offset="0.11" stop-color="#b78e00"/><stop offset="0.24" stop-color="#bd9a17"/><stop offset="0.51" stop-color="#c7b244"/><stop offset="0.58" stop-color="#c5ae30"/><stop offset="0.72" stop-color="#c1a80d"/><stop offset="0.8" stop-color="#bfa500"/><stop offset="0.8" stop-color="#bea400"/><stop offset="0.89" stop-color="#9c7b00"/><stop offset="0.96" stop-color="#876100"/><stop offset="1" stop-color="#7f5800"/></linearGradient><linearGradient id="linear-gradient-2" x1="-422.56" y1="2262.24" x2="-395.02" y2="2262.24" gradientTransform="translate(-402.26 2293.79) rotate(-179.57)" gradientUnits="userSpaceOnUse"><stop offset="0" stop-color="#885800"/><stop offset="0.49" stop-color="#b78e00"/><stop offset="0.8" stop-color="#bfa500"/><stop offset="0.8" stop-color="#bea400"/><stop offset="0.89" stop-color="#9c7b00"/><stop offset="0.96" stop-color="#876100"/><stop offset="1" stop-color="#7f5800"/></linearGradient><linearGradient id="linear-gradient-3" y1="47.05" x2="46.67" y2="47.05" gradientUnits="userSpaceOnUse"><stop offset="0" stop-color="#393939"/><stop offset="0.3" stop-color="#484848"/><stop offset="0.72"/><stop offset="0.74" stop-color="#070707"/><stop offset="0.82" stop-color="#262626"/><stop offset="0.89" stop-color="#393939"/><stop offset="0.94" stop-color="#404040"/></linearGradient><linearGradient id="linear-gradient-4" y1="39.4" x2="46.67" y2="39.4" gradientUnits="userSpaceOnUse"><stop offset="0" stop-color="#393939"/><stop offset="0.13" stop-color="#484848"/><stop offset="0.39"/><stop offset="0.43" stop-color="#070707"/><stop offset="0.64" stop-color="#262626"/><stop offset="0.82" stop-color="#393939"/><stop offset="0.94" stop-color="#404040"/></linearGradient><linearGradient id="linear-gradient-5" x1="2.3" y1="43.23" x2="44.38" y2="43.23" gradientUnits="userSpaceOnUse"><stop offset="0" stop-color="#393939"/><stop offset="0.19" stop-color="#5f5f5f"/><stop offset="0.53" stop-color="#9b9b9b"/><stop offset="0.69" stop-color="#b3b3b3"/><stop offset="0.74" stop-color="#9f9f9f"/><stop offset="0.83" stop-color="gray"/><stop offset="0.9" stop-color="#6d6d6d"/><stop offset="0.95" stop-color="#666"/></linearGradient><linearGradient id="linear-gradient-6" x1="896.61" y1="1381.71" x2="896.61" y2="1376.35" gradientTransform="translate(-852.62 -1353.4)" xlink:href="#linear-gradient-4"/><linearGradient id="linear-gradient-7" x1="897" y1="1382.47" x2="897" y2="1397.77" gradientTransform="translate(-841.91 -1364.87)" gradientUnits="userSpaceOnUse"><stop offset="0" stop-color="#393939"/><stop offset="0.06" stop-color="#484848"/><stop offset="0.23"/><stop offset="0.28" stop-color="#070707"/><stop offset="0.55" stop-color="#262626"/><stop offset="0.78" stop-color="#393939"/><stop offset="0.94" stop-color="#404040"/></linearGradient><linearGradient id="linear-gradient-8" x1="790.75" y1="1411.09" x2="841.24" y2="1411.09" gradientTransform="translate(-768.94 -1385.84)" gradientUnits="userSpaceOnUse"><stop offset="0.25" stop-color="#696969"/><stop offset="0.53" stop-color="#9b9b9b"/><stop offset="0.69" stop-color="#b3b3b3"/><stop offset="0.74" stop-color="#9f9f9f"/><stop offset="0.83" stop-color="gray"/><stop offset="0.9" stop-color="#6d6d6d"/><stop offset="0.95" stop-color="#666"/></linearGradient></defs><title>SamplePositioning_Focusing_PiezoElectricObjectiveFocus copy</title><rect class="cls-1" x="21.93" y="22.64" width="2.18" height="27.54" transform="translate(-13.56 59.15) rotate(-89.57)"/><path class="cls-2" d="M9.25,35.22l4.14-1c2.19-.1,5.69-.23,10.06-.19,3.95,0,7.13.2,9.22.34l4.13,1.07Z"/><path class="cls-3" d="M1.53,43.61H45.14a1.53,1.53,0,0,1,1.53,1.53v2.3a3.06,3.06,0,0,1-3.06,3.06H3.06A3.06,3.06,0,0,1,0,47.44v-2.3a1.53,1.53,0,0,1,1.53-1.53Z"/><path class="cls-4" d="M3.06,36H43.61A3.06,3.06,0,0,1,46.67,39v2.3a1.53,1.53,0,0,1-1.53,1.53H1.53A1.53,1.53,0,0,1,0,41.32V39A3.06,3.06,0,0,1,3.06,36Z"/><rect class="cls-5" x="2.3" y="42.85" width="42.08" height="0.77"/><path class="cls-6" d="M20.13,23H68.86a0,0,0,0,1,0,0v5.36a0,0,0,0,1,0,0H19.13a0,0,0,0,1,0,0V24A1,1,0,0,1,20.13,23Z" transform="translate(18.36 69.63) rotate(-90)"/><rect class="cls-7" x="29.84" y="17.6" width="50.5" height="15.3" transform="translate(29.84 80.34) rotate(-90)"/><rect class="cls-8" x="21.81" y="24.87" width="50.5" height="0.77" transform="translate(21.81 72.3) rotate(-90)"/><path class="cls-9" d="M54.4,43H50.47V41.76a2,2,0,0,1,.27-1.08,1,1,0,0,1,.94-.43,1.11,1.11,0,0,1,1,.43A1.8,1.8,0,0,1,53,41.74v.56H54.4Zm-2-.7v-.51c0-.57-.24-.86-.72-.86a.57.57,0,0,0-.51.23,1.3,1.3,0,0,0-.14.66v.48Z"/><path class="cls-9" d="M54.4,39.51H50.47v-.7H54.4Z"/><path class="cls-9" d="M54.4,37.82H50.47V35.45h.59v1.67h1V35.71h.59v1.41h1.16V35.39h.59Z"/><path class="cls-9" d="M54.4,34.85H54L51.06,33v1.72h-.59V32.09h.42L53.81,34V32.07h.59Z"/><path class="cls-9" d="M54.47,29.94a1.61,1.61,0,0,1-.55,1.25,2.21,2.21,0,0,1-1.5.48,2.15,2.15,0,0,1-1.49-.48,1.74,1.74,0,0,1,0-2.5,2.15,2.15,0,0,1,1.49-.48,2.21,2.21,0,0,1,1.5.48A1.62,1.62,0,0,1,54.47,29.94Zm-.61,0a.85.85,0,0,0-.39-.73,1.74,1.74,0,0,0-1-.28,1.69,1.69,0,0,0-1,.28.92.92,0,0,0,0,1.47,1.69,1.69,0,0,0,1,.28,1.74,1.74,0,0,0,1-.28A.86.86,0,0,0,53.86,29.94Z"/><path class="cls-9" d="M54.4,26.22H50.47V23.86h.59v1.67h1V24.12h.59v1.41h1.16V23.8h.59Z"/><path class="cls-9" d="M54.4,23H50.47v-.7h3.34V20.67h.59Z"/><path class="cls-9" d="M54.4,20H50.47V17.62h.59v1.67h1V17.88h.59v1.41h1.16V17.56h.59Z"/><path class="cls-9" d="M54.47,15.19A1.72,1.72,0,0,1,54,16.45a2.07,2.07,0,0,1-1.5.51,2.32,2.32,0,0,1-1.1-.24,1.79,1.79,0,0,1-.71-.65,1.76,1.76,0,0,1-.24-.9,1.4,1.4,0,0,1,.15-.66A1.8,1.8,0,0,1,50.9,14l.45.37a1.15,1.15,0,0,0-.25.34.91.91,0,0,0-.09.41,1,1,0,0,0,.38.79,1.94,1.94,0,0,0,2.09,0,.93.93,0,0,0,.38-.78,1,1,0,0,0-.11-.47,1.28,1.28,0,0,0-.29-.37L53.9,14A1.56,1.56,0,0,1,54.47,15.19Z"/><path class="cls-9" d="M54.4,12.6H51.06v1.13h-.59v-3h.59V11.9H54.4Z"/><path class="cls-9" d="M54.4,9.42v.69H50.47V8.79a2,2,0,0,1,.25-1,1,1,0,0,1,.92-.41,1.14,1.14,0,0,1,.72.21,1.12,1.12,0,0,1,.4.57l1.64-.94V8l-1.54.85v.6Zm-2.09,0V8.86c0-.55-.23-.83-.67-.83a.52.52,0,0,0-.48.22,1.13,1.13,0,0,0-.13.61v.56Z"/><path class="cls-9" d="M54.4,6.56H50.47V5.87H54.4Z"/><path class="cls-9" d="M54.47,3.31A1.71,1.71,0,0,1,54,4.56a2.07,2.07,0,0,1-1.5.52,2.32,2.32,0,0,1-1.1-.25,1.79,1.79,0,0,1-.71-.65,1.73,1.73,0,0,1-.24-.9,1.4,1.4,0,0,1,.15-.66,1.75,1.75,0,0,1,.35-.47l.45.37a1.11,1.11,0,0,0-.25.33.91.91,0,0,0-.09.41,1,1,0,0,0,.38.79,1.57,1.57,0,0,0,1,.31,1.7,1.7,0,0,0,1-.29,1,1,0,0,0,.38-.79,1,1,0,0,0-.11-.47,1.43,1.43,0,0,0-.29-.37l.44-.37A1.57,1.57,0,0,1,54.47,3.31Z"/><path class="cls-9" d="M60.78,28.38a1.55,1.55,0,0,1-.55,1.24,2.15,2.15,0,0,1-1.5.49,2.08,2.08,0,0,1-1.48-.49,1.58,1.58,0,0,1-.54-1.24,1.6,1.6,0,0,1,.54-1.25,2.13,2.13,0,0,1,1.48-.49,2.2,2.2,0,0,1,1.5.49A1.57,1.57,0,0,1,60.78,28.38Zm-.61,0a.86.86,0,0,0-.39-.74,1.81,1.81,0,0,0-1.05-.28,1.76,1.76,0,0,0-1,.28.86.86,0,0,0-.37.74.87.87,0,0,0,.37.74,1.76,1.76,0,0,0,1,.27,1.82,1.82,0,0,0,1.05-.27A.87.87,0,0,0,60.17,28.38Z"/><path class="cls-9" d="M60.71,25.86H56.78V24.6a2.14,2.14,0,0,1,.22-1,.77.77,0,0,1,.75-.4,1,1,0,0,1,.52.14.78.78,0,0,1,.33.41h0a1,1,0,0,1,.3-.54.89.89,0,0,1,.63-.21,1,1,0,0,1,.87.43,2,2,0,0,1,.28,1.07Zm-2.31-.7v-.49a.88.88,0,0,0-.15-.6.5.5,0,0,0-.4-.19.45.45,0,0,0-.41.2,1.1,1.1,0,0,0-.12.57v.51Zm1.77,0v-.59c0-.59-.22-.9-.65-.9s-.59.31-.59.9v.59Z"/><path class="cls-9" d="M60.78,21.57a1.24,1.24,0,0,1-.67,1.17l-.35-.48a.67.67,0,0,0,.41-.61.51.51,0,0,0-.16-.42,1,1,0,0,0-.59-.14H56.78V20.4h2.7a1.58,1.58,0,0,1,.92.27A1.06,1.06,0,0,1,60.78,21.57Z"/><path class="cls-9" d="M60.71,19.42H56.78V17.06h.59v1.67h1V17.31H59v1.42h1.16V17h.59Z"/><path class="cls-9" d="M60.78,14.63a1.68,1.68,0,0,1-.52,1.25,2,2,0,0,1-1.5.52,2.21,2.21,0,0,1-1.1-.25,1.7,1.7,0,0,1-.7-.65,1.65,1.65,0,0,1-.25-.9,1.4,1.4,0,0,1,.15-.66,1.75,1.75,0,0,1,.35-.47l.45.37a1.31,1.31,0,0,0-.25.33,1,1,0,0,0-.09.41,1,1,0,0,0,.38.79,1.57,1.57,0,0,0,1,.31,1.7,1.7,0,0,0,1-.29,1,1,0,0,0,.27-1.26,1.43,1.43,0,0,0-.29-.37l.44-.37A1.57,1.57,0,0,1,60.78,14.63Z"/><path class="cls-9" d="M60.71,12H57.37v1.13h-.59v-3h.59v1.13h3.34Z"/><path class="cls-9" d="M60.71,9.55H56.78V8.86h3.93Z"/><path class="cls-9" d="M60.71,7.16,56.78,8.38V7.64l2-.55.63-.17L60,6.74v0l-.65-.18-.63-.16-2-.55V5.12l3.93,1.22Z"/><path class="cls-9" d="M60.71,4.64H56.78V2.28h.59V4h1V2.54H59V4h1.16V2.22h.59Z"/></svg>