<svg xmlns="http://www.w3.org/2000/svg" xmlns:xlink="http://www.w3.org/1999/xlink" width="147" height="153" viewBox="0 0 147 153">
  <defs>
    <clipPath id="clip-Settings_Icon_-_Large">
      <rect width="147" height="153"/>
    </clipPath>
  </defs>
  <g id="Settings_Icon_-_Large" data-name="Settings Icon - Large" clip-path="url(#clip-Settings_Icon_-_Large)">
    <path id="cog-solid" d="M162.767,102.674l-13.1-7.563a59.223,59.223,0,0,0,0-21.584l13.1-7.563a3.716,3.716,0,0,0,1.691-4.3A76.575,76.575,0,0,0,147.64,32.573a3.7,3.7,0,0,0-4.55-.707l-13.1,7.563A58.025,58.025,0,0,0,111.3,28.638v-15.1a3.684,3.684,0,0,0-2.89-3.6,77.293,77.293,0,0,0-33.574,0,3.684,3.684,0,0,0-2.89,3.6V28.668A59.856,59.856,0,0,0,53.25,39.46L40.183,31.9a3.653,3.653,0,0,0-4.55.707A76.114,76.114,0,0,0,18.815,61.689a3.678,3.678,0,0,0,1.691,4.3l13.1,7.563a59.223,59.223,0,0,0,0,21.584l-13.1,7.563a3.716,3.716,0,0,0-1.691,4.3,76.575,76.575,0,0,0,16.818,29.086,3.7,3.7,0,0,0,4.55.707l13.1-7.563A58.025,58.025,0,0,0,71.974,140.03v15.127a3.684,3.684,0,0,0,2.89,3.6,77.293,77.293,0,0,0,33.574,0,3.684,3.684,0,0,0,2.89-3.6V140.03a59.856,59.856,0,0,0,18.693-10.792l13.1,7.563a3.653,3.653,0,0,0,4.55-.707,76.114,76.114,0,0,0,16.818-29.086A3.8,3.8,0,0,0,162.767,102.674Zm-71.146,6.241a24.6,24.6,0,1,1,24.6-24.6A24.629,24.629,0,0,1,91.621,108.915Z" transform="translate(-17.645 -8.099)" fill="#393939"/>
  </g>
</svg>
