<svg id="Layer_1" data-name="Layer 1" xmlns="http://www.w3.org/2000/svg" xmlns:xlink="http://www.w3.org/1999/xlink" viewBox="0 0 282 247.7"><defs><style>.cls-1,.cls-11,.cls-12,.cls-14,.cls-15,.cls-16,.cls-20,.cls-21,.cls-22,.cls-23,.cls-24,.cls-3,.cls-5,.cls-7,.cls-9{stroke-miterlimit:10;}.cls-1{fill:url(#linear-gradient);stroke:url(#linear-gradient-2);}.cls-2{fill:url(#linear-gradient-3);}.cls-11,.cls-12,.cls-14,.cls-15,.cls-16,.cls-3,.cls-5,.cls-7,.cls-9{fill:#046937;stroke:#a7cf39;stroke-linecap:round;}.cls-12,.cls-3{stroke-width:3px;}.cls-11,.cls-3,.cls-4{opacity:0.6;}.cls-10,.cls-11,.cls-12,.cls-13,.cls-14,.cls-15,.cls-16,.cls-17,.cls-18,.cls-3,.cls-4,.cls-5,.cls-6,.cls-7,.cls-8,.cls-9{isolation:isolate;}.cls-10,.cls-13,.cls-4,.cls-6,.cls-8{fill:#55a4db;}.cls-5,.cls-6{opacity:0.25;}.cls-15,.cls-7{stroke-width:2px;}.cls-7,.cls-8{opacity:0.5;}.cls-10,.cls-9{opacity:0.4;}.cls-11,.cls-16,.cls-24{stroke-width:0.5px;}.cls-12,.cls-13,.cls-14,.cls-15,.cls-16{opacity:0.22;}.cls-17{opacity:0.51;fill:url(#linear-gradient-4);}.cls-19,.cls-24{fill:#fff;}.cls-20{fill:url(#linear-gradient-5);stroke:url(#linear-gradient-6);}.cls-21{fill:url(#linear-gradient-7);stroke:url(#linear-gradient-8);}.cls-22{fill:none;stroke:url(#linear-gradient-9);}.cls-23{fill:url(#linear-gradient-10);stroke:url(#linear-gradient-11);}.cls-24{stroke:#000;}</style><linearGradient id="linear-gradient" x1="140.95" y1="698" x2="140.95" y2="736" gradientTransform="matrix(1, 0, 0, -1, 0, 937.16)" gradientUnits="userSpaceOnUse"><stop offset="0" stop-color="#818181"/><stop offset="0.26" stop-color="#b4b4b4"/><stop offset="0.39" stop-color="#8c8a8a"/><stop offset="0.54" stop-color="#6f6d6d"/><stop offset="0.69" stop-color="#5c5b5b"/><stop offset="0.84" stop-color="#515151"/><stop offset="1" stop-color="#4e4e4e"/></linearGradient><linearGradient id="linear-gradient-2" x1="82.59" y1="716.96" x2="199.3" y2="716.96" gradientTransform="matrix(1, 0, 0, -1, 0, 937.16)" gradientUnits="userSpaceOnUse"><stop offset="0" stop-color="#676767"/><stop offset="0.47" stop-color="#b4b4b4"/><stop offset="0.6" stop-color="#b4b4b4"/><stop offset="1" stop-color="#676767"/></linearGradient><linearGradient id="linear-gradient-3" x1="8.1" y1="855.16" x2="274" y2="855.16" gradientTransform="matrix(1, 0, 0, -1, 0, 937.16)" gradientUnits="userSpaceOnUse"><stop offset="0" stop-color="#010101"/><stop offset="0.69" stop-color="#333"/><stop offset="1" stop-color="#010101"/></linearGradient><linearGradient id="linear-gradient-4" x1="8.1" y1="855.06" y2="855.06" xlink:href="#linear-gradient-3"/><linearGradient id="linear-gradient-5" x1="141" y1="773.86" x2="141" y2="936.66" gradientTransform="matrix(1, 0, 0, -1, 0, 937.16)" gradientUnits="userSpaceOnUse"><stop offset="0" stop-color="#c3c3c3"/><stop offset="0.49" stop-color="#e6e6e5"/><stop offset="1" stop-color="#989898"/></linearGradient><linearGradient id="linear-gradient-6" y1="855.26" x2="282" y2="855.26" gradientTransform="matrix(1, 0, 0, -1, 0, 937.16)" gradientUnits="userSpaceOnUse"><stop offset="0" stop-color="#818181"/><stop offset="0.49" stop-color="#bfbebe"/><stop offset="1" stop-color="#959494"/></linearGradient><linearGradient id="linear-gradient-7" x1="0.5" y1="752.31" x2="281.5" y2="752.31" gradientTransform="matrix(1, 0, 0, -1, 0, 937.16)" gradientUnits="userSpaceOnUse"><stop offset="0" stop-color="#989898"/><stop offset="0.49" stop-color="#e6e6e5"/><stop offset="1" stop-color="#989898"/></linearGradient><linearGradient id="linear-gradient-8" y1="752.31" x2="282" y2="752.31" gradientTransform="matrix(1, 0, 0, -1, 0, 937.16)" gradientUnits="userSpaceOnUse"><stop offset="0" stop-color="#818181"/><stop offset="0.59" stop-color="#e6e6e5"/><stop offset="1" stop-color="#818181"/></linearGradient><linearGradient id="linear-gradient-9" x1="132.98" y1="752.56" x2="149.06" y2="752.56" gradientTransform="matrix(1, 0, 0, -1, 0, 937.16)" gradientUnits="userSpaceOnUse"><stop offset="0" stop-color="#676767"/><stop offset="0.36" stop-color="#b4b4b4"/><stop offset="0.69" stop-color="#b4b4b4"/><stop offset="1" stop-color="#676767"/></linearGradient><linearGradient id="linear-gradient-10" x1="141" y1="690" x2="141" y2="701" gradientTransform="matrix(1, 0, 0, -1, 0, 937.16)" gradientUnits="userSpaceOnUse"><stop offset="0" stop-color="#989898"/><stop offset="1" stop-color="#e6e6e5"/></linearGradient><linearGradient id="linear-gradient-11" x1="141" y1="689.5" x2="141" y2="701.5" gradientTransform="matrix(1, 0, 0, -1, 0, 937.16)" gradientUnits="userSpaceOnUse"><stop offset="0" stop-color="#989898"/><stop offset="0.59" stop-color="#e6e6e5"/><stop offset="1" stop-color="#b2b2b2"/></linearGradient></defs><path class="cls-1" d="M96.4,201.2h89.2a62.17,62.17,0,0,0,12.7,38H83.6A62.64,62.64,0,0,0,93.8,219,58.55,58.55,0,0,0,96.4,201.2Z"/><path class="cls-2" d="M269,154.2H13.1a5,5,0,0,1-5-5V14.8a5,5,0,0,1,5-5H269a5,5,0,0,1,5,5V149.2A5.08,5.08,0,0,1,269,154.2Z"/><path class="cls-3" d="M25.6,37.7c-1.5,2.9-2,7.4.7,10.6,3.4,4.1,10.4,4.1,12.8,1.4,1.8-2-.2-4.4,1.4-9.9,1.3-4.7,3.5-5.8,2.8-7.1C41.8,30,29.4,30.3,25.6,37.7Z"/><circle class="cls-4" cx="32.7" cy="43.3" r="4.6"/><path class="cls-3" d="M93.8,58.9c1.3,3,4.4,6.3,8.6,6.3,5.3,0,9.8-5.3,9.3-8.9-.4-2.7-3.5-2.7-6.7-7.4-2.7-4-2.2-6.4-3.6-6.7C98.3,41.5,90.6,51.2,93.8,58.9Z"/><circle class="cls-4" cx="102.7" cy="57.1" r="4.6"/><path class="cls-3" d="M194.3,37c2.9,1.5,7.4,2,10.6-.7,4.1-3.4,4.1-10.4,1.4-12.8-2-1.8-4.4.2-9.9-1.4-4.7-1.3-5.8-3.5-7.1-2.8C186.6,20.7,186.9,33.2,194.3,37Z"/><circle class="cls-4" cx="199.9" cy="29.9" r="4.6"/><path class="cls-3" d="M136.9,141.1c2.9,1.5,7.4,2,10.6-.7,4.1-3.4,4.1-10.4,1.4-12.8-2-1.8-4.4.2-9.9-1.4-4.7-1.3-5.8-3.5-7.1-2.8C129.2,124.9,129.5,137.4,136.9,141.1Z"/><circle class="cls-4" cx="142.5" cy="134.1" r="4.6"/><path class="cls-3" d="M205.6,98.6c-1.5,2.9-2,7.4.7,10.6,3.4,4.1,10.4,4.1,12.8,1.4,1.8-2-.2-4.4,1.4-9.9,1.3-4.7,3.5-5.8,2.8-7.1C221.8,90.9,209.4,91.3,205.6,98.6Z"/><circle class="cls-4" cx="212.7" cy="104.3" r="4.6"/><path class="cls-3" d="M261.6,30.6c-1.5,2.9-2,7.4.7,10.6,3.4,4.1,10.4,4.1,12.8,1.4,1.8-2-.2-4.4,1.4-9.9,1.3-4.7,3.5-5.8,2.8-7.1C277.8,22.9,265.4,23.3,261.6,30.6Z"/><circle class="cls-4" cx="268.7" cy="36.3" r="4.6"/><path class="cls-3" d="M233.3,124.3c-3.1,1-6.6,3.9-7,8-.5,5.3,4.5,10.2,8,10,2.7-.2,3-3.2,8-6,4.2-2.4,6.6-1.6,7-3C250.2,130.3,241.2,121.8,233.3,124.3Z"/><circle class="cls-4" cx="234.3" cy="133.3" r="4.6"/><path class="cls-3" d="M67,125.9c1.3,3,4.4,6.3,8.6,6.3,5.3,0,9.8-5.3,9.3-8.9-.4-2.7-3.5-2.7-6.7-7.4-2.7-4-2.2-6.4-3.6-6.7C71.5,108.5,63.8,118.3,67,125.9Z"/><circle class="cls-4" cx="75.9" cy="124.1" r="4.6"/><path class="cls-3" d="M11.3,131c-1.2,3-1.3,7.6,1.7,10.5,3.8,3.8,10.7,3.1,12.8.3,1.6-2.2-.5-4.4.5-10,.9-4.8,3-6.1,2.2-7.3C26.8,121.9,14.4,123.4,11.3,131Z"/><circle class="cls-4" cx="18.9" cy="136" r="4.6"/><path class="cls-5" d="M60.8,92.1a6.42,6.42,0,0,0,1.1,6.8c2.4,2.4,6.9,2,8.3.2,1-1.4-.3-2.8.3-6.4.6-3.1,1.9-3.9,1.4-4.7C70.8,86.2,62.9,87.1,60.8,92.1Z"/><circle class="cls-6" cx="65.7" cy="95.3" r="3"/><path class="cls-5" d="M170.4,115a6.42,6.42,0,0,0-6.8,1.1c-2.4,2.4-2,6.9-.2,8.3,1.4,1,2.8-.3,6.4.3,3.1.6,3.9,1.9,4.7,1.4C176.2,125,175.3,117,170.4,115Z"/><circle class="cls-6" cx="167.1" cy="119.9" r="3"/><path class="cls-5" d="M196.9,63.9a6.42,6.42,0,0,0-6.8,1.1c-2.4,2.4-2,6.9-.2,8.3,1.4,1,2.8-.3,6.4.3,3.1.6,3.9,1.9,4.7,1.4C202.7,73.9,201.8,66,196.9,63.9Z"/><circle class="cls-6" cx="193.7" cy="68.8" r="3"/><path class="cls-5" d="M142.3,84.5a6.42,6.42,0,0,0-6.8,1.1c-2.4,2.4-2,6.9-.2,8.3,1.4,1,2.8-.3,6.4.3,3.1.6,3.9,1.9,4.7,1.4C148.2,94.5,147.2,86.5,142.3,84.5Z"/><circle class="cls-6" cx="139.1" cy="89.4" r="3"/><path class="cls-5" d="M262.4,72.4c2.5-1.7,6.6-2.5,9.7-.2,4,3,4.6,9.9,2.4,12.5-1.7,2-4,.2-8.9,2.2-4.1,1.7-5,4-6.2,3.4C256.8,89.1,256,76.8,262.4,72.4Z"/><ellipse class="cls-6" cx="268.2" cy="78.99" rx="4.2" ry="4.6" transform="translate(-5.98 24.25) rotate(-5.12)"/><path class="cls-7" d="M28.8,83.5C33.3,87.6,41.5,88,43.3,85c1.8-2.8-1.6-9.5-6-11-2.2-.8-3.4,0-7-1-3.3-.9-4.1-2.5-5-2C23.6,71.9,24.2,79.4,28.8,83.5Z"/><circle class="cls-8" cx="32.8" cy="78.5" r="3.3"/><path class="cls-7" d="M154.9,58.1c4.5,4.1,12.7,4.5,14.5,1.5,1.8-2.8-1.6-9.5-6-11-2.2-.8-3.4,0-7-1-3.3-.9-4.1-2.5-5-2C149.8,46.5,150.4,54,154.9,58.1Z"/><circle class="cls-8" cx="158.9" cy="53.1" r="3.3"/><path class="cls-7" d="M240.7,54.6c4.5,4.1,12.7,4.5,14.5,1.5,1.8-2.8-1.6-9.5-6-11-2.2-.8-3.4,0-7-1-3.3-.9-4.1-2.5-5-2C235.5,43,236.1,50.5,240.7,54.6Z"/><circle class="cls-8" cx="244.7" cy="49.6" r="3.3"/><path class="cls-7" d="M183.3,156.6c4.5,4.1,12.7,4.5,14.5,1.5,1.8-2.8-1.6-9.5-6-11-2.2-.8-3.4,0-7-1-3.3-.9-4.1-2.5-5-2C178.1,145,178.7,152.5,183.3,156.6Z"/><circle class="cls-8" cx="187.3" cy="151.6" r="3.3"/><path class="cls-7" d="M69.2,29.1c4.5,4.1,12.7,4.5,14.5,1.5,1.8-2.8-1.6-9.5-6-11-2.2-.8-3.4,0-7-1-3.3-.9-4.1-2.5-5-2C64,17.5,64.6,25,69.2,29.1Z"/><circle class="cls-8" cx="73.2" cy="24.1" r="3.3"/><path class="cls-7" d="M88.3,75.1c4.5,4.1,12.7,4.5,14.5,1.5,1.8-2.8-1.6-9.5-6-11-2.2-.8-3.4,0-7-1-3.3-.9-4.1-2.5-5-2C83.1,63.5,83.8,71,88.3,75.1Z"/><circle class="cls-8" cx="92.3" cy="70.1" r="3.3"/><path class="cls-9" d="M260.6,92.2c-4.1,4.5-4.5,12.7-1.5,14.5,2.8,1.8,9.5-1.6,11-6,.8-2.2,0-3.4,1-7,.9-3.3,2.5-4.1,2-5C272.2,87,264.7,87.6,260.6,92.2Z"/><circle class="cls-10" cx="265.6" cy="96.2" r="3.3"/><path class="cls-7" d="M9,16.3c4.5,4.1,12.6,4.5,14.5,1.5,1.8-2.8-1.6-9.5-6-11-2.2-.8-3.4,0-7-1-3.3-.9-4.1-2.5-5-2C3.8,4.7,4.4,12.2,9,16.3Z"/><circle class="cls-8" cx="13" cy="11.3" r="3.3"/><path class="cls-7" d="M5.4,118.4c4.5,4.1,12.7,4.5,14.5,1.5,1.8-2.8-1.6-9.5-6-11-2.2-.8-3.4,0-7-1-3.3-.9-4.1-2.5-5-2C.2,106.7.9,114.3,5.4,118.4Z"/><circle class="cls-8" cx="9.4" cy="113.4" r="3.3"/><path class="cls-5" d="M123.9,129.3c1.9-.8,4-2.9,4-5.5,0-3.4-3.4-6.3-5.7-6-1.7.3-1.7,2.2-4.8,4.3-2.6,1.8-4.1,1.4-4.3,2.3C112.7,126.4,119,131.4,123.9,129.3Z"/><circle class="cls-6" cx="122.7" cy="123.6" r="3"/><path class="cls-5" d="M72.6,145.9a6.42,6.42,0,0,0,6.8-1.1c2.4-2.4,2-6.9.2-8.3-1.4-1-2.8.3-6.4-.3-3.1-.6-3.9-1.9-4.7-1.4C66.8,135.9,67.7,143.9,72.6,145.9Z"/><circle class="cls-6" cx="75.9" cy="141" r="3"/><path class="cls-5" d="M172.8,20.1c-.9,2.2-1,5.7,1.2,7.9,2.8,2.8,8,2.4,9.6.2,1.2-1.6-.4-3.3.4-7.5.7-3.6,2.2-4.6,1.6-5.5C184.4,13.3,175.2,14.4,172.8,20.1Z"/><circle class="cls-6" cx="178.5" cy="23.9" r="3.5"/><path class="cls-11" d="M254.9,140.4a4.48,4.48,0,0,0-3.1,3.5c-.2,2.3,1.9,4.4,3.5,4.4,1.2-.1,1.3-1.4,3.5-2.6,1.8-1,2.9-.7,3.1-1.3C262.3,143,258.3,139.3,254.9,140.4Z"/><circle class="cls-4" cx="255.3" cy="144.3" r="2" transform="translate(71.97 373.19) rotate(-80.78)"/><path class="cls-12" d="M237.2,115.6c1.5-2.9,2-7.4-.7-10.6-3.4-4.1-10.4-4.1-12.8-1.4-1.8,2,.2,4.4-1.4,9.9-1.3,4.7-3.5,5.8-2.8,7.1C221,123.3,233.4,123,237.2,115.6Z"/><circle class="cls-13" cx="230.1" cy="110" r="4.6"/><path class="cls-12" d="M187.4,107.8c-1.3-3-4.4-6.3-8.6-6.3-5.3,0-9.8,5.3-9.3,8.9.4,2.7,3.5,2.7,6.7,7.4,2.7,4,2.2,6.4,3.6,6.7C182.9,125.2,190.6,115.4,187.4,107.8Z"/><circle class="cls-13" cx="178.5" cy="109.6" r="4.6"/><path class="cls-12" d="M86.9,129.7c-2.9-1.5-7.4-2-10.6.7-4.1,3.4-4.1,10.4-1.4,12.8,2,1.8,4.4-.2,9.9,1.4,4.7,1.3,5.8,3.5,7.1,2.8C94.6,145.9,94.3,133.5,86.9,129.7Z"/><circle class="cls-13" cx="81.3" cy="136.8" r="4.6"/><path class="cls-12" d="M144.4,17.8c-2.9-1.5-7.4-2-10.6.7-4.1,3.4-4.1,10.4-1.4,12.8,2,1.8,4.4-.2,9.9,1.4,4.7,1.3,5.8,3.5,7.1,2.8C152,34.1,151.7,21.6,144.4,17.8Z"/><circle class="cls-13" cx="138.7" cy="24.9" r="4.6"/><path class="cls-12" d="M79.9,68c1.5-2.9,2-7.4-.7-10.6-3.4-4.1-10.4-4.1-12.8-1.4-1.8,2,.2,4.4-1.4,9.9-1.3,4.7-3.5,5.8-2.8,7.1C63.6,75.7,76.1,75.3,79.9,68Z"/><circle class="cls-13" cx="72.8" cy="62.3" r="4.6"/><path class="cls-12" d="M19.6,136c1.5-2.9,2-7.4-.7-10.6-3.4-4.1-10.4-4.1-12.8-1.4-1.8,2,.2,4.4-1.4,9.9-1.3,4.7-3.5,5.8-2.8,7.1C3.4,143.7,15.8,143.4,19.6,136Z"/><circle class="cls-13" cx="12.5" cy="130.4" r="4.6"/><path class="cls-12" d="M58.2,49.5c3.1-1,6.6-3.9,7-8,.5-5.3-4.5-10.2-8-10-2.7.2-3,3.2-8,6-4.2,2.4-6.6,1.6-7,3C41.3,43.5,50.4,52,58.2,49.5Z"/><circle class="cls-13" cx="57.2" cy="40.5" r="4.6"/><path class="cls-12" d="M224.8,38.7c-1.3-3-4.4-6.3-8.6-6.3-5.3,0-9.8,5.3-9.3,8.9.4,2.7,3.5,2.7,6.7,7.4,2.7,4,2.2,6.4,3.6,6.7C220.3,56.1,228,46.3,224.8,38.7Z"/><circle class="cls-13" cx="215.9" cy="40.5" r="4.6"/><path class="cls-12" d="M271,17.9c1.2-3,1.3-7.6-1.7-10.5-3.8-3.8-10.7-3.1-12.8-.3-1.6,2.2.5,4.4-.5,10-.9,4.8-3,6.1-2.2,7.3C255.5,27,267.9,25.5,271,17.9Z"/><circle class="cls-13" cx="263.4" cy="12.9" r="4.6"/><path class="cls-14" d="M220.3,74.6a6.42,6.42,0,0,0-1.1-6.8c-2.4-2.4-6.9-2-8.3-.2-1,1.4.3,2.8-.3,6.4-.6,3.1-1.9,3.9-1.4,4.7C210.4,80.4,218.3,79.5,220.3,74.6Z"/><circle class="cls-13" cx="215.5" cy="71.3" r="3"/><path class="cls-14" d="M163.6,135.2a6.42,6.42,0,0,0-1.1-6.8c-2.4-2.4-6.9-2-8.3-.2-1,1.4.3,2.8-.3,6.4-.6,3.1-1.9,3.9-1.4,4.7C153.6,141.1,161.6,140.1,163.6,135.2Z"/><circle class="cls-13" cx="158.7" cy="132" r="3"/><path class="cls-14" d="M109.4,48.8a6.42,6.42,0,0,0,6.8-1.1c2.4-2.4,2-6.9.2-8.3-1.4-1-2.8.3-6.4-.3-3.1-.6-3.9-1.9-4.7-1.4C103.6,38.8,104.5,46.8,109.4,48.8Z"/><circle class="cls-13" cx="112.7" cy="43.9" r="3"/><path class="cls-14" d="M84.3,102.7a6.42,6.42,0,0,0,6.8-1.1c2.4-2.4,2-6.9.2-8.3-1.4-1-2.8.3-6.4-.3-3.1-.6-3.9-1.9-4.7-1.4C78.4,92.7,79.4,100.7,84.3,102.7Z"/><circle class="cls-13" cx="87.5" cy="97.8" r="3"/><path class="cls-14" d="M138.9,82.1a6.42,6.42,0,0,0,6.8-1.1c2.4-2.4,2-6.9.2-8.3-1.4-1-2.8.3-6.4-.3-3.1-.6-3.9-1.9-4.7-1.4C133,72.2,133.9,80.1,138.9,82.1Z"/><circle class="cls-13" cx="142.1" cy="77.3" r="3"/><path class="cls-14" d="M18.8,97.7c-2.5,1.7-6.6,2.5-9.7.2-4-3-4.6-9.9-2.4-12.5,1.7-2,4-.2,8.9-2.2,4.1-1.7,5-4,6.2-3.4C24.4,81.1,25.2,93.4,18.8,97.7Z"/><ellipse class="cls-13" cx="13" cy="91.2" rx="4.2" ry="4.6" transform="translate(-8.09 1.52) rotate(-5.12)"/><path class="cls-15" d="M252.4,83.2c-4.5-4.1-12.7-4.5-14.5-1.5-1.8,2.8,1.6,9.5,6,11,2.2.8,3.4,0,7,1,3.3.9,4.1,2.5,5,2C257.6,94.8,257,87.3,252.4,83.2Z"/><circle class="cls-13" cx="248.4" cy="88.2" r="3.3"/><path class="cls-15" d="M139.7,109.9c-4.5-4.1-12.7-4.5-14.5-1.5-1.8,2.8,1.6,9.5,6,11,2.2.8,3.4,0,7,1,3.3.9,4.1,2.5,5,2C144.9,121.5,144.3,114,139.7,109.9Z"/><circle class="cls-13" cx="135.7" cy="114.9" r="3.3"/><path class="cls-15" d="M40.5,112.1C36,108,27.8,107.6,26,110.6c-1.8,2.8,1.6,9.5,6,11,2.2.8,3.4,0,7,1,3.3.9,4.1,2.5,5,2C45.7,123.7,45.1,116.2,40.5,112.1Z"/><circle class="cls-13" cx="36.5" cy="117.1" r="3.3"/><path class="cls-15" d="M97.9,10C93.4,5.9,85.2,5.5,83.4,8.5c-1.8,2.8,1.6,9.5,6,11,2.2.8,3.4,0,7,1,3.3.9,4.1,2.5,5,2C103.1,21.6,102.5,14.1,97.9,10Z"/><circle class="cls-13" cx="93.9" cy="15" r="3.3"/><path class="cls-15" d="M212,137.6c-4.5-4.1-12.7-4.5-14.5-1.5-1.8,2.8,1.6,9.5,6,11,2.2.8,3.4,0,7,1,3.3.9,4.1,2.5,5,2C217.2,149.2,216.6,141.7,212,137.6Z"/><circle class="cls-13" cx="208" cy="142.6" r="3.3"/><path class="cls-15" d="M196.4,92.9c-4.5-4.1-12.7-4.5-14.5-1.5-1.8,2.8,1.6,9.5,6,11,2.2.8,3.4,0,7,1,3.3.9,4.1,2.5,5,2C201.6,104.5,201,97,196.4,92.9Z"/><circle class="cls-13" cx="192.4" cy="97.9" r="3.3"/><path class="cls-14" d="M20.6,78c4.1-4.5,4.5-12.7,1.5-14.5-2.8-1.8-9.5,1.6-11,6-.8,2.2,0,3.4-1,7-.9,3.3-2.5,4.1-2,5C9,83.2,16.5,82.6,20.6,78Z"/><circle class="cls-13" cx="15.6" cy="74" r="3.3"/><path class="cls-15" d="M272.2,150.3c-4.5-4.1-12.7-4.5-14.5-1.5-1.8,2.8,1.6,9.5,6,11,2.2.8,3.4,0,7,1,3.3.9,4.1,2.5,5,2C277.4,161.9,276.8,154.4,272.2,150.3Z"/><circle class="cls-13" cx="268.2" cy="155.3" r="3.3"/><path class="cls-15" d="M275.8,48.3c-4.5-4.1-12.7-4.5-14.5-1.5-1.8,2.8,1.6,9.5,6,11,2.2.8,3.4,0,7,1,3.3.9,4.1,2.5,5,2C281,59.9,280.3,52.4,275.8,48.3Z"/><circle class="cls-13" cx="271.8" cy="53.3" r="3.3"/><path class="cls-14" d="M219.9,20.7a6.42,6.42,0,0,0-6.8,1.1c-2.4,2.4-2,6.9-.2,8.3,1.4,1,2.8-.3,6.4.3,3.1.6,3.9,1.9,4.7,1.4C225.7,30.7,224.8,22.7,219.9,20.7Z"/><circle class="cls-13" cx="216.7" cy="25.6" r="3"/><path class="cls-14" d="M108.4,146.5c.9-2.2,1-5.7-1.2-7.9-2.8-2.8-8-2.4-9.6-.2-1.2,1.6.4,3.3-.4,7.5-.7,3.6-2.2,4.6-1.6,5.5C96.7,153.4,106,152.3,108.4,146.5Z"/><circle class="cls-13" cx="102.7" cy="142.8" r="3.5"/><path class="cls-16" d="M26.3,26.3a4.48,4.48,0,0,0,3.1-3.5c.2-2.3-1.9-4.4-3.5-4.4-1.2.1-1.3,1.4-3.5,2.6-1.8,1-2.9.7-3.1,1.3C18.9,23.6,22.9,27.4,26.3,26.3Z"/><circle class="cls-13" cx="25.9" cy="22.3" r="2"/><path class="cls-17" d="M269,154.3H13.1a5,5,0,0,1-5-5V14.9a5,5,0,0,1,5-5H269a5,5,0,0,1,5,5V149.3A5.15,5.15,0,0,1,269,154.3Z"/><g class="cls-18"><g class="cls-18"><path class="cls-19" d="M97,77.92a7.52,7.52,0,0,1-2.61-.48,7,7,0,0,1-2.31-1.39l1.72-2a6.1,6.1,0,0,0,1.59,1,4.29,4.29,0,0,0,1.69.38C98.35,75.4,99,75,99,74.15a1,1,0,0,0-.52-.9,12.11,12.11,0,0,0-1.4-.65l-1.73-.71a5.26,5.26,0,0,1-1.85-1.26,3.18,3.18,0,0,1-.83-2.28A3.44,3.44,0,0,1,94,65.63a5.1,5.1,0,0,1,3.41-1.12,6.44,6.44,0,0,1,2.29.43,6,6,0,0,1,2,1.27l-1.54,1.85a5.91,5.91,0,0,0-1.3-.77A3.78,3.78,0,0,0,97.38,67a2.25,2.25,0,0,0-1.24.3,1,1,0,0,0-.45.87,1,1,0,0,0,.58.89,13.22,13.22,0,0,0,1.44.63l1.71.68a4.82,4.82,0,0,1,1.92,1.31,3.23,3.23,0,0,1,.71,2.2,3.72,3.72,0,0,1-1.31,2.81A5.32,5.32,0,0,1,97,77.92Z"/><path class="cls-19" d="M109.73,77.92a5.69,5.69,0,0,1-4.37-1.8,7,7,0,0,1-1.67-5,6.78,6.78,0,0,1,1.67-4.91,6.37,6.37,0,0,1,8.74,0,6.83,6.83,0,0,1,1.67,4.9,7,7,0,0,1-1.67,5A5.71,5.71,0,0,1,109.73,77.92Zm0-2.52a2.51,2.51,0,0,0,2.16-1.15,5.37,5.37,0,0,0,.8-3.1,5.06,5.06,0,0,0-.8-3,2.51,2.51,0,0,0-2.16-1.1,2.54,2.54,0,0,0-2.17,1.1,5.06,5.06,0,0,0-.79,3,5.37,5.37,0,0,0,.79,3.1A2.54,2.54,0,0,0,109.73,75.4Z"/><path class="cls-19" d="M118.28,77.68V64.74h8.39V67.2h-5.39v3h4.61v2.46h-4.61v5Z"/><path class="cls-19" d="M131.57,77.68V67.2h-3.66V64.74h10.33V67.2h-3.65V77.68Z"/><path class="cls-19" d="M141.51,77.68,139,64.74h3.08L143,70.8c.08.67.17,1.35.26,2s.19,1.36.27,2h.08c.14-.69.27-1.37.4-2s.26-1.36.4-2l1.43-6.06h2.55l1.43,6.06c.13.64.26,1.31.39,2s.27,1.38.4,2.08h.08c.1-.7.19-1.39.28-2.07s.18-1.35.27-2l.92-6.06h2.88l-2.37,12.94h-3.77l-1.31-5.87c-.11-.51-.21-1-.29-1.52s-.17-1-.24-1.48H147c-.08.48-.17,1-.26,1.48s-.18,1-.29,1.52l-1.25,5.87Z"/><path class="cls-19" d="M164,77.68l-.82-3.08H159.1l-.82,3.08h-3.06l4.17-12.94H163l4.16,12.94ZM160,71.13l-.33,1.19h2.84l-.31-1.19c-.19-.65-.37-1.33-.55-2.06s-.35-1.43-.53-2.1h-.08l-.5,2.11C160.41,69.8,160.23,70.48,160,71.13Z"/><path class="cls-19" d="M171.61,77.68h-3V64.74h4.8a7.11,7.11,0,0,1,3.62.87,3.32,3.32,0,0,1,1.5,3.16,4,4,0,0,1-.65,2.34,4.2,4.2,0,0,1-1.72,1.39l3,5.18h-3.37L173.27,73h-1.66Zm0-7h1.55c1.62,0,2.43-.65,2.43-1.93a1.42,1.42,0,0,0-.62-1.33,3.54,3.54,0,0,0-1.81-.38h-1.55Z"/><path class="cls-19" d="M181.12,77.68V64.74h8.33V67.2h-5.32v2.6h4.53v2.44h-4.53v3h5.53v2.46Z"/></g><g class="cls-18"><path class="cls-19" d="M103.77,101.48V88.54h3.29l2.14,5.76q.21.56.39,1.17c.12.41.25.81.39,1.21h.08c.13-.4.26-.8.38-1.21s.24-.8.37-1.17l2.11-5.76h3.26v12.94h-2.73V96.74a18.68,18.68,0,0,1,.14-2.21c.09-.84.18-1.58.24-2.2h-.08l-1.08,3.08-1.9,4.94h-1.65l-1.9-4.94-1.06-3.08h-.08c.07.62.15,1.36.24,2.2a18.89,18.89,0,0,1,.15,2.21v4.74Z"/><path class="cls-19" d="M124.73,101.72a5.67,5.67,0,0,1-4.36-1.8,7,7,0,0,1-1.68-5A6.79,6.79,0,0,1,120.37,90a6.33,6.33,0,0,1,8.73,0,6.79,6.79,0,0,1,1.68,4.9,7,7,0,0,1-1.68,5A5.68,5.68,0,0,1,124.73,101.72Zm0-2.52a2.51,2.51,0,0,0,2.17-1.15,5.37,5.37,0,0,0,.79-3.1,5.06,5.06,0,0,0-.79-3,2.67,2.67,0,0,0-4.33,0,5.06,5.06,0,0,0-.8,3,5.37,5.37,0,0,0,.8,3.1A2.51,2.51,0,0,0,124.73,99.2Z"/><path class="cls-19" d="M133.29,101.48V88.54H137a7.3,7.3,0,0,1,4.86,1.54q1.82,1.55,1.82,4.87a6.26,6.26,0,0,1-1.8,4.93,6.82,6.82,0,0,1-4.72,1.6Zm3-2.36h.57a4,4,0,0,0,2.73-.92,4.18,4.18,0,0,0,1-3.25c0-1.55-.34-2.61-1-3.18a4.1,4.1,0,0,0-2.73-.87h-.57Z"/><path class="cls-19" d="M151.49,101.72a5.11,5.11,0,0,1-4-1.49q-1.36-1.49-1.36-4.74V88.54h3v7.25a4.39,4.39,0,0,0,.59,2.65,2,2,0,0,0,1.71.76,2.1,2.1,0,0,0,1.74-.76,4.3,4.3,0,0,0,.61-2.65V88.54h2.9v6.95q0,3.26-1.34,4.74A5,5,0,0,1,151.49,101.72Z"/><path class="cls-19" d="M159.82,101.48V88.54h3V99h5.27v2.46Z"/><path class="cls-19" d="M170.39,101.48V88.54h8.33V91h-5.33v2.6h4.53V96h-4.53v3h5.53v2.46Z"/></g></g><path class="cls-20" d="M271.4.5H10.6A10,10,0,0,0,.5,10.4V163.3h281V10.4A10,10,0,0,0,271.4.5Zm2.4,146.9c0,3.8-4.3,7-9.6,7H17.9c-5.3,0-9.6-3.1-9.6-7V16.6c0-3.8,4.3-7,9.6-7H264.3c5.3,0,9.6,3.1,9.6,7V147.4Z"/><path class="cls-21" d="M281.5,163.2v33.4a10.1,10.1,0,0,1-10.1,9.9H10.6A10,10,0,0,1,.5,196.6V163.2Z"/><ellipse class="cls-22" cx="141" cy="184.6" rx="7.5" ry="7.4"/><path class="cls-23" d="M226,247.2H56a11,11,0,0,1,11-11H215a11,11,0,0,1,11,11Z"/><g class="cls-18"><path class="cls-19" d="M17.45,29.78V27.31l3.6-1.18,2.75-1v-.08l-2.75-1-3.6-1.19V20.47l9.39,3.62v2.08Z"/><path class="cls-19" d="M38.74,32.15a6.22,6.22,0,0,1-3.09-.78,5.66,5.66,0,0,1-2.24-2.28,7.55,7.55,0,0,1-.85-3.76,7.6,7.6,0,0,1,.87-3.76,6,6,0,0,1,2.3-2.39,6.17,6.17,0,0,1,3.11-.83,5.1,5.1,0,0,1,2.31.52,6.33,6.33,0,0,1,1.7,1.22L41.25,22a4.82,4.82,0,0,0-1.07-.77,2.65,2.65,0,0,0-1.27-.3,2.88,2.88,0,0,0-2.32,1.15,4.78,4.78,0,0,0-1,3.14,5.07,5.07,0,0,0,.88,3.19,2.81,2.81,0,0,0,2.35,1.14,2.89,2.89,0,0,0,1.45-.36,4.5,4.5,0,0,0,1.14-.89l1.59,1.88A5.4,5.4,0,0,1,38.74,32.15Z"/></g><path class="cls-24" d="M240,97c-.08,0-.25.09-.33.09l-7.92,4.42s-.09,0-.09.08h0a.08.08,0,0,0-.08.08c-.08.09-.08.09-.08.17V102h0v.08h0v3.59l-9.42,5.25a.91.91,0,0,0-.5.83v8.59l-3.34,1.84-.08.08s-.09,0-.09.08h0a.08.08,0,0,0-.08.09.08.08,0,0,0-.08.08l-.09.08v.17h0v.08h0v9a.91.91,0,0,0,.5.83l7.84,4.34h.67a.31.31,0,0,0,.25-.08h.08l.09-.09h.08L229,136l11.09,6.17a1,1,0,0,0,1,0L252.17,136l1.75,1,.08.08h.59a.32.32,0,0,0,.25-.08h.08l.08-.09h.09l7.75-4.33a.93.93,0,0,0,.5-.84v-8.34a1,1,0,0,0-.17-1.41,1.32,1.32,0,0,0-.75-.25L259.34,120v-8.59a.91.91,0,0,0-.5-.83l-9.42-5.26v-2.83a1,1,0,0,0-.17-1.42,1.32,1.32,0,0,0-.75-.25L241,96.68a.7.7,0,0,0-.58-.08C240.08,97,240.08,97,240,97Zm.25,2.17,5.92,3.25-5.92,3.17-5.92-3.17Zm-7,4.92,5.92,3.25V114l-5.92-3.25v-4a.73.73,0,0,0,0-.58Zm13.92,0v2a.76.76,0,0,0,0,.59v4l-5.92,3.25v-6.67Zm-15.92,4v3.17a.91.91,0,0,0,.5.84l7.92,4.42h.58a.28.28,0,0,0,.25-.09h.09l.08-.08h.08L248.5,112a.91.91,0,0,0,.5-.83V108l7.92,4.42v6.84l-2.5-1.34a.76.76,0,0,0-.58-.08h-.09c-.08,0-.25.08-.33.08l-7.92,4.42h-.09a.08.08,0,0,0-.08.09h0a.08.08,0,0,0-.08.08c-.09.08-.17.17-.17.25h0V132a.92.92,0,0,0,.5.83l4.09,2.25-9.59,5.34-9.59-5.34,4.08-2.25a.91.91,0,0,0,.5-.83V123.7a1,1,0,0,0-.16-1.42,1.32,1.32,0,0,0-.75-.25l-7.51-4.17a.7.7,0,0,0-.58-.08H226c-.08,0-.25.08-.33.08l-2.5,1.33v-6.83ZM226.32,120l5.92,3.25-5.92,3.17-5.92-3.17,2.25-1.25.17-.08H223Zm27.77,0L257.5,122c.09,0,.09.08.17.08l2.34,1.25-5.92,3.17-5.92-3.17ZM219.4,125l5.92,3.25v6.67l-5.92-3.25Zm13.84,0v6.59l-5,2.75h-.09a.28.28,0,0,0-.16.08s-.09,0-.09.08l-.58.34v-6.67Zm13.92,0,5.92,3.25v6.67l-.66-.33h-.17l-5.09-2.84V125ZM261,125v6.59l-5.92,3.25v-6.67Z"/></svg>