<svg id="Layer_1" data-name="Layer 1" xmlns="http://www.w3.org/2000/svg" xmlns:xlink="http://www.w3.org/1999/xlink" viewBox="0 0 282.04 247.68"><defs><style>.cls-1,.cls-11,.cls-12,.cls-14,.cls-15,.cls-16,.cls-19,.cls-20,.cls-21,.cls-22,.cls-3,.cls-5,.cls-7,.cls-9{stroke-miterlimit:10;}.cls-1{fill:url(#linear-gradient);stroke:url(#linear-gradient-2);}.cls-2{fill:url(#linear-gradient-3);}.cls-11,.cls-12,.cls-14,.cls-15,.cls-16,.cls-3,.cls-5,.cls-7,.cls-9{fill:#006837;stroke:#a2e834;stroke-linecap:round;}.cls-12,.cls-3{stroke-width:3px;}.cls-11,.cls-3,.cls-4{opacity:0.6;}.cls-10,.cls-13,.cls-4,.cls-6,.cls-8{fill:#3fa9f5;}.cls-5,.cls-6{opacity:0.25;}.cls-15,.cls-7{stroke-width:2px;}.cls-7,.cls-8{opacity:0.5;}.cls-10,.cls-9{opacity:0.4;}.cls-11,.cls-16{stroke-width:0.5px;}.cls-12,.cls-13,.cls-14,.cls-15,.cls-16{opacity:0.22;}.cls-17{opacity:0.51;fill:url(#linear-gradient-4);}.cls-18{fill:#fff;}.cls-19{fill:url(#linear-gradient-5);stroke:url(#linear-gradient-6);}.cls-20{fill:url(#linear-gradient-7);stroke:url(#linear-gradient-8);}.cls-21{fill:none;stroke:url(#linear-gradient-9);}.cls-22{fill:url(#linear-gradient-10);stroke:url(#linear-gradient-11);}</style><linearGradient id="linear-gradient" x1="141.02" y1="239.18" x2="141.02" y2="201.18" gradientUnits="userSpaceOnUse"><stop offset="0" stop-color="gray"/><stop offset="0.26" stop-color="#b3b3b3"/><stop offset="0.28" stop-color="#aeaeae"/><stop offset="0.42" stop-color="#8b8b8b"/><stop offset="0.56" stop-color="#707070"/><stop offset="0.7" stop-color="#5c5c5c"/><stop offset="0.85" stop-color="#515151"/><stop offset="1" stop-color="#4d4d4d"/></linearGradient><linearGradient id="linear-gradient-2" x1="82.69" y1="220.18" x2="199.35" y2="220.18" gradientUnits="userSpaceOnUse"><stop offset="0" stop-color="#666"/><stop offset="0.47" stop-color="#b3b3b3"/><stop offset="0.6" stop-color="#b3b3b3"/><stop offset="1" stop-color="#666"/></linearGradient><linearGradient id="linear-gradient-3" x1="8.12" y1="82.08" x2="273.92" y2="82.08" gradientUnits="userSpaceOnUse"><stop offset="0"/><stop offset="0.69" stop-color="#333"/><stop offset="1"/></linearGradient><linearGradient id="linear-gradient-4" x1="8.12" y1="82.11" x2="273.92" y2="82.11" xlink:href="#linear-gradient-3"/><linearGradient id="linear-gradient-5" x1="141.02" y1="163.26" x2="141.02" y2="0.5" gradientUnits="userSpaceOnUse"><stop offset="0" stop-color="#c3c3c3"/><stop offset="0.49" stop-color="#e6e6e6"/><stop offset="1" stop-color="#999"/></linearGradient><linearGradient id="linear-gradient-6" y1="81.88" x2="282.04" y2="81.88" gradientUnits="userSpaceOnUse"><stop offset="0" stop-color="gray"/><stop offset="0.49" stop-color="#bebebe"/><stop offset="1" stop-color="#949494"/></linearGradient><linearGradient id="linear-gradient-7" x1="0.5" y1="184.93" x2="281.54" y2="184.93" gradientUnits="userSpaceOnUse"><stop offset="0" stop-color="#999"/><stop offset="0.49" stop-color="#e6e6e6"/><stop offset="1" stop-color="#999"/></linearGradient><linearGradient id="linear-gradient-8" y1="184.93" x2="282.04" y2="184.93" gradientUnits="userSpaceOnUse"><stop offset="0" stop-color="gray"/><stop offset="0.59" stop-color="#e6e6e6"/><stop offset="1" stop-color="gray"/></linearGradient><linearGradient id="linear-gradient-9" x1="132.98" y1="184.58" x2="149.06" y2="184.58" gradientUnits="userSpaceOnUse"><stop offset="0" stop-color="#666"/><stop offset="0.36" stop-color="#b3b3b3"/><stop offset="0.69" stop-color="#b3b3b3"/><stop offset="1" stop-color="#666"/></linearGradient><linearGradient id="linear-gradient-10" x1="141.02" y1="247.18" x2="141.02" y2="236.18" gradientUnits="userSpaceOnUse"><stop offset="0" stop-color="#999"/><stop offset="1" stop-color="#e6e6e6"/></linearGradient><linearGradient id="linear-gradient-11" x1="141.02" y1="247.68" x2="141.02" y2="235.68" gradientUnits="userSpaceOnUse"><stop offset="0" stop-color="#999"/><stop offset="0.59" stop-color="#e6e6e6"/><stop offset="1" stop-color="#b1b1b1"/></linearGradient></defs><path class="cls-1" d="M96.43,201.18h89.18A62.3,62.3,0,0,0,188.16,219a64.12,64.12,0,0,0,10.2,20.18H83.69A64.13,64.13,0,0,0,93.88,219,61.6,61.6,0,0,0,96.43,201.18Z"/><rect class="cls-2" x="8.12" y="9.89" width="265.8" height="144.39" rx="4.97"/><path class="cls-3" d="M25.6,37.7c-1.48,2.87-2,7.43.71,10.63,3.41,4.11,10.38,4.08,12.75,1.42,1.82-2-.15-4.39,1.42-9.92C41.81,35.15,44,34,43.32,32.74,41.85,30,29.39,30.37,25.6,37.7Z"/><circle class="cls-4" cx="32.69" cy="43.37" r="4.61"/><path class="cls-3" d="M93.78,58.88c1.25,3,4.44,6.26,8.61,6.27,5.34,0,9.79-5.35,9.27-8.88-.4-2.7-3.46-2.69-6.7-7.45-2.75-4-2.2-6.43-3.63-6.72C98.31,41.49,90.58,51.27,93.78,58.88Z"/><circle class="cls-4" cx="102.68" cy="57.08" r="4.61"/><path class="cls-3" d="M194.25,37c2.87,1.48,7.43,2,10.63-.7C209,32.87,209,25.91,206.3,23.53c-2-1.82-4.38.15-9.92-1.42-4.68-1.32-5.81-3.52-7.09-2.83C186.58,20.75,186.92,33.21,194.25,37Z"/><circle class="cls-4" cx="199.92" cy="29.91" r="4.61"/><path class="cls-3" d="M136.86,141.16c2.86,1.48,7.42,2,10.62-.71,4.11-3.41,4.09-10.37,1.42-12.75-2-1.82-4.38.15-9.92-1.42-4.68-1.32-5.81-3.53-7.09-2.83C129.18,124.92,129.52,137.38,136.86,141.16Z"/><circle class="cls-4" cx="142.52" cy="134.08" r="4.61"/><path class="cls-3" d="M205.59,98.64c-1.48,2.87-2,7.43.71,10.63,3.41,4.11,10.38,4.08,12.76,1.42,1.81-2-.16-4.38,1.41-9.92,1.33-4.68,3.53-5.81,2.84-7.09C221.84,91,209.38,91.31,205.59,98.64Z"/><circle class="cls-4" cx="212.68" cy="104.31" r="4.61"/><path class="cls-3" d="M261.57,30.62c-1.48,2.86-1.95,7.42.71,10.63,3.41,4.1,10.38,4.08,12.76,1.41,1.82-2-.15-4.38,1.41-9.92,1.33-4.68,3.53-5.8,2.84-7.08C277.82,22.94,265.36,23.28,261.57,30.62Z"/><circle class="cls-4" cx="268.66" cy="36.29" r="4.61"/><path class="cls-3" d="M233.32,124.31c-3.08,1-6.64,3.87-7,8-.49,5.31,4.46,10.22,8,10,2.73-.15,3-3.21,8-6,4.24-2.38,6.6-1.62,7-3C250.23,130.37,241.18,121.8,233.32,124.31Z"/><circle class="cls-4" cx="234.32" cy="133.33" r="4.61"/><path class="cls-3" d="M67,126c1.25,3,4.44,6.26,8.61,6.27,5.34,0,9.79-5.35,9.27-8.88-.4-2.7-3.47-2.7-6.71-7.45-2.74-4-2.19-6.43-3.62-6.72C71.55,108.57,63.82,118.35,67,126Z"/><circle class="cls-4" cx="75.91" cy="124.16" r="4.61"/><path class="cls-3" d="M11.3,131.05c-1.22,3-1.29,7.57,1.65,10.52,3.76,3.79,10.7,3.14,12.83.28,1.63-2.19-.54-4.36.53-10,.9-4.78,3-6.1,2.19-7.31C26.79,122,14.41,123.41,11.3,131.05Z"/><circle class="cls-4" cx="18.86" cy="136.06" r="4.61"/><path class="cls-5" d="M60.85,92.1a6.42,6.42,0,0,0,1.07,6.78c2.42,2.43,6.89,2,8.26.17,1-1.41-.35-2.8.34-6.45.58-3.08,1.93-3.93,1.41-4.71C70.83,86.24,62.86,87.17,60.85,92.1Z"/><circle class="cls-6" cx="65.72" cy="95.33" r="2.97"/><path class="cls-5" d="M170.35,115a6.41,6.41,0,0,0-6.78,1.06c-2.44,2.43-2,6.9-.17,8.27,1.41,1.05,2.8-.35,6.44.34,3.08.58,3.93,1.93,4.71,1.41C176.21,125,175.28,117,170.35,115Z"/><circle class="cls-6" cx="167.12" cy="119.89" r="2.97"/><path class="cls-5" d="M196.89,64A6.41,6.41,0,0,0,190.11,65c-2.44,2.42-2,6.89-.18,8.26,1.41,1,2.8-.35,6.45.34,3.08.58,3.93,1.93,4.71,1.41C202.74,74,201.81,66,196.89,64Z"/><circle class="cls-6" cx="193.66" cy="68.84" r="2.97"/><path class="cls-5" d="M142.32,84.52a6.42,6.42,0,0,0-6.78,1.07c-2.44,2.42-2,6.89-.18,8.26,1.42,1.05,2.81-.35,6.45.34,3.08.58,3.93,1.93,4.71,1.41C148.18,94.5,147.25,86.53,142.32,84.52Z"/><circle class="cls-6" cx="139.09" cy="89.39" r="2.97"/><path class="cls-5" d="M262.37,72.46c2.47-1.7,6.57-2.54,9.73-.17,4,3,4.63,9.93,2.42,12.5-1.69,2-4,.21-8.9,2.21-4.14,1.69-5,4-6.2,3.38C256.83,89.15,256,76.8,262.37,72.46Z"/><ellipse class="cls-6" cx="268.15" cy="79" rx="4.21" ry="4.57" transform="matrix(1, -0.09, 0.09, 1, -5.98, 24.24)"/><path class="cls-7" d="M28.75,83.49C33.3,87.59,41.42,88,43.27,85c1.76-2.84-1.61-9.49-6-11-2.18-.75-3.43,0-7-1-3.31-.93-4.11-2.49-5-2C23.58,71.87,24.19,79.38,28.75,83.49Z"/><circle class="cls-8" cx="32.76" cy="78.48" r="3.25"/><path class="cls-7" d="M154.93,58.15c4.55,4.1,12.67,4.51,14.52,1.5,1.76-2.84-1.61-9.49-6-11-2.18-.75-3.43,0-7-1-3.31-.94-4.11-2.5-5-2C149.76,46.54,150.37,54,154.93,58.15Z"/><circle class="cls-8" cx="158.94" cy="53.14" r="3.25"/><path class="cls-7" d="M240.68,54.61c4.55,4.1,12.66,4.51,14.52,1.5,1.75-2.84-1.62-9.49-6-11-2.17-.76-3.43,0-7-1-3.31-.93-4.1-2.49-5-2C235.5,43,236.12,50.5,240.68,54.61Z"/><circle class="cls-8" cx="244.68" cy="49.6" r="3.25"/><path class="cls-7" d="M183.28,156.65c4.55,4.1,12.66,4.51,14.52,1.5,1.75-2.84-1.62-9.49-6-11-2.17-.76-3.42,0-7-1-3.31-.94-4.1-2.5-5-2C178.1,145,178.72,152.54,183.28,156.65Z"/><circle class="cls-8" cx="187.28" cy="151.64" r="3.25"/><path class="cls-7" d="M69.19,29.1c4.55,4.1,12.66,4.51,14.52,1.5,1.75-2.84-1.62-9.49-6-11-2.17-.75-3.42,0-7-1-3.3-.93-4.1-2.49-5-2C64,17.49,64.63,25,69.19,29.1Z"/><circle class="cls-8" cx="73.2" cy="24.09" r="3.25"/><path class="cls-7" d="M88.32,75.16c4.55,4.1,12.67,4.51,14.52,1.5,1.75-2.84-1.61-9.49-6-11-2.17-.76-3.42,0-7-1-3.3-.93-4.1-2.49-5-2C83.15,63.55,83.76,71.05,88.32,75.16Z"/><circle class="cls-8" cx="92.33" cy="70.15" r="3.25"/><path class="cls-9" d="M260.56,92.19c-4.1,4.55-4.51,12.67-1.5,14.52,2.84,1.76,9.49-1.61,11-6,.75-2.18,0-3.43,1-7,.94-3.31,2.49-4.11,2-5C272.17,87,264.67,87.63,260.56,92.19Z"/><circle class="cls-10" cx="265.57" cy="96.2" r="3.25"/><path class="cls-7" d="M9,16.34c4.55,4.1,12.66,4.52,14.52,1.5,1.75-2.84-1.62-9.49-6-11-2.18-.75-3.43,0-7-1-3.31-.94-4.1-2.49-5-2C3.78,4.73,4.4,12.23,9,16.34Z"/><circle class="cls-8" cx="12.96" cy="11.34" r="3.25"/><path class="cls-7" d="M5.41,118.38c4.55,4.1,12.67,4.52,14.52,1.51,1.76-2.85-1.61-9.5-6-11-2.17-.75-3.42,0-7-1-3.31-.94-4.11-2.49-5-2C.24,106.77.85,114.28,5.41,118.38Z"/><circle class="cls-8" cx="9.42" cy="113.38" r="3.25"/><path class="cls-5" d="M123.89,129.35a6.42,6.42,0,0,0,4-5.55c0-3.44-3.45-6.3-5.72-6-1.74.26-1.74,2.23-4.8,4.32-2.59,1.77-4.14,1.42-4.33,2.34C112.69,126.43,119,131.41,123.89,129.35Z"/><circle class="cls-6" cx="122.73" cy="123.62" r="2.97"/><path class="cls-5" d="M72.64,145.94a6.42,6.42,0,0,0,6.78-1.07c2.44-2.42,2-6.89.17-8.26-1.41-1.05-2.8.35-6.44-.34-3.08-.58-3.93-1.93-4.71-1.41C66.78,136,67.71,143.93,72.64,145.94Z"/><circle class="cls-6" cx="75.87" cy="141.07" r="2.97"/><path class="cls-5" d="M172.82,20.12c-.91,2.24-1,5.68,1.24,7.9,2.83,2.83,8,2.35,9.63.2,1.22-1.64-.41-3.26.39-7.5.68-3.59,2.25-4.58,1.64-5.49C184.44,13.31,175.16,14.39,172.82,20.12Z"/><circle class="cls-6" cx="178.5" cy="23.88" r="3.45"/><path class="cls-11" d="M254.9,140.4a4.3,4.3,0,0,0-3.05,3.48c-.22,2.32,1.94,4.45,3.49,4.36,1.18-.06,1.3-1.39,3.48-2.61,1.85-1,2.87-.7,3.05-1.31C262.26,143,258.32,139.3,254.9,140.4Z"/><circle class="cls-4" cx="255.34" cy="144.32" r="2"/><path class="cls-12" d="M237.2,115.65c1.48-2.86,2-7.42-.71-10.63-3.41-4.1-10.38-4.08-12.75-1.41-1.82,2,.15,4.38-1.42,9.92-1.33,4.67-3.53,5.8-2.83,7.08C221,123.32,233.42,123,237.2,115.65Z"/><circle class="cls-13" cx="230.11" cy="109.98" r="4.61"/><path class="cls-12" d="M187.41,107.8c-1.25-3-4.44-6.26-8.61-6.27-5.34,0-9.79,5.35-9.27,8.88.4,2.7,3.46,2.7,6.71,7.45,2.74,4,2.19,6.43,3.62,6.72C182.88,125.19,190.61,115.41,187.41,107.8Z"/><circle class="cls-13" cx="178.51" cy="109.61" r="4.61"/><path class="cls-12" d="M86.94,129.69c-2.87-1.48-7.43-2-10.63.71-4.11,3.41-4.08,10.38-1.42,12.75,2,1.82,4.39-.15,9.92,1.42,4.68,1.33,5.81,3.53,7.09,2.83C94.61,145.94,94.27,133.47,86.94,129.69Z"/><circle class="cls-13" cx="81.27" cy="136.78" r="4.61"/><path class="cls-12" d="M144.37,17.86c-2.86-1.48-7.42-1.95-10.63.71-4.1,3.41-4.08,10.38-1.42,12.76,2,1.81,4.39-.16,9.92,1.41,4.68,1.33,5.81,3.53,7.09,2.84C152,34.11,151.7,21.65,144.37,17.86Z"/><circle class="cls-13" cx="138.7" cy="24.95" r="4.61"/><path class="cls-12" d="M79.85,68c1.48-2.87,2-7.42-.71-10.63C75.73,53.3,68.76,53.33,66.39,56c-1.82,2,.15,4.39-1.42,9.92-1.33,4.68-3.53,5.81-2.83,7.09C63.6,75.71,76.07,75.37,79.85,68Z"/><circle class="cls-13" cx="72.76" cy="62.37" r="4.61"/><path class="cls-12" d="M19.62,136.07c1.48-2.87,1.95-7.43-.71-10.63C15.5,121.33,8.53,121.36,6.15,124c-1.81,2,.15,4.39-1.41,9.92-1.33,4.68-3.53,5.81-2.84,7.09C3.37,143.74,15.83,143.4,19.62,136.07Z"/><circle class="cls-13" cx="12.53" cy="130.4" r="4.61"/><path class="cls-12" d="M58.21,49.56c3.07-1,6.63-3.87,7-8,.49-5.32-4.46-10.23-8-10-2.73.15-3,3.21-8,6-4.24,2.37-6.6,1.62-7,3C41.3,43.5,50.35,52.07,58.21,49.56Z"/><circle class="cls-13" cx="57.21" cy="40.54" r="4.61"/><path class="cls-12" d="M224.84,38.73c-1.25-3-4.45-6.26-8.62-6.27-5.33,0-9.78,5.35-9.26,8.88.4,2.7,3.46,2.7,6.7,7.45,2.74,4,2.2,6.43,3.62,6.72C220.31,56.12,228,46.34,224.84,38.73Z"/><circle class="cls-13" cx="215.94" cy="40.54" r="4.61"/><path class="cls-12" d="M271,17.92c1.22-3,1.29-7.57-1.65-10.53-3.76-3.78-10.7-3.14-12.83-.27-1.63,2.19.54,4.35-.53,10-.9,4.77-3,6.09-2.19,7.31C255.49,27,267.87,25.56,271,17.92Z"/><circle class="cls-13" cx="263.42" cy="12.9" r="4.61"/><path class="cls-14" d="M220.34,74.59a6.41,6.41,0,0,0-1.06-6.78c-2.43-2.44-6.9-2-8.27-.18-1,1.41.35,2.81-.34,6.45-.58,3.08-1.93,3.93-1.41,4.71C210.36,80.45,218.33,79.51,220.34,74.59Z"/><circle class="cls-13" cx="215.47" cy="71.36" r="2.97"/><path class="cls-14" d="M163.61,135.25a6.43,6.43,0,0,0-1.06-6.79c-2.43-2.43-6.9-2-8.27-.17-1.05,1.41.35,2.8-.34,6.45-.58,3.08-1.93,3.93-1.41,4.71C153.63,141.1,161.6,140.17,163.61,135.25Z"/><circle class="cls-13" cx="158.74" cy="132.01" r="2.97"/><path class="cls-14" d="M109.42,48.83a6.41,6.41,0,0,0,6.78-1.06c2.44-2.43,2-6.9.18-8.27-1.41-1-2.81.35-6.45-.34-3.08-.58-3.93-1.93-4.71-1.41C103.56,38.85,104.5,46.83,109.42,48.83Z"/><circle class="cls-13" cx="112.65" cy="43.96" r="2.97"/><path class="cls-14" d="M84.31,102.71a6.41,6.41,0,0,0,6.78-1.06c2.43-2.43,2-6.9.17-8.27-1.41-1-2.8.35-6.45-.34-3.07-.58-3.93-1.93-4.71-1.41C78.45,92.73,79.38,100.71,84.31,102.71Z"/><circle class="cls-13" cx="87.54" cy="97.84" r="2.97"/><path class="cls-14" d="M138.87,82.16a6.41,6.41,0,0,0,6.78-1.06c2.44-2.43,2-6.9.18-8.27-1.42-1-2.81.35-6.45-.34-3.08-.58-3.93-1.93-4.71-1.41C133,72.18,134,80.16,138.87,82.16Z"/><circle class="cls-13" cx="142.1" cy="77.29" r="2.97"/><path class="cls-14" d="M18.83,97.77c-2.48,1.7-6.58,2.54-9.74.17-4-3-4.63-9.94-2.42-12.5,1.7-2,4-.21,8.9-2.22,4.14-1.69,5-4,6.2-3.38C24.37,81.08,25.16,93.43,18.83,97.77Z"/><ellipse class="cls-13" cx="13.04" cy="91.22" rx="4.21" ry="4.57" transform="translate(-8.09 1.53) rotate(-5.12)"/><path class="cls-15" d="M252.44,83.2c-4.55-4.1-12.67-4.52-14.52-1.51-1.75,2.85,1.61,9.5,6,11,2.17.75,3.42,0,7,1,3.3.94,4.1,2.49,5,2C257.61,94.81,257,87.31,252.44,83.2Z"/><circle class="cls-13" cx="248.43" cy="88.2" r="3.25"/><path class="cls-15" d="M139.72,110c-4.55-4.1-12.66-4.51-14.52-1.5-1.75,2.84,1.62,9.49,6,11,2.17.76,3.42,0,7,1,3.31.94,4.1,2.5,5,2C144.9,121.56,144.28,114.06,139.72,110Z"/><circle class="cls-13" cx="135.72" cy="114.96" r="3.25"/><path class="cls-15" d="M40.51,112.08C36,108,27.85,107.56,26,110.57c-1.75,2.85,1.62,9.5,6,11,2.18.75,3.43,0,7,1,3.31.94,4.1,2.49,5,2C45.69,123.69,45.07,116.18,40.51,112.08Z"/><circle class="cls-13" cx="36.51" cy="117.08" r="3.25"/><path class="cls-15" d="M97.91,10c-4.55-4.1-12.66-4.51-14.52-1.5-1.75,2.84,1.62,9.49,6,11,2.17.75,3.43,0,7,1,3.31.93,4.1,2.49,5,2C103.09,21.65,102.47,14.14,97.91,10Z"/><circle class="cls-13" cx="93.91" cy="15.04" r="3.25"/><path class="cls-15" d="M212,137.59c-4.55-4.1-12.66-4.52-14.52-1.51-1.75,2.85,1.62,9.5,6,11,2.17.75,3.42,0,7,1,3.31.94,4.1,2.49,5,2C217.18,149.2,216.56,141.69,212,137.59Z"/><circle class="cls-13" cx="208" cy="142.59" r="3.25"/><path class="cls-15" d="M196.41,92.94c-4.55-4.1-12.66-4.51-14.52-1.5-1.75,2.84,1.62,9.49,6,11,2.17.76,3.42,0,7,1,3.31.93,4.1,2.49,5,2C201.59,104.55,201,97.05,196.41,92.94Z"/><circle class="cls-13" cx="192.41" cy="97.95" r="3.25"/><path class="cls-14" d="M20.63,78c4.1-4.55,4.52-12.66,1.5-14.52-2.84-1.75-9.49,1.62-11,6-.75,2.17,0,3.43-1,7-.94,3.31-2.49,4.1-2,5C9,83.21,16.52,82.59,20.63,78Z"/><circle class="cls-13" cx="15.63" cy="74.03" r="3.25"/><path class="cls-15" d="M272.23,150.34c-4.54-4.1-12.66-4.51-14.52-1.5-1.75,2.84,1.62,9.49,6,11,2.18.76,3.43,0,7,1,3.31.93,4.11,2.49,5,2C277.41,162,276.79,154.45,272.23,150.34Z"/><circle class="cls-13" cx="268.23" cy="155.35" r="3.25"/><path class="cls-15" d="M275.78,48.3c-4.55-4.1-12.67-4.51-14.52-1.5-1.75,2.84,1.61,9.49,6,11,2.17.75,3.42,0,7,1,3.3.94,4.1,2.5,5,2C281,59.91,280.34,52.41,275.78,48.3Z"/><circle class="cls-13" cx="271.77" cy="53.31" r="3.25"/><path class="cls-14" d="M219.89,20.74a6.44,6.44,0,0,0-6.78,1.07c-2.44,2.42-2,6.89-.18,8.27,1.42,1.05,2.81-.35,6.45.34,3.08.58,3.93,1.93,4.71,1.41C225.75,30.73,224.82,22.75,219.89,20.74Z"/><circle class="cls-13" cx="216.66" cy="25.62" r="2.97"/><path class="cls-14" d="M108.37,146.56c.91-2.24,1-5.68-1.24-7.89-2.83-2.84-8-2.36-9.62-.21-1.23,1.65.4,3.27-.4,7.51-.68,3.58-2.25,4.57-1.64,5.48C96.75,153.38,106,152.29,108.37,146.56Z"/><circle class="cls-13" cx="102.7" cy="142.8" r="3.45"/><path class="cls-16" d="M26.29,26.29a4.33,4.33,0,0,0,3.05-3.49c.22-2.31-1.93-4.45-3.49-4.36-1.18.07-1.3,1.4-3.48,2.62-1.85,1-2.87.7-3.05,1.3C18.93,23.65,22.87,27.38,26.29,26.29Z"/><circle class="cls-13" cx="25.86" cy="22.36" r="2"/><rect class="cls-17" x="8.12" y="9.92" width="265.8" height="144.39" rx="4.97"/><path class="cls-18" d="M55.77,77.7V64.77h3V77.7Z"/><path class="cls-18" d="M61.92,77.7V64.77H65.2l2.14,5.75q.21.56.39,1.17c.12.41.25.82.39,1.21h.08c.14-.39.26-.8.38-1.21s.24-.8.38-1.17l2.1-5.75h3.27V77.7H71.59V73a21.26,21.26,0,0,1,.14-2.21c.1-.84.18-1.57.25-2.19H71.9l-1.09,3.07-1.89,4.94H67.26l-1.9-4.94L64.3,68.56h-.08c.07.62.15,1.35.25,2.19A21.26,21.26,0,0,1,64.61,73V77.7Z"/><path class="cls-18" d="M84.53,77.7l-.82-3.07H79.65l-.81,3.07H75.77l4.17-12.93h3.61L87.71,77.7Zm-3.94-6.54-.33,1.19H83.1l-.3-1.19c-.2-.65-.38-1.34-.56-2.07s-.35-1.43-.53-2.1h-.08c-.16.69-.33,1.39-.5,2.11S80.78,70.51,80.59,71.16Z"/><path class="cls-18" d="M94.84,77.94a6.67,6.67,0,0,1-4.62-1.68,6.31,6.31,0,0,1-1.89-5,7.29,7.29,0,0,1,.87-3.66,6.11,6.11,0,0,1,2.36-2.32,6.78,6.78,0,0,1,3.26-.8A5.63,5.63,0,0,1,97.3,65,6.28,6.28,0,0,1,99,66.22l-1.57,1.86a5.4,5.4,0,0,0-1.08-.73,3.06,3.06,0,0,0-1.43-.3,3.22,3.22,0,0,0-2.53,1.11,4.48,4.48,0,0,0-1,3.06,4.66,4.66,0,0,0,.93,3.1,3.47,3.47,0,0,0,2.8,1.1,2.23,2.23,0,0,0,1.43-.4V72.8h-2.2V70.42h4.86v6a5.87,5.87,0,0,1-1.85,1.12A7,7,0,0,1,94.84,77.94Z"/><path class="cls-18" d="M102,77.7V64.77h8.33v2.46H105v2.6h4.53v2.44H105v3h5.53V77.7Z"/><path class="cls-18" d="M124.31,77.7l-.82-3.07h-4.06l-.81,3.07h-3.07l4.17-12.93h3.61l4.16,12.93Zm-3.94-6.54L120,72.35h2.84l-.31-1.19c-.19-.65-.37-1.34-.55-2.07s-.35-1.43-.53-2.1h-.08c-.16.69-.33,1.39-.5,2.11S120.56,70.51,120.37,71.16Z"/><path class="cls-18" d="M134.29,77.94a6.42,6.42,0,0,1-3.09-.75A5.85,5.85,0,0,1,129,75a8.3,8.3,0,0,1,0-7.32,6.06,6.06,0,0,1,2.31-2.32,6.35,6.35,0,0,1,3.11-.8,5.23,5.23,0,0,1,2.31.5,6.43,6.43,0,0,1,1.69,1.19l-1.59,1.86a5.26,5.26,0,0,0-1.07-.74,2.68,2.68,0,0,0-1.28-.29,2.92,2.92,0,0,0-2.31,1.11,4.52,4.52,0,0,0-.95,3.06,4.83,4.83,0,0,0,.88,3.1,2.84,2.84,0,0,0,2.34,1.1,2.92,2.92,0,0,0,1.46-.35,4.39,4.39,0,0,0,1.14-.86L138.6,76A5.47,5.47,0,0,1,134.29,77.94Z"/><path class="cls-18" d="M149.66,81.31a6.21,6.21,0,0,1-3.58-1,6.15,6.15,0,0,1-2.18-2.52,5.44,5.44,0,0,1-3.39-2.16,7.32,7.32,0,0,1-1.28-4.46,6.83,6.83,0,0,1,1.67-4.92,6.37,6.37,0,0,1,8.74,0,6.8,6.8,0,0,1,1.67,4.91,7.45,7.45,0,0,1-1.15,4.29,5.33,5.33,0,0,1-3.07,2.23,2.44,2.44,0,0,0,1.26,1A5,5,0,0,0,150,79a5.1,5.1,0,0,0,.8-.06,4.81,4.81,0,0,0,.67-.15l.53,2.12a4.55,4.55,0,0,1-1,.31A7.2,7.2,0,0,1,149.66,81.31Zm-4.39-5.75a2.5,2.5,0,0,0,2.16-1.16,5.56,5.56,0,0,0,.8-3.22,5,5,0,0,0-.8-3,2.67,2.67,0,0,0-4.32,0,5.07,5.07,0,0,0-.8,3,5.64,5.64,0,0,0,.8,3.22A2.5,2.5,0,0,0,145.27,75.56Z"/><path class="cls-18" d="M159.07,77.94a5.08,5.08,0,0,1-4-1.49q-1.37-1.49-1.37-4.74V64.77h3V72a4.48,4.48,0,0,0,.59,2.66,2.36,2.36,0,0,0,3.45,0,4.31,4.31,0,0,0,.62-2.66V64.77h2.89v6.94q0,3.26-1.33,4.74A5,5,0,0,1,159.07,77.94Z"/><path class="cls-18" d="M167.4,77.7V64.77h3V77.7Z"/><path class="cls-18" d="M177.6,77.94a7.74,7.74,0,0,1-2.61-.47,7.13,7.13,0,0,1-2.31-1.39l1.72-2A6.1,6.1,0,0,0,176,75a4.12,4.12,0,0,0,1.69.38c1.24,0,1.86-.41,1.86-1.25a1,1,0,0,0-.52-.9,14.07,14.07,0,0,0-1.4-.65l-1.73-.71A5,5,0,0,1,174,70.65a3.16,3.16,0,0,1-.83-2.27,3.47,3.47,0,0,1,1.33-2.73A5.1,5.1,0,0,1,178,64.53a6.24,6.24,0,0,1,2.29.44,5.83,5.83,0,0,1,2,1.27l-1.54,1.84a5.49,5.49,0,0,0-1.3-.76,3.78,3.78,0,0,0-1.45-.27,2.17,2.17,0,0,0-1.24.31,1,1,0,0,0-.45.86.94.94,0,0,0,.58.89,15.26,15.26,0,0,0,1.44.64l1.71.67a4.92,4.92,0,0,1,1.92,1.31,3.25,3.25,0,0,1,.71,2.2,3.7,3.7,0,0,1-1.31,2.81A5.32,5.32,0,0,1,177.6,77.94Z"/><path class="cls-18" d="M187.07,77.7V67.23h-3.65V64.77h10.33v2.46h-3.66V77.7Z"/><path class="cls-18" d="M195.83,77.7V64.77h3V77.7Z"/><path class="cls-18" d="M207.38,77.94A5.74,5.74,0,0,1,203,76.15a7,7,0,0,1-1.67-5A6.83,6.83,0,0,1,203,66.26a6.37,6.37,0,0,1,8.74,0,6.8,6.8,0,0,1,1.67,4.91,7,7,0,0,1-1.67,5A5.72,5.72,0,0,1,207.38,77.94Zm0-2.52a2.52,2.52,0,0,0,2.17-1.15,5.36,5.36,0,0,0,.79-3.09,5.07,5.07,0,0,0-.79-3,2.56,2.56,0,0,0-2.17-1.1,2.53,2.53,0,0,0-2.16,1.1,5.07,5.07,0,0,0-.8,3,5.36,5.36,0,0,0,.8,3.09A2.49,2.49,0,0,0,207.38,75.42Z"/><path class="cls-18" d="M215.93,77.7V64.77H219l3.47,6.43,1.3,2.85h.08c-.05-.69-.13-1.45-.22-2.3a20.57,20.57,0,0,1-.14-2.42V64.77h2.85V77.7h-3.08l-3.47-6.45-1.3-2.81h-.09c.07.71.15,1.48.24,2.3a21.74,21.74,0,0,1,.13,2.38V77.7Z"/><path class="cls-18" d="M97,101.75a7.52,7.52,0,0,1-2.61-.48,6.93,6.93,0,0,1-2.31-1.38l1.72-2a6.1,6.1,0,0,0,1.59,1,4.12,4.12,0,0,0,1.69.38c1.24,0,1.86-.42,1.86-1.25a1,1,0,0,0-.52-.9,14.07,14.07,0,0,0-1.4-.65l-1.73-.71a5.26,5.26,0,0,1-1.85-1.26,3.16,3.16,0,0,1-.83-2.27A3.47,3.47,0,0,1,94,89.46a5.08,5.08,0,0,1,3.41-1.12,6.44,6.44,0,0,1,2.29.43,6.14,6.14,0,0,1,2,1.27l-1.54,1.85a5.49,5.49,0,0,0-1.3-.76,3.78,3.78,0,0,0-1.45-.27,2.17,2.17,0,0,0-1.24.31,1,1,0,0,0-.46.86,1,1,0,0,0,.59.89,15.26,15.26,0,0,0,1.44.64l1.71.67a4.92,4.92,0,0,1,1.92,1.31,3.3,3.3,0,0,1,.71,2.2,3.72,3.72,0,0,1-1.31,2.81A5.32,5.32,0,0,1,97,101.75Z"/><path class="cls-18" d="M109.73,101.75a5.72,5.72,0,0,1-4.37-1.79,7,7,0,0,1-1.67-5,6.79,6.79,0,0,1,1.67-4.92,6.37,6.37,0,0,1,8.74,0A6.84,6.84,0,0,1,115.77,95a7,7,0,0,1-1.67,5A5.74,5.74,0,0,1,109.73,101.75Zm0-2.52a2.49,2.49,0,0,0,2.16-1.15,5.36,5.36,0,0,0,.8-3.09,5.07,5.07,0,0,0-.8-3,2.68,2.68,0,0,0-4.33,0,5.07,5.07,0,0,0-.79,3,5.36,5.36,0,0,0,.79,3.09A2.5,2.5,0,0,0,109.73,99.23Z"/><path class="cls-18" d="M118.28,101.51V88.58h8.39V91h-5.39v3h4.61v2.46h-4.61v5Z"/><path class="cls-18" d="M131.57,101.51V91h-3.66V88.58h10.33V91h-3.65v10.47Z"/><path class="cls-18" d="M141.51,101.51,139,88.58h3.08l.92,6c.08.67.17,1.35.26,2s.19,1.37.27,2.06h.08c.14-.69.27-1.38.4-2.06s.26-1.36.4-2l1.42-6h2.56l1.42,6c.14.65.27,1.31.4,2s.26,1.38.4,2.09h.08c.1-.71.19-1.4.28-2.08s.18-1.35.27-2l.92-6h2.88l-2.37,12.93h-3.77l-1.31-5.87c-.11-.5-.21-1-.3-1.52s-.16-1-.23-1.48H147c-.08.48-.17,1-.26,1.48s-.18,1-.29,1.52l-1.25,5.87Z"/><path class="cls-18" d="M164,101.51l-.82-3.07H159.1l-.82,3.07h-3.06l4.17-12.93H163l4.16,12.93ZM160,95l-.33,1.19h2.84L162.24,95c-.19-.65-.37-1.34-.55-2.07s-.35-1.43-.53-2.1h-.08c-.16.69-.33,1.39-.5,2.11S160.23,94.32,160,95Z"/><path class="cls-18" d="M171.61,101.51h-3V88.58h4.8a7.11,7.11,0,0,1,3.62.86,3.32,3.32,0,0,1,1.5,3.16,4,4,0,0,1-.65,2.35,4.18,4.18,0,0,1-1.72,1.38l3,5.18h-3.36l-2.55-4.66h-1.66Zm0-7h1.55c1.62,0,2.43-.64,2.43-1.93a1.43,1.43,0,0,0-.62-1.33,3.57,3.57,0,0,0-1.81-.37h-1.55Z"/><path class="cls-18" d="M181.12,101.51V88.58h8.33V91h-5.33v2.6h4.54v2.44h-4.54v3h5.54v2.46Z"/><path class="cls-19" d="M271.4.5H10.62A10,10,0,0,0,.5,10.39V163.26h281V10.39A10,10,0,0,0,271.4.5Zm2.45,146.87c0,3.83-4.31,7-9.58,7H17.87c-5.27,0-9.57-3.13-9.57-7V16.56c0-3.83,4.3-7,9.57-7h246.4c5.27,0,9.58,3.13,9.58,7Z"/><path class="cls-20" d="M281.54,163.26V196.7a10,10,0,0,1-10.14,9.89H10.62A10,10,0,0,1,.5,196.7V163.26Z"/><ellipse class="cls-21" cx="141.02" cy="184.58" rx="7.54" ry="7.37"/><path class="cls-22" d="M67,236.18H215a11,11,0,0,1,11,11v0a0,0,0,0,1,0,0H56a0,0,0,0,1,0,0v0a11,11,0,0,1,11-11Z"/></svg>